<svg width="120" height="68" viewBox="0 0 120 68" fill="none" xmlns="http://www.w3.org/2000/svg">
<g clip-path="url(#clip0_890_1620)">
<path d="M46.6095 44.8534C49.2572 44.8534 51.2903 44.17 52.6899 42.7939C54.0894 41.4178 55.0633 39.5862 55.5834 37.2895C56.113 34.9928 56.3778 32.4589 56.3778 29.6877C56.3778 26.9164 56.113 24.3446 55.5834 22.0669C55.0539 19.7892 54.0894 17.9575 52.6899 16.5909C51.2809 15.2148 49.2572 14.5315 46.6095 14.5315C43.9617 14.5315 41.9192 15.2148 40.5007 16.5909C39.0823 17.967 38.1083 19.7892 37.5787 22.0669C37.0492 24.3446 36.7844 26.888 36.7844 29.6877C36.7844 32.4874 37.0492 34.9928 37.5787 37.2895C38.1083 39.5862 39.0823 41.4178 40.5007 42.7939C41.9192 44.17 43.9617 44.8534 46.6095 44.8534ZM46.6095 45.3279C43.2525 45.3279 40.4156 44.6257 38.0799 43.2305C35.7537 41.8259 33.9759 39.9468 32.7655 37.5742C31.5456 35.2111 30.9404 32.5728 30.9404 29.6877C30.9404 26.8026 31.5456 24.1737 32.7655 21.8011C33.9759 19.438 35.7537 17.5399 38.0799 16.1258C40.4156 14.7118 43.2525 14 46.6095 14C49.9665 14 52.7938 14.7118 55.1107 16.1258C57.4274 17.5399 59.1863 19.4285 60.4062 21.8011C61.6165 24.1737 62.2217 26.8026 62.2217 29.6877C62.2217 32.5728 61.6165 35.2016 60.4062 37.5742C59.1957 39.9374 57.4274 41.8259 55.1107 43.2305C52.7938 44.6351 49.957 45.3279 46.6095 45.3279Z" fill="white"/>
<path d="M98.1179 35.6095L98.1559 35.4956L98.3444 34.9641H98.3541L103.375 20.6431L109.711 34.8882L109.985 35.4956L110.005 35.5336L114.108 44.8532H120L106.628 14.5312H105.389L92.6426 44.8532H94.8928L98.1179 35.6095Z" fill="white"/>
<path d="M15.0452 29.7349C16.6055 29.564 18.0429 29.2129 19.3573 28.672C20.6622 28.1405 21.7308 27.3528 22.5441 26.3089C23.3573 25.2649 23.7639 23.9078 23.7639 22.2375C23.7639 20.1591 23.1682 18.5646 21.9672 17.4543C20.7663 16.3439 19.2533 15.5752 17.4187 15.1576C15.5842 14.74 13.693 14.5312 11.745 14.5312H0.00976562V44.8532H5.61733V15.0532H11.745C13.6268 15.0532 15.1209 15.7175 16.2273 17.0462C17.3242 18.3748 17.8821 20.1021 17.8821 22.247C17.8821 24.3918 17.258 26.1191 16.0098 27.4477C14.7616 28.7764 13.3431 29.4407 11.745 29.4407H8.57717L18.7805 44.8628H25.3904L15.0452 29.7444V29.7349Z" fill="white"/>
<path d="M81.569 44.8532H75.9618V30.124L66.042 14.5312H72.5574L81.5221 28.7858L89.2289 14.5312H91.4791L81.569 29.7349V44.8532Z" fill="white"/>
<path d="M0 49.8164H0.964539V53.3279H2.69504V54.0872H0V49.8164Z" fill="white"/>
<path d="M6.28845 49.8164H5.31445V54.0872H6.28845V49.8164Z" fill="white"/>
<path d="M9.17285 49.8164H11.9057V50.5756H10.1374V51.705H11.5369V52.4358H10.1374V54.0872H9.17285V49.8164Z" fill="white"/>
<path d="M14.5059 49.8164H17.2765V50.5662H15.4609V51.5721H16.9172V52.2744H15.4609V53.3374H17.3711V54.0872H14.5059V49.8164Z" fill="white"/>
<path d="M19.7354 52.749H20.6526C20.6904 53.1286 20.8512 53.4513 21.4847 53.4513C21.9103 53.4513 22.1845 53.214 22.1845 52.8818C22.1845 52.5497 22.0048 52.4264 21.3808 52.3219C20.2933 52.1796 19.8489 51.8475 19.8489 51.0218C19.8489 50.291 20.454 49.75 21.3997 49.75C22.3453 49.75 22.9127 50.1771 22.9978 51.0313H22.1089C22.0522 50.6421 21.8252 50.4618 21.3997 50.4618C20.9741 50.4618 20.7661 50.6611 20.7661 50.9458C20.7661 51.2495 20.8985 51.3919 21.5604 51.4868C22.5911 51.6197 23.1207 51.8949 23.1207 52.787C23.1207 53.5462 22.5061 54.1441 21.4942 54.1441C20.3311 54.1441 19.7921 53.5936 19.7354 52.7395" fill="white"/>
<path d="M26.4772 50.5662H25.333V49.8164H28.5954V50.5662H27.4512V54.0872H26.4772V50.5662Z" fill="white"/>
<path d="M32.2365 52.2459L30.8369 49.8164H31.896L32.7565 51.4583L33.5982 49.8164H34.5343L33.2105 52.2459V54.0872H32.2365V52.2459Z" fill="white"/>
<path d="M37.0312 49.8164H37.9863V53.3279H39.7169V54.0872H37.0312V49.8164Z" fill="white"/>
<path d="M42.3164 49.8164H45.0871V50.5662H43.2715V51.5721H44.7183V52.2744H43.2715V53.3374H45.1816V54.0872H42.3164V49.8164Z" fill="white"/>
<path d="M52.4164 53.3374C53.2769 53.3374 53.6741 52.8534 53.6741 51.9708V51.9233C53.6741 51.0407 53.2959 50.5756 52.3975 50.5756H52.0192V53.3374H52.4164ZM51.0641 49.8164H52.4542C53.9483 49.8164 54.6859 50.6325 54.6859 51.9043V51.9518C54.6859 53.233 53.9389 54.0872 52.4448 54.0872H51.0547V49.8164H51.0641Z" fill="white"/>
<path d="M57.3428 49.8164H60.1134V50.5662H58.2979V51.5721H59.7446V52.2744H58.2979V53.3374H60.208V54.0872H57.3428V49.8164Z" fill="white"/>
<path d="M62.4873 49.8164H63.5086L64.5204 53.1001L65.5323 49.8164H66.4306L65.0216 54.0872H63.9152L62.4873 49.8164Z" fill="white"/>
<path d="M68.9648 49.8164H71.7356V50.5662H69.9199V51.5721H71.3668V52.2744H69.9199V53.3374H71.8302V54.0872H68.9648V49.8164Z" fill="white"/>
<path d="M74.458 49.8164H75.4229V53.3279H77.1529V54.0872H74.458V49.8164Z" fill="white"/>
<path d="M82.7516 51.9711V51.9237C82.7516 51.0885 82.3074 50.5286 81.5703 50.5286C80.8324 50.5286 80.3881 51.0695 80.3881 51.9331V51.9806C80.3881 52.8538 80.889 53.3852 81.5792 53.3852C82.2694 53.3852 82.7516 52.8348 82.7516 51.9711ZM79.376 51.9806V51.9331C79.376 50.6614 80.3024 49.7598 81.5606 49.7598C82.818 49.7598 83.7541 50.6234 83.7541 51.9142V51.9616C83.7541 53.2334 82.8843 54.1634 81.5606 54.1634C80.2368 54.1634 79.376 53.2334 79.376 51.9902" fill="white"/>
<path d="M87.8578 51.8569C88.3311 51.8569 88.5763 51.6291 88.5763 51.202V51.1735C88.5763 50.718 88.3118 50.5377 87.8578 50.5377H87.3659V51.8474H87.8578V51.8569ZM86.4111 49.8164H87.8772C88.917 49.8164 89.5036 50.272 89.5036 51.183V51.202C89.5036 52.1036 88.879 52.5402 87.9055 52.5402H87.3659V54.0966H86.4111V49.8259V49.8164Z" fill="white"/>
<path d="M92.085 49.8164H93.3617L94.3545 52.4737L95.3384 49.8164H96.5861V54.0872H95.6313V51.0881L94.4492 54.0872H94.1369L92.9555 51.0881V54.0872H92.085V49.8164Z" fill="white"/>
<path d="M99.4609 49.8164H102.241V50.5662H100.425V51.5721H101.873V52.2744H100.425V53.3374H102.336V54.0872H99.4609V49.8164Z" fill="white"/>
<path d="M104.965 49.8164H106.081L107.697 52.635V49.8164H108.558V54.0872H107.594L105.815 51.0502V54.0872H104.965V49.8164Z" fill="white"/>
<path d="M112.255 50.5662H111.111V49.8164H114.374V50.5662H113.23V54.0872H112.255V50.5662Z" fill="white"/>
<path d="M116.605 52.749H117.523C117.561 53.1286 117.721 53.4513 118.355 53.4513C118.78 53.4513 119.055 53.214 119.055 52.8818C119.055 52.5497 118.875 52.4264 118.251 52.3219C117.164 52.1796 116.72 51.8475 116.72 51.0218C116.72 50.291 117.325 49.75 118.27 49.75C119.216 49.75 119.783 50.1771 119.868 51.0313H118.979C118.923 50.6421 118.695 50.4618 118.27 50.4618C117.844 50.4618 117.636 50.6611 117.636 50.9458C117.636 51.2495 117.769 51.3919 118.431 51.4868C119.462 51.6197 119.991 51.8949 119.991 52.787C119.991 53.5462 119.377 54.1441 118.364 54.1441C117.202 54.1441 116.662 53.5936 116.605 52.7395" fill="white"/>
</g>
<defs>
<clipPath id="clip0_890_1620">
<rect width="120" height="40.1633" fill="white" transform="translate(0 14)"/>
</clipPath>
</defs>
</svg>
