<svg width="50" height="47" viewBox="0 0 50 47" fill="none" xmlns="http://www.w3.org/2000/svg">
<path d="M48.6659 16.4004H47.2565C46.5208 16.4004 45.9223 16.9988 45.9223 17.7344V21.1519H42.0698V17.7344C42.0698 16.9977 41.4725 16.4004 40.7358 16.4004H39.3261C38.5894 16.4004 37.9921 16.9976 37.9921 17.7344V18.9516H36.9804V14.975C37.4818 14.9038 37.8691 14.4729 37.8691 13.952V11.7326C37.8691 11.4373 37.7441 11.1712 37.5449 10.9825C37.3275 7.60648 34.6886 4.87949 31.3505 4.52685V0.92607C31.3505 0.520211 31.0216 0.191406 30.6159 0.191406C30.2101 0.191406 29.8812 0.520312 29.8812 0.92607V4.52685C26.543 4.87949 23.904 7.60655 23.6867 10.9827C23.4877 11.1714 23.3627 11.4374 23.3627 11.7326V13.952C23.3627 14.4729 23.7499 14.9038 24.2513 14.975V18.9516H16.9677C16.5619 18.9516 16.233 19.2805 16.233 19.6863C16.233 20.0922 16.5619 20.421 16.9677 20.421H24.2513V23.5505H10.2447C9.59562 23.5505 9.0675 23.0223 9.0675 22.3731V21.5983C9.0675 20.9491 9.59562 20.421 10.2447 20.421H12.4285C12.8343 20.421 13.1632 20.0921 13.1632 19.6863C13.1632 19.2805 12.8343 18.9516 12.4285 18.9516H10.2447C8.78531 18.9516 7.59805 20.139 7.59805 21.5984V22.3733C7.59805 23.5641 8.38859 24.5734 9.47227 24.9047L14.1447 30.4555H11.0508C9.60938 30.4555 8.43664 31.6282 8.43664 33.0698V33.9098C8.43664 34.8547 8.94055 35.6839 9.69367 36.1433L5.73066 40.5579C5.51387 40.7994 5.20332 40.938 4.8788 40.938H2.61406C1.17266 40.9377 0 42.1104 0 43.5519V44.392C0 45.8335 1.17266 47.0062 2.61406 47.0062H7.24853C7.98156 47.0062 8.68524 46.6956 9.17938 46.1542L12.818 42.1673L17.9593 36.5237H21.0755C22.517 36.5237 23.6897 35.3511 23.6897 33.9097V33.0695C23.6897 31.8412 22.838 30.8088 21.6943 30.5301L17.0562 25.0199H24.2511V36.9971V45.6321C24.2509 46.357 24.8583 46.966 25.5852 46.966H35.6461C36.3775 46.966 36.9802 46.3453 36.9802 45.6319C36.9802 45.6145 36.9802 36.9971 36.9802 36.9971V24.8216H37.9919V27.738C37.9919 28.1512 38.333 28.4848 38.7491 28.4723C39.1512 28.4604 39.4613 28.1096 39.4613 27.7073V17.8698H40.6003V45.4966H39.4613V32.3149C39.4613 31.9016 39.1202 31.5682 38.7041 31.5805C38.302 31.5926 37.9919 31.9434 37.9919 32.3457V45.6319C37.9919 46.3687 38.5891 46.966 39.3259 46.966H40.7355C41.4723 46.966 42.0695 46.3687 42.0695 45.6319V44.2891H45.9221V45.6319C45.9221 46.3675 46.5205 46.966 47.2562 46.966H48.6656C49.4012 46.966 49.9997 46.3676 49.9997 45.6319V17.7344C50 16.9988 49.4016 16.4004 48.6659 16.4004ZM11.7323 41.1772L8.09406 45.1636C7.87773 45.4007 7.56953 45.5367 7.24853 45.5367H2.61406C1.98291 45.5367 1.46943 45.0231 1.46943 44.392V43.5519C1.46943 42.9207 1.98291 42.4071 2.61406 42.4071H4.8788C5.61992 42.4071 6.329 42.0909 6.82412 41.5393L11.3266 36.5237H15.9716L11.7323 41.1772ZM22.2202 33.0695V33.9097C22.2202 34.5409 21.7067 35.0543 21.0755 35.0543H17.6903C17.673 35.053 17.6559 35.0505 17.6382 35.0505H11.0022C10.9977 35.0505 10.9934 35.0511 10.989 35.0512C10.3866 35.0187 9.90609 34.52 9.90609 33.9097V33.0695C9.90609 32.4384 10.4196 31.9248 11.0508 31.9248H15.7235H21.0755C21.7067 31.9248 22.2202 32.4384 22.2202 33.0695ZM19.7107 30.4554H16.0654L11.49 25.0198H15.1353L19.7107 30.4554ZM30.6155 5.95703C33.3857 5.95703 35.6823 8.02499 36.0424 10.6981H25.1887C25.5488 8.02499 27.8452 5.95703 30.6155 5.95703ZM35.5108 45.4966H25.7204V37.7317H35.5108V45.4966ZM35.5108 36.2623H25.7204V24.2852V19.6863V14.9864H35.5108V36.2623ZM36.3995 13.517H36.2454H24.9858H24.8317V12.1676H36.3995V13.517ZM37.9919 23.3522H36.9802V20.421H37.9919V23.3522ZM45.9223 42.8198H42.0698V39.9555H45.9223V42.8198ZM45.9223 38.4862H42.0698V35.6219H45.9223V38.4862ZM45.9223 34.1526H42.0698V31.2884H45.9223V34.1526ZM45.9223 29.819H42.0698V26.9549H45.9223V29.819ZM45.9223 25.4855H42.0698V22.6213H45.9223V25.4855ZM48.5305 45.4966H47.3916V17.8698H48.5305V45.4966Z" fill="#D79970"/>
<path d="M29.0345 34.6698H32.1935C32.7638 34.6698 33.228 34.2057 33.228 33.6354V32.1655C33.228 30.9488 32.2382 29.959 31.0215 29.959H30.2064C28.9898 29.959 28 30.9488 28 32.1655V33.6354C28.0002 34.2057 28.4642 34.6698 29.0345 34.6698ZM29.4696 32.1653C29.4696 31.759 29.8002 31.4284 30.2066 31.4284H31.0216C31.428 31.4284 31.7587 31.7589 31.7587 32.1653V33.2003H29.4696V32.1653Z" fill="#D79970"/>
<path d="M29.0345 27.8905H32.1935C32.7638 27.8905 33.228 27.4265 33.228 26.8561V25.3862C33.228 24.1695 32.2382 23.1797 31.0215 23.1797H30.2064C28.9898 23.1797 28 24.1695 28 25.3862V26.8561C28.0002 27.4265 28.4642 27.8905 29.0345 27.8905ZM29.4696 25.3862C29.4696 24.9798 29.8002 24.6491 30.2066 24.6491H31.0216C31.428 24.6491 31.7587 24.9797 31.7587 25.3862V26.4211H29.4696V25.3862Z" fill="#D79970"/>
<path d="M29.0345 21.1112H32.1935C32.7638 21.1112 33.228 20.6472 33.228 20.0767V18.6068C33.228 17.3902 32.2382 16.4004 31.0215 16.4004H30.2064C28.9898 16.4004 28 17.3902 28 18.6068V20.0767C28.0002 20.6472 28.4642 21.1112 29.0345 21.1112ZM29.4696 18.6068C29.4696 18.2005 29.8002 17.8698 30.2066 17.8698H31.0216C31.428 17.8698 31.7587 18.2004 31.7587 18.6068V19.6418H29.4696V18.6068Z" fill="#D79970"/>
</svg>
