<svg width="48" height="45" viewBox="0 0 48 45" fill="none" xmlns="http://www.w3.org/2000/svg">
<path d="M1.31304 38.0354L6.31736 38.6279L17.2512 39.9349V43.6033C17.2514 43.7248 17.2762 43.8451 17.3241 43.9561C17.3719 44.0671 17.4416 44.1666 17.5288 44.248C17.683 44.3933 17.8838 44.4741 18.0923 44.4746H18.1848L23.2311 43.9082L38.3702 42.1655C38.4807 42.153 38.5877 42.118 38.6851 42.0626C38.7824 42.0071 38.8684 41.9324 38.9379 41.8426C39.0073 41.7527 39.0591 41.6496 39.0902 41.5391C39.1212 41.4286 39.1309 41.3128 39.1188 41.1984C39.1066 41.0839 39.0728 40.9731 39.0194 40.8722C38.9659 40.7713 38.8937 40.6823 38.807 40.6103C38.7203 40.5383 38.6208 40.4847 38.5141 40.4525C38.4074 40.4204 38.2956 40.4103 38.1852 40.4229L23.803 42.0348L19.1184 19.8244L22.3648 19.4584L22.5498 21.2011C22.5727 21.4152 22.6713 21.613 22.8266 21.7562C22.982 21.8994 23.183 21.9779 23.3909 21.9766H23.4834C23.5934 21.9646 23.6999 21.9304 23.797 21.8757C23.8941 21.8211 23.9799 21.7471 24.0495 21.6581C24.119 21.5691 24.1709 21.4667 24.2022 21.357C24.2335 21.2471 24.2437 21.132 24.232 21.0181L24.047 19.2755L29.7494 18.6306L35.7545 17.9597L35.9395 19.7024C35.9641 19.9335 36.0763 20.145 36.2513 20.2905C36.4264 20.4359 36.6501 20.5033 36.8731 20.4779C37.0963 20.4525 37.3004 20.3363 37.4408 20.1549C37.5812 19.9735 37.6463 19.7418 37.6217 19.5107L37.4451 17.768L40.843 17.3672L45.5361 39.6387L40.7084 40.1789C40.598 40.1915 40.4909 40.2265 40.3936 40.2819C40.2962 40.3373 40.2103 40.4121 40.1408 40.5019C40.0713 40.5917 40.0195 40.6948 39.9884 40.8053C39.9574 40.9159 39.9477 41.0316 39.9598 41.1461C39.972 41.2605 40.0058 41.3713 40.0593 41.4723C40.1127 41.5731 40.1849 41.6621 40.2716 41.7341C40.3583 41.8062 40.4578 41.8598 40.5645 41.892C40.6712 41.9241 40.783 41.9341 40.8934 41.9216L46.6884 41.2768C46.8052 41.2631 46.9178 41.2243 47.0192 41.1628C47.1206 41.1012 47.2085 41.0184 47.2771 40.9195C47.3459 40.8214 47.3941 40.7095 47.4187 40.591C47.4433 40.4724 47.4437 40.3499 47.4201 40.2312L42.3737 16.2519C42.3292 16.0411 42.2109 15.8549 42.0415 15.7294C41.8721 15.6038 41.6638 15.5479 41.457 15.5723L37.2516 16.0428L36.7134 10.8148C36.5851 9.53414 36.1545 8.30594 35.4595 7.23867C34.7645 6.17133 33.8266 5.2977 32.7285 4.69487C31.6304 4.09205 30.4059 3.77859 29.1632 3.78216C27.9205 3.78573 26.6977 4.10623 25.6029 4.71535C25.0134 3.63345 24.1815 2.71413 23.1774 2.0348C22.1734 1.35548 21.0264 0.936015 19.8332 0.811742C19.5354 0.762367 19.2348 0.733258 18.9333 0.724609C17.0748 0.729805 15.2832 1.44309 13.8997 2.72858C12.5162 4.01407 11.6375 5.78195 11.431 7.69531L10.8591 12.9234L6.65378 12.4354C6.44805 12.4107 6.24073 12.4655 6.07157 12.5893C5.9024 12.713 5.78328 12.8972 5.73702 13.1063L0.581312 36.9811C0.556383 37.1012 0.556226 37.2253 0.580867 37.3455C0.605507 37.4655 0.654382 37.579 0.724289 37.6781C0.79289 37.777 0.880719 37.8598 0.982125 37.9214C1.08353 37.983 1.19626 38.0218 1.31304 38.0354ZM22.1209 42.2788L18.9333 42.6361V27.2046L22.1209 42.2788ZM23.8955 17.5415L23.7441 16.1386L24.0722 16.1822L23.8955 17.5415ZM28.942 16.9751L25.6029 17.3672L25.7123 16.4L28.9587 16.7834L28.942 16.9751ZM24.8207 7.64305C24.8881 8.17516 24.8881 8.71414 24.8207 9.24633L24.703 10.292C24.6762 10.523 24.7391 10.7557 24.878 10.9387C25.0167 11.1217 25.2201 11.2401 25.4431 11.2678C25.6662 11.2955 25.8907 11.2304 26.0674 11.0866C26.2441 10.9427 26.3584 10.7321 26.3851 10.501L26.5028 9.44672C26.6179 8.42578 26.5321 7.39133 26.2505 6.40578C26.9612 5.98219 27.7486 5.71523 28.5634 5.62156C29.3322 5.5357 30.1097 5.60758 30.8516 5.83305C31.5936 6.05852 32.2854 6.43313 32.8875 6.93563C33.4897 7.43813 33.9904 8.05852 34.3611 8.76148C34.7318 9.46445 34.9652 10.2362 35.048 11.0326L35.5948 16.2606L30.7081 16.7747L30.8343 16.1996C30.8592 16.0795 30.8594 15.9554 30.8348 15.8352C30.8102 15.7151 30.7612 15.6017 30.6913 15.5026C30.6227 15.4037 30.5349 15.3209 30.4335 15.2593C30.3321 15.1977 30.2194 15.1589 30.1026 15.1453L25.8973 14.6486L26.0655 13.1151C26.0787 13.0006 26.0702 12.8846 26.0401 12.7737C26.0101 12.6627 25.9592 12.5589 25.8905 12.4683C25.8218 12.3777 25.7365 12.302 25.6395 12.2455C25.5426 12.1891 25.4358 12.1529 25.3254 12.1391C25.2149 12.1255 25.103 12.1344 24.9959 12.1655C24.8887 12.1966 24.7885 12.2492 24.7011 12.3205C24.6136 12.3916 24.5405 12.48 24.486 12.5805C24.4315 12.6809 24.3966 12.7915 24.3834 12.9059L24.2067 14.4482L23.5002 14.3698L23.29 12.3396C23.2136 11.4894 23.3104 10.632 23.5741 9.82297C23.8377 9.01391 24.2625 8.27125 24.8207 7.64305ZM13.1468 7.86086C13.3125 6.38633 13.9916 5.02498 15.057 4.03205C16.1222 3.03912 17.5004 2.48277 18.9333 2.46729C19.163 2.45468 19.3932 2.45468 19.623 2.46729C20.5866 2.57881 21.5081 2.93762 22.3041 3.51122C23.1001 4.08482 23.7454 4.85509 24.1815 5.75227C23.2693 6.58398 22.5637 7.63109 22.1246 8.80492C21.6854 9.97883 21.5255 11.245 21.6584 12.4964L21.8349 14.1259L12.5833 13.028L13.1468 7.86086ZM5.69497 21.3492V27.8146C5.69497 28.0457 5.78358 28.2673 5.94131 28.4307C6.09904 28.5941 6.31297 28.6859 6.53603 28.6859C6.75909 28.6859 6.97305 28.5941 7.13078 28.4307C7.28852 28.2673 7.37711 28.0457 7.37711 27.8146L7.46961 14.1955L7.89016 14.2478L10.7161 14.5789L10.5311 16.3216C10.5074 16.5502 10.572 16.7792 10.7106 16.9587C10.8492 17.1383 11.0507 17.2538 11.2712 17.2801H11.3637C11.5716 17.2814 11.7727 17.2029 11.928 17.0596C12.0833 16.9164 12.182 16.7187 12.2048 16.5046L12.3982 14.7619L22.0536 15.9034L22.2387 17.6983L18.0334 18.1688C17.9166 18.1825 17.8038 18.2213 17.7024 18.2828C17.601 18.3444 17.5132 18.4273 17.4446 18.5261C17.3275 18.7016 17.2766 18.9155 17.3016 19.1273V38.1487L7.29297 36.9549V30.4112C7.29297 30.1801 7.20437 29.9584 7.04664 29.7951C6.88891 29.6316 6.67499 29.5398 6.45192 29.5398C6.22886 29.5398 6.01494 29.6316 5.8572 29.7951C5.69948 29.9584 5.61087 30.1801 5.61087 30.4112V36.772L2.45688 36.3973L5.69497 21.3492Z" fill="#D79970"/>
</svg>
