<svg width="350" height="82" viewBox="0 0 350 82" fill="none" xmlns="http://www.w3.org/2000/svg">
<path d="M0.00337121 0H81.9376C81.9376 10.6062 81.9376 21.2103 81.9376 31.8121H73.8453C73.8453 23.9411 73.8453 16.0701 73.8453 8.19901C51.9288 8.19901 30.0122 8.19901 8.09564 8.19901C8.13948 29.3688 7.99112 50.542 8.16645 71.7151C22.0616 71.9643 35.96 71.7315 49.8551 71.8364C51.6186 74.6437 53.4798 77.4117 55.1219 80.2748C36.749 80.4388 18.3695 80.3043 0 80.347C0.00224785 53.5614 0.00337121 26.779 0.00337121 0Z" fill="white"/>
<path d="M126.229 56.5011C128.546 49.8336 135.434 45.0946 142.64 44.9864C147.546 44.6256 152.418 46.1933 156.464 48.8333C155.493 51.4013 154.492 53.9626 153.413 56.4912C151.575 55.4713 149.808 54.225 147.704 53.7954C144.39 52.9296 140.569 53.4937 138.014 55.8386C134.392 59.6003 133.968 66.2546 137.676 70.0983C140.512 72.9286 145.368 73.3451 148.746 71.2265C148.746 69.895 148.737 68.5656 148.719 67.2385L141.638 67.2188V59.3478H157.823C157.823 65.0411 157.823 70.7345 157.823 76.4279C153.696 79.3676 148.771 81.0624 143.661 81.3014C136.007 81.4785 128.003 76.851 125.808 69.4948C124.779 65.251 124.516 60.6104 126.229 56.5011Z" fill="white"/>
<path d="M191.438 45.0555C197.457 44.2618 203.951 46.4854 207.798 51.1326C214.033 58.2854 213.635 70.2592 206.365 76.6085C201.898 80.2161 195.751 82.1379 189.989 80.9737C186.644 80.0652 183.137 79.042 180.581 76.6282C176.198 72.9977 174.687 67.0255 175.146 61.6273C175.352 53.179 182.827 45.7507 191.438 45.0555ZM192.113 53.5628C190.241 53.7431 188.657 54.9172 187.359 56.1536C184.732 59.6202 184.499 64.5429 186.347 68.3997C188.663 72.696 195.235 73.9324 198.998 70.7479C202.255 67.9504 202.174 63.1589 201.358 59.3578C200.394 55.501 196.176 52.7363 192.113 53.5529V53.5628Z" fill="white"/>
<path d="M46.1071 45.6258C49.2699 45.5995 52.4337 45.5886 55.5987 45.593C58.3939 49.8204 61.2869 53.9888 64.1765 58.1571C67.6157 54.0445 70.8998 49.8106 74.2143 45.5995C76.7858 45.5842 79.3619 45.5842 81.9424 45.5995C81.9424 57.1875 81.9424 68.7754 81.9424 80.3633C79.3574 80.3633 76.7723 80.3633 74.1873 80.3633C74.1401 73.2859 74.3289 66.202 74.0693 59.1279C70.4716 63.2864 67.4943 67.9041 64.1765 72.2693C58.0511 63.445 52.028 54.5638 46.1071 45.6258Z" fill="white"/>
<path d="M101.753 45.5636L109.93 45.5865C114.553 57.1734 119.27 68.7241 123.886 80.311C120.581 80.3372 117.28 80.3438 113.983 80.3503C113.207 78.4842 112.455 76.6116 111.623 74.775C107.782 74.775 103.942 74.775 100.101 74.775C99.2954 76.6247 98.53 78.4941 97.7714 80.3503C94.4704 80.3503 91.1762 80.3503 87.8786 80.3274C92.4743 68.7274 96.9891 57.0947 101.753 45.5636ZM105.857 57.8227C104.649 61.0062 103.615 64.2499 102.762 67.5402L108.932 67.5632C107.954 64.3032 107.104 60.9974 105.857 57.8227Z" fill="white"/>
<path d="M216.578 45.688C224.155 45.5142 231.751 45.5273 239.311 45.688C239.351 48.4626 239.402 51.2437 239.344 54.0215C234.961 54.1428 230.615 54.1363 226.252 54.133C226.252 55.8821 226.252 57.6312 226.252 59.3804C229.961 59.3804 233.67 59.3804 237.379 59.3804C237.379 62.109 237.379 64.842 237.379 67.5794C233.67 67.5794 229.961 67.5794 226.252 67.5794C226.252 71.8428 226.252 76.1063 226.252 80.3698C222.992 80.3698 219.733 80.3698 216.474 80.3698C216.528 68.7961 216.346 57.2388 216.578 45.688Z" fill="white"/>
<path d="M255.692 45.6715C258.879 45.6124 262.068 45.596 265.258 45.6452C265.477 54.3657 265.319 63.0927 265.369 71.8165C269.638 71.8165 273.907 71.8165 278.182 71.8165C278.182 74.6588 278.182 77.5011 278.182 80.3434C270.65 80.3434 263.119 80.3434 255.591 80.3434C255.642 68.7861 255.46 57.2255 255.692 45.6715Z" fill="white"/>
<path d="M283.342 45.6815C286.562 45.6126 289.789 45.5897 293.016 45.5667C293.016 57.1546 293.016 68.7491 293.016 80.3502C289.757 80.337 286.497 80.337 283.238 80.3502C283.292 68.7928 283.11 57.2355 283.342 45.6815Z" fill="white"/>
<path d="M299.531 45.688C307.1 45.5142 314.673 45.5273 322.246 45.688C322.317 48.4986 322.351 51.3093 322.381 54.1232H309.204C309.204 55.8723 309.204 57.6159 309.204 59.3541C312.987 59.3541 316.774 59.3541 320.56 59.4394C320.621 62.1462 320.662 64.854 320.682 67.563C316.855 67.563 313.031 67.563 309.218 67.563C309.218 71.8286 309.218 76.0921 309.218 80.3534C305.954 80.3534 302.694 80.3534 299.44 80.3534C299.48 68.7961 299.298 57.2388 299.531 45.688Z" fill="white"/>
<path d="M326.735 45.586C334.261 45.586 341.791 45.586 349.326 45.586C349.326 48.4283 349.326 51.2706 349.326 54.1129C345.05 54.1129 340.782 54.1129 336.513 54.1129V59.0324C340.222 59.0324 343.931 59.0324 347.64 59.0324C347.64 61.656 347.64 64.2797 347.64 66.9034C343.931 66.9034 340.222 66.9034 336.513 66.9034V71.8228H350C350 74.6651 350 77.5074 350 80.3498C342.245 80.3498 334.49 80.3498 326.735 80.3498C326.735 68.7618 326.735 57.1739 326.735 45.586Z" fill="white"/>
</svg>
