<svg width="120" height="24" viewBox="0 0 120 24" fill="none" xmlns="http://www.w3.org/2000/svg">
<mask id="mask0_963_1223" style="mask-type:luminance" maskUnits="userSpaceOnUse" x="0" y="0" width="120" height="24">
<path d="M120 0H0V23.8532H120V0Z" fill="white"/>
</mask>
<g mask="url(#mask0_963_1223)">
<path d="M17.4323 21.4311L17.0761 23.7941H0.0371094C0.74212 22.1593 0.697592 21.2379 0.697592 20.0564V3.81242C0.697592 2.66806 0.74212 1.66489 0.0371094 0.0746722H5.14286H16.6605L16.6902 2.48229C16.3785 2.35596 16.1262 2.2445 15.8961 2.14046C15.2801 1.91011 14.5009 1.69461 13.692 1.70204C12.4007 1.70204 6.9833 1.70204 4.57886 1.70204V10.9907H15.2727L14.7458 12.8187H4.57886V22.1147C6.54546 22.1147 12.8312 22.1147 14.2189 22.1147C15.8441 22.1445 17.462 21.223 17.462 21.223L17.4174 21.4237C17.4174 21.4311 17.4249 21.4311 17.4323 21.4311ZM43.0796 23.7941C43.3097 22.6275 43.3097 20.9778 43.1244 19.6328L41.6103 8.45672L33.3432 23.7867H31.7699L23.3692 7.76567L21.7365 19.878C21.5585 21.2751 21.5065 23.0436 21.6549 23.7941H18.7013C19.2727 22.5829 19.4137 22.0553 19.6809 20.0638L22.3525 0.0746722H23.7106L33.5139 18.7263L43.3097 0.0746722H44.3339L47.0947 20.0192C47.3692 22.0033 47.5769 22.5755 48.1262 23.7941H43.0796ZM67.9629 23.7941L64.0297 15.1074H56.1189L52.2374 23.7941H51.9035H49.1651H49.1505C50.1299 22.5755 50.4639 22.0107 51.1541 20.4948L60.3266 0.0746722H61.3582L70.382 19.9226C71.3468 21.8621 71.7996 22.464 73.1798 23.7941H67.9629ZM92.7123 23.7941L88.7791 15.1074H80.8682L76.9872 23.7941H76.6605H73.9145H73.8998C74.8793 22.5755 75.2132 22.0107 75.9035 20.4948L85.076 0.0746722H86.1075L95.1391 19.9226C96.1039 21.8621 96.5567 22.464 97.9369 23.7941H92.7123ZM115.139 23.809C112.772 21.6466 109.707 18.7783 105.87 14.2306C104.772 12.945 104 12.7815 103.503 12.7518V20.0564C103.503 21.2305 103.503 22.1593 104.171 23.7941H98.9611C99.6661 22.1593 99.6216 21.2379 99.6216 20.0564V3.79756C99.6216 2.6532 99.6661 1.65002 98.9611 0.0598106H104.067C107.555 0.0598106 115.8 -0.252288 115.8 6.56927C115.8 10.1733 112.942 12.1128 109.588 12.6032L108.594 12.6998C108.594 12.6998 119.473 23.3483 119.941 23.809H115.139ZM108.972 11.2433L108.965 11.2508C111.161 10.4185 111.903 8.33041 111.829 6.56186C111.748 4.86017 110.983 1.15958 103.51 1.45682V11.5703C103.51 11.5703 107.696 11.8006 108.868 11.2879C108.935 11.2582 108.972 11.2433 108.972 11.2433ZM81.6253 13.4503H88.0147L84.7941 6.36864L81.6253 13.4503ZM56.8833 13.4503H63.2727L60.0521 6.36864L56.8833 13.4503Z" fill="white"/>
</g>
</svg>
