<svg width="340" height="43" viewBox="0 0 340 43" fill="none" xmlns="http://www.w3.org/2000/svg">
<path d="M57.8791 33.0414C61.2933 29.802 64.0012 25.8568 65.8249 21.4655C68.5366 14.8365 68.3081 9.68 65.1395 5.99608C61.971 2.31217 55.9791 0.480194 47.1635 0.500161H17.3929L14.6958 7.14919H35.2087C45.6764 7.14919 48.7088 12.4804 45.0933 21.3158C43.0085 26.4225 41.1715 31.1246 36.8122 33.2061C32.8323 35.1379 28.7209 35.6921 21.4021 35.6921H11.9111L18.982 18.4705H10.045L0 42.9552H26.9713C33.0178 43.1859 39.0643 42.5049 44.9183 40.9334C49.749 39.3461 54.176 36.676 57.8791 33.1164V33.0414ZM251.927 0.500161H240.877L198.393 41.188L214.999 0.500161H196.789L174.789 18.141L163.505 27.6953H162.995L168.316 13.8281L161.785 0.500161H143.488L126.853 41.2479L117.274 0.500161H97.2283L52.9514 42.9552H64.0169L75.3304 31.8584H103.235L105.451 42.9552H135.09L145.806 16.7184C146.403 15.2504 146.924 13.7507 147.366 12.2258C147.458 13.7347 147.824 15.2126 148.445 16.5836L157.863 38.4774H159.467L186.423 16.6735C188.028 15.2631 189.556 13.7633 191.001 12.1809C189.961 14.1776 189.232 15.6751 188.814 16.6735L178.084 43H218.278L229.477 31.8433H258.445L260.778 43H270.982L261.039 0.500161H251.927ZM81.1767 26.0629L98.8321 8.78149L102.025 26.0629H81.1767ZM235.35 26.0629L253.472 7.9878L257.233 25.9581L235.35 26.0629ZM339.724 0.979381L339.868 0.604999H310.099C302.271 0.363288 294.521 2.26532 287.646 6.11589C281.658 9.56219 276.964 14.9648 274.306 21.4655C272.663 25.0542 272.153 29.0806 272.848 32.9815C273.245 34.7372 274.051 36.367 275.2 37.7294C276.348 39.0915 277.803 40.1453 279.438 40.7987C282.661 42.2212 288.069 42.9401 295.621 42.9401H322.535L325.216 36.2013H310.069C302.778 36.2013 297.895 35.2429 295.49 33.3111C292.823 31.2294 293.114 26.4074 295.199 21.3308C298.798 12.4954 306.366 6.98446 316.818 6.98446H328.57L325.873 13.6185H334.811L340 0.88951L339.724 0.979381Z" fill="white"/>
</svg>
