<svg width="1500" height="1500" viewBox="0 0 1500 1500" fill="none" xmlns="http://www.w3.org/2000/svg">
<rect x="1270.74" y="41.11" width="3.53925" height="210.225" stroke="black" stroke-width="0.657402"/>
<rect x="1262.34" y="52.649" width="1.44093" height="198.684" stroke="black" stroke-width="0.657402"/>
<rect x="1266.54" y="41.11" width="4.58842" height="5.63758" stroke="black" stroke-width="0.657402"/>
<rect x="1263.4" y="46.356" width="7.73591" height="6.68675" stroke="black" stroke-width="0.657402"/>
<rect x="1162.68" y="41.11" width="104.259" height="2.49009" stroke="black" stroke-width="0.657402"/>
<rect x="1008.45" y="41.11" width="154.619" height="2.49009" stroke="black" stroke-width="0.657402"/>
<rect x="853.172" y="41.11" width="154.619" height="2.49009" stroke="black" stroke-width="0.657402"/>
<rect x="696.844" y="41.11" width="155.668" height="2.49009" stroke="black" stroke-width="0.657402"/>
<rect x="1162.68" y="44.2584" width="104.259" height="2.49009" stroke="black" stroke-width="0.657402"/>
<rect x="1008.45" y="44.2584" width="154.619" height="2.49009" stroke="black" stroke-width="0.657402"/>
<rect x="853.172" y="44.2584" width="154.619" height="2.49009" stroke="black" stroke-width="0.657402"/>
<rect x="696.844" y="44.2584" width="155.668" height="2.49009" stroke="black" stroke-width="0.657402"/>
<rect x="696.844" y="46.356" width="3.53925" height="195.536" stroke="black" stroke-width="0.657402"/>
<rect x="694.747" y="46.356" width="1.44093" height="195.536" stroke="black" stroke-width="0.657402"/>
<rect x="694.747" y="41.11" width="1.44093" height="5.63758" stroke="black" stroke-width="0.657402"/>
<rect x="690.551" y="44.2584" width="3.53925" height="8.78508" stroke="black" stroke-width="0.657402"/>
<rect x="688.454" y="52.649" width="5.63758" height="199.733" stroke="black" stroke-width="0.657402"/>
<rect x="-0.328701" y="0.328701" width="70.6858" height="189.241" transform="matrix(-1 0 0 1 1159.59 477.234)" fill="#BFBFBF" stroke="black" stroke-width="0.657402"/>
<rect x="-0.328701" y="0.328701" width="31.8667" height="189.241" transform="matrix(-1 0 0 1 1191.07 477.234)" fill="#BFBFBF" stroke="black" stroke-width="0.657402"/>
<rect x="0.328701" y="0.328701" width="16.1292" height="102.161" transform="matrix(5.03785e-08 1 1 -3.79266e-08 1088.91 666.082)" fill="#BFBFBF" stroke="black" stroke-width="0.657402"/>
<rect x="0.328701" y="0.328701" width="16.1292" height="102.161" transform="matrix(4.04177e-08 1 1 -4.72734e-08 1088.91 461.496)" fill="#BFBFBF" stroke="black" stroke-width="0.657402"/>
<rect x="1247.78" y="1052.5" width="110.043" height="68.3149" rx="15.449" transform="rotate(90 1247.78 1052.5)" stroke="black" stroke-width="0.657402"/>
<rect x="1242.27" y="1058.02" width="46.5886" height="57.2793" rx="11.1758" transform="rotate(90 1242.27 1058.02)" stroke="black" stroke-width="0.657402"/>
<rect x="1242.27" y="1110.44" width="46.5886" height="57.2793" rx="11.1758" transform="rotate(90 1242.27 1110.44)" stroke="black" stroke-width="0.657402"/>
<path d="M1213.62 1123.92C1212.66 1123.92 1211.88 1123.14 1211.88 1122.18C1211.88 1121.22 1212.66 1120.44 1213.62 1120.44C1214.58 1120.44 1215.36 1121.22 1215.36 1122.18C1215.36 1123.14 1214.58 1123.92 1213.62 1123.92Z" stroke="black" stroke-width="0.657402"/>
<path d="M1235.35 1059.07L1235.35 1103.55M1230.18 1057.86L1230.18 1104.76M1224.32 1057.86L1224.32 1104.76M1218.97 1057.86L1218.97 1104.76M1213.63 1057.86L1213.63 1104.76M1207.76 1057.86L1207.76 1104.76M1202.42 1057.86L1202.42 1104.76M1197.24 1057.86L1197.24 1104.76M1191.04 1059.58L1191.04 1103.04" stroke="black" stroke-width="0.657402"/>
<path d="M1044.71 998.075H1019.66V1048.96H1047.98C1061.19 1048.96 1064.21 1040.33 1064.06 1036.02V1007.09C1064.06 999.529 1051.16 997.93 1044.71 998.075Z" stroke="black" stroke-width="0.657402"/>
<path d="M1031.04 997.927C1030.85 995.746 1032.52 991.384 1040.72 991.384C1048.92 991.384 1056.09 991.384 1058.65 991.384C1065.1 990.657 1078.01 996.24 1078.01 1024.39C1078.01 1052.53 1066.34 1057.34 1060.5 1056.23H1040.72C1037.49 1056.37 1031.04 1055.09 1031.04 1048.81" stroke="black" stroke-width="0.657402"/>
<path d="M1060.5 1044.3C1063.11 1045.36 1068.9 1048.43 1071.17 1052.15" stroke="black" stroke-width="0.657402"/>
<path d="M1061.79 1002.43C1063.83 1001.8 1068.39 999.725 1070.32 996.469" stroke="black" stroke-width="0.657402"/>
<path d="M888.241 998.075H913.289V1048.96H884.968C871.76 1048.96 868.743 1040.33 868.885 1036.02V1007.09C868.885 999.529 881.789 997.93 888.241 998.075Z" stroke="black" stroke-width="0.657402"/>
<path d="M901.908 997.927C902.098 995.746 900.428 991.384 892.23 991.384C884.033 991.384 876.86 991.384 874.298 991.384C867.846 990.657 854.943 996.24 854.943 1024.39C854.943 1052.53 866.613 1057.34 872.448 1056.23H892.23C895.456 1056.37 901.908 1055.09 901.908 1048.81" stroke="black" stroke-width="0.657402"/>
<path d="M872.449 1044.3C869.84 1045.36 864.052 1048.43 861.775 1052.15" stroke="black" stroke-width="0.657402"/>
<path d="M871.164 1002.43C869.124 1001.8 864.56 999.725 862.625 996.469" stroke="black" stroke-width="0.657402"/>
<path d="M991.87 1125.51L991.87 1102.54L942.87 1102.54L942.87 1128.51C942.87 1140.62 951.177 1143.39 955.33 1143.25L983.19 1143.25C990.47 1143.25 992.01 1131.42 991.87 1125.51Z" stroke="black" stroke-width="0.657402"/>
<path d="M992.009 1112.97C994.109 1112.8 998.309 1114.33 998.309 1121.85C998.309 1129.37 998.309 1135.94 998.309 1138.29C999.009 1144.21 993.633 1156.04 966.529 1156.04C939.425 1156.04 934.795 1145.34 935.869 1139.99L935.869 1121.85C935.729 1118.89 936.961 1112.97 943.009 1112.97" stroke="black" stroke-width="0.657402"/>
<path d="M947.352 1139.99C946.325 1142.38 943.376 1147.69 939.791 1149.78" stroke="black" stroke-width="0.657402"/>
<path d="M987.674 1141.16C988.281 1143.03 990.278 1147.22 993.414 1148.99" stroke="black" stroke-width="0.657402"/>
<path d="M991.87 920.092L991.87 943.063L942.87 943.063L942.87 917.091C942.87 904.979 951.177 902.212 955.33 902.343L983.19 902.343C990.47 902.343 992.01 914.176 991.87 920.092Z" stroke="black" stroke-width="0.657402"/>
<path d="M992.009 932.624C994.109 932.798 998.309 931.267 998.309 923.749C998.309 916.232 998.309 909.654 998.309 907.305C999.009 901.388 993.633 889.555 966.529 889.555C939.425 889.555 934.795 900.257 935.869 905.608L935.869 923.749C935.729 926.707 936.961 932.624 943.009 932.624" stroke="black" stroke-width="0.657402"/>
<path d="M947.352 905.609C946.325 903.217 943.376 897.909 939.791 895.821" stroke="black" stroke-width="0.657402"/>
<path d="M987.674 904.434C988.281 902.563 990.278 898.378 993.414 896.603" stroke="black" stroke-width="0.657402"/>
<rect x="914.024" y="943.391" width="106.357" height="158.816" fill="#BFBFBF" stroke="black" stroke-width="0.657402"/>
<rect x="903.532" y="504.84" width="127.341" height="132.586" fill="#BFBFBF" stroke="black" stroke-width="0.657402"/>
<rect x="1107.07" y="707.329" width="65.4399" height="64.3908" fill="#BFBFBF" stroke="black" stroke-width="0.657402"/>
<rect x="1107.07" y="371.598" width="65.4399" height="64.3908" fill="#BFBFBF" stroke="black" stroke-width="0.657402"/>
<path d="M1259.55 1237.44L1176.33 1354.08M1259.1 1354.87L1176.61 1236.83" stroke="black" stroke-width="0.657402"/>
<path d="M1159.32 1237.32L1125.69 1354.22M1158.76 1354.74L1126.17 1236.97" stroke="black" stroke-width="0.657402"/>
<path d="M307.438 864.939L252.945 1054.36M306.537 1055.2L253.732 864.374" stroke="black" stroke-width="0.657402"/>
<rect x="879.067" y="1374.71" width="4.17066" height="27.2764" stroke="black" stroke-width="0.657402"/>
<rect x="-0.328701" y="0.328701" width="137.832" height="51.8008" transform="matrix(-1 0 0 1 875.268 1350.14)" stroke="black" stroke-width="0.657402"/>
<rect x="731.469" y="1350.47" width="6.68675" height="51.8008" stroke="black" stroke-width="0.657402"/>
<rect x="871.008" y="1350.47" width="6.68675" height="51.8008" stroke="black" stroke-width="0.657402"/>
<path d="M739.531 1350.14L739.531 1215.84" stroke="black" stroke-width="0.657402"/>
<path d="M744.777 1350.14V1216.89" stroke="black" stroke-width="0.657402"/>
<path d="M738.485 1215.84C745.277 1216.12 761.224 1217.28 770.668 1219.77C778.108 1221.85 795.089 1227.44 803.498 1233.2C810.399 1237.68 825.687 1248.21 831.638 1254.49C836.76 1259.95 847.973 1272.77 851.854 1280.37C855.951 1287.9 864.727 1305.95 867.056 1317.87C868.458 1323.71 871.132 1338.35 870.614 1350.14" stroke="black" stroke-width="0.657402"/>
<rect x="332.128" y="1307.45" width="68.5874" height="3.53925" transform="rotate(90 332.128 1307.45)" stroke="black" stroke-width="0.657402"/>
<rect x="389.442" y="1071.39" width="9.83424" height="257.437" stroke="black" stroke-width="0.657402"/>
<path d="M394.359 1076.3V1324.96" stroke="black" stroke-width="0.657402"/>
<path d="M1170.74 864.375V1228.43" stroke="black" stroke-width="0.657402"/>
<path d="M1106.74 1266.2L899.008 1266.2" stroke="black" stroke-width="0.657402"/>
<path d="M1172.84 864.375V946.21" stroke="black" stroke-width="0.657402"/>
<path d="M1256.77 946.211H1172.84" stroke="black" stroke-width="0.657402"/>
<path d="M442.099 1313.63C441.272 1317.56 440.84 1326.63 445.724 1331.57" stroke="black" stroke-width="0.657402"/>
<path d="M490.737 1313.63C491.564 1317.56 491.996 1326.63 487.112 1331.57" stroke="black" stroke-width="0.657402"/>
<path d="M445.721 1317.6C442.134 1317.6 441.467 1313.23 441.582 1311.05V1279.15C441.41 1271.62 446.065 1256.56 466.067 1256.56C486.069 1256.56 491.185 1271.62 491.242 1279.15V1312.09C491.242 1316.09 488.483 1317.43 487.104 1317.6H445.721Z" stroke="black" stroke-width="0.657402"/>
<rect x="576.071" y="1276.72" width="32.7942" height="23.4829" stroke="black" stroke-width="0.657402"/>
<rect x="557.098" y="1263.61" width="71.4186" height="46.5886" stroke="black" stroke-width="0.657402"/>
<rect x="530.54" y="1254.99" width="123.493" height="75.2121" stroke="black" stroke-width="0.657402"/>
<path d="M635.664 1073.16V1174.93" stroke="black" stroke-width="0.657402"/>
<path d="M628.32 1073.16V1174.93" stroke="black" stroke-width="0.657402"/>
<path d="M635.665 1174.93C629.95 1174.72 616.535 1173.84 608.59 1171.95C602.331 1170.38 588.046 1166.14 580.971 1161.77C575.166 1158.38 562.304 1150.41 557.297 1145.64C552.989 1141.5 543.556 1131.79 540.291 1126.03C536.844 1120.32 529.461 1106.65 527.501 1097.61C526.322 1093.18 524.073 1082.1 524.508 1073.16" stroke="black" stroke-width="0.657402"/>
<rect x="522.684" y="1050.41" width="6.68675" height="22.4242" stroke="black" stroke-width="0.657402"/>
<rect x="632.848" y="1050.41" width="6.68675" height="22.4242" stroke="black" stroke-width="0.657402"/>
<rect x="528.981" y="1050.41" width="104.259" height="22.4242" stroke="black" stroke-width="0.657402"/>
<path d="M671.336 849.686V732.18" stroke="black" stroke-width="0.657402"/>
<path d="M667.141 848.637V732.18" stroke="black" stroke-width="0.657402"/>
<path d="M672.388 732.18C666.296 732.419 651.995 733.441 643.525 735.619C636.853 737.434 621.624 742.325 614.082 747.37C607.894 751.286 594.183 760.496 588.845 765.999C584.252 770.775 574.196 781.991 570.715 788.64C567.041 795.232 559.17 811.024 557.082 821.456C555.825 826.567 553.427 839.368 553.891 849.686" stroke="black" stroke-width="0.657402"/>
<rect x="551.012" y="848.965" width="126.291" height="19.2767" stroke="black" stroke-width="0.657402"/>
<rect x="331.735" y="920.309" width="79.0791" height="81.1774" stroke="black" stroke-width="0.657402"/>
<rect x="410.422" y="932.899" width="4.58842" height="55.9975" stroke="black" stroke-width="0.657402"/>
<rect x="459.735" y="875.196" width="21.0689" height="103.491" stroke="black" stroke-width="0.657402"/>
<path d="M481.129 976.637H526.026C523.403 945.686 499.338 928.333 481.129 928.333" stroke="black" stroke-width="0.657402"/>
<path d="M480.392 970.304L525.505 970.341" stroke="black" stroke-width="0.657402"/>
<path d="M481.125 880.621H526.022C523.399 911.571 499.334 928.925 481.125 928.925" stroke="black" stroke-width="0.657402"/>
<path d="M480.388 886.954L525.501 886.917" stroke="black" stroke-width="0.657402"/>
<path d="M273.058 812.892C265.52 807.345 269.917 801.674 273.058 799.532C270.474 782.959 264.473 778.224 263.426 773.658C262.589 770.005 265.311 770.896 266.776 771.798C273.141 779.915 275.57 793.67 275.989 799.532C281.349 805.35 278.222 810.863 275.989 812.892C275.779 818.98 270.754 838.428 266.776 840.626C262.798 842.825 263.007 838.935 263.426 838.428C269.959 828.957 272.569 817.458 273.058 812.892Z" stroke="black" stroke-width="0.657402"/>
<path d="M285.647 813.314C278.11 807.849 282.507 802.263 285.647 800.153C283.064 783.828 277.063 779.163 276.016 774.665C275.179 771.067 277.9 771.945 279.366 772.833C285.731 780.829 288.16 794.378 288.579 800.153C293.939 805.884 290.812 811.314 288.579 813.314C288.369 819.311 283.344 838.468 279.366 840.634C275.388 842.799 275.597 838.968 276.016 838.468C282.549 829.139 285.159 817.811 285.647 813.314Z" stroke="black" stroke-width="0.657402"/>
<path d="M298.237 813.314C290.7 807.849 295.097 802.263 298.237 800.153C295.654 783.828 289.653 779.163 288.606 774.665C287.768 771.067 290.49 771.945 291.956 772.833C298.321 780.829 300.75 794.378 301.169 800.153C306.529 805.884 303.402 811.314 301.169 813.314C300.959 819.311 295.934 838.468 291.956 840.634C287.978 842.799 288.187 838.968 288.606 838.468C295.138 829.139 297.749 817.811 298.237 813.314Z" stroke="black" stroke-width="0.657402"/>
<path d="M311.221 813.314C304.186 807.849 308.29 802.263 311.221 800.153C308.81 783.828 303.209 779.163 302.232 774.665C301.45 771.067 303.991 771.945 305.359 772.833C311.3 780.829 313.566 794.378 313.957 800.153C318.96 805.884 316.042 811.314 313.957 813.314C313.762 819.311 309.072 838.468 305.359 840.634C301.646 842.799 301.841 838.968 302.232 838.468C308.329 829.139 310.765 817.811 311.221 813.314Z" stroke="black" stroke-width="0.657402"/>
<path d="M323.811 813.314C316.776 807.849 320.88 802.263 323.811 800.153C321.4 783.828 315.799 779.163 314.822 774.665C314.04 771.067 316.581 771.945 317.949 772.833C323.889 780.829 326.156 794.378 326.547 800.153C331.55 805.884 328.632 811.314 326.547 813.314C326.352 819.311 321.662 838.468 317.949 840.634C314.236 842.799 314.431 838.968 314.822 838.468C320.919 829.139 323.355 817.811 323.811 813.314Z" stroke="black" stroke-width="0.657402"/>
<path d="M336.011 813.314C328.473 807.849 332.87 802.263 336.011 800.153C333.427 783.828 327.426 779.163 326.379 774.665C325.542 771.067 328.264 771.945 329.729 772.833C336.094 780.829 338.523 794.378 338.942 800.153C344.302 805.884 341.175 811.314 338.942 813.314C338.733 819.311 333.708 838.468 329.729 840.634C325.751 842.799 325.961 838.968 326.379 838.468C332.912 829.139 335.522 817.811 336.011 813.314Z" stroke="black" stroke-width="0.657402"/>
<path d="M348.991 813.314C341.956 807.849 346.06 802.263 348.991 800.153C346.58 783.828 340.979 779.163 340.002 774.665C339.22 771.067 341.76 771.945 343.128 772.833C349.069 780.829 351.336 794.378 351.727 800.153C356.73 805.884 353.811 811.314 351.727 813.314C351.531 819.311 346.841 838.468 343.128 840.634C339.415 842.799 339.611 838.968 340.002 838.468C346.099 829.139 348.535 817.811 348.991 813.314Z" stroke="black" stroke-width="0.657402"/>
<path d="M361.581 813.314C354.546 807.849 358.65 802.263 361.581 800.153C359.17 783.828 353.569 779.163 352.592 774.665C351.81 771.067 354.35 771.945 355.718 772.833C361.659 780.829 363.926 794.378 364.317 800.153C369.319 805.884 366.401 811.314 364.317 813.314C364.121 819.311 359.431 838.468 355.718 840.634C352.005 842.799 352.201 838.968 352.592 838.468C358.689 829.139 361.125 817.811 361.581 813.314Z" stroke="black" stroke-width="0.657402"/>
<path d="M451.417 813.314C443.879 807.849 448.276 802.263 451.417 800.153C448.834 783.828 442.832 779.163 441.786 774.665C440.948 771.067 443.67 771.945 445.136 772.833C451.501 780.829 453.929 794.378 454.348 800.153C459.708 805.884 456.582 811.314 454.348 813.314C454.139 819.311 449.114 838.468 445.136 840.634C441.157 842.799 441.367 838.968 441.786 838.468C448.318 829.139 450.928 817.811 451.417 813.314Z" stroke="black" stroke-width="0.657402"/>
<path d="M374.171 813.314C367.136 807.849 371.239 802.263 374.171 800.153C371.759 783.828 366.158 779.163 365.181 774.665C364.4 771.067 366.94 771.945 368.308 772.833C374.249 780.829 376.516 794.378 376.907 800.153C381.909 805.884 378.991 811.314 376.907 813.314C376.711 819.311 372.021 838.468 368.308 840.634C364.595 842.799 364.791 838.968 365.181 838.468C371.278 829.139 373.715 817.811 374.171 813.314Z" stroke="black" stroke-width="0.657402"/>
<path d="M464.007 813.314C456.469 807.849 460.866 802.263 464.007 800.153C461.423 783.828 455.422 779.163 454.375 774.665C453.538 771.067 456.26 771.945 457.725 772.833C464.09 780.829 466.519 794.378 466.938 800.153C472.298 805.884 469.171 811.314 466.938 813.314C466.729 819.311 461.704 838.468 457.725 840.634C453.747 842.799 453.957 838.968 454.375 838.468C460.908 829.139 463.518 817.811 464.007 813.314Z" stroke="black" stroke-width="0.657402"/>
<path d="M387.417 813.314C379.879 807.849 384.276 802.263 387.417 800.153C384.834 783.828 378.832 779.163 377.786 774.665C376.948 771.067 379.67 771.945 381.136 772.833C387.501 780.829 389.929 794.378 390.348 800.153C395.708 805.884 392.582 811.314 390.348 813.314C390.139 819.311 385.114 838.468 381.136 840.634C377.157 842.799 377.367 838.968 377.786 838.468C384.318 829.139 386.928 817.811 387.417 813.314Z" stroke="black" stroke-width="0.657402"/>
<path d="M476.991 813.314C469.956 807.849 474.06 802.263 476.991 800.153C474.58 783.828 468.979 779.163 468.002 774.665C467.22 771.067 469.76 771.945 471.128 772.833C477.069 780.829 479.336 794.378 479.727 800.153C484.73 805.884 481.811 811.314 479.727 813.314C479.531 819.311 474.841 838.468 471.128 840.634C467.415 842.799 467.611 838.968 468.002 838.468C474.099 829.139 476.535 817.811 476.991 813.314Z" stroke="black" stroke-width="0.657402"/>
<path d="M399.35 813.314C392.315 807.849 396.419 802.263 399.35 800.153C396.939 783.828 391.338 779.163 390.361 774.665C389.579 771.067 392.12 771.945 393.488 772.833C399.428 780.829 401.695 794.378 402.086 800.153C407.089 805.884 404.171 811.314 402.086 813.314C401.891 819.311 397.201 838.468 393.488 840.634C389.775 842.799 389.97 838.968 390.361 838.468C396.458 829.139 398.894 817.811 399.35 813.314Z" stroke="black" stroke-width="0.657402"/>
<path d="M489.581 813.314C482.546 807.849 486.65 802.263 489.581 800.153C487.17 783.828 481.569 779.163 480.592 774.665C479.81 771.067 482.35 771.945 483.718 772.833C489.659 780.829 491.926 794.378 492.317 800.153C497.319 805.884 494.401 811.314 492.317 813.314C492.121 819.311 487.431 838.468 483.718 840.634C480.005 842.799 480.201 838.968 480.592 838.468C486.689 829.139 489.125 817.811 489.581 813.314Z" stroke="black" stroke-width="0.657402"/>
<path d="M411.94 813.314C404.905 807.849 409.009 802.263 411.94 800.153C409.529 783.828 403.928 779.163 402.951 774.665C402.169 771.067 404.71 771.945 406.078 772.833C412.018 780.829 414.285 794.378 414.676 800.153C419.679 805.884 416.761 811.314 414.676 813.314C414.481 819.311 409.791 838.468 406.078 840.634C402.365 842.799 402.56 838.968 402.951 838.468C409.048 829.139 411.484 817.811 411.94 813.314Z" stroke="black" stroke-width="0.657402"/>
<path d="M502.171 813.314C495.136 807.849 499.239 802.263 502.171 800.153C499.759 783.828 494.158 779.163 493.181 774.665C492.4 771.067 494.94 771.945 496.308 772.833C502.249 780.829 504.516 794.378 504.907 800.153C509.909 805.884 506.991 811.314 504.907 813.314C504.711 819.311 500.021 838.468 496.308 840.634C492.595 842.799 492.791 838.968 493.181 838.468C499.278 829.139 501.715 817.811 502.171 813.314Z" stroke="black" stroke-width="0.657402"/>
<path d="M425.186 813.314C417.649 807.849 422.046 802.263 425.186 800.153C422.603 783.828 416.602 779.163 415.555 774.665C414.718 771.067 417.439 771.945 418.905 772.833C425.27 780.829 427.699 794.378 428.118 800.153C433.478 805.884 430.351 811.314 428.118 813.314C427.908 819.311 422.883 838.468 418.905 840.634C414.927 842.799 415.136 838.968 415.555 838.468C422.088 829.139 424.698 817.811 425.186 813.314Z" stroke="black" stroke-width="0.657402"/>
<path d="M514.76 813.314C507.725 807.849 511.829 802.263 514.76 800.153C512.349 783.828 506.748 779.163 505.771 774.665C504.99 771.067 507.53 771.945 508.898 772.833C514.839 780.829 517.106 794.378 517.496 800.153C522.499 805.884 519.581 811.314 517.496 813.314C517.301 819.311 512.611 838.468 508.898 840.634C505.185 842.799 505.38 838.968 505.771 838.468C511.868 829.139 514.304 817.811 514.76 813.314Z" stroke="black" stroke-width="0.657402"/>
<rect x="254.098" y="765.032" width="181.897" height="84.3249" stroke="black" stroke-width="0.657402"/>
<rect x="435.602" y="765.032" width="88.5216" height="84.3249" stroke="black" stroke-width="0.657402"/>
<path d="M877.738 404.645C878.515 397.291 883.613 388.88 886.064 385.593C880.403 376.32 871.864 374.713 868.303 375.068C859.866 401.181 864.048 414.726 867.193 418.235C870.384 416.769 876.961 411.999 877.738 404.645Z" stroke="black" stroke-width="0.657402"/>
<path d="M936.57 404.688C935.793 397.334 930.696 388.923 928.245 385.636C933.906 376.363 942.444 374.756 946.006 375.111C954.442 401.224 950.261 414.769 947.116 418.277C943.924 416.812 937.347 412.042 936.57 404.688Z" stroke="black" stroke-width="0.657402"/>
<path d="M886.066 385.591C892.357 383.415 909.6 380.368 928.249 385.591" stroke="black" stroke-width="0.657402"/>
<path d="M868.305 375.332C870.251 366.983 880.843 350.285 907.643 350.285C934.444 350.285 944.387 366.983 946.009 375.332" stroke="black" stroke-width="0.657402"/>
<path d="M867.055 418.094C867.378 419.781 868.081 424.062 868.304 427.686C868.581 432.216 873.299 442.608 907.988 442.608C935.74 442.608 944.435 434.703 945.314 430.751C945.915 428.974 947.118 423.956 947.118 418.094" stroke="black" stroke-width="0.657402"/>
<path d="M872.191 434.88C871.497 435.546 870.359 437.065 871.358 437.811C872.357 438.557 873.717 437.234 874.272 436.479M940.043 436.612C940.876 437.412 942.79 438.77 943.789 437.811C944.789 436.852 943.558 435.191 942.818 434.48" stroke="black" stroke-width="0.657402"/>
<path d="M986.852 404.645C987.629 397.291 992.726 388.88 995.177 385.593C989.516 376.32 980.978 374.713 977.416 375.068C968.98 401.181 973.161 414.726 976.306 418.235C979.498 416.769 986.075 411.999 986.852 404.645Z" stroke="black" stroke-width="0.657402"/>
<path d="M1045.68 404.688C1044.91 397.334 1039.81 388.923 1037.36 385.636C1043.02 376.363 1051.56 374.756 1055.12 375.111C1063.56 401.224 1059.37 414.769 1056.23 418.277C1053.04 416.812 1046.46 412.042 1045.68 404.688Z" stroke="black" stroke-width="0.657402"/>
<path d="M995.18 385.591C1001.47 383.415 1018.71 380.368 1037.36 385.591" stroke="black" stroke-width="0.657402"/>
<path d="M977.418 375.332C979.364 366.983 989.956 350.285 1016.76 350.285C1043.56 350.285 1053.5 366.983 1055.12 375.332" stroke="black" stroke-width="0.657402"/>
<path d="M976.168 418.094C976.492 419.781 977.195 424.062 977.417 427.686C977.694 432.216 982.412 442.608 1017.1 442.608C1044.85 442.608 1053.55 434.703 1054.43 430.751C1055.03 428.974 1056.23 423.956 1056.23 418.094" stroke="black" stroke-width="0.657402"/>
<path d="M981.304 434.88C980.61 435.546 979.472 437.065 980.471 437.811C981.47 438.557 982.83 437.234 983.385 436.479M1049.16 436.612C1049.99 437.412 1051.9 438.77 1052.9 437.811C1053.9 436.852 1052.67 435.191 1051.93 434.48" stroke="black" stroke-width="0.657402"/>
<rect x="628.649" y="431.399" width="55.9975" height="210.225" fill="#BFBFBF" stroke="black" stroke-width="0.657402"/>
<rect x="-0.328701" y="0.328701" width="51.8008" height="211.274" transform="matrix(-1 0 0 1 761.956 465.691)" fill="#BFBFBF" stroke="black" stroke-width="0.657402"/>
<rect x="675.864" y="457.629" width="6.68675" height="157.766" stroke="black" stroke-width="0.657402"/>
<rect x="-0.328701" y="0.328701" width="6.68675" height="157.766" transform="matrix(-1 0 0 1 718.94 491.922)" stroke="black" stroke-width="0.657402"/>
<rect x="681.11" y="241.501" width="5.63758" height="31.8667" stroke="black" stroke-width="0.657402"/>
<rect x="1227.72" y="241.501" width="6.68675" height="31.8667" stroke="black" stroke-width="0.657402"/>
<rect x="548.915" y="241.501" width="132.586" height="3.53925" stroke="black" stroke-width="0.657402"/>
<rect x="1085.04" y="241.501" width="144.127" height="3.53925" stroke="black" stroke-width="0.657402"/>
<rect x="412.524" y="241.501" width="139.931" height="3.53925" stroke="black" stroke-width="0.657402"/>
<rect x="931.86" y="241.501" width="156.717" height="3.53925" stroke="black" stroke-width="0.657402"/>
<rect x="787.075" y="241.501" width="152.521" height="3.53925" stroke="black" stroke-width="0.657402"/>
<rect x="274.032" y="241.501" width="142.029" height="3.53925" stroke="black" stroke-width="0.657402"/>
<rect x="792.321" y="254.09" width="132.586" height="8.78508" stroke="black" stroke-width="0.657402"/>
<rect x="940.251" y="254.09" width="132.586" height="8.78508" stroke="black" stroke-width="0.657402"/>
<rect x="547.864" y="245.696" width="133.636" height="27.67" stroke="black" stroke-width="0.657402"/>
<rect x="1080.84" y="246.747" width="148.324" height="26.6209" stroke="black" stroke-width="0.657402"/>
<rect x="417.77" y="245.696" width="136.783" height="27.67" stroke="black" stroke-width="0.657402"/>
<rect x="931.86" y="245.696" width="156.717" height="27.67" stroke="black" stroke-width="0.657402"/>
<rect x="274.032" y="245.696" width="136.783" height="27.67" stroke="black" stroke-width="0.657402"/>
<rect x="787.075" y="245.696" width="152.521" height="27.67" stroke="black" stroke-width="0.657402"/>
<rect x="411.473" y="245.696" width="6.68675" height="27.67" stroke="black" stroke-width="0.657402"/>
<rect x="1073.5" y="241.501" width="8.78508" height="21.375" stroke="black" stroke-width="0.657402"/>
<rect x="924.516" y="241.501" width="6.68675" height="21.375" stroke="black" stroke-width="0.657402"/>
<rect x="792.321" y="254.09" width="11.9326" height="8.78508" stroke="black" stroke-width="0.657402"/>
<rect x="940.251" y="241.501" width="6.68675" height="21.375" stroke="black" stroke-width="0.657402"/>
<rect x="787.075" y="241.501" width="5.63758" height="21.375" stroke="black" stroke-width="0.657402"/>
<rect x="266.688" y="241.501" width="6.68675" height="31.8667" stroke="black" stroke-width="0.657402"/>
<rect x="778.68" y="241.501" width="7.73591" height="31.8667" stroke="black" stroke-width="0.657402"/>
<rect x="254.098" y="241.501" width="11.9326" height="31.8667" fill="black" stroke="black" stroke-width="0.657402"/>
<rect x="687.403" y="241.501" width="90.6199" height="31.8667" fill="black" stroke="black" stroke-width="0.657402"/>
<rect x="1235.07" y="241.501" width="47.6042" height="31.8667" fill="black" stroke="black" stroke-width="0.657402"/>
<rect x="1244.51" y="274.024" width="17.1784" height="286.814" fill="black" stroke="black" stroke-width="0.657402"/>
<rect x="687.403" y="274.024" width="20.3259" height="594.219" fill="black" stroke="black" stroke-width="0.657402"/>
<rect x="354.817" y="405.169" width="163.012" height="237.503" fill="#BFBFBF" stroke="black" stroke-width="0.657402"/>
<rect x="255.149" y="405.169" width="100.062" height="237.503" fill="#BFBFBF" stroke="black" stroke-width="0.657402"/>
<path d="M316.781 549.779C320.46 547.968 330.058 545.432 339.025 549.779" stroke="black" stroke-width="0.657402"/>
<path d="M338.852 615.452C335.173 617.263 325.574 619.798 316.608 615.452" stroke="black" stroke-width="0.657402"/>
<path d="M320.403 613.855L316.782 615.453C315.058 615.4 310.609 615.805 306.609 617.85C307.299 613.056 308.54 601.231 307.988 592.283L305.574 583.174L307.299 572.947C307.873 569.005 308.678 558.373 307.299 547.379C309.138 548.125 313.644 549.648 316.955 549.776C316.955 550.032 319.254 551.054 320.403 551.534" stroke="black" stroke-width="0.657402"/>
<path d="M335.573 613.855L339.194 615.453C340.919 615.4 345.367 615.805 349.368 617.85C348.678 613.056 347.437 601.231 347.988 592.283L350.402 583.174L348.678 572.947C348.103 569.005 347.299 558.373 348.678 547.379C346.839 548.125 342.333 549.648 339.022 549.776C339.022 550.032 336.723 551.054 335.573 551.534" stroke="black" stroke-width="0.657402"/>
<path d="M275.219 536.036C276.426 535.503 279.736 534.438 283.323 534.438C286.91 534.438 291.14 533.373 292.807 532.84C294.991 533.373 300.014 534.438 302.635 534.438C305.256 534.438 310.05 535.503 312.119 536.036" stroke="black" stroke-width="0.657402"/>
<path d="M275.051 629.042C276.258 629.575 279.568 630.64 283.155 630.64C286.742 630.64 290.972 631.706 292.639 632.238C294.823 631.706 299.846 630.64 302.467 630.64C305.088 630.64 309.882 629.575 311.951 629.042" stroke="black" stroke-width="0.657402"/>
<path d="M306.262 538.589C307.871 537.684 312.538 535.681 318.332 534.914C324.126 534.147 327.528 533.316 328.505 532.996C328.735 535.659 328.885 542.232 327.643 547.218" stroke="black" stroke-width="0.657402"/>
<path d="M306.09 626.489C307.699 627.395 312.366 629.397 318.16 630.164C323.954 630.931 327.356 631.762 328.333 632.082C328.563 629.419 328.713 622.846 327.471 617.86" stroke="black" stroke-width="0.657402"/>
<path d="M280.393 538.43L275.047 536.033C271.369 535.554 263.046 534.339 259.184 533.316C259.241 542.052 259.701 560.898 261.08 566.395C262.805 573.266 262.977 576.462 262.805 578.38" stroke="black" stroke-width="0.657402"/>
<path d="M280.225 626.644L274.879 629.041C271.201 629.521 262.878 630.735 259.016 631.758C259.073 623.022 259.533 604.176 260.912 598.679C262.637 591.808 262.809 588.612 262.637 586.694" stroke="black" stroke-width="0.657402"/>
<path d="M316.781 433.322C320.46 431.511 330.058 428.975 339.025 433.322" stroke="black" stroke-width="0.657402"/>
<path d="M338.852 498.995C335.173 500.806 325.574 503.341 316.608 498.995" stroke="black" stroke-width="0.657402"/>
<path d="M320.403 497.398L316.782 498.996C315.058 498.943 310.609 499.348 306.609 501.393C307.299 496.599 308.54 484.774 307.988 475.825L305.574 466.717L307.299 456.49C307.873 452.548 308.678 441.916 307.299 430.922C309.138 431.668 313.644 433.191 316.955 433.319C316.955 433.575 319.254 434.597 320.403 435.077" stroke="black" stroke-width="0.657402"/>
<path d="M335.577 497.398L339.198 498.996C340.923 498.943 345.371 499.348 349.372 501.393C348.682 496.599 347.44 484.774 347.992 475.825L350.406 466.717L348.682 456.49C348.107 452.548 347.302 441.916 348.682 430.922C346.843 431.668 342.336 433.191 339.026 433.319C339.026 433.575 336.727 434.597 335.577 435.077" stroke="black" stroke-width="0.657402"/>
<path d="M275.219 419.579C276.426 419.046 279.736 417.981 283.323 417.981C286.91 417.981 291.14 416.915 292.807 416.383C294.991 416.915 300.014 417.981 302.635 417.981C305.256 417.981 310.05 419.046 312.119 419.579" stroke="black" stroke-width="0.657402"/>
<path d="M275.051 512.585C276.258 513.118 279.568 514.183 283.155 514.183C286.742 514.183 290.972 515.249 292.639 515.781C294.823 515.249 299.846 514.183 302.467 514.183C305.088 514.183 309.882 513.118 311.951 512.585" stroke="black" stroke-width="0.657402"/>
<path d="M306.262 422.132C307.871 421.227 312.538 419.224 318.332 418.457C324.126 417.69 327.528 416.859 328.505 416.539C328.735 419.202 328.885 425.775 327.643 430.761" stroke="black" stroke-width="0.657402"/>
<path d="M306.09 510.032C307.699 510.938 312.366 512.94 318.16 513.707C323.954 514.474 327.356 515.305 328.333 515.625C328.563 512.962 328.713 506.389 327.471 501.403" stroke="black" stroke-width="0.657402"/>
<path d="M280.393 421.973L275.047 419.576C271.369 419.097 263.046 417.882 259.184 416.859C259.241 425.595 259.701 444.441 261.08 449.938C262.805 456.809 262.977 460.005 262.805 461.923" stroke="black" stroke-width="0.657402"/>
<path d="M280.225 510.187L274.879 512.584C271.201 513.064 262.878 514.278 259.016 515.301C259.073 506.565 259.533 487.719 260.912 482.222C262.637 475.351 262.809 472.155 262.637 470.237" stroke="black" stroke-width="0.657402"/>
<circle cx="291.015" cy="367.597" r="6.49087" stroke="black" stroke-width="0.657402"/>
<circle cx="291.015" cy="680.245" r="6.49087" stroke="black" stroke-width="0.657402"/>
<path d="M316.391 367.597C316.391 382.198 304.789 394.022 290.491 394.022C276.193 394.022 264.59 382.198 264.59 367.597C264.59 352.997 276.193 341.172 290.491 341.172C304.789 341.172 316.391 352.997 316.391 367.597Z" stroke="black" stroke-width="0.657402"/>
<path d="M316.391 680.246C316.391 694.846 304.789 706.671 290.491 706.671C276.193 706.671 264.59 694.846 264.59 680.246C264.59 665.646 276.193 653.821 290.491 653.821C304.789 653.821 316.391 665.646 316.391 680.246Z" stroke="black" stroke-width="0.657402"/>
<rect x="257.247" y="334.876" width="66.4891" height="63.3416" stroke="black" stroke-width="0.657402"/>
<rect x="257.247" y="647.528" width="66.4891" height="63.3416" stroke="black" stroke-width="0.657402"/>
<path d="M291.287 338.742V396.446M262.164 367.325H319.868" stroke="black" stroke-width="0.657402"/>
<path d="M291.287 651.395V709.099M262.164 679.977H319.868" stroke="black" stroke-width="0.657402"/>
<path d="M1033.1 1311.95C1039.01 1311.95 1043.8 1316.74 1043.8 1322.66C1043.8 1328.57 1039.01 1333.36 1033.1 1333.36C1027.18 1333.36 1022.39 1328.57 1022.39 1322.66C1022.39 1316.74 1027.18 1311.95 1033.1 1311.95Z" stroke="black" stroke-width="0.657402"/>
<path d="M1033.1 1308.5C1040.92 1308.5 1047.25 1314.84 1047.25 1322.66C1047.25 1330.47 1040.92 1336.81 1033.1 1336.81C1025.28 1336.81 1018.94 1330.47 1018.94 1322.66C1018.94 1314.84 1025.28 1308.5 1033.1 1308.5Z" stroke="black" stroke-width="0.657402"/>
<path d="M1036.37 1326.96L1044.82 1334.38M1037.06 1318.69L1044.82 1311.27" stroke="black" stroke-width="0.657402"/>
<path d="M1029.13 1318.35L1020.51 1310.93M1029.13 1326.97L1020.51 1334.73" stroke="black" stroke-width="0.657402"/>
<path d="M1033.53 1287.48C1036.39 1287.48 1038.71 1289.8 1038.71 1292.67C1038.71 1295.54 1036.39 1297.86 1033.53 1297.86C1030.66 1297.86 1028.34 1295.54 1028.34 1292.67C1028.34 1289.8 1030.66 1287.48 1033.53 1287.48Z" stroke="black" stroke-width="0.657402"/>
<path d="M1033.53 1284.38C1038.11 1284.38 1041.82 1288.09 1041.82 1292.67C1041.82 1297.25 1038.11 1300.96 1033.53 1300.96C1028.95 1300.96 1025.24 1297.25 1025.24 1292.67C1025.24 1288.09 1028.95 1284.38 1033.53 1284.38Z" stroke="black" stroke-width="0.657402"/>
<path d="M994.274 1306.09C1000.19 1306.09 1004.98 1301.29 1004.98 1295.38C1004.98 1289.47 1000.19 1284.67 994.274 1284.67C988.361 1284.67 983.567 1289.47 983.567 1295.38C983.567 1301.29 988.361 1306.09 994.274 1306.09Z" stroke="black" stroke-width="0.657402"/>
<path d="M994.273 1309.53C1002.09 1309.53 1008.43 1303.2 1008.43 1295.38C1008.43 1287.56 1002.09 1281.22 994.273 1281.22C986.455 1281.22 980.118 1287.56 980.118 1295.38C980.118 1303.2 986.455 1309.53 994.273 1309.53Z" stroke="black" stroke-width="0.657402"/>
<path d="M997.547 1291.07L1006 1283.66M998.237 1299.35L1006 1306.76" stroke="black" stroke-width="0.657402"/>
<path d="M990.309 1299.69L981.688 1307.1M990.309 1291.07L981.688 1283.31" stroke="black" stroke-width="0.657402"/>
<path d="M993.651 1331.43C996.516 1331.43 998.84 1329.11 998.84 1326.24C998.84 1323.37 996.516 1321.05 993.651 1321.05C990.785 1321.05 988.462 1323.37 988.462 1326.24C988.462 1329.11 990.785 1331.43 993.651 1331.43Z" stroke="black" stroke-width="0.657402"/>
<path d="M993.657 1334.53C998.237 1334.53 1001.95 1330.82 1001.95 1326.24C1001.95 1321.66 998.237 1317.95 993.657 1317.95C989.077 1317.95 985.364 1321.66 985.364 1326.24C985.364 1330.82 989.077 1334.53 993.657 1334.53Z" stroke="black" stroke-width="0.657402"/>
<rect x="975.922" y="1349.81" width="79.0791" height="79.0791" transform="rotate(-90 975.922 1349.81)" stroke="black" stroke-width="0.657402"/>
<rect x="216.329" y="1350.47" width="517.63" height="51.8008" fill="black" stroke="black" stroke-width="0.657402"/>
<rect x="876.254" y="1350.47" width="406.418" height="51.8008" fill="black" stroke="black" stroke-width="0.657402"/>
<rect x="310.754" y="1329.48" width="396.976" height="35.0142" fill="black" stroke="black" stroke-width="0.657402"/>
<rect x="236.262" y="1050.41" width="285.764" height="20.3259" fill="black" stroke="black" stroke-width="0.657402"/>
<rect x="254.492" y="241.501" width="1159.72" height="38.1616" transform="rotate(90 254.492 241.501)" fill="black" stroke="black" stroke-width="0.657402"/>
<rect x="271.277" y="1050.41" width="350.813" height="35.0142" transform="rotate(90 271.277 1050.41)" fill="black" stroke="black" stroke-width="0.657402"/>
<rect x="325.835" y="850.016" width="220.716" height="19.2767" transform="rotate(90 325.835 850.016)" fill="black" stroke="black" stroke-width="0.657402"/>
<rect x="544.058" y="765.032" width="103.21" height="19.2767" transform="rotate(90 544.058 765.032)" fill="black" stroke="black" stroke-width="0.657402"/>
<rect x="686.746" y="1050.41" width="285.764" height="35.0142" transform="rotate(90 686.746 1050.41)" fill="black" stroke="black" stroke-width="0.657402"/>
<rect x="707.73" y="1050.41" width="71.7349" height="33.965" transform="rotate(90 707.73 1050.41)" fill="black" stroke="black" stroke-width="0.657402"/>
<rect x="479.011" y="979.063" width="71.7349" height="19.2767" transform="rotate(90 479.011 979.063)" fill="black" stroke="black" stroke-width="0.657402"/>
<rect x="479.011" y="851.063" width="24.5225" height="19.2767" transform="rotate(90 479.011 851.063)" fill="black" stroke="black" stroke-width="0.657402"/>
<rect x="707.73" y="1200.44" width="19.2767" height="33.965" transform="rotate(90 707.73 1200.44)" fill="black" stroke="black" stroke-width="0.657402"/>
<rect x="673.109" y="1050.41" width="20.3259" height="33.965" transform="rotate(90 673.109 1050.41)" fill="black" stroke="black" stroke-width="0.657402"/>
<rect x="707.73" y="847.919" width="20.3259" height="29.7684" transform="rotate(90 707.73 847.919)" fill="black" stroke="black" stroke-width="0.657402"/>
<rect x="550.355" y="847.919" width="20.3259" height="295.207" transform="rotate(90 550.355 847.919)" fill="black" stroke="black" stroke-width="0.657402"/>
<rect x="1258.54" y="1222.47" width="19.2767" height="151.471" transform="rotate(90 1258.54 1222.47)" fill="black" stroke="black" stroke-width="0.657402"/>
<rect x="1281.62" y="848.965" width="19.2767" height="110.554" transform="rotate(90 1281.62 848.965)" fill="black" stroke="black" stroke-width="0.657402"/>
<rect x="707.73" y="1298.01" width="60.1941" height="33.965" transform="rotate(90 707.73 1298.01)" fill="black" stroke="black" stroke-width="0.657402"/>
<rect x="918.613" y="1266.53" width="90.6199" height="19.2767" transform="rotate(90 918.613 1266.53)" fill="black" stroke="black" stroke-width="0.657402"/>
<rect x="1126.35" y="1222.47" width="128.39" height="19.2767" transform="rotate(90 1126.35 1222.47)" fill="black" stroke="black" stroke-width="0.657402"/>
<rect x="1178.8" y="1222.47" width="128.39" height="19.2767" transform="rotate(90 1178.8 1222.47)" fill="black" stroke="black" stroke-width="0.657402"/>
<rect x="1282.67" y="241.501" width="1109.36" height="25.5717" transform="rotate(90 1282.67 241.501)" fill="black" stroke="black" stroke-width="0.657402"/>
<path d="M747.926 1458.64L804.828 1402.6L862.247 1458.64H747.926Z" fill="black" stroke="black" stroke-width="0.657402"/>
<circle cx="330.359" cy="1297.68" r="10.1616" stroke="black" stroke-width="0.66"/>
<circle cx="917.367" cy="725.36" r="33.7678" stroke="black" stroke-width="0.66"/>
<circle cx="1005.5" cy="725.36" r="33.7678" stroke="black" stroke-width="0.66"/>
</svg>
