<svg width="1500" height="1500" viewBox="0 0 1500 1500" fill="none" xmlns="http://www.w3.org/2000/svg">
<rect x="1198.45" y="424.184" width="53.2496" height="264.604" fill="#BFBFBF" stroke="black" stroke-width="0.657402"/>
<rect x="576.54" y="448.176" width="53.2496" height="210.697" fill="#BFBFBF" stroke="black" stroke-width="0.657402"/>
<rect x="1243.47" y="477.102" width="6.24532" height="157.777" stroke="black" stroke-width="0.657402"/>
<rect x="621.575" y="474.473" width="6.24532" height="157.777" stroke="black" stroke-width="0.657402"/>
<rect x="702.754" y="454.754" width="72.9716" height="223.845" fill="#BFBFBF" stroke="black" stroke-width="0.657402"/>
<rect x="670.215" y="454.754" width="32.5414" height="223.845" fill="#BFBFBF" stroke="black" stroke-width="0.657402"/>
<rect x="775.73" y="678.598" width="19.3934" height="105.513" transform="rotate(90 775.73 678.598)" fill="#BFBFBF" stroke="black" stroke-width="0.657402"/>
<rect x="775.73" y="435.36" width="19.3934" height="105.513" transform="rotate(90 775.73 435.36)" fill="#BFBFBF" stroke="black" stroke-width="0.657402"/>
<path d="M758.962 397.556C758.962 413.713 745.865 426.81 729.708 426.81C713.551 426.81 700.454 413.713 700.454 397.556C700.454 381.399 713.551 368.301 729.708 368.301C745.865 368.301 758.962 381.399 758.962 397.556Z" fill="#BFBFBF" stroke="black" stroke-width="0.657402"/>
<path d="M744.178 372.086L729.551 397.725L744.178 423.199" stroke="black" stroke-width="0.657402"/>
<path d="M729.708 397.559H700.125" stroke="black" stroke-width="0.657402"/>
<path d="M302.891 1317.92C302.103 1321.66 301.691 1330.31 306.347 1335.01" stroke="black" stroke-width="0.657402"/>
<path d="M349.249 1317.92C350.037 1321.66 350.449 1330.31 345.794 1335.01" stroke="black" stroke-width="0.657402"/>
<path d="M306.343 1321.7C302.924 1321.7 302.289 1317.54 302.398 1315.46V1285.05C302.234 1277.88 306.671 1263.52 325.736 1263.52C344.801 1263.52 349.676 1277.88 349.731 1285.05V1316.44C349.731 1320.26 347.101 1321.54 345.787 1321.7H306.343Z" stroke="black" stroke-width="0.657402"/>
<rect x="430.598" y="1282.75" width="31.2266" height="22.3517" stroke="black" stroke-width="0.657402"/>
<rect x="412.516" y="1270.26" width="68.0411" height="44.3747" stroke="black" stroke-width="0.657402"/>
<rect x="387.204" y="1262.04" width="117.675" height="71.6569" stroke="black" stroke-width="0.657402"/>
<path d="M130.164 1276.83L241.758 1355.56M242.087 1276.67L130 1355.88" stroke="black" stroke-width="0.657402"/>
<rect x="159.419" y="1224.57" width="88.4206" height="9.53233" stroke="black" stroke-width="0.657402"/>
<rect x="255.395" y="1074.68" width="9.53233" height="166.651" stroke="black" stroke-width="0.657402"/>
<path d="M260.004 1077.48V1238.87" stroke="black" stroke-width="0.657402"/>
<rect x="139.692" y="942.547" width="78.8883" height="80.5318" stroke="black" stroke-width="0.657402"/>
<rect x="218.587" y="954.708" width="4.60182" height="56.5366" stroke="black" stroke-width="0.657402"/>
<path d="M567.005 1193.01C567.005 1198.64 562.443 1203.2 556.815 1203.2C551.188 1203.2 546.626 1198.64 546.626 1193.01C546.626 1187.39 551.188 1182.82 556.815 1182.82C562.443 1182.82 567.005 1187.39 567.005 1193.01Z" stroke="black" stroke-width="0.657402"/>
<path d="M570.29 1193.01C570.29 1200.46 564.256 1206.49 556.813 1206.49C549.37 1206.49 543.337 1200.46 543.337 1193.01C543.337 1185.57 549.37 1179.54 556.813 1179.54C564.256 1179.54 570.29 1185.57 570.29 1193.01Z" stroke="black" stroke-width="0.657402"/>
<path d="M552.708 1196.13L545.641 1204.19M560.597 1196.79L567.664 1204.19" stroke="black" stroke-width="0.657402"/>
<path d="M560.922 1189.23L567.989 1181.02M552.704 1189.23L545.309 1181.02" stroke="black" stroke-width="0.657402"/>
<path d="M594.616 1193.67C594.616 1196.39 592.408 1198.6 589.685 1198.6C586.962 1198.6 584.754 1196.39 584.754 1193.67C584.754 1190.94 586.962 1188.73 589.685 1188.73C592.408 1188.73 594.616 1190.94 594.616 1193.67Z" stroke="black" stroke-width="0.657402"/>
<path d="M597.571 1193.67C597.571 1198.03 594.039 1201.56 589.682 1201.56C585.325 1201.56 581.794 1198.03 581.794 1193.67C581.794 1189.31 585.325 1185.78 589.682 1185.78C594.039 1185.78 597.571 1189.31 597.571 1193.67Z" stroke="black" stroke-width="0.657402"/>
<path d="M577.186 1157.19C577.186 1162.82 581.748 1167.38 587.376 1167.38C593.004 1167.38 597.566 1162.82 597.566 1157.19C597.566 1151.57 593.004 1147 587.376 1147C581.748 1147 577.186 1151.57 577.186 1157.19Z" stroke="black" stroke-width="0.657402"/>
<path d="M573.901 1157.19C573.901 1164.64 579.935 1170.67 587.378 1170.67C594.821 1170.67 600.855 1164.64 600.855 1157.19C600.855 1149.75 594.821 1143.72 587.378 1143.72C579.935 1143.72 573.901 1149.75 573.901 1157.19Z" stroke="black" stroke-width="0.657402"/>
<path d="M591.484 1160.31L598.551 1168.37M583.595 1160.97L576.528 1168.37" stroke="black" stroke-width="0.657402"/>
<path d="M583.27 1153.41L576.202 1145.2M591.487 1153.41L598.883 1145.2" stroke="black" stroke-width="0.657402"/>
<path d="M549.576 1157.85C549.576 1160.57 551.783 1162.78 554.506 1162.78C557.229 1162.78 559.437 1160.57 559.437 1157.85C559.437 1155.12 557.229 1152.91 554.506 1152.91C551.783 1152.91 549.576 1155.12 549.576 1157.85Z" stroke="black" stroke-width="0.657402"/>
<path d="M546.62 1157.85C546.62 1162.21 550.152 1165.74 554.509 1165.74C558.866 1165.74 562.398 1162.21 562.398 1157.85C562.398 1153.49 558.866 1149.96 554.509 1149.96C550.152 1149.96 546.62 1153.49 546.62 1157.85Z" stroke="black" stroke-width="0.657402"/>
<rect x="539.067" y="1136.48" width="65.0828" height="78.5596" stroke="black" stroke-width="0.657402"/>
<rect x="826.68" y="1076.33" width="80.5318" height="89.078" stroke="black" stroke-width="0.657402"/>
<rect x="822.083" y="1076.33" width="4.60182" height="82.1753" stroke="black" stroke-width="0.657402"/>
<rect x="818.137" y="1081.91" width="3.94441" height="10.5184" stroke="black" stroke-width="0.657402"/>
<path d="M907.208 1078.3H826.512" stroke="black" stroke-width="0.657402"/>
<path d="M828.984 1078.46V1165.57" stroke="black" stroke-width="0.657402"/>
<path d="M828.984 1163.11H907.215" stroke="black" stroke-width="0.657402"/>
<path d="M826.848 1165.41H824.876V1259.41H610.562V1074.36" stroke="black" stroke-width="0.657402"/>
<rect x="271.837" y="421.551" width="166.98" height="263.947" fill="#BFBFBF" stroke="black" stroke-width="0.657402"/>
<rect x="176.84" y="424.516" width="94.9946" height="259.016" fill="#BFBFBF" stroke="black" stroke-width="0.657402"/>
<rect x="1391.06" y="92.8521" width="4.60182" height="200.836" stroke="black" stroke-width="0.657402"/>
<rect x="1382.52" y="103.704" width="8.54623" height="189.989" stroke="black" stroke-width="0.657402"/>
<rect x="1379.88" y="103.704" width="2.62961" height="189.989" stroke="black" stroke-width="0.657402"/>
<rect x="1385.8" y="92.8521" width="5.25922" height="5.25922" stroke="black" stroke-width="0.657402"/>
<rect x="1381.2" y="98.11" width="9.86103" height="5.58792" stroke="black" stroke-width="0.657402"/>
<rect x="1253.66" y="92.8521" width="132.138" height="2.62961" stroke="black" stroke-width="0.657402"/>
<rect x="1056.77" y="92.8521" width="196.892" height="2.62961" stroke="black" stroke-width="0.657402"/>
<rect x="858.891" y="92.8521" width="197.878" height="2.62961" stroke="black" stroke-width="0.657402"/>
<rect x="659.696" y="92.8521" width="199.193" height="2.62961" stroke="black" stroke-width="0.657402"/>
<rect x="1253.66" y="95.485" width="132.138" height="2.62961" stroke="black" stroke-width="0.657402"/>
<rect x="1056.77" y="95.485" width="196.892" height="2.62961" stroke="black" stroke-width="0.657402"/>
<rect x="858.891" y="95.485" width="197.878" height="2.62961" stroke="black" stroke-width="0.657402"/>
<rect x="659.696" y="95.485" width="199.193" height="2.62961" stroke="black" stroke-width="0.657402"/>
<rect x="1391.06" y="283.825" width="4.60182" height="9.86104" stroke="black" stroke-width="0.657402"/>
<rect x="659.696" y="98.11" width="4.93052" height="185.716" stroke="black" stroke-width="0.657402"/>
<rect x="656.747" y="98.11" width="2.95831" height="185.716" stroke="black" stroke-width="0.657402"/>
<rect x="656.747" y="92.8521" width="2.95831" height="5.25922" stroke="black" stroke-width="0.657402"/>
<rect x="651.477" y="95.485" width="5.25922" height="8.21753" stroke="black" stroke-width="0.657402"/>
<rect x="649.184" y="103.704" width="7.56013" height="190.318" stroke="black" stroke-width="0.657402"/>
<rect x="656.747" y="283.825" width="8.21753" height="10.1897" stroke="black" stroke-width="0.657402"/>
<rect x="658.063" y="294.344" width="6.90272" height="32.5414" stroke="black" stroke-width="0.657402"/>
<rect x="564.712" y="294.344" width="93.0224" height="32.5414" fill="black" stroke="black" stroke-width="0.657402"/>
<rect x="651.152" y="327.547" width="559.449" height="20.7081" transform="rotate(90 651.152 327.547)" fill="black" stroke="black" stroke-width="0.657402"/>
<rect x="624.2" y="887.321" width="26.9535" height="19.7221" fill="black" stroke="black" stroke-width="0.657402"/>
<rect x="558.794" y="294.344" width="5.25922" height="32.5414" stroke="black" stroke-width="0.657402"/>
<rect x="462.481" y="294.344" width="95.9807" height="3.61571" stroke="black" stroke-width="0.657402"/>
<rect x="664.958" y="294.344" width="190.647" height="3.61571" stroke="black" stroke-width="0.657402"/>
<rect x="367.485" y="294.344" width="94.6659" height="3.61571" stroke="black" stroke-width="0.657402"/>
<rect x="176.184" y="294.344" width="184.073" height="3.61571" stroke="black" stroke-width="0.657402"/>
<rect x="469.055" y="298.294" width="89.4067" height="28.597" stroke="black" stroke-width="0.657402"/>
<rect x="664.958" y="297.962" width="190.647" height="28.9257" stroke="black" stroke-width="0.657402"/>
<rect x="374.063" y="298.294" width="88.0919" height="28.597" stroke="black" stroke-width="0.657402"/>
<rect x="176.184" y="298.294" width="184.073" height="28.597" stroke="black" stroke-width="0.657402"/>
<rect x="462.481" y="298.294" width="6.24532" height="28.597" stroke="black" stroke-width="0.657402"/>
<rect x="367.485" y="298.294" width="6.24532" height="28.597" stroke="black" stroke-width="0.657402"/>
<rect x="169.61" y="294.344" width="6.24532" height="32.5414" stroke="black" stroke-width="0.657402"/>
<rect x="360.583" y="294.344" width="6.57402" height="32.5414" stroke="black" stroke-width="0.657402"/>
<rect x="855.61" y="294.344" width="6.24532" height="32.5414" stroke="black" stroke-width="0.657402"/>
<rect x="861.856" y="294.344" width="201.494" height="3.28701" stroke="black" stroke-width="0.657402"/>
<rect x="861.856" y="297.633" width="13.4767" height="8.54623" stroke="black" stroke-width="0.657402"/>
<rect x="861.856" y="306.176" width="188.017" height="20.7082" stroke="black" stroke-width="0.657402"/>
<rect x="875.333" y="297.633" width="174.54" height="3.94441" stroke="black" stroke-width="0.657402"/>
<rect x="875.333" y="301.583" width="174.54" height="4.60182" stroke="black" stroke-width="0.657402"/>
<rect x="1049.87" y="297.633" width="13.4767" height="8.54623" stroke="black" stroke-width="0.657402"/>
<rect x="1049.87" y="306.176" width="13.4767" height="8.87493" stroke="black" stroke-width="0.657402"/>
<rect x="1063.35" y="306.176" width="170.596" height="8.87493" stroke="black" stroke-width="0.657402"/>
<rect x="1063.35" y="294.344" width="182.758" height="11.8332" stroke="black" stroke-width="0.657402"/>
<rect x="1233.94" y="306.176" width="12.1619" height="8.87493" stroke="black" stroke-width="0.657402"/>
<rect x="1246.11" y="294.344" width="5.58792" height="32.5414" stroke="black" stroke-width="0.657402"/>
<rect x="1049.87" y="315.051" width="196.235" height="11.8332" stroke="black" stroke-width="0.657402"/>
<rect x="1252.35" y="294.02" width="143.314" height="32.8701" fill="black" stroke="black" stroke-width="0.657402"/>
<rect x="1307.24" y="327.547" width="572.597" height="54.8931" transform="rotate(90 1307.24 327.547)" fill="black" stroke="black" stroke-width="0.657402"/>
<rect x="1221.12" y="900.794" width="86.1197" height="217.6" fill="black" stroke="black" stroke-width="0.657402"/>
<rect x="1171.48" y="1092.43" width="48.9765" height="25.9674" fill="black" stroke="black" stroke-width="0.657402"/>
<rect x="1167.22" y="1092.43" width="3.94441" height="25.9674" stroke="black" stroke-width="0.657402"/>
<rect x="1032.45" y="1092.43" width="134.767" height="25.9674" stroke="black" stroke-width="0.657402"/>
<rect x="1026.53" y="1092.43" width="5.91662" height="25.9674" stroke="black" stroke-width="0.657402"/>
<path d="M1165.73 1092.43V957.5" stroke="black" stroke-width="0.657402"/>
<path d="M619.598 887.322V761.758" stroke="black" stroke-width="0.657402"/>
<path d="M490.746 1074.02V1177.89" stroke="black" stroke-width="0.657402"/>
<path d="M1160.64 1092.43V957.992" stroke="black" stroke-width="0.657402"/>
<path d="M615 886.996V762.09" stroke="black" stroke-width="0.657402"/>
<path d="M484.172 1074.03V1177.57" stroke="black" stroke-width="0.657402"/>
<path d="M1166.72 957.664C1159.82 957.938 1143.61 959.11 1134.01 961.608C1126.45 963.69 1109.2 969.3 1100.65 975.085C1093.64 979.577 1078.1 990.14 1072.05 996.451C1066.85 1001.93 1055.45 1014.79 1051.51 1022.42C1047.35 1029.98 1038.43 1048.09 1036.06 1060.05C1034.64 1065.92 1031.92 1080.6 1032.45 1092.43" stroke="black" stroke-width="0.657402"/>
<path d="M620.586 761.758C614.184 762.013 599.157 763.105 590.257 765.433C583.246 767.372 567.243 772.599 559.318 777.989C552.816 782.175 538.408 792.016 532.8 797.896C527.973 803 517.406 814.985 513.749 822.09C509.888 829.134 501.617 846.008 499.423 857.156C498.102 862.617 495.582 876.297 496.07 887.322" stroke="black" stroke-width="0.657402"/>
<path d="M491.401 1177.89C485.946 1177.68 473.139 1176.78 465.553 1174.85C459.579 1173.25 445.94 1168.93 439.186 1164.47C433.644 1161.01 421.366 1152.86 416.586 1148C412.473 1143.78 403.467 1133.86 400.35 1127.99C397.06 1122.16 390.011 1108.2 388.141 1098.98C387.015 1094.46 384.867 1083.15 385.283 1074.02" stroke="black" stroke-width="0.657402"/>
<rect x="619.926" y="887.321" width="3.61571" height="19.7221" stroke="black" stroke-width="0.657402"/>
<rect x="492.723" y="887.321" width="126.879" height="19.7221" stroke="black" stroke-width="0.657402"/>
<rect x="465.77" y="804.821" width="20.0508" height="84.1475" fill="black" stroke="black" stroke-width="0.657402"/>
<rect x="104.196" y="887.321" width="387.867" height="19.7221" fill="black" stroke="black" stroke-width="0.657402"/>
<rect x="104.196" y="294.344" width="65.0828" height="592.319" fill="black" stroke="black" stroke-width="0.657402"/>
<rect x="104.196" y="907.7" width="28.9257" height="347.437" fill="black" stroke="black" stroke-width="0.657402"/>
<rect x="133.778" y="1051.02" width="249.155" height="23.0091" fill="black" stroke="black" stroke-width="0.657402"/>
<rect x="495.016" y="1051.02" width="156.133" height="23.0091" fill="black" stroke="black" stroke-width="0.657402"/>
<rect x="327.055" y="1028.99" width="20.0508" height="21.3656" fill="black" stroke="black" stroke-width="0.657402"/>
<rect x="327.055" y="907.7" width="20.0508" height="21.3656" fill="black" stroke="black" stroke-width="0.657402"/>
<rect x="505.547" y="1074.68" width="22.023" height="332.317" fill="black" stroke="black" stroke-width="0.657402"/>
<rect x="528.223" y="1295.9" width="53.2496" height="19.3934" fill="black" stroke="black" stroke-width="0.657402"/>
<rect x="581.472" y="1315.95" width="53.2496" height="19.3934" transform="rotate(90 581.472 1315.95)" fill="black" stroke="black" stroke-width="0.657402"/>
<rect x="528.223" y="1355.73" width="406.275" height="51.2774" fill="black" stroke="black" stroke-width="0.657402"/>
<rect x="907.864" y="1092.43" width="26.6248" height="262.632" fill="black" stroke="black" stroke-width="0.657402"/>
<rect x="935.149" y="1092.43" width="90.7215" height="25.9674" fill="black" stroke="black" stroke-width="0.657402"/>
<rect x="907.864" y="1052.33" width="19.7221" height="39.4441" fill="black" stroke="black" stroke-width="0.657402"/>
<rect x="822.079" y="1052.33" width="85.1336" height="23.3378" fill="black" stroke="black" stroke-width="0.657402"/>
<rect x="241.919" y="1334.35" width="262.961" height="72.643" fill="black" stroke="black" stroke-width="0.657402"/>
<rect x="104.196" y="1355.73" width="137.068" height="51.2774" fill="black" stroke="black" stroke-width="0.657402"/>
<rect x="104.196" y="1255.8" width="25.6387" height="99.2677" fill="black" stroke="black" stroke-width="0.657402"/>
<rect x="128.852" y="1255.14" width="136.082" height="21.3656" fill="black" stroke="black" stroke-width="0.657402"/>
<rect x="241.919" y="1277.16" width="23.0091" height="56.5366" fill="black" stroke="black" stroke-width="0.657402"/>
<rect x="159.419" y="1241.99" width="105.513" height="12.4906" fill="black" stroke="black" stroke-width="0.657402"/>
<rect x="383.27" y="1051.02" width="6.24532" height="23.0091" stroke="black" stroke-width="0.657402"/>
<rect x="488.446" y="1051.02" width="5.91662" height="23.0091" stroke="black" stroke-width="0.657402"/>
<rect x="389.508" y="1051.02" width="98.939" height="23.0091" stroke="black" stroke-width="0.657402"/>
<rect x="327.055" y="929.731" width="20.0508" height="98.6104" stroke="black" stroke-width="0.657402"/>
<path d="M347.434 932.027L381.619 966.212C377.455 970.595 364.789 979.36 347.434 979.36" stroke="black" stroke-width="0.657402"/>
<path d="M347.434 1026.7L381.619 992.51C377.455 988.128 364.789 979.362 347.434 979.362" stroke="black" stroke-width="0.657402"/>
<path d="M347.27 1020.28L378.003 989.223" stroke="black" stroke-width="0.657402"/>
<path d="M347.27 939.254L377.51 969.823" stroke="black" stroke-width="0.657402"/>
<path d="M182.757 604.645C181.442 607.438 178.812 614.374 178.812 619.765C178.812 625.155 181.113 631.982 182.264 634.721" stroke="black" stroke-width="0.657402"/>
<path d="M235.18 586.39C238.686 584.528 247.835 581.92 256.381 586.39" stroke="black" stroke-width="0.657402"/>
<path d="M256.215 653.934C252.709 655.797 243.56 658.404 235.014 653.934" stroke="black" stroke-width="0.657402"/>
<path d="M238.63 652.292L235.179 653.935C233.535 653.88 229.295 654.297 225.482 656.4C226.14 651.47 227.323 639.308 226.797 630.104L224.496 620.736L226.14 610.218C226.687 606.164 227.454 595.229 226.14 583.922C227.893 584.689 232.188 586.256 235.343 586.387C235.343 586.65 237.535 587.702 238.63 588.195" stroke="black" stroke-width="0.657402"/>
<path d="M253.092 652.292L256.544 653.935C258.187 653.88 262.428 654.297 266.24 656.4C265.583 651.47 264.4 639.308 264.926 630.104L267.227 620.736L265.583 610.218C265.035 606.164 264.268 595.229 265.583 583.922C263.83 584.689 259.535 586.256 256.379 586.387C256.379 586.65 254.188 587.702 253.092 588.195" stroke="black" stroke-width="0.657402"/>
<path d="M195.566 572.256C196.717 571.708 199.872 570.612 203.291 570.612C206.709 570.612 210.741 569.517 212.33 568.969C214.412 569.517 219.2 570.612 221.698 570.612C224.196 570.612 228.765 571.708 230.737 572.256" stroke="black" stroke-width="0.657402"/>
<path d="M195.406 667.912C196.557 668.46 199.712 669.556 203.131 669.556C206.549 669.556 210.581 670.651 212.17 671.199C214.252 670.651 219.04 669.556 221.538 669.556C224.036 669.556 228.605 668.46 230.577 667.912" stroke="black" stroke-width="0.657402"/>
<path d="M225.152 574.881C226.686 573.95 231.135 571.89 236.657 571.101C242.179 570.312 245.422 569.458 246.354 569.129C246.573 571.868 246.715 578.628 245.532 583.756" stroke="black" stroke-width="0.657402"/>
<path d="M224.988 665.283C226.522 666.214 230.971 668.274 236.493 669.063C242.015 669.852 245.258 670.706 246.189 671.035C246.409 668.296 246.551 661.536 245.368 656.408" stroke="black" stroke-width="0.657402"/>
<path d="M200.496 574.716L195.402 572.251C191.895 571.758 183.963 570.509 180.281 569.457C180.336 578.442 180.774 597.824 182.089 603.478C183.733 610.545 183.897 613.832 183.733 615.804" stroke="black" stroke-width="0.657402"/>
<path d="M200.336 665.444L195.241 667.909C191.735 668.402 183.803 669.651 180.121 670.703C180.176 661.719 180.614 642.336 181.929 636.683C183.572 629.615 183.737 626.328 183.572 624.356" stroke="black" stroke-width="0.657402"/>
<path d="M235.18 454.089C238.686 452.227 247.835 449.619 256.381 454.089" stroke="black" stroke-width="0.657402"/>
<path d="M256.215 521.633C252.709 523.496 243.56 526.104 235.014 521.633" stroke="black" stroke-width="0.657402"/>
<path d="M238.63 519.991L235.179 521.634C233.535 521.58 229.295 521.996 225.482 524.1C226.14 519.169 227.323 507.007 226.797 497.804L224.496 488.436L226.14 477.917C226.687 473.863 227.454 462.928 226.14 451.621C227.893 452.388 232.188 453.955 235.343 454.086C235.343 454.349 237.535 455.401 238.63 455.894" stroke="black" stroke-width="0.657402"/>
<path d="M253.096 519.991L256.548 521.634C258.191 521.58 262.431 521.996 266.244 524.1C265.587 519.169 264.404 507.007 264.93 497.804L267.23 488.436L265.587 477.917C265.039 473.863 264.272 462.928 265.587 451.621C263.834 452.388 259.539 453.955 256.383 454.086C256.383 454.349 254.192 455.401 253.096 455.894" stroke="black" stroke-width="0.657402"/>
<path d="M195.566 439.955C196.717 439.407 199.872 438.311 203.291 438.311C206.709 438.311 210.741 437.216 212.33 436.668C214.412 437.216 219.2 438.311 221.698 438.311C224.196 438.311 228.765 439.407 230.737 439.955" stroke="black" stroke-width="0.657402"/>
<path d="M195.406 535.611C196.557 536.159 199.712 537.255 203.131 537.255C206.549 537.255 210.581 538.351 212.17 538.898C214.252 538.351 219.04 537.255 221.538 537.255C224.036 537.255 228.605 536.159 230.577 535.611" stroke="black" stroke-width="0.657402"/>
<path d="M225.152 442.58C226.686 441.649 231.135 439.589 236.657 438.8C242.179 438.011 245.422 437.157 246.354 436.828C246.573 439.567 246.715 446.328 245.532 451.455" stroke="black" stroke-width="0.657402"/>
<path d="M224.988 532.982C226.522 533.913 230.971 535.973 236.493 536.762C242.015 537.551 245.258 538.406 246.189 538.734C246.409 535.995 246.551 529.235 245.368 524.107" stroke="black" stroke-width="0.657402"/>
<path d="M200.496 442.415L195.402 439.95C191.895 439.457 183.963 438.208 180.281 437.156C180.336 446.141 180.774 465.523 182.089 471.177C183.733 478.244 183.897 481.531 183.733 483.503" stroke="black" stroke-width="0.657402"/>
<path d="M200.336 533.143L195.241 535.608C191.735 536.101 183.803 537.35 180.121 538.402C180.176 529.418 180.614 510.035 181.929 504.382C183.572 497.315 183.737 494.028 183.572 492.055" stroke="black" stroke-width="0.657402"/>
<path d="M211.025 391.313C211.025 395.126 207.934 398.216 204.122 398.216C200.31 398.216 197.219 395.126 197.219 391.313C197.219 387.501 200.31 384.411 204.122 384.411C207.934 384.411 211.025 387.501 211.025 391.313Z" stroke="black" stroke-width="0.657402"/>
<path d="M209.548 715.739C209.548 719.552 206.458 722.642 202.645 722.642C198.833 722.642 195.743 719.552 195.743 715.739C195.743 711.927 198.833 708.837 202.645 708.837C206.458 708.837 209.548 711.927 209.548 715.739Z" stroke="black" stroke-width="0.657402"/>
<path d="M214.306 391.48C214.306 397.203 209.739 401.834 204.116 401.834C198.493 401.834 193.926 397.203 193.926 391.48C193.926 385.756 198.493 381.126 204.116 381.126C209.739 381.126 214.306 385.756 214.306 391.48Z" stroke="black" stroke-width="0.657402"/>
<path d="M212.833 715.902C212.833 721.625 208.266 726.256 202.643 726.256C197.021 726.256 192.454 721.625 192.454 715.902C192.454 710.178 197.021 705.547 202.643 705.547C208.266 705.547 212.833 710.178 212.833 715.902Z" stroke="black" stroke-width="0.657402"/>
<path d="M220.554 391.479C220.554 400.65 213.193 408.078 204.119 408.078C195.045 408.078 187.684 400.65 187.684 391.479C187.684 382.308 195.045 374.879 204.119 374.879C213.193 374.879 220.554 382.308 220.554 391.479Z" stroke="black" stroke-width="0.657402"/>
<path d="M219.078 715.905C219.078 725.075 211.716 732.504 202.643 732.504C193.569 732.504 186.208 725.075 186.208 715.905C186.208 706.734 193.569 699.305 202.643 699.305C211.716 699.305 219.078 706.734 219.078 715.905Z" stroke="black" stroke-width="0.657402"/>
<rect x="178.157" y="365.348" width="52.2635" height="52.5922" stroke="black" stroke-width="0.657402"/>
<path d="M204.449 365.34V418.096M177.988 391.472H230.416" stroke="black" stroke-width="0.657402"/>
<path d="M202.972 689.773V742.53M176.512 715.905H228.94" stroke="black" stroke-width="0.657402"/>
<path d="M561.915 1315.29L527.73 1355.88M527.73 1315.29L561.915 1355.88" stroke="black" stroke-width="0.657402"/>
<rect x="665.946" y="1268.62" width="104.856" height="65.0828" rx="15.449" stroke="black" stroke-width="0.657402"/>
<rect x="671.204" y="1273.87" width="44.3746" height="54.5644" rx="11.1758" stroke="black" stroke-width="0.657402"/>
<rect x="721.169" y="1273.87" width="44.3746" height="54.5644" rx="11.1758" stroke="black" stroke-width="0.657402"/>
<path d="M733.983 1301.16C733.983 1302.07 733.247 1302.8 732.339 1302.8C731.432 1302.8 730.696 1302.07 730.696 1301.16C730.696 1300.25 731.432 1299.52 732.339 1299.52C733.247 1299.52 733.983 1300.25 733.983 1301.16Z" stroke="black" stroke-width="0.657402"/>
<path d="M672.186 1280.45H714.588M671.035 1285.38H715.739M671.035 1290.96H715.739M671.035 1296.06H715.739M671.035 1301.15H715.739M671.035 1306.74H715.739M671.035 1311.84H715.739M671.035 1316.77H715.739M672.679 1322.68H714.095" stroke="black" stroke-width="0.657402"/>
<path d="M1044.61 1171.98L1098.84 1118.57L1153.57 1171.98H1044.61Z" fill="black" stroke="black" stroke-width="0.657402"/>
<path d="M826.681 407.096C827.601 398.023 833.638 387.647 836.542 383.593C829.836 372.155 819.723 370.172 815.505 370.61C805.512 402.823 810.465 419.531 814.19 423.859C817.97 422.052 825.76 416.168 826.681 407.096Z" stroke="black" stroke-width="0.657402"/>
<path d="M896.366 407.15C895.446 398.078 889.409 387.702 886.505 383.648C893.211 372.209 903.324 370.226 907.542 370.664C917.534 402.877 912.582 419.586 908.857 423.914C905.077 422.106 897.286 416.222 896.366 407.15Z" stroke="black" stroke-width="0.657402"/>
<path d="M836.543 383.592C843.994 380.908 864.417 377.15 886.506 383.592" stroke="black" stroke-width="0.657402"/>
<path d="M815.504 370.937C817.809 360.638 830.355 340.039 862.098 340.039C893.842 340.039 905.619 360.638 907.54 370.937" stroke="black" stroke-width="0.657402"/>
<path d="M814.023 423.691C814.407 425.773 815.24 431.054 815.503 435.525C815.831 441.113 821.419 453.932 862.507 453.932C895.377 453.932 905.676 444.18 906.717 439.305C907.429 437.113 908.854 430.923 908.854 423.691" stroke="black" stroke-width="0.657402"/>
<path d="M820.108 444.395C819.286 445.217 817.939 447.091 819.122 448.011C820.305 448.931 821.916 447.299 822.573 446.368M900.476 446.532C901.462 447.518 903.73 449.194 904.913 448.011C906.096 446.828 904.639 444.779 903.763 443.902" stroke="black" stroke-width="0.657402"/>
<path d="M955.821 407.42C956.742 398.348 962.779 387.972 965.682 383.918C958.977 372.479 948.864 370.496 944.646 370.934C934.653 403.147 939.606 419.856 943.331 424.184C947.111 422.376 954.901 416.492 955.821 407.42Z" stroke="black" stroke-width="0.657402"/>
<path d="M1025.51 407.475C1024.59 398.402 1018.55 388.026 1015.65 383.972C1022.35 372.534 1032.46 370.55 1036.68 370.989C1046.68 403.201 1041.72 419.91 1038 424.238C1034.22 422.43 1026.43 416.547 1025.51 407.475Z" stroke="black" stroke-width="0.657402"/>
<path d="M965.684 383.917C973.134 381.232 993.557 377.474 1015.65 383.917" stroke="black" stroke-width="0.657402"/>
<path d="M944.645 371.261C946.95 360.962 959.495 340.363 991.239 340.363C1022.98 340.363 1034.76 360.962 1036.68 371.261" stroke="black" stroke-width="0.657402"/>
<path d="M943.164 424.016C943.548 426.097 944.38 431.379 944.643 435.849C944.972 441.437 950.56 454.256 991.647 454.256C1024.52 454.256 1034.82 444.505 1035.86 439.629C1036.57 437.438 1037.99 431.247 1037.99 424.016" stroke="black" stroke-width="0.657402"/>
<path d="M949.249 444.72C948.427 445.541 947.079 447.415 948.263 448.335C949.446 449.256 951.057 447.623 951.714 446.692M1029.62 446.856C1030.6 447.842 1032.87 449.519 1034.05 448.335C1035.24 447.152 1033.78 445.103 1032.9 444.227" stroke="black" stroke-width="0.657402"/>
<path d="M1035.57 717.553H1006.64V775.076H1039.35C1054.6 775.076 1058.08 765.324 1057.92 760.448V727.743C1057.92 719.196 1043.02 717.389 1035.57 717.553Z" stroke="black" stroke-width="0.657402"/>
<path d="M1019.79 717.389C1019.57 714.924 1021.49 709.994 1030.96 709.994C1040.43 709.994 1048.71 709.994 1051.67 709.994C1059.12 709.172 1074.02 715.483 1074.02 747.301C1074.02 779.119 1060.54 784.554 1053.81 783.294H1030.96C1027.24 783.458 1019.79 782.012 1019.79 774.912" stroke="black" stroke-width="0.657402"/>
<path d="M1053.8 769.812C1056.82 771.018 1063.5 774.48 1066.13 778.687" stroke="black" stroke-width="0.657402"/>
<path d="M1055.29 722.481C1057.64 721.768 1062.91 719.424 1065.15 715.742" stroke="black" stroke-width="0.657402"/>
<path d="M867.926 892.658H896.852V835.135H864.146C848.894 835.135 845.41 844.887 845.574 849.763V882.468C845.574 891.015 860.475 892.822 867.926 892.658Z" stroke="black" stroke-width="0.657402"/>
<path d="M883.707 892.822C883.926 895.287 881.997 900.217 872.531 900.217C863.064 900.217 854.781 900.217 851.823 900.217C844.372 901.039 829.471 894.728 829.471 862.91C829.471 831.091 842.948 825.657 849.686 826.917H872.531C876.256 826.753 883.707 828.199 883.707 835.299" stroke="black" stroke-width="0.657402"/>
<path d="M849.688 840.398C846.674 839.193 839.991 835.731 837.361 831.524" stroke="black" stroke-width="0.657402"/>
<path d="M848.203 887.73C845.847 888.443 840.577 890.787 838.342 894.469" stroke="black" stroke-width="0.657402"/>
<path d="M1035.73 834.467H1006.81V891.99H1039.51C1054.77 891.99 1058.25 882.238 1058.09 877.362V844.657C1058.09 836.11 1043.18 834.303 1035.73 834.467Z" stroke="black" stroke-width="0.657402"/>
<path d="M1019.95 834.303C1019.73 831.838 1021.66 826.908 1031.13 826.908C1040.6 826.908 1048.88 826.908 1051.84 826.908C1059.29 826.086 1074.19 832.397 1074.19 864.215C1074.19 896.034 1060.71 901.468 1053.97 900.208H1031.13C1027.4 900.372 1019.95 898.926 1019.95 891.826" stroke="black" stroke-width="0.657402"/>
<path d="M1053.97 886.727C1056.99 887.932 1063.67 891.394 1066.3 895.601" stroke="black" stroke-width="0.657402"/>
<path d="M1055.46 839.395C1057.81 838.682 1063.08 836.338 1065.32 832.656" stroke="black" stroke-width="0.657402"/>
<path d="M867.766 775.732H896.691V718.21H863.986C848.734 718.21 845.25 727.961 845.414 732.837V765.542C845.414 774.089 860.315 775.897 867.766 775.732Z" stroke="black" stroke-width="0.657402"/>
<path d="M883.546 775.896C883.766 778.361 881.837 783.292 872.371 783.292C862.904 783.292 854.621 783.292 851.662 783.292C844.212 784.113 829.311 777.802 829.311 745.984C829.311 714.166 842.787 708.731 849.526 709.991H872.371C876.096 709.827 883.546 711.273 883.546 718.373" stroke="black" stroke-width="0.657402"/>
<path d="M849.527 723.473C846.514 722.267 839.831 718.805 837.201 714.598" stroke="black" stroke-width="0.657402"/>
<path d="M848.043 770.805C845.687 771.517 840.417 773.862 838.182 777.543" stroke="black" stroke-width="0.657402"/>
<rect x="895.047" y="699.633" width="112.744" height="211.355" fill="#BFBFBF" stroke="black" stroke-width="0.657402"/>
<path d="M185.217 851.658C179.301 846.267 182.752 840.756 185.217 838.674C183.19 822.568 178.479 817.966 177.657 813.529C177 809.979 179.136 810.844 180.287 811.721C185.283 819.61 187.19 832.977 187.518 838.674C191.726 844.328 189.271 849.686 187.518 851.658C187.354 857.575 183.41 876.475 180.287 878.612C177.164 880.748 177.329 876.968 177.657 876.475C182.785 867.271 184.834 856.096 185.217 851.658Z" stroke="black" stroke-width="0.657402"/>
<path d="M195.413 851.779C189.496 846.388 192.947 840.877 195.413 838.795C193.385 822.689 188.674 818.087 187.853 813.65C187.195 810.1 189.332 810.965 190.482 811.842C195.478 819.731 197.385 833.098 197.714 838.795C201.921 844.449 199.467 849.807 197.714 851.779C197.549 857.696 193.605 876.596 190.482 878.733C187.359 880.869 187.524 877.089 187.853 876.596C192.98 867.392 195.029 856.217 195.413 851.779Z" stroke="black" stroke-width="0.657402"/>
<path d="M205.608 851.779C199.691 846.388 203.143 840.877 205.608 838.795C203.58 822.689 198.87 818.087 198.048 813.65C197.39 810.1 199.527 810.965 200.677 811.842C205.674 819.731 207.58 833.098 207.909 838.795C212.116 844.449 209.662 849.807 207.909 851.779C207.745 857.696 203.8 876.596 200.677 878.733C197.555 880.869 197.719 877.089 198.048 876.596C203.176 867.392 205.225 856.217 205.608 851.779Z" stroke="black" stroke-width="0.657402"/>
<path d="M216.12 851.779C210.203 846.388 213.654 840.877 216.12 838.795C214.092 822.689 209.381 818.087 208.56 813.65C207.902 810.1 210.039 810.965 211.189 811.842C216.185 819.731 218.092 833.098 218.421 838.795C222.628 844.449 220.174 849.807 218.421 851.779C218.256 857.696 214.312 876.596 211.189 878.733C208.067 880.869 208.231 877.089 208.56 876.596C213.687 867.392 215.736 856.217 216.12 851.779Z" stroke="black" stroke-width="0.657402"/>
<path d="M226.639 851.779C220.723 846.388 224.174 840.877 226.639 838.795C224.611 822.689 219.901 818.087 219.079 813.65C218.422 810.1 220.558 810.965 221.709 811.842C226.705 819.731 228.611 833.098 228.94 838.795C233.148 844.449 230.693 849.807 228.94 851.779C228.776 857.696 224.831 876.596 221.709 878.733C218.586 880.869 218.75 877.089 219.079 876.596C224.207 867.392 226.256 856.217 226.639 851.779Z" stroke="black" stroke-width="0.657402"/>
<path d="M236.503 851.779C230.586 846.388 234.037 840.877 236.503 838.795C234.475 822.689 229.764 818.087 228.942 813.65C228.285 810.1 230.422 810.965 231.572 811.842C236.568 819.731 238.475 833.098 238.803 838.795C243.011 844.449 240.557 849.807 238.803 851.779C238.639 857.696 234.695 876.596 231.572 878.733C228.449 880.869 228.614 877.089 228.942 876.596C234.07 867.392 236.119 856.217 236.503 851.779Z" stroke="black" stroke-width="0.657402"/>
<path d="M247.022 851.779C241.105 846.388 244.557 840.877 247.022 838.795C244.994 822.689 240.284 818.087 239.462 813.65C238.805 810.1 240.941 810.965 242.092 811.842C247.088 819.731 248.994 833.098 249.323 838.795C253.53 844.449 251.076 849.807 249.323 851.779C249.159 857.696 245.214 876.596 242.092 878.733C238.969 880.869 239.133 877.089 239.462 876.596C244.59 867.392 246.639 856.217 247.022 851.779Z" stroke="black" stroke-width="0.657402"/>
<path d="M257.206 851.779C251.289 846.388 254.74 840.877 257.206 838.795C255.178 822.689 250.467 818.087 249.646 813.65C248.988 810.1 251.125 810.965 252.275 811.842C257.271 819.731 259.178 833.098 259.507 838.795C263.714 844.449 261.26 849.807 259.507 851.779C259.342 857.696 255.398 876.596 252.275 878.733C249.152 880.869 249.317 877.089 249.646 876.596C254.773 867.392 256.822 856.217 257.206 851.779Z" stroke="black" stroke-width="0.657402"/>
<path d="M330.178 851.779C324.262 846.388 327.713 840.877 330.178 838.795C328.15 822.689 323.44 818.087 322.618 813.65C321.961 810.1 324.097 810.965 325.248 811.842C330.244 819.731 332.151 833.098 332.479 838.795C336.687 844.449 334.232 849.807 332.479 851.779C332.315 857.696 328.37 876.596 325.248 878.733C322.125 880.869 322.289 877.089 322.618 876.596C327.746 867.392 329.795 856.217 330.178 851.779Z" stroke="black" stroke-width="0.657402"/>
<path d="M267.401 851.779C261.484 846.388 264.936 840.877 267.401 838.795C265.373 822.689 260.663 818.087 259.841 813.65C259.183 810.1 261.32 810.965 262.47 811.842C267.467 819.731 269.373 833.098 269.702 838.795C273.909 844.449 271.455 849.807 269.702 851.779C269.538 857.696 265.593 876.596 262.47 878.733C259.348 880.869 259.512 877.089 259.841 876.596C264.969 867.392 267.017 856.217 267.401 851.779Z" stroke="black" stroke-width="0.657402"/>
<path d="M340.366 851.779C334.449 846.388 337.901 840.877 340.366 838.795C338.338 822.689 333.627 818.087 332.806 813.65C332.148 810.1 334.285 810.965 335.435 811.842C340.432 819.731 342.338 833.098 342.667 838.795C346.874 844.449 344.42 849.807 342.667 851.779C342.502 857.696 338.558 876.596 335.435 878.733C332.313 880.869 332.477 877.089 332.806 876.596C337.933 867.392 339.982 856.217 340.366 851.779Z" stroke="black" stroke-width="0.657402"/>
<path d="M277.917 851.779C272 846.388 275.451 840.877 277.917 838.795C275.889 822.689 271.178 818.087 270.356 813.65C269.699 810.1 271.836 810.965 272.986 811.842C277.982 819.731 279.889 833.098 280.217 838.795C284.425 844.449 281.971 849.807 280.217 851.779C280.053 857.696 276.109 876.596 272.986 878.733C269.863 880.869 270.028 877.089 270.356 876.596C275.484 867.392 277.533 856.217 277.917 851.779Z" stroke="black" stroke-width="0.657402"/>
<path d="M350.893 851.779C344.977 846.388 348.428 840.877 350.893 838.795C348.865 822.689 344.155 818.087 343.333 813.65C342.676 810.1 344.812 810.965 345.963 811.842C350.959 819.731 352.865 833.098 353.194 838.795C357.401 844.449 354.947 849.807 353.194 851.779C353.03 857.696 349.085 876.596 345.963 878.733C342.84 880.869 343.004 877.089 343.333 876.596C348.461 867.392 350.51 856.217 350.893 851.779Z" stroke="black" stroke-width="0.657402"/>
<path d="M288.108 851.779C282.191 846.388 285.643 840.877 288.108 838.795C286.08 822.689 281.37 818.087 280.548 813.65C279.89 810.1 282.027 810.965 283.177 811.842C288.174 819.731 290.08 833.098 290.409 838.795C294.616 844.449 292.162 849.807 290.409 851.779C290.245 857.696 286.3 876.596 283.177 878.733C280.055 880.869 280.219 877.089 280.548 876.596C285.676 867.392 287.725 856.217 288.108 851.779Z" stroke="black" stroke-width="0.657402"/>
<path d="M361.077 851.779C355.16 846.388 358.611 840.877 361.077 838.795C359.049 822.689 354.338 818.087 353.517 813.65C352.859 810.1 354.996 810.965 356.146 811.842C361.142 819.731 363.049 833.098 363.378 838.795C367.585 844.449 365.131 849.807 363.378 851.779C363.213 857.696 359.269 876.596 356.146 878.733C353.024 880.869 353.188 877.089 353.517 876.596C358.644 867.392 360.693 856.217 361.077 851.779Z" stroke="black" stroke-width="0.657402"/>
<path d="M298.299 851.779C292.383 846.388 295.834 840.877 298.299 838.795C296.272 822.689 291.561 818.087 290.739 813.65C290.082 810.1 292.218 810.965 293.369 811.842C298.365 819.731 300.272 833.098 300.6 838.795C304.808 844.449 302.353 849.807 300.6 851.779C300.436 857.696 296.492 876.596 293.369 878.733C290.246 880.869 290.411 877.089 290.739 876.596C295.867 867.392 297.916 856.217 298.299 851.779Z" stroke="black" stroke-width="0.657402"/>
<path d="M371.272 851.779C365.355 846.388 368.807 840.877 371.272 838.795C369.244 822.689 364.534 818.087 363.712 813.65C363.055 810.1 365.191 810.965 366.342 811.842C371.338 819.731 373.244 833.098 373.573 838.795C377.78 844.449 375.326 849.807 373.573 851.779C373.409 857.696 369.464 876.596 366.342 878.733C363.219 880.869 363.383 877.089 363.712 876.596C368.84 867.392 370.889 856.217 371.272 851.779Z" stroke="black" stroke-width="0.657402"/>
<path d="M308.815 851.779C302.898 846.388 306.35 840.877 308.815 838.795C306.787 822.689 302.077 818.087 301.255 813.65C300.597 810.1 302.734 810.965 303.884 811.842C308.881 819.731 310.787 833.098 311.116 838.795C315.323 844.449 312.869 849.807 311.116 851.779C310.952 857.696 307.007 876.596 303.884 878.733C300.762 880.869 300.926 877.089 301.255 876.596C306.383 867.392 308.432 856.217 308.815 851.779Z" stroke="black" stroke-width="0.657402"/>
<path d="M381.792 851.779C375.875 846.388 379.326 840.877 381.792 838.795C379.764 822.689 375.053 818.087 374.231 813.65C373.574 810.1 375.711 810.965 376.861 811.842C381.857 819.731 383.764 833.098 384.092 838.795C388.3 844.449 385.846 849.807 384.092 851.779C383.928 857.696 379.984 876.596 376.861 878.733C373.738 880.869 373.903 877.089 374.231 876.596C379.359 867.392 381.408 856.217 381.792 851.779Z" stroke="black" stroke-width="0.657402"/>
<rect x="169.934" y="804.825" width="147.587" height="81.8466" stroke="black" stroke-width="0.657402"/>
<rect x="317.52" y="804.825" width="71.6568" height="81.8466" stroke="black" stroke-width="0.657402"/>
<rect x="389.184" y="804.825" width="75.93" height="81.8466" stroke="black" stroke-width="0.657402"/>
<rect x="392.462" y="808.11" width="69.0272" height="75.2726" stroke="black" stroke-width="0.657402"/>
<path d="M397.402 820.926H456.733M397.402 871.381H456.733" stroke="black" stroke-width="0.657402"/>
<rect x="397.399" y="816.653" width="59.1662" height="59.8236" stroke="black" stroke-width="0.657402"/>
<path d="M392.297 846.564H461.653M461.653 843.606H392.297M401.501 820.926V871.381M450.148 820.926V871.381" stroke="black" stroke-width="0.657402"/>
</svg>
