<svg width="1500" height="1500" viewBox="0 0 1500 1500" fill="none" xmlns="http://www.w3.org/2000/svg">
<rect x="306.602" y="1398.85" width="17.9749" height="36.6548" fill="black"/>
<rect x="306.602" y="1111.95" width="17.9749" height="45.1135" fill="black"/>
<rect x="306.602" y="827.523" width="17.9749" height="43.3513" fill="black"/>
<rect x="306.602" y="557.547" width="17.9749" height="41.9415" fill="black"/>
<rect x="324.574" y="1406.25" width="295" height="29.2533" fill="black"/>
<rect x="608.297" y="1374.18" width="11.2784" height="32.0729" fill="black"/>
<rect x="747.512" y="1345.98" width="11.2784" height="74.7193" fill="black"/>
<rect x="859.941" y="1104.9" width="11.2784" height="32.7778" fill="black"/>
<rect x="753.148" y="1122.17" width="11.2784" height="15.5078" fill="black"/>
<rect x="753.148" y="1036.88" width="11.2784" height="14.4504" fill="black"/>
<rect x="859.941" y="963.922" width="11.2784" height="83.883" fill="black"/>
<rect x="859.941" y="884.977" width="11.2784" height="22.2043" fill="black"/>
<rect x="930.434" y="1020.31" width="11.2784" height="62.736" transform="rotate(90 930.434 1020.31)" fill="black"/>
<rect x="932.551" y="1126.4" width="11.2784" height="76.834" transform="rotate(90 932.551 1126.4)" fill="black"/>
<rect x="655.172" y="1036.53" width="11.2784" height="109.964" transform="rotate(90 655.172 1036.53)" fill="black"/>
<rect x="592.082" y="832.809" width="11.2784" height="203.716" fill="black"/>
<rect x="782.406" y="1036.53" width="11.2784" height="63.0885" transform="rotate(90 782.406 1036.53)" fill="black"/>
<rect x="771.125" y="878.277" width="12.3357" height="132.169" transform="rotate(90 771.125 878.277)" fill="black"/>
<rect x="685.832" y="867" width="11.2784" height="82.4732" transform="rotate(90 685.832 867)" fill="black"/>
<rect x="685.832" y="832.809" width="11.2784" height="82.4732" transform="rotate(90 685.832 832.809)" fill="black"/>
<rect x="592.082" y="832.809" width="31.0156" height="285.484" transform="rotate(90 592.082 832.809)" fill="black"/>
<rect x="786.988" y="702.758" width="11.2784" height="101.153" transform="rotate(90 786.988 702.758)" fill="black"/>
<rect x="786.988" y="714.035" width="3.5245" height="16.2127" transform="rotate(90 786.988 714.035)" fill="black"/>
<rect x="782.406" y="717.562" width="45.1135" height="11.2784" transform="rotate(90 782.406 717.562)" fill="black"/>
<rect x="899.77" y="717.562" width="33.8352" height="11.2784" transform="rotate(90 899.77 717.562)" fill="black"/>
<rect x="899.77" y="706.988" width="112.784" height="4.22938" transform="rotate(-180 899.77 706.988)" fill="black"/>
<rect x="841.969" y="717.562" width="12.3357" height="10.5735" transform="rotate(-180 841.969 717.562)" fill="black"/>
<rect x="899.77" y="717.562" width="15.8602" height="10.5735" transform="rotate(-180 899.77 717.562)" fill="black"/>
<rect x="674.555" y="702.758" width="11.2784" height="164.241" fill="black"/>
<rect x="650.234" y="960.047" width="11.2784" height="69.4326" transform="rotate(-180 650.234 960.047)" fill="black"/>
<rect x="592.082" y="960.047" width="11.2784" height="65.9081" transform="rotate(-90 592.082 960.047)" fill="black"/>
<rect x="660.809" y="960.047" width="10.5735" height="48.2856" transform="rotate(-180 660.809 960.047)" fill="black"/>
<rect x="771.125" y="826.82" width="11.2784" height="209.707" fill="black"/>
<rect x="785.93" y="1126.4" width="11.2784" height="461.356" transform="rotate(90 785.93 1126.4)" fill="black"/>
<rect x="747.512" y="1237.42" width="11.2784" height="44.7611" fill="black"/>
<rect x="608.297" y="1226.5" width="11.2784" height="46.8758" fill="black"/>
<rect x="608.297" y="1215.22" width="139.218" height="11.2784" fill="black"/>
<rect x="876.512" y="1349.15" width="11.2784" height="71.5472" fill="black"/>
<rect x="865.582" y="1349.15" width="10.9259" height="48.9905" fill="black"/>
<rect x="887.789" y="1349.15" width="44.0562" height="11.2784" fill="black"/>
<rect x="747.512" y="1215.22" width="185.036" height="22.2043" fill="black"/>
<rect x="859.941" y="841.621" width="70.1375" height="43.3513" fill="black"/>
<rect x="1038.98" y="841.621" width="359.499" height="29.6058" fill="black"/>
<rect x="1153.18" y="832.809" width="245.305" height="8.81124" fill="black"/>
<path d="M1183.67 833.338C1181.32 829.579 1178.2 821.637 1184.55 819.945C1188.95 821.238 1199.6 823.047 1206.93 819.945C1209.75 820.122 1214.23 823.047 1209.57 833.338" stroke="black" stroke-width="0.704899"/>
<path d="M1207.99 809.371C1208.34 811.662 1208.69 817.054 1207.28 820.297" stroke="black" stroke-width="0.704899"/>
<path d="M1184.72 809.02C1184.31 811.369 1183.74 816.844 1184.72 819.945" stroke="black" stroke-width="0.704899"/>
<path d="M1203.76 815.892H1188.78C1186.14 815.892 1176.09 795.274 1189.66 788.225C1200.52 782.586 1206.75 790.574 1208.52 795.274C1210.63 806.552 1206.23 813.719 1203.76 815.892Z" stroke="black" stroke-width="0.704899"/>
<rect x="1153.18" y="777.832" width="11.2784" height="54.9821" fill="black"/>
<rect x="1042.16" y="629.445" width="11.2784" height="212.175" fill="black"/>
<rect x="1337.16" y="750.336" width="11.2784" height="82.4732" fill="black"/>
<rect x="1235.3" y="702.055" width="11.2784" height="47.2282" fill="black"/>
<rect x="1235.3" y="550.852" width="11.2784" height="87.4075" fill="black"/>
<rect x="1217.33" y="493.402" width="11.2784" height="55.3346" fill="black"/>
<rect x="1038.63" y="493.402" width="11.2784" height="57.4493" fill="black"/>
<rect x="888.844" y="345.023" width="11.2784" height="194.552" fill="black"/>
<rect x="1038.63" y="539.574" width="11.2784" height="149.791" transform="rotate(90 1038.63 539.574)" fill="black"/>
<rect x="1128.16" y="225.539" width="11.2784" height="325.311" fill="black"/>
<rect x="1364.3" y="225.539" width="4.93429" height="18.3274" fill="black"/>
<rect x="1103.13" y="225.539" width="25.0239" height="18.3274" fill="black"/>
<rect x="859.941" y="225.539" width="40.1792" height="127.587" fill="black"/>
<rect x="1369.23" y="225.539" width="29.2533" height="319.672" fill="black"/>
<rect x="1398.48" y="539.574" width="11.2784" height="184.331" transform="rotate(90 1398.48 539.574)" fill="black"/>
<rect x="1153.18" y="705.223" width="11.2784" height="16.2127" fill="black"/>
<rect x="1239.18" y="707.34" width="11.2784" height="84.2354" transform="rotate(90 1239.18 707.34)" fill="black"/>
<rect x="1164.46" y="629.445" width="11.2784" height="111.022" transform="rotate(90 1164.46 629.445)" fill="black"/>
<rect x="1384.04" y="743.289" width="11.2784" height="148.734" transform="rotate(90 1384.04 743.289)" fill="black"/>
<rect x="1384.04" y="539.574" width="14.4504" height="293.238" fill="black"/>
<rect x="930.082" y="841.621" width="29.2533" height="579.075" fill="black"/>
<rect x="619.574" y="1420.7" width="339.761" height="14.8029" fill="black"/>
<rect x="1153.18" y="640.727" width="11.2784" height="1.4098" fill="black"/>
<rect x="1124.63" y="539.574" width="3.5245" height="11.2784" fill="black"/>
<rect x="1049.91" y="539.574" width="3.5245" height="11.2784" fill="black"/>
<rect x="1139.43" y="539.574" width="3.5245" height="11.2784" fill="black"/>
<rect x="1288.17" y="225.892" width="78.9487" height="3.17205" stroke="black" stroke-width="0.704899"/>
<rect x="780.997" y="225.892" width="81.7683" height="3.17205" stroke="black" stroke-width="0.704899"/>
<rect x="-0.35245" y="0.35245" width="71.1948" height="3.17205" transform="matrix(-1 0 0 1 968.498 225.539)" stroke="black" stroke-width="0.704899"/>
<rect x="0.35245" y="0.35245" width="80.3585" height="3.17204" transform="matrix(3.89138e-08 1 1 -4.91005e-08 306.602 749.984)" stroke="black" stroke-width="0.704899"/>
<rect x="306.954" y="950.53" width="86.3501" height="3.17205" transform="rotate(-90 306.954 950.53)" stroke="black" stroke-width="0.704899"/>
<rect x="0.35245" y="0.35245" width="86.7026" height="3.17204" transform="matrix(4.21017e-08 1 1 -4.64388e-08 306.602 1318.84)" stroke="black" stroke-width="0.704899"/>
<rect x="1364.65" y="229.067" width="14.4504" height="3.87694" transform="rotate(90 1364.65 229.067)" stroke="black" stroke-width="0.704899"/>
<rect x="860.296" y="229.067" width="14.4504" height="4.22939" transform="rotate(90 860.296 229.067)" stroke="black" stroke-width="0.704899"/>
<rect x="0.35245" y="0.35245" width="14.4504" height="3.52449" transform="matrix(3.93335e-08 1 1 -4.85765e-08 899.418 228.715)" stroke="black" stroke-width="0.704899"/>
<rect x="0.35245" y="-0.35245" width="14.098" height="3.87694" transform="matrix(1 -9.34255e-08 -8.20337e-08 -1 309.77 827.877)" stroke="black" stroke-width="0.704899"/>
<rect x="1290.99" y="229.067" width="14.4504" height="2.8196" transform="rotate(90 1290.99 229.067)" stroke="black" stroke-width="0.704899"/>
<rect x="784.163" y="229.067" width="14.4504" height="3.17205" transform="rotate(90 784.163 229.067)" stroke="black" stroke-width="0.704899"/>
<rect x="0.35245" y="0.35245" width="14.4504" height="2.8196" transform="matrix(3.92662e-08 1 1 -4.86598e-08 965.68 228.715)" stroke="black" stroke-width="0.704899"/>
<rect x="0.35245" y="-0.35245" width="14.098" height="3.17204" transform="matrix(1 -9.32077e-08 -8.22329e-08 -1 309.77 753.158)" stroke="black" stroke-width="0.704899"/>
<rect x="310.122" y="947.005" width="14.098" height="3.5245" stroke="black" stroke-width="0.704899"/>
<rect x="0.35245" y="-0.35245" width="14.098" height="3.5245" transform="matrix(1 -9.40193e-08 -8.223e-08 -1 309.77 1322.37)" stroke="black" stroke-width="0.704899"/>
<rect x="1288.17" y="225.892" width="11.9833" height="4.22939" transform="rotate(90 1288.17 225.892)" stroke="black" stroke-width="0.704899"/>
<rect x="780.995" y="225.892" width="11.9833" height="4.22939" transform="rotate(90 780.995 225.892)" stroke="black" stroke-width="0.704899"/>
<rect x="0.35245" y="0.35245" width="11.9833" height="3.52449" transform="matrix(3.92662e-08 1 1 -4.86598e-08 968.5 225.539)" stroke="black" stroke-width="0.704899"/>
<rect x="0.35245" y="-0.35245" width="11.6308" height="4.22939" transform="matrix(1 -9.32077e-08 -8.22329e-08 -1 306.602 750.338)" stroke="black" stroke-width="0.704899"/>
<rect x="306.954" y="950.181" width="11.6308" height="4.58184" stroke="black" stroke-width="0.704899"/>
<rect x="0.35245" y="-0.35245" width="11.6308" height="4.58184" transform="matrix(1 -9.4037e-08 -8.22437e-08 -1 306.602 1319.19)" stroke="black" stroke-width="0.704899"/>
<rect x="1220.85" y="225.892" width="11.9833" height="4.58184" transform="rotate(90 1220.85 225.892)" stroke="black" stroke-width="0.704899"/>
<rect x="711.562" y="225.892" width="11.9833" height="4.93429" transform="rotate(90 711.562 225.892)" stroke="black" stroke-width="0.704899"/>
<rect x="0.35245" y="0.35245" width="11.9833" height="4.22939" transform="matrix(3.92662e-08 1 1 -4.86598e-08 1028.77 225.539)" stroke="black" stroke-width="0.704899"/>
<rect x="0.35245" y="-0.35245" width="11.6308" height="4.58184" transform="matrix(1 -9.29204e-08 -8.24871e-08 -1 306.602 682.315)" stroke="black" stroke-width="0.704899"/>
<rect x="306.954" y="1023.13" width="11.6308" height="4.93429" stroke="black" stroke-width="0.704899"/>
<rect x="0.35245" y="-0.35245" width="11.6308" height="4.93429" transform="matrix(1 -9.3727e-08 -8.24792e-08 -1 306.602 1245.88)" stroke="black" stroke-width="0.704899"/>
<rect x="1216.27" y="225.892" width="17.6225" height="3.52449" transform="rotate(90 1216.27 225.892)" stroke="black" stroke-width="0.704899"/>
<rect x="706.628" y="225.892" width="17.6225" height="3.52449" transform="rotate(90 706.628 225.892)" stroke="black" stroke-width="0.704899"/>
<rect x="0.35245" y="0.35245" width="17.6225" height="3.17205" transform="matrix(3.93335e-08 1 1 -4.85765e-08 1033 225.539)" stroke="black" stroke-width="0.704899"/>
<rect x="0.35245" y="-0.35245" width="17.27" height="3.52449" transform="matrix(1 -9.34255e-08 -8.20337e-08 -1 306.602 677.733)" stroke="black" stroke-width="0.704899"/>
<rect x="306.954" y="1028.07" width="17.27" height="3.87694" stroke="black" stroke-width="0.704899"/>
<rect x="0.35245" y="-0.35245" width="17.27" height="3.87694" transform="matrix(1 -9.42721e-08 -8.2059e-08 -1 306.602 1240.95)" stroke="black" stroke-width="0.704899"/>
<rect x="1212.75" y="225.892" width="11.9833" height="3.52449" transform="rotate(90 1212.75 225.892)" stroke="black" stroke-width="0.704899"/>
<rect x="703.105" y="225.892" width="11.9833" height="3.52449" transform="rotate(90 703.105 225.892)" stroke="black" stroke-width="0.704899"/>
<rect x="0.35245" y="0.35245" width="11.9833" height="3.17205" transform="matrix(3.93335e-08 1 1 -4.85765e-08 1036.17 225.539)" stroke="black" stroke-width="0.704899"/>
<rect x="0.35245" y="-0.35245" width="11.6308" height="3.87694" transform="matrix(1 -9.34255e-08 -8.20337e-08 -1 306.602 674.209)" stroke="black" stroke-width="0.704899"/>
<rect x="306.954" y="1031.95" width="11.6308" height="4.22939" stroke="black" stroke-width="0.704899"/>
<rect x="0.35245" y="-0.35245" width="11.6308" height="4.22939" transform="matrix(1 -9.42721e-08 -8.2059e-08 -1 306.602 1237.07)" stroke="black" stroke-width="0.704899"/>
<rect x="1142.96" y="225.892" width="17.6225" height="3.87694" transform="rotate(90 1142.96 225.892)" stroke="black" stroke-width="0.704899"/>
<rect x="630.851" y="225.892" width="17.6225" height="3.87694" transform="rotate(90 630.851 225.892)" stroke="black" stroke-width="0.704899"/>
<rect x="0.35245" y="0.35245" width="17.6225" height="3.52449" transform="matrix(3.87947e-08 1 1 -4.92512e-08 1098.9 225.539)" stroke="black" stroke-width="0.704899"/>
<rect x="0.35245" y="-0.35245" width="17.27" height="3.87694" transform="matrix(1 -8.61793e-08 -8.90002e-08 -1 306.602 603.369)" stroke="black" stroke-width="0.704899"/>
<rect x="306.954" y="1108.08" width="17.27" height="4.22939" stroke="black" stroke-width="0.704899"/>
<rect x="0.35245" y="-0.35245" width="17.27" height="4.22939" transform="matrix(1 -8.60866e-08 -8.88908e-08 -1 306.602 1160.59)" stroke="black" stroke-width="0.704899"/>
<rect x="1146.49" y="225.892" width="11.9833" height="3.52449" transform="rotate(90 1146.49 225.892)" stroke="black" stroke-width="0.704899"/>
<rect x="634.73" y="225.892" width="11.9833" height="3.87694" transform="rotate(90 634.73 225.892)" stroke="black" stroke-width="0.704899"/>
<rect x="0.35245" y="0.35245" width="11.9833" height="2.8196" transform="matrix(3.87947e-08 1 1 -4.92512e-08 1096.09 225.539)" stroke="black" stroke-width="0.704899"/>
<rect x="0.35245" y="-0.35245" width="11.6308" height="3.17204" transform="matrix(1 -8.90049e-08 -8.61748e-08 -1 306.602 606.537)" stroke="black" stroke-width="0.704899"/>
<rect x="306.954" y="1104.55" width="11.6308" height="3.5245" stroke="black" stroke-width="0.704899"/>
<rect x="0.35245" y="-0.35245" width="11.6308" height="3.5245" transform="matrix(1 -8.91228e-08 -8.62615e-08 -1 306.602 1164.12)" stroke="black" stroke-width="0.704899"/>
<rect x="1209.22" y="225.892" width="6.69654" height="62.736" transform="rotate(90 1209.22 225.892)" stroke="black" stroke-width="0.704899"/>
<rect x="699.581" y="225.892" width="6.69654" height="64.8507" transform="rotate(90 699.581 225.892)" stroke="black" stroke-width="0.704899"/>
<rect x="0.35245" y="0.35245" width="6.69654" height="56.7444" transform="matrix(3.91315e-08 1 1 -4.88273e-08 1039.34 225.539)" stroke="black" stroke-width="0.704899"/>
<rect x="0.35245" y="-0.35245" width="6.69655" height="63.7934" transform="matrix(1 -9.24867e-08 -8.28894e-08 -1 306.602 670.334)" stroke="black" stroke-width="0.704899"/>
<rect x="306.954" y="1036.17" width="6.69654" height="68.7277" stroke="black" stroke-width="0.704899"/>
<rect x="0.35245" y="-0.35245" width="6.69655" height="69.0801" transform="matrix(1 -9.3259e-08 -8.2852e-08 -1 306.602 1232.84)" stroke="black" stroke-width="0.704899"/>
<rect x="1209.22" y="232.587" width="5.28675" height="56.0395" transform="rotate(90 1209.22 232.587)" stroke="black" stroke-width="0.704899"/>
<rect x="699.581" y="232.587" width="5.28675" height="58.1542" transform="rotate(90 699.581 232.587)" stroke="black" stroke-width="0.704899"/>
<rect x="0.35245" y="0.35245" width="5.28675" height="50.4003" transform="matrix(3.91315e-08 1 1 -4.88273e-08 1039.34 232.234)" stroke="black" stroke-width="0.704899"/>
<rect x="0.35245" y="-0.35245" width="4.9343" height="56.7444" transform="matrix(1 -9.24867e-08 -8.28894e-08 -1 313.297 670.334)" stroke="black" stroke-width="0.704899"/>
<rect x="313.649" y="1036.17" width="4.93429" height="60.9738" stroke="black" stroke-width="0.704899"/>
<rect x="0.35245" y="-0.35245" width="4.9343" height="61.3262" transform="matrix(1 -9.3259e-08 -8.2852e-08 -1 313.297 1232.84)" stroke="black" stroke-width="0.704899"/>
<rect x="1212.75" y="237.876" width="5.6392" height="69.785" transform="rotate(90 1212.75 237.876)" stroke="black" stroke-width="0.704899"/>
<rect x="703.105" y="237.876" width="5.6392" height="72.2521" transform="rotate(90 703.105 237.876)" stroke="black" stroke-width="0.704899"/>
<rect x="0.35245" y="0.35245" width="5.6392" height="62.736" transform="matrix(3.93335e-08 1 1 -4.85765e-08 1036.17 237.523)" stroke="black" stroke-width="0.704899"/>
<rect x="0.35245" y="-0.35245" width="5.6392" height="70.8423" transform="matrix(1 -9.52574e-08 -8.04561e-08 -1 318.23 674.209)" stroke="black" stroke-width="0.704899"/>
<rect x="318.583" y="1031.95" width="5.63919" height="76.1291" stroke="black" stroke-width="0.704899"/>
<rect x="0.35245" y="-0.35245" width="5.6392" height="76.4815" transform="matrix(1 -9.6249e-08 -8.05972e-08 -1 318.23 1237.07)" stroke="black" stroke-width="0.704899"/>
<rect x="1283.94" y="230.827" width="63.0885" height="4.93429" transform="rotate(-180 1283.94 230.827)" stroke="black" stroke-width="0.704899"/>
<rect x="776.765" y="230.827" width="65.2032" height="4.93429" transform="rotate(-180 776.765 230.827)" stroke="black" stroke-width="0.704899"/>
<rect x="0.35245" y="-0.35245" width="56.7444" height="4.93429" transform="matrix(1 -9.7153e-08 -7.8667e-08 -1 972.02 230.475)" stroke="black" stroke-width="0.704899"/>
<rect x="-0.35245" y="-0.352449" width="63.7934" height="4.93429" transform="matrix(-1.25213e-07 -1 -1 1.37676e-07 311.533 746.112)" stroke="black" stroke-width="0.704899"/>
<rect x="311.886" y="954.759" width="68.3752" height="4.93429" transform="rotate(90 311.886 954.759)" stroke="black" stroke-width="0.704899"/>
<rect x="-0.35245" y="-0.352449" width="68.7277" height="4.93429" transform="matrix(-1.22071e-07 -1 -1 1.42025e-07 311.533 1314.61)" stroke="black" stroke-width="0.704899"/>
<rect x="1283.94" y="237.878" width="63.0885" height="7.04899" transform="rotate(-180 1283.94 237.878)" stroke="black" stroke-width="0.704899"/>
<rect x="776.765" y="237.878" width="65.2032" height="7.04899" transform="rotate(-180 776.765 237.878)" stroke="black" stroke-width="0.704899"/>
<rect x="0.35245" y="-0.35245" width="56.7444" height="7.04899" transform="matrix(1 -9.7153e-08 -7.8667e-08 -1 972.02 237.526)" stroke="black" stroke-width="0.704899"/>
<rect x="-0.35245" y="-0.352449" width="63.7934" height="6.69653" transform="matrix(-1.22805e-07 -1 -1 1.40375e-07 318.229 746.112)" stroke="black" stroke-width="0.704899"/>
<rect x="318.581" y="954.759" width="68.3752" height="6.69654" transform="rotate(90 318.581 954.759)" stroke="black" stroke-width="0.704899"/>
<rect x="-0.35245" y="-0.352449" width="68.7277" height="6.69653" transform="matrix(-1.1984e-07 -1 -1 1.44938e-07 318.229 1314.61)" stroke="black" stroke-width="0.704899"/>
<rect x="1288.17" y="243.519" width="71.8997" height="5.63919" transform="rotate(-180 1288.17 243.519)" stroke="black" stroke-width="0.704899"/>
<rect x="780.995" y="243.519" width="74.3668" height="5.63919" transform="rotate(-180 780.995 243.519)" stroke="black" stroke-width="0.704899"/>
<rect x="0.35245" y="-0.35245" width="64.4983" height="5.63919" transform="matrix(1 -9.73197e-08 -7.85323e-08 -1 968.5 243.166)" stroke="black" stroke-width="0.704899"/>
<rect x="-0.35245" y="-0.352449" width="72.6046" height="5.63918" transform="matrix(-1.23138e-07 -1 -1 1.40007e-07 323.869 750.338)" stroke="black" stroke-width="0.704899"/>
<rect x="324.222" y="950.181" width="77.8913" height="5.63919" transform="rotate(90 324.222 950.181)" stroke="black" stroke-width="0.704899"/>
<rect x="-0.35245" y="-0.352449" width="78.2438" height="5.63918" transform="matrix(-1.20148e-07 -1 -1 1.44541e-07 323.869 1319.19)" stroke="black" stroke-width="0.704899"/>
<rect x="1360.78" y="243.519" width="69.785" height="14.4504" transform="rotate(-180 1360.78 243.519)" stroke="black" stroke-width="0.704899"/>
<rect x="856.069" y="243.519" width="71.8997" height="14.4504" transform="rotate(-180 856.069 243.519)" stroke="black" stroke-width="0.704899"/>
<rect x="0.35245" y="-0.35245" width="62.736" height="14.4504" transform="matrix(1 -9.7153e-08 -7.8667e-08 -1 902.941 243.166)" stroke="black" stroke-width="0.704899"/>
<rect x="-0.35245" y="-0.352449" width="70.8423" height="14.098" transform="matrix(-1.22805e-07 -1 -1 1.40375e-07 323.869 824.002)" stroke="black" stroke-width="0.704899"/>
<rect x="324.222" y="870.876" width="76.1291" height="14.098" transform="rotate(90 324.222 870.876)" stroke="black" stroke-width="0.704899"/>
<rect x="-0.35245" y="-0.352449" width="76.4815" height="14.098" transform="matrix(-1.21244e-07 -1 -1 1.42591e-07 323.869 1398.85)" stroke="black" stroke-width="0.704899"/>
<path d="M626.797 243.514C549.434 240.871 324.219 302.197 324.219 557.547" stroke="black" stroke-width="0.704899"/>
<path d="M544.68 240.875L548.733 255.325" stroke="black" stroke-width="0.704899"/>
<path d="M541.156 241.754L545.209 256.204M468.199 271.007L477.01 284.753M465.203 273.122L473.838 286.339" stroke="black" stroke-width="0.704899"/>
<path d="M321.931 459.918L336.029 463.619M321.227 463.619L334.972 467.143" stroke="black" stroke-width="0.704899"/>
<rect x="1053.44" y="539.927" width="2.8196" height="10.5735" stroke="black" stroke-width="0.704899"/>
<rect x="958.981" y="841.974" width="2.8196" height="28.9009" stroke="black" stroke-width="0.704899"/>
<rect x="-0.35245" y="0.35245" width="2.8196" height="10.5735" transform="matrix(-1 0 0 1 1214.15 539.574)" stroke="black" stroke-width="0.704899"/>
<rect x="1246.23" y="638.61" width="2.46715" height="10.5735" transform="rotate(90 1246.23 638.61)" stroke="black" stroke-width="0.704899"/>
<rect x="1153.54" y="705.577" width="2.46715" height="10.5735" transform="rotate(-90 1153.54 705.577)" stroke="black" stroke-width="0.704899"/>
<rect x="0.35245" y="0.35245" width="2.46715" height="10.5735" transform="matrix(-4.54955e-08 1 1 4.19972e-08 771.125 762.324)" stroke="black" stroke-width="0.704899"/>
<rect x="-0.35245" y="0.35245" width="2.46715" height="10.5735" transform="matrix(-1 -8.92069e-08 -8.57086e-08 1 718.612 1036.53)" stroke="black" stroke-width="0.704899"/>
<rect x="0.35245" y="0.35245" width="2.8196" height="10.5735" transform="matrix(-4.54955e-08 1 1 4.19972e-08 753.148 1051.33)" stroke="black" stroke-width="0.704899"/>
<rect x="0.35245" y="0.35245" width="3.87694" height="10.5735" transform="matrix(-4.54955e-08 1 1 4.19972e-08 859.941 1047.45)" stroke="black" stroke-width="0.704899"/>
<rect x="0.35245" y="0.35245" width="3.87694" height="10.5735" transform="matrix(-4.54955e-08 1 1 4.19972e-08 859.941 906.473)" stroke="black" stroke-width="0.704899"/>
<rect x="0.35245" y="-0.35245" width="2.8196" height="10.5735" transform="matrix(1 1.78414e-09 -1.71418e-09 -1 784.875 1136.97)" stroke="black" stroke-width="0.704899"/>
<rect x="-0.35245" y="-0.35245" width="2.46715" height="10.5735" transform="matrix(-4.65601e-08 -1 -1 4.09056e-08 758.084 1345.27)" stroke="black" stroke-width="0.704899"/>
<rect x="-0.35245" y="-0.35245" width="4.22939" height="10.5735" transform="matrix(5.07663e-08 -1 -1 -3.76368e-08 1163.76 777.83)" stroke="black" stroke-width="0.704899"/>
<rect x="1121.81" y="539.927" width="2.8196" height="10.5735" stroke="black" stroke-width="0.704899"/>
<rect x="1036.52" y="841.974" width="2.8196" height="28.9009" stroke="black" stroke-width="0.704899"/>
<rect x="-0.35245" y="0.35245" width="2.8196" height="10.5735" transform="matrix(-1 0 0 1 1145.78 539.574)" stroke="black" stroke-width="0.704899"/>
<rect x="1246.23" y="699.938" width="2.46715" height="10.5735" transform="rotate(90 1246.23 699.938)" stroke="black" stroke-width="0.704899"/>
<rect x="1153.54" y="644.249" width="2.46715" height="10.5735" transform="rotate(-90 1153.54 644.249)" stroke="black" stroke-width="0.704899"/>
<rect x="0.35245" y="0.35245" width="2.46715" height="10.5735" transform="matrix(-4.92298e-08 1 1 3.88116e-08 771.125 823.648)" stroke="black" stroke-width="0.704899"/>
<rect x="-0.35245" y="0.35245" width="2.46715" height="10.5735" transform="matrix(-1 -9.29412e-08 -8.2523e-08 1 657.287 1036.53)" stroke="black" stroke-width="0.704899"/>
<rect x="0.35245" y="0.35245" width="2.8196" height="10.5735" transform="matrix(-4.48212e-08 1 1 4.26291e-08 753.148 1118.65)" stroke="black" stroke-width="0.704899"/>
<rect x="0.35245" y="0.35245" width="4.93429" height="10.5735" transform="matrix(-5.49332e-08 1 1 3.47819e-08 859.941 1099.62)" stroke="black" stroke-width="0.704899"/>
<rect x="0.35245" y="0.35245" width="4.93429" height="10.5735" transform="matrix(-5.49332e-08 1 1 3.47819e-08 859.941 958.637)" stroke="black" stroke-width="0.704899"/>
<rect x="0.35245" y="-0.35245" width="2.8196" height="10.5735" transform="matrix(1 1.10977e-09 -1.08229e-09 -1 852.191 1136.97)" stroke="black" stroke-width="0.704899"/>
<rect x="-0.35245" y="-0.35245" width="2.46715" height="10.5735" transform="matrix(-4.5068e-08 -1 -1 4.23423e-08 758.084 1284.65)" stroke="black" stroke-width="0.704899"/>
<rect x="-0.35245" y="-0.35245" width="2.1147" height="10.5735" transform="matrix(5.23782e-08 -1 -1 -3.64786e-08 1163.76 722.846)" stroke="black" stroke-width="0.704899"/>
<rect x="1056.26" y="539.927" width="65.5556" height="10.5735" stroke="black" stroke-width="0.704899"/>
<rect x="961.802" y="841.974" width="74.7193" height="28.9009" stroke="black" stroke-width="0.704899"/>
<rect x="-0.35245" y="0.35245" width="65.5556" height="10.5735" transform="matrix(-1 0 0 1 1211.34 539.574)" stroke="black" stroke-width="0.704899"/>
<rect x="1246.23" y="641.079" width="58.8591" height="10.5735" transform="rotate(90 1246.23 641.079)" stroke="black" stroke-width="0.704899"/>
<rect x="1153.54" y="703.108" width="58.8591" height="10.5735" transform="rotate(-90 1153.54 703.108)" stroke="black" stroke-width="0.704899"/>
<rect x="0.35245" y="0.35245" width="58.8591" height="10.5735" transform="matrix(-4.89952e-08 1 1 3.89974e-08 771.125 764.789)" stroke="black" stroke-width="0.704899"/>
<rect x="-0.35245" y="0.35245" width="58.8591" height="10.5735" transform="matrix(-1 -9.27066e-08 -8.27088e-08 1 716.143 1036.53)" stroke="black" stroke-width="0.704899"/>
<rect x="0.35245" y="0.35245" width="64.4983" height="10.5735" transform="matrix(-4.55133e-08 1 1 4.19808e-08 753.148 1054.15)" stroke="black" stroke-width="0.704899"/>
<rect x="0.35245" y="0.35245" width="48.2856" height="10.5735" transform="matrix(-5.57815e-08 1 1 3.4253e-08 859.941 1051.33)" stroke="black" stroke-width="0.704899"/>
<rect x="0.35245" y="0.35245" width="48.2856" height="10.5735" transform="matrix(-5.57815e-08 1 1 3.4253e-08 859.941 910.352)" stroke="black" stroke-width="0.704899"/>
<rect x="0.35245" y="-0.35245" width="64.4983" height="10.5735" transform="matrix(1 1.8019e-09 -1.73057e-09 -1 787.691 1136.97)" stroke="black" stroke-width="0.704899"/>
<rect x="-0.35245" y="-0.35245" width="58.1542" height="10.5735" transform="matrix(-4.65404e-08 -1 -1 4.09204e-08 758.084 1342.81)" stroke="black" stroke-width="0.704899"/>
<rect x="-0.35245" y="-0.35245" width="50.7527" height="10.5735" transform="matrix(5.46715e-08 -1 -1 -3.49485e-08 1163.76 773.6)" stroke="black" stroke-width="0.704899"/>
<path d="M1121.99 539.751V475.605C1120.71 475.657 1119.35 475.753 1117.94 475.899M1056.26 539.751C1056.26 493.425 1095.11 478.25 1117.94 475.899M1117.94 475.899V539.751" stroke="black" stroke-width="0.704899"/>
<path d="M1036.52 841.624V769.02C1035.06 769.078 1033.52 769.187 1031.91 769.352M961.801 841.624C961.801 789.189 1005.96 772.013 1031.91 769.352M1031.91 769.352V841.624" stroke="black" stroke-width="0.704899"/>
<path d="M1145.78 539.923V475.777C1147.06 475.829 1148.42 475.925 1149.84 476.071M1211.69 539.923C1211.69 493.597 1172.73 478.422 1149.84 476.071M1149.84 476.071V539.923" stroke="black" stroke-width="0.704899"/>
<path d="M1246.23 700.29L1303.68 700.29C1303.63 699.136 1303.55 697.915 1303.42 696.639M1246.23 641.078C1287.72 641.078 1301.31 676.073 1303.42 696.639M1303.42 696.639L1246.23 696.639" stroke="black" stroke-width="0.704899"/>
<path d="M1153.54 643.898L1096.09 643.898C1096.13 645.051 1096.22 646.272 1096.35 647.549M1153.54 703.109C1112.05 703.109 1098.45 668.114 1096.35 647.549M1096.35 647.549L1153.54 647.549" stroke="black" stroke-width="0.704899"/>
<path d="M771.481 824.352L714.031 824.352C714.077 823.199 714.164 821.978 714.295 820.701M771.481 765.141C729.99 765.141 716.4 800.136 714.295 820.701M714.295 820.701L771.481 820.701" stroke="black" stroke-width="0.704899"/>
<path d="M657.285 1036.88L657.285 979.43C658.438 979.476 659.659 979.562 660.936 979.693M716.496 1036.88C716.496 995.389 681.501 981.799 660.936 979.693M660.936 979.693L660.936 1036.88" stroke="black" stroke-width="0.704899"/>
<path d="M753.501 1119.35L687.945 1119.35C687.998 1118.09 688.097 1116.75 688.246 1115.35M753.501 1054.5C706.156 1054.5 690.648 1092.83 688.246 1115.35M688.246 1115.35L753.501 1115.35" stroke="black" stroke-width="0.704899"/>
<path d="M852.894 1137.33L852.894 1202.88C851.63 1202.83 850.293 1202.73 848.895 1202.58M788.043 1137.33C788.043 1184.67 826.371 1200.18 848.895 1202.58M848.895 1202.58L848.895 1137.33" stroke="black" stroke-width="0.704899"/>
<path d="M758.44 1284.65L816.242 1284.65C816.196 1285.79 816.109 1287 815.977 1288.26M758.44 1343.16C800.185 1343.16 813.859 1308.58 815.977 1288.26M815.977 1288.26L758.44 1288.26" stroke="black" stroke-width="0.704899"/>
<path d="M1164.11 722.848L1215.21 722.848C1215.17 723.844 1215.09 724.897 1214.98 725.999M1164.11 773.953C1201.01 773.953 1213.1 743.749 1214.98 725.999M1214.98 725.999L1164.11 725.999" stroke="black" stroke-width="0.704899"/>
<path d="M860.294 1051.68H834.918C835.447 1059.79 841.262 1076 860.294 1076" stroke="black" stroke-width="0.704899"/>
<path d="M860.294 910.703H834.918C835.447 918.809 841.262 935.022 860.294 935.022" stroke="black" stroke-width="0.704899"/>
<path d="M859.943 1099.97H834.566C835.095 1091.98 840.91 1076 859.943 1076" stroke="black" stroke-width="0.704899"/>
<path d="M859.943 958.988H834.566C835.095 950.999 840.91 935.022 859.943 935.022" stroke="black" stroke-width="0.704899"/>
<path d="M970.262 899.423L999.691 871.227L1028.59 899.423H970.262Z" fill="black"/>
<path d="M618.516 1374.53H750.86" stroke="black" stroke-width="0.704899"/>
<path d="M747.504 1398.06L619.565 1398.06" stroke="black" stroke-width="0.704899"/>
<path d="M623.907 1381.58L630.539 1397.94L623.907 1413.47" stroke="black" stroke-width="0.704899"/>
<path d="M634.759 1381.58L641.391 1397.94L634.759 1413.47" stroke="black" stroke-width="0.704899"/>
<path d="M645.614 1381.58L652.246 1397.94L645.614 1413.47" stroke="black" stroke-width="0.704899"/>
<path d="M656.466 1381.58L663.098 1397.94L656.466 1413.47" stroke="black" stroke-width="0.704899"/>
<path d="M667.317 1381.58L673.949 1397.94L667.317 1413.47" stroke="black" stroke-width="0.704899"/>
<path d="M678.173 1381.58L684.805 1397.94L678.173 1413.47" stroke="black" stroke-width="0.704899"/>
<path d="M689.024 1381.58L695.656 1397.94L689.024 1413.47" stroke="black" stroke-width="0.704899"/>
<path d="M699.876 1381.58L706.508 1397.94L699.876 1413.47" stroke="black" stroke-width="0.704899"/>
<path d="M710.731 1381.58L717.363 1397.94L710.731 1413.47" stroke="black" stroke-width="0.704899"/>
<path d="M721.583 1381.58L728.215 1397.94L721.583 1413.47" stroke="black" stroke-width="0.704899"/>
<path d="M732.434 1381.58L739.066 1397.94L732.434 1413.47" stroke="black" stroke-width="0.704899"/>
<path d="M619.574 1250.03L747.513 1250.03" stroke="black" stroke-width="0.704899"/>
<path d="M743.171 1233.55L736.539 1249.91L743.171 1265.44" stroke="black" stroke-width="0.704899"/>
<path d="M732.32 1233.55L725.688 1249.91L732.32 1265.44" stroke="black" stroke-width="0.704899"/>
<path d="M721.464 1233.55L714.832 1249.91L721.464 1265.44" stroke="black" stroke-width="0.704899"/>
<path d="M710.613 1233.55L703.98 1249.91L710.613 1265.44" stroke="black" stroke-width="0.704899"/>
<path d="M699.761 1233.55L693.129 1249.91L699.761 1265.44" stroke="black" stroke-width="0.704899"/>
<path d="M688.906 1233.55L682.273 1249.91L688.906 1265.44" stroke="black" stroke-width="0.704899"/>
<path d="M678.054 1233.55L671.422 1249.91L678.054 1265.44" stroke="black" stroke-width="0.704899"/>
<path d="M667.202 1233.55L660.57 1249.91L667.202 1265.44" stroke="black" stroke-width="0.704899"/>
<path d="M656.347 1233.55L649.715 1249.91L656.347 1265.44" stroke="black" stroke-width="0.704899"/>
<path d="M645.495 1233.55L638.863 1249.91L645.495 1265.44" stroke="black" stroke-width="0.704899"/>
<path d="M634.644 1233.55L628.012 1249.91L634.644 1265.44" stroke="black" stroke-width="0.704899"/>
<path d="M569.523 1037.59L569.445 863.836" stroke="black" stroke-width="0.704899"/>
<path d="M552.953 868.173L569.32 874.805L584.85 868.173" stroke="black" stroke-width="0.704899"/>
<path d="M552.953 879.024L569.32 885.656L584.85 879.024" stroke="black" stroke-width="0.704899"/>
<path d="M552.953 889.88L569.32 896.512L584.85 889.88" stroke="black" stroke-width="0.704899"/>
<path d="M552.953 900.727L569.32 907.359L584.85 900.727" stroke="black" stroke-width="0.704899"/>
<path d="M552.953 911.587L569.32 918.219L584.85 911.587" stroke="black" stroke-width="0.704899"/>
<path d="M552.953 922.438L569.32 929.07L584.85 922.438" stroke="black" stroke-width="0.704899"/>
<path d="M552.953 933.29L569.32 939.922L584.85 933.29" stroke="black" stroke-width="0.704899"/>
<path d="M552.953 944.141L569.32 950.773L584.85 944.141" stroke="black" stroke-width="0.704899"/>
<path d="M552.953 954.993L569.32 961.625L584.85 954.993" stroke="black" stroke-width="0.704899"/>
<path d="M552.953 965.844L569.32 972.477L584.85 965.844" stroke="black" stroke-width="0.704899"/>
<path d="M552.953 976.7L569.32 983.332L584.85 976.7" stroke="black" stroke-width="0.704899"/>
<path d="M552.953 986.837L569.32 993.469L584.85 986.837" stroke="black" stroke-width="0.704899"/>
<path d="M552.953 997.762L569.32 1004.39L584.85 997.762" stroke="black" stroke-width="0.704899"/>
<path d="M552.953 1007.99L569.32 1014.62L584.85 1007.99" stroke="black" stroke-width="0.704899"/>
<path d="M552.953 1018.91L569.32 1025.54L584.85 1018.91" stroke="black" stroke-width="0.704899"/>
<path d="M545.555 1039.53V862.07" stroke="black" stroke-width="0.704899"/>
<path d="M899.215 517.727L1039.15 517.648" stroke="black" stroke-width="0.704899"/>
<path d="M1035.65 501.156L1030.31 517.523L1035.65 533.053" stroke="black" stroke-width="0.704899"/>
<path d="M1026.92 501.156L1021.57 517.523L1026.92 533.053" stroke="black" stroke-width="0.704899"/>
<path d="M1018.17 501.156L1012.83 517.523L1018.17 533.053" stroke="black" stroke-width="0.704899"/>
<path d="M1009.43 501.156L1004.09 517.523L1009.43 533.053" stroke="black" stroke-width="0.704899"/>
<path d="M1000.7 501.156L995.355 517.523L1000.7 533.053" stroke="black" stroke-width="0.704899"/>
<path d="M991.955 501.156L986.613 517.523L991.955 533.053" stroke="black" stroke-width="0.704899"/>
<path d="M983.212 501.156L977.871 517.523L983.212 533.053" stroke="black" stroke-width="0.704899"/>
<path d="M974.47 501.156L969.129 517.523L974.47 533.053" stroke="black" stroke-width="0.704899"/>
<path d="M965.736 501.156L960.395 517.523L965.736 533.053" stroke="black" stroke-width="0.704899"/>
<path d="M956.994 501.156L951.652 517.523L956.994 533.053" stroke="black" stroke-width="0.704899"/>
<path d="M948.251 501.156L942.91 517.523L948.251 533.053" stroke="black" stroke-width="0.704899"/>
<path d="M940.087 501.156L934.746 517.523L940.087 533.053" stroke="black" stroke-width="0.704899"/>
<path d="M931.287 501.156L925.945 517.523L931.287 533.053" stroke="black" stroke-width="0.704899"/>
<path d="M923.056 501.156L917.715 517.523L923.056 533.053" stroke="black" stroke-width="0.704899"/>
<path d="M914.255 501.156L908.914 517.523L914.255 533.053" stroke="black" stroke-width="0.704899"/>
<path d="M897.652 493.758L1040.57 493.758" stroke="black" stroke-width="0.704899"/>
<path d="M1228.41 517.727L1369.21 517.648" stroke="black" stroke-width="0.704899"/>
<path d="M1365.7 501.156L1360.32 517.523L1365.7 533.053" stroke="black" stroke-width="0.704899"/>
<path d="M1356.91 501.156L1351.53 517.523L1356.91 533.053" stroke="black" stroke-width="0.704899"/>
<path d="M1348.11 501.156L1342.74 517.523L1348.11 533.053" stroke="black" stroke-width="0.704899"/>
<path d="M1339.32 501.156L1333.94 517.523L1339.32 533.053" stroke="black" stroke-width="0.704899"/>
<path d="M1330.52 501.156L1325.15 517.523L1330.52 533.053" stroke="black" stroke-width="0.704899"/>
<path d="M1321.73 501.156L1316.36 517.523L1321.73 533.053" stroke="black" stroke-width="0.704899"/>
<path d="M1312.94 501.156L1307.56 517.523L1312.94 533.053" stroke="black" stroke-width="0.704899"/>
<path d="M1304.14 501.156L1298.77 517.523L1304.14 533.053" stroke="black" stroke-width="0.704899"/>
<path d="M1295.35 501.156L1289.97 517.523L1295.35 533.053" stroke="black" stroke-width="0.704899"/>
<path d="M1286.55 501.156L1281.18 517.523L1286.55 533.053" stroke="black" stroke-width="0.704899"/>
<path d="M1277.76 501.156L1272.39 517.523L1277.76 533.053" stroke="black" stroke-width="0.704899"/>
<path d="M1269.54 501.156L1264.17 517.523L1269.54 533.053" stroke="black" stroke-width="0.704899"/>
<path d="M1260.69 501.156L1255.31 517.523L1260.69 533.053" stroke="black" stroke-width="0.704899"/>
<path d="M1252.41 501.156L1247.03 517.523L1252.41 533.053" stroke="black" stroke-width="0.704899"/>
<path d="M1243.55 501.156L1238.18 517.523L1243.55 533.053" stroke="black" stroke-width="0.704899"/>
<path d="M1226.85 493.758L1370.64 493.758" stroke="black" stroke-width="0.704899"/>
<path d="M618.867 1273.02H749.097" stroke="black" stroke-width="0.704899"/>
<path d="M886.906 1359.72L930.61 1421.75" stroke="black" stroke-width="0.704899"/>
<path d="M886.73 1422.11L930.61 1359.55" stroke="black" stroke-width="0.704899"/>
<rect x="894.485" y="1302.63" width="24.6715" height="37.3596" stroke="black" stroke-width="0.704899"/>
<rect x="894.485" y="1246.24" width="24.6715" height="37.3596" stroke="black" stroke-width="0.704899"/>
<circle cx="908.406" cy="1321.48" r="2.64337" stroke="black" stroke-width="0.704899"/>
<circle cx="908.406" cy="1265.09" r="2.64337" stroke="black" stroke-width="0.704899"/>
<rect x="913.517" y="1318.84" width="11.6308" height="5.28674" rx="1.76225" stroke="black" stroke-width="0.704899"/>
<rect x="913.517" y="1262.45" width="11.6308" height="5.28674" rx="1.76225" stroke="black" stroke-width="0.704899"/>
<path d="M757.379 1349.5H867.519" stroke="black" stroke-width="0.704899"/>
<path d="M757.73 1354.09H869.809" stroke="black" stroke-width="0.704899"/>
<path d="M853.07 1387.39H866.992" stroke="black" stroke-width="0.704899"/>
<circle cx="848.139" cy="1387.39" r="5.11052" stroke="black" stroke-width="0.704899"/>
<rect x="812.013" y="1237.42" width="25.7288" height="2.8196" stroke="black" stroke-width="0.704899"/>
<rect x="812.013" y="1240.24" width="25.7288" height="4.58184" stroke="black" stroke-width="0.704899"/>
<path d="M812.013 1244.82H837.741V1264.38C837.741 1271.49 831.982 1277.25 824.877 1277.25C817.772 1277.25 812.013 1271.49 812.013 1264.38V1244.82Z" stroke="black" stroke-width="0.704899"/>
<rect x="844.786" y="1238.48" width="10.221" height="5.99164" rx="1.76225" stroke="black" stroke-width="0.704899"/>
<rect x="876.864" y="1144.73" width="46.5233" height="64.1458" stroke="black" stroke-width="0.704899"/>
<path d="M561.242 1136.09V1140.32H379.378L353.649 1165.17L351.887 1163.58L379.378 1136.45" stroke="black" stroke-width="0.704899"/>
<path d="M533.049 1168.34V1145.78C533.049 1143.53 531.287 1142.96 530.406 1142.96H405.286C386.606 1142.96 375.504 1157.42 379.205 1175.92C382.905 1194.42 403.348 1202 420.794 1185.61C434.751 1172.5 450.458 1170.04 456.567 1170.46H530.406C532.238 1170.46 532.932 1169.05 533.049 1168.34Z" fill="#BFBFBF" stroke="black" stroke-width="0.704899"/>
<path d="M430.659 1178.21C430.071 1183.73 431.787 1194.92 443.347 1195.48C454.907 1196.04 458.032 1187.96 458.15 1183.85C458.679 1180.62 458.22 1173.49 452.158 1170.81" stroke="black" stroke-width="0.704899"/>
<rect x="357.704" y="1201.83" width="209.003" height="140.627" fill="#BFBFBF" stroke="black" stroke-width="0.704899"/>
<path d="M403.877 1250.12H520.538C524.236 1250.12 527.234 1253.12 527.234 1256.81V1392.51H397.181V1256.81C397.181 1253.12 400.179 1250.12 403.877 1250.12Z" fill="#BFBFBF" stroke="black" stroke-width="0.704899"/>
<path d="M382.022 1392.5H542.386C550.249 1392.5 556.645 1398.78 556.832 1406.6H367.575C367.763 1398.78 374.159 1392.5 382.022 1392.5Z" fill="#BFBFBF" stroke="black" stroke-width="0.704899"/>
<rect x="351.009" y="1354.09" width="41.589" height="31.7205" rx="2.46715" fill="#BFBFBF" stroke="black" stroke-width="0.704899"/>
<rect x="531.817" y="1354.09" width="41.589" height="31.7205" rx="2.46715" fill="#BFBFBF" stroke="black" stroke-width="0.704899"/>
<path d="M450.226 1365.36C443.413 1369.96 426.558 1379.09 413.219 1379.11M413.219 1379.11C413.101 1379.11 412.983 1379.11 412.866 1379.11C410.986 1379.11 406.874 1379 405.465 1378.58C405.053 1378.46 404.266 1377.91 404.407 1376.64C404.548 1375.37 404.466 1366.01 404.407 1361.49C404.349 1360.31 404.901 1357.93 407.579 1357.79C410.928 1357.61 430.665 1356.73 451.988 1357.08C452.928 1357.2 454.808 1358.14 454.808 1360.96C454.808 1363.78 454.808 1371.65 454.808 1375.23C454.69 1376.7 453.01 1379.64 447.23 1379.64C441.45 1379.64 422.147 1379.29 413.219 1379.11Z" stroke="black" stroke-width="0.704899"/>
<path d="M475.071 1365.63C481.884 1370.23 498.739 1379.35 512.078 1379.37M512.078 1379.37C512.196 1379.37 512.314 1379.37 512.431 1379.37C514.311 1379.37 518.422 1379.27 519.832 1378.84C520.243 1378.73 521.031 1378.17 520.89 1376.91C520.749 1375.64 520.831 1366.27 520.89 1361.75C520.948 1360.57 520.396 1358.19 517.718 1358.05C514.369 1357.87 494.632 1356.99 473.309 1357.34C472.369 1357.46 470.489 1358.4 470.489 1361.22C470.489 1364.04 470.489 1371.91 470.489 1375.5C470.607 1376.96 472.287 1379.9 478.067 1379.9C483.847 1379.9 503.15 1379.55 512.078 1379.37Z" stroke="black" stroke-width="0.704899"/>
<path d="M397.355 1331.18H527.586" stroke="black" stroke-width="0.704899"/>
<path d="M397.004 1350.21H527.586" stroke="black" stroke-width="0.704899"/>
<path d="M407.225 1380.7C411.924 1383.4 427.843 1388.8 453.924 1388.8C455.04 1388.86 457.273 1388.52 457.273 1386.69C457.273 1384.86 457.507 1371.95 457.625 1365.72C457.625 1364.6 457.026 1362.37 454.629 1362.37M404.405 1363.08C403.524 1362.96 401.762 1363.29 401.762 1365.54C401.762 1367.8 401.762 1380.58 401.762 1386.69C401.762 1387.51 402.22 1389.16 404.053 1389.16C405.885 1389.16 424.906 1389.16 434.187 1389.16" stroke="black" stroke-width="0.704899"/>
<path d="M518.072 1380.96C513.373 1383.66 497.454 1389.06 471.373 1389.06C470.257 1389.12 468.024 1388.78 468.024 1386.95C468.024 1385.12 467.789 1372.2 467.672 1365.98C467.672 1364.86 468.271 1362.63 470.668 1362.63M520.892 1363.33C521.773 1363.22 523.535 1363.55 523.535 1365.8C523.535 1368.06 523.535 1380.84 523.535 1386.95C523.535 1387.77 523.077 1389.42 521.244 1389.42C519.411 1389.42 500.391 1389.42 491.11 1389.42" stroke="black" stroke-width="0.704899"/>
<rect x="1064.72" y="281.227" width="174.11" height="112.784" transform="rotate(90 1064.72 281.227)" fill="#BFBFBF" stroke="black" stroke-width="0.704899"/>
<path d="M1048.86 312.596L1048.86 429.257C1048.86 432.955 1045.86 435.953 1042.16 435.953L906.469 435.953L906.469 305.899L1042.16 305.899C1045.86 305.899 1048.86 308.897 1048.86 312.596Z" fill="#BFBFBF" stroke="black" stroke-width="0.704899"/>
<path d="M933.604 358.944C929.004 352.132 919.879 335.276 919.857 321.937M919.857 321.937C919.856 321.82 919.857 321.702 919.858 321.585C919.858 319.705 919.964 315.593 920.387 314.183C920.504 313.772 921.057 312.985 922.325 313.126C923.594 313.267 932.958 313.185 937.481 313.126C938.656 313.067 941.04 313.619 941.181 316.298C941.358 319.646 942.239 339.384 941.886 360.707C941.769 361.647 940.829 363.526 938.01 363.526C935.19 363.526 927.319 363.526 923.735 363.526C922.267 363.409 919.33 361.729 919.33 355.949C919.33 350.169 919.681 330.866 919.857 321.937Z" stroke="black" stroke-width="0.704899"/>
<path d="M933.35 383.786C928.75 390.599 919.625 407.454 919.603 420.793M919.603 420.793C919.603 420.911 919.603 421.028 919.604 421.146C919.604 423.025 919.71 427.137 920.133 428.547C920.25 428.958 920.803 429.745 922.071 429.604C923.34 429.463 932.704 429.546 937.227 429.604C938.402 429.663 940.787 429.111 940.928 426.432C941.104 423.084 941.985 403.347 941.632 382.024C941.515 381.084 940.575 379.204 937.756 379.204C934.936 379.204 927.065 379.204 923.481 379.204C922.013 379.322 919.076 381.002 919.076 386.782C919.076 392.562 919.427 411.864 919.603 420.793Z" stroke="black" stroke-width="0.704899"/>
<path d="M967.793 306.074L967.793 436.304" stroke="black" stroke-width="0.704899"/>
<path d="M948.762 305.723L948.762 436.305" stroke="black" stroke-width="0.704899"/>
<path d="M918.274 315.943C915.572 320.643 910.168 336.562 910.168 362.643C910.109 363.759 910.45 365.991 912.283 365.991C914.115 365.991 927.027 366.226 933.253 366.344C934.369 366.344 936.602 365.745 936.602 363.348M935.897 313.124C936.014 312.243 935.685 310.48 933.43 310.48C931.174 310.48 918.392 310.48 912.283 310.48C911.46 310.48 909.815 310.939 909.815 312.771C909.815 314.604 909.815 333.625 909.815 342.906" stroke="black" stroke-width="0.704899"/>
<path d="M918.012 426.787C915.31 422.088 909.906 406.169 909.906 380.087C909.847 378.971 910.188 376.739 912.021 376.739C913.854 376.739 926.765 376.504 932.992 376.387C934.108 376.387 936.34 376.986 936.34 379.383M935.635 429.607C935.752 430.488 935.423 432.25 933.168 432.25C930.912 432.25 918.13 432.25 912.021 432.25C911.198 432.25 909.554 431.792 909.554 429.959C909.554 428.126 909.554 409.106 909.554 399.825" stroke="black" stroke-width="0.704899"/>
<rect x="899.77" y="268.892" width="35.245" height="36.4513" stroke="black" stroke-width="0.704899"/>
<circle cx="917.272" cy="287.12" r="14.3653" stroke="black" stroke-width="0.704899"/>
<circle cx="917.391" cy="287.239" r="3.62857" stroke="black" stroke-width="0.704899"/>
<path d="M917.635 268.777V305.572M899.539 287.114H935.127" stroke="black" stroke-width="0.704899"/>
<rect x="899.77" y="435.958" width="35.245" height="36.4513" stroke="black" stroke-width="0.704899"/>
<circle cx="917.272" cy="454.186" r="14.3653" stroke="black" stroke-width="0.704899"/>
<circle cx="917.391" cy="454.305" r="3.62857" stroke="black" stroke-width="0.704899"/>
<path d="M917.635 435.844V472.638M899.539 454.181H935.127" stroke="black" stroke-width="0.704899"/>
<rect x="1204.64" y="461.48" width="174.11" height="112.784" transform="rotate(-90 1204.64 461.48)" fill="#BFBFBF" stroke="black" stroke-width="0.704899"/>
<path d="M1220.5 430.111L1220.5 313.45C1220.5 309.752 1223.5 306.754 1227.2 306.754L1362.89 306.754L1362.89 436.808L1227.2 436.808C1223.5 436.808 1220.5 433.81 1220.5 430.111Z" fill="#BFBFBF" stroke="black" stroke-width="0.704899"/>
<path d="M1335.76 383.763C1340.36 390.575 1349.48 407.431 1349.5 420.77M1349.5 420.77C1349.5 420.887 1349.5 421.005 1349.5 421.122C1349.5 423.002 1349.4 427.114 1348.97 428.524C1348.85 428.935 1348.3 429.722 1347.03 429.581C1345.77 429.44 1336.4 429.522 1331.88 429.581C1330.7 429.64 1328.32 429.088 1328.18 426.409C1328 423.061 1327.12 403.323 1327.47 382C1327.59 381.06 1328.53 379.181 1331.35 379.181C1334.17 379.181 1342.04 379.181 1345.62 379.181C1347.09 379.298 1350.03 380.978 1350.03 386.758C1350.03 392.539 1349.68 411.841 1349.5 420.77Z" stroke="black" stroke-width="0.704899"/>
<path d="M1336.01 358.913C1340.61 352.101 1349.73 335.245 1349.76 321.906M1349.76 321.906C1349.76 321.788 1349.76 321.671 1349.76 321.554C1349.76 319.674 1349.65 315.562 1349.23 314.152C1349.11 313.741 1348.56 312.954 1347.29 313.095C1346.02 313.236 1336.66 313.154 1332.13 313.095C1330.96 313.036 1328.57 313.588 1328.43 316.267C1328.26 319.615 1327.37 339.352 1327.73 360.676C1327.84 361.615 1328.78 363.495 1331.6 363.495C1334.42 363.495 1342.29 363.495 1345.88 363.495C1347.35 363.378 1350.28 361.698 1350.28 355.917C1350.28 350.137 1349.93 330.835 1349.76 321.906Z" stroke="black" stroke-width="0.704899"/>
<path d="M1301.57 436.629L1301.57 306.399" stroke="black" stroke-width="0.704899"/>
<path d="M1320.6 436.98L1320.6 306.398" stroke="black" stroke-width="0.704899"/>
<path d="M1351.09 426.764C1353.79 422.064 1359.19 406.145 1359.19 380.064C1359.25 378.948 1358.91 376.716 1357.08 376.716C1355.24 376.716 1342.33 376.481 1336.11 376.363C1334.99 376.363 1332.76 376.962 1332.76 379.359M1333.46 429.583C1333.35 430.464 1333.67 432.227 1335.93 432.227C1338.19 432.227 1350.97 432.227 1357.08 432.227C1357.9 432.227 1359.54 431.768 1359.54 429.936C1359.54 428.103 1359.54 409.082 1359.54 399.801" stroke="black" stroke-width="0.704899"/>
<path d="M1351.35 315.916C1354.05 320.615 1359.45 336.534 1359.45 362.616C1359.51 363.732 1359.17 365.964 1357.34 365.964C1355.51 365.964 1342.59 366.199 1336.37 366.316C1335.25 366.316 1333.02 365.717 1333.02 363.321M1333.72 313.096C1333.61 312.215 1333.94 310.453 1336.19 310.453C1338.45 310.453 1351.23 310.453 1357.34 310.453C1358.16 310.453 1359.81 310.911 1359.81 312.744C1359.81 314.577 1359.81 333.597 1359.81 342.878" stroke="black" stroke-width="0.704899"/>
<rect x="1369.59" y="473.812" width="35.245" height="36.4513" transform="rotate(180 1369.59 473.812)" stroke="black" stroke-width="0.704899"/>
<circle cx="1352.09" cy="455.583" r="14.3653" transform="rotate(180 1352.09 455.583)" stroke="black" stroke-width="0.704899"/>
<circle cx="1351.97" cy="455.464" r="3.62857" transform="rotate(180 1351.97 455.464)" stroke="black" stroke-width="0.704899"/>
<path d="M1351.72 473.926L1351.72 437.131M1369.82 455.589L1334.23 455.589" stroke="black" stroke-width="0.704899"/>
<rect x="1369.59" y="306.749" width="35.245" height="36.4513" transform="rotate(180 1369.59 306.749)" stroke="black" stroke-width="0.704899"/>
<circle cx="1352.09" cy="288.521" r="14.3653" transform="rotate(180 1352.09 288.521)" stroke="black" stroke-width="0.704899"/>
<circle cx="1351.97" cy="288.402" r="3.62857" transform="rotate(180 1351.97 288.402)" stroke="black" stroke-width="0.704899"/>
<path d="M1351.72 306.863L1351.72 270.069M1369.82 288.526L1334.23 288.526" stroke="black" stroke-width="0.704899"/>
<rect x="534.917" y="1068.25" width="200.058" height="140.627" transform="rotate(-180 534.917 1068.25)" fill="#BFBFBF" stroke="black" stroke-width="0.704899"/>
<path d="M490.428 1019.96L379.344 1019.96C375.646 1019.96 372.648 1016.96 372.648 1013.26L372.648 877.567L497.124 877.567L497.124 1013.26C497.124 1016.96 494.126 1019.96 490.428 1019.96Z" fill="#BFBFBF" stroke="black" stroke-width="0.704899"/>
<path d="M511.017 877.566L358.756 877.566C350.893 877.566 344.497 871.285 344.31 863.468L525.464 863.468C525.277 871.285 518.88 877.566 511.017 877.566Z" fill="#BFBFBF" stroke="black" stroke-width="0.704899"/>
<rect x="541.327" y="915.987" width="39.785" height="31.7205" rx="2.46715" transform="rotate(-180 541.327 915.987)" fill="#BFBFBF" stroke="black" stroke-width="0.704899"/>
<rect x="368.237" y="915.987" width="39.785" height="31.7205" rx="2.46715" transform="rotate(-180 368.237 915.987)" fill="#BFBFBF" stroke="black" stroke-width="0.704899"/>
<path d="M446.358 904.709C452.88 900.109 469.017 890.984 481.787 890.962M481.787 890.962C481.9 890.962 482.012 890.962 482.124 890.964C483.924 890.964 487.86 891.069 489.21 891.492C489.604 891.61 490.357 892.162 490.222 893.431C490.087 894.7 490.166 904.063 490.222 908.586C490.279 909.761 489.75 912.146 487.186 912.287C483.98 912.463 465.085 913.344 444.671 912.992C443.771 912.874 441.972 911.935 441.972 909.115C441.972 906.295 441.972 898.424 441.972 894.841C442.084 893.372 443.693 890.435 449.226 890.435C454.76 890.435 473.239 890.786 481.787 890.962Z" stroke="black" stroke-width="0.704899"/>
<path d="M422.575 904.448C416.053 899.848 399.917 890.722 387.147 890.7M387.147 890.7C387.034 890.7 386.921 890.701 386.809 890.702C385.01 890.702 381.073 890.808 379.724 891.231C379.33 891.348 378.576 891.9 378.711 893.169C378.846 894.438 378.768 903.801 378.711 908.324C378.655 909.499 379.184 911.884 381.748 912.025C384.953 912.201 403.849 913.083 424.262 912.73C425.162 912.613 426.962 911.673 426.962 908.853C426.962 906.034 426.962 898.162 426.962 894.579C426.849 893.111 425.241 890.173 419.707 890.173C414.174 890.173 395.695 890.525 387.147 890.7Z" stroke="black" stroke-width="0.704899"/>
<path d="M496.973 938.895L372.297 938.895" stroke="black" stroke-width="0.704899"/>
<path d="M497.312 919.863L372.3 919.863" stroke="black" stroke-width="0.704899"/>
<path d="M487.528 889.376C483.029 886.674 467.789 881.269 442.82 881.269C441.752 881.211 439.615 881.551 439.615 883.384C439.615 885.217 439.39 898.128 439.277 904.355C439.277 905.471 439.851 907.703 442.145 907.703M490.227 906.998C491.071 907.116 492.758 906.787 492.758 904.531C492.758 902.275 492.758 889.493 492.758 883.384C492.758 882.562 492.319 880.917 490.565 880.917C488.81 880.917 470.601 880.917 461.716 880.917" stroke="black" stroke-width="0.704899"/>
<path d="M381.414 889.118C385.912 886.416 401.152 881.012 426.121 881.012C427.19 880.953 429.327 881.294 429.327 883.126C429.327 884.959 429.552 897.87 429.664 904.097C429.664 905.213 429.09 907.445 426.796 907.445M378.714 906.74C377.871 906.858 376.184 906.529 376.184 904.273C376.184 902.018 376.184 889.235 376.184 883.126C376.184 882.304 376.622 880.659 378.377 880.659C380.131 880.659 398.341 880.659 407.226 880.659" stroke="black" stroke-width="0.704899"/>
<rect x="495.866" y="1096.09" width="26.4337" height="113.489" transform="rotate(90 495.866 1096.09)" fill="#BFBFBF" stroke="black" stroke-width="0.704899"/>
<path d="M398.942 1111.24L398.942 1108.95L479.301 1108.95L479.301 1111.24C474.043 1111.98 462.304 1113.29 450.046 1113.83C448.63 1115.43 444.487 1118.65 439.243 1118.65C433.999 1118.65 430.179 1115.42 428.925 1113.8C416.598 1113.25 404.489 1111.97 398.942 1111.24Z" fill="#BFBFBF"/>
<path d="M479.301 1108.78L479.301 1108.95M479.301 1108.95L479.301 1111.24C474.043 1111.98 462.304 1113.29 450.046 1113.83M479.301 1108.95L398.942 1108.95L398.942 1111.24C404.489 1111.97 416.598 1113.25 428.925 1113.8M450.046 1113.83C446.645 1113.98 443.204 1114.06 439.85 1114.06C436.301 1114.06 432.603 1113.96 428.925 1113.8M450.046 1113.83C448.63 1115.43 444.487 1118.65 439.243 1118.65C433.999 1118.65 430.179 1115.42 428.925 1113.8" stroke="black" stroke-width="0.704899"/>
<rect x="1099.26" y="311.532" width="26.4337" height="113.489" fill="#BFBFBF" stroke="black" stroke-width="0.704899"/>
<path d="M1114.42 408.456H1112.13V328.098H1114.42C1115.15 333.355 1116.46 345.094 1117 357.352C1118.61 358.768 1121.82 362.912 1121.82 368.156C1121.82 373.399 1118.59 377.219 1116.97 378.473C1116.42 390.8 1115.14 402.909 1114.42 408.456Z" fill="#BFBFBF"/>
<path d="M1111.95 328.098H1112.13M1112.13 328.098H1114.42C1115.15 333.355 1116.46 345.094 1117 357.352M1112.13 328.098V408.456H1114.42C1115.14 402.909 1116.42 390.8 1116.97 378.473M1117 357.352C1117.15 360.753 1117.24 364.195 1117.24 367.549C1117.24 371.097 1117.14 374.795 1116.97 378.473M1117 357.352C1118.61 358.768 1121.82 362.912 1121.82 368.156C1121.82 373.399 1118.59 377.219 1116.97 378.473" stroke="black" stroke-width="0.704899"/>
<rect x="1168.33" y="425.026" width="26.4337" height="113.489" transform="rotate(-180 1168.33 425.026)" fill="#BFBFBF" stroke="black" stroke-width="0.704899"/>
<path d="M1153.17 328.102L1155.46 328.102L1155.46 408.461L1153.17 408.461C1152.44 403.203 1151.13 391.464 1150.59 379.207C1148.98 377.79 1145.77 373.647 1145.77 368.403C1145.77 363.159 1149 359.339 1150.62 358.085C1151.17 345.758 1152.45 333.649 1153.17 328.102Z" fill="#BFBFBF"/>
<path d="M1155.64 408.461L1155.46 408.461M1155.46 408.461L1153.17 408.461C1152.44 403.203 1151.13 391.464 1150.59 379.207M1155.46 408.461L1155.46 328.102L1153.17 328.102C1152.45 333.649 1151.17 345.758 1150.62 358.085M1150.59 379.207C1150.44 375.805 1150.35 372.364 1150.35 369.01C1150.35 365.461 1150.45 361.764 1150.62 358.085M1150.59 379.207C1148.98 377.79 1145.77 373.647 1145.77 368.403C1145.77 363.159 1149 359.339 1150.62 358.085" stroke="black" stroke-width="0.704899"/>
<rect x="860.294" y="352.77" width="28.9009" height="197.724" fill="#BFBFBF" stroke="black" stroke-width="0.704899"/>
<path d="M860.293 466.789H889.37M860.293 480.358H889.37M860.293 492.87H889.37" stroke="black" stroke-width="0.704899"/>
<path d="M860.293 503.27H889.194M860.293 511.376H889.194M860.293 535.166H889.37" stroke="black" stroke-width="0.704899"/>
<path d="M877.916 449.694H875.625V369.336H877.916C878.652 374.594 879.964 386.333 880.499 398.59C882.105 400.007 885.318 404.15 885.318 409.394C885.318 414.638 882.087 418.457 880.472 419.712C879.922 432.038 878.64 444.147 877.916 449.694Z" fill="#BFBFBF"/>
<path d="M875.449 369.336H875.625M875.625 369.336H877.916C878.652 374.594 879.964 386.333 880.499 398.59M875.625 369.336V449.694H877.916C878.64 444.147 879.922 432.038 880.472 419.712M880.499 398.59C880.647 401.992 880.736 405.433 880.736 408.787C880.736 412.335 880.637 416.033 880.472 419.712M880.499 398.59C882.105 400.007 885.318 404.15 885.318 409.394C885.318 414.638 882.087 418.457 880.472 419.712" stroke="black" stroke-width="0.704899"/>
<rect x="877.567" y="972.384" width="47.5807" height="45.8184" stroke="black" stroke-width="0.704899"/>
<path d="M877.391 980.664H925.324" stroke="black" stroke-width="0.704899"/>
<circle cx="907.876" cy="976.611" r="1.76225" stroke="black" stroke-width="0.704899"/>
<circle cx="880.386" cy="976.609" r="1.05735" stroke="black" stroke-width="0.704899"/>
<circle cx="912.81" cy="976.611" r="1.76225" stroke="black" stroke-width="0.704899"/>
<circle cx="917.744" cy="976.611" r="1.76225" stroke="black" stroke-width="0.704899"/>
<circle cx="901.178" cy="999.521" r="11.2784" stroke="black" stroke-width="0.704899"/>
<circle cx="901.179" cy="999.519" r="14.8029" stroke="black" stroke-width="0.704899"/>
<path d="M683.016 869.289H773.419" stroke="black" stroke-width="0.704899"/>
<path d="M742.58 842.328V869.114H715.794V842.328C715.794 834.931 721.79 828.934 729.187 828.934C736.584 828.934 742.58 834.931 742.58 842.328Z" stroke="black" stroke-width="0.704899"/>
<path d="M715.793 866.645H742.755" stroke="black" stroke-width="0.704899"/>
<path d="M715.965 860.828H742.751" stroke="black" stroke-width="0.704899"/>
<path d="M719.492 857.832V860.828" stroke="black" stroke-width="0.704899"/>
<path d="M738.523 857.832V860.828" stroke="black" stroke-width="0.704899"/>
<rect x="687.595" y="832.458" width="4.58184" height="11.2784" rx="1.05735" stroke="black" stroke-width="0.704899"/>
<path d="M678.958 789.281H338.492V834.747" stroke="black" stroke-width="0.704899"/>
<path d="M589.086 835.632V783.293H675.436" stroke="black" stroke-width="0.704899"/>
<path d="M629.09 783.469V789.284" stroke="black" stroke-width="0.704899"/>
<rect x="459.915" y="792.278" width="81.4158" height="34.8925" rx="6.69654" stroke="black" stroke-width="0.704899"/>
<rect x="462.028" y="794.395" width="25.7288" height="27.1386" rx="3.87695" stroke="black" stroke-width="0.704899"/>
<rect x="487.755" y="794.395" width="25.7288" height="27.1386" rx="3.87695" stroke="black" stroke-width="0.704899"/>
<rect x="513.485" y="794.395" width="25.7288" height="27.1386" rx="3.87695" stroke="black" stroke-width="0.704899"/>
<circle cx="474.716" cy="816.247" r="1.76225" stroke="black" stroke-width="0.704899"/>
<circle cx="500.798" cy="816.247" r="1.76225" stroke="black" stroke-width="0.704899"/>
<path d="M513.665 798.273H539.041M513.665 803.913H539.041M513.665 807.966H539.041M513.312 812.019H539.041M513.312 817.482H539.041" stroke="black" stroke-width="0.704899"/>
<path d="M478.594 809.723L488.639 824.526" stroke="black" stroke-width="0.704899"/>
<rect x="418.677" y="631.915" width="177.987" height="70.8423" fill="#BFBFBF" stroke="black" stroke-width="0.704899"/>
<rect x="475.423" y="660.466" width="64.1458" height="42.2939" fill="#BFBFBF" stroke="black" stroke-width="0.704899"/>
<circle cx="491.633" cy="693.238" r="7.40144" stroke="black" stroke-width="0.704899"/>
<circle cx="523.707" cy="678.793" r="7.40144" stroke="black" stroke-width="0.704899"/>
<path d="M486.699 687.953L489.695 690.949" stroke="black" stroke-width="0.704899"/>
<path d="M518.773 673.504L521.769 676.5" stroke="black" stroke-width="0.704899"/>
<path d="M497.097 688.309L494.277 690.952" stroke="black" stroke-width="0.704899"/>
<path d="M529.167 673.855L526.348 676.499" stroke="black" stroke-width="0.704899"/>
<path d="M486.699 698.704L489.519 695.18M497.096 698.704L494.101 695.18" stroke="black" stroke-width="0.704899"/>
<path d="M518.773 684.255L521.593 680.73M529.171 684.255L526.175 680.73" stroke="black" stroke-width="0.704899"/>
<circle cx="491.633" cy="676.676" r="4.22939" stroke="black" stroke-width="0.704899"/>
<circle cx="523.707" cy="695.359" r="4.22939" stroke="black" stroke-width="0.704899"/>
<path d="M475.246 666.98H539.921" stroke="black" stroke-width="0.704899"/>
<circle cx="458.68" cy="614.118" r="13.9218" stroke="black" stroke-width="0.704899"/>
<circle cx="508.372" cy="614.118" r="13.9218" stroke="black" stroke-width="0.704899"/>
<circle cx="558.071" cy="614.118" r="13.9218" stroke="black" stroke-width="0.704899"/>
<circle cx="361.93" cy="576.227" r="30.6631" stroke="black" stroke-width="0.704899"/>
<path d="M540.274 448.818C540.274 476.735 532.264 501.994 519.332 520.264C506.399 538.536 488.564 549.794 468.903 549.794C449.242 549.794 431.408 538.536 418.475 520.264C405.542 501.994 397.532 476.735 397.532 448.818C397.532 420.901 405.542 395.641 418.475 377.371C431.408 359.099 449.242 347.841 468.903 347.841C488.564 347.841 506.399 359.099 519.332 377.371C532.264 395.641 540.274 420.901 540.274 448.818Z" stroke="black" stroke-width="0.704899"/>
<path d="M1395.32 228.713V86.8519L563.712 65C409.868 66.3511 102.18 160.549 102.18 526.533C102.18 892.516 102.18 1272.9 102.18 1417.35H316.998" stroke="black" stroke-width="0.704899"/>
<path d="M310.121 1409.42H102M1387.56 86.5V227.656" stroke="black" stroke-width="0.704899"/>
<path d="M626.797 225.895C518.948 226.776 306.949 295.221 306.949 563.365" stroke="black" stroke-width="0.704899"/>
<path d="M626.622 229.418C520.534 229.418 310.298 298.322 309.77 563.188" stroke="black" stroke-width="0.704899"/>
<path d="M402.463 319.469L414.27 330.571M399.644 322.288L411.627 333.567M351.358 384.848L365.456 391.721M350.301 388.196L363.518 394.893" stroke="black" stroke-width="0.704899"/>
<path d="M511.016 448.464C511.016 468.022 506.216 485.711 498.473 498.499C490.727 511.294 480.073 519.13 468.37 519.13C456.667 519.13 446.013 511.294 438.267 498.499C430.524 485.711 425.724 468.022 425.724 448.464C425.724 428.906 430.524 411.217 438.267 398.429C446.013 385.634 456.667 377.798 468.37 377.798C480.073 377.798 490.727 385.634 498.473 398.429C506.216 411.217 511.016 428.906 511.016 448.464Z" fill="#BFBFBF" stroke="black" stroke-width="0.704899"/>
<path d="M450.395 511.375C451.271 519.694 452.99 539.008 452.85 549.713C452.85 550.678 453.376 552.607 455.48 552.607C457.585 552.607 472.842 552.607 480.208 552.607C481.436 552.667 483.996 552.173 484.417 549.713C484.943 546.639 483.891 523.491 486.697 511.375" stroke="black" stroke-width="0.704899"/>
<path d="M486.699 385.906C485.822 377.588 484.104 358.274 484.244 347.568C484.244 346.603 483.718 344.674 481.613 344.674C479.509 344.674 464.251 344.674 456.886 344.674C455.658 344.614 453.098 345.108 452.677 347.568C452.151 350.642 453.203 373.79 450.397 385.906" stroke="black" stroke-width="0.704899"/>
<path d="M428.898 431.016C420.58 431.892 401.266 433.611 390.56 433.471C389.596 433.471 387.667 433.997 387.667 436.101C387.667 438.206 387.667 453.463 387.667 460.829C387.606 462.057 388.101 464.617 390.56 465.038C393.634 465.564 416.782 464.512 428.898 467.318" stroke="black" stroke-width="0.704899"/>
<path d="M507.492 466.969C515.811 466.092 535.125 464.373 545.831 464.514C546.795 464.514 548.724 463.987 548.724 461.883C548.724 459.778 548.724 444.521 548.724 437.155C548.784 435.928 548.29 433.367 545.831 432.946C542.756 432.42 519.609 433.472 507.492 430.666" stroke="black" stroke-width="0.704899"/>
<path d="M489.871 507.234C497.647 510.318 515.553 517.758 524.971 522.85C525.825 523.298 527.778 523.727 528.755 521.863C529.731 519.999 536.812 506.484 540.23 499.959C540.853 498.899 541.603 496.402 539.62 494.888C537.141 492.995 516.148 483.186 506.717 475.077" stroke="black" stroke-width="0.704899"/>
<path d="M447.379 507.234C439.603 510.318 421.697 517.758 412.279 522.85C411.425 523.298 409.472 523.727 408.495 521.863C407.519 519.999 400.438 506.484 397.02 499.959C396.397 498.899 395.647 496.402 397.63 494.888C400.109 492.995 421.102 483.186 430.533 475.077" stroke="black" stroke-width="0.704899"/>
<path d="M430.191 422.73C423.226 418.099 406.907 407.626 397.355 402.79C396.5 402.343 395.035 400.983 396.01 399.118C396.985 397.253 404.055 383.733 407.468 377.205C407.983 376.089 409.607 374.05 411.982 374.816C414.95 375.774 434.975 387.433 447.013 390.561" stroke="black" stroke-width="0.704899"/>
<path d="M506.691 422.73C513.657 418.099 529.976 407.626 539.528 402.79C540.383 402.343 541.848 400.983 540.873 399.118C539.898 397.253 532.828 383.733 529.415 377.205C528.9 376.089 527.275 374.05 524.901 374.816C521.933 375.774 501.907 387.433 489.87 390.561" stroke="black" stroke-width="0.704899"/>
<path d="M452.508 540.102H484.757" stroke="black" stroke-width="0.704899"/>
<path d="M484.586 357.18L452.337 357.18" stroke="black" stroke-width="0.704899"/>
<path d="M400.172 433.133L400.172 465.382" stroke="black" stroke-width="0.704899"/>
<path d="M536.215 464.852L536.215 432.602" stroke="black" stroke-width="0.704899"/>
<path d="M516.297 518.688L531.262 490.121" stroke="black" stroke-width="0.704899"/>
<path d="M420.949 518.688L405.984 490.121" stroke="black" stroke-width="0.704899"/>
<path d="M405.719 407.547L420.662 378.969" stroke="black" stroke-width="0.704899"/>
<path d="M531.168 407.547L516.225 378.969" stroke="black" stroke-width="0.704899"/>
<rect x="711.915" y="359.821" width="55.687" height="54.9821" rx="5.28674" fill="#BFBFBF" stroke="black" stroke-width="0.704899"/>
<rect x="743.282" y="439.126" width="55.687" height="54.9821" rx="5.28674" fill="#BFBFBF" stroke="black" stroke-width="0.704899"/>
<circle cx="670.695" cy="322.926" r="17.4285" stroke="black" stroke-width="0.704899"/>
<circle cx="670.329" cy="323.165" r="9.16369" stroke="black" stroke-width="0.704899"/>
<path d="M671.13 308.715V337.792M656.051 322.924H685.128" stroke="black" stroke-width="0.704899"/>
<circle cx="656.577" cy="603.718" r="14.8029" stroke="black" stroke-width="0.704899"/>
<path d="M726.753 597.058C726.323 601.297 723.502 606.146 722.145 608.04C725.279 613.385 730.004 614.312 731.975 614.107C736.645 599.055 734.33 591.247 732.59 589.225C730.823 590.07 727.183 592.819 726.753 597.058Z" stroke="black" stroke-width="0.704899"/>
<path d="M694.188 597.035C694.618 601.274 697.439 606.122 698.796 608.017C695.663 613.362 690.937 614.288 688.966 614.084C684.297 599.032 686.611 591.224 688.352 589.202C690.118 590.046 693.758 592.796 694.188 597.035Z" stroke="black" stroke-width="0.704899"/>
<path d="M722.145 608.037C718.663 609.291 709.12 611.047 698.798 608.037" stroke="black" stroke-width="0.704899"/>
<path d="M731.973 613.953C730.896 618.765 725.033 628.391 710.2 628.391C695.368 628.391 689.864 618.765 688.967 613.953" stroke="black" stroke-width="0.704899"/>
<path d="M732.664 589.301C732.485 588.328 732.096 585.86 731.973 583.771C731.819 581.16 729.208 575.17 710.009 575.17C694.65 575.17 689.837 579.727 689.351 582.005C689.018 583.029 688.353 585.922 688.353 589.301" stroke="black" stroke-width="0.704899"/>
<path d="M729.825 579.625C730.209 579.241 730.839 578.366 730.286 577.936C729.733 577.506 728.981 578.268 728.674 578.704M692.272 578.627C691.811 578.166 690.751 577.383 690.199 577.936C689.646 578.488 690.327 579.446 690.736 579.855" stroke="black" stroke-width="0.704899"/>
<path d="M800.031 597.058C799.601 601.297 796.78 606.146 795.423 608.04C798.556 613.385 803.282 614.312 805.253 614.107C809.922 599.055 807.608 591.247 805.867 589.225C804.101 590.07 800.461 592.819 800.031 597.058Z" stroke="black" stroke-width="0.704899"/>
<path d="M767.466 597.035C767.896 601.274 770.717 606.122 772.073 608.017C768.94 613.362 764.214 614.288 762.243 614.084C757.574 599.032 759.888 591.224 761.629 589.202C763.395 590.046 767.035 592.796 767.466 597.035Z" stroke="black" stroke-width="0.704899"/>
<path d="M795.422 608.037C791.94 609.291 782.397 611.047 772.076 608.037" stroke="black" stroke-width="0.704899"/>
<path d="M805.25 613.953C804.173 618.765 798.311 628.391 783.478 628.391C768.645 628.391 763.142 618.765 762.244 613.953" stroke="black" stroke-width="0.704899"/>
<path d="M805.941 589.301C805.762 588.328 805.373 585.86 805.25 583.771C805.097 581.16 802.486 575.17 783.286 575.17C767.927 575.17 763.115 579.727 762.628 582.005C762.295 583.029 761.63 585.922 761.63 589.301" stroke="black" stroke-width="0.704899"/>
<path d="M803.103 579.625C803.487 579.241 804.117 578.366 803.564 577.936C803.011 577.506 802.258 578.268 801.951 578.704M765.549 578.627C765.089 578.166 764.029 577.383 763.476 577.936C762.923 578.488 763.604 579.446 764.013 579.855" stroke="black" stroke-width="0.704899"/>
<path d="M662.748 417.803C664.017 409.908 663.277 375.744 662.748 359.649L602.303 357.887C602.303 360.941 601.598 366.909 601.598 366.346C599.308 382.911 596.84 401.238 599.484 408.111C601.598 413.609 601.775 417.568 601.598 418.86C600.012 430.491 596.312 458.864 599.484 468.027C602.021 475.358 601.951 478.953 601.598 479.834C599.484 483.711 598.603 509.44 598.603 514.727C598.603 518.956 600.6 526.475 601.598 529.706L602.127 539.927L662.748 538.87C665.286 527.168 663.806 493.932 662.748 478.777C665.568 464.538 663.923 432.195 662.748 417.803Z" fill="#BFBFBF" stroke="black" stroke-width="0.704899"/>
<path d="M662.927 358.062C662.927 359.156 662.184 360.269 660.666 361.341C659.158 362.407 656.954 363.38 654.197 364.204C648.689 365.85 641.059 366.873 632.616 366.873C624.173 366.873 616.543 365.85 611.035 364.204C608.279 363.38 606.074 362.407 604.566 361.341C603.049 360.269 602.306 359.156 602.306 358.062C602.306 356.968 603.049 355.855 604.566 354.783C606.074 353.718 608.279 352.744 611.035 351.92C616.543 350.274 624.173 349.251 632.616 349.251C641.059 349.251 648.689 350.274 654.197 351.92C656.954 352.744 659.158 353.718 660.666 354.783C662.184 355.855 662.927 356.968 662.927 358.062Z" fill="#BFBFBF" stroke="black" stroke-width="0.704899"/>
<path d="M662.575 540.277C662.575 541.371 661.832 542.484 660.315 543.556C658.807 544.621 656.602 545.595 653.846 546.419C648.338 548.065 640.708 549.088 632.265 549.088C623.822 549.088 616.191 548.065 610.683 546.419C607.927 545.595 605.722 544.621 604.215 543.556C602.697 542.484 601.954 541.371 601.954 540.277C601.954 539.183 602.697 538.07 604.215 536.998C605.722 535.932 607.927 534.959 610.683 534.135C616.191 532.489 623.822 531.466 632.265 531.466C640.708 531.466 648.338 532.489 653.846 534.135C656.602 534.959 658.807 535.932 660.315 536.998C661.832 538.07 662.575 539.183 662.575 540.277Z" fill="#BFBFBF" stroke="black" stroke-width="0.704899"/>
<path d="M602.305 358.062H663.102" stroke="black" stroke-width="0.704899"/>
<path d="M601.953 540.277H662.751" stroke="black" stroke-width="0.704899"/>
<path d="M601.954 530.94V478.954V415.513V366.346M601.602 365.465L601.954 366.346M601.954 366.346L607.769 366.082M617.462 365.641L607.769 366.082M607.769 366.082C610.002 373.982 613.373 395.529 609.003 418.508C611.353 429.669 614.642 457.384 609.003 478.954C611 489.527 613.691 514.868 608.474 531.645" stroke="black" stroke-width="0.704899"/>
<path d="M601.422 531.291L624.507 531.82M601.422 479.305H662.748" stroke="black" stroke-width="0.704899"/>
<path d="M601.773 418.332H662.747" stroke="black" stroke-width="0.704899"/>
<path d="M634.2 348.895V331.449H655.17M685.834 331.449H830.162V603.364H807.781M759.848 603.364H734.119M686.715 603.364H671.559M641.954 603.364H634.023V549.263" stroke="black" stroke-width="0.704899"/>
<path d="M614.637 959.516V1036.88" stroke="black" stroke-width="0.704899"/>
<path d="M614.638 986.13H641.071C648.273 986.13 654.112 991.968 654.112 999.17C654.112 1006.37 648.273 1012.21 641.071 1012.21H614.638V986.13Z" stroke="black" stroke-width="0.704899"/>
<path d="M617.281 986.129V1012.21M622.039 986.129V1012.21" stroke="black" stroke-width="0.704899"/>
<rect x="616.399" y="968.505" width="5.28674" height="10.5735" rx="2.46715" stroke="black" stroke-width="0.704899"/>
<rect x="728.477" y="965.329" width="44.7611" height="64.4983" stroke="black" stroke-width="0.704899"/>
<rect x="737.993" y="978.372" width="24.319" height="37.0072" stroke="black" stroke-width="0.704899"/>
<circle cx="751.389" cy="996.346" r="2.1147" stroke="black" stroke-width="0.704899"/>
<path d="M758.086 994.583H764.958C766.029 994.583 766.897 995.451 766.897 996.521C766.897 997.592 766.029 998.46 764.958 998.46H758.086C757.502 998.46 757.028 997.986 757.028 997.403V995.64C757.028 995.056 757.502 994.583 758.086 994.583Z" stroke="black" stroke-width="0.704899"/>
<path d="M658.695 959.691H776.061" stroke="black" stroke-width="0.704899"/>
<path d="M659.754 953.699H772.185" stroke="black" stroke-width="0.704899"/>
<path d="M659.574 922.512H673.32" stroke="black" stroke-width="0.704899"/>
<circle cx="678.077" cy="922.686" r="5.28674" stroke="black" stroke-width="0.704899"/>
<path d="M660.457 890.613V912.641" stroke="black" stroke-width="0.704899"/>
<path d="M639.663 876.691L602.832 950.001" stroke="black" stroke-width="0.704899"/>
<path d="M603.008 877.57L639.663 949.822" stroke="black" stroke-width="0.704899"/>
<path d="M602.832 843.912L675.26 867.174M675.26 843.912L602.832 867.174M696.76 712.625V756.681H761.611V712.625M746.984 723.022V747.87H709.096V723.022H746.984Z" stroke="black" stroke-width="0.704899"/>
<circle cx="728.127" cy="733.42" r="2.1147" stroke="black" stroke-width="0.704899"/>
<path d="M729.89 719.146V727.429C729.89 728.013 729.416 728.486 728.832 728.486H727.07C726.486 728.486 726.013 728.013 726.013 727.429V719.146C726.013 718.076 726.88 717.208 727.951 717.208C729.022 717.208 729.89 718.076 729.89 719.146Z" stroke="black" stroke-width="0.704899"/>
<path d="M785.578 717.207H885.145" stroke="black" stroke-width="0.704899"/>
<path d="M1088.86 639.141V709.278M1050.27 709.278H1109.12V823.472M1109.12 844.266V823.472M1109.12 823.472H1078.81M1078.81 823.472L1052.73 797.919M1078.81 823.472V798.8H1052.03" stroke="black" stroke-width="0.704899"/>
<path d="M1101.19 823.471V838.45H1061.37V813.074H1068.06M1108.77 810.254H1141.37V842.151" stroke="black" stroke-width="0.704899"/>
<path d="M1384.74 753.684L1347.91 833.513M1347.91 753.684L1384.74 833.513M1340.16 779.589H1284.29V834.923" stroke="black" stroke-width="0.704899"/>
<path d="M1230.55 833.513V804.788C1230.78 803.907 1231.89 802.145 1234.42 802.145C1236.96 802.145 1256.16 802.145 1265.44 802.145C1266.97 802.262 1270.02 803.096 1270.02 805.493C1270.02 807.889 1270.02 825.876 1270.02 834.57M1233.72 804.788V828.226H1267.2V804.788H1233.72Z" stroke="black" stroke-width="0.704899"/>
<path d="M1246.58 828.406V833.692M1254.86 828.406V834.574M1250.81 822.414V827.877M1216.62 833.692V824.881C1217.27 824.118 1219.02 823.048 1220.85 824.881V833.692" stroke="black" stroke-width="0.704899"/>
<path d="M1166.75 809.371V798.445H1174.68V809.371H1166.75Z" stroke="black" stroke-width="0.704899"/>
<path d="M1244.99 615.705H1389.14M1381.39 557.727V611.475H1253.63V557.727H1381.39Z" stroke="black" stroke-width="0.704899"/>
<path d="M1376.1 606.01V564.598H1259.97V606.01H1376.1Z" stroke="black" stroke-width="0.704899"/>
<path d="M1368.88 601.957V567.945H1265.79V601.957H1368.88Z" stroke="black" stroke-width="0.704899"/>
<path d="M1376.1 564.773L1369.06 567.945M1375.93 606.01L1368.7 601.957M1260.15 606.186L1265.79 601.957M1260.15 564.773L1265.79 567.945" stroke="black" stroke-width="0.704899"/>
<circle cx="1360.25" cy="584.863" r="2.64337" stroke="black" stroke-width="0.704899"/>
<circle cx="1378.75" cy="576.226" r="2.46715" stroke="black" stroke-width="0.704899"/>
<circle cx="1378.75" cy="593.851" r="2.46715" stroke="black" stroke-width="0.704899"/>
<rect x="1369.23" y="583.63" width="11.9833" height="2.46715" rx="0.704899" stroke="black" stroke-width="0.704899"/>
<path d="M1371.88 615.703V745.581" stroke="black" stroke-width="0.704899"/>
<path d="M1344.39 697.825H1371.7V724.259H1344.39C1337.09 724.259 1331.17 718.341 1331.17 711.042C1331.17 703.742 1337.09 697.825 1344.39 697.825Z" stroke="black" stroke-width="0.704899"/>
<path d="M1369.41 697.824V724.082M1363.59 697.824V724.082" stroke="black" stroke-width="0.704899"/>
<circle cx="1361.3" cy="701.874" r="1.23357" fill="black"/>
<circle cx="1361.3" cy="720.554" r="1.23357" fill="black"/>
<path d="M1370.12 740.995V730.95V730.598H1364.65V740.995H1370.12Z" stroke="black" stroke-width="0.704899"/>
<path d="M1372.23 679.143H1331.87V622.223H1372.23M1362.36 632.972V669.451H1337.33V632.972H1362.36Z" stroke="black" stroke-width="0.704899"/>
<path d="M1358.66 649.536H1365.89C1366.76 649.536 1367.47 650.246 1367.47 651.122C1367.47 651.998 1366.76 652.708 1365.89 652.708H1358.66C1358.08 652.708 1357.6 652.235 1357.6 651.651V650.593C1357.6 650.009 1358.08 649.536 1358.66 649.536Z" stroke="black" stroke-width="0.704899"/>
<circle cx="1351.61" cy="651.3" r="2.46715" stroke="black" stroke-width="0.704899"/>
</svg>
