<svg width="40" height="9" viewBox="0 0 40 9" fill="none" xmlns="http://www.w3.org/2000/svg">
<g clip-path="url(#clip0_942_58)">
<mask id="mask0_942_58" style="mask-type:luminance" maskUnits="userSpaceOnUse" x="0" y="0" width="40" height="9">
<path d="M40 0H0V8.1039H40V0Z" fill="white"/>
</mask>
<g mask="url(#mask0_942_58)">
<path d="M28.7617 4.38417V4.27315H29.0955C29.179 4.27315 29.2902 4.05113 29.2902 4.05113C29.2902 4.05113 31.0705 0.0546875 31.1261 0.0546875C31.1818 0.0546875 32.9342 4.05113 32.9342 4.05113C32.9342 4.05113 33.0455 4.27315 33.2957 4.27315H33.5461V4.38417H31.7937V4.27315H31.905C31.9884 4.27315 31.9884 4.05113 31.9884 4.05113C31.9884 4.05113 30.9035 1.44234 30.848 1.44234C30.7923 1.44234 29.8466 4.05113 29.8466 4.05113C29.8466 4.05113 29.7909 4.27315 30.069 4.27315H30.3473V4.38417H28.7617Z" fill="#D2A749"/>
<path fill-rule="evenodd" clip-rule="evenodd" d="M23.0859 0.166016V0.221515H23.4475C23.67 0.221515 23.67 0.471293 23.67 0.471293V3.99594C23.67 3.99594 23.6145 4.30121 23.4753 4.30121H23.1694V4.38448H25.1443V4.30121H24.7827C24.588 4.30121 24.5324 3.99594 24.5324 3.99594V2.63603H25.0331C25.5453 3.64087 26.257 4.30121 26.5073 4.35673C26.7577 4.41223 27.7034 4.38448 27.7034 4.38448V4.30121C27.7034 4.30121 27.3974 4.35673 27.2861 4.24571C27.1749 4.1347 25.6728 2.49727 25.7841 2.35849C25.7841 2.35849 26.3672 1.95195 26.5073 1.55366C26.5954 1.30355 26.5908 1.13737 26.5352 0.887595C26.4795 0.637818 25.9678 0.165573 25.645 0.166016C25.3222 0.166459 23.0859 0.166016 23.0859 0.166016ZM24.588 0.470845C24.588 0.470845 24.5602 2.10873 24.588 2.21929C24.6158 2.32986 25.3112 2.35806 25.5337 2.13603C25.7563 1.914 25.7284 1.3867 25.6728 1.19242C25.6172 0.998152 25.4503 0.522835 25.0609 0.467328C24.6715 0.411823 24.588 0.470845 24.588 0.470845Z" fill="#D2A749"/>
<path d="M23.0864 0.221929H23.0586V0.249682H23.0864V0.221929ZM23.0864 0.16643V0.138677L23.0586 0.138672V0.16643H23.0864ZM23.6705 3.99635L23.698 4.00131L23.6984 3.99885V3.99635H23.6705ZM23.1699 4.30163V4.27388H23.142V4.30163H23.1699ZM23.1699 4.38489H23.142V4.41264H23.1699V4.38489ZM25.1448 4.38489V4.41264H25.1727V4.38489H25.1448ZM25.1448 4.30163H25.1727V4.27388H25.1448V4.30163ZM24.5329 3.99635H24.505V3.99885L24.5056 4.00131L24.5329 3.99635ZM24.5329 2.63644V2.60869H24.505V2.63644H24.5329ZM25.0336 2.63644L25.0584 2.62386L25.0507 2.60869H25.0336V2.63644ZM27.704 4.38489L27.7048 4.41263L27.7317 4.41184V4.38489H27.704ZM27.704 4.30163H27.7317V4.26838L27.699 4.27432L27.704 4.30163ZM25.7846 2.35891L25.7687 2.33616L25.7654 2.33846L25.7629 2.34158L25.7846 2.35891ZM24.5886 0.47126L24.5725 0.448619L24.5609 0.456744L24.5607 0.47079L24.5886 0.47126ZM23.1143 0.221929V0.16643H23.0586V0.221929H23.1143ZM23.448 0.194176H23.0864V0.249682H23.448V0.194176ZM23.6705 0.471707C23.6984 0.471707 23.6984 0.471694 23.6984 0.47168C23.6984 0.471675 23.6984 0.471692 23.6984 0.47168C23.6984 0.471656 23.6984 0.471596 23.6984 0.471564C23.6984 0.471501 23.6984 0.471423 23.6984 0.471331C23.6984 0.471144 23.6984 0.470897 23.6984 0.470593C23.6984 0.469983 23.6984 0.46914 23.6984 0.46808C23.6983 0.465959 23.6981 0.462964 23.6979 0.459215C23.6975 0.45173 23.6965 0.441193 23.6946 0.428612C23.6909 0.40359 23.6834 0.369756 23.6682 0.335547C23.653 0.301311 23.6295 0.265765 23.5935 0.238755C23.557 0.211487 23.5093 0.194176 23.448 0.194176V0.249682C23.4981 0.249682 23.5338 0.263593 23.56 0.283159C23.5865 0.302981 23.6048 0.329881 23.6173 0.35809C23.6299 0.386325 23.6364 0.414935 23.6396 0.436747C23.6412 0.447582 23.642 0.456559 23.6424 0.462733C23.6426 0.465816 23.6427 0.468186 23.6427 0.469724C23.6428 0.470493 23.6428 0.471052 23.6428 0.471388C23.6428 0.471556 23.6428 0.471668 23.6428 0.471721C23.6428 0.471724 23.6428 0.471748 23.6428 0.471721C23.6428 0.471711 23.6428 0.471707 23.6705 0.471707ZM23.6984 3.99635V0.47168L23.6428 0.471721V3.99635H23.6984ZM23.4758 4.32938C23.5219 4.32938 23.5584 4.30396 23.586 4.27207C23.6136 4.24019 23.635 4.19891 23.6511 4.1595C23.6674 4.11979 23.6791 4.08033 23.6866 4.05097C23.6905 4.03624 23.6933 4.02395 23.6951 4.01528C23.6961 4.01095 23.6967 4.00752 23.6972 4.00514C23.6974 4.00396 23.6977 4.00302 23.6978 4.00238C23.6978 4.00205 23.6979 4.00181 23.6979 4.00163C23.6979 4.00153 23.6979 4.00136 23.698 4.00131C23.698 4.00129 23.698 4.00133 23.698 4.00131C23.698 4.00131 23.698 4.00131 23.6705 3.99635C23.6432 3.99138 23.6432 3.99138 23.6432 3.99137C23.6432 3.99139 23.6432 3.99145 23.6432 3.99151C23.6431 3.99162 23.6431 3.99181 23.6431 3.99206C23.643 3.99257 23.6428 3.99337 23.6427 3.99441C23.6422 3.99651 23.6416 3.99963 23.6407 4.00365C23.639 4.01169 23.6364 4.02324 23.6327 4.03713C23.6256 4.06499 23.6146 4.10187 23.5997 4.13848C23.5845 4.17539 23.5659 4.21043 23.5439 4.23579C23.522 4.26114 23.4994 4.27388 23.4758 4.27388V4.32938ZM23.1699 4.32938H23.4758V4.27388H23.1699V4.32938ZM23.1977 4.38489V4.30163H23.142V4.38489H23.1977ZM25.1448 4.35714H23.1699V4.41264H25.1448V4.35714ZM25.117 4.30163V4.38489H25.1727V4.30163H25.117ZM24.7833 4.32938H25.1448V4.27388H24.7833V4.32938ZM24.5329 3.99635C24.5056 4.00131 24.5056 4.0013 24.5056 4.00131C24.5056 4.0013 24.5056 4.00132 24.5056 4.00131C24.5056 4.00133 24.5056 4.0014 24.5056 4.00143C24.5056 4.00149 24.5056 4.00157 24.5056 4.00167C24.5057 4.00186 24.5057 4.00212 24.5058 4.00246C24.5059 4.00313 24.5061 4.00408 24.5063 4.0053C24.5068 4.00773 24.5075 4.01122 24.5086 4.01561C24.5105 4.0244 24.5136 4.03684 24.5178 4.05173C24.5264 4.08139 24.54 4.12125 24.5601 4.1614C24.5994 4.23973 24.669 4.32938 24.7833 4.32938V4.27388C24.7027 4.27388 24.6472 4.21089 24.61 4.13658C24.5918 4.1004 24.5793 4.06395 24.5713 4.03637C24.5674 4.02264 24.5646 4.01122 24.5628 4.00331C24.5619 3.99936 24.5612 3.99629 24.5608 3.99425C24.5606 3.99323 24.5605 3.99248 24.5604 3.99199C24.5603 3.99175 24.5603 3.99157 24.5603 3.99147C24.5603 3.99142 24.5603 3.99148 24.5603 3.99147C24.5603 3.99148 24.5603 3.99138 24.5329 3.99635ZM24.505 2.63644V3.99635H24.5607V2.63644H24.505ZM25.0336 2.60869H24.5329V2.6642H25.0336V2.60869ZM26.5139 4.33004C26.4578 4.3176 26.3704 4.26932 26.261 4.18427C26.1525 4.10001 26.0252 3.98199 25.8893 3.83404C25.6178 3.53818 25.3132 3.12395 25.0584 2.62386L25.0087 2.64903C25.2661 3.15378 25.5735 3.57213 25.8484 3.87154C25.9858 4.02122 26.1153 4.14149 26.2268 4.22806C26.3372 4.31385 26.4328 4.36892 26.5018 4.38423L26.5139 4.33004ZM27.704 4.38489C27.7032 4.35715 27.7032 4.35715 27.7032 4.35715C27.7031 4.35715 27.7031 4.35715 27.703 4.35715C27.7029 4.35715 27.7026 4.35716 27.7024 4.35717C27.702 4.35718 27.7013 4.3572 27.7005 4.35722C27.6987 4.35728 27.696 4.35735 27.6925 4.35744C27.6855 4.35763 27.6753 4.3579 27.6621 4.35823C27.6358 4.35888 27.598 4.35975 27.5518 4.36061C27.4593 4.36235 27.3334 4.36408 27.1998 4.36408C27.0661 4.36408 26.9248 4.36235 26.8016 4.35716C26.6775 4.35196 26.5738 4.34332 26.5139 4.33004L26.5018 4.38423C26.5671 4.39871 26.6754 4.40742 26.7992 4.41261C26.9236 4.41785 27.0658 4.41958 27.1998 4.41958C27.3339 4.41958 27.4602 4.41785 27.5528 4.41611C27.5992 4.41524 27.6372 4.41437 27.6635 4.41372C27.6767 4.41339 27.6871 4.41312 27.694 4.41293C27.6976 4.41283 27.7003 4.41276 27.702 4.41271C27.703 4.41268 27.7036 4.41266 27.7041 4.41265C27.7043 4.41264 27.7044 4.41264 27.7046 4.41264C27.7047 4.41263 27.7047 4.41263 27.7047 4.41263C27.7048 4.41263 27.7048 4.41263 27.704 4.38489ZM27.6762 4.30163V4.38489H27.7317V4.30163H27.6762ZM27.267 4.26574C27.3 4.29863 27.3457 4.31765 27.3925 4.32864C27.4397 4.33972 27.4907 4.34326 27.537 4.34326C27.5836 4.34326 27.6265 4.3397 27.6576 4.33614C27.6731 4.33437 27.6859 4.33258 27.6947 4.33124C27.6992 4.33056 27.7026 4.33 27.705 4.3296C27.7063 4.3294 27.7072 4.32924 27.7078 4.32912C27.7082 4.32907 27.7085 4.32903 27.7087 4.32899C27.7087 4.32897 27.7088 4.32896 27.7089 4.32895C27.7089 4.32895 27.7089 4.32893 27.704 4.30163C27.699 4.27432 27.699 4.27432 27.699 4.27432C27.699 4.27432 27.699 4.27432 27.6989 4.27432C27.6989 4.27434 27.6989 4.27433 27.6988 4.27435C27.6987 4.27438 27.6986 4.27441 27.6983 4.27445C27.6978 4.27454 27.6969 4.27468 27.6959 4.27485C27.6938 4.27522 27.6906 4.27573 27.6864 4.27636C27.6781 4.27762 27.6661 4.2793 27.6513 4.28099C27.6215 4.28438 27.5809 4.28776 27.537 4.28776C27.4931 4.28776 27.4467 4.28436 27.4052 4.27462C27.3634 4.2648 27.329 4.24913 27.3064 4.2265L27.267 4.26574ZM25.7629 2.34158C25.7471 2.36124 25.7497 2.38769 25.755 2.40848C25.7606 2.43127 25.7724 2.4583 25.788 2.48818C25.8196 2.54826 25.8705 2.62532 25.9342 2.71301C26.0618 2.88865 26.2431 3.11047 26.4311 3.33091C26.8067 3.77169 27.2106 4.20946 27.267 4.26574L27.3064 4.2265C27.2515 4.17178 26.8487 3.73533 26.4735 3.29495C26.2858 3.0748 26.1056 2.85429 25.9793 2.68043C25.916 2.59336 25.867 2.51887 25.8373 2.4624C25.8223 2.43401 25.8131 2.41153 25.8089 2.39503C25.8044 2.37654 25.8082 2.37392 25.8063 2.37625L25.7629 2.34158ZM26.4816 1.54488C26.4139 1.73718 26.2376 1.93448 26.0747 2.08552C25.9938 2.16057 25.9172 2.22331 25.8608 2.2673C25.8326 2.28929 25.8095 2.30655 25.7935 2.3183C25.7855 2.32418 25.7792 2.32867 25.775 2.33169C25.7729 2.33319 25.7713 2.33432 25.7702 2.33507C25.7698 2.33545 25.7693 2.33573 25.769 2.33591C25.7689 2.33601 25.7688 2.33612 25.7687 2.33616C25.7687 2.33615 25.7687 2.33618 25.7687 2.33616C25.7687 2.33616 25.7687 2.33616 25.7846 2.35891C25.8005 2.38166 25.8006 2.38166 25.8006 2.38165C25.8006 2.38164 25.8006 2.38159 25.8007 2.38157C25.8007 2.3815 25.8008 2.38142 25.801 2.38132C25.8013 2.38111 25.8019 2.3808 25.8024 2.38039C25.8035 2.37958 25.8052 2.37839 25.8074 2.37682C25.8117 2.37368 25.8182 2.36905 25.8264 2.36302C25.8428 2.35099 25.8664 2.33338 25.8951 2.31103C25.9523 2.26634 26.0302 2.20255 26.1126 2.12618C26.2763 1.97437 26.4616 1.76925 26.5341 1.56327L26.4816 1.54488ZM26.5086 0.894027C26.5361 1.01789 26.5506 1.11936 26.5478 1.22014C26.545 1.3207 26.5249 1.42191 26.4816 1.54488L26.5341 1.56327C26.5788 1.43612 26.6004 1.32918 26.6034 1.22168C26.6064 1.1144 26.5909 1.0079 26.5628 0.881987L26.5086 0.894027ZM25.6456 0.194184C25.72 0.194081 25.808 0.221438 25.9003 0.268571C25.9922 0.3155 26.0863 0.380971 26.1727 0.454496C26.2591 0.528008 26.3369 0.609041 26.3965 0.686683C26.4563 0.764914 26.4959 0.837432 26.5086 0.894027L26.5628 0.881987C26.5476 0.813697 26.5023 0.73352 26.4406 0.652969C26.3785 0.57183 26.2978 0.487994 26.2088 0.412278C26.1199 0.336575 26.0221 0.268457 25.9256 0.219159C25.8295 0.170066 25.7325 0.138558 25.6455 0.138677L25.6456 0.194184ZM23.0864 0.16643C23.0864 0.194184 23.0864 0.194176 23.0864 0.194176C23.0864 0.194176 23.0864 0.194184 23.0865 0.194184C23.0866 0.194184 23.0867 0.194184 23.0869 0.194184C23.0871 0.194184 23.0875 0.194184 23.088 0.194184C23.0891 0.194184 23.0907 0.194184 23.0929 0.194185C23.0971 0.194185 23.1034 0.194186 23.1117 0.194188C23.1281 0.194191 23.1522 0.194195 23.1832 0.194201C23.245 0.194213 23.3335 0.194228 23.4409 0.194246C23.6556 0.19428 23.9452 0.194322 24.2449 0.194349C24.8444 0.194404 25.4842 0.194404 25.6456 0.194184L25.6455 0.138677C25.4842 0.138898 24.8444 0.138898 24.2449 0.138843C23.9452 0.138815 23.6556 0.138774 23.4409 0.138739C23.3335 0.138722 23.245 0.138706 23.1832 0.138695C23.1522 0.13869 23.1281 0.138685 23.1117 0.138681C23.1034 0.13868 23.0971 0.138679 23.0929 0.138678C23.0907 0.138678 23.0891 0.138678 23.088 0.138677C23.0876 0.138677 23.0871 0.138677 23.0869 0.138677C23.0867 0.138677 23.0866 0.138677 23.0865 0.138677C23.0864 0.138677 23.0864 0.138677 23.0864 0.138677C23.0864 0.138677 23.0864 0.138677 23.0864 0.16643ZM24.6155 2.21294C24.6144 2.20869 24.613 2.19812 24.6116 2.17982C24.6104 2.16226 24.6092 2.13941 24.6083 2.11188C24.6064 2.05687 24.6053 1.98411 24.6046 1.89965C24.6033 1.73077 24.6042 1.51585 24.6059 1.30425C24.6077 1.09267 24.6103 0.88454 24.6125 0.729295C24.6135 0.65167 24.6145 0.587278 24.6152 0.542287C24.6156 0.519794 24.6158 0.502151 24.616 0.490135C24.6161 0.484126 24.6162 0.479524 24.6163 0.476425C24.6163 0.474874 24.6163 0.4737 24.6163 0.472914C24.6163 0.47252 24.6163 0.472225 24.6163 0.472027C24.6163 0.471928 24.6163 0.471853 24.6163 0.471804C24.6163 0.471779 24.6163 0.471816 24.6163 0.471804C24.6163 0.471792 24.6163 0.47173 24.5886 0.47126C24.5607 0.470789 24.5607 0.470777 24.5607 0.47079C24.5607 0.470764 24.5607 0.470802 24.5607 0.47079C24.5607 0.47084 24.5607 0.470991 24.5607 0.47109C24.5607 0.471289 24.5607 0.471587 24.5607 0.471982C24.5606 0.472771 24.5606 0.473947 24.5606 0.4755C24.5606 0.478605 24.5605 0.483213 24.5604 0.489228C24.5602 0.501257 24.5599 0.518912 24.5596 0.541419C24.5589 0.586434 24.5578 0.65086 24.5568 0.728518C24.5546 0.88383 24.552 1.09208 24.5503 1.30379C24.5486 1.51548 24.5476 1.73075 24.549 1.90007C24.5496 1.98471 24.5507 2.05805 24.5527 2.11377C24.5537 2.14163 24.5548 2.16529 24.5562 2.18387C24.5575 2.20172 24.5592 2.21689 24.5616 2.22646L24.6155 2.21294ZM25.5146 2.11682C25.4639 2.16746 25.384 2.20565 25.2891 2.23192C25.1947 2.25807 25.0884 2.27168 24.9874 2.27506C24.8864 2.27844 24.7922 2.27155 24.7223 2.25736C24.6872 2.25024 24.6594 2.24154 24.6404 2.2321C24.6196 2.22187 24.6158 2.21418 24.6155 2.21294L24.5616 2.22646C24.5682 2.25286 24.5922 2.27024 24.6157 2.28185C24.6408 2.29426 24.6738 2.30415 24.7112 2.31176C24.7864 2.32702 24.8852 2.33402 24.9893 2.33053C25.0935 2.32703 25.2045 2.31298 25.304 2.28541C25.403 2.25798 25.4934 2.21643 25.554 2.15607L25.5146 2.11682ZM25.6466 1.20047C25.6733 1.29392 25.6941 1.47096 25.6804 1.65214C25.6666 1.83437 25.6186 2.01311 25.5146 2.11682L25.554 2.15607C25.6725 2.03774 25.7219 1.84184 25.7359 1.65633C25.7499 1.46978 25.729 1.28603 25.7002 1.18521L25.6466 1.20047ZM25.0575 0.495217C25.2408 0.521357 25.3739 0.646541 25.4692 0.793338C25.5644 0.939969 25.6191 1.10428 25.6466 1.20047L25.7002 1.18521C25.672 1.08714 25.6155 0.916645 25.5159 0.763171C25.4164 0.609863 25.2714 0.469635 25.0653 0.440269L25.0575 0.495217ZM24.5886 0.47126C24.6046 0.493901 24.6046 0.493922 24.6046 0.493942C24.6046 0.493948 24.6045 0.493969 24.6045 0.493981C24.6045 0.494006 24.6045 0.494031 24.6044 0.494055C24.6044 0.494101 24.6043 0.494144 24.6043 0.494184C24.604 0.494262 24.6039 0.494323 24.6039 0.49437C24.6037 0.494462 24.6037 0.494494 24.6037 0.494469C24.6038 0.49442 24.6044 0.494147 24.6052 0.493695C24.6071 0.492792 24.6107 0.491174 24.6165 0.489211C24.6283 0.485277 24.6489 0.479994 24.6821 0.476266C24.7486 0.468793 24.8642 0.467673 25.0575 0.495217L25.0653 0.440269C24.8691 0.412306 24.7484 0.412945 24.6758 0.421108C24.6394 0.425197 24.6149 0.431201 24.5987 0.436599C24.5907 0.439301 24.5848 0.441861 24.5805 0.44397C24.5784 0.445023 24.5766 0.445963 24.5754 0.446752C24.5746 0.447147 24.5741 0.447503 24.5736 0.447816C24.5734 0.447972 24.5732 0.448117 24.573 0.448251C24.5729 0.448319 24.5728 0.448383 24.5727 0.448444C24.5727 0.448474 24.5726 0.448505 24.5726 0.448534C24.5726 0.448548 24.5725 0.448613 24.5725 0.448619C24.5725 0.448641 24.5725 0.448619 24.5886 0.47126Z" fill="#D2A749"/>
<path d="M16.7441 0.110193V0.0546875H18.6634V0.110193H18.3853C18.274 0.110193 18.1349 0.415478 18.1349 0.415478V3.07977C18.1349 3.07977 18.2184 3.91236 18.886 3.99563H19.5536C20.1655 3.80135 20.1655 3.02426 20.1655 3.02426V0.359971C20.1655 0.359971 20.1099 0.110193 19.943 0.110193H19.5814V0.0546875H21.2782V0.110193H20.9443C20.8332 0.110193 20.7496 0.359971 20.7496 0.359971C20.7496 0.359971 20.7219 2.85775 20.6941 3.02426C20.6662 3.19079 20.4437 3.85685 20.0543 4.10664C19.6649 4.35642 19.4423 4.35642 19.4423 4.35642C19.4423 4.35642 18.6634 4.38417 18.58 4.35642C18.4966 4.32866 18.274 4.35642 17.9402 4.10664C17.6065 3.85685 17.3004 3.41281 17.2727 3.02426C17.2448 2.63572 17.2448 0.359971 17.2448 0.359971C17.2448 0.359971 17.1892 0.110193 17.0501 0.110193H16.7441Z" fill="#D2A749"/>
<mask id="mask1_942_58" style="mask-type:luminance" maskUnits="userSpaceOnUse" x="9" y="5" width="21" height="4">
<path d="M29.5954 5.99414H9.95703V8.10338H29.5954V5.99414Z" fill="white"/>
</mask>
<g mask="url(#mask1_942_58)">
<path d="M9.99023 8.04792V6.02955H10.7489C10.9043 6.02955 11.0347 6.05647 11.14 6.11036C11.246 6.1642 11.326 6.2398 11.38 6.33705C11.4348 6.43363 11.462 6.54631 11.462 6.67507C11.462 6.80452 11.4344 6.91686 11.3791 7.01211C11.3244 7.10675 11.2437 7.18002 11.137 7.23192C11.0304 7.28315 10.8993 7.30879 10.7439 7.30879H10.2036V7.00523H10.6945C10.7854 7.00523 10.8598 6.99274 10.9177 6.96776C10.9757 6.94217 11.0186 6.90504 11.0462 6.85642C11.0745 6.80713 11.0886 6.74668 11.0886 6.67507C11.0886 6.60348 11.0745 6.54237 11.0462 6.49174C11.0178 6.44051 10.9747 6.40177 10.9168 6.37546C10.8588 6.34854 10.7841 6.33505 10.6926 6.33505H10.3567V8.04792H9.99023ZM11.0353 7.13334L11.5362 8.04792H11.1271L10.6352 7.13334H11.0353ZM13.0511 8.04792V6.02955H14.3668V6.33605H13.4176V6.884H14.2987V7.19051H13.4176V7.74141H14.3747V8.04792H13.0511ZM17.0918 6.58438C17.0827 6.49835 17.0438 6.43129 16.9754 6.38333C16.9075 6.33539 16.8193 6.31141 16.7106 6.31141C16.6343 6.31141 16.5687 6.3229 16.5141 6.34587C16.4594 6.3689 16.4175 6.4001 16.3886 6.43951C16.3596 6.47892 16.3448 6.52394 16.3441 6.57456C16.3441 6.61658 16.3536 6.65305 16.3728 6.68396C16.3925 6.71483 16.4192 6.74108 16.4528 6.76278C16.4863 6.78381 16.5236 6.80153 16.5644 6.81601C16.6053 6.83044 16.6464 6.8426 16.6879 6.85248L16.8775 6.89977C16.9538 6.91753 17.0273 6.94151 17.0978 6.97171C17.1689 7.00195 17.2325 7.04003 17.2885 7.08605C17.3451 7.13206 17.3899 7.18756 17.4228 7.25262C17.4557 7.31762 17.4722 7.39388 17.4722 7.48125C17.4722 7.59953 17.442 7.70367 17.3813 7.79364C17.3207 7.883 17.2331 7.953 17.1185 8.00356C17.0047 8.05352 16.8667 8.07849 16.7047 8.07849C16.5473 8.07849 16.4107 8.05418 16.2947 8.00556C16.1795 7.95693 16.0892 7.88601 16.0241 7.7927C15.9596 7.69939 15.9247 7.58571 15.9194 7.45167H16.2799C16.2852 7.52199 16.3069 7.58044 16.3451 7.62712C16.3834 7.67375 16.433 7.7086 16.4942 7.73158C16.5561 7.75457 16.6253 7.76606 16.7017 7.76606C16.7814 7.76606 16.8512 7.75423 16.9111 7.73059C16.9717 7.70628 17.0191 7.67275 17.0534 7.63007C17.0876 7.58671 17.105 7.53609 17.1057 7.47831C17.105 7.42575 17.0895 7.38234 17.0593 7.34821C17.029 7.3134 16.9865 7.28448 16.9318 7.26144C16.8779 7.2378 16.8146 7.21677 16.7422 7.19839L16.5121 7.13927C16.3454 7.09654 16.2138 7.03181 16.1169 6.94512C16.0208 6.85775 15.9727 6.74175 15.9727 6.59721C15.9727 6.47831 16.005 6.37413 16.0695 6.28482C16.1347 6.19545 16.2233 6.12612 16.3353 6.07683C16.4471 6.02688 16.5739 6.00195 16.7155 6.00195C16.8591 6.00195 16.9849 6.02688 17.0929 6.07683C17.2015 6.12612 17.2868 6.19478 17.3488 6.28282C17.4107 6.37018 17.4426 6.47071 17.4446 6.58438H17.0918ZM19.0507 8.04792V6.02955H20.3664V6.33605H19.4171V6.884H20.2982V7.19051H19.4171V7.74141H20.3743V8.04792H19.0507ZM21.992 8.04792V6.02955H22.7506C22.9061 6.02955 23.0364 6.05647 23.1418 6.11036C23.2478 6.1642 23.3279 6.2398 23.3818 6.33705C23.4366 6.43363 23.4639 6.54631 23.4639 6.67507C23.4639 6.80452 23.4361 6.91686 23.3809 7.01211C23.3262 7.10675 23.2455 7.18002 23.1388 7.23192C23.0322 7.28315 22.9011 7.30879 22.7457 7.30879H22.2054V7.00523H22.6963C22.7872 7.00523 22.8616 6.99274 22.9196 6.96776C22.9775 6.94217 23.0203 6.90504 23.048 6.85642C23.0763 6.80713 23.0905 6.74668 23.0905 6.67507C23.0905 6.60348 23.0763 6.54237 23.048 6.49174C23.0196 6.44051 22.9765 6.40177 22.9185 6.37546C22.8607 6.34854 22.7858 6.33505 22.6943 6.33505H22.3584V8.04792H21.992ZM23.0372 7.13334L23.538 8.04792H23.129L22.6371 7.13334H23.0372ZM25.272 6.02955L25.7984 7.61824H25.8192L26.3447 6.02955H26.7477L26.0345 8.04792H25.5821L24.8699 6.02955H25.272ZM28.266 8.04792V6.02955H29.5817V6.33605H28.6324V6.884H29.5135V7.19051H28.6324V7.74141H29.5896V8.04792H28.266Z" fill="#D2A749"/>
</g>
<path d="M0.388484 0.193768H0.0546875V0.166016H2.02965V0.193768H1.72367L1.50114 0.443546V1.99772H1.64022L3.08668 0.332534L2.97541 0.193768H2.80851V0.166016H4.39405V0.193768H4.00461L3.8099 0.277028L2.22436 1.85895C2.22436 1.85895 2.75288 2.60402 3.08668 3.08009C3.42047 3.55615 3.643 3.88492 4.28279 4.21796L4.75566 4.27347V4.35673C4.75566 4.35673 3.97736 4.47815 3.50392 4.35673C3.05673 4.24203 2.55816 3.77391 2.3394 3.44088C2.12062 3.10784 1.64022 2.27525 1.64022 2.27525H1.50114V3.94043L1.72367 4.27347H2.1131V4.35673H0.11032V4.27347H0.388484L0.611016 3.94043V0.443546L0.388484 0.193768Z" fill="#D2A749"/>
<path d="M6.28516 0.166016V0.221521H6.5355C6.73022 0.221521 6.75804 0.443546 6.75804 0.443546V3.99594C6.75804 3.99594 6.67459 4.30122 6.59114 4.30122H6.28516V4.35673H9.28933V3.41312H9.26151C9.26151 3.41312 9.25317 3.55065 9.2337 3.63515C9.19058 3.82201 8.8999 3.99594 8.8999 3.99594C8.8999 3.99594 8.2633 4.1976 7.95414 3.99594C7.83842 3.92044 7.7038 3.74616 7.7038 3.74616V2.2475H8.67736C8.67736 2.2475 8.89751 2.32281 8.95554 2.44176C9.00783 2.54896 9.01116 2.74705 9.01116 2.74705H9.0668V1.72019C9.0668 1.72019 9.01116 1.85895 8.8999 1.91446C8.78864 1.96996 7.7038 1.91446 7.7038 1.91446V0.499053H8.76081C8.76081 0.499053 8.96744 0.617963 9.01116 0.748829C9.0421 0.841369 9.03898 0.998607 9.03898 0.998607H9.12243V0.166016H6.28516Z" fill="#D2A749"/>
<path d="M11.431 0.194348C11.3475 0.194348 11.1806 0.0826199 11.1806 0.0826199L11.125 0.0546875V1.08818H11.1806V0.725058C11.1806 0.725058 11.1806 0.529534 11.431 0.529534H12.5158V3.99311C12.5158 3.99311 12.5158 4.30036 12.3767 4.30036H11.9872V4.38417H14.0457V4.30036H13.6841C13.4615 4.30036 13.4615 3.99311 13.4615 3.99311L13.4338 0.529534H14.6298C14.7967 0.529534 14.8524 0.725058 14.8524 0.725058V1.08818H14.908V0.0826199C14.908 0.0826199 14.7133 0.194348 14.6298 0.194348H11.431Z" fill="#D2A749"/>
<path d="M35.1035 0.137947V0.0546875H37.0785V0.137947H36.7725C36.5778 0.137947 36.5778 0.387725 36.5778 0.387725V1.88639H38.4415V0.387725C38.4415 0.387725 38.4136 0.137947 38.2468 0.137947H37.8851V0.0546875H39.8879V0.137947H39.5541C39.3316 0.137947 39.3594 0.387725 39.3594 0.387725V3.99563C39.3594 3.99563 39.3594 4.21764 39.6098 4.21764H39.9714V4.3009H37.9686V4.21764H38.2468C38.4136 4.21764 38.4415 3.99563 38.4415 3.99563V2.19167H36.5778V3.99563C36.5778 3.99563 36.5778 4.21764 36.8281 4.21764H37.1898V4.3009H35.1035V4.21764H35.4651C35.6042 4.21764 35.6042 3.99563 35.6042 3.99563L35.6599 0.387725C35.6599 0.387725 35.6876 0.137947 35.4651 0.137947H35.1035Z" fill="#D2A749"/>
</g>
</g>
<defs>
<clipPath id="clip0_942_58">
<rect width="40" height="8.1039" fill="white"/>
</clipPath>
</defs>
</svg>
