<svg width="26" height="26" viewBox="0 0 26 26" fill="none" xmlns="http://www.w3.org/2000/svg">
<rect x="0.5" y="0.5" width="25" height="25" rx="1.5" stroke="#D79970"/>
<rect x="0.5" y="0.5" width="25" height="25" rx="1.5" stroke="url(#paint0_linear_2035_20)"/>
<path d="M12.2 12.1111H8.36C7.46392 12.1111 7.01587 12.1111 6.67362 12.3049C6.37256 12.4753 6.12779 12.7473 5.97439 13.0818C5.8 13.4621 5.8 13.9599 5.8 14.9556V21M20.2 21V7.84444C20.2 6.8488 20.2 6.35097 20.0256 5.97068C19.8722 5.63617 19.6274 5.36421 19.3264 5.19377C18.9841 5 18.5361 5 17.64 5H14.76C13.8639 5 13.4159 5 13.0736 5.19377C12.7726 5.36421 12.5278 5.63617 12.3744 5.97068C12.2 6.35097 12.2 6.8488 12.2 7.84444V21M21 21H5M15 8.55556H17.4M15 12.1111H17.4M15 15.6667H17.4" stroke="#D79970" stroke-linecap="round" stroke-linejoin="round"/>
<defs>
<linearGradient id="paint0_linear_2035_20" x1="0" y1="0" x2="15.2724" y2="31.2438" gradientUnits="userSpaceOnUse">
<stop stop-color="#D79970"/>
<stop offset="0.5" stop-color="#905D44"/>
<stop offset="1" stop-color="#D79970"/>
</linearGradient>
</defs>
</svg>
