<svg width="18" height="18" viewBox="0 0 18 18" fill="none" xmlns="http://www.w3.org/2000/svg">
<path d="M8.2 8.11111H4.36C3.46392 8.11111 3.01587 8.11111 2.67362 8.30488C2.37256 8.47532 2.12779 8.74728 1.97439 9.08179C1.8 9.46208 1.8 9.95991 1.8 10.9556V17M16.2 17V3.84444C16.2 2.8488 16.2 2.35097 16.0256 1.97068C15.8722 1.63617 15.6274 1.36421 15.3264 1.19377C14.9841 1 14.5361 1 13.64 1H10.76C9.86392 1 9.41587 1 9.07362 1.19377C8.77256 1.36421 8.52779 1.63617 8.37439 1.97068C8.2 2.35097 8.2 2.8488 8.2 3.84444V17M17 17H1M11 4.55556H13.4M11 8.11111H13.4M11 11.6667H13.4" stroke="#D79970" stroke-linecap="round" stroke-linejoin="round"/>
</svg>
