<svg width="18" height="18" viewBox="0 0 18 18" fill="none" xmlns="http://www.w3.org/2000/svg">
<path d="M4.39972 16.9674L8.99933 9.00067M12.999 2.07304C9.54874 0.0810366 5.23136 0.951439 2.79665 3.94744C2.55901 4.23986 2.44019 4.38607 2.40563 4.59556C2.37813 4.76224 2.41887 4.98312 2.50402 5.12902C2.61105 5.31239 2.80074 5.42191 3.18013 5.64095L14.8185 12.3604C15.1979 12.5794 15.3876 12.6889 15.5999 12.6899C15.7689 12.6907 15.9805 12.6156 16.1111 12.5084C16.2753 12.3738 16.3425 12.1977 16.4769 11.8457C17.8542 8.23922 16.4493 4.06505 12.999 2.07304ZM12.999 2.07304C11.4686 1.18946 8.43724 3.57478 6.22828 7.4008M12.999 2.07304C14.5294 2.95662 13.9793 6.77451 11.7704 10.6005M16.9987 17H1" stroke="#D79970" stroke-linecap="round" stroke-linejoin="round"/>
</svg>
