<svg width="26" height="26" viewBox="0 0 26 26" fill="none" xmlns="http://www.w3.org/2000/svg">
<rect x="0.5" y="0.5" width="25" height="25" rx="1.5" stroke="#D79970"/>
<rect x="0.5" y="0.5" width="25" height="25" rx="1.5" stroke="url(#paint0_linear_2041_21)"/>
<path d="M8.39972 20.9674L12.9993 13.0007M16.999 6.07304C13.5487 4.08104 9.23136 4.95144 6.79665 7.94744C6.55901 8.23986 6.44019 8.38607 6.40563 8.59556C6.37813 8.76224 6.41887 8.98312 6.50402 9.12902C6.61105 9.31239 6.80074 9.42191 7.18013 9.64095L18.8185 16.3604C19.1979 16.5794 19.3876 16.6889 19.5999 16.6899C19.7689 16.6907 19.9805 16.6156 20.1111 16.5084C20.2753 16.3738 20.3425 16.1977 20.4769 15.8457C21.8542 12.2392 20.4493 8.06505 16.999 6.07304ZM16.999 6.07304C15.4686 5.18946 12.4372 7.57478 10.2283 11.4008M16.999 6.07304C18.5294 6.95662 17.9793 10.7745 15.7704 14.6005M20.9987 21H5" stroke="#D79970" stroke-linecap="round" stroke-linejoin="round"/>
<defs>
<linearGradient id="paint0_linear_2041_21" x1="0" y1="0" x2="15.2724" y2="31.2438" gradientUnits="userSpaceOnUse">
<stop stop-color="#D79970"/>
<stop offset="0.5" stop-color="#905D44"/>
<stop offset="1" stop-color="#D79970"/>
</linearGradient>
</defs>
</svg>
