<svg width="16" height="13" viewBox="0 0 16 13" fill="none" xmlns="http://www.w3.org/2000/svg">
<path d="M3.43618 7.23697C4.38292 7.23697 5.32963 7.23697 6.27636 7.23697C6.2307 7.12108 6.18809 7.00521 6.14241 6.89236H3.5701C3.5275 7.00521 3.48184 7.12108 3.43618 7.23697Z" fill="url(#paint0_linear_159_60)"/>
<path d="M15.6257 11.9121C15.37 11.7565 15.1508 11.537 14.9712 11.296C14.6423 10.8599 14.5358 10.5184 14.5358 10.5184C14.3837 10.1189 13.641 8.30431 12.5174 5.57178C13.1387 4.36104 13.7534 3.15033 14.3744 1.9396C14.8585 1.0003 15.312 0.442204 15.854 0.341566C15.8783 0.338516 15.9058 0.335466 15.933 0.335466C15.9575 0.335466 15.9788 0.332417 16 0.332417C16 0.222627 16 0.112838 16 0C15.9513 0 15.9025 0 15.854 0.00304968H13.2359V0.344615C13.3211 0.347665 13.4003 0.353764 13.4855 0.356813C13.7839 0.39951 13.9941 0.4849 14.1188 0.637385C14.1188 0.637385 14.2497 0.799017 14.2467 1.05519C14.2435 1.33271 13.3881 3.09238 12.344 5.16007C11.729 3.66573 11.0138 1.92435 10.2254 0.00609937H8.42014C8.5296 0.268374 8.6393 0.530646 8.74576 0.786819C8.85245 1.03994 8.95591 1.29307 9.06238 1.54619C9.83256 3.39736 10.5845 5.25155 11.3487 7.10273C11.3152 7.16981 11.2787 7.23691 11.2452 7.30399C10.6819 8.38664 10.1279 9.44487 9.66813 10.3263C8.79449 7.99324 8.13701 6.30066 7.62257 4.96794C7.16898 3.77856 6.52362 2.09208 5.7291 0.00914905H3.91173C4.14918 0.625187 4.38661 1.24122 4.62406 1.85726L3.01065 6.2488L1.37291 10.7379C0.757987 11.9822 0 12.0188 0 12.0188V12.3116H3.51904V12.0188C3.51904 12.0188 2.20091 12.092 1.93607 11.1253C1.86605 10.8477 1.86605 10.5062 1.99088 10.067L2.78235 7.88955C2.98327 7.34365 3.18113 6.7947 3.379 6.2488L4.80976 2.34217C5.31205 3.64437 5.81129 4.94355 6.31356 6.2488L6.55101 6.88619C6.59972 7.00817 6.65147 7.13018 6.70017 7.25216L6.93458 7.88955C7.49774 9.36559 8.05779 10.8355 8.61805 12.3085L9.07762 12.3055C9.20856 12.0463 9.3395 11.787 9.47345 11.5278C9.59515 11.2899 9.72009 11.049 9.84179 10.8081C9.84179 10.805 9.8448 10.805 9.8448 10.7989C10.3713 9.77424 10.8919 8.74956 11.4186 7.7218C11.4521 7.65472 11.4856 7.59068 11.5191 7.52358C11.8997 8.44763 12.2863 9.36863 12.6759 10.2896C12.6941 10.3323 12.7458 10.5031 12.7853 10.7319C12.8768 11.2808 12.6819 11.6041 12.4262 11.784C12.0486 12.0585 11.5161 12.0341 11.5161 12.0341V12.3085H16V12.0341L15.8905 12.0219C15.8053 11.9975 15.7139 11.9609 15.6257 11.9121Z" fill="url(#paint1_linear_159_60)"/>
<defs>
<linearGradient id="paint0_linear_159_60" x1="8.00729" y1="-234.826" x2="8.00729" y2="187.66" gradientUnits="userSpaceOnUse">
<stop offset="0.0891892" stop-color="#AE6E56"/>
<stop offset="0.1151" stop-color="#C99179"/>
<stop offset="0.1416" stop-color="#DFAC95"/>
<stop offset="0.1684" stop-color="#EFC0A9"/>
<stop offset="0.195" stop-color="#F8CCB5"/>
<stop offset="0.2216" stop-color="#FBD0B9"/>
<stop offset="0.2635" stop-color="#F6CAB3"/>
<stop offset="0.3198" stop-color="#E9BAA2"/>
<stop offset="0.3324" stop-color="#E5B59D"/>
<stop offset="0.3355" stop-color="#E0AE96"/>
<stop offset="0.3492" stop-color="#CC957B"/>
<stop offset="0.365" stop-color="#BC8065"/>
<stop offset="0.3834" stop-color="#B07054"/>
<stop offset="0.4062" stop-color="#A76449"/>
<stop offset="0.4382" stop-color="#A25E42"/>
<stop offset="0.527" stop-color="#A15C40"/>
<stop offset="0.586" stop-color="#B96F50"/>
<stop offset="0.6559" stop-color="#CF7F5F"/>
<stop offset="0.7237" stop-color="#DC8A68"/>
<stop offset="0.7865" stop-color="#E08D6B"/>
<stop offset="0.7888" stop-color="#DD8B69"/>
<stop offset="0.8077" stop-color="#C7795A"/>
<stop offset="0.8298" stop-color="#B66C4E"/>
<stop offset="0.8571" stop-color="#AA6346"/>
<stop offset="0.8949" stop-color="#A35D41"/>
<stop offset="0.9944" stop-color="#A15C40"/>
</linearGradient>
<linearGradient id="paint1_linear_159_60" x1="8.00214" y1="0.059713" x2="8.00214" y2="12.2884" gradientUnits="userSpaceOnUse">
<stop offset="0.0891892" stop-color="#AE6E56"/>
<stop offset="0.1151" stop-color="#C99179"/>
<stop offset="0.1416" stop-color="#DFAC95"/>
<stop offset="0.1684" stop-color="#EFC0A9"/>
<stop offset="0.195" stop-color="#F8CCB5"/>
<stop offset="0.2216" stop-color="#FBD0B9"/>
<stop offset="0.2635" stop-color="#F6CAB3"/>
<stop offset="0.3198" stop-color="#E9BAA2"/>
<stop offset="0.3324" stop-color="#E5B59D"/>
<stop offset="0.3355" stop-color="#E0AE96"/>
<stop offset="0.3492" stop-color="#CC957B"/>
<stop offset="0.365" stop-color="#BC8065"/>
<stop offset="0.3834" stop-color="#B07054"/>
<stop offset="0.4062" stop-color="#A76449"/>
<stop offset="0.4382" stop-color="#A25E42"/>
<stop offset="0.527" stop-color="#A15C40"/>
<stop offset="0.586" stop-color="#B96F50"/>
<stop offset="0.6559" stop-color="#CF7F5F"/>
<stop offset="0.7237" stop-color="#DC8A68"/>
<stop offset="0.7865" stop-color="#E08D6B"/>
<stop offset="0.7888" stop-color="#DD8B69"/>
<stop offset="0.8077" stop-color="#C7795A"/>
<stop offset="0.8298" stop-color="#B66C4E"/>
<stop offset="0.8571" stop-color="#AA6346"/>
<stop offset="0.8949" stop-color="#A35D41"/>
<stop offset="0.9944" stop-color="#A15C40"/>
</linearGradient>
</defs>
</svg>
