<svg width="18" height="16" viewBox="0 0 18 16" fill="none" xmlns="http://www.w3.org/2000/svg">
<path d="M5.4 4.2H7.6M5.4 7.4H7.6M5.4 10.6H7.6M10.4 4.2H12.6M10.4 7.4H12.6M10.4 10.6H12.6M15.4 15.4V3.56C15.4 2.66392 15.4 2.21587 15.2256 1.87362C15.0722 1.57256 14.8274 1.32779 14.5264 1.17439C14.1841 1 13.7361 1 12.84 1H5.16C4.26392 1 3.81587 1 3.47362 1.17439C3.17256 1.32779 2.92779 1.57256 2.77439 1.87362C2.6 2.21587 2.6 2.66392 2.6 3.56V15.4M17 15.4H1" stroke="#D79970" stroke-linecap="round" stroke-linejoin="round"/>
</svg>
