<svg width="18" height="15" viewBox="0 0 18 15" fill="none" xmlns="http://www.w3.org/2000/svg">
<path d="M4.2 6.6V9.8M13.8 5V8.2M13 1C14.959 1 16.0185 1.29981 16.5457 1.53235C16.6159 1.56332 16.651 1.57881 16.7523 1.6755C16.8131 1.73345 16.9239 1.90351 16.9524 1.98247C17 2.11419 17 2.18619 17 2.33019V10.9289C17 11.6559 17 12.0194 16.891 12.2063C16.7801 12.3963 16.6731 12.4847 16.4656 12.5577C16.2615 12.6296 15.8496 12.5504 15.0257 12.3921C14.4491 12.2813 13.7652 12.2 13 12.2C10.6 12.2 8.2 13.8 5 13.8C3.04103 13.8 1.98149 13.5002 1.45431 13.2676C1.3841 13.2367 1.34899 13.2212 1.24768 13.1245C1.18695 13.0665 1.07609 12.8965 1.04758 12.8175C1 12.6858 1 12.6138 1 12.4698L1 3.87108C1 3.14407 1 2.78056 1.10902 2.59371C1.21992 2.40365 1.32687 2.31529 1.53445 2.24225C1.73851 2.17044 2.15043 2.24959 2.97426 2.40788C3.55089 2.51867 4.23478 2.6 5 2.6C7.4 2.6 9.8 1 13 1ZM11 7.4C11 8.50457 10.1046 9.4 9 9.4C7.89543 9.4 7 8.50457 7 7.4C7 6.29543 7.89543 5.4 9 5.4C10.1046 5.4 11 6.29543 11 7.4Z" stroke="#D79970" stroke-linecap="round" stroke-linejoin="round"/>
</svg>
