<svg width="26" height="26" viewBox="0 0 26 26" fill="none" xmlns="http://www.w3.org/2000/svg">
<rect x="0.5" y="0.5" width="25" height="25" rx="1.5" stroke="#D79970"/>
<rect x="0.5" y="0.5" width="25" height="25" rx="1.5" stroke="url(#paint0_linear_2041_22)"/>
<path d="M8.2 12.6V15.8M17.8 11V14.2M17 7C18.959 7 20.0185 7.29981 20.5457 7.53235C20.6159 7.56332 20.651 7.57881 20.7523 7.6755C20.8131 7.73345 20.9239 7.90351 20.9524 7.98247C21 8.11419 21 8.18619 21 8.33019V16.9289C21 17.6559 21 18.0194 20.891 18.2063C20.7801 18.3963 20.6731 18.4847 20.4656 18.5577C20.2615 18.6296 19.8496 18.5504 19.0257 18.3921C18.4491 18.2813 17.7652 18.2 17 18.2C14.6 18.2 12.2 19.8 9 19.8C7.04103 19.8 5.98149 19.5002 5.45431 19.2676C5.3841 19.2367 5.34899 19.2212 5.24768 19.1245C5.18695 19.0665 5.07609 18.8965 5.04758 18.8175C5 18.6858 5 18.6138 5 18.4698L5 9.87108C5 9.14407 5 8.78056 5.10902 8.59371C5.21992 8.40365 5.32687 8.31529 5.53445 8.24225C5.73851 8.17044 6.15043 8.24959 6.97426 8.40788C7.55089 8.51867 8.23478 8.6 9 8.6C11.4 8.6 13.8 7 17 7ZM15 13.4C15 14.5046 14.1046 15.4 13 15.4C11.8954 15.4 11 14.5046 11 13.4C11 12.2954 11.8954 11.4 13 11.4C14.1046 11.4 15 12.2954 15 13.4Z" stroke="#D79970" stroke-linecap="round" stroke-linejoin="round"/>
<defs>
<linearGradient id="paint0_linear_2041_22" x1="0" y1="0" x2="15.2724" y2="31.2438" gradientUnits="userSpaceOnUse">
<stop stop-color="#D79970"/>
<stop offset="0.5" stop-color="#905D44"/>
<stop offset="1" stop-color="#D79970"/>
</linearGradient>
</defs>
</svg>
