<svg width="40" height="5" viewBox="0 0 40 5" fill="none" xmlns="http://www.w3.org/2000/svg">
<g clip-path="url(#clip0_1089_205)">
<path d="M6.8093 3.8284C7.21097 3.4473 7.52955 2.98315 7.7441 2.46654C8.06312 1.68665 8.03625 1.08 7.66348 0.646598C7.2907 0.213196 6.58577 -0.00233007 5.54865 1.89952e-05H2.04622L1.72891 0.782257H4.1422C5.3737 0.782257 5.73045 1.40946 5.3051 2.44892C5.05982 3.0497 4.8437 3.6029 4.33085 3.84777C3.86263 4.07505 3.37892 4.14025 2.5179 4.14025H1.40131L2.23318 2.11418H1.18176L0 4.99473H3.1731C3.88445 5.02188 4.5958 4.94175 5.2845 4.75688C5.85283 4.57013 6.37365 4.256 6.8093 3.83722V3.8284ZM29.6385 1.89952e-05H28.3385L23.3403 4.78683L25.294 1.89952e-05H23.1517L20.5634 2.07541L19.2359 3.19945H19.1758L19.8019 1.56802L19.0335 1.89952e-05H16.8809L14.9239 4.79388L13.797 1.89952e-05H11.4386L6.22958 4.99473H7.5314L8.8624 3.68922H12.1453L12.406 4.99473H15.893L17.1536 1.90805C17.2239 1.73534 17.2852 1.55891 17.3372 1.37951C17.348 1.55703 17.3911 1.7309 17.4641 1.89219L18.5721 4.46793H18.7608L21.9322 1.90276C22.121 1.73683 22.3007 1.56039 22.4707 1.37422C22.3484 1.60913 22.2626 1.78531 22.2134 1.90276L20.9511 5H25.6798L26.9972 3.68745H30.4053L30.6798 5H31.8803L30.7105 1.89952e-05H29.6385ZM9.5502 3.0074L11.6273 0.974293L12.0029 3.0074H9.5502ZM27.6882 3.0074L29.8202 0.880917L30.2628 2.99507L27.6882 3.0074ZM39.9675 0.0563978L39.9845 0.0123529H36.4823C35.5612 -0.0160838 34.6495 0.207684 33.8408 0.660693C33.1363 1.06614 32.584 1.70174 32.2713 2.46654C32.078 2.88873 32.018 3.36243 32.0998 3.82135C32.1465 4.0279 32.2412 4.21965 32.3765 4.37992C32.5115 4.54017 32.6828 4.66415 32.875 4.74102C33.2542 4.90837 33.8905 4.99295 34.779 4.99295H37.9453L38.2607 4.20015H36.4787C35.621 4.20015 35.0465 4.0874 34.7635 3.86013C34.4497 3.61523 34.484 3.04792 34.7293 2.45068C35.1528 1.41122 36.043 0.762878 37.2728 0.762878H38.6553L38.338 1.54335H39.3895L40 0.0458248L39.9675 0.0563978Z" fill="#D7B05B"/>
</g>
<defs>
<clipPath id="clip0_1089_205">
<rect width="40" height="5" fill="white"/>
</clipPath>
</defs>
</svg>
