<svg width="144" height="18" viewBox="0 0 144 18" fill="none" xmlns="http://www.w3.org/2000/svg">
<path d="M24.5135 13.7822C25.9595 12.4103 27.1064 10.7393 27.8788 8.87953C29.0273 6.07192 28.9305 3.888 27.5885 2.32775C26.2465 0.767506 23.7088 -0.00838824 19.9751 6.83825e-05H7.3664L6.22408 2.81613H14.9119C19.3453 2.81613 20.6296 5.07404 19.0984 8.81609C18.2154 10.9789 17.4373 12.9704 15.5911 13.852C13.9054 14.6702 12.1641 14.9049 9.06444 14.9049H5.04472L8.03944 7.61103H4.25435L0 17.981H11.4232C13.984 18.0788 16.5449 17.7903 19.0242 17.1248C21.0702 16.4524 22.9451 15.3216 24.5135 13.814V13.7822ZM106.699 6.83825e-05H102.019L84.0252 17.2326L91.0584 6.83825e-05H83.346L74.0284 7.47149L69.2491 11.518H69.0331L71.2868 5.64486L68.5206 6.83825e-05H60.7713L53.7259 17.2579L49.6692 6.83825e-05H41.1791L22.4265 17.981H27.113L31.9046 13.2812H43.723L44.6615 17.981H57.2147L61.7531 6.86896C62.006 6.24722 62.2266 5.61208 62.4137 4.96623C62.4529 5.60529 62.6079 6.23124 62.8708 6.81188L66.8596 16.0845H67.5388L78.9558 6.84994C79.6355 6.2526 80.2827 5.61739 80.8946 4.94719C80.4541 5.79286 80.1454 6.42711 79.9684 6.84994L75.4239 18H92.4471L97.1901 13.2748H109.459L110.447 18H114.769L110.558 6.83825e-05H106.699ZM34.3807 10.8266L41.8583 3.50745L43.2104 10.8266H34.3807ZM99.6777 10.8266L107.353 3.1713L108.946 10.7823L99.6777 10.8266ZM143.883 0.203032L143.944 0.0444704H131.336C128.02 -0.0579017 124.738 0.747663 121.827 2.37849C119.291 3.8381 117.302 6.12626 116.177 8.87953C115.481 10.3994 115.265 12.1047 115.559 13.7569C115.727 14.5004 116.068 15.1907 116.555 15.7677C117.041 16.3446 117.658 16.7909 118.35 17.0677C119.715 17.6701 122.006 17.9746 125.204 17.9746H136.603L137.739 15.1205H131.323C128.236 15.1205 126.167 14.7146 125.149 13.8965C124.019 13.0148 124.142 10.9725 125.025 8.82245C126.55 5.08039 129.755 2.74636 134.182 2.74636H139.159L138.017 5.55607H141.802L144 0.164969L143.883 0.203032Z" fill="white"/>
</svg>
