<svg width="400" height="42" viewBox="0 0 400 42" fill="none" xmlns="http://www.w3.org/2000/svg">
<path d="M229.071 8.11678C229.042 8.13407 227.509 9.05046 227.48 9.06775C226.045 10.0475 223.97 11.5115 223.959 15.0964C223.947 17.2231 224.016 19.0328 223.988 20.2143C223.964 21.148 223.659 22.0529 223.106 22.7791L215.458 32.8709V39.0206L243.831 0.520508L229.071 8.11678ZM227.751 15.9609C226.938 12.6065 231.422 11.1541 231.538 11.5576C231.595 11.7593 228.65 15.1367 227.924 16.0358C227.861 16.1107 227.768 16.0589 227.745 15.9666" fill="#D2A749"/>
<path d="M228.569 21.8512L225.232 26.2602C225.152 26.364 225.111 26.4965 225.106 26.6348L225.031 32.8364C225.031 33.0381 224.927 33.2283 224.766 33.3378L223.913 33.9141C221.959 35.234 220.8 37.4529 220.841 39.8102L220.864 41.1415L227.607 35.9659C228.097 35.5913 228.466 35.0553 228.65 34.4386C228.731 34.162 228.771 33.8795 228.765 33.5914L228.564 21.8454L228.569 21.8512Z" fill="#D2A749"/>
<path d="M187.09 0.520508L215.458 39.0263V32.8767L207.809 22.7848C207.256 22.0586 206.951 21.1538 206.928 20.2201C206.905 19.0386 206.968 17.2288 206.956 15.1021C206.945 11.5115 204.87 10.0533 203.435 9.07352C203.406 9.05623 201.873 8.13407 201.844 8.12254L187.09 0.520508ZM202.991 16.0243C202.265 15.1252 199.32 11.7478 199.378 11.5461C199.493 11.1426 203.977 12.595 203.164 15.9494C203.141 16.0473 203.049 16.0934 202.985 16.0185" fill="#D2A749"/>
<path d="M202.351 21.8512L205.689 26.2602C205.769 26.364 205.81 26.4965 205.815 26.6348L205.89 32.8364C205.89 33.0381 205.994 33.2283 206.155 33.3378L206.674 33.6894C208.835 35.1475 210.115 37.6028 210.069 40.2079L210.051 41.1415L203.308 35.9659C202.818 35.5913 202.449 35.0553 202.265 34.4386C202.184 34.162 202.144 33.8795 202.15 33.5914L202.351 21.8454V21.8512Z" fill="#D2A749"/>
<path d="M5.68964 29.1057C5.99525 29.1417 6.34579 29.1687 6.74128 29.1867C7.15475 29.2046 7.60417 29.2136 8.08954 29.2136C8.70075 29.2136 9.30297 29.1867 9.8962 29.1327C10.5074 29.0608 11.0827 28.9259 11.622 28.7281C12.1792 28.5122 12.6916 28.2155 13.159 27.8378C13.6444 27.4422 14.0758 26.9296 14.4533 26.3002C15.0286 25.329 15.4241 24.3399 15.6398 23.3327C15.8735 22.3076 15.9903 21.1926 15.9903 19.9877C15.9903 18.5669 15.8555 17.281 15.5858 16.13C15.3162 14.961 14.8668 13.9719 14.2376 13.1626C13.6264 12.3353 12.8084 11.6969 11.7838 11.2473C10.7591 10.7977 9.49172 10.5728 7.98168 10.5728C7.53226 10.5728 7.11879 10.5818 6.74128 10.5998C6.38175 10.6178 6.0312 10.6358 5.68964 10.6538V29.1057ZM0 29.1057H2.99313V10.6538H0V10.2761H5.01551C5.26719 10.2761 5.51886 10.2761 5.77054 10.2761C6.02221 10.2581 6.27389 10.2401 6.52556 10.2222C6.77724 10.2222 7.02891 10.2222 7.28058 10.2222C7.53226 10.2042 7.78393 10.1952 8.03561 10.1952C8.57491 10.1952 9.05129 10.2042 9.46476 10.2222C9.8962 10.2401 10.2917 10.2761 10.6512 10.3301C11.0287 10.366 11.3793 10.429 11.7029 10.5189C12.0444 10.5908 12.404 10.6897 12.7815 10.8156C13.8781 11.1753 14.8218 11.6609 15.6128 12.2724C16.4218 12.8659 17.0779 13.5582 17.5813 14.3496C18.1026 15.1409 18.4801 16.0041 18.7138 16.9393C18.9655 17.8745 19.0913 18.8546 19.0913 19.8798C19.0913 21.0667 18.9475 22.1368 18.6599 23.09C18.3722 24.0251 17.9768 24.8614 17.4734 25.5988C16.9701 26.3181 16.3768 26.9476 15.6937 27.4871C15.0286 28.0087 14.3095 28.4313 13.5365 28.755C13.1051 28.9529 12.6916 29.1057 12.2961 29.2136C11.9186 29.3215 11.5231 29.4025 11.1096 29.4564C10.7141 29.5104 10.2737 29.5463 9.78834 29.5643C9.30297 29.5823 8.74569 29.5913 8.1165 29.5913C7.84685 29.5913 7.55922 29.5823 7.25362 29.5643C6.94801 29.5643 6.64241 29.5553 6.3368 29.5373C6.0312 29.5194 5.72559 29.5014 5.41999 29.4834C5.13236 29.4834 4.85372 29.4834 4.58407 29.4834H0V29.1057Z" fill="white"/>
<path d="M26.1138 19.8528C26.1138 21.4714 26.2217 22.8831 26.4374 24.0881C26.6531 25.293 27.0127 26.3002 27.516 27.1095C28.0194 27.9188 28.6665 28.5212 29.4575 28.9169C30.2485 29.3125 31.2282 29.5104 32.3967 29.5104C33.5472 29.5104 34.518 29.3125 35.3089 28.9169C36.1179 28.5212 36.774 27.9188 37.2774 27.1095C37.7807 26.3002 38.1403 25.293 38.356 24.0881C38.5717 22.8831 38.6796 21.4714 38.6796 19.8528C38.6796 18.6119 38.5987 17.4159 38.4369 16.2649C38.2751 15.0959 37.9605 14.0618 37.4931 13.1626C37.0437 12.2454 36.4055 11.517 35.5786 10.9775C34.7696 10.438 33.709 10.1682 32.3967 10.1682C31.0844 10.1682 30.0148 10.438 29.1879 10.9775C28.3789 11.517 27.7407 12.2454 27.2733 13.1626C26.8239 14.0618 26.5183 15.0959 26.3565 16.2649C26.1947 17.4159 26.1138 18.6119 26.1138 19.8528ZM23.0128 19.8528C23.0128 18.414 23.2915 17.0832 23.8488 15.8602C24.424 14.6373 25.1521 13.5762 26.0329 12.677C26.9318 11.7778 27.9385 11.0764 29.053 10.5728C30.1676 10.0513 31.2821 9.79053 32.3967 9.79053C33.5832 9.79053 34.7337 10.0513 35.8482 10.5728C36.9808 11.0764 37.9875 11.7778 38.8683 12.677C39.7492 13.5762 40.4503 14.6373 40.9716 15.8602C41.5109 17.0832 41.7806 18.414 41.7806 19.8528C41.7806 21.1117 41.5379 22.3436 41.0525 23.5486C40.5671 24.7535 39.902 25.8236 39.0571 26.7588C38.2122 27.694 37.2145 28.4493 36.064 29.0248C34.9314 29.6003 33.709 29.888 32.3967 29.888C31.0484 29.888 29.7991 29.6093 28.6486 29.0518C27.498 28.4943 26.5003 27.7569 25.6554 26.8397C24.8285 25.9045 24.1813 24.8344 23.7139 23.6295C23.2465 22.4066 23.0128 21.1476 23.0128 19.8528Z" fill="white"/>
<path d="M42.8714 10.2761H50.9879V10.6538H48.1835L53.7383 26.3002H53.7923L57.3786 16.3458L55.3293 10.6538H53.0642V10.2761H61.1537V10.6538H58.2146L63.7694 26.3002H63.8233L69.486 10.6538H66.6007V10.2761H72.3712V10.6538H69.9444L62.9604 29.888H62.2863L57.6483 16.9393H57.5943L52.9024 29.888H52.1744L45.2983 10.6538H42.8714V10.2761Z" fill="white"/>
<path d="M72.6738 29.1057H75.6669V10.6538H72.6738V10.2761H78.4443L87.5585 24.9783H87.6124V10.6538H84.6193V10.2761H91.01V10.6538H88.0169V29.8611H87.4776L76.1253 11.7598H76.0714V29.1057H79.0645V29.4834H72.6738V29.1057Z" fill="white"/>
<path d="M96.4484 29.1057H99.4415V10.6538H97.8775C97.518 10.6538 97.1135 10.6897 96.6641 10.7617C96.2147 10.8156 95.7562 10.9865 95.2888 11.2742C94.8394 11.562 94.399 12.0206 93.9676 12.65C93.5541 13.2615 93.1946 14.1158 92.889 15.2128H92.5923V10.2761H108.987V15.2128H108.691C108.385 14.1158 108.016 13.2615 107.585 12.65C107.171 12.0206 106.731 11.562 106.264 11.2742C105.814 10.9865 105.365 10.8156 104.915 10.7617C104.466 10.6897 104.062 10.6538 103.702 10.6538H102.138V29.1057H105.131V29.4834H96.4484V29.1057Z" fill="white"/>
<path d="M114.672 19.8528C114.672 21.4714 114.78 22.8831 114.996 24.0881C115.211 25.293 115.571 26.3002 116.074 27.1095C116.578 27.9188 117.225 28.5212 118.016 28.9169C118.807 29.3125 119.787 29.5104 120.955 29.5104C122.106 29.5104 123.076 29.3125 123.867 28.9169C124.676 28.5212 125.332 27.9188 125.836 27.1095C126.339 26.3002 126.699 25.293 126.914 24.0881C127.13 22.8831 127.238 21.4714 127.238 19.8528C127.238 18.6119 127.157 17.4159 126.995 16.2649C126.833 15.0959 126.519 14.0618 126.051 13.1626C125.602 12.2454 124.964 11.517 124.137 10.9775C123.328 10.438 122.267 10.1682 120.955 10.1682C119.643 10.1682 118.573 10.438 117.746 10.9775C116.937 11.517 116.299 12.2454 115.832 13.1626C115.382 14.0618 115.077 15.0959 114.915 16.2649C114.753 17.4159 114.672 18.6119 114.672 19.8528ZM111.571 19.8528C111.571 18.414 111.85 17.0832 112.407 15.8602C112.982 14.6373 113.71 13.5762 114.591 12.677C115.49 11.7778 116.497 11.0764 117.611 10.5728C118.726 10.0513 119.84 9.79053 120.955 9.79053C122.141 9.79053 123.292 10.0513 124.407 10.5728C125.539 11.0764 126.546 11.7778 127.427 12.677C128.308 13.5762 129.009 14.6373 129.53 15.8602C130.069 17.0832 130.339 18.414 130.339 19.8528C130.339 21.1117 130.096 22.3436 129.611 23.5486C129.125 24.7535 128.46 25.8236 127.615 26.7588C126.77 27.694 125.773 28.4493 124.622 29.0248C123.49 29.6003 122.267 29.888 120.955 29.888C119.607 29.888 118.357 29.6093 117.207 29.0518C116.056 28.4943 115.059 27.7569 114.214 26.8397C113.387 25.9045 112.74 24.8344 112.272 23.6295C111.805 22.4066 111.571 21.1476 111.571 19.8528Z" fill="white"/>
<path d="M131.43 10.2761H139.546V10.6538H136.742L142.297 26.3002H142.351L145.937 16.3458L143.888 10.6538H141.623V10.2761H149.712V10.6538H146.773L152.328 26.3002H152.382L158.044 10.6538H155.159V10.2761H160.93V10.6538H158.503L151.519 29.888H150.845L146.207 16.9393H146.153L141.461 29.888H140.733L133.857 10.6538H131.43V10.2761Z" fill="white"/>
<path d="M161.232 29.1057H164.225V10.6538H161.232V10.2761H167.003L176.117 24.9783H176.171V10.6538H173.178V10.2761H179.568V10.6538H176.575V29.8611H176.036L164.684 11.7598H164.63V29.1057H167.623V29.4834H161.232V29.1057Z" fill="white"/>
<path d="M255.183 29.1057H258.176V10.6538H256.612C256.253 10.6538 255.848 10.6897 255.399 10.7617C254.949 10.8156 254.491 10.9865 254.024 11.2742C253.574 11.562 253.134 12.0206 252.702 12.65C252.289 13.2615 251.929 14.1158 251.624 15.2128H251.327V10.2761H267.722V15.2128H267.425C267.12 14.1158 266.751 13.2615 266.32 12.65C265.906 12.0206 265.466 11.562 264.998 11.2742C264.549 10.9865 264.1 10.8156 263.65 10.7617C263.201 10.6897 262.796 10.6538 262.437 10.6538H260.873V29.1057H263.866V29.4834H255.183V29.1057Z" fill="white"/>
<path d="M269.545 29.1057H272.538V10.6538H269.545V10.2761H284.969V14.943H284.672C284.438 14.2417 284.187 13.6302 283.917 13.1086C283.647 12.5691 283.324 12.1195 282.946 11.7598C282.569 11.3821 282.119 11.1034 281.598 10.9235C281.077 10.7437 280.448 10.6538 279.71 10.6538H275.234V18.9895H276.987C277.58 18.9895 278.084 18.9356 278.497 18.8277C278.911 18.7198 279.261 18.5219 279.549 18.2342C279.854 17.9284 280.106 17.5238 280.304 17.0202C280.519 16.4987 280.726 15.8333 280.924 15.024H281.221V23.4137H280.924C280.798 22.8921 280.663 22.3886 280.519 21.903C280.394 21.4174 280.205 20.9858 279.953 20.6081C279.719 20.2304 279.396 19.9337 278.982 19.7179C278.587 19.4841 278.066 19.3672 277.418 19.3672H275.234V29.1057H280.331C281.319 29.1057 282.137 28.8989 282.784 28.4853C283.45 28.0536 283.989 27.5501 284.402 26.9746C284.816 26.3811 285.121 25.7696 285.319 25.1402C285.517 24.5107 285.643 23.9892 285.697 23.5755H285.993V29.4834H269.545V29.1057Z" fill="white"/>
<path d="M294.22 18.9895H296.701C297.205 18.9895 297.663 18.9266 298.076 18.8007C298.49 18.6748 298.84 18.459 299.128 18.1533C299.434 17.8295 299.667 17.3979 299.829 16.8584C299.991 16.3188 300.072 15.6354 300.072 14.8082C300.072 13.873 299.946 13.1266 299.694 12.5691C299.461 11.9936 299.146 11.562 298.751 11.2742C298.373 10.9865 297.942 10.7977 297.456 10.7077C296.989 10.6178 296.521 10.5728 296.054 10.5728C295.73 10.5728 295.398 10.5818 295.056 10.5998C294.733 10.5998 294.454 10.6178 294.22 10.6538V18.9895ZM288.531 29.1057H291.524V10.6538H288.531V10.2761H293.654C293.87 10.2761 294.086 10.2761 294.301 10.2761C294.517 10.2581 294.733 10.2401 294.949 10.2222C295.164 10.2222 295.38 10.2222 295.596 10.2222C295.811 10.2042 296.027 10.1952 296.243 10.1952C297.303 10.1952 298.238 10.2581 299.047 10.384C299.856 10.4919 300.611 10.8246 301.312 11.3821C301.941 11.8677 302.382 12.4162 302.634 13.0277C302.903 13.6392 303.038 14.2147 303.038 14.7542C303.038 15.024 302.984 15.3747 302.876 15.8063C302.786 16.2199 302.571 16.6516 302.229 17.1012C301.906 17.5328 301.429 17.9374 300.8 18.3151C300.171 18.6748 299.335 18.9176 298.292 19.0435V19.0974C298.58 19.1334 298.966 19.2053 299.452 19.3132C299.955 19.4032 300.458 19.565 300.962 19.7988C301.483 20.0326 301.959 20.3473 302.391 20.743C302.822 21.1207 303.128 21.6152 303.308 22.2267C303.416 22.5864 303.487 23 303.523 23.4676C303.577 23.9172 303.613 24.3848 303.631 24.8704C303.667 25.356 303.694 25.8236 303.712 26.2732C303.748 26.7228 303.802 27.1005 303.874 27.4062C303.982 27.8738 304.153 28.2964 304.386 28.6741C304.62 29.0518 304.998 29.2406 305.519 29.2406C305.753 29.2406 305.995 29.1956 306.247 29.1057C306.499 29.0158 306.723 28.8719 306.921 28.6741L307.164 28.9708C307.074 29.0428 306.966 29.1237 306.84 29.2136C306.732 29.2856 306.588 29.3575 306.409 29.4294C306.229 29.5014 306.004 29.5553 305.735 29.5913C305.483 29.6453 305.168 29.6722 304.791 29.6722C304.072 29.6722 303.469 29.5823 302.984 29.4025C302.517 29.2226 302.139 28.9619 301.852 28.6201C301.564 28.2605 301.348 27.8288 301.204 27.3253C301.079 26.8037 300.989 26.2013 300.935 25.5178L300.746 23.063C300.674 22.1638 300.494 21.4624 300.207 20.9588C299.919 20.4552 299.578 20.0866 299.182 19.8528C298.805 19.619 298.409 19.4841 297.996 19.4481C297.582 19.3942 297.223 19.3672 296.917 19.3672H294.22V29.1057H297.214V29.4834H288.531V29.1057Z" fill="white"/>
<path d="M313.681 18.9895H316.161C316.665 18.9895 317.123 18.9266 317.537 18.8007C317.95 18.6748 318.301 18.459 318.588 18.1533C318.894 17.8295 319.128 17.3979 319.289 16.8584C319.451 16.3188 319.532 15.6354 319.532 14.8082C319.532 13.873 319.406 13.1266 319.155 12.5691C318.921 11.9936 318.606 11.562 318.211 11.2742C317.833 10.9865 317.402 10.7977 316.916 10.7077C316.449 10.6178 315.982 10.5728 315.514 10.5728C315.191 10.5728 314.858 10.5818 314.517 10.5998C314.193 10.5998 313.914 10.6178 313.681 10.6538V18.9895ZM307.991 29.1057H310.984V10.6538H307.991V10.2761H313.114C313.33 10.2761 313.546 10.2761 313.762 10.2761C313.977 10.2581 314.193 10.2401 314.409 10.2222C314.624 10.2222 314.84 10.2222 315.056 10.2222C315.272 10.2042 315.487 10.1952 315.703 10.1952C316.764 10.1952 317.698 10.2581 318.507 10.384C319.316 10.4919 320.071 10.8246 320.772 11.3821C321.402 11.8677 321.842 12.4162 322.094 13.0277C322.363 13.6392 322.498 14.2147 322.498 14.7542C322.498 15.024 322.444 15.3747 322.336 15.8063C322.247 16.2199 322.031 16.6516 321.689 17.1012C321.366 17.5328 320.889 17.9374 320.26 18.3151C319.631 18.6748 318.795 18.9176 317.752 19.0435V19.0974C318.04 19.1334 318.426 19.2053 318.912 19.3132C319.415 19.4032 319.919 19.565 320.422 19.7988C320.943 20.0326 321.42 20.3473 321.851 20.743C322.283 21.1207 322.588 21.6152 322.768 22.2267C322.876 22.5864 322.948 23 322.984 23.4676C323.038 23.9172 323.073 24.3848 323.091 24.8704C323.127 25.356 323.154 25.8236 323.172 26.2732C323.208 26.7228 323.262 27.1005 323.334 27.4062C323.442 27.8738 323.613 28.2964 323.846 28.6741C324.08 29.0518 324.458 29.2406 324.979 29.2406C325.213 29.2406 325.455 29.1956 325.707 29.1057C325.959 29.0158 326.183 28.8719 326.381 28.6741L326.624 28.9708C326.534 29.0428 326.426 29.1237 326.3 29.2136C326.192 29.2856 326.049 29.3575 325.869 29.4294C325.689 29.5014 325.464 29.5553 325.195 29.5913C324.943 29.6453 324.628 29.6722 324.251 29.6722C323.532 29.6722 322.93 29.5823 322.444 29.4025C321.977 29.2226 321.599 28.9619 321.312 28.6201C321.024 28.2605 320.808 27.8288 320.665 27.3253C320.539 26.8037 320.449 26.2013 320.395 25.5178L320.206 23.063C320.134 22.1638 319.955 21.4624 319.667 20.9588C319.379 20.4552 319.038 20.0866 318.642 19.8528C318.265 19.619 317.869 19.4841 317.456 19.4481C317.042 19.3942 316.683 19.3672 316.377 19.3672H313.681V29.1057H316.674V29.4834H307.991V29.1057Z" fill="white"/>
<path d="M335.379 13.3784L332.413 21.2286H338.345L335.379 13.3784ZM326.615 29.1057H328.988L336.269 9.79053H336.916L344.25 29.1057H346.65V29.4834H338.345V29.1057H341.338L338.507 21.6062H332.251L329.42 29.1057H332.413V29.4834H326.615V29.1057Z" fill="white"/>
<path d="M363.906 29.4834H363.502C363.376 29.3395 363.232 29.2136 363.07 29.1057C362.909 28.9798 362.657 28.9169 362.315 28.9169C362.046 28.9169 361.749 28.9708 361.426 29.0787C361.12 29.1687 360.76 29.2766 360.347 29.4025C359.951 29.5284 359.502 29.6363 358.999 29.7262C358.495 29.8341 357.938 29.888 357.327 29.888C356.194 29.888 355.089 29.6812 354.01 29.2676C352.95 28.8539 351.943 28.1795 350.99 27.2443C350.109 26.3631 349.372 25.32 348.779 24.1151C348.186 22.9101 347.889 21.5163 347.889 19.9337C347.889 18.5849 348.132 17.299 348.617 16.0761C349.102 14.8531 349.777 13.7741 350.639 12.8389C351.502 11.9037 352.518 11.1663 353.687 10.6268C354.855 10.0693 356.131 9.79053 357.516 9.79053C358.073 9.79053 358.567 9.84448 358.999 9.95239C359.43 10.0603 359.817 10.1862 360.158 10.3301C360.5 10.4559 360.814 10.5728 361.102 10.6808C361.39 10.7887 361.668 10.8426 361.938 10.8426C362.297 10.8426 362.549 10.7887 362.693 10.6808C362.855 10.5549 362.998 10.42 363.124 10.2761H363.529V15.6714H363.232C363.07 14.988 362.864 14.3136 362.612 13.6482C362.36 12.9828 362.01 12.3983 361.56 11.8947C361.111 11.3732 360.536 10.9595 359.835 10.6538C359.151 10.3301 358.298 10.1682 357.273 10.1682C356.32 10.1682 355.502 10.3211 354.819 10.6268C354.136 10.9145 353.561 11.3102 353.093 11.8138C352.626 12.2993 352.248 12.8748 351.961 13.5403C351.691 14.1877 351.484 14.8801 351.341 15.6175C351.197 16.3368 351.098 17.0742 351.044 17.8295C351.008 18.5669 350.99 19.2683 350.99 19.9337C350.99 21.8221 351.143 23.3867 351.448 24.6276C351.754 25.8685 352.177 26.8487 352.716 27.5681C353.273 28.2874 353.938 28.791 354.711 29.0787C355.484 29.3665 356.338 29.5104 357.273 29.5104C358.477 29.5104 359.448 29.3395 360.185 28.9978C360.922 28.6561 361.515 28.2155 361.965 27.676C362.414 27.1185 362.756 26.498 362.99 25.8146C363.223 25.1132 363.43 24.4208 363.61 23.7374H363.906V29.4834Z" fill="white"/>
<path d="M366.082 29.1057H369.075V10.6538H366.082V10.2761H381.506V14.943H381.209C380.976 14.2417 380.724 13.6302 380.454 13.1086C380.185 12.5691 379.861 12.1195 379.484 11.7598C379.106 11.3821 378.657 11.1034 378.135 10.9235C377.614 10.7437 376.985 10.6538 376.248 10.6538H371.772V18.9895H373.524C374.117 18.9895 374.621 18.9356 375.034 18.8277C375.448 18.7198 375.798 18.5219 376.086 18.2342C376.392 17.9284 376.643 17.5238 376.841 17.0202C377.057 16.4987 377.263 15.8333 377.461 15.024H377.758V23.4137H377.461C377.335 22.8921 377.2 22.3886 377.057 21.903C376.931 21.4174 376.742 20.9858 376.49 20.6081C376.257 20.2304 375.933 19.9337 375.52 19.7179C375.124 19.4841 374.603 19.3672 373.956 19.3672H371.772V29.1057H376.868C377.857 29.1057 378.675 28.8989 379.322 28.4853C379.987 28.0536 380.526 27.5501 380.94 26.9746C381.353 26.3811 381.659 25.7696 381.856 25.1402C382.054 24.5107 382.18 23.9892 382.234 23.5755H382.531V29.4834H366.082V29.1057Z" fill="white"/>
<path d="M386.281 23.6834H386.578C386.776 24.6546 387.028 25.4729 387.333 26.1383C387.657 26.8037 388.007 27.3523 388.385 27.7839C388.762 28.2155 389.158 28.5482 389.571 28.782C389.985 29.0158 390.398 29.1867 390.812 29.2946C391.243 29.4025 391.648 29.4654 392.025 29.4834C392.421 29.5014 392.789 29.5104 393.131 29.5104C394.083 29.5104 394.865 29.3665 395.477 29.0787C396.088 28.791 396.573 28.4313 396.933 27.9997C397.292 27.5501 397.544 27.0735 397.688 26.5699C397.832 26.0484 397.903 25.5718 397.903 25.1402C397.903 24.5107 397.787 23.9712 397.553 23.5216C397.319 23.072 397.023 22.6943 396.663 22.3886C396.304 22.0648 395.908 21.8041 395.477 21.6062C395.063 21.4084 394.668 21.2556 394.29 21.1476L391.189 20.2035C389.733 19.7539 388.627 19.1604 387.872 18.423C387.135 17.6857 386.767 16.6965 386.767 15.4556C386.767 14.6463 386.911 13.9 387.198 13.2165C387.486 12.5152 387.89 11.9127 388.412 11.4091C388.933 10.9056 389.553 10.5099 390.272 10.2222C391.009 9.9344 391.809 9.79053 392.672 9.79053C393.301 9.79053 393.823 9.84448 394.236 9.95239C394.668 10.0603 395.036 10.1862 395.342 10.3301C395.647 10.4559 395.917 10.5728 396.151 10.6808C396.402 10.7887 396.654 10.8426 396.906 10.8426C397.139 10.8426 397.292 10.8156 397.364 10.7617C397.454 10.6897 397.571 10.5279 397.715 10.2761H398.092V15.1589H397.769C397.661 14.5114 397.472 13.891 397.202 13.2975C396.951 12.686 396.618 12.1555 396.205 11.7059C395.791 11.2383 395.288 10.8696 394.695 10.5998C394.119 10.3121 393.445 10.1682 392.672 10.1682C392.241 10.1682 391.764 10.2311 391.243 10.357C390.722 10.4649 390.236 10.6628 389.787 10.9505C389.338 11.2383 388.96 11.6159 388.654 12.0835C388.367 12.5511 388.223 13.1446 388.223 13.864C388.223 14.4395 388.34 14.9341 388.574 15.3477C388.807 15.7433 389.104 16.0851 389.463 16.3728C389.841 16.6426 390.254 16.8764 390.704 17.0742C391.171 17.254 391.639 17.4159 392.106 17.5598L395.369 18.5849C395.71 18.6928 396.142 18.8367 396.663 19.0165C397.184 19.1963 397.688 19.4661 398.173 19.8258C398.676 20.1855 399.099 20.6621 399.44 21.2556C399.8 21.849 399.98 22.6044 399.98 23.5216C399.98 24.3668 399.818 25.1761 399.494 25.9495C399.189 26.7048 398.739 27.3792 398.146 27.9727C397.553 28.5482 396.834 29.0158 395.989 29.3755C395.144 29.7172 394.191 29.888 393.131 29.888C392.753 29.888 392.421 29.8791 392.133 29.8611C391.845 29.8611 391.576 29.8431 391.324 29.8071C391.072 29.7711 390.821 29.7262 390.569 29.6722C390.317 29.6363 390.039 29.5733 389.733 29.4834C389.373 29.3755 388.987 29.2496 388.574 29.1057C388.16 28.9619 387.801 28.8899 387.495 28.8899C387.225 28.8899 387.036 28.9439 386.929 29.0518C386.839 29.1597 386.758 29.3036 386.686 29.4834H386.281V23.6834Z" fill="white"/>
</svg>
