<svg width="20" height="30" viewBox="0 0 20 30" fill="none" xmlns="http://www.w3.org/2000/svg">
<path d="M10.0854 28.8817C6.29125 28.8817 3.76175 28.8331 3.76175 28.8331L3.22671 26.7909C3.22671 26.7909 6.68045 26.3047 10.0854 26.3047C13.4905 26.3047 16.9442 26.7909 16.9442 26.7909L16.4091 28.8331C16.4091 28.8331 13.8797 28.8817 10.0854 28.8817ZM19.7655 21.1994L19.6196 21.1508C19.425 21.4425 18.744 22.0746 17.7225 22.0746L17.6738 22.1718C18.1116 22.6094 18.0144 23.5819 17.4792 23.5819C17.1388 23.5819 16.9928 23.2901 16.9442 23.0471L16.8469 22.9984C16.7009 23.0956 16.3118 23.3874 16.2146 23.4847C16.2146 23.7764 16.2632 24.1653 16.3118 24.4085H16.4091C16.5064 24.214 16.7009 24.1653 16.7983 24.1653C17.0415 24.1653 17.2361 24.3598 17.2361 24.6516C17.2361 25.1378 16.8955 25.5754 16.2146 25.5754C15.4849 25.5754 14.8525 25.235 14.8525 24.457C14.8525 24.0681 15.0471 23.6305 15.5822 23.3874V23.2901C15.193 22.9984 14.8525 22.5122 14.7552 22.2691H14.6579C14.512 22.4635 14.0255 22.9011 13.5877 22.9984V23.0956C13.9769 23.4847 14.0256 23.8736 14.0256 24.1168C14.0256 24.7489 13.4905 25.1378 12.3717 25.1378C11.5447 25.1378 10.7178 24.8947 10.7178 24.0681C10.7178 23.6305 11.0097 23.3874 11.3502 23.3874C11.5934 23.3874 11.8852 23.4847 12.0798 23.7764H12.1771C12.3717 23.5332 12.469 23.3874 12.8095 23.0956V22.9984C12.6636 22.9011 12.4203 22.6094 12.1771 22.2691H12.0798C11.7393 22.658 11.4961 22.7067 11.2042 22.7067C11.0097 22.7067 10.7178 22.6094 10.7178 22.2691C10.7178 21.8314 11.2529 21.637 11.6907 21.4911V21.3938C10.9611 21.1021 10.28 20.3242 10.1341 19.8379H10.0368C9.89082 20.3242 9.20986 21.1021 8.48015 21.3938V21.4911C8.91801 21.637 9.45304 21.8314 9.45304 22.2691C9.45304 22.6094 9.16119 22.7067 8.96668 22.7067C8.67483 22.7067 8.43156 22.658 8.09104 22.2691H7.99378C7.75051 22.6094 7.50733 22.9011 7.36141 22.9984V23.0956C7.70185 23.3874 7.79918 23.5332 7.99378 23.7764H8.09104C8.28563 23.4847 8.57749 23.3874 8.82067 23.3874C9.16119 23.3874 9.45304 23.6305 9.45304 24.0681C9.45304 24.8947 8.62616 25.1378 7.79919 25.1378C6.68036 25.1378 6.14533 24.7489 6.14533 24.1168C6.14533 23.8736 6.194 23.4847 6.58311 23.0956V22.9984C6.14533 22.9011 5.65888 22.4635 5.51295 22.2691H5.41569C5.31835 22.5122 4.97783 22.9984 4.58872 23.2901V23.3874C5.12376 23.6305 5.31836 24.0681 5.31836 24.457C5.31836 25.235 4.68598 25.5754 3.95635 25.5754C3.2753 25.5754 2.93486 25.1378 2.93486 24.6516C2.93486 24.3598 3.12938 24.1653 3.37264 24.1653C3.4699 24.1653 3.66449 24.214 3.76175 24.4085H3.85901C3.90768 24.1653 3.95635 23.7764 3.95635 23.4847C3.85901 23.3874 3.4699 23.0956 3.32397 22.9984L3.22671 23.0471C3.17804 23.2901 3.03212 23.5819 2.6916 23.5819C2.15648 23.5819 2.05922 22.6094 2.497 22.1718L2.44841 22.0746C1.42685 22.0746 0.745885 21.4425 0.551289 21.1508L0.405361 21.1994L2.44841 25.8671C2.44841 25.8671 2.01063 26.0616 2.10789 26.402C2.30249 27.0827 2.88619 27.9579 2.88619 29.0276C2.88619 29.4652 2.83753 29.5138 2.83753 29.7083C2.83753 29.9028 2.98345 30 3.17805 30H17.0091C17.2036 30 17.3496 29.9028 17.3496 29.7083C17.3496 29.5138 17.3009 29.4652 17.3009 29.0276C17.3009 27.9579 17.8846 27.0827 18.0792 26.402C18.1765 26.0616 17.7387 25.8671 17.7387 25.8671L19.7817 21.1994H19.7655ZM3.9401 4.99191C3.98877 5.08915 4.13469 5.18638 4.23195 5.18638C4.42654 4.9919 4.62114 4.74879 4.62114 4.50568C4.37788 4.5543 3.9401 4.65155 3.9401 4.99191ZM13.3284 2.99838L13.4743 3.09562C13.4743 3.09562 14.3499 2.70665 14.3499 2.07456C14.3499 2.07456 14.3499 1.73419 14.1553 1.53971C14.058 1.53971 14.058 1.73419 14.058 1.83144C14.058 2.02593 13.9121 2.1718 13.6688 2.1718C13.4743 2.1718 13.1338 1.97731 13.1338 1.63696C13.1338 1.2966 13.2797 1.15073 13.2797 1.05349C13.2797 1.05349 13.2797 1.00487 13.231 1.00487C12.4527 1.2966 12.4042 1.63695 12.4042 1.88006C12.4042 2.22042 12.5501 2.56078 13.3284 2.99838ZM2.67543 19.7894C4.96166 19.7894 4.91299 17.1637 4.91299 16.2885C4.91299 12.3501 6.08049 11.3776 8.8045 10.1134C10.8476 9.14104 12.696 8.75202 12.696 6.80714C12.696 6.12642 12.5014 5.39709 11.7231 5.39709C11.7231 5.39709 12.015 5.68881 12.015 6.17504C12.015 6.36953 11.9663 6.56402 11.869 6.80714C11.869 6.61264 11.8204 6.36953 11.6744 6.17504C11.4313 6.56402 11.4799 7.14749 11.3339 7.3906C11.3339 7.3906 11.2367 7.63371 10.5556 7.97407C10.5556 7.97407 10.4584 8.07132 10.7989 8.07132C10.7989 8.07132 11.6258 8.07132 11.9176 7.73096C11.6744 8.41164 11.3826 8.6548 10.9448 8.6548C10.7016 8.6548 10.3124 8.60615 9.97192 8.60615C9.38821 8.60615 8.0262 8.89788 7.49117 9.8217C7.10197 10.4538 5.98315 11.0373 5.59404 11.0373C5.25351 11.0373 4.76707 10.2594 4.76707 9.919C4.76707 9.52998 5.44803 9.77314 5.98315 9.23825C6.85871 8.36308 7.19923 8.16856 8.12346 8.16856C8.12346 8.16856 8.65858 8.16856 8.17213 7.68234L6.66419 6.2723C6.4696 6.0778 6.32367 5.98057 6.12908 5.98057C6.03182 5.98057 5.83722 6.02918 5.39944 6.41815C4.52388 6.5154 4.18336 6.66126 3.9401 6.80714C3.79417 6.90437 3.69691 7.00163 3.59966 7.00163C3.45373 7.00163 3.25913 6.22367 3.25913 6.0778C3.25913 5.68882 3.69691 5.44571 3.69691 5.20259C3.69691 5.05673 3.55098 5.0081 3.55098 5.0081L2.91861 5.29984C2.91861 5.29984 2.57809 4.91086 2.96728 4.71637C2.96728 4.71637 3.9401 4.18153 5.78856 3.30633C5.88589 3.84117 6.03182 3.93842 6.4696 3.8898L6.275 3.93842L6.17774 4.08427C6.32367 4.1329 6.61553 4.08428 6.90738 3.98704C7.15056 3.8898 7.4425 3.8898 7.49117 3.84117C7.53975 3.79256 7.68568 3.64669 7.68568 3.59806C7.58842 3.59806 7.29649 3.64668 7.10197 3.6953C7.39383 3.50081 7.53975 3.35495 7.53975 3.2577C7.53975 3.20908 7.49117 3.16045 7.49117 3.16045C7.34516 3.16045 7.2479 3.2577 7.10197 3.20907C7.00463 3.16045 6.90738 3.06322 6.90738 2.91735C6.90738 2.82011 7.00472 2.72285 7.34524 2.72285H7.58842C7.58842 2.52837 7.10197 2.43112 6.90738 2.43112C6.6642 2.43112 6.32367 2.52837 6.03182 2.67424C6.03182 2.67424 6.08049 2.28526 6.51827 2.09077C6.76145 1.99352 8.0262 1.84765 9.24228 1.84765C10.9935 1.84765 12.3068 3.35494 12.5501 3.35494C12.6473 3.35494 12.7446 3.2577 12.5987 3.16045C11.9663 2.72285 11.5772 2.38249 11.5772 1.94489C11.5772 1.79903 11.5772 0.87521 13.5716 0.53485C14.4471 1.26418 14.7391 1.79903 14.7391 2.28525C14.7391 3.11182 13.8148 3.20908 13.7175 3.54944C16.0037 3.69531 17.7063 6.7099 17.7063 8.21719C17.7063 10.94 15.1282 12.0584 13.5229 12.3988C15.8578 10.6483 16.7334 8.89788 16.7334 7.68234C16.7334 5.68882 14.9336 4.52189 14.4958 4.27877C15.5173 5.39709 15.7605 6.56402 15.7605 7.43923C15.7605 9.14104 14.6904 9.96757 14.6904 9.96757C14.885 9.57863 14.9336 9.23825 14.9336 8.94653C14.9336 8.70337 14.885 8.50894 14.885 8.50894C13.9608 10.697 11.8204 12.2042 11.6744 14.0519C11.5285 13.6143 11.4798 13.1767 11.4798 12.7877C11.4798 11.2318 12.4527 10.2593 12.4527 10.2593C10.5557 11.5721 10.1178 13.0794 10.1178 14.2464C10.1178 15.4133 10.6043 16.2885 10.6043 16.2885C10.507 15.8509 10.5556 15.1216 10.653 14.5381C10.8475 16.1913 11.6744 18.2334 13.9607 19.5462C9.97192 19.5462 8.31806 14.7812 9.97192 11.7667C7.19923 12.496 6.85871 15.3647 6.81012 17.0179C6.61553 16.1426 6.56686 15.462 6.56686 14.9271C6.56686 11.9611 9.04777 11.1831 10.8962 10.3566C13.6202 9.14104 14.7391 8.16856 14.7391 6.41815C14.7391 4.5705 12.5501 3.40357 10.9448 3.74392L11.5285 4.32739C11.6259 4.42464 11.7717 4.52189 11.7717 4.52189C13.4742 5.39709 13.7175 6.36954 13.7175 6.95301C13.7175 8.50894 11.9663 9.33547 10.7015 9.87035C6.61552 11.6208 5.88589 12.3988 5.88589 14.9271C5.88589 16.7747 6.42093 19.6921 4.47521 19.9352C4.62114 20.1783 5.30219 20.2755 5.30219 20.2755C4.7184 20.7617 4.08602 20.9076 3.35639 20.9076C2.67535 20.9076 1.31334 20.7132 0.924229 19.2545C1.31334 19.4976 1.84846 19.7894 2.67543 19.7894ZM5.78856 9.09239C5.59396 9.2869 5.39944 9.2869 5.30219 9.2869C5.20485 9.04374 5.30219 8.70345 5.30219 8.70345C5.4967 8.70345 5.78856 8.84931 5.78856 9.09239ZM5.25351 8.46029C5.05892 8.75202 4.913 9.14104 4.32929 9.14104C3.74559 9.14104 3.25913 8.70345 2.86994 8.70345C2.67543 8.70345 2.57809 8.75202 2.48083 8.75202C2.38358 8.75202 2.33482 8.70337 2.33482 8.6548C2.33482 8.50894 2.5295 8.36308 2.82136 8.36308C3.11321 8.36308 3.35639 8.50894 3.79425 8.60615C4.42654 8.80066 4.81574 8.2658 5.05892 8.07132C5.35077 7.8282 5.59396 7.77959 5.83722 7.77959C6.32367 7.77959 6.66419 8.02269 6.66419 8.02269C6.42093 8.02269 5.88589 8.26581 5.4967 8.50894C5.35077 8.46029 5.30218 8.41164 5.25351 8.46029ZM4.23195 7.00163C4.32929 6.95301 4.66973 6.90439 4.66973 6.90439C4.76707 7.09888 4.76707 7.43923 4.7184 7.73096C4.28062 7.73096 4.13469 7.29336 4.23195 7.00163ZM15.1282 2.13938C16.928 2.52837 16.6848 3.6953 17.0253 4.52189C16.247 3.54944 15.2254 2.91735 15.2254 2.91735C15.3228 2.47975 15.1282 2.13938 15.1282 2.13938ZM17.4144 11.329C17.4144 13.3711 14.7876 13.6143 14.7876 15.6078C14.7876 16.3858 15.0309 16.9206 14.885 17.4068C14.885 17.4068 15.42 16.8234 15.4686 16.3858C15.4686 17.8931 16.247 19.6434 18.2414 19.6434C18.5332 19.6434 18.971 19.5948 19.3601 19.3518C19.3601 19.3518 19.2629 20.7617 17.6576 20.7617C15.6146 20.7617 13.7662 19.06 13.7662 15.8995C13.7662 15.3161 13.8634 14.6353 14.2039 14.1491C14.2039 14.1491 13.231 14.684 13.1338 16.3858C13.1338 16.3858 12.7446 15.8023 12.7446 15.0729C12.7446 12.6418 15.7119 13.517 17.4144 11.329ZM17.2198 21.637C19.0197 21.637 19.9439 20.7132 19.9439 19.3031C19.9439 18.8169 19.798 18.4765 19.798 18.4765C19.3115 18.8654 18.7278 18.9627 18.3873 18.9627C17.6577 18.9627 16.6848 18.5252 16.6848 17.3583C16.6848 15.8509 18.29 15.0729 18.29 13.3711C18.29 12.8849 18.0954 12.6905 18.0954 12.6905C18.8251 11.718 19.0683 10.7942 19.0683 10.0649C19.0683 8.70345 18.3386 7.82822 18.3386 7.82822L19.1169 8.21719C18.7764 6.90438 18.0468 6.02918 18.0468 6.02918C18.0468 6.02918 18.4359 6.22367 18.6305 6.12642C18.2414 5.93193 17.6576 5.2026 17.6576 3.8898C17.6576 2.57699 17.3657 1.84766 14.8363 1.41005C14.5445 0.826585 13.8634 0.19449 13.5229 0C12.9392 0.291735 12.0636 0.632093 11.7717 0.875202C11.7717 0.875202 11.0421 0.923825 10.7502 0.923825C10.3124 0.923825 9.97192 0.777952 9.7774 0.777952C9.1937 0.777952 8.8045 1.36142 8.8045 1.36142C8.8045 1.36142 7.49108 1.41005 6.56686 1.60453C6.08049 1.70178 5.78855 2.09077 5.44812 2.91735L3.06454 4.23015C2.62676 4.47326 2.33482 4.61913 2.33482 5.0081C2.33482 5.20259 2.48083 5.54296 2.77268 5.98057C3.01587 7.43923 3.25913 7.68234 3.59966 7.68234C3.69691 7.68234 3.89151 7.63372 3.89151 7.63372C3.98876 7.73096 4.23195 8.11994 4.28062 8.26581C3.89151 8.46029 3.40506 8.02269 2.82136 8.02269C2.48083 8.02269 1.94571 8.21719 1.94571 8.80066C1.94571 8.99518 2.04297 9.04374 2.14031 9.04374C2.28624 9.04374 2.43216 8.99518 2.77268 8.99518C3.21046 8.99518 3.55099 9.38412 4.23195 9.38412C4.47521 9.38412 4.62114 9.33547 4.7184 9.38412C4.37788 9.62728 4.18336 9.77314 4.28062 10.1134C4.42655 10.7455 5.01025 11.4749 5.30219 11.4749C5.54537 11.4749 5.98315 11.329 5.98315 11.329L5.69129 11.5721C3.7455 13.2253 4.18336 15.0729 4.18336 16.9206C4.18336 18.3306 3.79417 19.2059 2.67543 19.2059C1.94571 19.2059 0.92423 18.7682 0.145928 17.7958C0.0486718 18.0876 0 18.5252 0 18.9141C0 20.6159 1.5566 21.7342 3.11321 21.7342C4.47521 21.7342 5.44811 21.3453 6.42093 20.5673C9.19361 20.5187 10.0693 18.671 10.0693 18.671C11.3826 20.5673 13.8147 20.4215 14.2039 20.4215C15.0308 21.2966 16.2956 21.637 17.2198 21.637ZM9.14503 17.5041C9.14503 19.0114 7.88028 19.6921 6.56686 19.6921C8.26939 17.8444 6.95605 15.1702 8.60991 13.4198C8.46398 14.9757 9.14503 16.4343 9.14503 17.5041ZM7.34524 5.04052H7.39382C7.63709 5.96435 8.70725 6.06159 8.95043 7.13129L8.90176 7.17991C8.36672 6.40195 7.63709 6.30471 7.34524 5.91573C7.19923 5.72124 7.19923 5.47813 7.34524 5.04052ZM12.3068 27.6175C12.3068 27.6175 12.015 28.0065 11.9663 28.0065C11.9176 28.0065 11.6258 27.6661 11.6258 27.6175C11.6258 27.5202 11.9176 27.2285 11.9663 27.2285C12.015 27.2285 12.3068 27.5202 12.3068 27.6175ZM16.0524 27.7148C16.0524 27.7148 15.7605 28.1038 15.7119 28.1038C15.6632 28.1038 15.3714 27.7634 15.3714 27.7148C15.3714 27.6175 15.6632 27.3258 15.7119 27.3258C15.7605 27.3258 16.0524 27.6175 16.0524 27.7148ZM14.7876 28.3955C14.885 28.3955 14.9822 28.3469 14.9822 28.201V27.1313C14.9822 26.9854 14.885 26.9368 14.7876 26.9368C14.2039 26.8881 13.2797 26.8396 12.8905 26.8396C12.7446 26.8396 12.6473 26.9368 12.6473 27.0827V28.1523C12.6473 28.2982 12.7446 28.3955 12.8905 28.3955H14.7876ZM10.9935 28.4442C11.1394 28.4442 11.2367 28.3469 11.2367 28.201V27.0341C11.2367 26.8881 11.1394 26.7909 10.9935 26.7909H9.14503C8.9991 26.7909 8.90176 26.8881 8.90176 27.0341V28.201C8.90176 28.3469 8.9991 28.4442 9.14503 28.4442H10.9935ZM7.83161 27.6175C7.83161 27.5202 8.12346 27.2285 8.17213 27.2285C8.22072 27.2285 8.51265 27.5202 8.51265 27.6175C8.51265 27.6661 8.22072 28.0065 8.17213 28.0065C8.12346 28.0065 7.83161 27.6661 7.83161 27.6175ZM4.08603 27.7148C4.08603 27.6175 4.37788 27.3258 4.42655 27.3258C4.47522 27.3258 4.76707 27.6175 4.76707 27.7148C4.76707 27.7634 4.47522 28.1038 4.42655 28.1038C4.37788 28.1038 4.08603 27.7634 4.08603 27.7148ZM5.35077 28.3955H7.2479C7.39383 28.3955 7.49117 28.2982 7.49117 28.1523V27.0827C7.49117 26.9368 7.39383 26.8396 7.2479 26.8396C6.85879 26.8396 5.93448 26.8881 5.35077 26.9368C5.25351 26.9368 5.15626 26.9854 5.15626 27.1313V28.201C5.15626 28.3469 5.25351 28.3955 5.35077 28.3955ZM9.5828 27.6175C9.5828 27.4717 9.97191 27.0827 10.0693 27.0827C10.1178 27.0827 10.507 27.4717 10.507 27.6175C10.507 27.6661 10.1178 28.1038 10.0693 28.1038C9.97191 28.1038 9.5828 27.6661 9.5828 27.6175ZM13.377 27.6175C13.377 27.4717 13.7662 27.0827 13.8634 27.0827C13.9121 27.0827 14.3012 27.4717 14.3012 27.6175C14.3012 27.6661 13.9121 28.1038 13.8634 28.1038C13.7662 28.1038 13.377 27.6661 13.377 27.6175ZM5.83722 27.6175C5.83722 27.4717 6.22642 27.0827 6.32367 27.0827C6.37234 27.0827 6.76145 27.4717 6.76145 27.6175C6.76145 27.6661 6.37234 28.1038 6.32367 28.1038C6.22642 28.1038 5.83722 27.6661 5.83722 27.6175Z" fill="#D2A749"/>
</svg>
