<svg width="48" height="45" viewBox="0 0 48 45" fill="none" xmlns="http://www.w3.org/2000/svg">
<path d="M7.73624 8.70844H10.817C11.2031 8.70844 11.5159 8.36625 11.5159 7.94414C11.5159 7.52211 11.2031 7.17992 10.817 7.17992H7.73624C6.59453 7.17992 5.63016 6.19133 5.58636 4.97648C5.58496 4.93825 5.5843 4.90034 5.5843 4.86254C5.5843 3.36013 6.70207 2.13786 8.07593 2.13786C8.83234 2.13786 9.53929 2.50785 10.0155 3.15298C10.2171 3.42616 10.5629 3.5139 10.8543 3.36574C11.1227 3.22909 11.4097 3.1598 11.7069 3.1598C12.4245 3.1598 13.0952 3.58208 13.4573 4.26184C13.5509 4.43771 13.705 4.56549 13.8852 4.61675C14.0654 4.66801 14.2568 4.63856 14.417 4.53493C14.647 4.38616 14.9105 4.30748 15.1787 4.30748C15.9056 4.30748 16.5261 4.87445 16.6541 5.65555C16.714 6.01977 17.0037 6.28492 17.3421 6.28492H19.6037C19.8416 6.28492 20.0457 6.48586 20.0496 6.72375C20.0516 6.84508 20.0101 6.95945 19.9325 7.04594C19.8549 7.13234 19.7512 7.17992 19.6404 7.17992H13.6124C13.2263 7.17992 12.9136 7.52211 12.9136 7.94414C12.9136 8.36625 13.2263 8.70844 13.6124 8.70844H19.6404C20.1294 8.70844 20.5873 8.49828 20.9298 8.1168C21.2724 7.73531 21.4561 7.2307 21.4473 6.69578C21.4294 5.62633 20.6025 4.75646 19.6037 4.75646H17.8643C17.43 3.58024 16.3793 2.77901 15.1787 2.77901C14.8782 2.77901 14.5806 2.83016 14.2969 2.9293C13.653 2.11595 12.7069 1.63131 11.7069 1.63131C11.3809 1.63131 11.062 1.68073 10.7542 1.77856C10.0351 1.0298 9.08374 0.609375 8.07593 0.609375C5.93134 0.609375 4.18652 2.51733 4.18652 4.86254C4.18652 4.92014 4.18765 4.97811 4.1897 5.03647C4.26377 7.09555 5.82166 8.70844 7.73624 8.70844Z" fill="#D79970"/>
<path d="M47.0121 43.1179H46.5573C47.2799 42.1848 47.6213 40.7345 47.6213 38.6377C47.6213 36.0192 47.1021 32.7329 46.2663 30.0612C45.5393 27.7367 44.2827 24.9658 42.425 24.9658C41.491 24.9658 40.6245 25.6599 39.8422 27.0312C39.1641 25.8464 38.308 24.9658 37.2607 24.9658C36.1345 24.9658 35.1094 25.9705 34.2099 27.9534C34.0264 27.8816 33.8296 27.8404 33.6238 27.8404H26.6583C26.2723 27.8404 25.9595 28.1826 25.9595 28.6047C25.9595 29.0267 26.2723 29.3689 26.6583 29.3689H33.6238C33.8163 29.3689 33.9727 29.5401 33.9727 29.7505V30.6147C33.9727 30.8252 33.8163 30.9963 33.6238 30.9963H14.0872C13.8948 30.9963 13.7383 30.8252 13.7383 30.6147V29.7505C13.7383 29.5401 13.8948 29.3689 14.0872 29.3689H23.8627C24.2488 29.3689 24.5617 29.0267 24.5617 28.6047C24.5617 28.1826 24.2488 27.8404 23.8627 27.8404H18.0675C18.6023 26.5348 18.8835 25.1064 18.8835 23.6663C18.8835 18.0423 14.6993 13.4668 9.55617 13.4668C4.41308 13.4668 0.228773 18.0423 0.228773 23.6663C0.228773 28.9973 3.98844 33.3853 8.76055 33.8284V38.1812C8.6132 38.1596 8.46398 38.1482 8.31336 38.1482C8.04805 38.1482 7.78727 38.1818 7.53328 38.2484C6.71971 37.046 5.38976 36.338 4.00213 36.4088C1.87909 36.5165 0.146953 38.42 0.0590782 40.7427C0.0273047 41.5841 0.214234 42.4092 0.579524 43.1299C0.250484 43.192 0 43.5048 0 43.8821C0 44.3042 0.31282 44.6464 0.698891 44.6464H2.0566H47.0121C47.3982 44.6464 47.711 44.3042 47.711 43.8821C47.711 43.4601 47.3982 43.1179 47.0121 43.1179ZM14.12 42.0033C14.106 41.7805 14.069 41.5598 14.0127 41.3448H16.2445V43.1179H14.0148C14.1075 42.7615 14.1441 42.3858 14.12 42.0033ZM29.2895 35.6809V36.8069H18.7291V35.6809H29.2895ZM32.2508 35.6809C32.2063 36.0626 32.1693 36.4389 32.1407 36.8069H30.6872V35.6809H32.2508ZM35.1762 38.3354C35.2648 38.3354 35.337 38.4142 35.337 38.5112V39.6405C35.337 39.7375 35.2648 39.8162 35.1762 39.8162H12.5348C12.4462 39.8162 12.3741 39.7374 12.3741 39.6405V38.5112C12.3741 38.4142 12.4462 38.3354 12.5348 38.3354H35.1762ZM17.6423 41.3448H30.3762V43.1179H17.6423V41.3448ZM31.7742 41.3448H32.3336C32.5177 42.105 32.7927 42.6823 33.1314 43.1179H31.7741L31.7742 41.3448ZM40.6345 28.6149C41.24 27.287 41.9093 26.4941 42.4251 26.4941C43.001 26.4941 44.0062 27.558 44.9439 30.5559C45.7213 33.041 46.2235 36.2134 46.2235 38.6377C46.2235 42.9463 44.7938 42.9463 42.425 42.9463C42.1338 42.9463 41.8276 42.9459 41.5252 42.9328C42.1568 41.9969 42.457 40.6014 42.457 38.6377C42.457 36.0192 41.9379 32.7329 41.1021 30.0612C40.959 29.6037 40.7951 29.1291 40.6105 28.6616C40.6187 28.6463 40.627 28.6311 40.6345 28.6149ZM37.2607 26.4943C37.8366 26.4943 38.8418 27.558 39.7796 30.556C40.5569 33.0411 41.0591 36.2134 41.0591 38.6377C41.0591 42.9465 39.6295 42.9464 37.2606 42.9464C35.3814 42.9464 34.3084 42.8686 33.7956 41.3449H35.1761C36.0355 41.3449 36.7346 40.5804 36.7346 39.6408V38.5114C36.7346 37.5716 36.0354 36.8071 35.1761 36.8071H33.5441C33.5747 36.4387 33.6135 36.062 33.6607 35.6791C34.6066 35.6573 35.3705 34.8105 35.3705 33.771V32.9068C35.3705 32.4767 35.2382 32.0806 35.018 31.7609C35.2383 31.4413 35.3705 31.0452 35.3705 30.6152V29.7509C35.3705 29.5162 35.3297 29.2921 35.2585 29.0843C35.2763 29.0541 35.293 29.0227 35.307 28.9891C35.9606 27.4267 36.6909 26.4943 37.2607 26.4943ZM33.6238 32.5249C33.8163 32.5249 33.9727 32.696 33.9727 32.9065V33.7707C33.9727 33.9812 33.8163 34.1523 33.6238 34.1523H14.0872C13.8948 34.1523 13.7383 33.9812 13.7383 33.7707V32.9065C13.7383 32.696 13.8948 32.5249 14.0872 32.5249H33.6238ZM1.62665 23.6663C1.62665 18.8851 5.18391 14.9953 9.55625 14.9953C13.9286 14.9953 17.4858 18.8851 17.4858 23.6663C17.4858 25.1014 17.1587 26.523 16.54 27.7773C16.5298 27.798 16.5208 27.8191 16.5125 27.8404H14.0873C13.1242 27.8404 12.3406 28.6972 12.3406 29.7505V30.6147C12.3406 31.0038 12.4481 31.3658 12.6316 31.668C12.6054 31.676 12.5793 31.6852 12.5535 31.6966C11.7874 32.0389 10.9838 32.243 10.1584 32.3103V26.2892L12.573 23.6487C12.846 23.3502 12.846 22.8663 12.573 22.568C12.3 22.2695 11.8576 22.2695 11.5846 22.568L10.1584 24.1275V22.1328C10.1584 21.7107 9.84562 21.3685 9.45953 21.3685C9.07352 21.3685 8.76062 21.7107 8.76062 22.1328V26.7275L7.41617 25.2577C7.14313 24.9591 6.7007 24.9591 6.42776 25.2577C6.15482 25.5562 6.15482 26.0401 6.42776 26.3385L8.76062 28.8895V32.2938C4.76038 31.8558 1.62665 28.154 1.62665 23.6663ZM10.1584 33.8444C10.9031 33.7927 11.633 33.645 12.3405 33.403V33.7707C12.3405 34.824 13.1241 35.6808 14.0872 35.6808H17.3314V36.8068H12.5348C11.6753 36.8068 10.9762 37.5713 10.9762 38.5111V39.0034C10.827 39.0138 10.6793 39.0353 10.5336 39.0706C10.4149 38.9554 10.2894 38.8502 10.1583 38.7553L10.1584 33.8444ZM2.31594 43.1179C1.73344 42.5202 1.4222 41.6908 1.45565 40.8059C1.51398 39.2677 2.66101 38.007 4.06699 37.9359C5.14059 37.882 6.11652 38.4897 6.62102 39.5227C6.79379 39.8764 7.18695 40.0241 7.52203 39.8607C7.7725 39.7387 8.03875 39.6768 8.31352 39.6768C8.88625 39.6768 9.42781 39.9515 9.79922 40.4304C9.99352 40.6811 10.3126 40.7678 10.5916 40.6459C10.7881 40.56 10.9941 40.5201 11.2054 40.5255C11.4736 41.0056 11.9518 41.3297 12.5002 41.343C12.6307 41.5752 12.7089 41.8395 12.7256 42.1079C12.7483 42.4689 12.6696 42.8182 12.5017 43.1179H2.31594Z" fill="#D79970"/>
<path d="M26.0008 18.28H32.9911C33.3771 18.28 33.69 17.9378 33.69 17.5157C33.69 17.0937 33.3771 16.7516 32.9911 16.7516H26.0008C25.5385 16.7516 25.1599 16.3536 25.1568 15.8645C25.1568 15.8622 25.1567 15.8531 25.1567 15.8509C25.1567 14.7988 25.94 13.9249 26.903 13.9032C27.2395 13.8956 27.5232 13.6268 27.5781 13.2634C27.863 11.3755 29.3417 10.0052 31.0942 10.0052C32.8554 10.0052 34.3355 11.3832 34.6132 13.2817C34.6729 13.6893 35.0183 13.9711 35.3921 13.919C35.4828 13.9063 35.5557 13.9004 35.6216 13.9004C36.2522 13.9004 36.8422 14.271 37.1617 14.8675C37.2871 15.1016 37.5167 15.2455 37.7648 15.2455H39.6811C40.0607 15.2455 40.3696 15.5834 40.3696 15.9985C40.3696 16.4137 40.0608 16.7516 39.6811 16.7516H35.7864C35.4004 16.7516 35.0876 17.0937 35.0876 17.5157C35.0876 17.9378 35.4004 18.28 35.7864 18.28H39.6811C40.8314 18.28 41.7674 17.2565 41.7674 15.9985C41.7674 14.7405 40.8314 13.717 39.6811 13.717H38.1335C37.5838 12.9458 36.7543 12.4559 35.8593 12.3818C35.2532 10.0832 33.3375 8.47656 31.0942 8.47656C28.835 8.47656 26.9026 10.1128 26.3139 12.4427C24.8626 12.7648 23.7588 14.182 23.7588 15.8508L23.7589 15.8749C23.7674 17.2011 24.7731 18.28 26.0008 18.28Z" fill="#D79970"/>
</svg>
