<svg width="350" height="123" viewBox="0 0 350 123" fill="none" xmlns="http://www.w3.org/2000/svg">
<g clip-path="url(#clip0_1023_49)">
<path fill-rule="evenodd" clip-rule="evenodd" d="M238.401 0.0479211C237.15 0.0836841 232.077 0.258704 227.128 0.436678C222.179 0.61486 215.197 0.808405 211.614 0.867099C208.03 0.925791 204.329 1.02635 203.391 1.09051L201.684 1.20747V61.1122V121.017L206.804 121.165C209.62 121.246 214.902 121.449 218.543 121.618C228.931 122.097 239.113 122.231 243.159 121.941C260.016 120.736 273.195 115.508 283.505 105.938C293.436 96.721 299.285 83.9539 300.854 68.0671C301.754 58.9788 301.342 49.0019 299.728 40.7191C296.556 24.4414 288.804 13.6946 275.306 6.86895C265.578 1.95008 253.025 -0.370083 238.401 0.0479211ZM327.141 0.121969C322.062 0.644317 317.108 3.01475 313.57 6.61524C311.796 8.4219 310.716 10.0251 309.872 12.1063C307.797 17.2215 308.005 24.3467 310.379 29.4323C311.959 32.8205 314.533 35.4119 318.041 37.1486C320.578 38.4045 322.643 38.9593 325.969 39.2792C333.181 39.9724 340.04 37.7343 344.688 33.171C348.307 29.6209 350 25.2197 350 19.3666C350 11.8179 346.918 5.87159 341.312 2.60075C338.122 0.739398 331.835 -0.36062 327.141 0.121969ZM0 61.0199V121.291H37.3374H74.6748V108.984V96.6776H51.0935H27.5119V48.7132V0.748867H13.7559H0V61.0199ZM55.1662 42.6658C51.5474 65.7194 48.5919 84.6531 48.5987 84.7407C48.6055 84.8283 54.5433 84.8755 61.7937 84.8457L74.9762 84.7917L75.3612 81.7812C75.5729 80.1256 76.7029 70.9431 77.8723 61.3754C79.0417 51.8079 80.0548 44.2167 80.124 44.5059C80.1929 44.7951 80.4419 46.1677 80.6772 47.5563C81.6235 53.1395 83.8418 62.4091 86.4923 71.8539C87.0605 73.8788 90.554 85.2388 94.2558 97.0984C97.9574 108.958 101.167 119.254 101.388 119.978L101.791 121.294L114.962 121.24L128.133 121.186L128.822 118.872C129.201 117.599 132.955 104.913 137.165 90.682C144.599 65.5504 145.369 62.7387 148.843 48.0257C149.383 45.7385 149.849 43.8927 149.878 43.9236C149.907 43.9546 150.082 45.4946 150.268 47.3458C150.764 52.2895 151.734 60.2364 152.442 65.138C152.923 68.4738 160.273 116.901 160.845 120.502L160.97 121.291H175.329C186.992 121.291 189.687 121.239 189.687 121.016C189.687 120.866 185.451 93.8396 180.275 60.9586C175.098 28.0773 170.863 1.07894 170.863 0.961767C170.863 0.819977 165.682 0.748867 155.358 0.748867H139.852L139.314 2.48442C139.018 3.43909 135.203 15.3906 130.836 29.0438C121.323 58.784 119.136 66.0949 117.179 74.6938C116.652 77.0079 116.173 79.0433 116.113 79.2169C116.054 79.3903 115.514 77.0711 114.912 74.0627C113.824 68.6255 112.571 63.2811 111.582 59.8628C111.297 58.8792 107.045 45.1766 102.131 29.4117L93.1982 0.748867L77.4724 0.749716L61.7465 0.750755L55.1662 42.6658ZM332.079 13.0448C334.117 14.0571 335.349 16.2374 335.474 19.0511C335.691 23.9371 332.709 27.2116 328.455 26.7592C324.995 26.3917 323.272 24.4258 322.969 20.5032C322.697 16.9829 324.244 14.0462 326.952 12.9438C328.276 12.404 330.894 12.4555 332.079 13.0448ZM248.848 24.0817C259.977 26.1399 266.271 31.7572 269.613 42.6143C272.748 52.8009 272.807 67.4304 269.749 76.8988C268.121 81.9415 265.955 85.5937 262.504 89.1165C257.583 94.1389 251.664 96.9723 244.095 97.9286C240.853 98.3383 233.189 98.1671 229.765 97.6088L228.989 97.4821V60.4591V23.4364L237.626 23.5199C245.497 23.5961 246.491 23.646 248.848 24.0817Z" fill="white"/>
</g>
<defs>
<clipPath id="clip0_1023_49">
<rect width="350" height="122.093" fill="white"/>
</clipPath>
</defs>
</svg>
