<svg width="44" height="38" viewBox="0 0 44 38" fill="none" xmlns="http://www.w3.org/2000/svg">
<path d="M36.6934 4.40234H34.5579C34.2391 4.40234 34.0373 4.6043 34.0373 4.82734L34.0371 11.7333C34.0371 12.0202 34.3771 12.1689 34.7277 12.1689C35.0677 12.1689 35.4184 12.0202 35.4184 11.7333V9.26844H36.6084C38.0108 9.26844 39.1052 8.59898 39.1052 6.85664V6.79297C39.1052 5.05047 38.0427 4.40234 36.6934 4.40234ZM37.7238 6.96289C37.7238 7.79164 37.2989 8.18477 36.6083 8.18477H35.4184V5.61359H36.6083C37.2989 5.61359 37.7238 6.00672 37.7238 6.83539V6.96289Z" fill="#D79970"/>
<path d="M25.1691 7.1043C23.1522 5.08734 20.4706 3.97656 17.6182 3.97656C14.7659 3.97656 12.0843 5.08734 10.0673 7.1043C9.82391 7.34766 9.82391 7.74227 10.0673 7.9857C10.3107 8.22906 10.7053 8.22906 10.9487 7.9857C12.7302 6.20422 15.0988 5.22312 17.6181 5.22312C20.1375 5.22312 22.5062 6.20422 24.2877 7.9857C24.4094 8.10734 24.5689 8.1682 24.7284 8.1682C24.8878 8.1682 25.0473 8.10734 25.1691 7.9857C25.4125 7.74234 25.4125 7.34766 25.1691 7.1043Z" fill="#D79970"/>
<path d="M22.5969 9.67268C19.8511 6.92682 15.3834 6.92682 12.6377 9.67268C12.3942 9.91604 12.3942 10.3107 12.6377 10.5541C12.881 10.7974 13.2757 10.7974 13.5191 10.5541C15.7788 8.29439 19.4557 8.29439 21.7155 10.5541C21.8372 10.6757 21.9966 10.7366 22.1562 10.7366C22.3156 10.7366 22.4752 10.6757 22.5969 10.5541C22.8402 10.3107 22.8402 9.91604 22.5969 9.67268Z" fill="#D79970"/>
<path d="M20.0661 12.2023C18.7157 10.8518 16.5184 10.8518 15.1679 12.2023C14.9245 12.4457 14.9245 12.8403 15.1679 13.0837C15.4113 13.3271 15.806 13.3271 16.0493 13.0837C16.9139 12.2193 18.3204 12.2193 19.1848 13.0837C19.3065 13.2054 19.4661 13.2662 19.6255 13.2662C19.785 13.2662 19.9445 13.2054 20.0661 13.0837C20.3096 12.8403 20.3096 12.4457 20.0661 12.2023Z" fill="#D79970"/>
<path d="M30.7956 24.3414C30.5259 24.193 30.2598 24.0305 30.0049 23.8582L25.8824 21.0733C24.6312 20.228 23.1718 19.7812 21.6619 19.7812H14.0953C12.0868 19.7812 10.197 20.562 8.77395 21.9796C8.04254 22.7084 7.20926 23.318 6.29723 23.7916C5.75785 24.0716 5.42285 24.6229 5.42285 25.2302C5.42285 26.1245 6.15035 26.852 7.04465 26.852H9.62434C9.96855 26.852 10.2476 26.5729 10.2476 26.2288C10.2476 25.8845 9.96855 25.6055 9.62434 25.6055H7.04465C6.8377 25.6055 6.66926 25.437 6.66926 25.2301C6.66926 25.0898 6.74676 24.9626 6.8716 24.8978C7.89621 24.3658 8.8323 23.681 9.65363 22.8627C10.8414 21.6794 12.4188 21.0277 14.0952 21.0277H15.7893V25.6055H13.7186C13.3744 25.6055 13.0954 25.8845 13.0954 26.2288C13.0954 26.5729 13.3744 26.852 13.7186 26.852H30.8082C31.3206 26.852 31.7374 26.4352 31.7374 25.9228C31.7374 25.2667 31.3764 24.6608 30.7956 24.3414ZM17.0359 25.6055V21.0278H21.662C22.9222 21.0278 24.1404 21.4007 25.1846 22.1062L29.3071 24.8911C29.5934 25.0845 29.8921 25.267 30.195 25.4337C30.2735 25.4768 30.3392 25.5361 30.3886 25.6055H17.0359Z" fill="#D79970"/>
<path d="M18.5816 27.8027H16.6565C16.3123 27.8027 16.0332 28.0818 16.0332 28.4259C16.0332 28.7702 16.3123 29.0492 16.6565 29.0492H18.5816C18.9259 29.0492 19.2049 28.7702 19.2049 28.4259C19.2049 28.0818 18.9259 27.8027 18.5816 27.8027Z" fill="#D79970"/>
<path d="M43.3373 27.2787L43.1404 26.9519C42.3984 25.7206 41.1643 24.8537 39.7545 24.5733L38.1454 24.2532V16.0974H42.3095C43.1669 16.0974 43.8643 15.3998 43.8643 14.5426V2.40444C43.8643 1.54705 43.1668 0.849609 42.3095 0.849609H30.1714C29.314 0.849609 28.6166 1.54713 28.6166 2.40444V7.00883C28.6166 7.35305 28.8955 7.63211 29.2398 7.63211C29.5841 7.63211 29.8631 7.35305 29.8631 7.00883V2.40444C29.8631 2.2344 30.0014 2.09606 30.1715 2.09606H42.3097C42.4797 2.09606 42.618 2.2344 42.618 2.40444V14.5427C42.618 14.7127 42.4797 14.851 42.3097 14.851H30.1714C30.0013 14.851 29.863 14.7127 29.863 14.5427V11.0607C29.863 10.7165 29.584 10.4374 29.2398 10.4374C28.8955 10.4374 28.6165 10.7165 28.6165 11.0607V14.5427C28.6165 15.4 29.314 16.0975 30.1713 16.0975H34.8933V23.6066L34.0662 23.4422C32.9245 23.2152 31.8116 22.5262 31.0737 22.0276L26.9513 19.2427C25.3828 18.1832 23.5534 17.6232 21.6608 17.6232H14.0943C11.5765 17.6232 9.20766 18.6018 7.42406 20.3787C6.29547 21.5031 4.87477 22.2701 3.31558 22.5966L2.42076 22.7841C1.09048 23.0626 0.125 24.2513 0.125 25.6105V31.6466C0.125 32.3666 0.550109 33.0209 1.20815 33.3133L3.69061 34.4166C3.84074 35.2016 4.21894 35.9513 4.82547 36.5578C5.63148 37.3638 6.69031 37.7669 7.74914 37.7669C8.80805 37.7669 9.8668 37.3638 10.6729 36.5578C11.1913 36.0394 11.542 35.4163 11.727 34.7559H32.4258C32.6108 35.4163 32.9616 36.0394 33.48 36.5578C34.2609 37.3387 35.2991 37.7689 36.4037 37.7689C37.5081 37.7689 38.5465 37.3388 39.3275 36.5578C39.8459 36.0394 40.1966 35.4163 40.3816 34.7559H41.564C42.8383 34.7559 43.875 33.7192 43.875 32.4449V29.2122C43.8748 28.5308 43.6889 27.8623 43.3373 27.2787ZM36.1398 16.0974H36.899V24.0054L36.1398 23.8544V16.0974ZM9.79141 35.6765C9.24594 36.222 8.52063 36.5224 7.74906 36.5224C6.97758 36.5224 6.25227 36.222 5.7068 35.6765C4.83172 34.8014 4.63704 33.5001 5.12187 32.4349C5.12578 32.4263 5.12953 32.4177 5.13352 32.4091C5.14828 32.3776 5.16391 32.3463 5.17992 32.3152C5.18742 32.3005 5.19492 32.2859 5.20281 32.2713C5.21727 32.2444 5.23227 32.2175 5.24766 32.1909C5.25828 32.1725 5.26914 32.1543 5.28016 32.1362C5.29438 32.1127 5.30883 32.0892 5.32391 32.0661C5.3375 32.0452 5.35148 32.0245 5.3657 32.0039C5.37969 31.9834 5.39359 31.963 5.40812 31.9429C5.42477 31.9199 5.44211 31.8973 5.45961 31.8748C5.47313 31.8572 5.48641 31.8394 5.50039 31.822C5.52094 31.7966 5.54234 31.7719 5.56375 31.7471C5.57594 31.733 5.58766 31.7186 5.60016 31.7046C5.63195 31.6694 5.66469 31.6348 5.69828 31.6009C5.70125 31.5979 5.70391 31.5948 5.7068 31.592C5.7132 31.5855 5.71992 31.5795 5.72641 31.5732C5.755 31.5452 5.78367 31.5175 5.81297 31.4909C5.82062 31.484 5.82859 31.4776 5.83633 31.4708C5.86555 31.4448 5.89492 31.4191 5.925 31.3946C5.92781 31.3923 5.93086 31.3902 5.93367 31.3879C6.99008 30.533 8.51367 30.534 9.56883 31.3913C9.57 31.3923 9.57125 31.3932 9.57258 31.3942C9.60476 31.4205 9.63633 31.448 9.66766 31.4758C9.67328 31.4808 9.67914 31.4855 9.68469 31.4905C9.72094 31.5232 9.75648 31.557 9.79133 31.5919C9.82891 31.6295 9.86516 31.6681 9.90039 31.7074C9.91578 31.7246 9.93047 31.7423 9.94539 31.7598C9.96367 31.7813 9.98203 31.8027 9.99961 31.8245C10.0194 31.849 10.0384 31.8739 10.0573 31.8989C10.0678 31.9128 10.0784 31.9268 10.0886 31.9409C10.1114 31.9723 10.1336 32.0041 10.1551 32.0363C10.1587 32.0418 10.1623 32.0474 10.1659 32.0529C10.8991 33.1727 10.7743 34.6935 9.79141 35.6765ZM38.4459 35.6765C37.9003 36.222 37.175 36.5224 36.4035 36.5224C35.632 36.5224 34.9068 36.222 34.3613 35.6765C33.3782 34.6935 33.2534 33.1724 33.9867 32.0527C33.9902 32.0473 33.9937 32.042 33.9973 32.0366C34.0187 32.0043 34.041 31.9724 34.0639 31.9409C34.0741 31.9268 34.0845 31.913 34.095 31.8992C34.1139 31.8741 34.133 31.8491 34.153 31.8244C34.1705 31.8027 34.1886 31.7816 34.2068 31.7604C34.222 31.7427 34.2367 31.7248 34.2523 31.7074C34.2876 31.6681 34.3237 31.6295 34.3614 31.592C34.9069 31.0464 35.6321 30.746 36.4036 30.746C37.1752 30.746 37.9004 31.0464 38.4459 31.592C38.4835 31.6295 38.5198 31.6683 38.5549 31.7075C38.5705 31.7248 38.5851 31.7425 38.6002 31.7601C38.6184 31.7814 38.6367 31.8027 38.6542 31.8245C38.6741 31.8491 38.6931 31.874 38.712 31.8991C38.7225 31.913 38.733 31.9269 38.7433 31.941C38.7661 31.9725 38.7884 32.0042 38.8098 32.0365C38.8134 32.042 38.817 32.0474 38.8206 32.0529C39.5536 33.1726 39.4288 34.6936 38.4459 35.6765ZM42.6286 32.4449C42.6286 33.032 42.1508 33.5095 41.5638 33.5095H40.5377C40.5133 32.6055 40.1942 31.7431 39.62 31.036C39.6162 31.0312 39.6125 31.0262 39.6085 31.0215C39.573 30.9781 39.5362 30.9357 39.4987 30.8935C39.4891 30.8827 39.4801 30.8716 39.4705 30.8609C39.4308 30.8172 39.3898 30.7744 39.3481 30.7322C39.341 30.725 39.3345 30.7174 39.3273 30.7104C38.7904 30.1735 38.1318 29.8023 37.4137 29.623C37.0873 29.5413 36.7487 29.4994 36.4035 29.4994C36.1274 29.4994 35.8555 29.5263 35.5905 29.5788C34.7959 29.7363 34.0655 30.1247 33.4798 30.7104C33.4728 30.7173 33.4664 30.7247 33.4595 30.7318C33.4176 30.7743 33.3764 30.8172 33.3366 30.861C33.3273 30.8713 33.3186 30.8821 33.3093 30.8926C33.2716 30.9351 33.2343 30.978 33.1985 31.0217C33.1949 31.0261 33.1916 31.0306 33.188 31.0351C32.6134 31.7423 32.2939 32.6052 32.2695 33.5096H11.8832C11.8587 32.6041 11.5386 31.7401 10.9625 31.0323C10.9598 31.029 10.9573 31.0257 10.9546 31.0223C10.917 30.9763 10.878 30.9313 10.8382 30.8867C10.8309 30.8785 10.8241 30.8701 10.8166 30.8619C10.7701 30.8105 10.7222 30.7599 10.6727 30.7105C10.4713 30.509 10.2538 30.3326 10.0248 30.1814C9.33727 29.728 8.5432 29.5013 7.74906 29.5013C6.69031 29.5013 5.63141 29.9044 4.82539 30.7105C4.77931 30.7565 4.7348 30.8037 4.69122 30.8516C4.67831 30.8658 4.66592 30.8802 4.6532 30.8945C4.62243 30.9293 4.59218 30.9644 4.5627 30.9999C4.54962 31.0158 4.53655 31.0316 4.52373 31.0477C4.49323 31.0857 4.46349 31.1242 4.43445 31.163C4.42538 31.1752 4.41607 31.1871 4.40727 31.1993C4.32917 31.3062 4.25671 31.4164 4.18972 31.5295C4.18784 31.5327 4.18605 31.5359 4.18416 31.5391C4.15144 31.5947 4.12008 31.6511 4.09009 31.708C4.08923 31.7097 4.08838 31.7114 4.08744 31.713C3.87014 32.1265 3.72402 32.5737 3.65703 33.0377L1.71452 32.1743C1.5062 32.0816 1.37162 31.8745 1.37162 31.6466V25.6105C1.37162 24.838 1.92045 24.1623 2.67659 24.0039L3.57141 23.8165C5.36758 23.4403 7.00406 22.5568 8.30406 21.2616C9.85242 19.7191 11.9088 18.8695 14.0945 18.8695H21.661C23.3041 18.8695 24.8922 19.3557 26.2538 20.2754L30.3761 23.0603C31.2034 23.6192 32.4607 24.3935 33.8232 24.6646L39.5116 25.7958C40.5781 26.008 41.5116 26.6637 42.073 27.5952L42.2698 27.9219C42.5045 28.3113 42.6286 28.7575 42.6286 29.2122V32.4449Z" fill="#D79970"/>
<path d="M9.08766 32.2945C8.73016 31.937 8.25508 31.7402 7.74961 31.7402C7.24422 31.7402 6.76898 31.9371 6.41164 32.2945C6.0543 32.6518 5.85742 33.127 5.85742 33.6324C5.85742 34.1378 6.0543 34.613 6.41164 34.9704C6.76898 35.3277 7.24422 35.5246 7.74969 35.5246C8.25516 35.5246 8.73031 35.3278 9.08766 34.9704C9.82547 34.2326 9.82547 33.0322 9.08766 32.2945ZM8.20617 34.089C8.08422 34.2109 7.92203 34.278 7.74961 34.278C7.57711 34.278 7.415 34.2109 7.29305 34.0889C7.17109 33.967 7.10391 33.8048 7.10391 33.6323C7.10391 33.4598 7.17102 33.2977 7.29305 33.1758C7.415 33.0538 7.57711 32.9866 7.74961 32.9866C7.92203 32.9866 8.08422 33.0538 8.20617 33.1758C8.45789 33.4276 8.45789 33.8373 8.20617 34.089Z" fill="#D79970"/>
<path d="M37.7411 32.2965C37.3837 31.9391 36.9086 31.7422 36.403 31.7422C35.8976 31.7422 35.4225 31.939 35.065 32.2964C34.3273 33.0341 34.3273 34.2345 35.065 34.9723C35.4224 35.3298 35.8976 35.5266 36.403 35.5266C36.9086 35.5266 37.3836 35.3298 37.741 34.9724C38.0984 34.6151 38.2952 34.1398 38.2952 33.6345C38.2952 33.129 38.0984 32.6538 37.7411 32.2965ZM36.8596 34.091C36.7376 34.213 36.5756 34.2801 36.403 34.2801C36.2306 34.2801 36.0684 34.213 35.9464 34.091C35.6947 33.8393 35.6947 33.4296 35.9464 33.1779C36.0684 33.0559 36.2306 32.9887 36.403 32.9887C36.5756 32.9887 36.7376 33.0559 36.8596 33.1779C36.9816 33.2998 37.0488 33.462 37.0488 33.6345C37.0488 33.8068 36.9817 33.969 36.8596 34.091Z" fill="#D79970"/>
</svg>
