<svg width="45" height="39" viewBox="0 0 45 39" fill="none" xmlns="http://www.w3.org/2000/svg">
<path d="M44.0146 25.0078C42.4353 25.0078 41.6221 25.6655 40.9045 26.246C40.2502 26.7754 39.7333 27.1934 38.6108 27.1934C37.4883 27.1934 36.9713 26.7753 36.3171 26.246C35.5996 25.6657 34.7863 25.0078 33.2071 25.0078C32.2988 25.0078 31.5422 25.2267 30.8262 25.6972C30.5179 25.8996 30.4269 26.3218 30.623 26.64C30.819 26.9584 31.2279 27.0522 31.5363 26.8497C31.8947 26.6144 32.3735 26.3738 33.2071 26.3738C34.3296 26.3738 34.8465 26.792 35.5008 27.3212C36.2183 27.9016 37.0315 28.5595 38.6108 28.5595C40.1901 28.5595 41.0033 27.9016 41.7208 27.3212C42.3751 26.7919 42.892 26.3738 44.0146 26.3738C44.38 26.3738 44.6762 26.068 44.6762 25.6908C44.6762 25.3137 44.38 25.0078 44.0146 25.0078Z" fill="#D79970"/>
<path d="M4.86734 26.9169C4.51288 26.7448 4.21338 26.5025 3.8963 26.2461C3.17888 25.6657 2.36584 25.0078 0.786648 25.0078C0.421187 25.0078 0.125 25.3137 0.125 25.6908C0.125 26.068 0.421187 26.3738 0.786648 26.3738C1.90902 26.3738 2.42579 26.792 3.07995 27.3212C3.44105 27.6133 3.81425 27.9152 4.30413 28.1531C4.39506 28.1973 4.49087 28.2182 4.58527 28.2182C4.83359 28.2182 5.0718 28.073 5.18445 27.8257C5.34008 27.4842 5.19805 27.0774 4.86734 26.9169Z" fill="#D79970"/>
<path d="M33.9419 0.0605469C29.3086 0.0605469 25.5391 3.95152 25.5391 8.73402V15.3593H11.1163V8.73402C11.1163 6.2112 13.1048 4.1587 15.5493 4.1587C17.9932 4.1587 19.9813 6.2112 19.9813 8.73402V8.93894C19.9813 10.0687 20.8718 10.988 21.9663 10.988C23.0607 10.988 23.9512 10.0687 23.9512 8.93894V8.73402C23.9512 3.95136 20.182 0.0605469 15.5493 0.0605469C10.916 0.0605469 7.14648 3.95136 7.14648 8.73402V30.3531C7.14648 30.7302 7.44281 31.0361 7.80813 31.0361C8.17359 31.0361 8.46977 30.7302 8.46977 30.3531V8.73402C8.46977 4.70472 11.6457 1.42659 15.5493 1.42659C19.4524 1.42659 22.6279 4.70472 22.6279 8.73402V8.93894C22.6279 9.3155 22.3311 9.62191 21.9663 9.62191C21.6014 9.62191 21.3046 9.3155 21.3046 8.93894V8.73402C21.3046 5.45792 18.7227 2.79261 15.5493 2.79261C12.3753 2.79261 9.79305 5.45808 9.79305 8.73402V28.6737C9.79305 29.0509 10.0893 29.3567 10.4548 29.3567C10.8202 29.3567 11.1164 29.0509 11.1164 28.6737V27.6532H25.5391V30.3594C25.5391 30.7366 25.8354 31.0425 26.2008 31.0425C26.5663 31.0425 26.8625 30.7366 26.8625 30.3594V8.73402C26.8625 4.70472 30.0384 1.42659 33.942 1.42659C37.8452 1.42659 41.0206 4.70472 41.0206 8.73402V8.93894C41.0206 9.3155 40.7238 9.62191 40.359 9.62191C39.9941 9.62191 39.6973 9.3155 39.6973 8.93894V8.73402C39.6973 5.45792 37.1155 2.79261 33.942 2.79261C30.768 2.79261 28.1858 5.45808 28.1858 8.73402V11.2261C28.1858 11.6033 28.482 11.9091 28.8474 11.9091C29.2128 11.9091 29.5091 11.6033 29.5091 11.2261V8.73402C29.5091 6.2112 31.4977 4.1587 33.9421 4.1587C36.3859 4.1587 38.3741 6.2112 38.3741 8.73402V8.93894C38.3741 10.0687 39.2646 10.988 40.3591 10.988C41.4535 10.988 42.3441 10.0687 42.3441 8.93894V8.73402C42.3438 3.95152 38.5747 0.0605469 33.9419 0.0605469ZM11.1164 16.7255H25.5391V18.2281H11.1164V16.7255ZM25.5391 23.4185H16.3651C15.9996 23.4185 15.7034 23.7244 15.7034 24.1015C15.7034 24.4787 15.9996 24.7846 16.3651 24.7846H25.539V26.2871H11.1164V24.7846H14.1596C14.5251 24.7846 14.8213 24.4787 14.8213 24.1015C14.8213 23.7244 14.5251 23.4185 14.1596 23.4185H11.1163V19.5939H25.5391V23.4185Z" fill="#D79970"/>
<path d="M28.8472 12.8223C28.4817 12.8223 28.1855 13.1281 28.1855 13.5053V30.5731C28.1855 30.9503 28.4817 31.2561 28.8472 31.2561C29.2127 31.2561 29.5088 30.9503 29.5088 30.5731V13.5053C29.5088 13.1281 29.2125 12.8223 28.8472 12.8223Z" fill="#D79970"/>
<path d="M44.0139 30.1113C42.4346 30.1113 41.6214 30.7691 40.9039 31.3495C40.2495 31.8789 39.7327 32.297 38.6102 32.297C37.4876 32.297 36.9706 31.8788 36.3164 31.3495C35.5989 30.7692 34.7856 30.1113 33.2064 30.1113C31.6272 30.1113 30.814 30.7692 30.0965 31.3495C29.4421 31.8789 28.9253 32.297 27.8029 32.297C26.6804 32.297 26.1636 31.8788 25.5093 31.3495C24.7919 30.7692 23.9787 30.1113 22.3995 30.1113C20.8204 30.1113 20.0073 30.7692 19.2898 31.3495C18.6355 31.8789 18.1188 32.297 16.9964 32.297C15.874 32.297 15.3572 31.8788 14.703 31.3495C13.9855 30.7692 13.1724 30.1113 11.5931 30.1113C10.0139 30.1113 9.2007 30.7692 8.48328 31.3495C7.82891 31.8789 7.31227 32.297 6.18977 32.297C5.06734 32.297 4.55055 31.8788 3.8963 31.3495C3.17888 30.7692 2.36584 30.1113 0.786648 30.1113C0.421187 30.1113 0.125 30.4172 0.125 30.7944C0.125 31.1716 0.421187 31.4773 0.786648 31.4773C1.90902 31.4773 2.42579 31.8955 3.08004 32.4248C3.79746 33.0051 4.61051 33.663 6.18977 33.663C7.76891 33.663 8.58211 33.0052 9.29953 32.4248C9.95391 31.8954 10.4706 31.4773 11.5931 31.4773C12.7155 31.4773 13.2324 31.8955 13.8866 32.4248C14.6041 33.0051 15.4173 33.663 16.9964 33.663C18.5755 33.663 19.3887 33.0051 20.1061 32.4248C20.7604 31.8954 21.2771 31.4773 22.3995 31.4773C23.522 31.4773 24.0388 31.8955 24.693 32.4248C25.4105 33.0051 26.2236 33.663 27.8029 33.663C29.3821 33.663 30.1952 33.0052 30.9127 32.4248C31.567 31.8954 32.0838 31.4773 33.2064 31.4773C34.3289 31.4773 34.8459 31.8955 35.5001 32.4248C36.2177 33.0051 37.0309 33.663 38.6102 33.663C40.1894 33.663 41.0027 33.0052 41.7202 32.4248C42.3745 31.8954 42.8913 31.4773 44.0139 31.4773C44.3793 31.4773 44.6755 31.1716 44.6755 30.7944C44.6755 30.4171 44.3793 30.1113 44.0139 30.1113Z" fill="#D79970"/>
<path d="M44.016 35.2168C42.4367 35.2168 41.6235 35.8745 40.906 36.455C40.2516 36.9843 39.7348 37.4023 38.6123 37.4023C37.4897 37.4023 36.9727 36.9842 36.3185 36.455C35.601 35.8746 34.7878 35.2168 33.2085 35.2168C31.6293 35.2168 30.8161 35.8746 30.0986 36.455C29.4442 36.9843 28.9275 37.4023 27.805 37.4023C26.6825 37.4023 26.1657 36.9842 25.5114 36.455C24.794 35.8746 23.9808 35.2168 22.4016 35.2168C20.8225 35.2168 20.0094 35.8746 19.292 36.455C18.6376 36.9843 18.1209 37.4023 16.9985 37.4023C15.8761 37.4023 15.3593 36.9842 14.7051 36.455C13.9877 35.8746 13.1745 35.2168 11.5952 35.2168C11.2298 35.2168 10.9336 35.5226 10.9336 35.8998C10.9336 36.277 11.2298 36.5828 11.5952 36.5828C12.7177 36.5828 13.2345 37.0008 13.8888 37.5301C14.6062 38.1104 15.4195 38.7683 16.9985 38.7683C18.5777 38.7683 19.3908 38.1104 20.1082 37.5301C20.7626 37.0007 21.2792 36.5828 22.4016 36.5828C23.5241 36.5828 24.0409 37.0008 24.6952 37.5301C25.4126 38.1104 26.2257 38.7683 27.805 38.7683C29.3842 38.7683 30.1973 38.1105 30.9148 37.5301C31.5691 37.0007 32.0859 36.5828 33.2085 36.5828C34.331 36.5828 34.848 37.0008 35.5023 37.5301C36.2198 38.1104 37.033 38.7683 38.6123 38.7683C40.1916 38.7683 41.0048 38.1105 41.7223 37.5301C42.3766 37.0007 42.8934 36.5828 44.016 36.5828C44.3815 36.5828 44.6777 36.277 44.6777 35.8998C44.6777 35.5226 44.3815 35.2168 44.016 35.2168Z" fill="#D79970"/>
<path d="M9.41195 36.5714C9.18672 36.2746 8.77094 36.2224 8.48312 36.4551C7.82883 36.9845 7.31219 37.4024 6.18977 37.4024C5.06734 37.4024 4.55055 36.9842 3.8963 36.455C3.17888 35.8746 2.36584 35.2168 0.786648 35.2168C0.421187 35.2168 0.125 35.5226 0.125 35.8998C0.125 36.277 0.421187 36.5828 0.786648 36.5828C1.90902 36.5828 2.42579 37.0008 3.08004 37.5301C3.79746 38.1104 4.61051 38.7683 6.18977 38.7683C7.76891 38.7683 8.58203 38.1106 9.29945 37.5302C9.58703 37.2977 9.6375 36.8684 9.41195 36.5714Z" fill="#D79970"/>
</svg>
