<svg width="95" height="75" viewBox="0 0 95 75" fill="none" xmlns="http://www.w3.org/2000/svg">
<g clip-path="url(#clip0_1500_1509)">
<path d="M5.86693 56.0635V56.4829C5.86693 56.3463 5.85871 56.2065 5.86693 56.0635Z" fill="white"/>
<path d="M64.4207 71.4676C62.7769 67.3719 61.1496 63.2599 59.4893 59.1478C57.7962 54.9701 56.1359 50.7922 54.3935 46.6472C53.8182 45.2656 52.6346 44.4925 51.1388 44.3774C49.6758 44.2622 48.4429 44.8051 47.621 46.0387C46.6348 47.5025 46.1909 49.1967 45.5334 50.8086C43.0842 56.8122 40.7006 62.8652 38.2842 68.8852C37.6431 70.4807 36.9856 72.0597 36.3281 73.6881H42.4595C43.2978 71.5334 44.1033 69.4609 44.9088 67.3884H56.5798C57.4017 69.4938 58.24 71.6156 59.0619 73.721H65.3084C64.9961 72.8657 64.7167 72.1584 64.4207 71.4676ZM47.0621 61.9441C48.2786 58.7531 49.4456 55.6609 50.7278 52.3054C52.0264 55.6279 53.2429 58.7202 54.4921 61.9441H47.0621Z" fill="white"/>
<path d="M94.7992 60.0363C94.7004 64.7569 92.8425 68.5729 89.0624 71.4678C84.1309 75.2509 76.7009 75.1193 71.7036 71.6487C68.8598 69.6749 66.8214 67.0926 65.753 63.8359C63.8297 58.0461 65.4406 52.1247 69.8789 47.9633C72.1966 45.7757 74.9254 44.394 78.0654 43.95C83.983 43.1275 90.3112 45.3481 93.3857 50.9898L93.4524 51.1329C93.4524 51.1329 93.3987 51.1674 93.3688 51.1871C91.7416 52.1576 89.9151 52.8978 88.1232 53.8024C87.9424 53.5722 87.796 53.3747 87.6482 53.1609C85.3965 49.8878 82.2071 49.0653 78.509 49.674C73.8569 50.4305 70.5528 54.9045 71.1939 60.2995C72.1145 67.9972 80.3332 70.7441 85.6593 66.961C87.0728 65.9577 87.9768 64.5595 88.3063 62.6516H80.1692V57.6678C80.4649 57.4211 80.8595 57.5197 81.2211 57.5197H92.235C93.8622 57.5197 94.8322 58.4409 94.7992 60.0363Z" fill="white"/>
<path d="M64.4207 71.4676C62.7769 67.3719 61.1496 63.2599 59.4893 59.1478C57.7962 54.9701 56.1359 50.7922 54.3935 46.6472C53.8182 45.2656 52.6346 44.4925 51.1388 44.3774C49.6758 44.2622 48.4429 44.8051 47.621 46.0387C46.6348 47.5025 46.1909 49.1967 45.5334 50.8086C43.0842 56.8122 40.7006 62.8652 38.2842 68.8852C37.6431 70.4807 36.9856 72.0597 36.3281 73.6881H42.4595C43.2978 71.5334 44.1033 69.4609 44.9088 67.3884H56.5798C57.4017 69.4938 58.24 71.6156 59.0619 73.721H65.3084C64.9961 72.8657 64.7167 72.1584 64.4207 71.4676ZM47.0621 61.9441C48.2786 58.7531 49.4456 55.6609 50.7278 52.3054C52.0264 55.6279 53.2429 58.7202 54.4921 61.9441H47.0621Z" fill="white"/>
<path d="M33.9282 49.0583V73.7306H28.0104V54.08L27.1211 56.034L26.5771 57.2248C25.2357 60.1757 23.8943 63.1347 22.553 66.0822C22.2062 66.8388 21.8593 67.5954 21.5108 68.352C20.6856 70.14 19.8555 71.9312 19.027 73.7306H14.9011C12.9795 69.5379 11.0496 65.3322 9.10996 61.0984L5.86839 53.9368V56.0734C5.86017 56.2165 5.86839 56.3564 5.86839 56.4929V73.7306H0V72.2832C0 64.8486 0 57.4304 0.0164381 49.9959C0.0164381 49.2886 0 48.5648 0.164381 47.874C0.59177 45.9002 2.2027 44.5515 4.20815 44.3706C6.08208 44.2061 7.90668 45.2423 8.71219 47.0187C9.50452 48.7655 10.2935 50.5123 11.0792 52.2591C12.2875 54.9369 13.4924 57.6147 14.6957 60.2924C15.1033 61.2086 15.5126 62.1248 15.9202 63.0409C16.0551 63.3419 16.1882 63.6429 16.323 63.944C16.3542 64.0114 16.3854 64.0805 16.4183 64.1479L16.9888 65.4193L17.5953 64.0689C17.7728 63.763 17.9044 63.4258 18.0375 63.0886C18.1081 62.9061 18.1822 62.7234 18.2627 62.5458C18.8511 61.2629 19.4331 59.9782 20.015 58.692L20.2977 58.067C20.7843 56.9896 21.2692 55.9106 21.7542 54.8316L24.2034 49.3889C24.5453 48.6306 24.8889 47.874 25.2325 47.1174C26.2352 44.9134 28.2077 43.9923 30.6241 44.5186C32.5309 44.9462 33.9282 46.8378 33.9282 49.0583Z" fill="white"/>
<path d="M11.5338 38.7027C9.84232 38.6813 8.49279 37.2667 8.52397 35.5413C8.55683 33.8702 9.959 32.5297 11.6521 32.551C13.3667 32.5839 14.7047 33.9771 14.6718 35.7025C14.639 37.3852 13.2368 38.724 11.5338 38.7027Z" fill="white"/>
<path d="M26.2212 19.6094V30.281H10.0116C7.29933 30.281 6.00072 31.5804 5.98428 34.2943V38.686H0.015625V34.8569C0.015625 33.5707 0.097815 32.2877 0.510411 31.0376C1.51313 27.9618 3.56789 25.9716 6.54318 24.8366C7.74318 24.3761 8.99243 24.2774 10.2418 24.2774H19.0361C19.2252 24.2774 19.4175 24.2971 19.6246 24.2774H20.2788V24.0356C20.2788 24.0356 20.2838 24.0323 20.2854 24.0307C20.2854 22.649 20.2689 21.1852 20.2854 19.7213C20.3019 18.9318 20.1375 18.208 19.8416 17.4843C18.9868 15.3789 17.0143 14.2934 14.5156 14.5894C12.5924 14.8032 10.8664 16.5303 10.554 18.537C10.5048 18.8331 10.4719 19.1291 10.4226 19.4581H4.5213C4.57061 17.0237 5.26101 14.8361 6.724 12.9446C8.95956 10.0168 11.9842 8.50359 15.6335 8.55293C19.1348 8.60227 21.9785 10.1977 24.0662 13.0268C25.4979 14.9693 26.2212 17.1586 26.2212 19.6094Z" fill="white"/>
<path d="M92.8274 12.8461C90.2302 9.35904 85.4465 7.71423 81.3538 8.89852C78.6088 9.6979 76.4435 11.3838 75.066 13.5451C75.0019 13.6438 74.9411 13.7424 74.8803 13.8428C74.8524 13.8905 74.8244 13.9382 74.7964 13.9859C73.3137 16.5781 72.9275 19.7789 73.9729 22.9337C73.9828 22.965 73.9943 22.9962 74.0058 23.0275C74.1488 23.4272 74.3132 23.817 74.5005 24.1953H34.8832V0H29.0312V30.2318H84.2797C85.9613 30.2318 87.528 29.8107 88.9875 29.0706C89.0266 29.0508 89.0664 29.0311 89.1055 29.0097C89.4311 28.8403 89.7498 28.6561 90.0655 28.4554C90.1168 28.4225 90.1674 28.3896 90.2172 28.3551C92.0612 27.1412 93.3981 25.447 94.1803 23.5439C94.2133 23.4634 94.2462 23.3828 94.2769 23.3022C94.2999 23.243 94.3236 23.1838 94.3428 23.1245C94.3711 23.0554 94.3956 22.9847 94.4186 22.9123C94.4485 22.8268 94.4761 22.7413 94.5044 22.6558C94.5044 22.6525 94.5075 22.6492 94.5075 22.6443C94.5389 22.5406 94.5695 22.437 94.5994 22.3334C94.6883 22.0143 94.7618 21.6919 94.8231 21.3662C94.843 21.2576 94.8607 21.1491 94.8775 21.0389C94.9066 20.8498 94.9296 20.6606 94.948 20.4698C95.2077 17.8578 94.5305 15.1307 92.8274 12.8461ZM79.463 19.2609C79.5128 16.695 81.6656 14.6389 84.2628 14.6718C86.8929 14.7212 88.9477 16.8594 88.8986 19.5076C88.8496 22.09 86.696 24.146 84.082 24.1131C81.4848 24.0801 79.414 21.909 79.463 19.2609Z" fill="white"/>
</g>
<defs>
<clipPath id="clip0_1500_1509">
<rect width="95" height="74.3146" fill="white"/>
</clipPath>
</defs>
</svg>
