<svg width="322" height="212" viewBox="0 0 322 212" fill="none" xmlns="http://www.w3.org/2000/svg">
<g clip-path="url(#clip0_1417_26)">
<path d="M26.0481 202.355C25.5994 202.563 24.8055 202.667 23.6405 202.667H22.5446V197.266H23.4506C24.5811 197.266 25.3664 197.353 25.8669 197.526C26.3846 197.708 26.7988 198.019 27.0836 198.461C27.3684 198.893 27.5151 199.387 27.5151 199.923C27.5151 200.46 27.3856 200.962 27.1354 201.377C26.8765 201.81 26.5141 202.139 26.0481 202.346V202.355ZM31.476 210.179C31.1481 209.729 30.708 209.045 30.1643 208.171C29.3273 206.786 28.6542 205.808 28.1968 205.263C27.7394 204.718 27.2735 204.294 26.7988 203.982L26.3933 203.705L26.8506 203.532C27.6359 203.229 28.2486 202.762 28.6714 202.147C29.0856 201.542 29.3014 200.797 29.3014 199.949C29.3014 198.694 28.8785 197.734 28.0156 196.998C27.1526 196.262 25.9532 195.89 24.4516 195.89H20.8359V210.88H22.5446V204.138H23.373C24.141 204.138 24.6846 204.224 25.0384 204.415C25.3664 204.588 25.7288 204.882 26.1258 205.272C26.5141 205.652 26.9369 206.172 27.4115 206.821L28.1623 208.05L28.8526 209.184L29.2755 209.772C29.3445 209.867 29.3877 209.936 29.4135 209.98L30.009 210.871H32.0024L31.4846 210.17L31.476 210.179Z" fill="white"/>
<path d="M46.8608 209.391V210.854H38.3867V195.89H46.645V197.353H40.0953V202.589H46.4293V204.069H40.0953V209.391H46.8608Z" fill="white"/>
<path d="M61.1284 207.12C61.1284 208.297 60.7574 209.241 59.9635 209.968C59.1868 210.695 58.1599 211.067 56.9 211.067C55.4762 211.067 54.1645 210.634 52.9823 209.777V207.77C54.1214 208.998 55.433 209.622 56.8828 209.622C57.6335 209.622 58.2721 209.405 58.7726 208.981C59.2904 208.548 59.5579 207.995 59.5579 207.328C59.5579 206.298 58.833 205.32 57.4005 204.429L55.7178 203.408C54.6995 202.776 53.966 202.161 53.5432 201.573C53.129 200.993 52.9219 200.318 52.9219 199.565C52.9219 198.405 53.3016 197.497 54.0955 196.778C54.898 196.069 55.9422 195.705 57.2193 195.705C58.4015 195.705 59.5147 196.034 60.5157 196.674V198.492C59.4802 197.626 58.3584 197.185 57.1762 197.185C56.3995 197.185 55.7523 197.375 55.2518 197.739C54.7254 198.12 54.4493 198.63 54.4493 199.227C54.4493 199.755 54.6478 200.249 55.0274 200.699C55.3812 201.131 55.9594 201.573 56.7447 202.032L58.4361 203.035C60.2569 204.126 61.1284 205.467 61.1284 207.129V207.12Z" fill="white"/>
<path d="M69.7789 195.89H68.0703V210.88H69.7789V195.89Z" fill="white"/>
<path d="M87.8757 207.652C87.5219 208.006 87.1336 208.309 86.6935 208.552C86.2707 208.794 85.727 208.993 85.1057 209.149C84.4844 209.305 83.5869 209.391 82.4651 209.391H79.3844V197.353H82.3961C83.4834 197.353 84.2514 197.396 84.7519 197.483C85.2524 197.569 85.7874 197.742 86.3397 198.002C86.892 198.27 87.3925 198.608 87.8239 199.014C88.9889 200.105 89.5843 201.542 89.5843 203.264C89.5843 204.986 89.0062 206.492 87.8671 207.652H87.8757ZM90.3265 199.499C89.6275 198.313 88.6783 197.413 87.5047 196.808C86.3224 196.193 84.6828 195.89 82.6377 195.89H77.6758V210.862H82.3098C83.6646 210.862 84.5879 210.819 85.0625 210.741C85.5285 210.672 86.0549 210.525 86.6158 210.3C87.5737 209.936 88.428 209.391 89.1529 208.682C89.8605 207.989 90.4128 207.176 90.8011 206.267C91.1808 205.358 91.3793 204.389 91.3793 203.394C91.3793 202 91.0254 200.685 90.3265 199.508V199.499Z" fill="white"/>
<path d="M107.079 209.391V210.854H98.6133V195.89H106.872V197.353H100.322V202.589H106.656V204.069H100.322V209.391H107.079Z" fill="white"/>
<path d="M127.768 195.89V210.871H126.241L115.98 199.032L115.54 198.521V210.871H113.961V195.89H115.385L125.731 207.842L126.172 208.344V195.89H127.768Z" fill="white"/>
<path d="M148.374 207.989V209.815C146.829 210.637 145.026 211.053 143.007 211.053C141.333 211.053 139.9 210.706 138.744 210.04C137.587 209.374 136.655 208.43 135.982 207.262C135.309 206.085 134.973 204.795 134.973 203.428C134.973 201.256 135.758 199.404 137.303 197.915C138.847 196.435 140.789 195.682 143.067 195.682C144.603 195.682 146.329 196.08 148.227 196.868V198.659C146.51 197.742 144.819 197.283 143.179 197.283C141.35 197.283 139.805 197.872 138.597 199.023C137.38 200.191 136.768 201.671 136.768 203.419C136.768 205.168 137.372 206.656 138.571 207.79C139.762 208.924 141.315 209.503 143.153 209.503C144.991 209.503 146.691 208.993 148.391 207.98L148.374 207.989Z" fill="white"/>
<path d="M164.028 209.391V210.854H155.562V195.89H163.821V197.353H157.271V202.589H163.605V204.069H157.271V209.391H164.028Z" fill="white"/>
<path d="M178.296 207.12C178.296 208.297 177.917 209.241 177.131 209.968C176.355 210.695 175.328 211.067 174.068 211.067C172.644 211.067 171.324 210.634 170.15 209.777V207.77C171.289 208.998 172.601 209.622 174.051 209.622C174.801 209.622 175.44 209.405 175.949 208.981C176.467 208.548 176.734 207.995 176.734 207.328C176.734 206.298 176.01 205.32 174.577 204.429L172.894 203.408C171.876 202.776 171.143 202.161 170.711 201.573C170.306 200.993 170.09 200.318 170.09 199.565C170.09 198.405 170.478 197.497 171.272 196.778C172.066 196.069 173.119 195.705 174.396 195.705C175.587 195.705 176.691 196.034 177.692 196.674V198.492C176.648 197.626 175.526 197.185 174.353 197.185C173.576 197.185 172.929 197.375 172.428 197.739C171.893 198.12 171.626 198.63 171.626 199.227C171.626 199.755 171.816 200.249 172.195 200.699C172.558 201.131 173.136 201.573 173.913 202.032L175.604 203.035C177.425 204.126 178.305 205.467 178.305 207.129L178.296 207.12Z" fill="white"/>
<path d="M202.903 207.12C202.903 208.297 202.523 209.241 201.738 209.968C200.961 210.695 199.934 211.067 198.674 211.067C197.25 211.067 195.93 210.634 194.757 209.777V207.77C195.896 208.998 197.207 209.622 198.657 209.622C199.408 209.622 200.046 209.405 200.547 208.981C201.065 208.548 201.332 207.995 201.332 207.328C201.332 206.298 200.607 205.32 199.166 204.429L197.492 203.408C196.474 202.776 195.74 202.161 195.309 201.573C194.895 200.993 194.688 200.318 194.688 199.565C194.688 198.405 195.076 197.497 195.87 196.778C196.655 196.069 197.716 195.705 198.985 195.705C200.176 195.705 201.28 196.034 202.29 196.674V198.492C201.246 197.626 200.124 197.185 198.942 197.185C198.174 197.185 197.527 197.375 197.017 197.739C196.482 198.12 196.215 198.63 196.215 199.227C196.215 199.755 196.405 200.249 196.793 200.699C197.156 201.131 197.734 201.573 198.51 202.032L200.202 203.035C202.014 204.126 202.903 205.467 202.903 207.129V207.12Z" fill="white"/>
<path d="M222.243 195.891V204.433C222.243 205.593 222.156 206.475 221.992 207.055C221.82 207.635 221.613 208.12 221.38 208.509C221.138 208.881 220.845 209.227 220.491 209.53C219.317 210.534 217.764 211.054 215.857 211.054C213.95 211.054 212.336 210.543 211.171 209.539C210.826 209.227 210.524 208.881 210.282 208.501C210.041 208.111 209.834 207.644 209.687 207.081C209.523 206.527 209.445 205.619 209.445 204.398V195.882H211.163V204.424C211.163 205.939 211.335 206.977 211.698 207.592C212.051 208.198 212.595 208.691 213.32 209.054C214.028 209.418 214.873 209.6 215.831 209.6C217.195 209.6 218.334 209.227 219.205 208.509C219.671 208.111 220.016 207.626 220.223 207.09C220.422 206.553 220.525 205.67 220.525 204.416V195.874H222.243V195.891Z" fill="white"/>
<path d="M231.528 197.353V202.182H237.56V203.653H231.528V210.871H229.828V195.89H237.56V197.353H231.528Z" fill="white"/>
<path d="M256.244 207.747C255.044 208.924 253.534 209.521 251.748 209.521C249.962 209.521 248.477 208.933 247.287 207.791C246.096 206.631 245.5 205.168 245.5 203.437C245.5 201.706 246.104 200.157 247.287 199.015C248.46 197.855 249.988 197.275 251.817 197.275C253.646 197.275 255.044 197.864 256.244 199.032C257.443 200.192 258.047 201.654 258.047 203.351C258.047 205.047 257.443 206.588 256.244 207.756V207.747ZM257.521 197.872C255.985 196.41 254.035 195.666 251.739 195.666C249.444 195.666 247.494 196.41 245.984 197.872C244.482 199.335 243.723 201.204 243.723 203.437C243.723 205.67 244.482 207.444 245.975 208.881C247.468 210.326 249.366 211.062 251.619 211.062C253.983 211.062 255.959 210.326 257.504 208.881C259.048 207.444 259.834 205.592 259.834 203.394C259.834 201.196 259.066 199.335 257.53 197.872H257.521Z" fill="white"/>
<path d="M279.473 195.891V204.433C279.473 205.593 279.387 206.475 279.223 207.055C279.059 207.635 278.852 208.12 278.61 208.509C278.369 208.881 278.075 209.227 277.721 209.53C276.548 210.534 274.995 211.054 273.087 211.054C271.18 211.054 269.567 210.543 268.41 209.539C268.065 209.227 267.763 208.881 267.521 208.501C267.271 208.111 267.073 207.644 266.917 207.081C266.753 206.527 266.676 205.619 266.676 204.398V195.882H268.384V204.424C268.384 205.939 268.557 206.977 268.919 207.592C269.265 208.198 269.817 208.691 270.542 209.054C271.249 209.418 272.095 209.6 273.053 209.6C274.416 209.6 275.555 209.227 276.427 208.509C276.893 208.111 277.238 207.626 277.445 207.09C277.644 206.553 277.756 205.67 277.756 204.416V195.874H279.473V195.891Z" fill="white"/>
<mask id="mask0_1417_26" style="mask-type:luminance" maskUnits="userSpaceOnUse" x="0" y="0" width="322" height="212">
<path d="M321.013 0.00830078H0V211.145H321.013V0.00830078Z" fill="white"/>
</mask>
<g mask="url(#mask0_1417_26)">
<path d="M299.579 195.892V210.873H297.879V204.131H288.689V210.873H286.98V195.892H288.689V202.591H297.879V195.892H299.579Z" fill="white"/>
<path d="M168.006 25.489C166.003 27.5142 163.259 28.7431 160.196 28.7431H159.1V6.5529H160.196C163.259 6.5529 166.003 7.7905 168.006 9.80701C170.016 11.8149 171.25 14.5757 171.25 17.648C171.25 20.7204 170.016 23.4725 168.006 25.489ZM159.091 81.0858H160.187C164.312 81.0858 168.04 79.4155 170.741 76.698C173.451 73.9891 175.116 70.2503 175.116 66.1048C175.116 61.9593 173.451 58.2292 170.741 55.5116C168.04 52.8028 164.312 51.1325 160.187 51.1325H159.091V44.9964H160.187C166.003 44.9964 171.25 47.3591 175.064 51.1757C178.879 55.0097 181.234 60.2716 181.234 66.1048C181.234 71.938 178.879 77.2086 175.064 81.0339C171.25 84.8592 166.003 87.2132 160.187 87.2132H159.091V81.0858ZM173.615 31.3395L172.122 30.7597L173.2 29.574C176.074 26.4324 177.826 22.2522 177.826 17.648C177.826 7.87705 169.93 -0.0332031 160.196 -0.0332031H150.755V85.0842L149.081 84.037C147.718 83.1802 146.458 82.1763 145.319 81.0339C144.758 80.4713 144.24 79.8742 143.748 79.2684L143.507 78.9655V-0.0332031H141.116V67.7924H135.654C136.068 73.9458 138.717 79.4674 142.808 83.561C147.278 88.0354 153.405 90.7876 160.213 90.7876C167.013 90.7876 173.149 88.0268 177.61 83.561C182.071 79.078 184.824 72.9332 184.824 66.1048C184.824 59.2764 182.071 53.1316 177.61 48.6573C173.149 44.1829 167.013 41.4307 160.213 41.4307C158.522 41.4307 156.882 41.5951 155.294 41.9154L153.983 42.1837V35.7447L154.889 35.5889C156.623 35.2946 158.401 35.1389 160.213 35.1389C177.265 35.1389 191.089 49.0034 191.089 66.1135C191.089 83.2235 177.265 97.0881 160.213 97.0967C143.714 97.0967 130.243 84.1236 129.363 67.8011H123.072C123.952 87.6027 140.236 103.389 160.205 103.389C180.173 103.389 197.371 86.7026 197.371 66.1135C197.371 50.2757 187.517 36.7486 173.632 31.3395H173.615ZM0 177.411H320.418V176.519H0V177.411ZM0 173.101H320.418V175.256H0V173.101ZM259.589 145.216C259.589 142.429 258.649 140.127 256.724 138.197C254.791 136.259 252.496 135.315 249.717 135.315C246.938 135.315 244.66 136.259 242.736 138.197C240.812 140.127 239.871 142.429 239.871 145.216C239.871 148.003 240.812 150.288 242.736 152.226C244.66 154.165 246.947 155.099 249.717 155.099C252.487 155.099 254.791 154.156 256.724 152.226C258.657 150.288 259.598 147.994 259.598 145.216H259.589ZM260.478 145.216C260.478 148.219 259.434 150.764 257.346 152.849C255.257 154.935 252.712 155.982 249.709 155.982C246.705 155.982 244.177 154.935 242.106 152.849C240.026 150.764 238.991 148.219 238.991 145.216C238.991 142.213 240.035 139.66 242.106 137.574C244.186 135.488 246.714 134.432 249.709 134.432C252.703 134.432 255.257 135.48 257.346 137.574C259.425 139.66 260.478 142.213 260.478 145.216ZM258.277 153.767C255.965 156.095 253.134 157.254 249.778 157.254C246.421 157.254 243.556 156.095 241.226 153.767C238.887 151.447 237.722 148.591 237.722 145.216C237.722 141.841 238.896 138.967 241.226 136.648C243.564 134.329 246.421 133.169 249.778 133.169C253.134 133.169 255.965 134.329 258.277 136.648C260.59 138.976 261.747 141.841 261.747 145.216C261.747 148.591 260.59 151.439 258.277 153.767ZM259.589 135.324C256.897 132.615 253.592 131.265 249.709 131.265C245.825 131.265 242.555 132.615 239.871 135.324C237.179 138.024 235.832 141.33 235.832 145.225C235.832 149.119 237.179 152.399 239.871 155.099C242.555 157.808 245.834 159.158 249.709 159.158C253.583 159.158 256.897 157.808 259.589 155.099C262.29 152.391 263.645 149.093 263.645 145.225C263.645 141.356 262.29 138.033 259.589 135.324ZM277.167 134.32H278.056V159.158H277.167V134.32ZM284.804 145.259C288.334 143.952 290.094 141.694 290.094 138.474C290.094 136.267 289.309 134.519 287.721 133.212C286.142 131.914 283.855 131.273 280.878 131.273H273.75V159.167H275.907V133.065H280.438C282.794 133.065 284.606 133.55 285.866 134.502C287.134 135.462 287.755 136.804 287.755 138.509C287.755 140.214 287.134 141.607 285.9 142.559C284.658 143.511 282.863 143.987 280.507 143.987H279.299V145.787H279.652C281.387 145.787 282.716 146.107 283.613 146.739C284.511 147.371 285.771 148.963 287.393 151.525L292.251 159.15H294.797L288.489 149.526C286.936 147.12 285.702 145.709 284.787 145.268L284.804 145.259ZM308.345 147.302H309.225V156.095H308.345V147.302ZM308.345 142.957H309.225V134.32H308.345V142.957ZM319.607 157.367L320.426 159.167H304.937V131.273H320.107L319.512 133.065H307.085V144.238H315.559V146.047H307.085V157.367H319.615H319.607ZM203.61 159.167H204.499V138.881L203.61 137.842V159.167ZM223.553 131.273H225.727V159.167H223.561V134.432L212.982 147.466L202.35 134.432V159.167H200.193V131.273H202.35L212.982 144.221L223.553 131.273ZM180.924 159.089H181.804V134.337H180.924V159.089ZM167.048 131.273H190.097V133.065H179.664V159.167H177.489V133.065H167.056V131.273H167.048ZM154.88 156.095H155.769V131.273H154.88V156.095ZM166.771 157.358L167.367 159.158H151.472V131.265H153.62V157.358H166.771ZM140.478 159.158H141.367V131.265H140.478V159.158ZM137.069 131.265H139.218V159.158H137.069V131.265ZM112.881 156.095H113.77V147.267H112.881V156.095ZM112.881 134.32H113.77V142.905H112.881V134.32ZM122.788 155.826C121.554 156.848 119.759 157.358 117.368 157.358H111.612V146.004H116.436C121.907 146.004 124.643 147.908 124.643 151.724C124.643 153.438 124.022 154.797 122.796 155.835L122.788 155.826ZM111.621 133.056H114.529C119.638 133.056 122.201 134.917 122.201 138.63C122.201 142.343 119.664 144.177 114.607 144.177H111.621V133.048V133.056ZM120.518 144.688C123.193 143.234 124.522 141.166 124.522 138.474C124.522 136.224 123.737 134.458 122.166 133.186C120.596 131.905 118.3 131.273 115.263 131.273H109.464V159.167H117.61C120.475 159.167 122.753 158.501 124.436 157.159C126.11 155.818 126.947 154.026 126.947 151.767C126.947 147.985 124.807 145.631 120.518 144.697V144.688ZM69.5787 147.302H70.4676V156.095H69.5787V147.302ZM69.5787 142.957H70.4676V134.32H69.5787V142.957ZM80.8401 157.367L81.6512 159.167H66.1529V131.273H81.3233L80.7193 133.065H68.293V144.238H76.767V146.047H68.293V157.367H80.8315H80.8401ZM36.58 159.167H37.4688V147.207H36.58V159.167ZM36.58 131.273H37.4688V142.888H36.58V131.273ZM53.8733 144.151H35.3201V131.273H33.1714V159.167H35.3201V145.943H53.8733V159.167H56.0479V131.273H53.8733V144.151ZM13.8847 134.329H14.7735V159.081H13.8847V134.329ZM0.00862939 133.065H10.4329V159.167H12.6075V133.065H23.0405V131.273H0V133.065H0.00862939Z" fill="white"/>
</g>
</g>
<defs>
<clipPath id="clip0_1417_26">
<rect width="321.013" height="211.136" fill="white"/>
</clipPath>
</defs>
</svg>
