<svg width="361" height="114" viewBox="0 0 361 114" fill="none" xmlns="http://www.w3.org/2000/svg">
<g opacity="0.4">
<mask id="path-1-inside-1_1325_545" fill="white">
<path d="M70.0775 32.2359C70.0775 34.6203 69.4615 36.6271 68.2296 38.2565C66.9976 39.846 65.3286 41.0581 63.2223 41.8927C61.1559 42.7272 58.8907 43.1445 56.4268 43.1445H35.9807V0.821486H58.6324C60.6194 0.821486 62.3282 1.35797 63.7588 2.43095C65.2292 3.46419 66.3419 4.81535 67.097 6.48442C67.8918 8.11376 68.2892 9.82257 68.2892 11.6109C68.2892 13.6376 67.7726 15.565 66.7393 17.393C65.7061 19.2211 64.196 20.5722 62.209 21.4465C64.6331 22.1618 66.5406 23.4533 67.9315 25.3211C69.3622 27.1889 70.0775 29.4938 70.0775 32.2359ZM61.7917 30.686C61.7917 29.613 61.5731 28.6593 61.136 27.8247C60.6989 26.9505 60.1028 26.2749 59.3477 25.798C58.6324 25.2814 57.7978 25.0231 56.8441 25.0231H44.2068V36.1701H56.4268C57.4203 36.1701 58.3145 35.9317 59.1093 35.4548C59.9438 34.9382 60.5995 34.2626 61.0764 33.4281C61.5533 32.5935 61.7917 31.6795 61.7917 30.686ZM44.2068 7.85545V18.5256H55.175C56.089 18.5256 56.9236 18.307 57.6786 17.8699C58.4337 17.4328 59.0298 16.8168 59.4669 16.022C59.9438 15.2272 60.1822 14.2734 60.1822 13.1607C60.1822 12.0877 59.9637 11.1539 59.5265 10.3591C59.1291 9.56426 58.5728 8.94829 57.8575 8.51115C57.1819 8.07402 56.407 7.85545 55.5327 7.85545H44.2068Z"/>
<path d="M76.4967 43.1445V0.821486H84.7229V43.1445H76.4967Z"/>
<path d="M93.553 43.1445V0.821486H101.779V35.9317H123.358V43.1445H93.553Z"/>
<path d="M153.905 8.03427H140.373V43.1445H132.207V8.03427H118.675V0.821486H153.905V8.03427Z"/>
<path d="M193.673 43.1445V15.3663L182.824 36.0509H178.234L167.385 15.3663V43.1445H159.159V0.821486H167.981L180.499 24.9039L193.136 0.821486H201.899V43.1445H193.673Z"/>
<path d="M228.797 43.4425C225.697 43.4425 222.876 42.8464 220.332 41.6542C217.829 40.462 215.663 38.8526 213.835 36.8258C212.047 34.7593 210.656 32.4544 209.662 29.9111C208.669 27.328 208.172 24.6853 208.172 21.983C208.172 19.1614 208.689 16.479 209.722 13.9356C210.795 11.3526 212.245 9.06751 214.073 7.08052C215.941 5.05378 218.127 3.46419 220.63 2.31173C223.174 1.11954 225.956 0.523438 228.976 0.523438C232.036 0.523438 234.818 1.13941 237.321 2.37134C239.865 3.60328 242.03 5.25248 243.819 7.31896C245.607 9.38543 246.998 11.6903 247.991 14.2337C248.985 16.777 249.482 19.3999 249.482 22.1022C249.482 24.884 248.965 27.5664 247.932 30.1495C246.899 32.6929 245.448 34.9779 243.58 37.0047C241.752 38.9916 239.567 40.5614 237.023 41.7138C234.52 42.8663 231.777 43.4425 228.797 43.4425ZM216.517 21.983C216.517 23.811 216.796 25.5794 217.352 27.2882C217.908 28.9971 218.703 30.527 219.736 31.8782C220.809 33.1896 222.101 34.2427 223.611 35.0375C225.161 35.7926 226.909 36.1701 228.857 36.1701C230.844 36.1701 232.612 35.7727 234.162 34.9779C235.712 34.1434 237.003 33.0505 238.037 31.6994C239.07 30.3085 239.845 28.7785 240.361 27.1094C240.918 25.4006 241.196 23.6918 241.196 21.983C241.196 20.1549 240.898 18.4064 240.302 16.7373C239.745 15.0285 238.931 13.5184 237.858 12.207C236.824 10.8558 235.533 9.8027 233.983 9.04764C232.473 8.25285 230.764 7.85545 228.857 7.85545C226.83 7.85545 225.042 8.27271 223.492 9.10725C221.982 9.90205 220.71 10.975 219.677 12.3262C218.643 13.6773 217.849 15.1875 217.292 16.8565C216.776 18.5256 216.517 20.2344 216.517 21.983Z"/>
<path d="M255.792 43.1445V0.821486H274.509C276.457 0.821486 278.245 1.21888 279.874 2.01368C281.543 2.80848 282.974 3.88146 284.166 5.23261C285.398 6.58377 286.332 8.09388 286.968 9.76296C287.643 11.432 287.981 13.1409 287.981 14.8894C287.981 16.6777 287.663 18.4064 287.027 20.0755C286.431 21.7048 285.557 23.1354 284.405 24.3674C283.252 25.5993 281.901 26.5531 280.351 27.2286L290.008 43.1445H280.947L272.244 28.9573H264.018V43.1445H255.792ZM264.018 21.7445H274.331C275.364 21.7445 276.278 21.4465 277.073 20.8504C277.867 20.2145 278.503 19.38 278.98 18.3468C279.457 17.3135 279.695 16.1611 279.695 14.8894C279.695 13.5382 279.417 12.3659 278.861 11.3724C278.305 10.3392 277.589 9.52452 276.715 8.92842C275.88 8.33232 274.966 8.03427 273.973 8.03427H264.018V21.7445Z"/>
<path d="M324.822 35.9317V43.1445H295.435V0.821486H324.286V8.03427H303.661V18.2276H321.484V24.9039H303.661V35.9317H324.822Z"/>
<path d="M0.5 113V70.6767H19.2175C21.1647 70.6767 22.953 71.0741 24.5824 71.8689C26.2514 72.6637 27.6821 73.7367 28.8743 75.0879C30.1062 76.439 31.0401 77.9491 31.6759 79.6182C32.3515 81.2873 32.6893 82.9961 32.6893 84.7447C32.6893 86.533 32.3714 88.2617 31.7355 89.9307C31.1394 91.5601 30.2652 92.9907 29.1127 94.2226C27.9603 95.4546 26.6091 96.4083 25.0592 97.0839L34.716 113H25.6553L16.9523 98.8126H8.72616V113H0.5ZM8.72616 91.5998H19.0387C20.0719 91.5998 20.9859 91.3017 21.7807 90.7057C22.5755 90.0698 23.2113 89.2353 23.6882 88.202C24.1651 87.1688 24.4035 86.0163 24.4035 84.7447C24.4035 83.3935 24.1254 82.2212 23.569 81.2277C23.0126 80.1944 22.2973 79.3798 21.423 78.7837C20.5885 78.1876 19.6745 77.8895 18.681 77.8895H8.72616V91.5998Z"/>
<path d="M69.5305 105.787V113H40.1429V70.6767H68.994V77.8895H48.369V88.0828H66.1924V94.7591H48.369V105.787H69.5305Z"/>
<path d="M101.159 81.7642C100.88 81.486 100.364 81.1085 99.6088 80.6316C98.8935 80.1547 97.9993 79.6977 96.9263 79.2606C95.8931 78.8234 94.7605 78.4459 93.5286 78.128C92.2966 77.7703 91.0448 77.5915 89.7732 77.5915C87.5477 77.5915 85.8588 78.0088 84.7063 78.8433C83.5936 79.6778 83.0372 80.8502 83.0372 82.3603C83.0372 83.5127 83.3949 84.4267 84.1102 85.1023C84.8255 85.7779 85.8985 86.3541 87.3292 86.831C88.7598 87.3079 90.5481 87.8245 92.694 88.3809C95.4758 89.0564 97.8801 89.891 99.9068 90.8845C101.973 91.8382 103.543 93.1099 104.616 94.6995C105.729 96.2494 106.285 98.3158 106.285 100.899C106.285 103.164 105.868 105.111 105.033 106.741C104.199 108.33 103.046 109.622 101.576 110.615C100.106 111.609 98.4364 112.344 96.5687 112.821C94.7009 113.258 92.7139 113.477 90.6077 113.477C88.5015 113.477 86.3953 113.258 84.2891 112.821C82.1828 112.384 80.1561 111.768 78.2089 110.973C76.2616 110.138 74.4733 109.145 72.844 107.993L76.4802 100.899C76.8378 101.257 77.4737 101.733 78.3877 102.33C79.3017 102.886 80.4144 103.462 81.7258 104.058C83.0372 104.615 84.4679 105.091 86.0177 105.489C87.5676 105.886 89.1373 106.085 90.7269 106.085C92.9524 106.085 94.6413 105.707 95.7937 104.952C96.9462 104.197 97.5224 103.124 97.5224 101.733C97.5224 100.462 97.0654 99.4683 96.1514 98.753C95.2374 98.0377 93.9657 97.4217 92.3364 96.9051C90.707 96.3487 88.7797 95.7526 86.5542 95.1168C83.8917 94.3617 81.6662 93.5272 79.8779 92.6132C78.0896 91.6594 76.7583 90.4672 75.8841 89.0366C75.0098 87.6059 74.5727 85.8176 74.5727 83.6717C74.5727 80.7707 75.2482 78.3465 76.5994 76.3993C77.9903 74.4123 79.8581 72.922 82.2027 71.9286C84.5474 70.8953 87.1503 70.3787 90.0116 70.3787C91.9986 70.3787 93.8664 70.5973 95.6149 71.0344C97.4032 71.4715 99.0723 72.0478 100.622 72.7631C102.172 73.4784 103.563 74.2533 104.795 75.0879L101.159 81.7642Z"/>
<path d="M112.501 113V70.6767H120.727V113H112.501Z"/>
<path d="M129.558 113V70.6767H144.937C149.547 70.6767 153.402 71.6305 156.501 73.538C159.601 75.4058 161.926 77.9491 163.476 81.1681C165.025 84.3473 165.8 87.8841 165.8 91.7786C165.8 96.0705 164.946 99.8061 163.237 102.985C161.528 106.164 159.104 108.628 155.965 110.377C152.865 112.125 149.189 113 144.937 113H129.558ZM157.515 91.7786C157.515 89.0366 157.018 86.6323 156.024 84.5658C155.031 82.4596 153.6 80.8303 151.732 79.6778C149.865 78.4856 147.599 77.8895 144.937 77.8895H137.784V105.787H144.937C147.639 105.787 149.924 105.191 151.792 103.999C153.66 102.767 155.071 101.098 156.024 98.9914C157.018 96.8455 157.515 94.4412 157.515 91.7786Z"/>
<path d="M201.615 105.787V113H172.228V70.6767H201.079V77.8895H180.454V88.0828H198.277V94.7591H180.454V105.787H201.615Z"/>
<path d="M216.254 85.8176V113H208.028V70.6767H214.585L236.462 98.5741V70.7364H244.688V113H237.833L216.254 85.8176Z"/>
<path d="M250.929 91.5402C250.929 88.9571 251.386 86.4336 252.3 83.9697C253.254 81.4661 254.625 79.201 256.413 77.1742C258.202 75.1077 260.387 73.4784 262.97 72.2862C265.554 71.0543 268.494 70.4383 271.793 70.4383C275.687 70.4383 279.045 71.2927 281.867 73.0015C284.728 74.7103 286.854 76.9358 288.245 79.6778L281.926 84.0293C281.211 82.4397 280.277 81.1879 279.125 80.2739C277.972 79.3202 276.74 78.6645 275.429 78.3068C274.117 77.9094 272.826 77.7107 271.554 77.7107C269.488 77.7107 267.68 78.128 266.13 78.9625C264.62 79.7971 263.348 80.8899 262.315 82.2411C261.281 83.5922 260.507 85.1023 259.99 86.7714C259.513 88.4405 259.275 90.1095 259.275 91.7786C259.275 93.6464 259.573 95.4546 260.169 97.2031C260.765 98.9119 261.599 100.442 262.672 101.793C263.785 103.104 265.096 104.158 266.607 104.952C268.156 105.707 269.845 106.085 271.673 106.085C272.985 106.085 274.316 105.866 275.667 105.429C277.018 104.992 278.27 104.297 279.423 103.343C280.575 102.389 281.469 101.157 282.105 99.6471L288.841 103.522C288.007 105.628 286.636 107.416 284.728 108.887C282.86 110.357 280.754 111.47 278.409 112.225C276.065 112.98 273.74 113.357 271.435 113.357C268.415 113.357 265.653 112.741 263.149 111.509C260.646 110.238 258.48 108.569 256.652 106.502C254.863 104.396 253.453 102.051 252.419 99.4683C251.426 96.8455 250.929 94.2028 250.929 91.5402Z"/>
<path d="M323.745 105.787V113H294.358V70.6767H323.209V77.8895H302.584V88.0828H320.407V94.7591H302.584V105.787H323.745Z"/>
<path d="M355.374 81.7642C355.095 81.486 354.579 81.1085 353.824 80.6316C353.108 80.1547 352.214 79.6977 351.141 79.2606C350.108 78.8234 348.975 78.4459 347.743 78.128C346.512 77.7703 345.26 77.5915 343.988 77.5915C341.763 77.5915 340.074 78.0088 338.921 78.8433C337.809 79.6778 337.252 80.8502 337.252 82.3603C337.252 83.5127 337.61 84.4267 338.325 85.1023C339.04 85.7779 340.113 86.3541 341.544 86.831C342.975 87.3079 344.763 87.8245 346.909 88.3809C349.691 89.0564 352.095 89.891 354.122 90.8845C356.188 91.8382 357.758 93.1099 358.831 94.6995C359.944 96.2494 360.5 98.3158 360.5 100.899C360.5 103.164 360.083 105.111 359.248 106.741C358.414 108.33 357.261 109.622 355.791 110.615C354.32 111.609 352.651 112.344 350.784 112.821C348.916 113.258 346.929 113.477 344.823 113.477C342.716 113.477 340.61 113.258 338.504 112.821C336.398 112.384 334.371 111.768 332.424 110.973C330.477 110.138 328.688 109.145 327.059 107.993L330.695 100.899C331.053 101.257 331.689 101.733 332.603 102.33C333.517 102.886 334.629 103.462 335.941 104.058C337.252 104.615 338.683 105.091 340.233 105.489C341.783 105.886 343.352 106.085 344.942 106.085C347.167 106.085 348.856 105.707 350.009 104.952C351.161 104.197 351.737 103.124 351.737 101.733C351.737 100.462 351.28 99.4683 350.366 98.753C349.452 98.0377 348.181 97.4217 346.551 96.9051C344.922 96.3487 342.995 95.7526 340.769 95.1168C338.107 94.3617 335.881 93.5272 334.093 92.6132C332.305 91.6594 330.973 90.4672 330.099 89.0366C329.225 87.6059 328.788 85.8176 328.788 83.6717C328.788 80.7707 329.463 78.3465 330.814 76.3993C332.205 74.4123 334.073 72.922 336.418 71.9286C338.762 70.8953 341.365 70.3787 344.227 70.3787C346.214 70.3787 348.081 70.5973 349.83 71.0344C351.618 71.4715 353.287 72.0478 354.837 72.7631C356.387 73.4784 357.778 74.2533 359.01 75.0879L355.374 81.7642Z"/>
</mask>
<path d="M70.0775 32.2359C70.0775 34.6203 69.4615 36.6271 68.2296 38.2565C66.9976 39.846 65.3286 41.0581 63.2223 41.8927C61.1559 42.7272 58.8907 43.1445 56.4268 43.1445H35.9807V0.821486H58.6324C60.6194 0.821486 62.3282 1.35797 63.7588 2.43095C65.2292 3.46419 66.3419 4.81535 67.097 6.48442C67.8918 8.11376 68.2892 9.82257 68.2892 11.6109C68.2892 13.6376 67.7726 15.565 66.7393 17.393C65.7061 19.2211 64.196 20.5722 62.209 21.4465C64.6331 22.1618 66.5406 23.4533 67.9315 25.3211C69.3622 27.1889 70.0775 29.4938 70.0775 32.2359ZM61.7917 30.686C61.7917 29.613 61.5731 28.6593 61.136 27.8247C60.6989 26.9505 60.1028 26.2749 59.3477 25.798C58.6324 25.2814 57.7978 25.0231 56.8441 25.0231H44.2068V36.1701H56.4268C57.4203 36.1701 58.3145 35.9317 59.1093 35.4548C59.9438 34.9382 60.5995 34.2626 61.0764 33.4281C61.5533 32.5935 61.7917 31.6795 61.7917 30.686ZM44.2068 7.85545V18.5256H55.175C56.089 18.5256 56.9236 18.307 57.6786 17.8699C58.4337 17.4328 59.0298 16.8168 59.4669 16.022C59.9438 15.2272 60.1822 14.2734 60.1822 13.1607C60.1822 12.0877 59.9637 11.1539 59.5265 10.3591C59.1291 9.56426 58.5728 8.94829 57.8575 8.51115C57.1819 8.07402 56.407 7.85545 55.5327 7.85545H44.2068Z" stroke="white" stroke-width="2" mask="url(#path-1-inside-1_1325_545)"/>
<path d="M76.4967 43.1445V0.821486H84.7229V43.1445H76.4967Z" stroke="white" stroke-width="2" mask="url(#path-1-inside-1_1325_545)"/>
<path d="M93.553 43.1445V0.821486H101.779V35.9317H123.358V43.1445H93.553Z" stroke="white" stroke-width="2" mask="url(#path-1-inside-1_1325_545)"/>
<path d="M153.905 8.03427H140.373V43.1445H132.207V8.03427H118.675V0.821486H153.905V8.03427Z" stroke="white" stroke-width="2" mask="url(#path-1-inside-1_1325_545)"/>
<path d="M193.673 43.1445V15.3663L182.824 36.0509H178.234L167.385 15.3663V43.1445H159.159V0.821486H167.981L180.499 24.9039L193.136 0.821486H201.899V43.1445H193.673Z" stroke="white" stroke-width="2" mask="url(#path-1-inside-1_1325_545)"/>
<path d="M228.797 43.4425C225.697 43.4425 222.876 42.8464 220.332 41.6542C217.829 40.462 215.663 38.8526 213.835 36.8258C212.047 34.7593 210.656 32.4544 209.662 29.9111C208.669 27.328 208.172 24.6853 208.172 21.983C208.172 19.1614 208.689 16.479 209.722 13.9356C210.795 11.3526 212.245 9.06751 214.073 7.08052C215.941 5.05378 218.127 3.46419 220.63 2.31173C223.174 1.11954 225.956 0.523438 228.976 0.523438C232.036 0.523438 234.818 1.13941 237.321 2.37134C239.865 3.60328 242.03 5.25248 243.819 7.31896C245.607 9.38543 246.998 11.6903 247.991 14.2337C248.985 16.777 249.482 19.3999 249.482 22.1022C249.482 24.884 248.965 27.5664 247.932 30.1495C246.899 32.6929 245.448 34.9779 243.58 37.0047C241.752 38.9916 239.567 40.5614 237.023 41.7138C234.52 42.8663 231.777 43.4425 228.797 43.4425ZM216.517 21.983C216.517 23.811 216.796 25.5794 217.352 27.2882C217.908 28.9971 218.703 30.527 219.736 31.8782C220.809 33.1896 222.101 34.2427 223.611 35.0375C225.161 35.7926 226.909 36.1701 228.857 36.1701C230.844 36.1701 232.612 35.7727 234.162 34.9779C235.712 34.1434 237.003 33.0505 238.037 31.6994C239.07 30.3085 239.845 28.7785 240.361 27.1094C240.918 25.4006 241.196 23.6918 241.196 21.983C241.196 20.1549 240.898 18.4064 240.302 16.7373C239.745 15.0285 238.931 13.5184 237.858 12.207C236.824 10.8558 235.533 9.8027 233.983 9.04764C232.473 8.25285 230.764 7.85545 228.857 7.85545C226.83 7.85545 225.042 8.27271 223.492 9.10725C221.982 9.90205 220.71 10.975 219.677 12.3262C218.643 13.6773 217.849 15.1875 217.292 16.8565C216.776 18.5256 216.517 20.2344 216.517 21.983Z" stroke="white" stroke-width="2" mask="url(#path-1-inside-1_1325_545)"/>
<path d="M255.792 43.1445V0.821486H274.509C276.457 0.821486 278.245 1.21888 279.874 2.01368C281.543 2.80848 282.974 3.88146 284.166 5.23261C285.398 6.58377 286.332 8.09388 286.968 9.76296C287.643 11.432 287.981 13.1409 287.981 14.8894C287.981 16.6777 287.663 18.4064 287.027 20.0755C286.431 21.7048 285.557 23.1354 284.405 24.3674C283.252 25.5993 281.901 26.5531 280.351 27.2286L290.008 43.1445H280.947L272.244 28.9573H264.018V43.1445H255.792ZM264.018 21.7445H274.331C275.364 21.7445 276.278 21.4465 277.073 20.8504C277.867 20.2145 278.503 19.38 278.98 18.3468C279.457 17.3135 279.695 16.1611 279.695 14.8894C279.695 13.5382 279.417 12.3659 278.861 11.3724C278.305 10.3392 277.589 9.52452 276.715 8.92842C275.88 8.33232 274.966 8.03427 273.973 8.03427H264.018V21.7445Z" stroke="white" stroke-width="2" mask="url(#path-1-inside-1_1325_545)"/>
<path d="M324.822 35.9317V43.1445H295.435V0.821486H324.286V8.03427H303.661V18.2276H321.484V24.9039H303.661V35.9317H324.822Z" stroke="white" stroke-width="2" mask="url(#path-1-inside-1_1325_545)"/>
<path d="M0.5 113V70.6767H19.2175C21.1647 70.6767 22.953 71.0741 24.5824 71.8689C26.2514 72.6637 27.6821 73.7367 28.8743 75.0879C30.1062 76.439 31.0401 77.9491 31.6759 79.6182C32.3515 81.2873 32.6893 82.9961 32.6893 84.7447C32.6893 86.533 32.3714 88.2617 31.7355 89.9307C31.1394 91.5601 30.2652 92.9907 29.1127 94.2226C27.9603 95.4546 26.6091 96.4083 25.0592 97.0839L34.716 113H25.6553L16.9523 98.8126H8.72616V113H0.5ZM8.72616 91.5998H19.0387C20.0719 91.5998 20.9859 91.3017 21.7807 90.7057C22.5755 90.0698 23.2113 89.2353 23.6882 88.202C24.1651 87.1688 24.4035 86.0163 24.4035 84.7447C24.4035 83.3935 24.1254 82.2212 23.569 81.2277C23.0126 80.1944 22.2973 79.3798 21.423 78.7837C20.5885 78.1876 19.6745 77.8895 18.681 77.8895H8.72616V91.5998Z" stroke="white" stroke-width="2" mask="url(#path-1-inside-1_1325_545)"/>
<path d="M69.5305 105.787V113H40.1429V70.6767H68.994V77.8895H48.369V88.0828H66.1924V94.7591H48.369V105.787H69.5305Z" stroke="white" stroke-width="2" mask="url(#path-1-inside-1_1325_545)"/>
<path d="M101.159 81.7642C100.88 81.486 100.364 81.1085 99.6088 80.6316C98.8935 80.1547 97.9993 79.6977 96.9263 79.2606C95.8931 78.8234 94.7605 78.4459 93.5286 78.128C92.2966 77.7703 91.0448 77.5915 89.7732 77.5915C87.5477 77.5915 85.8588 78.0088 84.7063 78.8433C83.5936 79.6778 83.0372 80.8502 83.0372 82.3603C83.0372 83.5127 83.3949 84.4267 84.1102 85.1023C84.8255 85.7779 85.8985 86.3541 87.3292 86.831C88.7598 87.3079 90.5481 87.8245 92.694 88.3809C95.4758 89.0564 97.8801 89.891 99.9068 90.8845C101.973 91.8382 103.543 93.1099 104.616 94.6995C105.729 96.2494 106.285 98.3158 106.285 100.899C106.285 103.164 105.868 105.111 105.033 106.741C104.199 108.33 103.046 109.622 101.576 110.615C100.106 111.609 98.4364 112.344 96.5687 112.821C94.7009 113.258 92.7139 113.477 90.6077 113.477C88.5015 113.477 86.3953 113.258 84.2891 112.821C82.1828 112.384 80.1561 111.768 78.2089 110.973C76.2616 110.138 74.4733 109.145 72.844 107.993L76.4802 100.899C76.8378 101.257 77.4737 101.733 78.3877 102.33C79.3017 102.886 80.4144 103.462 81.7258 104.058C83.0372 104.615 84.4679 105.091 86.0177 105.489C87.5676 105.886 89.1373 106.085 90.7269 106.085C92.9524 106.085 94.6413 105.707 95.7937 104.952C96.9462 104.197 97.5224 103.124 97.5224 101.733C97.5224 100.462 97.0654 99.4683 96.1514 98.753C95.2374 98.0377 93.9657 97.4217 92.3364 96.9051C90.707 96.3487 88.7797 95.7526 86.5542 95.1168C83.8917 94.3617 81.6662 93.5272 79.8779 92.6132C78.0896 91.6594 76.7583 90.4672 75.8841 89.0366C75.0098 87.6059 74.5727 85.8176 74.5727 83.6717C74.5727 80.7707 75.2482 78.3465 76.5994 76.3993C77.9903 74.4123 79.8581 72.922 82.2027 71.9286C84.5474 70.8953 87.1503 70.3787 90.0116 70.3787C91.9986 70.3787 93.8664 70.5973 95.6149 71.0344C97.4032 71.4715 99.0723 72.0478 100.622 72.7631C102.172 73.4784 103.563 74.2533 104.795 75.0879L101.159 81.7642Z" stroke="white" stroke-width="2" mask="url(#path-1-inside-1_1325_545)"/>
<path d="M112.501 113V70.6767H120.727V113H112.501Z" stroke="white" stroke-width="2" mask="url(#path-1-inside-1_1325_545)"/>
<path d="M129.558 113V70.6767H144.937C149.547 70.6767 153.402 71.6305 156.501 73.538C159.601 75.4058 161.926 77.9491 163.476 81.1681C165.025 84.3473 165.8 87.8841 165.8 91.7786C165.8 96.0705 164.946 99.8061 163.237 102.985C161.528 106.164 159.104 108.628 155.965 110.377C152.865 112.125 149.189 113 144.937 113H129.558ZM157.515 91.7786C157.515 89.0366 157.018 86.6323 156.024 84.5658C155.031 82.4596 153.6 80.8303 151.732 79.6778C149.865 78.4856 147.599 77.8895 144.937 77.8895H137.784V105.787H144.937C147.639 105.787 149.924 105.191 151.792 103.999C153.66 102.767 155.071 101.098 156.024 98.9914C157.018 96.8455 157.515 94.4412 157.515 91.7786Z" stroke="white" stroke-width="2" mask="url(#path-1-inside-1_1325_545)"/>
<path d="M201.615 105.787V113H172.228V70.6767H201.079V77.8895H180.454V88.0828H198.277V94.7591H180.454V105.787H201.615Z" stroke="white" stroke-width="2" mask="url(#path-1-inside-1_1325_545)"/>
<path d="M216.254 85.8176V113H208.028V70.6767H214.585L236.462 98.5741V70.7364H244.688V113H237.833L216.254 85.8176Z" stroke="white" stroke-width="2" mask="url(#path-1-inside-1_1325_545)"/>
<path d="M250.929 91.5402C250.929 88.9571 251.386 86.4336 252.3 83.9697C253.254 81.4661 254.625 79.201 256.413 77.1742C258.202 75.1077 260.387 73.4784 262.97 72.2862C265.554 71.0543 268.494 70.4383 271.793 70.4383C275.687 70.4383 279.045 71.2927 281.867 73.0015C284.728 74.7103 286.854 76.9358 288.245 79.6778L281.926 84.0293C281.211 82.4397 280.277 81.1879 279.125 80.2739C277.972 79.3202 276.74 78.6645 275.429 78.3068C274.117 77.9094 272.826 77.7107 271.554 77.7107C269.488 77.7107 267.68 78.128 266.13 78.9625C264.62 79.7971 263.348 80.8899 262.315 82.2411C261.281 83.5922 260.507 85.1023 259.99 86.7714C259.513 88.4405 259.275 90.1095 259.275 91.7786C259.275 93.6464 259.573 95.4546 260.169 97.2031C260.765 98.9119 261.599 100.442 262.672 101.793C263.785 103.104 265.096 104.158 266.607 104.952C268.156 105.707 269.845 106.085 271.673 106.085C272.985 106.085 274.316 105.866 275.667 105.429C277.018 104.992 278.27 104.297 279.423 103.343C280.575 102.389 281.469 101.157 282.105 99.6471L288.841 103.522C288.007 105.628 286.636 107.416 284.728 108.887C282.86 110.357 280.754 111.47 278.409 112.225C276.065 112.98 273.74 113.357 271.435 113.357C268.415 113.357 265.653 112.741 263.149 111.509C260.646 110.238 258.48 108.569 256.652 106.502C254.863 104.396 253.453 102.051 252.419 99.4683C251.426 96.8455 250.929 94.2028 250.929 91.5402Z" stroke="white" stroke-width="2" mask="url(#path-1-inside-1_1325_545)"/>
<path d="M323.745 105.787V113H294.358V70.6767H323.209V77.8895H302.584V88.0828H320.407V94.7591H302.584V105.787H323.745Z" stroke="white" stroke-width="2" mask="url(#path-1-inside-1_1325_545)"/>
<path d="M355.374 81.7642C355.095 81.486 354.579 81.1085 353.824 80.6316C353.108 80.1547 352.214 79.6977 351.141 79.2606C350.108 78.8234 348.975 78.4459 347.743 78.128C346.512 77.7703 345.26 77.5915 343.988 77.5915C341.763 77.5915 340.074 78.0088 338.921 78.8433C337.809 79.6778 337.252 80.8502 337.252 82.3603C337.252 83.5127 337.61 84.4267 338.325 85.1023C339.04 85.7779 340.113 86.3541 341.544 86.831C342.975 87.3079 344.763 87.8245 346.909 88.3809C349.691 89.0564 352.095 89.891 354.122 90.8845C356.188 91.8382 357.758 93.1099 358.831 94.6995C359.944 96.2494 360.5 98.3158 360.5 100.899C360.5 103.164 360.083 105.111 359.248 106.741C358.414 108.33 357.261 109.622 355.791 110.615C354.32 111.609 352.651 112.344 350.784 112.821C348.916 113.258 346.929 113.477 344.823 113.477C342.716 113.477 340.61 113.258 338.504 112.821C336.398 112.384 334.371 111.768 332.424 110.973C330.477 110.138 328.688 109.145 327.059 107.993L330.695 100.899C331.053 101.257 331.689 101.733 332.603 102.33C333.517 102.886 334.629 103.462 335.941 104.058C337.252 104.615 338.683 105.091 340.233 105.489C341.783 105.886 343.352 106.085 344.942 106.085C347.167 106.085 348.856 105.707 350.009 104.952C351.161 104.197 351.737 103.124 351.737 101.733C351.737 100.462 351.28 99.4683 350.366 98.753C349.452 98.0377 348.181 97.4217 346.551 96.9051C344.922 96.3487 342.995 95.7526 340.769 95.1168C338.107 94.3617 335.881 93.5272 334.093 92.6132C332.305 91.6594 330.973 90.4672 330.099 89.0366C329.225 87.6059 328.788 85.8176 328.788 83.6717C328.788 80.7707 329.463 78.3465 330.814 76.3993C332.205 74.4123 334.073 72.922 336.418 71.9286C338.762 70.8953 341.365 70.3787 344.227 70.3787C346.214 70.3787 348.081 70.5973 349.83 71.0344C351.618 71.4715 353.287 72.0478 354.837 72.7631C356.387 73.4784 357.778 74.2533 359.01 75.0879L355.374 81.7642Z" stroke="white" stroke-width="2" mask="url(#path-1-inside-1_1325_545)"/>
</g>
</svg>
