<svg width="1985" height="1307" viewBox="0 0 1985 1307" fill="none" xmlns="http://www.w3.org/2000/svg">
<g clip-path="url(#clip0_1895_596)">
<path d="M161.046 1252.23C158.271 1253.52 153.362 1254.16 146.158 1254.16H139.382V1220.77H144.984C151.975 1220.77 156.83 1221.3 159.925 1222.37C163.127 1223.5 165.688 1225.42 167.449 1228.15C169.21 1230.83 170.117 1233.88 170.117 1237.2C170.117 1240.51 169.317 1243.62 167.769 1246.19C166.168 1248.86 163.927 1250.9 161.046 1252.18V1252.23ZM194.609 1300.61C192.581 1297.83 189.86 1293.6 186.498 1288.2C181.323 1279.63 177.16 1273.59 174.332 1270.21C171.504 1266.84 168.623 1264.22 165.688 1262.29L163.18 1260.58L166.008 1259.51C170.864 1257.64 174.653 1254.75 177.267 1250.95C179.828 1247.2 181.162 1242.6 181.162 1237.36C181.162 1229.6 178.548 1223.66 173.212 1219.11C167.876 1214.56 160.459 1212.26 151.174 1212.26H128.816V1304.95H139.382V1263.26H144.504C149.253 1263.26 152.615 1263.79 154.803 1264.97C156.83 1266.04 159.071 1267.86 161.526 1270.27C163.927 1272.62 166.542 1275.83 169.477 1279.85L174.119 1287.45L178.388 1294.46L181.002 1298.1C181.429 1298.69 181.696 1299.11 181.856 1299.38L185.538 1304.89H197.864L194.662 1300.56L194.609 1300.61Z" fill="white"/>
<path d="M289.724 1295.74V1304.79H237.324V1212.26H288.39V1221.3H247.889V1253.68H287.056V1262.83H247.889V1295.74H289.724Z" fill="white"/>
<path d="M377.954 1281.7C377.954 1288.97 375.66 1294.81 370.751 1299.3C365.948 1303.8 359.598 1306.1 351.808 1306.1C343.004 1306.1 334.893 1303.42 327.583 1298.13V1285.71C334.626 1293.31 342.737 1297.16 351.701 1297.16C356.343 1297.16 360.292 1295.82 363.387 1293.2C366.589 1290.53 368.243 1287.1 368.243 1282.98C368.243 1276.61 363.761 1270.57 354.903 1265.05L344.498 1258.74C338.201 1254.83 333.666 1251.03 331.051 1247.39C328.49 1243.81 327.209 1239.63 327.209 1234.98C327.209 1227.81 329.557 1222.19 334.466 1217.75C339.428 1213.36 345.885 1211.11 353.782 1211.11C361.093 1211.11 367.976 1213.14 374.166 1217.1V1228.34C367.763 1222.99 360.826 1220.26 353.515 1220.26C348.713 1220.26 344.711 1221.44 341.616 1223.69C338.361 1226.04 336.654 1229.2 336.654 1232.89C336.654 1236.15 337.881 1239.2 340.229 1241.99C342.417 1244.66 345.992 1247.39 350.847 1250.23L361.306 1256.44C372.565 1263.18 377.954 1271.47 377.954 1281.75V1281.7Z" fill="white"/>
<path d="M431.468 1212.26H420.902V1304.95H431.468V1212.26Z" fill="white"/>
<path d="M543.392 1284.99C541.204 1287.18 538.803 1289.05 536.081 1290.55C533.467 1292.05 530.105 1293.28 526.263 1294.24C522.421 1295.21 516.872 1295.74 509.935 1295.74H490.886V1221.3H509.508C516.232 1221.3 520.981 1221.57 524.075 1222.1C527.17 1222.64 530.479 1223.71 533.894 1225.32C537.309 1226.97 540.404 1229.06 543.072 1231.58C550.275 1238.32 553.957 1247.2 553.957 1257.85C553.957 1268.5 550.382 1277.81 543.338 1284.99H543.392ZM558.546 1234.57C554.224 1227.24 548.354 1221.68 541.097 1217.93C533.787 1214.13 523.649 1212.26 511.002 1212.26H480.32V1304.84H508.975C517.352 1304.84 523.062 1304.57 525.996 1304.09C528.878 1303.66 532.133 1302.75 535.601 1301.36C541.524 1299.11 546.807 1295.74 551.289 1291.35C555.664 1287.07 559.08 1282.04 561.481 1276.42C563.829 1270.8 565.056 1264.81 565.056 1258.66C565.056 1250.04 562.868 1241.91 558.546 1234.63V1234.57Z" fill="white"/>
<path d="M662.094 1295.74V1304.79H609.748V1212.26H660.813V1221.3H620.313V1253.68H659.479V1262.83H620.313V1295.74H662.094Z" fill="white"/>
<path d="M790.069 1212.26V1304.89H780.624L717.18 1231.68L714.458 1228.53V1304.89H704.693V1212.26H713.498L777.476 1286.16L780.198 1289.27V1212.26H790.069Z" fill="white"/>
<path d="M917.458 1287.08V1298.37C907.906 1303.46 896.754 1306.02 884.268 1306.02C873.916 1306.02 865.058 1303.88 857.908 1299.76C850.758 1295.64 844.995 1289.81 840.833 1282.58C836.671 1275.31 834.59 1267.33 834.59 1258.88C834.59 1245.44 839.446 1233.99 848.997 1224.79C858.548 1215.64 870.554 1210.98 884.641 1210.98C894.139 1210.98 904.811 1213.44 916.551 1218.31V1229.39C905.932 1223.72 895.473 1220.88 885.335 1220.88C874.023 1220.88 864.471 1224.52 857.001 1231.64C849.477 1238.86 845.689 1248.01 845.689 1258.82C845.689 1269.63 849.424 1278.84 856.841 1285.85C864.205 1292.86 873.809 1296.44 885.175 1296.44C896.541 1296.44 907.053 1293.29 917.564 1287.03L917.458 1287.08Z" fill="white"/>
<path d="M1014.28 1295.74V1304.79H961.93V1212.26H1013V1221.3H972.495V1253.68H1011.66V1262.83H972.495V1295.74H1014.28Z" fill="white"/>
<path d="M1102.46 1281.7C1102.46 1288.97 1100.11 1294.81 1095.25 1299.3C1090.45 1303.8 1084.1 1306.1 1076.31 1306.1C1067.51 1306.1 1059.34 1303.42 1052.08 1298.13V1285.71C1059.13 1293.31 1067.24 1297.16 1076.2 1297.16C1080.85 1297.16 1084.79 1295.82 1087.94 1293.2C1091.14 1290.53 1092.8 1287.1 1092.8 1282.98C1092.8 1276.61 1088.32 1270.57 1079.46 1265.05L1069.05 1258.74C1062.76 1254.83 1058.22 1251.03 1055.55 1247.39C1053.04 1243.81 1051.71 1239.63 1051.71 1234.98C1051.71 1227.81 1054.11 1222.19 1059.02 1217.75C1063.93 1213.36 1070.44 1211.11 1078.34 1211.11C1085.7 1211.11 1092.53 1213.14 1098.72 1217.1V1228.34C1092.26 1222.99 1085.33 1220.26 1078.07 1220.26C1073.27 1220.26 1069.27 1221.44 1066.17 1223.69C1062.86 1226.04 1061.21 1229.2 1061.21 1232.89C1061.21 1236.15 1062.38 1239.2 1064.73 1241.99C1066.97 1244.66 1070.55 1247.39 1075.35 1250.23L1085.81 1256.44C1097.07 1263.18 1102.51 1271.47 1102.51 1281.75L1102.46 1281.7Z" fill="white"/>
<path d="M1254.63 1281.7C1254.63 1288.97 1252.28 1294.81 1247.43 1299.3C1242.62 1303.8 1236.27 1306.1 1228.48 1306.1C1219.68 1306.1 1211.51 1303.42 1204.26 1298.13V1285.71C1211.3 1293.31 1219.41 1297.16 1228.38 1297.16C1233.02 1297.16 1236.97 1295.82 1240.06 1293.2C1243.26 1290.53 1244.92 1287.1 1244.92 1282.98C1244.92 1276.61 1240.43 1270.57 1231.52 1265.05L1221.17 1258.74C1214.88 1254.83 1210.34 1251.03 1207.67 1247.39C1205.11 1243.81 1203.83 1239.63 1203.83 1234.98C1203.83 1227.81 1206.23 1222.19 1211.14 1217.75C1216 1213.36 1222.56 1211.11 1230.4 1211.11C1237.77 1211.11 1244.6 1213.14 1250.84 1217.1V1228.34C1244.38 1222.99 1237.45 1220.26 1230.14 1220.26C1225.39 1220.26 1221.39 1221.44 1218.24 1223.69C1214.93 1226.04 1213.27 1229.2 1213.27 1232.89C1213.27 1236.15 1214.45 1239.2 1216.85 1241.99C1219.09 1244.66 1222.67 1247.39 1227.47 1250.23L1237.93 1256.44C1249.13 1263.18 1254.63 1271.47 1254.63 1281.75V1281.7Z" fill="white"/>
<path d="M1374.26 1212.26V1265.08C1374.26 1272.25 1373.72 1277.71 1372.71 1281.3C1371.64 1284.88 1370.36 1287.88 1368.92 1290.29C1367.43 1292.59 1365.61 1294.73 1363.42 1296.6C1356.17 1302.81 1346.56 1306.02 1334.77 1306.02C1322.98 1306.02 1313 1302.86 1305.8 1296.66C1303.66 1294.73 1301.79 1292.59 1300.3 1290.24C1298.8 1287.83 1297.52 1284.94 1296.62 1281.46C1295.6 1278.03 1295.12 1272.41 1295.12 1264.87V1212.21H1305.74V1265.03C1305.74 1274.39 1306.81 1280.82 1309.05 1284.62C1311.24 1288.36 1314.6 1291.41 1319.08 1293.66C1323.46 1295.91 1328.69 1297.03 1334.61 1297.03C1343.04 1297.03 1350.08 1294.73 1355.47 1290.29C1358.35 1287.83 1360.49 1284.83 1361.77 1281.51C1363 1278.19 1363.64 1272.74 1363.64 1264.98V1212.16H1374.26V1212.26Z" fill="white"/>
<path d="M1431.62 1221.3V1251.16H1468.92V1260.26H1431.62V1304.89H1421.11V1212.26H1468.92V1221.3H1431.62Z" fill="white"/>
<path d="M1584.45 1285.58C1577.04 1292.86 1567.7 1296.55 1556.65 1296.55C1545.61 1296.55 1536.43 1292.91 1529.06 1285.85C1521.7 1278.68 1518.02 1269.63 1518.02 1258.93C1518.02 1248.23 1521.75 1238.65 1529.06 1231.59C1536.32 1224.41 1545.77 1220.83 1557.08 1220.83C1568.39 1220.83 1577.04 1224.47 1584.45 1231.69C1591.87 1238.86 1595.6 1247.91 1595.6 1258.4C1595.6 1268.89 1591.87 1278.41 1584.45 1285.64V1285.58ZM1592.35 1224.52C1582.85 1215.48 1570.79 1210.88 1556.6 1210.88C1542.4 1210.88 1530.35 1215.48 1521.01 1224.52C1511.72 1233.57 1507.03 1245.12 1507.03 1258.93C1507.03 1272.74 1511.72 1283.71 1520.95 1292.59C1530.19 1301.53 1541.92 1306.08 1555.85 1306.08C1570.47 1306.08 1582.69 1301.53 1592.24 1292.59C1601.79 1283.71 1606.65 1272.26 1606.65 1258.66C1606.65 1245.07 1601.9 1233.57 1592.4 1224.52H1592.35Z" fill="white"/>
<path d="M1728.11 1212.26V1265.08C1728.11 1272.25 1727.57 1277.71 1726.56 1281.3C1725.55 1284.88 1724.27 1287.88 1722.77 1290.29C1721.28 1292.59 1719.46 1294.73 1717.28 1296.6C1710.02 1302.81 1700.41 1306.02 1688.62 1306.02C1676.83 1306.02 1666.85 1302.86 1659.7 1296.66C1657.57 1294.73 1655.7 1292.59 1654.2 1290.24C1652.66 1287.83 1651.43 1284.94 1650.47 1281.46C1649.45 1278.03 1648.97 1272.41 1648.97 1264.87V1212.21H1659.54V1265.03C1659.54 1274.39 1660.61 1280.82 1662.85 1284.62C1664.98 1288.36 1668.4 1291.41 1672.88 1293.66C1677.26 1295.91 1682.48 1297.03 1688.41 1297.03C1696.84 1297.03 1703.88 1294.73 1709.27 1290.29C1712.15 1287.83 1714.29 1284.83 1715.57 1281.51C1716.8 1278.19 1717.49 1272.74 1717.49 1264.98V1212.16H1728.11V1212.26Z" fill="white"/>
<mask id="mask0_1895_596" style="mask-type:luminance" maskUnits="userSpaceOnUse" x="-1" y="1" width="1986" height="1306">
<path d="M1984.98 1.02734H-0.0117188V1306.59H1984.98V1.02734Z" fill="white"/>
</mask>
<g mask="url(#mask0_1895_596)">
<path d="M1852.47 1212.28V1304.91H1841.96V1263.22H1785.13V1304.91H1774.57V1212.28H1785.13V1253.7H1841.96V1212.28H1852.47Z" fill="white"/>
<path d="M1038.85 158.583C1026.47 171.105 1009.5 178.704 990.561 178.704H983.784V41.4909H990.561C1009.5 41.4909 1026.47 49.1436 1038.85 61.6126C1051.28 74.0282 1058.91 91.0996 1058.91 110.098C1058.91 129.096 1051.28 146.113 1038.85 158.583ZM983.731 502.366H990.507C1016.01 502.366 1039.06 492.037 1055.77 475.233C1072.52 458.483 1082.82 435.364 1082.82 409.73C1082.82 384.096 1072.52 361.031 1055.77 344.228C1039.06 327.477 1016.01 317.149 990.507 317.149H983.731V279.206H990.507C1026.47 279.206 1058.91 293.816 1082.5 317.416C1106.08 341.124 1120.65 373.661 1120.65 409.73C1120.65 445.8 1106.08 478.391 1082.5 502.044C1058.91 525.698 1026.47 540.254 990.507 540.254H983.731V502.366ZM1073.54 194.759L1064.3 191.173L1070.97 183.842C1088.74 164.416 1099.57 138.568 1099.57 110.098C1099.57 49.6787 1050.75 0.765625 990.561 0.765625H932.185V527.09L921.833 520.614C913.402 515.316 905.612 509.108 898.568 502.044C895.1 498.566 891.898 494.873 888.857 491.127L887.363 489.254V0.765625H872.582V420.166H838.805C841.366 458.215 857.748 492.358 883.041 517.671C910.681 545.338 948.566 562.356 990.667 562.356C1032.71 562.356 1070.65 545.285 1098.24 517.671C1125.83 489.95 1142.85 451.954 1142.85 409.73C1142.85 367.507 1125.83 329.511 1098.24 301.843C1070.65 274.176 1032.71 257.158 990.667 257.158C980.209 257.158 970.07 258.175 960.252 260.155L952.142 261.814V221.998L957.744 221.035C968.47 219.216 979.462 218.252 990.667 218.252C1096.11 218.252 1181.59 303.984 1181.59 409.784C1181.59 515.584 1096.11 601.316 990.667 601.369C888.643 601.369 805.349 521.149 799.906 420.219H761.007C766.449 542.663 867.139 640.275 990.614 640.275C1114.09 640.275 1220.43 537.097 1220.43 409.784C1220.43 311.851 1159.5 228.206 1073.64 194.759H1073.54ZM-0.0117188 1097.99H1981.29V1092.48H-0.0117188V1097.99ZM-0.0117188 1071.34H1981.29V1084.67H-0.0117188V1071.34ZM1605.16 898.915C1605.16 881.683 1599.34 867.448 1587.44 855.514C1575.49 843.526 1561.3 837.693 1544.12 837.693C1526.93 837.693 1512.85 843.526 1500.95 855.514C1489.05 867.448 1483.23 881.683 1483.23 898.915C1483.23 916.147 1489.05 930.275 1500.95 942.262C1512.85 954.25 1526.99 960.029 1544.12 960.029C1561.24 960.029 1575.49 954.196 1587.44 942.262C1599.4 930.275 1605.21 916.093 1605.21 898.915H1605.16ZM1610.66 898.915C1610.66 917.485 1604.2 933.218 1591.29 946.115C1578.37 959.013 1562.63 965.488 1544.06 965.488C1525.49 965.488 1509.86 959.013 1497.05 946.115C1484.19 933.218 1477.79 917.485 1477.79 898.915C1477.79 880.345 1484.25 864.558 1497.05 851.661C1509.91 838.763 1525.55 832.235 1544.06 832.235C1562.58 832.235 1578.37 838.71 1591.29 851.661C1604.15 864.558 1610.66 880.345 1610.66 898.915ZM1597.05 951.788C1582.75 966.184 1565.25 973.355 1544.49 973.355C1523.73 973.355 1506.02 966.184 1491.61 951.788C1477.15 937.446 1469.95 919.786 1469.95 898.915C1469.95 878.044 1477.2 860.277 1491.61 845.934C1506.07 831.592 1523.73 824.421 1544.49 824.421C1565.25 824.421 1582.75 831.592 1597.05 845.934C1611.35 860.33 1618.5 878.044 1618.5 898.915C1618.5 919.786 1611.35 937.392 1597.05 951.788ZM1605.16 837.747C1588.51 820.996 1568.07 812.648 1544.06 812.648C1520.05 812.648 1499.83 820.996 1483.23 837.747C1466.58 854.443 1458.26 874.886 1458.26 898.968C1458.26 923.05 1466.58 943.333 1483.23 960.029C1499.83 976.78 1520.1 985.128 1544.06 985.128C1568.02 985.128 1588.51 976.78 1605.16 960.029C1621.86 943.279 1630.24 922.89 1630.24 898.968C1630.24 875.047 1621.86 854.497 1605.16 837.747ZM1713.85 831.539H1719.35V985.128H1713.85V831.539ZM1761.08 899.182C1782.9 891.101 1793.79 877.134 1793.79 857.226C1793.79 843.58 1788.93 832.77 1779.11 824.689C1769.35 816.661 1755.21 812.701 1736.8 812.701H1692.72V985.182H1706.06V823.779H1734.08C1748.64 823.779 1759.85 826.776 1767.64 832.663C1775.48 838.603 1779.33 846.898 1779.33 857.44C1779.33 867.983 1775.48 876.599 1767.85 882.485C1760.17 888.372 1749.07 891.315 1734.5 891.315H1727.03V902.447H1729.22C1739.95 902.447 1748.16 904.427 1753.71 908.333C1759.26 912.24 1767.05 922.087 1777.08 937.927L1807.13 985.075H1822.87L1783.86 925.565C1774.26 910.688 1766.63 901.965 1760.97 899.236L1761.08 899.182ZM1906.64 911.812H1912.09V966.184H1906.64V911.812ZM1906.64 884.947H1912.09V831.539H1906.64V884.947ZM1976.28 974.05L1981.35 985.182H1885.57V812.701H1979.37L1975.69 823.779H1898.85V892.867H1951.25V904.052H1898.85V974.05H1976.33H1976.28ZM1259.01 985.182H1264.51V859.741L1259.01 853.32V985.182ZM1382.33 812.701H1395.78V985.182H1382.38V832.235L1316.96 912.829L1251.22 832.235V985.182H1237.88V812.701H1251.22L1316.96 892.76L1382.33 812.701ZM1118.73 984.7H1124.17V831.646H1118.73V984.7ZM1032.93 812.701H1175.45V823.779H1110.94V985.182H1097.49V823.779H1032.98V812.701H1032.93ZM957.691 966.184H963.187V812.701H957.691V966.184ZM1031.22 973.997L1034.9 985.128H936.614V812.648H949.9V973.997H1031.22ZM868.633 985.128H874.13V812.648H868.633V985.128ZM847.556 812.648H860.843V985.128H847.556V812.648ZM697.989 966.184H703.485V911.598H697.989V966.184ZM697.989 831.539H703.485V884.626H697.989V831.539ZM759.246 964.525C751.615 970.839 740.516 973.997 725.736 973.997H690.145V903.785H719.973C753.803 903.785 770.718 915.558 770.718 939.158C770.718 949.754 766.876 958.156 759.299 964.578L759.246 964.525ZM690.198 823.726H708.18C739.769 823.726 755.617 835.231 755.617 858.189C755.617 881.148 739.929 892.493 708.661 892.493H690.198V823.672V823.726ZM745.212 895.65C761.754 886.66 769.971 873.87 769.971 857.226C769.971 843.312 765.115 832.395 755.404 824.528C745.692 816.608 731.499 812.701 712.716 812.701H676.858V985.182H727.23C744.945 985.182 759.032 981.061 769.437 972.766C779.789 964.471 784.965 953.393 784.965 939.426C784.965 916.04 771.732 901.483 745.212 895.704V895.65ZM430.229 911.812H435.725V966.184H430.229V911.812ZM430.229 884.947H435.725V831.539H430.229V884.947ZM499.863 974.05L504.879 985.182H409.045V812.701H502.852L499.116 823.779H422.278V892.867H474.678V904.052H422.278V974.05H499.81H499.863ZM226.181 985.182H231.677V911.223H226.181V985.182ZM226.181 812.701H231.677V884.519H226.181V812.701ZM333.114 892.332H218.39V812.701H205.104V985.182H218.39V903.41H333.114V985.182H346.561V812.701H333.114V892.332ZM85.8443 831.592H91.3404V984.646H85.8443V831.592ZM0.0416411 823.779H64.5004V985.182H77.947V823.779H142.459V812.701H-0.0117188V823.779H0.0416411Z" fill="white"/>
</g>
</g>
<defs>
<clipPath id="clip0_1895_596">
<rect width="1984.99" height="1305.56" fill="white" transform="translate(0.0117188 0.96875)"/>
</clipPath>
</defs>
</svg>
