<svg width="210" height="30" viewBox="0 0 210 30" fill="none" xmlns="http://www.w3.org/2000/svg">
<path d="M20.8799 12.1648C20.8799 14.7416 21.2221 16.9832 21.9134 18.8827C22.5978 20.7821 23.4916 22.3743 24.581 23.6522C25.6704 24.9302 26.9134 25.8799 28.3031 26.5084C29.6927 27.1369 31.0824 27.4441 32.479 27.4441C33.6802 27.4441 34.8464 27.2137 35.9776 26.7458C37.1089 26.2779 38.1075 25.5796 38.9804 24.6439C39.8533 23.7081 40.5517 22.5559 41.0754 21.1802C41.6061 19.8045 41.8645 18.1983 41.8645 16.3547C41.8925 13.9246 41.5503 11.7807 40.852 9.93017C40.1536 8.07961 39.2318 6.53631 38.0936 5.30726C36.9553 4.07821 35.6704 3.15642 34.2458 2.52793C32.8212 1.89944 31.3966 1.59218 29.9721 1.59218C28.7919 1.59218 27.6536 1.80866 26.5503 2.23464C25.4469 2.6676 24.4763 3.32402 23.6383 4.20391C22.8003 5.09078 22.1369 6.19413 21.6341 7.52095C21.1313 8.84776 20.8799 10.3911 20.8799 12.1578M44.8114 14.5112C44.8114 16.7458 44.4274 18.7011 43.6522 20.3841C42.8771 22.067 41.8575 23.4637 40.5936 24.581C39.3296 25.6983 37.8911 26.5363 36.2849 27.102C34.6788 27.6676 33.0377 27.9469 31.3687 27.9469C29.6997 27.9469 28.0237 27.6606 26.4176 27.102C24.8115 26.5363 23.3799 25.6983 22.1299 24.581C20.8799 23.4637 19.8673 22.067 19.0922 20.3841C18.317 18.7011 17.933 16.7458 17.933 14.5112C17.933 12.2765 18.317 10.2863 19.0922 8.61732C19.8673 6.94832 20.8869 5.55168 22.1508 4.42039C23.4148 3.28911 24.8534 2.45112 26.4595 1.89944C28.0656 1.34777 29.7067 1.06844 31.3757 1.06844C33.0447 1.06844 34.7207 1.34777 36.3268 1.89944C37.933 2.45112 39.3645 3.29609 40.6145 4.42039C41.8645 5.55168 42.8771 6.94832 43.6522 8.61732C44.4274 10.2863 44.8114 12.2486 44.8114 14.5112Z" fill="white"/>
<path d="M131.976 19.7905C132.709 20.5028 133.561 21.0405 134.518 21.4106C135.475 21.7807 136.446 21.9623 137.43 21.9623C138.415 21.9623 139.413 21.7807 140.356 21.4106C141.299 21.0405 142.144 20.5028 142.877 19.7905C143.617 19.0782 144.211 18.1774 144.665 17.081C145.119 15.9916 145.335 14.7277 145.307 13.3101V1.60615H144.979V13.3101C144.979 14.5601 144.797 15.6634 144.427 16.6271C144.057 17.5838 143.575 18.3869 142.975 19.0363C142.374 19.6858 141.69 20.1746 140.929 20.4888C140.168 20.8101 139.392 20.9707 138.61 20.9707C137.828 20.9707 137.109 20.817 136.383 20.5098C135.656 20.2025 135.007 19.7346 134.434 19.0922C133.855 18.4567 133.394 17.6536 133.052 16.6969C132.709 15.7402 132.535 14.6089 132.535 13.3101V1.60615H129.553V13.3101C129.553 14.7346 129.777 15.9916 130.216 17.081C130.656 18.1704 131.25 19.0782 131.983 19.7905" fill="white"/>
<path d="M112.346 27.6327C110.999 27.8073 109.658 27.6606 108.331 27.1927C107.004 26.7249 105.817 25.9497 104.763 24.8534C103.708 23.764 102.849 22.3534 102.186 20.6355C101.522 18.9176 101.194 16.8785 101.194 14.5251C101.194 12.3184 101.48 10.3911 102.06 8.74302C102.64 7.09497 103.401 5.72626 104.344 4.63687C105.286 3.54749 106.369 2.72346 107.584 2.17179C108.799 1.62011 110.035 1.34078 111.285 1.34078C112.535 1.34078 113.771 1.62011 114.986 2.17179C116.201 2.72346 117.284 3.54749 118.226 4.63687C119.169 5.72626 119.93 7.10195 120.51 8.74302C121.089 10.3841 121.376 12.3115 121.376 14.5251C121.376 15.9707 121.201 17.4371 120.859 18.9106C120.517 20.3841 119.979 21.7249 119.26 22.9399C118.534 24.155 117.605 25.1885 116.459 26.0335C115.321 26.8785 113.953 27.4162 112.353 27.6327M141.501 27.3045C140.14 27.7235 138.722 27.933 137.249 27.933C136.215 27.933 135.147 27.8561 134.029 27.7095C132.912 27.5628 131.732 27.4022 130.496 27.2277C129.253 27.0531 127.947 26.8994 126.571 26.7528C125.196 26.6061 123.715 26.5293 122.116 26.5293C121.327 26.5293 120.51 26.5503 119.651 26.5852C118.792 26.6201 117.905 26.7039 116.997 26.8226C118.101 26.3547 119.12 25.7472 120.056 25C120.992 24.2528 121.802 23.3659 122.507 22.3464C123.205 21.3268 123.75 20.1606 124.148 18.8478C124.539 17.5349 124.735 16.0894 124.735 14.5182C124.735 12.2626 124.351 10.2933 123.575 8.6243C122.8 6.95531 121.788 5.55866 120.538 4.42737C119.288 3.29609 117.856 2.4581 116.25 1.90642C114.644 1.35475 112.989 1.07542 111.299 1.07542C109.609 1.07542 107.989 1.35475 106.383 1.90642C104.777 2.4581 103.338 3.30307 102.074 4.42737C100.81 5.55866 99.7905 6.95531 99.0154 8.6243C98.2402 10.2933 97.8561 12.2556 97.8561 14.5182C97.8561 16.7807 98.2751 18.9176 99.1061 20.6494C99.9441 22.3813 101.04 23.8059 102.402 24.9232C103.764 26.0405 105.307 26.8506 107.025 27.3534C108.743 27.8561 110.475 28.0447 112.221 27.926C112.661 27.898 113.094 27.8561 113.513 27.8003C113.932 27.7374 114.351 27.6606 114.763 27.5628C115.279 27.514 115.796 27.479 116.313 27.4511C116.83 27.4232 117.332 27.4162 117.821 27.4162C119.637 27.4162 121.369 27.5489 123.01 27.8212C124.651 28.0936 126.229 28.3869 127.744 28.7081C129.253 29.0293 130.705 29.3226 132.088 29.595C133.478 29.8673 134.818 30 136.117 30C137.863 30 139.532 29.6508 141.124 28.9525C142.716 28.2542 144.288 26.9483 145.838 25.0279L145.726 24.9162C144.281 26.0964 142.87 26.8925 141.508 27.3115" fill="white"/>
<path d="M11.5503 23.5824C11.1453 24.588 10.5307 25.426 9.7067 26.0894C8.88268 26.7528 7.84916 27.081 6.59218 27.081H6.26397C5.47486 27.081 4.86732 27.0531 4.42039 26.9902C3.98045 26.9274 3.64525 26.7877 3.42877 26.5642C3.20531 26.3408 3.07263 26.0335 3.02374 25.6285C2.97486 25.2235 2.94693 24.6788 2.94693 23.9874V13.5684H6.41061C7.68855 13.5684 8.75 13.8966 9.59497 14.5601C10.4399 15.2235 11.0824 16.0545 11.5084 17.067C11.9413 18.0726 12.1508 19.162 12.1508 20.3282C12.1508 21.4944 11.9483 22.5838 11.5433 23.5894M2.95391 4.98603C2.95391 3.90363 3.05168 3.15642 3.24721 2.73743C3.44274 2.31844 3.94553 2.06006 4.75559 1.96229H5.97067C6.97626 1.96229 7.81425 2.24162 8.47765 2.7933C9.14106 3.34497 9.6229 4.03631 9.93017 4.8743C10.2374 5.71229 10.3841 6.62011 10.3701 7.59776C10.3561 8.5824 10.1816 9.49022 9.83939 10.3212C9.49721 11.1592 8.99441 11.8506 8.34497 12.4022C7.69553 12.9539 6.89246 13.2332 5.93575 13.2332H2.95391V4.98603ZM14.6788 17.4162C14.176 16.3757 13.3869 15.4679 12.3045 14.7067C11.2221 13.9455 9.86033 13.4777 8.21927 13.3101C9.46927 13.0377 10.4888 12.5628 11.2779 11.8715C12.0601 11.1872 12.6187 10.405 12.9539 9.53212C13.2891 8.65922 13.3869 7.75838 13.2682 6.82263C13.1425 5.88687 12.7863 5.0419 12.1997 4.28073C11.6131 3.51955 10.7961 2.88408 9.7486 2.38128C8.7081 1.87849 7.43715 1.62709 5.93575 1.62709H0V4.94413C0 5.02793 0 5.11173 0 5.20251V23.8338C0 23.9246 0 24.0014 0 24.0922V27.4092H6.92737C8.72207 27.4092 10.2304 27.081 11.4595 26.4316C12.6885 25.7821 13.6173 24.9651 14.2598 23.9804C14.8952 22.9958 15.2514 21.9204 15.3282 20.7402C15.405 19.5601 15.1885 18.4497 14.6858 17.4092" fill="white"/>
<path d="M64.6788 1.60615C64.6788 1.76676 64.6997 1.92039 64.6997 2.08799V19.7207C64.6997 20.9218 64.5182 21.9832 64.148 22.8911C63.7779 23.7989 63.2961 24.5601 62.6955 25.1746C62.095 25.7891 61.4106 26.25 60.6494 26.5573C59.8883 26.8645 59.1131 27.0182 58.331 27.0182C57.5489 27.0182 56.8296 26.8715 56.1033 26.5782C55.3771 26.2849 54.7276 25.838 54.148 25.2374C53.5684 24.6369 53.1145 23.8757 52.7654 22.9539C52.4232 22.0321 52.2486 20.9567 52.2486 19.7346V1.60615H49.2668V19.7207C49.2668 21.0964 49.4902 22.2975 49.9302 23.331C50.3701 24.3645 50.9637 25.2235 51.6969 25.9078C52.4302 26.5922 53.2821 27.1089 54.2388 27.4581C55.1955 27.8003 56.1662 27.9749 57.1508 27.9749C58.1355 27.9749 59.1341 27.8003 60.0768 27.4581C61.0195 27.1159 61.8645 26.5992 62.5978 25.9078C63.331 25.2235 63.9316 24.3645 64.3855 23.331C64.8394 22.2975 65.0559 21.0964 65.0279 19.7207V2.08101C65.0279 1.91341 65.0419 1.75978 65.0489 1.59916H64.6788V1.60615Z" fill="white"/>
<path d="M89.3296 26.8855C89.3296 27.067 89.3296 27.2346 89.3156 27.3952H92.2835C92.2835 27.2346 92.2695 27.067 92.2695 26.8855V1.77374C92.2695 1.71788 92.2695 1.66201 92.2695 1.60615H89.3156C89.3156 1.66201 89.3156 1.71788 89.3156 1.77374V26.8925L89.3296 26.8855Z" fill="white"/>
<path d="M160.601 27.0531C160.391 27.067 160.189 27.081 159.965 27.081H158.638C157.849 27.081 157.235 27.0531 156.781 26.9902C156.327 26.9274 155.992 26.7877 155.768 26.5642C155.545 26.3408 155.405 26.0335 155.342 25.6285C155.279 25.2235 155.251 24.6788 155.251 23.9874V14.0084H162.221C162.353 14.0084 162.479 14.0154 162.598 14.0293V13.6592C162.479 13.6732 162.353 13.6802 162.221 13.6802H155.251V1.96927H159.525C159.7 1.96927 159.86 1.98324 160.028 1.99022H165.251L165.189 1.63408H152.353V27.4092H165.628V27.3743L165.684 27.0531H160.594H160.601Z" fill="white"/>
<path d="M79.2179 1.93436H84.9302L84.8813 1.63408H70.5168L70.4679 1.93436H76.2709V11.8645H76.229V27.3952H79.2109V1.96927H79.2179V1.93436Z" fill="white"/>
<path d="M170.286 5.40503C169.504 5.40503 168.757 4.84637 168.757 3.65223C168.757 2.31145 170.021 0.600559 170.915 0L170.992 0.0349162C169.574 1.82263 171.809 2.4162 171.809 3.72207C171.809 4.83939 171.027 5.39804 170.279 5.39804L170.286 5.40503Z" fill="white"/>
<path d="M190.133 27.0461L174.902 27.081C173.708 20.7123 187.046 15.8729 187.046 6.0405C187.046 2.57682 185 1.04749 182.723 1.04749C179.448 1.04749 175.649 4.17598 176.578 9.12709L175.426 3.76397C176.913 1.75279 179.895 0.635475 182.8 0.635475C186.634 0.635475 190.321 2.61173 190.321 7.22765C190.321 17.0601 177.36 20.1885 175.684 24.3226H186.746C189.763 24.3226 190.433 22.5 191.027 20.6006L190.133 27.0461Z" fill="white"/>
<path d="M200.789 27.5698C197.179 27.5698 193.673 25.6355 192.968 21.2779L193.268 21.1662C194.085 24.9302 197.032 26.7877 199.937 26.7877C203.254 26.7877 206.529 24.3296 206.529 19.4483C206.529 15.9497 204.518 13.338 199.525 13.0796V12.7444C203.848 12.074 205.635 9.42737 205.635 4.9581C205.635 2.1648 203.366 0.377095 201.054 0.377095C198.596 0.377095 196.061 2.35335 196.103 7.08101H196.068L195.14 2.57682C196.222 0.977654 198.75 0.0418994 201.362 0.0418994C204.972 0.0418994 208.701 1.82961 208.624 6.07542C208.547 9.68575 206.166 12.1439 201.173 12.8561C206.648 12.933 209.811 15.2025 209.811 19.5601C209.811 24.6648 205.196 27.5698 200.796 27.5698H200.789Z" fill="white"/>
</svg>
