<svg width="382" height="55" viewBox="0 0 382 55" fill="none" xmlns="http://www.w3.org/2000/svg">
<g clip-path="url(#clip0_1417_209)">
<path d="M38.0181 22.3048C38.0181 27.0323 38.6412 31.1448 39.9 34.6295C41.146 38.1143 42.7736 41.0353 44.7571 43.3798C46.7407 45.7243 49.004 47.4667 51.5343 48.6198C54.0646 49.7728 56.5949 50.3365 59.1379 50.3365C61.3249 50.3365 63.4483 49.9137 65.5082 49.0553C67.568 48.197 69.3863 46.9158 70.9757 45.1991C72.5651 43.4823 73.8366 41.3684 74.7902 38.8445C75.7566 36.3207 76.227 33.374 76.227 29.9918C76.2779 25.5333 75.6548 21.6002 74.3833 18.2051C73.1118 14.8101 71.4334 11.9787 69.3609 9.72388C67.2883 7.46905 64.9487 5.77792 62.3548 4.62488C59.761 3.47184 57.1671 2.90813 54.5732 2.90813C52.4243 2.90813 50.3518 3.30529 48.3428 4.0868C46.3338 4.88111 44.5664 6.0854 43.0406 7.69965C41.5148 9.32672 40.3068 11.3509 39.3914 13.7851C38.4759 16.2193 38.0181 19.0507 38.0181 22.292M81.5928 26.6095C81.5928 30.7092 80.8935 34.2964 79.4821 37.384C78.0707 40.4716 76.2143 43.0339 73.9129 45.0838C71.6114 47.1336 68.9921 48.671 66.0676 49.7087C63.1432 50.7465 60.1551 51.2589 57.1162 51.2589C54.0773 51.2589 51.0257 50.7337 48.1012 49.7087C45.1767 48.671 42.5701 47.1336 40.2941 45.0838C38.0181 43.0339 36.1744 40.4716 34.7631 37.384C33.3517 34.2964 32.6523 30.7092 32.6523 26.6095C32.6523 22.5098 33.3517 18.8585 34.7631 15.7966C36.1744 12.7346 38.0308 10.1723 40.3323 8.09681C42.6337 6.02134 45.253 4.48395 48.1775 3.47184C51.102 2.45973 54.09 1.94727 57.1289 1.94727C60.1678 1.94727 63.2195 2.45973 66.1439 3.47184C69.0684 4.48395 71.675 6.03415 73.951 8.09681C76.227 10.1723 78.0707 12.7346 79.4821 15.7966C80.8935 18.8585 81.5928 22.4586 81.5928 26.6095Z" fill="white"/>
<path d="M240.303 36.2949C241.638 37.6017 243.189 38.5881 244.931 39.2672C246.673 39.9462 248.44 40.2793 250.233 40.2793C252.026 40.2793 253.844 39.9462 255.561 39.2672C257.277 38.5881 258.816 37.6017 260.151 36.2949C261.499 34.9881 262.58 33.3354 263.406 31.324C264.233 29.3254 264.627 27.0065 264.576 24.4058V2.93359H263.978V24.4058C263.978 26.699 263.648 28.7232 262.974 30.4912C262.3 32.2464 261.423 33.7198 260.329 34.9112C259.236 36.1027 257.989 36.9995 256.604 37.576C255.218 38.1654 253.806 38.46 252.382 38.46C250.958 38.46 249.648 38.1782 248.326 37.6145C247.004 37.0508 245.821 36.1924 244.778 35.0137C243.723 33.8479 242.884 32.3745 242.261 30.6194C241.638 28.8642 241.32 26.7887 241.32 24.4058V2.93359H235.891V24.4058C235.891 27.0193 236.298 29.3254 237.099 31.324C237.9 33.3226 238.98 34.9881 240.315 36.2949" fill="white"/>
<path d="M204.56 50.6823C202.106 51.0026 199.664 50.7335 197.248 49.8752C194.833 49.0168 192.671 47.5947 190.751 45.5833C188.831 43.5847 187.267 40.9968 186.059 37.8451C184.851 34.6935 184.254 30.9525 184.254 26.635C184.254 22.5866 184.775 19.0506 185.83 16.027C186.886 13.0035 188.272 10.4925 189.988 8.49385C191.705 6.49525 193.675 4.98349 195.888 3.97137C198.1 2.95926 200.351 2.4468 202.627 2.4468C204.903 2.4468 207.154 2.95926 209.366 3.97137C211.578 4.98349 213.549 6.49525 215.266 8.49385C216.982 10.4925 218.368 13.0163 219.424 16.027C220.479 19.0378 221 22.5738 221 26.635C221 29.287 220.682 31.9774 220.059 34.6807C219.436 37.3839 218.457 39.8437 217.148 42.0729C215.825 44.3021 214.134 46.1983 212.049 47.7485C209.976 49.2987 207.484 50.2851 204.572 50.6823M257.645 50.0802C255.166 50.8489 252.585 51.2332 249.902 51.2332C248.02 51.2332 246.074 51.0923 244.04 50.8232C242.006 50.5542 239.857 50.2595 237.606 49.9392C235.343 49.6189 232.965 49.3371 230.46 49.068C227.955 48.799 225.26 48.6581 222.348 48.6581C220.911 48.6581 219.424 48.6965 217.86 48.7606C216.296 48.8246 214.681 48.9784 213.028 49.1962C215.037 48.3378 216.893 47.2232 218.597 45.8523C220.301 44.4815 221.776 42.8544 223.06 40.984C224.332 39.1135 225.323 36.9739 226.048 34.5654C226.76 32.1568 227.116 29.5048 227.116 26.6222C227.116 22.4841 226.417 18.8712 225.006 15.8093C223.594 12.7473 221.75 10.185 219.474 8.10951C217.198 6.03404 214.592 4.49665 211.667 3.48454C208.743 2.47242 205.729 1.95996 202.652 1.95996C199.575 1.95996 196.625 2.47242 193.701 3.48454C190.776 4.49665 188.157 6.04685 185.856 8.10951C183.554 10.185 181.698 12.7473 180.286 15.8093C178.875 18.8712 178.176 22.4713 178.176 26.6222C178.176 30.7731 178.939 34.6935 180.452 37.8707C181.978 41.048 183.974 43.6616 186.453 45.7114C188.933 47.7613 191.743 49.2474 194.871 50.1698C197.999 51.0923 201.152 51.4382 204.331 51.2204C205.132 51.1691 205.92 51.0923 206.683 50.9898C207.446 50.8745 208.209 50.7335 208.959 50.5542C209.9 50.4645 210.841 50.4004 211.782 50.3492C212.723 50.298 213.638 50.2851 214.528 50.2851C217.834 50.2851 220.988 50.5286 223.976 51.0282C226.964 51.5279 229.837 52.0659 232.596 52.6553C235.343 53.2446 237.988 53.7827 240.505 54.2823C243.036 54.782 245.477 55.0254 247.842 55.0254C251.021 55.0254 254.06 54.3848 256.959 53.1037C259.858 51.8225 262.719 49.4268 265.541 45.9036L265.338 45.6986C262.706 47.8638 260.137 49.3243 257.658 50.093" fill="white"/>
<path d="M21.0308 43.2517C20.2933 45.0966 19.1744 46.6339 17.674 47.851C16.1736 49.0681 14.2918 49.6703 12.0031 49.6703H11.4055C9.96865 49.6703 8.86243 49.619 8.04866 49.5037C7.24761 49.3884 6.63729 49.1322 6.24312 48.7222C5.83623 48.3123 5.59465 47.7485 5.50564 47.0055C5.41664 46.2624 5.36578 45.2631 5.36578 43.9948V24.8799H11.6725C13.9993 24.8799 15.932 25.4821 17.4706 26.6992C19.0091 27.9163 20.1789 29.4408 20.9545 31.2985C21.7428 33.1434 22.1243 35.142 22.1243 37.2815C22.1243 39.421 21.7556 41.4196 21.0181 43.2645M5.37849 9.13453C5.37849 7.14874 5.5565 5.7779 5.91253 5.00921C6.26855 4.24051 7.18404 3.76648 8.65899 3.58712H10.8714C12.7024 3.58712 14.2282 4.09958 15.4361 5.1117C16.6441 6.12381 17.5214 7.39215 18.0809 8.92954C18.6403 10.4669 18.9074 12.1324 18.8819 13.926C18.8565 15.7325 18.5386 17.398 17.9156 18.9226C17.2925 20.4599 16.3771 21.7283 15.1946 22.7404C14.012 23.7525 12.5498 24.265 10.8078 24.265H5.37849V9.13453ZM26.7272 31.9391C25.8117 30.0302 24.3749 28.3647 22.404 26.9682C20.4332 25.5717 17.9537 24.7134 14.9657 24.4059C17.2417 23.9062 19.0981 23.0351 20.5349 21.7667C21.9717 20.4984 22.9762 19.0763 23.5865 17.4748C24.1968 15.8734 24.3749 14.2207 24.1587 12.504C23.9298 10.7872 23.2814 9.23702 22.2133 7.84056C21.1452 6.4441 19.6576 5.27825 17.7503 4.35582C15.8557 3.43338 13.5416 2.97217 10.8078 2.97217H0V9.05766C0 9.21139 0 9.36513 0 9.53168V43.7129C0 43.8795 0 44.0204 0 44.1869V50.2724H12.6134C15.8812 50.2724 18.6276 49.6703 20.8655 48.4788C23.1034 47.2873 24.7945 45.7884 25.9643 43.982C27.1213 42.1755 27.7698 40.2025 27.9097 38.0374C28.0495 35.8722 27.6554 33.8352 26.7399 31.9263" fill="white"/>
<path d="M117.769 2.93371C117.769 3.22838 117.807 3.51023 117.807 3.81771V36.1669C117.807 38.3705 117.477 40.3178 116.803 41.9833C116.129 43.6488 115.252 45.0453 114.158 46.1727C113.065 47.3001 111.819 48.1457 110.433 48.7094C109.047 49.2731 107.635 49.555 106.211 49.555C104.787 49.555 103.477 49.2859 102.155 48.7478C100.833 48.2097 99.6502 47.3898 98.5949 46.288C97.5395 45.1862 96.713 43.7898 96.0773 42.0986C95.4543 40.4075 95.1364 38.4345 95.1364 36.1925V2.93371H89.707V36.1669C89.707 38.6908 90.1139 40.8943 90.915 42.7905C91.716 44.6866 92.7968 46.2624 94.1319 47.5179C95.467 48.7734 97.0182 49.7215 98.7602 50.3621C100.502 50.9898 102.27 51.3101 104.062 51.3101C105.855 51.3101 107.673 50.9898 109.39 50.3621C111.107 49.7343 112.645 48.7863 113.98 47.5179C115.315 46.2624 116.409 44.6866 117.235 42.7905C118.062 40.8943 118.456 38.6908 118.405 36.1669V3.8049C118.405 3.49742 118.43 3.21556 118.443 2.9209H117.769V2.93371Z" fill="white"/>
<path d="M162.65 49.3114C162.65 49.6445 162.65 49.952 162.625 50.2467H168.029C168.029 49.952 168.003 49.6445 168.003 49.3114V3.24107C168.003 3.13858 168.003 3.03609 168.003 2.93359H162.625C162.625 3.03609 162.625 3.13858 162.625 3.24107V49.3242L162.65 49.3114Z" fill="white"/>
<path d="M292.423 49.6194C292.041 49.645 291.673 49.6707 291.266 49.6707H288.85C287.413 49.6707 286.294 49.6194 285.468 49.5041C284.641 49.3888 284.031 49.1326 283.624 48.7226C283.217 48.3126 282.963 47.7489 282.848 47.0059C282.734 46.2628 282.683 45.2635 282.683 43.9951V25.6874H295.373C295.614 25.6874 295.843 25.7002 296.059 25.7259V25.0468C295.843 25.0725 295.614 25.0853 295.373 25.0853H282.683V3.60031H290.465C290.783 3.60031 291.075 3.62593 291.38 3.63874H300.891L300.777 2.98535H277.406V50.2728H301.578V50.2087L301.679 49.6194H292.41H292.423Z" fill="white"/>
<path d="M144.241 3.53576H154.642L154.553 2.98486H128.398L128.309 3.53576H138.875V21.7538H138.799V50.2467H144.228V3.59982H144.241V3.53576Z" fill="white"/>
<path d="M310.058 9.90345C308.634 9.90345 307.273 8.87852 307.273 6.68775C307.273 4.22793 309.575 1.0891 311.202 -0.0126953L311.342 0.0513625C308.761 3.33112 312.83 4.4201 312.83 6.81586C312.83 8.86571 311.406 9.89064 310.045 9.89064L310.058 9.90345Z" fill="#A2B8E7"/>
<path d="M346.194 49.6066L318.462 49.6707C316.288 37.9865 340.574 29.1081 340.574 11.0695C340.574 4.71493 336.848 1.9092 332.703 1.9092C326.739 1.9092 319.822 7.64878 321.514 16.7322L319.416 6.8929C322.124 3.20317 327.553 1.15332 332.843 1.15332C339.823 1.15332 346.537 4.77899 346.537 13.2474C346.537 31.2861 322.938 37.0257 319.886 44.6101H340.027C345.52 44.6101 346.74 41.2663 347.821 37.7816L346.194 49.6066Z" fill="#A2B8E7"/>
<path d="M365.596 50.5676C359.023 50.5676 352.64 47.0188 351.355 39.0244L351.902 38.8194C353.39 45.7248 358.756 49.1327 364.045 49.1327C370.085 49.1327 376.048 44.623 376.048 35.6678C376.048 29.2492 372.386 24.4577 363.295 23.9836V23.3687C371.166 22.1388 374.421 17.2832 374.421 9.08379C374.421 3.95917 370.288 0.679408 366.08 0.679408C361.604 0.679408 356.988 4.30508 357.065 12.9785H357.001L355.31 4.71505C357.281 1.7812 361.884 0.0644531 366.639 0.0644531C373.213 0.0644531 380.003 3.34421 379.863 11.1336C379.723 17.7572 375.387 22.2669 366.296 23.5737C376.264 23.7146 382.024 27.8783 382.024 35.8727C382.024 45.238 373.62 50.5676 365.609 50.5676H365.596Z" fill="#A2B8E7"/>
</g>
<defs>
<clipPath id="clip0_1417_209">
<rect width="382" height="55" fill="white"/>
</clipPath>
</defs>
</svg>
