<svg width="361" height="42" viewBox="0 0 361 42" fill="none" xmlns="http://www.w3.org/2000/svg">
<g opacity="0.4">
<mask id="path-1-inside-1_1325_541" fill="white">
<path d="M32.1269 30.5656C32.1269 32.7772 31.5555 34.6387 30.4128 36.15C29.2701 37.6245 27.722 38.7487 25.7683 39.5228C23.8515 40.2969 21.7504 40.6839 19.4651 40.6839H0.5V1.42682H21.5109C23.3539 1.42682 24.9389 1.92445 26.2659 2.9197C27.6298 3.87809 28.6619 5.13137 29.3623 6.67954C30.0995 8.19085 30.4681 9.77587 30.4681 11.4346C30.4681 13.3145 29.9889 15.1023 29.0305 16.7979C28.0721 18.4935 26.6714 19.7468 24.8284 20.5578C27.0769 21.2213 28.8462 22.4192 30.1364 24.1517C31.4634 25.8842 32.1269 28.0221 32.1269 30.5656ZM24.4413 29.128C24.4413 28.1327 24.2386 27.2481 23.8331 26.474C23.4276 25.663 22.8747 25.0364 22.1744 24.5941C21.5109 24.1149 20.7368 23.8753 19.8521 23.8753H8.13026V34.2148H19.4651C20.3866 34.2148 21.216 33.9936 21.9532 33.5513C22.7273 33.0721 23.3355 32.4455 23.7778 31.6714C24.2201 30.8973 24.4413 30.0495 24.4413 29.128ZM8.13026 7.95125V17.8485H18.3039C19.1517 17.8485 19.9258 17.6457 20.6262 17.2403C21.3265 16.8348 21.8795 16.2634 22.2849 15.5262C22.7273 14.789 22.9484 13.9043 22.9484 12.8722C22.9484 11.877 22.7457 11.0107 22.3402 10.2735C21.9716 9.53628 21.4556 8.96493 20.7921 8.55946C20.1654 8.15398 19.4466 7.95125 18.6357 7.95125H8.13026Z"/>
<path d="M54.8345 40.9604C51.9593 40.9604 49.3422 40.4075 46.9831 39.3017C44.6608 38.1958 42.6519 36.7029 40.9563 34.823C39.2975 32.9062 38.0074 30.7683 37.0858 28.4092C36.1643 26.0132 35.7035 23.5619 35.7035 21.0554C35.7035 18.4382 36.1827 15.9501 37.1411 13.591C38.1364 11.195 39.4818 9.07551 41.1774 7.23246C42.9099 5.35254 44.9373 3.87809 47.2595 2.80912C49.6186 1.70328 52.1989 1.15037 55.0003 1.15037C57.8387 1.15037 60.4189 1.72171 62.7412 2.86441C65.1003 4.0071 67.1092 5.53684 68.768 7.45362C70.4267 9.3704 71.7169 11.5083 72.6384 13.8675C73.5599 16.2266 74.0207 18.6594 74.0207 21.166C74.0207 23.7462 73.5415 26.2344 72.5831 28.6303C71.6247 30.9895 70.2793 33.109 68.5468 34.9889C66.8512 36.832 64.8238 38.288 62.4647 39.3569C60.1425 40.4259 57.5991 40.9604 54.8345 40.9604ZM43.4444 21.0554C43.4444 22.751 43.7024 24.3913 44.2185 25.9763C44.7345 27.5614 45.4717 28.9805 46.4301 30.2338C47.4254 31.4502 48.6234 32.427 50.0241 33.1643C51.4617 33.8646 53.0836 34.2148 54.8898 34.2148C56.7328 34.2148 58.3731 33.8462 59.8107 33.109C61.2483 32.3349 62.4463 31.3212 63.4047 30.0679C64.3631 28.7778 65.0819 27.3586 65.5611 25.8105C66.0771 24.2254 66.3352 22.6404 66.3352 21.0554C66.3352 19.3598 66.0587 17.7379 65.5058 16.1897C64.9897 14.6047 64.2341 13.204 63.2388 11.9875C62.2804 10.7343 61.0824 9.75744 59.6449 9.05708C58.2441 8.31986 56.6591 7.95125 54.8898 7.95125C53.0098 7.95125 51.3511 8.33829 49.9135 9.11237C48.5128 9.8496 47.3332 10.8448 46.3748 12.0981C45.4165 13.3514 44.6792 14.7521 44.1632 16.3003C43.684 17.8485 43.4444 19.4335 43.4444 21.0554Z"/>
<path d="M96.5166 40.9604C93.3834 40.9604 90.711 40.4443 88.4994 39.4122C86.3245 38.3433 84.5552 36.8872 83.1913 35.0442C81.8643 33.2011 80.8875 31.1185 80.2609 28.7962C79.6342 26.4371 79.3209 23.9858 79.3209 21.4424V1.42682H86.9512V21.4424C86.9512 23.0643 87.0986 24.6493 87.3935 26.1975C87.7253 27.7088 88.2598 29.0727 88.997 30.2891C89.7342 31.5055 90.711 32.4639 91.9274 33.1643C93.1439 33.8646 94.6552 34.2148 96.4613 34.2148C98.3044 34.2148 99.8342 33.8646 101.051 33.1643C102.304 32.427 103.281 31.4502 103.981 30.2338C104.718 29.0174 105.253 27.6535 105.584 26.1422C105.916 24.5941 106.082 23.0275 106.082 21.4424V1.42682H113.657V21.4424C113.657 24.1333 113.325 26.6583 112.662 29.0174C112.035 31.3765 111.022 33.4592 109.621 35.2654C108.257 37.0347 106.488 38.4354 104.313 39.4675C102.138 40.4628 99.5393 40.9604 96.5166 40.9604Z"/>
<path d="M150.703 8.11712H138.151V40.6839H130.576V8.11712H118.025V1.42682H150.703V8.11712Z"/>
<path d="M155.576 40.6839V1.42682H163.206V40.6839H155.576Z"/>
<path d="M188.15 40.9604C185.275 40.9604 182.658 40.4075 180.299 39.3017C177.976 38.159 175.968 36.6476 174.272 34.7677C172.613 32.8878 171.323 30.7683 170.401 28.4092C169.48 26.0132 169.019 23.5619 169.019 21.0554C169.019 18.4382 169.498 15.9501 170.457 13.591C171.452 11.195 172.797 9.07551 174.493 7.23246C176.226 5.35254 178.253 3.87809 180.575 2.80912C182.934 1.70328 185.515 1.15037 188.316 1.15037C191.154 1.15037 193.735 1.72171 196.057 2.86441C198.416 4.0071 200.425 5.53684 202.084 7.45362C203.742 9.3704 205.033 11.5083 205.954 13.8675C206.876 16.2266 207.336 18.6594 207.336 21.166C207.336 23.7462 206.857 26.2344 205.899 28.6303C204.94 30.9895 203.595 33.109 201.862 34.9889C200.167 36.832 198.139 38.288 195.78 39.3569C193.458 40.4259 190.915 40.9604 188.15 40.9604ZM188.205 34.2148C190.048 34.2148 191.689 33.8462 193.126 33.109C194.564 32.3349 195.762 31.3212 196.72 30.0679C197.679 28.7778 198.398 27.3586 198.877 25.8105C199.393 24.2254 199.651 22.6404 199.651 21.0554C199.651 19.3598 199.374 17.7194 198.821 16.1344C198.305 14.5494 197.55 13.1487 196.554 11.9322C195.596 10.7158 194.398 9.73901 192.961 9.00179C191.56 8.26457 189.975 7.89595 188.205 7.89595C186.326 7.89595 184.667 8.283 183.229 9.05708C181.828 9.7943 180.649 10.808 179.691 12.0981C178.732 13.3514 177.995 14.7521 177.479 16.3003C177 17.8485 176.76 19.4335 176.76 21.0554C176.76 22.751 177.018 24.3913 177.534 25.9763C178.05 27.5614 178.787 28.9621 179.746 30.1785C180.741 31.3949 181.939 32.3718 183.34 33.109C184.777 33.8462 186.399 34.2148 188.205 34.2148ZM187.431 26.1422H194.619L207.558 40.6839H200.37L187.431 26.1422Z"/>
<path d="M229.778 40.9604C226.645 40.9604 223.973 40.4443 221.761 39.4122C219.586 38.3433 217.817 36.8872 216.453 35.0442C215.126 33.2011 214.149 31.1185 213.523 28.7962C212.896 26.4371 212.583 23.9858 212.583 21.4424V1.42682H220.213V21.4424C220.213 23.0643 220.36 24.6493 220.655 26.1975C220.987 27.7088 221.521 29.0727 222.259 30.2891C222.996 31.5055 223.973 32.4639 225.189 33.1643C226.406 33.8646 227.917 34.2148 229.723 34.2148C231.566 34.2148 233.096 33.8646 234.312 33.1643C235.566 32.427 236.542 31.4502 237.243 30.2338C237.98 29.0174 238.514 27.6535 238.846 26.1422C239.178 24.5941 239.344 23.0275 239.344 21.4424V1.42682H246.919V21.4424C246.919 24.1333 246.587 26.6583 245.923 29.0174C245.297 31.3765 244.283 33.4592 242.882 35.2654C241.519 37.0347 239.749 38.4354 237.574 39.4675C235.4 40.4628 232.801 40.9604 229.778 40.9604Z"/>
<path d="M281.863 33.9936V40.6839H254.604V1.42682H281.365V8.11712H262.235V17.572H278.767V23.7647H262.235V33.9936H281.863Z"/>
<path d="M299.27 40.6839C299.27 38.4354 299.417 36.4633 299.712 34.7677C300.007 33.0353 300.468 31.5055 301.095 30.1785C301.758 28.8147 302.606 27.6167 303.638 26.5846C304.67 25.5524 305.942 24.5756 307.453 23.6541C308.743 22.9169 310.07 22.1981 311.434 21.4977C312.835 20.7974 314.125 20.0601 315.305 19.286C316.521 18.512 317.498 17.6273 318.235 16.632C319.009 15.6368 319.396 14.4204 319.396 12.9828C319.396 11.877 319.157 10.937 318.677 10.1629C318.235 9.35197 317.572 8.72533 316.687 8.283C315.839 7.84066 314.807 7.6195 313.591 7.6195C312.19 7.6195 310.881 7.87752 309.665 8.39358C308.485 8.87277 307.416 9.48098 306.458 10.2182C305.536 10.9186 304.744 11.6189 304.08 12.3193L299.436 7.45362C299.952 6.86384 300.652 6.20034 301.537 5.46312C302.459 4.7259 303.546 4.00711 304.799 3.30674C306.089 2.60638 307.545 2.03503 309.167 1.5927C310.789 1.15037 312.577 0.929199 314.531 0.929199C317.406 0.929199 319.82 1.44526 321.774 2.47737C323.727 3.47262 325.202 4.85491 326.197 6.62424C327.229 8.35672 327.745 10.3657 327.745 12.651C327.745 14.3098 327.469 15.7842 326.916 17.0744C326.4 18.3277 325.681 19.4335 324.76 20.3919C323.838 21.3503 322.806 22.2165 321.663 22.9906C320.521 23.7278 319.341 24.4466 318.125 25.147C316.208 26.1791 314.66 27.0822 313.48 27.8563C312.3 28.6303 311.361 29.3491 310.66 30.0126C309.997 30.6761 309.481 31.3396 309.112 32.0031C308.78 32.6298 308.485 33.2933 308.227 33.9936H327.801V40.6839H299.27Z"/>
<path d="M345.682 41.071C343.581 41.071 341.664 40.813 339.931 40.2969C338.236 39.744 336.743 38.9699 335.453 37.9746C334.2 36.9425 333.204 35.7261 332.467 34.3254L336.448 29.2938C336.817 30.1048 337.407 30.8973 338.217 31.6714C339.028 32.4455 340.042 33.0721 341.258 33.5513C342.475 34.0305 343.857 34.2701 345.405 34.2701C346.917 34.2701 348.225 34.0489 349.331 33.6066C350.437 33.1643 351.285 32.5561 351.874 31.782C352.501 30.971 352.814 29.9942 352.814 28.8515C352.814 27.6351 352.427 26.603 351.653 25.7552C350.916 24.9074 349.81 24.2623 348.336 23.82C346.861 23.3776 345.055 23.1565 342.917 23.1565H341.093V17.6273H343.028C345.682 17.6273 347.801 17.1665 349.386 16.245C351.008 15.3235 351.819 14.0149 351.819 12.3193C351.819 11.2872 351.543 10.4025 350.99 9.66529C350.437 8.89121 349.7 8.31986 348.778 7.95125C347.857 7.54577 346.843 7.34304 345.737 7.34304C343.894 7.34304 342.254 7.78537 340.816 8.67004C339.415 9.51784 338.346 10.6237 337.609 11.9875L332.799 6.62424C333.61 5.44469 334.716 4.44944 336.116 3.63849C337.517 2.79069 339.084 2.12719 340.816 1.64799C342.586 1.1688 344.41 0.929199 346.29 0.929199C348.907 0.929199 351.229 1.38996 353.257 2.31149C355.284 3.19616 356.869 4.41258 358.012 5.96075C359.155 7.50891 359.726 9.27825 359.726 11.2688C359.726 12.7432 359.413 14.0886 358.786 15.305C358.196 16.5215 357.348 17.5351 356.243 18.3461C355.137 19.157 353.828 19.7468 352.317 20.1154C353.939 20.3735 355.358 20.9817 356.574 21.9401C357.828 22.8616 358.786 24.0411 359.449 25.4787C360.15 26.8794 360.5 28.4092 360.5 30.0679C360.5 32.3902 359.836 34.3623 358.509 35.9841C357.219 37.606 355.45 38.8593 353.202 39.744C350.99 40.6286 348.483 41.071 345.682 41.071Z"/>
</mask>
<path d="M32.1269 30.5656C32.1269 32.7772 31.5555 34.6387 30.4128 36.15C29.2701 37.6245 27.722 38.7487 25.7683 39.5228C23.8515 40.2969 21.7504 40.6839 19.4651 40.6839H0.5V1.42682H21.5109C23.3539 1.42682 24.9389 1.92445 26.2659 2.9197C27.6298 3.87809 28.6619 5.13137 29.3623 6.67954C30.0995 8.19085 30.4681 9.77587 30.4681 11.4346C30.4681 13.3145 29.9889 15.1023 29.0305 16.7979C28.0721 18.4935 26.6714 19.7468 24.8284 20.5578C27.0769 21.2213 28.8462 22.4192 30.1364 24.1517C31.4634 25.8842 32.1269 28.0221 32.1269 30.5656ZM24.4413 29.128C24.4413 28.1327 24.2386 27.2481 23.8331 26.474C23.4276 25.663 22.8747 25.0364 22.1744 24.5941C21.5109 24.1149 20.7368 23.8753 19.8521 23.8753H8.13026V34.2148H19.4651C20.3866 34.2148 21.216 33.9936 21.9532 33.5513C22.7273 33.0721 23.3355 32.4455 23.7778 31.6714C24.2201 30.8973 24.4413 30.0495 24.4413 29.128ZM8.13026 7.95125V17.8485H18.3039C19.1517 17.8485 19.9258 17.6457 20.6262 17.2403C21.3265 16.8348 21.8795 16.2634 22.2849 15.5262C22.7273 14.789 22.9484 13.9043 22.9484 12.8722C22.9484 11.877 22.7457 11.0107 22.3402 10.2735C21.9716 9.53628 21.4556 8.96493 20.7921 8.55946C20.1654 8.15398 19.4466 7.95125 18.6357 7.95125H8.13026Z" stroke="white" stroke-width="2" mask="url(#path-1-inside-1_1325_541)"/>
<path d="M54.8345 40.9604C51.9593 40.9604 49.3422 40.4075 46.9831 39.3017C44.6608 38.1958 42.6519 36.7029 40.9563 34.823C39.2975 32.9062 38.0074 30.7683 37.0858 28.4092C36.1643 26.0132 35.7035 23.5619 35.7035 21.0554C35.7035 18.4382 36.1827 15.9501 37.1411 13.591C38.1364 11.195 39.4818 9.07551 41.1774 7.23246C42.9099 5.35254 44.9373 3.87809 47.2595 2.80912C49.6186 1.70328 52.1989 1.15037 55.0003 1.15037C57.8387 1.15037 60.4189 1.72171 62.7412 2.86441C65.1003 4.0071 67.1092 5.53684 68.768 7.45362C70.4267 9.3704 71.7169 11.5083 72.6384 13.8675C73.5599 16.2266 74.0207 18.6594 74.0207 21.166C74.0207 23.7462 73.5415 26.2344 72.5831 28.6303C71.6247 30.9895 70.2793 33.109 68.5468 34.9889C66.8512 36.832 64.8238 38.288 62.4647 39.3569C60.1425 40.4259 57.5991 40.9604 54.8345 40.9604ZM43.4444 21.0554C43.4444 22.751 43.7024 24.3913 44.2185 25.9763C44.7345 27.5614 45.4717 28.9805 46.4301 30.2338C47.4254 31.4502 48.6234 32.427 50.0241 33.1643C51.4617 33.8646 53.0836 34.2148 54.8898 34.2148C56.7328 34.2148 58.3731 33.8462 59.8107 33.109C61.2483 32.3349 62.4463 31.3212 63.4047 30.0679C64.3631 28.7778 65.0819 27.3586 65.5611 25.8105C66.0771 24.2254 66.3352 22.6404 66.3352 21.0554C66.3352 19.3598 66.0587 17.7379 65.5058 16.1897C64.9897 14.6047 64.2341 13.204 63.2388 11.9875C62.2804 10.7343 61.0824 9.75744 59.6449 9.05708C58.2441 8.31986 56.6591 7.95125 54.8898 7.95125C53.0098 7.95125 51.3511 8.33829 49.9135 9.11237C48.5128 9.8496 47.3332 10.8448 46.3748 12.0981C45.4165 13.3514 44.6792 14.7521 44.1632 16.3003C43.684 17.8485 43.4444 19.4335 43.4444 21.0554Z" stroke="white" stroke-width="2" mask="url(#path-1-inside-1_1325_541)"/>
<path d="M96.5166 40.9604C93.3834 40.9604 90.711 40.4443 88.4994 39.4122C86.3245 38.3433 84.5552 36.8872 83.1913 35.0442C81.8643 33.2011 80.8875 31.1185 80.2609 28.7962C79.6342 26.4371 79.3209 23.9858 79.3209 21.4424V1.42682H86.9512V21.4424C86.9512 23.0643 87.0986 24.6493 87.3935 26.1975C87.7253 27.7088 88.2598 29.0727 88.997 30.2891C89.7342 31.5055 90.711 32.4639 91.9274 33.1643C93.1439 33.8646 94.6552 34.2148 96.4613 34.2148C98.3044 34.2148 99.8342 33.8646 101.051 33.1643C102.304 32.427 103.281 31.4502 103.981 30.2338C104.718 29.0174 105.253 27.6535 105.584 26.1422C105.916 24.5941 106.082 23.0275 106.082 21.4424V1.42682H113.657V21.4424C113.657 24.1333 113.325 26.6583 112.662 29.0174C112.035 31.3765 111.022 33.4592 109.621 35.2654C108.257 37.0347 106.488 38.4354 104.313 39.4675C102.138 40.4628 99.5393 40.9604 96.5166 40.9604Z" stroke="white" stroke-width="2" mask="url(#path-1-inside-1_1325_541)"/>
<path d="M150.703 8.11712H138.151V40.6839H130.576V8.11712H118.025V1.42682H150.703V8.11712Z" stroke="white" stroke-width="2" mask="url(#path-1-inside-1_1325_541)"/>
<path d="M155.576 40.6839V1.42682H163.206V40.6839H155.576Z" stroke="white" stroke-width="2" mask="url(#path-1-inside-1_1325_541)"/>
<path d="M188.15 40.9604C185.275 40.9604 182.658 40.4075 180.299 39.3017C177.976 38.159 175.968 36.6476 174.272 34.7677C172.613 32.8878 171.323 30.7683 170.401 28.4092C169.48 26.0132 169.019 23.5619 169.019 21.0554C169.019 18.4382 169.498 15.9501 170.457 13.591C171.452 11.195 172.797 9.07551 174.493 7.23246C176.226 5.35254 178.253 3.87809 180.575 2.80912C182.934 1.70328 185.515 1.15037 188.316 1.15037C191.154 1.15037 193.735 1.72171 196.057 2.86441C198.416 4.0071 200.425 5.53684 202.084 7.45362C203.742 9.3704 205.033 11.5083 205.954 13.8675C206.876 16.2266 207.336 18.6594 207.336 21.166C207.336 23.7462 206.857 26.2344 205.899 28.6303C204.94 30.9895 203.595 33.109 201.862 34.9889C200.167 36.832 198.139 38.288 195.78 39.3569C193.458 40.4259 190.915 40.9604 188.15 40.9604ZM188.205 34.2148C190.048 34.2148 191.689 33.8462 193.126 33.109C194.564 32.3349 195.762 31.3212 196.72 30.0679C197.679 28.7778 198.398 27.3586 198.877 25.8105C199.393 24.2254 199.651 22.6404 199.651 21.0554C199.651 19.3598 199.374 17.7194 198.821 16.1344C198.305 14.5494 197.55 13.1487 196.554 11.9322C195.596 10.7158 194.398 9.73901 192.961 9.00179C191.56 8.26457 189.975 7.89595 188.205 7.89595C186.326 7.89595 184.667 8.283 183.229 9.05708C181.828 9.7943 180.649 10.808 179.691 12.0981C178.732 13.3514 177.995 14.7521 177.479 16.3003C177 17.8485 176.76 19.4335 176.76 21.0554C176.76 22.751 177.018 24.3913 177.534 25.9763C178.05 27.5614 178.787 28.9621 179.746 30.1785C180.741 31.3949 181.939 32.3718 183.34 33.109C184.777 33.8462 186.399 34.2148 188.205 34.2148ZM187.431 26.1422H194.619L207.558 40.6839H200.37L187.431 26.1422Z" stroke="white" stroke-width="2" mask="url(#path-1-inside-1_1325_541)"/>
<path d="M229.778 40.9604C226.645 40.9604 223.973 40.4443 221.761 39.4122C219.586 38.3433 217.817 36.8872 216.453 35.0442C215.126 33.2011 214.149 31.1185 213.523 28.7962C212.896 26.4371 212.583 23.9858 212.583 21.4424V1.42682H220.213V21.4424C220.213 23.0643 220.36 24.6493 220.655 26.1975C220.987 27.7088 221.521 29.0727 222.259 30.2891C222.996 31.5055 223.973 32.4639 225.189 33.1643C226.406 33.8646 227.917 34.2148 229.723 34.2148C231.566 34.2148 233.096 33.8646 234.312 33.1643C235.566 32.427 236.542 31.4502 237.243 30.2338C237.98 29.0174 238.514 27.6535 238.846 26.1422C239.178 24.5941 239.344 23.0275 239.344 21.4424V1.42682H246.919V21.4424C246.919 24.1333 246.587 26.6583 245.923 29.0174C245.297 31.3765 244.283 33.4592 242.882 35.2654C241.519 37.0347 239.749 38.4354 237.574 39.4675C235.4 40.4628 232.801 40.9604 229.778 40.9604Z" stroke="white" stroke-width="2" mask="url(#path-1-inside-1_1325_541)"/>
<path d="M281.863 33.9936V40.6839H254.604V1.42682H281.365V8.11712H262.235V17.572H278.767V23.7647H262.235V33.9936H281.863Z" stroke="white" stroke-width="2" mask="url(#path-1-inside-1_1325_541)"/>
<path d="M299.27 40.6839C299.27 38.4354 299.417 36.4633 299.712 34.7677C300.007 33.0353 300.468 31.5055 301.095 30.1785C301.758 28.8147 302.606 27.6167 303.638 26.5846C304.67 25.5524 305.942 24.5756 307.453 23.6541C308.743 22.9169 310.07 22.1981 311.434 21.4977C312.835 20.7974 314.125 20.0601 315.305 19.286C316.521 18.512 317.498 17.6273 318.235 16.632C319.009 15.6368 319.396 14.4204 319.396 12.9828C319.396 11.877 319.157 10.937 318.677 10.1629C318.235 9.35197 317.572 8.72533 316.687 8.283C315.839 7.84066 314.807 7.6195 313.591 7.6195C312.19 7.6195 310.881 7.87752 309.665 8.39358C308.485 8.87277 307.416 9.48098 306.458 10.2182C305.536 10.9186 304.744 11.6189 304.08 12.3193L299.436 7.45362C299.952 6.86384 300.652 6.20034 301.537 5.46312C302.459 4.7259 303.546 4.00711 304.799 3.30674C306.089 2.60638 307.545 2.03503 309.167 1.5927C310.789 1.15037 312.577 0.929199 314.531 0.929199C317.406 0.929199 319.82 1.44526 321.774 2.47737C323.727 3.47262 325.202 4.85491 326.197 6.62424C327.229 8.35672 327.745 10.3657 327.745 12.651C327.745 14.3098 327.469 15.7842 326.916 17.0744C326.4 18.3277 325.681 19.4335 324.76 20.3919C323.838 21.3503 322.806 22.2165 321.663 22.9906C320.521 23.7278 319.341 24.4466 318.125 25.147C316.208 26.1791 314.66 27.0822 313.48 27.8563C312.3 28.6303 311.361 29.3491 310.66 30.0126C309.997 30.6761 309.481 31.3396 309.112 32.0031C308.78 32.6298 308.485 33.2933 308.227 33.9936H327.801V40.6839H299.27Z" stroke="white" stroke-width="2" mask="url(#path-1-inside-1_1325_541)"/>
<path d="M345.682 41.071C343.581 41.071 341.664 40.813 339.931 40.2969C338.236 39.744 336.743 38.9699 335.453 37.9746C334.2 36.9425 333.204 35.7261 332.467 34.3254L336.448 29.2938C336.817 30.1048 337.407 30.8973 338.217 31.6714C339.028 32.4455 340.042 33.0721 341.258 33.5513C342.475 34.0305 343.857 34.2701 345.405 34.2701C346.917 34.2701 348.225 34.0489 349.331 33.6066C350.437 33.1643 351.285 32.5561 351.874 31.782C352.501 30.971 352.814 29.9942 352.814 28.8515C352.814 27.6351 352.427 26.603 351.653 25.7552C350.916 24.9074 349.81 24.2623 348.336 23.82C346.861 23.3776 345.055 23.1565 342.917 23.1565H341.093V17.6273H343.028C345.682 17.6273 347.801 17.1665 349.386 16.245C351.008 15.3235 351.819 14.0149 351.819 12.3193C351.819 11.2872 351.543 10.4025 350.99 9.66529C350.437 8.89121 349.7 8.31986 348.778 7.95125C347.857 7.54577 346.843 7.34304 345.737 7.34304C343.894 7.34304 342.254 7.78537 340.816 8.67004C339.415 9.51784 338.346 10.6237 337.609 11.9875L332.799 6.62424C333.61 5.44469 334.716 4.44944 336.116 3.63849C337.517 2.79069 339.084 2.12719 340.816 1.64799C342.586 1.1688 344.41 0.929199 346.29 0.929199C348.907 0.929199 351.229 1.38996 353.257 2.31149C355.284 3.19616 356.869 4.41258 358.012 5.96075C359.155 7.50891 359.726 9.27825 359.726 11.2688C359.726 12.7432 359.413 14.0886 358.786 15.305C358.196 16.5215 357.348 17.5351 356.243 18.3461C355.137 19.157 353.828 19.7468 352.317 20.1154C353.939 20.3735 355.358 20.9817 356.574 21.9401C357.828 22.8616 358.786 24.0411 359.449 25.4787C360.15 26.8794 360.5 28.4092 360.5 30.0679C360.5 32.3902 359.836 34.3623 358.509 35.9841C357.219 37.606 355.45 38.8593 353.202 39.744C350.99 40.6286 348.483 41.071 345.682 41.071Z" stroke="white" stroke-width="2" mask="url(#path-1-inside-1_1325_541)"/>
</g>
</svg>
