<svg width="1000" height="104" viewBox="0 0 1000 104" fill="none" xmlns="http://www.w3.org/2000/svg">
<path d="M572.678 20.284C572.605 20.3272 568.774 22.6172 568.701 22.6604C565.114 25.1089 559.927 28.7673 559.898 37.7256C559.867 43.0401 560.041 47.5624 559.968 50.5151C559.911 52.8482 559.148 55.1096 557.764 56.9242L538.644 82.1431V97.5109L609.578 1.30139L572.678 20.284ZM569.378 39.886C567.347 31.5036 578.555 27.8743 578.844 28.8823C578.987 29.3865 571.626 37.8264 569.81 40.0731C569.651 40.2605 569.422 40.1309 569.365 39.9003" fill="#D2A749"/>
<path d="M571.424 54.6054L563.082 65.6233C562.879 65.8826 562.78 66.2139 562.764 66.5596L562.577 82.0567C562.577 82.5609 562.319 83.0361 561.916 83.31L559.781 84.7501C554.899 88.0484 552.002 93.5934 552.103 99.4841L552.16 102.811L569.019 89.8774C570.242 88.9414 571.166 87.6017 571.627 86.0609C571.827 85.3693 571.929 84.6637 571.913 83.9435L571.411 54.5911L571.424 54.6054Z" fill="#D2A749"/>
<path d="M467.726 1.30139L538.644 97.5252V82.1577L519.524 56.9386C518.142 55.1239 517.377 52.8628 517.32 50.5294C517.262 47.577 517.421 43.0546 517.392 37.74C517.364 28.7673 512.176 25.1233 508.59 22.6749C508.517 22.6317 504.683 20.3272 504.613 20.2984L467.726 1.30139ZM507.478 40.0445C505.664 37.7975 498.301 29.3576 498.444 28.8537C498.733 27.8454 509.943 31.4747 507.91 39.8571C507.853 40.102 507.624 40.2173 507.465 40.0299" fill="#D2A749"/>
<path d="M505.88 54.6054L514.222 65.6233C514.425 65.8826 514.524 66.2139 514.54 66.5596L514.727 82.0567C514.727 82.5609 514.985 83.0361 515.388 83.31L516.687 84.1884C522.09 87.8323 525.289 93.9677 525.172 100.478L525.131 102.811L508.272 89.8774C507.046 88.9414 506.125 87.6017 505.664 86.0609C505.461 85.3693 505.362 84.6637 505.375 83.9435L505.88 54.5911V54.6054Z" fill="#D2A749"/>
<path d="M14.2241 72.734C14.9881 72.8238 15.8645 72.8912 16.8532 72.9363C17.8869 72.9813 19.0104 73.0037 20.2238 73.0037C21.7519 73.0037 23.2574 72.9363 24.7405 72.8014C26.2686 72.6216 27.7067 72.2845 29.0549 71.7903C30.4482 71.2509 31.729 70.5094 32.8974 69.5656C34.1109 68.5768 35.1895 67.296 36.1333 65.7231C37.5713 63.2962 38.5601 60.8244 39.0994 58.3077C39.6838 55.746 39.9758 52.9597 39.9758 49.9485C39.9758 46.398 39.6387 43.1848 38.9646 40.3085C38.2905 37.3873 37.1668 34.9155 35.594 32.8931C34.0658 30.8257 32.0211 29.2304 29.4594 28.1068C26.8977 26.9831 23.7293 26.4214 19.9542 26.4214C18.8306 26.4214 17.797 26.4438 16.8532 26.4889C15.9544 26.5339 15.078 26.5787 14.2241 26.6237V72.734ZM0 72.734H7.48282V26.6237H0V25.6799H12.5388C13.168 25.6799 13.7972 25.6799 14.4263 25.6799C15.0555 25.6349 15.6847 25.59 16.3139 25.5451C16.9431 25.5451 17.5723 25.5451 18.2015 25.5451C18.8306 25.5001 19.4598 25.4777 20.089 25.4777C21.4373 25.4777 22.6282 25.5001 23.6619 25.5451C24.7405 25.59 25.7292 25.6799 26.6281 25.8147C27.5718 25.9046 28.4482 26.062 29.2572 26.2866C30.1111 26.4665 31.0099 26.7135 31.9537 27.0282C34.6952 27.9269 37.0547 29.1403 39.032 30.6684C41.0544 32.1515 42.6947 33.8819 43.9531 35.8592C45.2564 37.8366 46.2002 39.9938 46.7845 42.3309C47.4136 44.6679 47.7283 47.1172 47.7283 49.6789C47.7283 52.645 47.3688 55.3191 46.6497 57.701C45.9305 60.038 44.942 62.1278 43.6835 63.9704C42.425 65.7681 40.942 67.341 39.2343 68.6893C37.5713 69.9925 35.7738 71.0487 33.8412 71.8577C32.7626 72.3519 31.729 72.734 30.7402 73.0037C29.7965 73.2733 28.8077 73.4756 27.7741 73.6104C26.7853 73.7452 25.6843 73.835 24.4708 73.88C23.2574 73.9251 21.8642 73.9475 20.2913 73.9475C19.6171 73.9475 18.898 73.9251 18.134 73.88C17.37 73.88 16.606 73.8577 15.842 73.8126C15.078 73.7676 14.314 73.7228 13.55 73.6778C12.8309 73.6778 12.1343 73.6778 11.4602 73.6778H0V72.734Z" fill="white"/>
<path d="M65.2847 49.6114C65.2847 53.6562 65.5544 57.184 66.0937 60.1952C66.633 63.2064 67.532 65.7231 68.7902 67.7455C70.0486 69.7678 71.6665 71.2733 73.6439 72.2621C75.6215 73.2509 78.0708 73.7452 80.9919 73.7452C83.8683 73.7452 86.2951 73.2509 88.2725 72.2621C90.2949 71.2733 91.9354 69.7678 93.1936 67.7455C94.4521 65.7231 95.3508 63.2064 95.8901 60.1952C96.4294 57.184 96.6991 53.6562 96.6991 49.6114C96.6991 46.5104 96.4968 43.5219 96.0924 40.6455C95.6879 37.7244 94.9016 35.14 93.7329 32.893C92.6095 30.601 91.014 28.7809 88.9466 27.4326C86.9242 26.0843 84.2727 25.4102 80.9919 25.4102C77.7113 25.4102 75.0372 26.0843 72.9698 27.4326C70.9474 28.7809 69.3521 30.601 68.1834 32.893C67.0601 35.14 66.2959 37.7244 65.8914 40.6455C65.4869 43.5219 65.2847 46.5104 65.2847 49.6114ZM57.5322 49.6114C57.5322 46.0161 58.229 42.6903 59.622 39.6343C61.0603 36.5783 62.8805 33.9266 65.0825 31.6796C67.3297 29.4326 69.8464 27.6799 72.6327 26.4214C75.4193 25.1181 78.2056 24.4664 80.9919 24.4664C83.9581 24.4664 86.8344 25.1181 89.6207 26.4214C92.4521 27.6799 94.969 29.4326 97.171 31.6796C99.3732 33.9266 101.126 36.5783 102.429 39.6343C103.777 42.6903 104.452 46.0161 104.452 49.6114C104.452 52.7574 103.845 55.8358 102.631 58.847C101.418 61.8582 99.7553 64.532 97.6429 66.8691C95.5307 69.2061 93.0364 71.0937 90.16 72.5318C87.3287 73.9698 84.2727 74.689 80.9919 74.689C77.6212 74.689 74.4979 73.9925 71.6215 72.5992C68.7454 71.2059 66.2511 69.3634 64.1387 67.0713C62.0715 64.7343 60.4536 62.0604 59.285 59.0492C58.1166 55.9932 57.5322 52.8472 57.5322 49.6114Z" fill="white"/>
<path d="M107.179 25.6798H127.47V26.6236H120.459L134.346 65.723H134.481L143.447 40.8477L138.323 26.6236H132.661V25.6798H152.885V26.6236H145.537L159.424 65.723H159.558L173.715 26.6236H166.502V25.6798H180.928V26.6236H174.861L157.401 74.6889H155.716L144.121 42.3308H143.986L132.256 74.6889H130.436L113.246 26.6236H107.179V25.6798Z" fill="white"/>
<path d="M181.685 72.7339H189.167V26.6236H181.685V25.6798H196.111L218.896 62.4198H219.031V26.6236H211.548V25.6798H227.525V26.6236H220.042V74.6215H218.694L190.313 29.3875H190.179V72.7339H197.661V73.6777H181.685V72.7339Z" fill="white"/>
<path d="M241.12 72.7339H248.603V26.6236H244.693C243.795 26.6236 242.783 26.7134 241.66 26.8932C240.536 27.0281 239.39 27.4549 238.222 28.1741C237.098 28.8932 235.997 30.0393 234.919 31.6121C233.885 33.1402 232.986 35.2748 232.222 38.0164H231.48V25.6798H272.467V38.0164H271.725C270.963 35.2748 270.041 33.1402 268.961 31.6121C267.928 30.0393 266.827 28.8932 265.658 28.1741C264.536 27.4549 263.412 27.0281 262.288 26.8932C261.166 26.7134 260.154 26.6236 259.255 26.6236H255.345V72.7339H262.826V73.6777H241.12V72.7339Z" fill="white"/>
<path d="M286.682 49.6114C286.682 53.6562 286.95 57.184 287.488 60.1952C288.03 63.2064 288.928 65.7231 290.185 67.7455C291.445 69.7678 293.061 71.2733 295.039 72.2621C297.017 73.2509 299.467 73.7452 302.387 73.7452C305.263 73.7452 307.691 73.2509 309.667 72.2621C311.689 71.2733 313.332 69.7678 314.589 67.7455C315.849 65.7231 316.747 63.2064 317.285 60.1952C317.824 57.184 318.095 53.6562 318.095 49.6114C318.095 46.5104 317.892 43.5219 317.488 40.6455C317.082 37.7244 316.296 35.14 315.128 32.893C314.006 30.601 312.41 28.7809 310.341 27.4326C308.319 26.0843 305.669 25.4102 302.387 25.4102C299.107 25.4102 296.432 26.0843 294.365 27.4326C292.343 28.7809 290.747 30.601 289.578 32.893C288.457 35.14 287.691 37.7244 287.288 40.6455C286.882 43.5219 286.682 46.5104 286.682 49.6114ZM278.928 49.6114C278.928 46.0161 279.625 42.6903 281.018 39.6343C282.457 36.5783 284.277 33.9266 286.478 31.6796C288.725 29.4326 291.242 27.6799 294.029 26.4214C296.814 25.1181 299.602 24.4664 302.387 24.4664C305.354 24.4664 308.23 25.1181 311.015 26.4214C313.847 27.6799 316.364 29.4326 318.566 31.6796C320.768 33.9266 322.522 36.5783 323.826 39.6343C325.174 42.6903 325.849 46.0161 325.849 49.6114C325.849 52.7574 325.24 55.8358 324.027 58.847C322.814 61.8582 321.151 64.532 319.04 66.8691C316.926 69.2061 314.433 71.0937 311.557 72.5318C308.725 73.9698 305.669 74.689 302.387 74.689C299.016 74.689 295.893 73.9925 293.017 72.5992C290.141 71.2059 287.647 69.3634 285.534 67.0713C283.467 64.7343 281.848 62.0604 280.682 59.0492C279.513 55.9932 278.928 52.8472 278.928 49.6114Z" fill="white"/>
<path d="M328.573 25.6798H348.865V26.6236H341.855L355.741 65.723H355.877L364.841 40.8477L359.718 26.6236H354.055V25.6798H374.279V26.6236H366.931L380.819 65.723H380.955L395.112 26.6236H387.897V25.6798H402.324V26.6236H396.257L378.797 74.6889H377.11L365.515 42.3308H365.382L353.651 74.6889H351.832L334.64 26.6236H328.573V25.6798Z" fill="white"/>
<path d="M403.079 72.7339H410.562V26.6236H403.079V25.6798H417.506L440.291 62.4198H440.427V26.6236H432.944V25.6798H448.92V26.6236H441.439V74.6215H440.091L411.71 29.3875H411.575V72.7339H419.058V73.6777H403.079V72.7339Z" fill="white"/>
<path d="M637.959 72.7339H645.442V26.6236H641.53C640.632 26.6236 639.622 26.7134 638.498 26.8932C637.374 27.0281 636.228 27.4549 635.06 28.1741C633.935 28.8932 632.834 30.0393 631.757 31.6121C630.723 33.1402 629.823 35.2748 629.06 38.0164H628.318V25.6798H669.305V38.0164H668.563C667.8 35.2748 666.879 33.1402 665.799 31.6121C664.766 30.0393 663.665 28.8932 662.496 28.1741C661.374 27.4549 660.25 27.0281 659.125 26.8932C658.003 26.7134 656.991 26.6236 656.093 26.6236H652.184V72.7339H659.667V73.6777H637.959V72.7339Z" fill="white"/>
<path d="M673.862 72.7339H681.345V26.6236H673.862V25.6798H712.423V37.3422H711.681C711.096 35.5895 710.468 34.0614 709.794 32.7582C709.12 31.4099 708.311 30.2863 707.366 29.3875C706.423 28.4437 705.299 27.7472 703.995 27.2977C702.691 26.8482 701.119 26.6236 699.276 26.6236H688.087V47.4541H692.467C693.951 47.4541 695.211 47.3193 696.244 47.0497C697.277 46.78 698.154 46.2857 698.873 45.5666C699.635 44.8027 700.265 43.7915 700.76 42.533C701.299 41.2298 701.817 39.5668 702.311 37.5445H703.053V58.5098H702.311C701.996 57.2066 701.658 55.9482 701.299 54.7347C700.984 53.5213 700.512 52.4427 699.883 51.4989C699.3 50.5551 698.49 49.8136 697.457 49.2743C696.468 48.69 695.164 48.3979 693.547 48.3979H688.087V72.7339H700.827C703.3 72.7339 705.343 72.217 706.962 71.1834C708.625 70.1048 709.974 68.8464 711.007 67.4083C712.04 65.9253 712.803 64.3971 713.297 62.8243C713.792 61.2514 714.107 59.9479 714.242 58.9143H714.984V73.6777H673.862V72.7339Z" fill="white"/>
<path d="M735.551 47.4542H741.754C743.011 47.4542 744.159 47.297 745.192 46.9823C746.226 46.6677 747.103 46.1284 747.821 45.3644C748.584 44.5555 749.169 43.4769 749.573 42.1286C749.979 40.7804 750.179 39.0727 750.179 37.0052C750.179 34.6682 749.864 32.8033 749.237 31.41C748.651 29.9719 747.865 28.8933 746.876 28.1742C745.934 27.455 744.854 26.9831 743.641 26.7585C742.472 26.5339 741.304 26.4214 740.135 26.4214C739.326 26.4214 738.495 26.4438 737.642 26.4889C736.832 26.4889 736.135 26.5339 735.551 26.6237V47.4542ZM721.327 72.734H728.81V26.6237H721.327V25.6799H734.136C734.674 25.6799 735.216 25.6799 735.755 25.6799C736.293 25.6349 736.832 25.59 737.371 25.5451C737.912 25.5451 738.451 25.5451 738.99 25.5451C739.529 25.5001 740.067 25.4777 740.609 25.4777C743.258 25.4777 745.596 25.6349 747.618 25.9495C749.641 26.2192 751.528 27.0505 753.282 28.4438C754.854 29.6573 755.955 31.0279 756.585 32.556C757.259 34.0841 757.595 35.5222 757.595 36.8704C757.595 37.5446 757.462 38.4209 757.191 39.4995C756.967 40.5331 756.426 41.6117 755.572 42.7353C754.765 43.8139 753.573 44.8251 752.001 45.7689C750.427 46.6677 748.337 47.2744 745.731 47.5891V47.7239C746.449 47.8137 747.415 47.9935 748.631 48.2632C749.888 48.4878 751.148 48.8923 752.405 49.4766C753.709 50.061 754.898 50.8473 755.978 51.8361C757.056 52.7798 757.821 54.0157 758.269 55.5438C758.54 56.4425 758.719 57.4764 758.81 58.6448C758.943 59.7684 759.034 60.9368 759.078 62.1502C759.169 63.3637 759.237 64.5321 759.281 65.6557C759.37 66.7793 759.505 67.7231 759.685 68.487C759.955 69.6554 760.382 70.7116 760.965 71.6554C761.551 72.5992 762.493 73.0711 763.797 73.0711C764.383 73.0711 764.989 72.9587 765.617 72.734C766.246 72.5094 766.809 72.1497 767.303 71.6554L767.91 72.397C767.686 72.5768 767.415 72.7791 767.1 73.0037C766.832 73.1835 766.47 73.3631 766.023 73.543C765.572 73.7228 765.01 73.8577 764.336 73.9475C763.709 74.0823 762.92 74.1497 761.978 74.1497C760.179 74.1497 758.675 73.9251 757.462 73.4756C756.293 73.0261 755.348 72.3746 754.63 71.5206C753.909 70.6219 753.37 69.5432 753.011 68.2848C752.696 66.9816 752.472 65.4758 752.337 63.7681L751.866 57.6336C751.686 55.3866 751.236 53.6338 750.518 52.3754C749.799 51.1169 748.943 50.1958 747.956 49.6114C747.012 49.0271 746.023 48.69 744.989 48.6003C743.956 48.4654 743.058 48.398 742.293 48.398H735.551V72.734H743.035V73.6778H721.327V72.734Z" fill="white"/>
<path d="M784.204 47.4542H790.404C791.664 47.4542 792.809 47.297 793.842 46.9823C794.875 46.6677 795.753 46.1284 796.471 45.3644C797.236 44.5555 797.819 43.4769 798.225 42.1286C798.629 40.7804 798.832 39.0727 798.832 37.0052C798.832 34.6682 798.517 32.8033 797.887 31.41C797.304 29.9719 796.518 28.8933 795.529 28.1742C794.584 27.455 793.506 26.9831 792.293 26.7585C791.125 26.5339 789.956 26.4214 788.787 26.4214C787.978 26.4214 787.145 26.4438 786.291 26.4889C785.484 26.4889 784.787 26.5339 784.204 26.6237V47.4542ZM769.979 72.734H777.463V26.6237H769.979V25.6799H782.788C783.327 25.6799 783.865 25.6799 784.404 25.6799C784.943 25.6349 785.484 25.59 786.023 25.5451C786.562 25.5451 787.101 25.5451 787.64 25.5451C788.181 25.5001 788.72 25.4777 789.259 25.4777C791.911 25.4777 794.248 25.6349 796.27 25.9495C798.293 26.2192 800.18 27.0505 801.932 28.4438C803.506 29.6573 804.607 31.0279 805.235 32.556C805.909 34.0841 806.247 35.5222 806.247 36.8704C806.247 37.5446 806.112 38.4209 805.841 39.4995C805.617 40.5331 805.078 41.6117 804.225 42.7353C803.415 43.8139 802.223 44.8251 800.651 45.7689C799.079 46.6677 796.989 47.2744 794.381 47.5891V47.7239C795.102 47.8137 796.067 47.9935 797.28 48.2632C798.54 48.4878 799.797 48.8923 801.057 49.4766C802.358 50.061 803.551 50.8473 804.628 51.8361C805.708 52.7798 806.471 54.0157 806.921 55.5438C807.189 56.4425 807.369 57.4764 807.46 58.6448C807.595 59.7684 807.684 60.9368 807.731 62.1502C807.819 63.3637 807.887 64.5321 807.931 65.6557C808.022 66.7793 808.157 67.7231 808.337 68.487C808.605 69.6554 809.032 70.7116 809.618 71.6554C810.201 72.5992 811.146 73.0711 812.45 73.0711C813.033 73.0711 813.639 72.9587 814.269 72.734C814.899 72.5094 815.458 72.1497 815.953 71.6554L816.562 72.397C816.336 72.5768 816.067 72.7791 815.753 73.0037C815.482 73.1835 815.123 73.3631 814.672 73.543C814.225 73.7228 813.662 73.8577 812.988 73.9475C812.358 74.0823 811.572 74.1497 810.628 74.1497C808.832 74.1497 807.325 73.9251 806.112 73.4756C804.943 73.0261 803.998 72.3746 803.28 71.5206C802.561 70.6219 802.023 69.5432 801.664 68.2848C801.349 66.9816 801.122 65.4758 800.989 63.7681L800.516 57.6336C800.336 55.3866 799.888 53.6338 799.167 52.3754C798.449 51.1169 797.595 50.1958 796.606 49.6114C795.664 49.0271 794.675 48.69 793.642 48.6003C792.606 48.4654 791.708 48.398 790.945 48.398H784.204V72.734H791.684V73.6778H769.979V72.734Z" fill="white"/>
<path d="M838.449 33.4323L831.033 53.0495H845.864L838.449 33.4323ZM816.538 72.734H822.47L840.671 24.4664H842.29L860.627 72.734H866.627V73.6778H845.864V72.734H853.347L846.267 53.9932H830.627L823.55 72.734H831.033V73.6778H816.538V72.734Z" fill="white"/>
<path d="M909.766 73.6778H908.756C908.441 73.3183 908.082 73.0036 907.676 72.734C907.273 72.4193 906.643 72.2621 905.789 72.2621C905.115 72.2621 904.373 72.3969 903.566 72.6666C902.801 72.8912 901.903 73.1609 900.87 73.4755C899.881 73.7902 898.756 74.0599 897.499 74.2845C896.239 74.5541 894.847 74.689 893.319 74.689C890.487 74.689 887.723 74.172 885.027 73.1385C882.374 72.1049 879.857 70.4196 877.476 68.0825C875.274 65.8803 873.431 63.2738 871.947 60.2626C870.466 57.2514 869.725 53.7686 869.725 49.8136C869.725 46.443 870.331 43.2296 871.544 40.1736C872.757 37.1177 874.443 34.4211 876.601 32.0841C878.756 29.747 881.297 27.9045 884.217 26.5562C887.14 25.163 890.328 24.4664 893.79 24.4664C895.183 24.4664 896.419 24.6013 897.499 24.8709C898.577 25.1406 899.542 25.4552 900.396 25.8147C901.25 26.1294 902.036 26.4214 902.757 26.6911C903.475 26.9607 904.173 27.0955 904.847 27.0955C905.745 27.0955 906.375 26.9607 906.734 26.6911C907.137 26.3764 907.497 26.0393 907.812 25.6799H908.824V39.1624H908.082C907.676 37.4547 907.161 35.7694 906.531 34.1065C905.901 32.4435 905.027 30.9831 903.902 29.7246C902.778 28.4214 901.341 27.3876 899.587 26.6236C897.879 25.8147 895.745 25.4102 893.184 25.4102C890.802 25.4102 888.756 25.7922 887.049 26.5562C885.341 27.2754 883.902 28.2639 882.733 29.5224C881.565 30.7358 880.623 32.1739 879.904 33.8368C879.23 35.4547 878.712 37.1851 878.353 39.0276C877.994 40.8254 877.746 42.6679 877.611 44.5554C877.52 46.398 877.476 48.1507 877.476 49.8136C877.476 54.5325 877.858 58.4425 878.624 61.5435C879.386 64.6445 880.443 67.0937 881.791 68.8915C883.184 70.6892 884.847 71.9474 886.778 72.6666C888.712 73.3857 890.846 73.7452 893.184 73.7452C896.195 73.7452 898.621 73.3183 900.464 72.4643C902.307 71.6104 903.79 70.5094 904.915 69.1611C906.036 67.7678 906.89 66.2173 907.476 64.5096C908.059 62.7569 908.577 61.0266 909.024 59.3188H909.766V73.6778Z" fill="white"/>
<path d="M915.206 72.7339H922.689V26.6236H915.206V25.6798H953.767V37.3422H953.025C952.439 35.5895 951.812 34.0614 951.138 32.7582C950.464 31.4099 949.654 30.2863 948.709 29.3875C947.767 28.4437 946.643 27.7472 945.339 27.2977C944.035 26.8482 942.463 26.6236 940.62 26.6236H929.43V47.4541H933.811C935.295 47.4541 936.554 47.3193 937.588 47.0497C938.621 46.78 939.498 46.2857 940.216 45.5666C940.979 44.8027 941.609 43.7915 942.104 42.533C942.642 41.2298 943.16 39.5668 943.655 37.5445H944.397V58.5098H943.655C943.34 57.2066 943.001 55.9482 942.642 54.7347C942.327 53.5213 941.856 52.4427 941.226 51.4989C940.643 50.5551 939.834 49.8136 938.801 49.2743C937.812 48.69 936.507 48.3979 934.891 48.3979H929.43V72.7339H942.171C944.644 72.7339 946.687 72.217 948.306 71.1834C949.969 70.1048 951.317 68.8464 952.351 67.4083C953.384 65.9253 954.147 64.3971 954.641 62.8243C955.136 61.2514 955.451 59.9479 955.586 58.9143H956.328V73.6777H915.206V72.7339Z" fill="white"/>
<path d="M965.705 59.184H966.447C966.939 61.6109 967.569 63.6557 968.334 65.3186C969.143 66.9815 970.018 68.3522 970.963 69.4308C971.905 70.5094 972.894 71.3407 973.927 71.925C974.963 72.5094 975.997 72.9362 977.03 73.2059C978.107 73.4755 979.12 73.6327 980.062 73.6778C981.051 73.7228 981.973 73.7452 982.826 73.7452C985.208 73.7452 987.163 73.3857 988.693 72.6666C990.221 71.9474 991.434 71.0487 992.332 69.9701C993.23 68.8464 993.86 67.6557 994.219 66.3972C994.578 65.094 994.76 63.9029 994.76 62.8243C994.76 61.2514 994.466 59.9032 993.883 58.7795C993.297 57.6559 992.556 56.7121 991.658 55.9482C990.76 55.1393 989.771 54.4875 988.693 53.9932C987.657 53.499 986.671 53.1169 985.726 52.8472L977.972 50.4878C974.333 49.3641 971.569 47.8811 969.682 46.0385C967.839 44.196 966.918 41.7241 966.918 38.6231C966.918 36.6007 967.277 34.7356 967.996 33.0279C968.717 31.2751 969.726 29.7697 971.03 28.5112C972.332 27.2527 973.883 26.2642 975.682 25.545C977.524 24.826 979.523 24.4664 981.681 24.4664C983.253 24.4664 984.557 24.6013 985.591 24.8709C986.671 25.1406 987.592 25.4552 988.355 25.8147C989.12 26.1294 989.794 26.4214 990.377 26.6911C991.007 26.9607 991.637 27.0955 992.264 27.0955C992.85 27.0955 993.23 27.0281 993.412 26.8933C993.636 26.7134 993.927 26.309 994.287 25.6799H995.231V37.8816H994.422C994.151 36.2637 993.68 34.7132 993.006 33.2301C992.376 31.702 991.546 30.3764 990.512 29.2527C989.479 28.0843 988.219 27.1629 986.736 26.4888C985.299 25.7697 983.612 25.4102 981.681 25.4102C980.604 25.4102 979.411 25.5675 978.107 25.8821C976.806 26.1518 975.591 26.646 974.469 27.3652C973.344 28.0843 972.4 29.0281 971.637 30.1965C970.919 31.3649 970.557 32.848 970.557 34.6458C970.557 36.0838 970.851 37.3199 971.434 38.3535C972.019 39.3423 972.761 40.196 973.659 40.9152C974.602 41.5893 975.637 42.1736 976.759 42.6679C977.928 43.1174 979.097 43.5219 980.265 43.8813L988.422 46.443C989.276 46.7127 990.354 47.0721 991.658 47.5216C992.962 47.9711 994.219 48.6452 995.434 49.544C996.692 50.4427 997.748 51.6338 998.602 53.1169C999.5 54.6 999.95 56.4875 999.95 58.7795C999.95 60.8917 999.544 62.9141 998.737 64.8467C997.972 66.7343 996.848 68.4196 995.367 69.9027C993.883 71.3407 992.085 72.5094 989.974 73.4081C987.86 74.2621 985.479 74.689 982.826 74.689C981.884 74.689 981.051 74.6666 980.333 74.6216C979.614 74.6216 978.94 74.5765 978.31 74.4867C977.681 74.3969 977.051 74.2845 976.423 74.1497C975.794 74.0599 975.096 73.9024 974.333 73.6778C973.435 73.4081 972.467 73.0934 971.434 72.734C970.401 72.3745 969.503 72.1947 968.737 72.1947C968.063 72.1947 967.592 72.3295 967.321 72.5992C967.098 72.8688 966.895 73.2283 966.715 73.6778H965.705V59.184Z" fill="white"/>
</svg>
