<svg width="281" height="213" viewBox="0 0 281 213" fill="none" xmlns="http://www.w3.org/2000/svg">
<path d="M174.888 18.717C174.816 18.7596 171.026 21.0176 170.955 21.0602C167.407 23.4743 162.278 27.0814 162.249 35.9145C162.221 41.1547 162.392 45.6138 162.321 48.525C162.264 50.8256 161.508 53.0551 160.141 54.8445L141.233 79.7105V94.8631L211.378 0L174.888 18.717ZM171.625 38.0446C169.616 29.7796 180.701 26.201 180.986 27.195C181.129 27.6921 173.848 36.0139 172.052 38.2292C171.896 38.4139 171.668 38.2861 171.611 38.0588" fill="#D2A749"/>
<path d="M173.648 52.5581L165.398 63.422C165.199 63.6776 165.099 64.0042 165.085 64.345L164.9 79.6254C164.9 80.1224 164.643 80.591 164.244 80.8609L162.135 82.281C157.305 85.533 154.441 91.0004 154.541 96.8087L154.598 100.089L171.269 87.3365C172.48 86.4135 173.392 85.0928 173.848 83.5732C174.047 82.8916 174.147 82.1958 174.133 81.4857L173.634 52.5439L173.648 52.5581Z" fill="#D2A749"/>
<path d="M71.1019 0L141.233 94.8773V79.7248L122.325 54.8587C120.957 53.0694 120.202 50.8398 120.145 48.5392C120.088 45.628 120.245 41.1689 120.216 35.9287C120.188 27.0814 115.058 23.4886 111.511 21.0744C111.439 21.0318 107.649 18.7596 107.578 18.7312L71.1019 0ZM110.413 38.2009C108.618 35.9855 101.337 27.6637 101.48 27.1666C101.765 26.1726 112.85 29.7512 110.841 38.0162C110.784 38.2577 110.556 38.3713 110.399 38.1867" fill="#D2A749"/>
<path d="M108.832 52.5581L117.082 63.422C117.281 63.6776 117.381 64.0042 117.395 64.345L117.58 79.6254C117.58 80.1224 117.837 80.591 118.236 80.8609L119.518 81.7271C124.861 85.32 128.024 91.3696 127.911 97.7885L127.868 100.089L111.197 87.3365C109.986 86.4135 109.074 85.0928 108.618 83.5732C108.419 82.8916 108.319 82.1958 108.333 81.4857L108.832 52.5439V52.5581Z" fill="#D2A749"/>
<path d="M8.90351 165.754C9.38174 165.812 9.9303 165.855 10.5492 165.883C11.1962 165.912 11.8995 165.926 12.659 165.926C13.6155 165.926 14.5579 165.883 15.4862 165.797C16.4427 165.683 17.3429 165.468 18.1868 165.153C19.0589 164.809 19.8606 164.337 20.592 163.736C21.3516 163.106 22.0267 162.289 22.6175 161.287C23.5177 159.741 24.1365 158.166 24.4741 156.562C24.8398 154.93 25.0227 153.155 25.0227 151.236C25.0227 148.974 24.8117 146.927 24.3897 145.094C23.9678 143.233 23.2645 141.658 22.2799 140.369C21.3234 139.052 20.0435 138.035 18.44 137.319C16.8365 136.604 14.8533 136.246 12.4902 136.246C11.787 136.246 11.1399 136.26 10.5492 136.289C9.98656 136.317 9.43801 136.346 8.90351 136.374V165.754ZM0 165.754H4.68384V136.374H0V135.773H7.84859C8.24243 135.773 8.63627 135.773 9.0301 135.773C9.42394 135.745 9.81778 135.716 10.2116 135.687C10.6054 135.687 10.9993 135.687 11.3931 135.687C11.787 135.659 12.1808 135.644 12.5746 135.644C13.4186 135.644 14.164 135.659 14.8111 135.687C15.4862 135.716 16.1051 135.773 16.6677 135.859C17.2585 135.916 17.807 136.017 18.3134 136.16C18.8479 136.274 19.4105 136.432 20.0013 136.632C21.7173 137.205 23.1941 137.978 24.4319 138.952C25.6978 139.897 26.7246 140.999 27.5123 142.259C28.3281 143.519 28.9188 144.894 29.2845 146.383C29.6784 147.872 29.8753 149.432 29.8753 151.064C29.8753 152.954 29.6502 154.658 29.2001 156.176C28.7501 157.665 28.1312 158.996 27.3435 160.17C26.5558 161.316 25.6275 162.318 24.5585 163.177C23.5177 164.008 22.3924 164.681 21.1828 165.196C20.5076 165.511 19.8606 165.754 19.2417 165.926C18.651 166.098 18.0321 166.227 17.3851 166.313C16.7662 166.399 16.077 166.456 15.3174 166.485C14.5579 166.513 13.6858 166.528 12.7012 166.528C12.2793 166.528 11.8292 166.513 11.3509 166.485C10.8727 166.485 10.3945 166.47 9.91623 166.442C9.43801 166.413 8.95977 166.384 8.48155 166.356C8.03145 166.356 7.59541 166.356 7.17345 166.356H0V165.754Z" fill="white"/>
<path d="M40.8646 151.021C40.8646 153.599 41.0334 155.847 41.3709 157.765C41.7085 159.684 42.2711 161.287 43.0588 162.576C43.8465 163.864 44.8592 164.824 46.097 165.454C47.3347 166.084 48.8679 166.399 50.6964 166.399C52.4968 166.399 54.0159 166.084 55.2537 165.454C56.5196 164.824 57.5464 163.864 58.334 162.576C59.1217 161.287 59.6843 159.684 60.0219 157.765C60.3595 155.847 60.5283 153.599 60.5283 151.021C60.5283 149.046 60.4017 147.141 60.1485 145.309C59.8953 143.447 59.403 141.801 58.6716 140.369C57.9683 138.909 56.9697 137.749 55.6756 136.89C54.4097 136.031 52.75 135.601 50.6964 135.601C48.6428 135.601 46.969 136.031 45.675 136.89C44.4091 137.749 43.4104 138.909 42.679 140.369C41.9758 141.801 41.4975 143.447 41.2444 145.309C40.9912 147.141 40.8646 149.046 40.8646 151.021ZM36.012 151.021C36.012 148.731 36.448 146.612 37.3201 144.664C38.2203 142.717 39.3596 141.028 40.738 139.596C42.1445 138.164 43.7199 137.047 45.464 136.246C47.2082 135.415 48.9523 135 50.6964 135C52.5531 135 54.3535 135.415 56.0976 136.246C57.8699 137.047 59.4452 138.164 60.8236 139.596C62.2021 141.028 63.2992 142.717 64.115 144.664C64.9589 146.612 65.3809 148.731 65.3809 151.021C65.3809 153.026 65.0011 154.987 64.2416 156.906C63.482 158.825 62.4412 160.528 61.119 162.017C59.7969 163.506 58.2356 164.709 56.4352 165.626C54.6629 166.542 52.75 167 50.6964 167C48.5866 167 46.6315 166.556 44.8311 165.668C43.0307 164.781 41.4694 163.607 40.1472 162.146C38.8532 160.657 37.8405 158.953 37.1091 157.035C36.3777 155.088 36.012 153.083 36.012 151.021Z" fill="white"/>
<path d="M67.0879 135.773H79.7891V136.374H75.4006L84.0932 161.287H84.1776L89.7897 145.438L86.5828 136.374H83.0383V135.773H95.6973V136.374H91.0978L99.7904 161.287H99.8748L108.736 136.374H104.221V135.773H113.251V136.374H109.453L98.5245 167H97.4695L90.2117 146.383H90.1273L82.7851 167H81.6458L70.8856 136.374H67.0879V135.773Z" fill="white"/>
<path d="M113.725 165.754H118.408V136.374H113.725V135.773H122.755L137.017 159.183H137.102V136.374H132.418V135.773H142.418V136.374H137.734V166.957H136.891L119.126 138.136H119.041V165.754H123.725V166.356H113.725V165.754Z" fill="white"/>
<path d="M150.929 165.754H155.612V136.374H153.165C152.602 136.374 151.969 136.432 151.266 136.546C150.563 136.632 149.845 136.904 149.114 137.362C148.411 137.821 147.722 138.551 147.046 139.553C146.399 140.527 145.837 141.887 145.359 143.634H144.894V135.773H170.55V143.634H170.086C169.608 141.887 169.031 140.527 168.356 139.553C167.709 138.551 167.02 137.821 166.288 137.362C165.585 136.904 164.882 136.632 164.178 136.546C163.475 136.432 162.842 136.374 162.279 136.374H159.832V165.754H164.516V166.356H150.929V165.754Z" fill="white"/>
<path d="M179.446 151.021C179.446 153.599 179.615 155.847 179.953 157.765C180.29 159.684 180.853 161.287 181.64 162.576C182.428 163.864 183.441 164.824 184.679 165.454C185.916 166.084 187.45 166.399 189.278 166.399C191.079 166.399 192.598 166.084 193.835 165.454C195.101 164.824 196.128 163.864 196.916 162.576C197.703 161.287 198.266 159.684 198.604 157.765C198.941 155.847 199.11 153.599 199.11 151.021C199.11 149.046 198.983 147.141 198.73 145.309C198.477 143.447 197.985 141.801 197.253 140.369C196.55 138.909 195.551 137.749 194.257 136.89C192.991 136.031 191.332 135.601 189.278 135.601C187.225 135.601 185.551 136.031 184.257 136.89C182.991 137.749 181.992 138.909 181.261 140.369C180.557 141.801 180.079 143.447 179.826 145.309C179.573 147.141 179.446 149.046 179.446 151.021ZM174.594 151.021C174.594 148.731 175.03 146.612 175.902 144.664C176.802 142.717 177.941 141.028 179.32 139.596C180.726 138.164 182.302 137.047 184.046 136.246C185.79 135.415 187.534 135 189.278 135C191.135 135 192.935 135.415 194.679 136.246C196.452 137.047 198.027 138.164 199.405 139.596C200.784 141.028 201.881 142.717 202.697 144.664C203.541 146.612 203.963 148.731 203.963 151.021C203.963 153.026 203.583 154.987 202.823 156.906C202.064 158.825 201.023 160.528 199.701 162.017C198.379 163.506 196.817 164.709 195.017 165.626C193.245 166.542 191.332 167 189.278 167C187.168 167 185.213 166.556 183.413 165.668C181.612 164.781 180.051 163.607 178.729 162.146C177.435 160.657 176.422 158.953 175.691 157.035C174.959 155.088 174.594 153.083 174.594 151.021Z" fill="white"/>
<path d="M205.67 135.773H218.371V136.374H213.982L222.675 161.287H222.759L228.371 145.438L225.164 136.374H221.62V135.773H234.279V136.374H229.68L238.372 161.287H238.456L247.318 136.374H242.803V135.773H251.833V136.374H248.035L237.106 167H236.051L228.793 146.383H228.709L221.367 167H220.227L209.467 136.374H205.67V135.773Z" fill="white"/>
<path d="M252.306 165.754H256.99V136.374H252.306V135.773H261.336L275.599 159.183H275.683V136.374H270.999V135.773H281V136.374H276.316V166.957H275.472L257.707 138.136H257.623V165.754H262.307V166.356H252.306V165.754Z" fill="white"/>
<path d="M28.1423 211.754H32.9101V182.374H30.4188C29.8461 182.374 29.2018 182.432 28.4859 182.546C27.77 182.632 27.0398 182.904 26.2953 183.362C25.5794 183.821 24.8779 184.551 24.1906 185.553C23.532 186.527 22.9593 187.887 22.4725 189.634H22V181.773H48.1154V189.634H47.643C47.1562 187.887 46.5691 186.527 45.8819 185.553C45.2233 184.551 44.5217 183.821 43.7772 183.362C43.0613 182.904 42.3454 182.632 41.6295 182.546C40.9136 182.432 40.2694 182.374 39.6966 182.374H37.2054V211.754H41.9732V212.356H28.1423V211.754Z" fill="white"/>
<path d="M51.0188 211.754H55.7866V182.374H51.0188V181.773H75.5879V189.204H75.1154C74.7432 188.087 74.3423 187.114 73.9128 186.283C73.4832 185.424 72.9678 184.708 72.3664 184.136C71.7651 183.534 71.0492 183.09 70.2188 182.804C69.3884 182.518 68.3861 182.374 67.2121 182.374H60.0819V195.647H62.8738C63.8188 195.647 64.6206 195.561 65.2792 195.389C65.9378 195.217 66.4962 194.902 66.9544 194.444C67.4412 193.957 67.8421 193.313 68.157 192.511C68.5007 191.681 68.83 190.621 69.145 189.333H69.6174V202.691H69.145C68.9445 201.861 68.7298 201.059 68.5007 200.286C68.3002 199.513 67.9996 198.825 67.5987 198.224C67.2264 197.623 66.711 197.15 66.0524 196.807C65.4224 196.434 64.5919 196.248 63.5611 196.248H60.0819V211.754H68.2C69.7749 211.754 71.0779 211.425 72.1087 210.766C73.1682 210.079 74.0273 209.277 74.6859 208.361C75.3445 207.416 75.8313 206.442 76.1463 205.44C76.4613 204.438 76.6617 203.608 76.7477 202.949H77.2201V212.356H51.0188V211.754Z" fill="white"/>
<path d="M90.3252 195.647H94.2768C95.0786 195.647 95.8088 195.547 96.4674 195.346C97.1261 195.146 97.6845 194.802 98.1426 194.315C98.6294 193.8 99.0017 193.113 99.2594 192.254C99.5171 191.395 99.646 190.306 99.646 188.989C99.646 187.5 99.4455 186.312 99.0446 185.424C98.6724 184.508 98.1712 183.821 97.5413 183.362C96.9399 182.904 96.2527 182.604 95.4795 182.46C94.735 182.317 93.9905 182.246 93.246 182.246C92.7305 182.246 92.2008 182.26 91.6567 182.289C91.1413 182.289 90.6974 182.317 90.3252 182.374V195.647ZM81.2621 211.754H86.0299V182.374H81.2621V181.773H89.4231C89.7668 181.773 90.1104 181.773 90.454 181.773C90.7976 181.745 91.1413 181.716 91.4849 181.687C91.8285 181.687 92.1721 181.687 92.5158 181.687C92.8594 181.659 93.203 181.644 93.5466 181.644C95.2361 181.644 96.7252 181.745 98.0138 181.945C99.3024 182.117 100.505 182.647 101.622 183.534C102.624 184.307 103.326 185.181 103.727 186.154C104.156 187.128 104.371 188.044 104.371 188.903C104.371 189.333 104.285 189.891 104.113 190.579C103.97 191.237 103.626 191.924 103.082 192.64C102.567 193.328 101.808 193.972 100.806 194.573C99.8035 195.146 98.4719 195.532 96.8111 195.733V195.819C97.2692 195.876 97.8849 195.991 98.6581 196.162C99.4598 196.306 100.262 196.563 101.063 196.936C101.894 197.308 102.653 197.809 103.34 198.439C104.027 199.04 104.514 199.828 104.8 200.801C104.972 201.374 105.087 202.033 105.144 202.777C105.23 203.493 105.287 204.238 105.316 205.011C105.373 205.784 105.416 206.528 105.445 207.244C105.502 207.96 105.588 208.562 105.702 209.048C105.874 209.793 106.146 210.466 106.518 211.067C106.891 211.668 107.492 211.969 108.322 211.969C108.695 211.969 109.081 211.898 109.482 211.754C109.883 211.611 110.241 211.382 110.556 211.067L110.943 211.54C110.799 211.654 110.628 211.783 110.427 211.926C110.255 212.041 110.026 212.155 109.74 212.27C109.454 212.384 109.096 212.47 108.666 212.528C108.265 212.613 107.764 212.656 107.163 212.656C106.017 212.656 105.058 212.513 104.285 212.227C103.54 211.94 102.939 211.525 102.481 210.981C102.023 210.408 101.679 209.721 101.45 208.919C101.25 208.089 101.106 207.13 101.02 206.042L100.72 202.133C100.605 200.701 100.319 199.584 99.8607 198.783C99.4026 197.981 98.8585 197.394 98.2285 197.021C97.6272 196.649 96.9972 196.434 96.3386 196.377C95.68 196.291 95.1073 196.248 94.6205 196.248H90.3252V211.754H95.093V212.356H81.2621V211.754Z" fill="white"/>
<path d="M121.323 195.647H125.275C126.077 195.647 126.807 195.547 127.466 195.346C128.124 195.146 128.683 194.802 129.141 194.315C129.628 193.8 130 193.113 130.258 192.254C130.515 191.395 130.644 190.306 130.644 188.989C130.644 187.5 130.444 186.312 130.043 185.424C129.671 184.508 129.17 183.821 128.54 183.362C127.938 182.904 127.251 182.604 126.478 182.46C125.733 182.317 124.989 182.246 124.244 182.246C123.729 182.246 123.199 182.26 122.655 182.289C122.14 182.289 121.696 182.317 121.323 182.374V195.647ZM112.26 211.754H117.028V182.374H112.26V181.773H120.421C120.765 181.773 121.109 181.773 121.452 181.773C121.796 181.745 122.14 181.716 122.483 181.687C122.827 181.687 123.17 181.687 123.514 181.687C123.858 181.659 124.201 181.644 124.545 181.644C126.234 181.644 127.723 181.745 129.012 181.945C130.301 182.117 131.503 182.647 132.62 183.534C133.622 184.307 134.324 185.181 134.725 186.154C135.154 187.128 135.369 188.044 135.369 188.903C135.369 189.333 135.283 189.891 135.111 190.579C134.968 191.237 134.625 191.924 134.081 192.64C133.565 193.328 132.806 193.972 131.804 194.573C130.802 195.146 129.47 195.532 127.809 195.733V195.819C128.268 195.876 128.883 195.991 129.656 196.162C130.458 196.306 131.26 196.563 132.062 196.936C132.892 197.308 133.651 197.809 134.338 198.439C135.026 199.04 135.512 199.828 135.799 200.801C135.97 201.374 136.085 202.033 136.142 202.777C136.228 203.493 136.285 204.238 136.314 205.011C136.371 205.784 136.414 206.528 136.443 207.244C136.5 207.96 136.586 208.562 136.701 209.048C136.872 209.793 137.145 210.466 137.517 211.067C137.889 211.668 138.49 211.969 139.321 211.969C139.693 211.969 140.08 211.898 140.481 211.754C140.881 211.611 141.239 211.382 141.554 211.067L141.941 211.54C141.798 211.654 141.626 211.783 141.426 211.926C141.254 212.041 141.025 212.155 140.738 212.27C140.452 212.384 140.094 212.47 139.664 212.528C139.264 212.613 138.762 212.656 138.161 212.656C137.016 212.656 136.056 212.513 135.283 212.227C134.539 211.94 133.937 211.525 133.479 210.981C133.021 210.408 132.677 209.721 132.448 208.919C132.248 208.089 132.105 207.13 132.019 206.042L131.718 202.133C131.604 200.701 131.317 199.584 130.859 198.783C130.401 197.981 129.857 197.394 129.227 197.021C128.626 196.649 127.996 196.434 127.337 196.377C126.678 196.291 126.106 196.248 125.619 196.248H121.323V211.754H126.091V212.356H112.26V211.754Z" fill="white"/>
<path d="M155.887 186.713L151.162 199.212H160.612L155.887 186.713ZM141.927 211.754H145.707L157.304 181H158.335L170.018 211.754H173.841V212.356H160.612V211.754H165.38L160.869 199.813H150.904L146.394 211.754H151.162V212.356H141.927V211.754Z" fill="white"/>
<path d="M201.329 212.356H200.684C200.484 212.127 200.255 211.926 199.997 211.754C199.739 211.554 199.338 211.454 198.794 211.454C198.365 211.454 197.892 211.54 197.377 211.711C196.89 211.855 196.317 212.026 195.659 212.227C195.029 212.427 194.313 212.599 193.511 212.742C192.709 212.914 191.822 213 190.848 213C189.044 213 187.283 212.671 185.565 212.012C183.875 211.353 182.272 210.28 180.754 208.791C179.351 207.387 178.177 205.727 177.232 203.808C176.287 201.889 175.814 199.67 175.814 197.15C175.814 195.003 176.201 192.955 176.974 191.008C177.747 189.061 178.821 187.343 180.196 185.854C181.57 184.365 183.188 183.191 185.049 182.332C186.911 181.444 188.944 181 191.149 181C192.036 181 192.824 181.086 193.511 181.258C194.198 181.43 194.814 181.63 195.358 181.859C195.902 182.06 196.403 182.246 196.861 182.417C197.32 182.589 197.763 182.675 198.193 182.675C198.766 182.675 199.167 182.589 199.396 182.417C199.653 182.217 199.882 182.002 200.083 181.773H200.727V190.364H200.255C199.997 189.276 199.668 188.202 199.267 187.142C198.866 186.083 198.307 185.152 197.592 184.35C196.876 183.52 195.959 182.861 194.843 182.374C193.754 181.859 192.394 181.601 190.762 181.601C189.244 181.601 187.941 181.845 186.853 182.332C185.765 182.79 184.849 183.42 184.104 184.221C183.36 184.995 182.758 185.911 182.3 186.97C181.871 188.001 181.541 189.104 181.312 190.278C181.083 191.423 180.926 192.597 180.84 193.8C180.783 194.974 180.754 196.091 180.754 197.15C180.754 200.157 180.997 202.648 181.484 204.624C181.971 206.6 182.644 208.161 183.503 209.306C184.391 210.451 185.45 211.253 186.682 211.711C187.913 212.17 189.273 212.399 190.762 212.399C192.681 212.399 194.227 212.127 195.401 211.583C196.575 211.038 197.52 210.337 198.236 209.478C198.952 208.59 199.496 207.602 199.868 206.514C200.24 205.397 200.57 204.295 200.856 203.207H201.329V212.356Z" fill="white"/>
<path d="M204.794 211.754H209.562V182.374H204.794V181.773H229.363V189.204H228.891C228.518 188.087 228.117 187.114 227.688 186.283C227.258 185.424 226.743 184.708 226.142 184.136C225.54 183.534 224.824 183.09 223.994 182.804C223.164 182.518 222.161 182.374 220.987 182.374H213.857V195.647H216.649C217.594 195.647 218.396 195.561 219.054 195.389C219.713 195.217 220.271 194.902 220.73 194.444C221.216 193.957 221.617 193.313 221.932 192.511C222.276 191.681 222.605 190.621 222.92 189.333H223.393V202.691H222.92C222.72 201.861 222.505 201.059 222.276 200.286C222.075 199.513 221.775 198.825 221.374 198.224C221.002 197.623 220.486 197.15 219.828 196.807C219.198 196.434 218.367 196.248 217.336 196.248H213.857V211.754H221.975C223.55 211.754 224.853 211.425 225.884 210.766C226.943 210.079 227.802 209.277 228.461 208.361C229.12 207.416 229.606 206.442 229.921 205.44C230.236 204.438 230.437 203.608 230.523 202.949H230.995V212.356H204.794V211.754Z" fill="white"/>
<path d="M236.97 203.121H237.443C237.758 204.667 238.158 205.97 238.645 207.03C239.161 208.089 239.719 208.962 240.32 209.65C240.922 210.337 241.552 210.867 242.21 211.239C242.869 211.611 243.528 211.883 244.186 212.055C244.873 212.227 245.518 212.327 246.119 212.356C246.749 212.384 247.336 212.399 247.88 212.399C249.398 212.399 250.644 212.17 251.617 211.711C252.591 211.253 253.364 210.681 253.937 209.993C254.509 209.277 254.91 208.519 255.139 207.717C255.368 206.886 255.483 206.128 255.483 205.44C255.483 204.438 255.297 203.579 254.924 202.863C254.552 202.147 254.08 201.546 253.507 201.059C252.934 200.544 252.304 200.128 251.617 199.813C250.958 199.498 250.329 199.255 249.727 199.083L244.788 197.58C242.468 196.864 240.707 195.919 239.504 194.745C238.33 193.571 237.743 191.996 237.743 190.02C237.743 188.732 237.972 187.543 238.431 186.455C238.889 185.338 239.533 184.379 240.363 183.577C241.194 182.775 242.182 182.145 243.327 181.687C244.501 181.229 245.776 181 247.15 181C248.152 181 248.983 181.086 249.641 181.258C250.329 181.43 250.916 181.63 251.402 181.859C251.889 182.06 252.319 182.246 252.691 182.417C253.092 182.589 253.493 182.675 253.894 182.675C254.266 182.675 254.509 182.632 254.624 182.546C254.767 182.432 254.953 182.174 255.182 181.773H255.784V189.548H255.268C255.096 188.517 254.796 187.529 254.366 186.584C253.965 185.61 253.435 184.766 252.777 184.05C252.118 183.305 251.316 182.718 250.371 182.289C249.455 181.83 248.381 181.601 247.15 181.601C246.463 181.601 245.704 181.702 244.873 181.902C244.043 182.074 243.27 182.389 242.554 182.847C241.838 183.305 241.237 183.906 240.75 184.651C240.292 185.396 240.063 186.34 240.063 187.486C240.063 188.402 240.249 189.19 240.621 189.848C240.993 190.478 241.466 191.022 242.039 191.481C242.64 191.91 243.299 192.282 244.014 192.597C244.759 192.884 245.503 193.141 246.248 193.37L251.445 195.003C251.989 195.174 252.677 195.404 253.507 195.69C254.337 195.976 255.139 196.406 255.912 196.979C256.714 197.551 257.387 198.31 257.931 199.255C258.504 200.2 258.79 201.403 258.79 202.863C258.79 204.209 258.533 205.498 258.017 206.729C257.53 207.932 256.814 209.005 255.869 209.95C254.924 210.867 253.779 211.611 252.433 212.184C251.087 212.728 249.57 213 247.88 213C247.279 213 246.749 212.986 246.291 212.957C245.833 212.957 245.403 212.928 245.002 212.871C244.601 212.814 244.201 212.742 243.8 212.656C243.399 212.599 242.955 212.499 242.468 212.356C241.895 212.184 241.28 211.983 240.621 211.754C239.963 211.525 239.39 211.411 238.903 211.411C238.473 211.411 238.173 211.497 238.001 211.668C237.858 211.84 237.729 212.069 237.614 212.356H236.97V203.121Z" fill="white"/>
</svg>
