<svg width="235" height="126" viewBox="0 0 235 126" fill="none" xmlns="http://www.w3.org/2000/svg">
<mask id="mask0_1417_105" style="mask-type:alpha" maskUnits="userSpaceOnUse" x="0" y="0" width="235" height="126">
<g clip-path="url(#clip0_1417_105)">
<path d="M0 98.1913V31.8469C0.169189 31.7288 0.354884 31.7817 0.532326 31.7817C3.28887 31.7817 6.04128 31.7858 8.79782 31.7777C12.0784 31.7655 15.3632 31.7573 18.6438 31.7084C20.5915 31.6799 22.5351 31.6636 24.4829 31.6921C27.5489 31.7329 30.6191 31.7207 33.681 31.8836C36.1156 32.0139 38.5544 32.1686 40.952 32.6411C43.2174 33.0891 45.4458 33.6796 47.5751 34.5593C50.3316 35.6997 52.6466 37.4509 54.4912 39.7805C55.3371 40.8517 55.7498 42.1346 56.1872 43.389C57.0043 45.7389 57.1693 48.1499 56.8475 50.6099C56.6741 51.9376 56.4513 53.2449 55.8942 54.4789C54.7017 57.1058 52.6838 58.8775 50.0221 59.9812C48.2972 60.6939 46.4857 61.1093 44.6782 61.5451C42.7677 62.0053 40.8158 62.2049 38.8681 62.4248C36.7883 62.661 34.7044 62.8687 32.6246 63.0764C31.4444 63.1945 30.2601 63.2882 29.0799 63.3941C28.9643 63.4022 28.8529 63.4185 28.7374 63.4511C29.1954 63.5448 29.6576 63.5 30.1156 63.5122C32.5049 63.5896 34.8942 63.6303 37.2835 63.7199C39.8543 63.8176 42.421 63.9235 44.9795 64.1964C46.3041 64.3349 47.5421 64.791 48.7677 65.2635C50.8516 66.0658 52.7911 67.1247 54.5201 68.542C56.9836 70.558 58.4651 73.1686 59.2739 76.1865C59.8021 78.1454 60.0744 80.1451 60.1322 82.1611C60.2065 84.6943 59.7814 87.1176 58.1845 89.2232C56.8227 91.0192 55.2092 92.5221 53.179 93.5688C50.5503 94.925 47.769 95.8617 44.9093 96.607C43.2051 97.0509 41.4843 97.4338 39.7305 97.6292C38.1088 97.8084 36.4747 97.8492 34.8447 97.9021C31.5145 98.008 28.1844 98.0813 24.8543 98.0976C22.9767 98.1058 21.095 98.1668 19.2174 98.1709C13.0152 98.1872 6.80882 98.1831 0.606604 98.1913C0.412656 98.1913 0.218708 98.1913 0.00412656 98.1913H0ZM23.6411 63.6995C23.9547 63.5 24.2023 63.4307 24.4622 63.4307C24.8914 63.4307 25.3164 63.3656 25.7415 63.3167C28.3288 63.0072 30.8997 62.6243 33.4375 62.0338C35.736 61.4962 37.9808 60.8038 40.0648 59.6716C42.5366 58.3317 44.443 56.4623 45.615 53.9047C46.9396 51.0131 47.5049 47.9952 47.1789 44.8307C47.0015 43.0957 46.5476 41.4544 45.5242 39.9882C44.0551 37.8786 42.1322 36.278 39.8956 35.0236C38.0716 34.0014 36.1445 33.2886 34.0235 33.1339C31.2422 32.9343 28.4609 32.8406 25.6754 32.8406C22.9891 32.8406 20.2985 32.7918 17.6122 32.7429C14.9918 32.6981 12.3673 32.6614 9.74693 32.6289C9.57362 32.6289 9.38379 32.5718 9.22698 32.7022V97.1283C9.42919 97.226 9.61488 97.1894 9.7882 97.1853C12.5406 97.1364 15.293 97.0631 18.0454 97.0306C21.1445 96.9939 24.2435 96.9613 27.3426 96.8391C30.9492 96.6966 34.5558 96.5255 38.15 96.2282C39.7553 96.0938 41.2491 95.6621 42.6273 94.8313C44.1418 93.9149 45.5366 92.8601 46.7704 91.6016C47.5421 90.8156 48.2601 89.9848 48.7223 88.9788C49.7745 86.6859 50.3688 84.283 50.4059 81.762C50.4513 78.8907 49.7869 76.1824 48.4375 73.641C47.6122 72.0893 46.6095 70.6516 45.2312 69.5276C42.3921 67.2143 39.1734 65.6789 35.5297 65.0761C33.0909 64.6729 30.6521 64.2942 28.205 63.9398C27.0001 63.7647 25.7951 63.5651 24.5654 63.6995C24.2889 63.7321 24.0083 63.7036 23.6369 63.7036L23.6411 63.6995Z" fill="white"/>
<path d="M0 98.1913V31.8469C0.169189 31.7288 0.354884 31.7817 0.532326 31.7817C3.28887 31.7817 6.04128 31.7858 8.79782 31.7777C12.0784 31.7655 15.3632 31.7573 18.6438 31.7084C20.5915 31.6799 22.5351 31.6636 24.4829 31.6921C27.5489 31.7329 30.6191 31.7207 33.681 31.8836C36.1156 32.0139 38.5544 32.1686 40.952 32.6411C43.2174 33.0891 45.4458 33.6796 47.5751 34.5593C50.3316 35.6997 52.6466 37.4509 54.4912 39.7805C55.3371 40.8517 55.7498 42.1346 56.1872 43.389C57.0043 45.7389 57.1693 48.1499 56.8475 50.6099C56.6741 51.9376 56.4513 53.2449 55.8942 54.4789C54.7017 57.1058 52.6838 58.8775 50.0221 59.9812C48.2972 60.6939 46.4857 61.1093 44.6782 61.5451C42.7677 62.0053 40.8158 62.2049 38.8681 62.4248C36.7883 62.661 34.7044 62.8687 32.6246 63.0764C31.4444 63.1945 30.2601 63.2882 29.0799 63.3941C28.9643 63.4022 28.8529 63.4185 28.7374 63.4511C29.1954 63.5448 29.6576 63.5 30.1156 63.5122C32.5049 63.5896 34.8942 63.6303 37.2835 63.7199C39.8543 63.8176 42.421 63.9235 44.9795 64.1964C46.3041 64.3349 47.5421 64.791 48.7677 65.2635C50.8516 66.0658 52.7911 67.1247 54.5201 68.542C56.9836 70.558 58.4651 73.1686 59.2739 76.1865C59.8021 78.1454 60.0744 80.1451 60.1322 82.1611C60.2065 84.6943 59.7814 87.1176 58.1845 89.2232C56.8227 91.0192 55.2092 92.5221 53.179 93.5688C50.5503 94.925 47.769 95.8617 44.9093 96.607C43.2051 97.0509 41.4843 97.4338 39.7305 97.6292C38.1088 97.8084 36.4747 97.8492 34.8447 97.9021C31.5145 98.008 28.1844 98.0813 24.8543 98.0976C22.9767 98.1058 21.095 98.1668 19.2174 98.1709C13.0152 98.1872 6.80882 98.1831 0.606604 98.1913C0.412656 98.1913 0.218708 98.1913 0.00412656 98.1913H0ZM23.6411 63.6995C23.9547 63.5 24.2023 63.4307 24.4622 63.4307C24.8914 63.4307 25.3164 63.3656 25.7415 63.3167C28.3288 63.0072 30.8997 62.6243 33.4375 62.0338C35.736 61.4962 37.9808 60.8038 40.0648 59.6716C42.5366 58.3317 44.443 56.4623 45.615 53.9047C46.9396 51.0131 47.5049 47.9952 47.1789 44.8307C47.0015 43.0957 46.5476 41.4544 45.5242 39.9882C44.0551 37.8786 42.1322 36.278 39.8956 35.0236C38.0716 34.0014 36.1445 33.2886 34.0235 33.1339C31.2422 32.9343 28.4609 32.8406 25.6754 32.8406C22.9891 32.8406 20.2985 32.7918 17.6122 32.7429C14.9918 32.6981 12.3673 32.6614 9.74693 32.6289C9.57362 32.6289 9.38379 32.5718 9.22698 32.7022V97.1283C9.42919 97.226 9.61488 97.1894 9.7882 97.1853C12.5406 97.1364 15.293 97.0631 18.0454 97.0306C21.1445 96.9939 24.2435 96.9613 27.3426 96.8391C30.9492 96.6966 34.5558 96.5255 38.15 96.2282C39.7553 96.0938 41.2491 95.6621 42.6273 94.8313C44.1418 93.9149 45.5366 92.8601 46.7704 91.6016C47.5421 90.8156 48.2601 89.9848 48.7223 88.9788C49.7745 86.6859 50.3688 84.283 50.4059 81.762C50.4513 78.8907 49.7869 76.1824 48.4375 73.641C47.6122 72.0893 46.6095 70.6516 45.2312 69.5276C42.3921 67.2143 39.1734 65.6789 35.5297 65.0761C33.0909 64.6729 30.6521 64.2942 28.205 63.9398C27.0001 63.7647 25.7951 63.5651 24.5654 63.6995C24.2889 63.7321 24.0083 63.7036 23.6369 63.7036L23.6411 63.6995Z" fill="white" fill-opacity="0.2"/>
<path d="M120.522 30.8809C132.18 53.5047 143.833 76.1164 155.482 98.724C155.288 98.8462 155.119 98.8054 154.958 98.8054C151.508 98.8054 148.063 98.8014 144.613 98.8177C144.217 98.8177 144.039 98.6792 143.87 98.3452C141.667 93.9467 139.446 89.5523 137.235 85.1578C134.953 80.633 132.671 76.1083 130.389 71.5794C128.202 67.242 126.019 62.9086 123.832 58.5712C121.422 53.7817 119.012 48.9922 116.598 44.2068C116.511 44.0357 116.453 43.8443 116.251 43.6529C110.639 54.5474 105.064 65.4296 99.588 76.3567C99.7201 76.4707 99.8232 76.3852 99.9223 76.3485C102.279 75.4933 104.693 74.8416 107.181 74.4914C111.931 73.8194 116.552 74.1819 120.959 76.1938C122.845 77.0531 124.57 78.1487 126.031 79.6189C126.283 79.8714 126.506 80.1484 126.815 80.4946C126.295 80.4946 125.874 80.4946 125.453 80.4946C125.321 80.4946 125.247 80.409 125.164 80.3316C122.495 77.941 119.334 76.5155 115.83 75.8069C111.402 74.9109 107.078 75.4322 102.823 76.8169C101.478 77.2568 100.17 77.7944 98.8824 78.3767C98.5935 78.5071 98.4161 78.6904 98.2758 78.9673C95.1808 85.1089 92.0777 91.2465 88.9745 97.3841C88.8796 97.5714 88.7805 97.7588 88.6815 97.9583H87.1506C90.229 91.7474 93.2909 85.5773 96.3858 79.342C95.6265 79.5171 94.9456 79.7004 94.2565 79.8348C92.0859 80.2461 89.903 80.3194 87.7076 80.1321C83.2881 79.7493 79.178 78.393 75.3115 76.2834C75.1381 76.1897 74.9689 76.0838 74.7998 75.982C74.7461 75.9494 74.6925 75.9087 74.6141 75.8476C74.6058 75.367 74.5852 74.8702 74.6264 74.3774C74.808 74.3529 74.8947 74.471 75.002 74.5362C78.6663 76.7721 82.6155 78.2464 86.8906 78.8085C90.295 79.2565 93.6334 78.9673 96.848 77.6722C97.174 77.5418 97.3844 77.3586 97.5412 77.0409C99.4147 73.2411 101.301 69.4494 103.182 65.6536C106.186 59.5975 109.191 53.5373 112.195 47.4812C114.217 43.4085 116.239 39.3399 118.261 35.2672C118.933 33.911 119.602 32.5507 120.279 31.1945C120.328 31.0967 120.349 30.9745 120.526 30.8849L120.522 30.8809Z" fill="white"/>
<path d="M120.522 30.8809C132.18 53.5047 143.833 76.1164 155.482 98.724C155.288 98.8462 155.119 98.8054 154.958 98.8054C151.508 98.8054 148.063 98.8014 144.613 98.8177C144.217 98.8177 144.039 98.6792 143.87 98.3452C141.667 93.9467 139.446 89.5523 137.235 85.1578C134.953 80.633 132.671 76.1083 130.389 71.5794C128.202 67.242 126.019 62.9086 123.832 58.5712C121.422 53.7817 119.012 48.9922 116.598 44.2068C116.511 44.0357 116.453 43.8443 116.251 43.6529C110.639 54.5474 105.064 65.4296 99.588 76.3567C99.7201 76.4707 99.8232 76.3852 99.9223 76.3485C102.279 75.4933 104.693 74.8416 107.181 74.4914C111.931 73.8194 116.552 74.1819 120.959 76.1938C122.845 77.0531 124.57 78.1487 126.031 79.6189C126.283 79.8714 126.506 80.1484 126.815 80.4946C126.295 80.4946 125.874 80.4946 125.453 80.4946C125.321 80.4946 125.247 80.409 125.164 80.3316C122.495 77.941 119.334 76.5155 115.83 75.8069C111.402 74.9109 107.078 75.4322 102.823 76.8169C101.478 77.2568 100.17 77.7944 98.8824 78.3767C98.5935 78.5071 98.4161 78.6904 98.2758 78.9673C95.1808 85.1089 92.0777 91.2465 88.9745 97.3841C88.8796 97.5714 88.7805 97.7588 88.6815 97.9583H87.1506C90.229 91.7474 93.2909 85.5773 96.3858 79.342C95.6265 79.5171 94.9456 79.7004 94.2565 79.8348C92.0859 80.2461 89.903 80.3194 87.7076 80.1321C83.2881 79.7493 79.178 78.393 75.3115 76.2834C75.1381 76.1897 74.9689 76.0838 74.7998 75.982C74.7461 75.9494 74.6925 75.9087 74.6141 75.8476C74.6058 75.367 74.5852 74.8702 74.6264 74.3774C74.808 74.3529 74.8947 74.471 75.002 74.5362C78.6663 76.7721 82.6155 78.2464 86.8906 78.8085C90.295 79.2565 93.6334 78.9673 96.848 77.6722C97.174 77.5418 97.3844 77.3586 97.5412 77.0409C99.4147 73.2411 101.301 69.4494 103.182 65.6536C106.186 59.5975 109.191 53.5373 112.195 47.4812C114.217 43.4085 116.239 39.3399 118.261 35.2672C118.933 33.911 119.602 32.5507 120.279 31.1945C120.328 31.0967 120.349 30.9745 120.526 30.8849L120.522 30.8809Z" fill="white" fill-opacity="0.2"/>
<path d="M106.239 0.0285987H113.485C113.956 1.01012 114.422 1.99164 114.888 2.97724C115.219 3.6696 115.528 4.3701 115.875 5.05024C116.019 5.33941 116.015 5.58784 115.904 5.88108C115.313 7.43278 114.74 8.99262 114.17 10.5484C114.113 10.7072 113.997 10.862 114.038 11.0534C114.232 11.086 114.311 10.9394 114.41 10.8457C118.417 7.25765 122.601 3.87323 126.723 0.419578C127.07 0.130416 127.408 -0.00398292 127.871 8.97873e-05C129.851 0.024526 131.832 0.0123079 133.809 0.0123079C133.99 0.0123079 134.168 0.0123079 134.44 0.0123079C132.294 5.46566 130.165 10.8701 128.036 16.2705C128.349 16.1809 128.518 15.9651 128.708 15.7737C130.371 14.1242 132.026 12.4666 133.693 10.8172C136.474 8.05997 139.26 5.30683 142.045 2.5496C142.813 1.78801 143.576 1.02234 144.34 0.25667C144.48 0.114126 144.612 0.00416249 144.843 0.00416249C147.352 0.0123079 149.857 0.0123079 152.366 0.0123079C152.428 0.0123079 152.49 0.0326714 152.585 0.0448895C153.884 5.8037 155.184 11.5584 156.492 17.3498H152.452C152.147 15.8551 151.838 14.3482 151.532 12.8535C151.351 12.7721 151.181 12.8047 151.021 12.8047C147.554 12.8047 144.092 12.8047 140.626 12.7965C140.279 12.7965 140.052 12.8983 139.817 13.1427C138.575 14.446 137.308 15.7289 136.062 17.0321C135.814 17.2887 135.562 17.3905 135.203 17.3905C130.289 17.3783 125.37 17.3824 120.455 17.3824H119.865C120.682 15.3012 121.462 13.2812 122.267 11.2652C123.075 9.2492 123.806 7.20063 124.71 5.22944C120.872 8.67903 116.84 11.8842 112.928 15.2239C112.623 15.4845 112.326 15.5986 111.888 15.4804C111.187 13.7862 110.452 12.0675 109.759 10.3325C109.066 8.59757 108.195 6.93183 107.745 5.12355C106.218 9.20033 104.56 13.2405 102.975 17.3254H91.2638C90.9709 15.8388 90.682 14.3482 90.3931 12.8861C90.1951 12.8047 90.0465 12.8291 89.898 12.8291C86.5472 12.8291 83.2005 12.8291 79.8498 12.821C79.5238 12.821 79.2968 12.9228 79.0781 13.1509C77.8236 14.446 76.5527 15.7207 75.2982 17.0159C75.063 17.2561 74.8236 17.3661 74.4811 17.362C73.3752 17.3417 72.2693 17.358 71.1634 17.3539C71.0066 17.3539 70.8374 17.4068 70.6641 17.2684C70.7879 17.134 70.9075 17.0036 71.0313 16.8815C72.9873 14.9428 74.9433 13.0083 76.8993 11.0697C80.4935 7.50201 84.0878 3.93432 87.6696 0.358488C87.9089 0.122271 88.14 0.0123079 88.4825 0.0163806C90.7934 0.0326714 93.1043 0.024526 95.411 0.024526C95.572 0.024526 95.7412 -0.00398291 95.9475 0.0774712C97.1813 5.51861 98.4234 10.9842 99.6655 16.4497C99.6944 16.4538 99.7233 16.462 99.7522 16.466C101.91 10.9964 104.064 5.52675 106.231 0.0326714L106.239 0.0285987ZM151.054 10.3977C150.554 7.93779 150.071 5.56748 149.572 3.10756C147.175 5.58377 144.864 7.97445 142.52 10.3977H151.054ZM89.9062 10.4262C89.4894 8.08034 89.0809 5.79962 88.6559 3.42931C86.3326 5.78333 84.0712 8.08034 81.7562 10.4262H89.9021H89.9062Z" fill="white"/>
<path d="M106.239 0.0285987H113.485C113.956 1.01012 114.422 1.99164 114.888 2.97724C115.219 3.6696 115.528 4.3701 115.875 5.05024C116.019 5.33941 116.015 5.58784 115.904 5.88108C115.313 7.43278 114.74 8.99262 114.17 10.5484C114.113 10.7072 113.997 10.862 114.038 11.0534C114.232 11.086 114.311 10.9394 114.41 10.8457C118.417 7.25765 122.601 3.87323 126.723 0.419578C127.07 0.130416 127.408 -0.00398292 127.871 8.97873e-05C129.851 0.024526 131.832 0.0123079 133.809 0.0123079C133.99 0.0123079 134.168 0.0123079 134.44 0.0123079C132.294 5.46566 130.165 10.8701 128.036 16.2705C128.349 16.1809 128.518 15.9651 128.708 15.7737C130.371 14.1242 132.026 12.4666 133.693 10.8172C136.474 8.05997 139.26 5.30683 142.045 2.5496C142.813 1.78801 143.576 1.02234 144.34 0.25667C144.48 0.114126 144.612 0.00416249 144.843 0.00416249C147.352 0.0123079 149.857 0.0123079 152.366 0.0123079C152.428 0.0123079 152.49 0.0326714 152.585 0.0448895C153.884 5.8037 155.184 11.5584 156.492 17.3498H152.452C152.147 15.8551 151.838 14.3482 151.532 12.8535C151.351 12.7721 151.181 12.8047 151.021 12.8047C147.554 12.8047 144.092 12.8047 140.626 12.7965C140.279 12.7965 140.052 12.8983 139.817 13.1427C138.575 14.446 137.308 15.7289 136.062 17.0321C135.814 17.2887 135.562 17.3905 135.203 17.3905C130.289 17.3783 125.37 17.3824 120.455 17.3824H119.865C120.682 15.3012 121.462 13.2812 122.267 11.2652C123.075 9.2492 123.806 7.20063 124.71 5.22944C120.872 8.67903 116.84 11.8842 112.928 15.2239C112.623 15.4845 112.326 15.5986 111.888 15.4804C111.187 13.7862 110.452 12.0675 109.759 10.3325C109.066 8.59757 108.195 6.93183 107.745 5.12355C106.218 9.20033 104.56 13.2405 102.975 17.3254H91.2638C90.9709 15.8388 90.682 14.3482 90.3931 12.8861C90.1951 12.8047 90.0465 12.8291 89.898 12.8291C86.5472 12.8291 83.2005 12.8291 79.8498 12.821C79.5238 12.821 79.2968 12.9228 79.0781 13.1509C77.8236 14.446 76.5527 15.7207 75.2982 17.0159C75.063 17.2561 74.8236 17.3661 74.4811 17.362C73.3752 17.3417 72.2693 17.358 71.1634 17.3539C71.0066 17.3539 70.8374 17.4068 70.6641 17.2684C70.7879 17.134 70.9075 17.0036 71.0313 16.8815C72.9873 14.9428 74.9433 13.0083 76.8993 11.0697C80.4935 7.50201 84.0878 3.93432 87.6696 0.358488C87.9089 0.122271 88.14 0.0123079 88.4825 0.0163806C90.7934 0.0326714 93.1043 0.024526 95.411 0.024526C95.572 0.024526 95.7412 -0.00398291 95.9475 0.0774712C97.1813 5.51861 98.4234 10.9842 99.6655 16.4497C99.6944 16.4538 99.7233 16.462 99.7522 16.466C101.91 10.9964 104.064 5.52675 106.231 0.0326714L106.239 0.0285987ZM151.054 10.3977C150.554 7.93779 150.071 5.56748 149.572 3.10756C147.175 5.58377 144.864 7.97445 142.52 10.3977H151.054ZM89.9062 10.4262C89.4894 8.08034 89.0809 5.79962 88.6559 3.42931C86.3326 5.78333 84.0712 8.08034 81.7562 10.4262H89.9021H89.9062Z" fill="white" fill-opacity="0.2"/>
<path d="M167.317 31.9568C167.499 31.8753 167.647 31.9038 167.796 31.9038C171.18 31.9038 174.559 31.9079 177.943 31.8916C178.318 31.8916 178.537 32.0138 178.752 32.3111C185.779 42.053 192.815 51.7868 199.847 61.5205C202.067 64.5954 204.287 67.6662 206.507 70.7411C206.602 70.8715 206.672 71.0221 206.829 71.1158C207.039 70.9244 207.163 70.676 207.316 70.4479C212.709 62.4613 218.094 54.4748 223.484 46.4841C226.624 41.8249 229.764 37.1658 232.913 32.5107C233.408 31.7776 233.148 31.912 234.093 31.9038C234.25 31.9038 234.419 31.8549 234.601 31.9934C234.27 32.4944 233.944 32.9953 233.61 33.4962C228.881 40.6072 224.152 47.7181 219.419 54.8291C215.367 60.9218 211.323 67.0146 207.262 73.0992C207.085 73.368 207.052 73.6287 207.052 73.926C207.052 81.9166 207.052 89.9114 207.052 97.902C207.052 98.1097 207.089 98.3215 206.998 98.5659H197.449C197.342 98.3459 197.387 98.1301 197.387 97.9224C197.387 89.948 197.383 81.9696 197.387 73.9952C197.387 73.6205 197.297 73.3151 197.07 73.0096C188.222 60.8363 179.379 48.6549 170.536 36.4734C169.545 35.1131 168.555 33.7488 167.569 32.3885C167.474 32.2581 167.354 32.14 167.305 31.9568H167.317Z" fill="white"/>
<path d="M167.317 31.9568C167.499 31.8753 167.647 31.9038 167.796 31.9038C171.18 31.9038 174.559 31.9079 177.943 31.8916C178.318 31.8916 178.537 32.0138 178.752 32.3111C185.779 42.053 192.815 51.7868 199.847 61.5205C202.067 64.5954 204.287 67.6662 206.507 70.7411C206.602 70.8715 206.672 71.0221 206.829 71.1158C207.039 70.9244 207.163 70.676 207.316 70.4479C212.709 62.4613 218.094 54.4748 223.484 46.4841C226.624 41.8249 229.764 37.1658 232.913 32.5107C233.408 31.7776 233.148 31.912 234.093 31.9038C234.25 31.9038 234.419 31.8549 234.601 31.9934C234.27 32.4944 233.944 32.9953 233.61 33.4962C228.881 40.6072 224.152 47.7181 219.419 54.8291C215.367 60.9218 211.323 67.0146 207.262 73.0992C207.085 73.368 207.052 73.6287 207.052 73.926C207.052 81.9166 207.052 89.9114 207.052 97.902C207.052 98.1097 207.089 98.3215 206.998 98.5659H197.449C197.342 98.3459 197.387 98.1301 197.387 97.9224C197.387 89.948 197.383 81.9696 197.387 73.9952C197.387 73.6205 197.297 73.3151 197.07 73.0096C188.222 60.8363 179.379 48.6549 170.536 36.4734C169.545 35.1131 168.555 33.7488 167.569 32.3885C167.474 32.2581 167.354 32.14 167.305 31.9568H167.317Z" fill="white" fill-opacity="0.2"/>
<path d="M49.7422 17.2656C51.0544 13.9504 52.3584 10.6556 53.6665 7.35259H57.2154C56.291 9.68625 55.3832 11.9914 54.4795 14.268C54.5414 14.3699 54.6115 14.3617 54.6734 14.3617C56.65 14.3414 58.6308 14.4228 60.6074 14.268C61.7298 14.1784 62.8192 13.9626 63.8633 13.5105C64.7051 13.144 65.4107 12.6145 65.8812 11.8448C66.9252 10.1342 67.7629 8.33004 68.027 6.33441C68.2415 4.73384 67.4616 3.60163 66.0751 3.10476C65.3695 2.85225 64.6391 2.73822 63.8922 2.73822C61.3007 2.73822 58.7133 2.73822 56.1218 2.73822C55.9403 2.73822 55.7628 2.73822 55.4987 2.73822C55.8577 1.81371 56.2002 0.929934 56.5386 0.0705936C56.7202 -0.0312241 56.8853 0.00950298 57.0503 0.00543027C61.0407 0.00543027 65.0352 -0.00678784 69.0256 0.00543027C70.4162 0.00950298 71.7863 0.196847 73.0985 0.685572C74.5387 1.2191 75.6528 2.10287 76.1604 3.58941C76.507 4.60351 76.4782 5.64205 76.2471 6.67245C75.6982 9.13236 74.4892 11.242 72.7601 13.0788C71.32 14.6102 69.6074 15.7424 67.6184 16.4347C66.4506 16.842 65.2292 17.0416 63.9994 17.1841C62.7532 17.3307 61.507 17.3511 60.2525 17.3429C56.9719 17.3144 53.6872 17.3348 50.4024 17.3307C50.2085 17.3307 50.0063 17.3674 49.7422 17.2574V17.2656Z" fill="white"/>
<path d="M49.7422 17.2656C51.0544 13.9504 52.3584 10.6556 53.6665 7.35259H57.2154C56.291 9.68625 55.3832 11.9914 54.4795 14.268C54.5414 14.3699 54.6115 14.3617 54.6734 14.3617C56.65 14.3414 58.6308 14.4228 60.6074 14.268C61.7298 14.1784 62.8192 13.9626 63.8633 13.5105C64.7051 13.144 65.4107 12.6145 65.8812 11.8448C66.9252 10.1342 67.7629 8.33004 68.027 6.33441C68.2415 4.73384 67.4616 3.60163 66.0751 3.10476C65.3695 2.85225 64.6391 2.73822 63.8922 2.73822C61.3007 2.73822 58.7133 2.73822 56.1218 2.73822C55.9403 2.73822 55.7628 2.73822 55.4987 2.73822C55.8577 1.81371 56.2002 0.929934 56.5386 0.0705936C56.7202 -0.0312241 56.8853 0.00950298 57.0503 0.00543027C61.0407 0.00543027 65.0352 -0.00678784 69.0256 0.00543027C70.4162 0.00950298 71.7863 0.196847 73.0985 0.685572C74.5387 1.2191 75.6528 2.10287 76.1604 3.58941C76.507 4.60351 76.4782 5.64205 76.2471 6.67245C75.6982 9.13236 74.4892 11.242 72.7601 13.0788C71.32 14.6102 69.6074 15.7424 67.6184 16.4347C66.4506 16.842 65.2292 17.0416 63.9994 17.1841C62.7532 17.3307 61.507 17.3511 60.2525 17.3429C56.9719 17.3144 53.6872 17.3348 50.4024 17.3307C50.2085 17.3307 50.0063 17.3674 49.7422 17.2574V17.2656Z" fill="white" fill-opacity="0.2"/>
<path d="M183.682 0.108515C183.051 1.89643 182.308 3.61919 181.648 5.3623H178.099C178.442 4.47038 178.776 3.61104 179.102 2.76392C178.974 2.60916 178.834 2.66617 178.714 2.6621C177.245 2.65803 175.776 2.62137 174.311 2.66617C170.667 2.78021 168.018 4.46631 166.405 7.69189C165.794 8.90963 165.369 10.1885 165.398 11.5773C165.418 12.6158 165.86 13.3774 166.846 13.8132C167.733 14.2082 168.67 14.3671 169.623 14.4607C171.414 14.6399 173.213 14.534 175.013 14.5585C175.937 14.5707 176.857 14.5585 177.868 14.5585C177.505 15.5033 177.162 16.4034 176.836 17.2668C176.618 17.3768 176.432 17.3401 176.255 17.3401C172.842 17.3401 169.425 17.3564 166.013 17.3361C164.25 17.3238 162.484 17.2628 160.768 16.8025C158.849 16.2894 157.586 15.1205 157.206 13.1656C156.938 11.7809 157.103 10.4125 157.582 9.08069C158.502 6.53524 159.996 4.38893 162.245 2.81279C164.098 1.50953 166.178 0.719421 168.41 0.299932C169.516 0.092224 170.63 0.0189153 171.753 0.0189153C175.512 0.022988 179.275 0.0189153 183.035 0.0189153C183.212 0.0189153 183.398 -0.0136663 183.691 0.0962967L183.682 0.108515Z" fill="white"/>
<path d="M183.682 0.108515C183.051 1.89643 182.308 3.61919 181.648 5.3623H178.099C178.442 4.47038 178.776 3.61104 179.102 2.76392C178.974 2.60916 178.834 2.66617 178.714 2.6621C177.245 2.65803 175.776 2.62137 174.311 2.66617C170.667 2.78021 168.018 4.46631 166.405 7.69189C165.794 8.90963 165.369 10.1885 165.398 11.5773C165.418 12.6158 165.86 13.3774 166.846 13.8132C167.733 14.2082 168.67 14.3671 169.623 14.4607C171.414 14.6399 173.213 14.534 175.013 14.5585C175.937 14.5707 176.857 14.5585 177.868 14.5585C177.505 15.5033 177.162 16.4034 176.836 17.2668C176.618 17.3768 176.432 17.3401 176.255 17.3401C172.842 17.3401 169.425 17.3564 166.013 17.3361C164.25 17.3238 162.484 17.2628 160.768 16.8025C158.849 16.2894 157.586 15.1205 157.206 13.1656C156.938 11.7809 157.103 10.4125 157.582 9.08069C158.502 6.53524 159.996 4.38893 162.245 2.81279C164.098 1.50953 166.178 0.719421 168.41 0.299932C169.516 0.092224 170.63 0.0189153 171.753 0.0189153C175.512 0.022988 179.275 0.0189153 183.035 0.0189153C183.212 0.0189153 183.398 -0.0136663 183.691 0.0962967L183.682 0.108515Z" fill="white" fill-opacity="0.2"/>
<path d="M57.3062 119.237C57.6817 119.335 57.983 119.4 58.2801 119.49C58.8826 119.673 59.452 119.921 59.9183 120.357C60.9376 121.306 60.8963 122.87 59.8152 123.754C58.9981 124.422 58.016 124.682 56.9967 124.837C56.1343 124.972 55.2636 125.025 54.3846 125.02C51.9623 125.016 49.5359 125.02 47.1136 125.02H46.5854C46.4822 124.63 46.4451 114.867 46.5359 113.931C46.6721 113.808 46.8413 113.861 46.9981 113.861C49.4534 113.861 51.9128 113.849 54.3681 113.861C55.408 113.865 56.4396 113.979 57.4383 114.301C58.0696 114.505 58.6639 114.774 59.1384 115.254C59.9555 116.085 59.9596 117.36 59.1549 118.203C58.6639 118.716 58.0366 118.989 57.3062 119.233V119.237ZM48.3268 124.047C48.9293 124.047 49.474 124.051 50.0146 124.047C51.8922 124.023 53.7739 124.116 55.6515 123.966C56.4438 123.9 57.2237 123.782 57.9293 123.391C58.5029 123.074 58.8289 122.601 58.8248 121.929C58.8207 121.253 58.474 120.797 57.8922 120.492C57.6157 120.345 57.3227 120.239 57.0174 120.162C56.2168 119.954 55.3956 119.873 54.5703 119.869C52.6556 119.869 50.745 119.869 48.8303 119.869C48.6693 119.869 48.5043 119.832 48.3227 119.926V124.051L48.3268 124.047ZM48.3268 118.793C48.4506 118.887 48.5538 118.867 48.6487 118.867C50.4603 118.867 52.2718 118.875 54.0834 118.863C54.657 118.858 55.2347 118.801 55.8 118.675C56.3654 118.549 56.9183 118.386 57.3722 118.007C58.1233 117.388 58.1315 116.35 57.4011 115.71C57.1494 115.49 56.8523 115.356 56.5428 115.242C55.8413 114.985 55.1109 114.888 54.364 114.863C52.5029 114.798 50.6418 114.847 48.7807 114.835C48.6363 114.835 48.4836 114.802 48.3268 114.92V118.793Z" fill="white"/>
<path d="M57.3062 119.237C57.6817 119.335 57.983 119.4 58.2801 119.49C58.8826 119.673 59.452 119.921 59.9183 120.357C60.9376 121.306 60.8963 122.87 59.8152 123.754C58.9981 124.422 58.016 124.682 56.9967 124.837C56.1343 124.972 55.2636 125.025 54.3846 125.02C51.9623 125.016 49.5359 125.02 47.1136 125.02H46.5854C46.4822 124.63 46.4451 114.867 46.5359 113.931C46.6721 113.808 46.8413 113.861 46.9981 113.861C49.4534 113.861 51.9128 113.849 54.3681 113.861C55.408 113.865 56.4396 113.979 57.4383 114.301C58.0696 114.505 58.6639 114.774 59.1384 115.254C59.9555 116.085 59.9596 117.36 59.1549 118.203C58.6639 118.716 58.0366 118.989 57.3062 119.233V119.237ZM48.3268 124.047C48.9293 124.047 49.474 124.051 50.0146 124.047C51.8922 124.023 53.7739 124.116 55.6515 123.966C56.4438 123.9 57.2237 123.782 57.9293 123.391C58.5029 123.074 58.8289 122.601 58.8248 121.929C58.8207 121.253 58.474 120.797 57.8922 120.492C57.6157 120.345 57.3227 120.239 57.0174 120.162C56.2168 119.954 55.3956 119.873 54.5703 119.869C52.6556 119.869 50.745 119.869 48.8303 119.869C48.6693 119.869 48.5043 119.832 48.3227 119.926V124.051L48.3268 124.047ZM48.3268 118.793C48.4506 118.887 48.5538 118.867 48.6487 118.867C50.4603 118.867 52.2718 118.875 54.0834 118.863C54.657 118.858 55.2347 118.801 55.8 118.675C56.3654 118.549 56.9183 118.386 57.3722 118.007C58.1233 117.388 58.1315 116.35 57.4011 115.71C57.1494 115.49 56.8523 115.356 56.5428 115.242C55.8413 114.985 55.1109 114.888 54.364 114.863C52.5029 114.798 50.6418 114.847 48.7807 114.835C48.6363 114.835 48.4836 114.802 48.3268 114.92V118.793Z" fill="white" fill-opacity="0.2"/>
<path d="M117.416 125H115.518C114.85 124.023 114.181 123.037 113.517 122.068C113.343 121.986 113.178 122.019 113.013 122.019C110.207 122.019 107.405 122.023 104.599 122.011C104.248 122.011 104.03 122.104 103.836 122.406C103.332 123.188 102.788 123.945 102.28 124.723C102.136 124.943 101.979 125.033 101.719 125.02C101.244 125 100.774 125.016 100.254 125.016C100.324 124.772 100.456 124.625 100.563 124.471C102.895 121.098 105.235 117.73 107.554 114.35C107.818 113.967 108.09 113.784 108.561 113.845C108.932 113.894 109.357 113.739 109.683 113.906C110.009 114.073 110.149 114.476 110.364 114.786C112.588 117.995 114.808 121.204 117.032 124.414C117.152 124.585 117.264 124.76 117.425 125.004L117.416 125ZM112.815 121.025C111.453 119.017 110.149 117.087 108.8 115.095C107.455 117.083 106.138 119.029 104.785 121.025H112.811H112.815Z" fill="white"/>
<path d="M117.416 125H115.518C114.85 124.023 114.181 123.037 113.517 122.068C113.343 121.986 113.178 122.019 113.013 122.019C110.207 122.019 107.405 122.023 104.599 122.011C104.248 122.011 104.03 122.104 103.836 122.406C103.332 123.188 102.788 123.945 102.28 124.723C102.136 124.943 101.979 125.033 101.719 125.02C101.244 125 100.774 125.016 100.254 125.016C100.324 124.772 100.456 124.625 100.563 124.471C102.895 121.098 105.235 117.73 107.554 114.35C107.818 113.967 108.09 113.784 108.561 113.845C108.932 113.894 109.357 113.739 109.683 113.906C110.009 114.073 110.149 114.476 110.364 114.786C112.588 117.995 114.808 121.204 117.032 124.414C117.152 124.585 117.264 124.76 117.425 125.004L117.416 125ZM112.815 121.025C111.453 119.017 110.149 117.087 108.8 115.095C107.455 117.083 106.138 119.029 104.785 121.025H112.811H112.815Z" fill="white" fill-opacity="0.2"/>
<path d="M149.758 124.995H147.91C147.753 124.771 147.576 124.519 147.402 124.266C146.961 123.619 146.523 122.967 146.086 122.315C145.974 122.148 145.867 122.018 145.624 122.018C142.607 122.03 139.586 122.03 136.57 122.038C136.553 122.038 136.537 122.047 136.487 122.063C135.906 122.918 135.299 123.786 134.721 124.673C134.548 124.938 134.358 125.044 134.04 125.028C133.599 124.999 133.149 125.02 132.712 125.02C132.633 124.849 132.765 124.767 132.831 124.669C135.245 121.175 137.664 117.685 140.069 114.186C140.234 113.942 140.42 113.832 140.717 113.852C141.047 113.873 141.377 113.873 141.708 113.852C142.005 113.832 142.182 113.95 142.351 114.194C143.952 116.524 145.562 118.845 147.171 121.167C147.943 122.283 148.714 123.395 149.486 124.511C149.585 124.653 149.705 124.787 149.758 124.995ZM145.215 121.028C143.853 119.021 142.541 117.086 141.2 115.103C139.846 117.102 138.534 119.037 137.189 121.028H145.219H145.215Z" fill="white"/>
<path d="M149.758 124.995H147.91C147.753 124.771 147.576 124.519 147.402 124.266C146.961 123.619 146.523 122.967 146.086 122.315C145.974 122.148 145.867 122.018 145.624 122.018C142.607 122.03 139.586 122.03 136.57 122.038C136.553 122.038 136.537 122.047 136.487 122.063C135.906 122.918 135.299 123.786 134.721 124.673C134.548 124.938 134.358 125.044 134.04 125.028C133.599 124.999 133.149 125.02 132.712 125.02C132.633 124.849 132.765 124.767 132.831 124.669C135.245 121.175 137.664 117.685 140.069 114.186C140.234 113.942 140.42 113.832 140.717 113.852C141.047 113.873 141.377 113.873 141.708 113.852C142.005 113.832 142.182 113.95 142.351 114.194C143.952 116.524 145.562 118.845 147.171 121.167C147.943 122.283 148.714 123.395 149.486 124.511C149.585 124.653 149.705 124.787 149.758 124.995ZM145.215 121.028C143.853 119.021 142.541 117.086 141.2 115.103C139.846 117.102 138.534 119.037 137.189 121.028H145.219H145.215Z" fill="white" fill-opacity="0.2"/>
<path d="M98.3923 122.711C98.772 122.959 99.1434 123.167 99.49 123.452C99.3497 123.66 99.1351 123.753 98.9453 123.863C97.8022 124.523 96.5436 124.845 95.2438 125.004C93.329 125.24 91.4226 125.162 89.5574 124.637C88.0759 124.222 86.7472 123.542 85.6743 122.409C84.0319 120.67 84.0525 117.876 86.0044 116.117C87.2259 115.017 88.6784 114.406 90.263 114.077C92.8297 113.539 95.3717 113.624 97.8641 114.488C98.2231 114.614 98.5615 114.777 98.8916 114.964C99.0897 115.078 99.2795 115.205 99.5189 115.355C99.1722 115.693 98.7678 115.873 98.413 116.154C97.5381 115.596 96.6014 115.213 95.5821 115.034C93.2836 114.63 91.047 114.765 88.926 115.795C88.1791 116.158 87.5271 116.655 87.0113 117.31C85.9342 118.687 86.0292 120.544 87.23 121.823C88.1708 122.829 89.3552 123.411 90.6715 123.729C92.5491 124.181 94.4267 124.169 96.296 123.668C97.0471 123.464 97.7403 123.126 98.3841 122.707L98.3923 122.711Z" fill="white"/>
<path d="M98.3923 122.711C98.772 122.959 99.1434 123.167 99.49 123.452C99.3497 123.66 99.1351 123.753 98.9453 123.863C97.8022 124.523 96.5436 124.845 95.2438 125.004C93.329 125.24 91.4226 125.162 89.5574 124.637C88.0759 124.222 86.7472 123.542 85.6743 122.409C84.0319 120.67 84.0525 117.876 86.0044 116.117C87.2259 115.017 88.6784 114.406 90.263 114.077C92.8297 113.539 95.3717 113.624 97.8641 114.488C98.2231 114.614 98.5615 114.777 98.8916 114.964C99.0897 115.078 99.2795 115.205 99.5189 115.355C99.1722 115.693 98.7678 115.873 98.413 116.154C97.5381 115.596 96.6014 115.213 95.5821 115.034C93.2836 114.63 91.047 114.765 88.926 115.795C88.1791 116.158 87.5271 116.655 87.0113 117.31C85.9342 118.687 86.0292 120.544 87.23 121.823C88.1708 122.829 89.3552 123.411 90.6715 123.729C92.5491 124.181 94.4267 124.169 96.296 123.668C97.0471 123.464 97.7403 123.126 98.3841 122.707L98.3923 122.711Z" fill="white" fill-opacity="0.2"/>
<path d="M125.056 123.527C125.493 122.879 125.906 122.276 126.31 121.67C127.973 119.189 129.644 116.713 131.295 114.225C131.481 113.944 131.687 113.825 132.021 113.854C132.442 113.891 132.871 113.813 133.292 113.899C133.284 114.094 133.16 114.212 133.074 114.347C130.783 117.764 128.485 121.177 126.211 124.602C125.992 124.932 125.753 125.062 125.369 125.03C125.076 125.001 124.775 125.013 124.478 125.03C124.243 125.042 124.082 124.972 123.946 124.769C121.569 121.213 119.188 117.662 116.811 114.107C116.778 114.054 116.753 113.992 116.695 113.87C117.331 113.87 117.913 113.866 118.499 113.87C118.672 113.87 118.73 114.033 118.808 114.155C120.409 116.558 122.01 118.965 123.611 121.368C124.082 122.073 124.552 122.777 125.056 123.531V123.527Z" fill="white"/>
<path d="M125.056 123.527C125.493 122.879 125.906 122.276 126.31 121.67C127.973 119.189 129.644 116.713 131.295 114.225C131.481 113.944 131.687 113.825 132.021 113.854C132.442 113.891 132.871 113.813 133.292 113.899C133.284 114.094 133.16 114.212 133.074 114.347C130.783 117.764 128.485 121.177 126.211 124.602C125.992 124.932 125.753 125.062 125.369 125.03C125.076 125.001 124.775 125.013 124.478 125.03C124.243 125.042 124.082 124.972 123.946 124.769C121.569 121.213 119.188 117.662 116.811 114.107C116.778 114.054 116.753 113.992 116.695 113.87C117.331 113.87 117.913 113.866 118.499 113.87C118.672 113.87 118.73 114.033 118.808 114.155C120.409 116.558 122.01 118.965 123.611 121.368C124.082 122.073 124.552 122.777 125.056 123.531V123.527Z" fill="white" fill-opacity="0.2"/>
<path d="M61.6172 113.862C62.3022 113.862 62.8717 113.853 63.4452 113.866C63.6475 113.87 63.7382 114.057 63.8579 114.187C65.5044 115.963 67.1468 117.739 68.7933 119.519C68.9583 119.698 69.1316 119.873 69.3256 120.081C69.9776 119.38 70.609 118.704 71.2403 118.02C72.4288 116.737 73.6213 115.454 74.8015 114.159C75.0079 113.931 75.2224 113.829 75.5319 113.853C75.9405 113.886 76.3531 113.825 76.7823 113.894C76.7369 114.155 76.5306 114.281 76.382 114.44C74.4178 116.57 72.4577 118.696 70.481 120.814C70.2376 121.074 70.1468 121.335 70.155 121.681C70.1715 122.769 70.1633 123.86 70.1633 125.004C69.5732 125.037 69.0079 125.033 68.4219 125.004C68.3559 124.764 68.3847 124.536 68.3847 124.312C68.3806 123.4 68.3724 122.492 68.3889 121.579C68.393 121.298 68.3105 121.095 68.1206 120.887C66.1028 118.72 64.0972 116.541 62.0876 114.371C61.9597 114.232 61.8318 114.09 61.6254 113.866L61.6172 113.862Z" fill="white"/>
<path d="M61.6172 113.862C62.3022 113.862 62.8717 113.853 63.4452 113.866C63.6475 113.87 63.7382 114.057 63.8579 114.187C65.5044 115.963 67.1468 117.739 68.7933 119.519C68.9583 119.698 69.1316 119.873 69.3256 120.081C69.9776 119.38 70.609 118.704 71.2403 118.02C72.4288 116.737 73.6213 115.454 74.8015 114.159C75.0079 113.931 75.2224 113.829 75.5319 113.853C75.9405 113.886 76.3531 113.825 76.7823 113.894C76.7369 114.155 76.5306 114.281 76.382 114.44C74.4178 116.57 72.4577 118.696 70.481 120.814C70.2376 121.074 70.1468 121.335 70.155 121.681C70.1715 122.769 70.1633 123.86 70.1633 125.004C69.5732 125.037 69.0079 125.033 68.4219 125.004C68.3559 124.764 68.3847 124.536 68.3847 124.312C68.3806 123.4 68.3724 122.492 68.3889 121.579C68.393 121.298 68.3105 121.095 68.1206 120.887C66.1028 118.72 64.0972 116.541 62.0876 114.371C61.9597 114.232 61.8318 114.09 61.6254 113.866L61.6172 113.862Z" fill="white" fill-opacity="0.2"/>
<path d="M166.832 113.883H168.603C168.627 114.539 168.611 115.199 168.615 115.859C168.615 116.526 168.615 117.194 168.615 117.858V123.963H178.044C178.081 124.338 178.073 124.652 178.048 124.99H166.828V113.883H166.832Z" fill="white"/>
<path d="M166.832 113.883H168.603C168.627 114.539 168.611 115.199 168.615 115.859C168.615 116.526 168.615 117.194 168.615 117.858V123.963H178.044C178.081 124.338 178.073 124.652 178.048 124.99H166.828V113.883H166.832Z" fill="white" fill-opacity="0.2"/>
<path d="M154.382 123.985H163.803C163.89 124.331 163.869 124.636 163.824 124.979H152.641V113.889C153.218 113.823 153.771 113.86 154.382 113.86V123.985Z" fill="white"/>
<path d="M154.382 123.985H163.803C163.89 124.331 163.869 124.636 163.824 124.979H152.641V113.889C153.218 113.823 153.771 113.86 154.382 113.86V123.985Z" fill="white" fill-opacity="0.2"/>
<path d="M182.782 124.991C182.221 124.991 181.668 124.991 181.115 124.991C181.004 124.658 180.975 114.512 181.086 113.885C181.635 113.824 182.188 113.861 182.782 113.861V124.987V124.991Z" fill="white"/>
<path d="M182.782 124.991C182.221 124.991 181.668 124.991 181.115 124.991C181.004 124.658 180.975 114.512 181.086 113.885C181.635 113.824 182.188 113.861 182.782 113.861V124.987V124.991Z" fill="white" fill-opacity="0.2"/>
</g>
</mask>
<g mask="url(#mask0_1417_105)">
<g filter="url(#filter0_f_1417_105)">
<rect x="-18.0508" y="2.06934" width="269.742" height="123.276" fill="white"/>
</g>
</g>
<defs>
<filter id="filter0_f_1417_105" x="-67.0846" y="-46.9644" width="367.81" height="221.343" filterUnits="userSpaceOnUse" color-interpolation-filters="sRGB">
<feFlood flood-opacity="0" result="BackgroundImageFix"/>
<feBlend mode="normal" in="SourceGraphic" in2="BackgroundImageFix" result="shape"/>
<feGaussianBlur stdDeviation="24.5169" result="effect1_foregroundBlur_1417_105"/>
</filter>
<clipPath id="clip0_1417_105">
<rect width="234.603" height="125.122" fill="white"/>
</clipPath>
</defs>
</svg>
