<svg width="361" height="46" viewBox="0 0 361 46" fill="none" xmlns="http://www.w3.org/2000/svg">
<g opacity="0.4">
<mask id="path-1-inside-1_1325_549" fill="white">
<path d="M0.5 45.6011V0.271006H16.9721C21.9094 0.271006 26.0381 1.29253 29.358 3.33557C32.678 5.33606 35.1679 8.06012 36.8279 11.5078C38.4879 14.9128 39.3179 18.701 39.3179 22.8722C39.3179 27.4691 38.4028 31.47 36.5725 34.8751C34.7423 38.2802 32.1459 40.9191 28.7834 42.7919C25.4635 44.6647 21.5263 45.6011 16.9721 45.6011H0.5ZM30.4434 22.8722C30.4434 19.9353 29.9113 17.3602 28.8473 15.1469C27.7832 12.8911 26.2509 11.146 24.2504 9.91163C22.2499 8.63472 19.8238 7.99627 16.9721 7.99627H9.31064V37.8758H16.9721C19.8664 37.8758 22.3138 37.2374 24.3143 35.9605C26.3147 34.641 27.8257 32.8533 28.8473 30.5975C29.9113 28.299 30.4434 25.724 30.4434 22.8722Z"/>
<path d="M56.778 0.271006H65.7163L82.38 45.6011H73.3139L69.1002 34.3005H53.2665L49.1166 45.6011H40.0506L56.778 0.271006ZM67.504 28.1075L61.2472 9.40087L54.735 28.1075H67.504Z"/>
<path d="M124.318 45.6011V15.8492L112.698 38.0035H107.782L96.1625 15.8492V45.6011H87.3519V0.271006H96.801L110.208 26.0645L123.744 0.271006H133.129V45.6011H124.318Z"/>
<path d="M154.915 0.271006H163.853L180.517 45.6011H171.451L167.237 34.3005H151.404L147.254 45.6011H138.188L154.915 0.271006ZM165.641 28.1075L159.384 9.40087L152.872 28.1075H165.641Z"/>
<path d="M180.998 22.6168C180.998 19.8502 181.487 17.1474 182.466 14.5085C183.488 11.827 184.956 9.40087 186.872 7.23013C188.787 5.01683 191.128 3.27173 193.895 1.99483C196.661 0.675359 199.811 0.015625 203.344 0.015625C207.515 0.015625 211.111 0.93074 214.133 2.76097C217.198 4.5912 219.475 6.97475 220.965 9.91163L214.197 14.5723C213.431 12.8698 212.431 11.529 211.197 10.5501C209.962 9.52856 208.643 8.82626 207.238 8.44319C205.834 8.01756 204.45 7.80474 203.088 7.80474C200.875 7.80474 198.938 8.25165 197.278 9.14549C195.661 10.0393 194.299 11.2098 193.192 12.657C192.086 14.1041 191.256 15.7215 190.702 17.5092C190.191 19.2969 189.936 21.0845 189.936 22.8722C189.936 24.8727 190.255 26.8093 190.894 28.6821C191.532 30.5123 192.426 32.151 193.575 33.5982C194.767 35.0028 196.172 36.1307 197.789 36.982C199.449 37.7907 201.258 38.195 203.216 38.195C204.621 38.195 206.046 37.9609 207.494 37.4927C208.941 37.0245 210.281 36.2797 211.516 35.2582C212.75 34.2366 213.708 32.9172 214.389 31.2998L221.603 35.4497C220.709 37.7056 219.241 39.6209 217.198 41.1958C215.198 42.7706 212.942 43.9624 210.43 44.7711C207.919 45.5798 205.429 45.9842 202.961 45.9842C199.726 45.9842 196.768 45.3244 194.086 44.005C191.405 42.6429 189.085 40.8553 187.127 38.642C185.212 36.3861 183.701 33.8749 182.594 31.1082C181.53 28.299 180.998 25.4686 180.998 22.6168Z"/>
<path d="M279.369 33.9174C279.369 36.4712 278.71 38.6207 277.39 40.3658C276.071 42.0683 274.283 43.3665 272.027 44.2603C269.814 45.1542 267.388 45.6011 264.749 45.6011H242.85V0.271006H267.111C269.239 0.271006 271.069 0.845613 272.602 1.99483C274.177 3.10148 275.368 4.54864 276.177 6.3363C277.028 8.0814 277.454 9.91163 277.454 11.827C277.454 13.9977 276.901 16.062 275.794 18.02C274.687 19.9779 273.07 21.425 270.942 22.3614C273.538 23.1276 275.581 24.5109 277.071 26.5114C278.603 28.5119 279.369 30.9805 279.369 33.9174ZM270.495 32.2574C270.495 31.1082 270.261 30.0867 269.792 29.1929C269.324 28.2565 268.686 27.5329 267.877 27.0221C267.111 26.4688 266.217 26.1921 265.196 26.1921H251.66V38.1312H264.749C265.813 38.1312 266.77 37.8758 267.622 37.3651C268.516 36.8117 269.218 36.0882 269.729 35.1943C270.239 34.3005 270.495 33.3215 270.495 32.2574ZM251.66 7.80474V19.233H263.408C264.387 19.233 265.281 18.9989 266.089 18.5307C266.898 18.0625 267.537 17.4028 268.005 16.5515C268.516 15.7003 268.771 14.6787 268.771 13.487C268.771 12.3377 268.537 11.3375 268.069 10.4862C267.643 9.63497 267.047 8.97523 266.281 8.50703C265.557 8.03884 264.727 7.80474 263.791 7.80474H251.66Z"/>
<path d="M297.569 0.271006H306.507L323.171 45.6011H314.105L309.891 34.3005H294.058L289.908 45.6011H280.842L297.569 0.271006ZM308.295 28.1075L302.038 9.40087L295.526 28.1075H308.295Z"/>
<path d="M328.45 0.271006L339.623 21.5953L350.987 0.271006H360.5L344.028 29.7675V45.6011H335.281V29.6398L318.873 0.271006H328.45Z"/>
</mask>
<path d="M0.5 45.6011V0.271006H16.9721C21.9094 0.271006 26.0381 1.29253 29.358 3.33557C32.678 5.33606 35.1679 8.06012 36.8279 11.5078C38.4879 14.9128 39.3179 18.701 39.3179 22.8722C39.3179 27.4691 38.4028 31.47 36.5725 34.8751C34.7423 38.2802 32.1459 40.9191 28.7834 42.7919C25.4635 44.6647 21.5263 45.6011 16.9721 45.6011H0.5ZM30.4434 22.8722C30.4434 19.9353 29.9113 17.3602 28.8473 15.1469C27.7832 12.8911 26.2509 11.146 24.2504 9.91163C22.2499 8.63472 19.8238 7.99627 16.9721 7.99627H9.31064V37.8758H16.9721C19.8664 37.8758 22.3138 37.2374 24.3143 35.9605C26.3147 34.641 27.8257 32.8533 28.8473 30.5975C29.9113 28.299 30.4434 25.724 30.4434 22.8722Z" stroke="white" stroke-width="2" mask="url(#path-1-inside-1_1325_549)"/>
<path d="M56.778 0.271006H65.7163L82.38 45.6011H73.3139L69.1002 34.3005H53.2665L49.1166 45.6011H40.0506L56.778 0.271006ZM67.504 28.1075L61.2472 9.40087L54.735 28.1075H67.504Z" stroke="white" stroke-width="2" mask="url(#path-1-inside-1_1325_549)"/>
<path d="M124.318 45.6011V15.8492L112.698 38.0035H107.782L96.1625 15.8492V45.6011H87.3519V0.271006H96.801L110.208 26.0645L123.744 0.271006H133.129V45.6011H124.318Z" stroke="white" stroke-width="2" mask="url(#path-1-inside-1_1325_549)"/>
<path d="M154.915 0.271006H163.853L180.517 45.6011H171.451L167.237 34.3005H151.404L147.254 45.6011H138.188L154.915 0.271006ZM165.641 28.1075L159.384 9.40087L152.872 28.1075H165.641Z" stroke="white" stroke-width="2" mask="url(#path-1-inside-1_1325_549)"/>
<path d="M180.998 22.6168C180.998 19.8502 181.487 17.1474 182.466 14.5085C183.488 11.827 184.956 9.40087 186.872 7.23013C188.787 5.01683 191.128 3.27173 193.895 1.99483C196.661 0.675359 199.811 0.015625 203.344 0.015625C207.515 0.015625 211.111 0.93074 214.133 2.76097C217.198 4.5912 219.475 6.97475 220.965 9.91163L214.197 14.5723C213.431 12.8698 212.431 11.529 211.197 10.5501C209.962 9.52856 208.643 8.82626 207.238 8.44319C205.834 8.01756 204.45 7.80474 203.088 7.80474C200.875 7.80474 198.938 8.25165 197.278 9.14549C195.661 10.0393 194.299 11.2098 193.192 12.657C192.086 14.1041 191.256 15.7215 190.702 17.5092C190.191 19.2969 189.936 21.0845 189.936 22.8722C189.936 24.8727 190.255 26.8093 190.894 28.6821C191.532 30.5123 192.426 32.151 193.575 33.5982C194.767 35.0028 196.172 36.1307 197.789 36.982C199.449 37.7907 201.258 38.195 203.216 38.195C204.621 38.195 206.046 37.9609 207.494 37.4927C208.941 37.0245 210.281 36.2797 211.516 35.2582C212.75 34.2366 213.708 32.9172 214.389 31.2998L221.603 35.4497C220.709 37.7056 219.241 39.6209 217.198 41.1958C215.198 42.7706 212.942 43.9624 210.43 44.7711C207.919 45.5798 205.429 45.9842 202.961 45.9842C199.726 45.9842 196.768 45.3244 194.086 44.005C191.405 42.6429 189.085 40.8553 187.127 38.642C185.212 36.3861 183.701 33.8749 182.594 31.1082C181.53 28.299 180.998 25.4686 180.998 22.6168Z" stroke="white" stroke-width="2" mask="url(#path-1-inside-1_1325_549)"/>
<path d="M279.369 33.9174C279.369 36.4712 278.71 38.6207 277.39 40.3658C276.071 42.0683 274.283 43.3665 272.027 44.2603C269.814 45.1542 267.388 45.6011 264.749 45.6011H242.85V0.271006H267.111C269.239 0.271006 271.069 0.845613 272.602 1.99483C274.177 3.10148 275.368 4.54864 276.177 6.3363C277.028 8.0814 277.454 9.91163 277.454 11.827C277.454 13.9977 276.901 16.062 275.794 18.02C274.687 19.9779 273.07 21.425 270.942 22.3614C273.538 23.1276 275.581 24.5109 277.071 26.5114C278.603 28.5119 279.369 30.9805 279.369 33.9174ZM270.495 32.2574C270.495 31.1082 270.261 30.0867 269.792 29.1929C269.324 28.2565 268.686 27.5329 267.877 27.0221C267.111 26.4688 266.217 26.1921 265.196 26.1921H251.66V38.1312H264.749C265.813 38.1312 266.77 37.8758 267.622 37.3651C268.516 36.8117 269.218 36.0882 269.729 35.1943C270.239 34.3005 270.495 33.3215 270.495 32.2574ZM251.66 7.80474V19.233H263.408C264.387 19.233 265.281 18.9989 266.089 18.5307C266.898 18.0625 267.537 17.4028 268.005 16.5515C268.516 15.7003 268.771 14.6787 268.771 13.487C268.771 12.3377 268.537 11.3375 268.069 10.4862C267.643 9.63497 267.047 8.97523 266.281 8.50703C265.557 8.03884 264.727 7.80474 263.791 7.80474H251.66Z" stroke="white" stroke-width="2" mask="url(#path-1-inside-1_1325_549)"/>
<path d="M297.569 0.271006H306.507L323.171 45.6011H314.105L309.891 34.3005H294.058L289.908 45.6011H280.842L297.569 0.271006ZM308.295 28.1075L302.038 9.40087L295.526 28.1075H308.295Z" stroke="white" stroke-width="2" mask="url(#path-1-inside-1_1325_549)"/>
<path d="M328.45 0.271006L339.623 21.5953L350.987 0.271006H360.5L344.028 29.7675V45.6011H335.281V29.6398L318.873 0.271006H328.45Z" stroke="white" stroke-width="2" mask="url(#path-1-inside-1_1325_549)"/>
</g>
</svg>
