<svg width="193" height="103" viewBox="0 0 193 103" fill="none" xmlns="http://www.w3.org/2000/svg">
<mask id="mask0_1498_2542" style="mask-type:alpha" maskUnits="userSpaceOnUse" x="0" y="0" width="193" height="103">
<g clip-path="url(#clip0_1498_2542)">
<path d="M-0.000488281 80.7528V26.3968C0.138128 26.3 0.290268 26.3434 0.435647 26.3434C2.69408 26.3434 4.94914 26.3468 7.20758 26.3401C9.89538 26.3301 12.5866 26.3234 15.2744 26.2834C16.8702 26.26 18.4626 26.2467 20.0583 26.27C22.5704 26.3034 25.0857 26.2934 27.5944 26.4268C29.5891 26.5336 31.5872 26.6604 33.5515 27.0475C35.4076 27.4145 37.2333 27.8984 38.9778 28.6191C41.2363 29.5534 43.1329 30.9882 44.6442 32.8968C45.3373 33.7744 45.6754 34.8255 46.0337 35.8532C46.7032 37.7785 46.8384 39.7539 46.5747 41.7693C46.4327 42.8571 46.2501 43.9282 45.7937 44.9393C44.8166 47.0915 43.1634 48.543 40.9827 49.4472C39.5695 50.0312 38.0853 50.3715 36.6044 50.7286C35.0391 51.1056 33.4399 51.2691 31.8441 51.4493C30.1402 51.6428 28.4328 51.813 26.7288 51.9832C25.7619 52.0799 24.7916 52.1567 23.8247 52.2434C23.73 52.2501 23.6387 52.2635 23.5441 52.2902C23.9193 52.3669 24.298 52.3302 24.6733 52.3402C26.6308 52.4036 28.5883 52.437 30.5459 52.5104C32.6522 52.5905 34.7551 52.6772 36.8512 52.9008C37.9365 53.0142 38.9508 53.388 39.9549 53.775C41.6623 54.4324 43.2513 55.2999 44.6679 56.4611C46.6863 58.1128 47.9 60.2517 48.5627 62.7242C48.9954 64.3292 49.2186 65.9676 49.2659 67.6193C49.3267 69.6948 48.9785 71.6801 47.6701 73.4052C46.5544 74.8768 45.2325 76.108 43.5691 76.9656C41.4154 78.0767 39.1367 78.8442 36.7938 79.4548C35.3975 79.8185 33.9876 80.1322 32.5507 80.2923C31.2221 80.4392 29.8832 80.4725 28.5478 80.5159C25.8194 80.6027 23.091 80.6627 20.3626 80.6761C18.8243 80.6827 17.2826 80.7328 15.7443 80.7361C10.6628 80.7495 5.57798 80.7461 0.496503 80.7528C0.337601 80.7528 0.178699 80.7528 0.00289261 80.7528H-0.000488281ZM19.3686 52.4937C19.6256 52.3302 19.8284 52.2735 20.0414 52.2735C20.3931 52.2735 20.7413 52.2201 21.0895 52.18C23.2093 51.9265 25.3156 51.6128 27.3949 51.129C29.278 50.6885 31.1172 50.1213 32.8246 49.1936C34.8498 48.0958 36.4117 46.5643 37.3719 44.4688C38.4572 42.0997 38.9204 39.6271 38.6533 37.0344C38.5079 35.613 38.136 34.2683 37.2975 33.067C36.0939 31.3386 34.5184 30.0272 32.686 28.9995C31.1916 28.162 29.6128 27.578 27.875 27.4512C25.5963 27.2877 23.3175 27.211 21.0354 27.211C18.8345 27.211 16.6301 27.1709 14.4292 27.1309C12.2823 27.0942 10.132 27.0642 7.98518 27.0375C7.84318 27.0375 7.68766 26.9908 7.55919 27.0975V79.8819C7.72485 79.962 7.87699 79.932 8.01899 79.9286C10.274 79.8886 12.5291 79.8285 14.7842 79.8018C17.3232 79.7718 19.8623 79.7451 22.4013 79.645C25.3562 79.5282 28.3111 79.3881 31.2559 79.1445C32.571 79.0344 33.7949 78.6807 34.9241 78C36.1649 77.2492 37.3077 76.385 38.3186 75.3539C38.9508 74.7099 39.5391 74.0292 39.9177 73.205C40.7798 71.3264 41.2667 69.3577 41.2971 67.2923C41.3343 64.9399 40.79 62.7209 39.6844 60.6388C39.0083 59.3675 38.1867 58.1896 37.0575 57.2686C34.7314 55.3733 32.0943 54.1154 29.109 53.6215C27.1109 53.2912 25.1128 52.9809 23.1079 52.6906C22.1207 52.5471 21.1335 52.3836 20.126 52.4937C19.8994 52.5204 19.6695 52.497 19.3653 52.497L19.3686 52.4937Z" fill="white"/>
<path d="M-0.000488281 80.7528V26.3968C0.138128 26.3 0.290268 26.3434 0.435647 26.3434C2.69408 26.3434 4.94914 26.3468 7.20758 26.3401C9.89538 26.3301 12.5866 26.3234 15.2744 26.2834C16.8702 26.26 18.4626 26.2467 20.0583 26.27C22.5704 26.3034 25.0857 26.2934 27.5944 26.4268C29.5891 26.5336 31.5872 26.6604 33.5515 27.0475C35.4076 27.4145 37.2333 27.8984 38.9778 28.6191C41.2363 29.5534 43.1329 30.9882 44.6442 32.8968C45.3373 33.7744 45.6754 34.8255 46.0337 35.8532C46.7032 37.7785 46.8384 39.7539 46.5747 41.7693C46.4327 42.8571 46.2501 43.9282 45.7937 44.9393C44.8166 47.0915 43.1634 48.543 40.9827 49.4472C39.5695 50.0312 38.0853 50.3715 36.6044 50.7286C35.0391 51.1056 33.4399 51.2691 31.8441 51.4493C30.1402 51.6428 28.4328 51.813 26.7288 51.9832C25.7619 52.0799 24.7916 52.1567 23.8247 52.2434C23.73 52.2501 23.6387 52.2635 23.5441 52.2902C23.9193 52.3669 24.298 52.3302 24.6733 52.3402C26.6308 52.4036 28.5883 52.437 30.5459 52.5104C32.6522 52.5905 34.7551 52.6772 36.8512 52.9008C37.9365 53.0142 38.9508 53.388 39.9549 53.775C41.6623 54.4324 43.2513 55.2999 44.6679 56.4611C46.6863 58.1128 47.9 60.2517 48.5627 62.7242C48.9954 64.3292 49.2186 65.9676 49.2659 67.6193C49.3267 69.6948 48.9785 71.6801 47.6701 73.4052C46.5544 74.8768 45.2325 76.108 43.5691 76.9656C41.4154 78.0767 39.1367 78.8442 36.7938 79.4548C35.3975 79.8185 33.9876 80.1322 32.5507 80.2923C31.2221 80.4392 29.8832 80.4725 28.5478 80.5159C25.8194 80.6027 23.091 80.6627 20.3626 80.6761C18.8243 80.6827 17.2826 80.7328 15.7443 80.7361C10.6628 80.7495 5.57798 80.7461 0.496503 80.7528C0.337601 80.7528 0.178699 80.7528 0.00289261 80.7528H-0.000488281ZM19.3686 52.4937C19.6256 52.3302 19.8284 52.2735 20.0414 52.2735C20.3931 52.2735 20.7413 52.2201 21.0895 52.18C23.2093 51.9265 25.3156 51.6128 27.3949 51.129C29.278 50.6885 31.1172 50.1213 32.8246 49.1936C34.8498 48.0958 36.4117 46.5643 37.3719 44.4688C38.4572 42.0997 38.9204 39.6271 38.6533 37.0344C38.5079 35.613 38.136 34.2683 37.2975 33.067C36.0939 31.3386 34.5184 30.0272 32.686 28.9995C31.1916 28.162 29.6128 27.578 27.875 27.4512C25.5963 27.2877 23.3175 27.211 21.0354 27.211C18.8345 27.211 16.6301 27.1709 14.4292 27.1309C12.2823 27.0942 10.132 27.0642 7.98518 27.0375C7.84318 27.0375 7.68766 26.9908 7.55919 27.0975V79.8819C7.72485 79.962 7.87699 79.932 8.01899 79.9286C10.274 79.8886 12.5291 79.8285 14.7842 79.8018C17.3232 79.7718 19.8623 79.7451 22.4013 79.645C25.3562 79.5282 28.3111 79.3881 31.2559 79.1445C32.571 79.0344 33.7949 78.6807 34.9241 78C36.1649 77.2492 37.3077 76.385 38.3186 75.3539C38.9508 74.7099 39.5391 74.0292 39.9177 73.205C40.7798 71.3264 41.2667 69.3577 41.2971 67.2923C41.3343 64.9399 40.79 62.7209 39.6844 60.6388C39.0083 59.3675 38.1867 58.1896 37.0575 57.2686C34.7314 55.3733 32.0943 54.1154 29.109 53.6215C27.1109 53.2912 25.1128 52.9809 23.1079 52.6906C22.1207 52.5471 21.1335 52.3836 20.126 52.4937C19.8994 52.5204 19.6695 52.497 19.3653 52.497L19.3686 52.4937Z" fill="white" fill-opacity="0.2"/>
<path d="M98.7423 25.6055C108.293 44.1412 117.841 62.667 127.385 81.1894C127.226 81.2895 127.088 81.2561 126.956 81.2561C124.129 81.2561 121.306 81.2528 118.48 81.2661C118.155 81.2661 118.01 81.1527 117.871 80.8791C116.066 77.2754 114.247 73.675 112.435 70.0746C110.565 66.3675 108.696 62.6603 106.826 58.9498C105.034 55.3962 103.246 51.8458 101.454 48.2922C99.4793 44.3681 97.5049 40.4441 95.5271 36.5234C95.4561 36.3832 95.4087 36.2264 95.2431 36.0696C90.6451 44.9954 86.0775 53.9113 81.591 62.8639C81.6992 62.9573 81.7838 62.8872 81.8649 62.8572C83.7954 62.1565 85.7732 61.6226 87.8119 61.3356C91.7033 60.785 95.4899 61.082 99.1007 62.7304C100.646 63.4344 102.059 64.332 103.256 65.5366C103.462 65.7435 103.645 65.9704 103.898 66.254C103.472 66.254 103.127 66.254 102.782 66.254C102.674 66.254 102.613 66.1839 102.546 66.1205C100.358 64.1619 97.7686 62.994 94.8982 62.4134C91.2705 61.6793 87.7274 62.1064 84.2417 63.2409C83.1395 63.6013 82.0677 64.0417 81.0129 64.5189C80.7762 64.6257 80.6309 64.7758 80.5159 65.0027C77.9802 70.0346 75.4378 75.0631 72.8954 80.0916C72.8176 80.2451 72.7365 80.3986 72.6553 80.5621H71.401C73.9232 75.4735 76.4318 70.4183 78.9675 65.3097C78.3454 65.4532 77.7875 65.6033 77.2229 65.7135C75.4446 66.0505 73.6561 66.1105 71.8574 65.957C68.2365 65.6434 64.8691 64.5322 61.7012 62.8038C61.5592 62.727 61.4206 62.6403 61.282 62.5569C61.2381 62.5302 61.1941 62.4968 61.1299 62.4468C61.1231 62.053 61.1062 61.6459 61.14 61.2422C61.2888 61.2222 61.3598 61.3189 61.4477 61.3723C64.4499 63.2042 67.6854 64.4121 71.188 64.8726C73.9773 65.2396 76.7124 65.0027 79.3461 63.9416C79.6132 63.8349 79.7856 63.6847 79.9141 63.4244C81.449 60.3112 82.9941 57.2047 84.5358 54.0948C86.9971 49.133 89.4584 44.1679 91.9197 39.2061C93.5763 35.8694 95.2329 32.5359 96.8896 29.1992C97.4407 28.088 97.9884 26.9735 98.5428 25.8624C98.5834 25.7823 98.6003 25.6822 98.7457 25.6088L98.7423 25.6055Z" fill="white"/>
<path d="M98.7423 25.6055C108.293 44.1412 117.841 62.667 127.385 81.1894C127.226 81.2895 127.088 81.2561 126.956 81.2561C124.129 81.2561 121.306 81.2528 118.48 81.2661C118.155 81.2661 118.01 81.1527 117.871 80.8791C116.066 77.2754 114.247 73.675 112.435 70.0746C110.565 66.3675 108.696 62.6603 106.826 58.9498C105.034 55.3962 103.246 51.8458 101.454 48.2922C99.4793 44.3681 97.5049 40.4441 95.5271 36.5234C95.4561 36.3832 95.4087 36.2264 95.2431 36.0696C90.6451 44.9954 86.0775 53.9113 81.591 62.8639C81.6992 62.9573 81.7838 62.8872 81.8649 62.8572C83.7954 62.1565 85.7732 61.6226 87.8119 61.3356C91.7033 60.785 95.4899 61.082 99.1007 62.7304C100.646 63.4344 102.059 64.332 103.256 65.5366C103.462 65.7435 103.645 65.9704 103.898 66.254C103.472 66.254 103.127 66.254 102.782 66.254C102.674 66.254 102.613 66.1839 102.546 66.1205C100.358 64.1619 97.7686 62.994 94.8982 62.4134C91.2705 61.6793 87.7274 62.1064 84.2417 63.2409C83.1395 63.6013 82.0677 64.0417 81.0129 64.5189C80.7762 64.6257 80.6309 64.7758 80.5159 65.0027C77.9802 70.0346 75.4378 75.0631 72.8954 80.0916C72.8176 80.2451 72.7365 80.3986 72.6553 80.5621H71.401C73.9232 75.4735 76.4318 70.4183 78.9675 65.3097C78.3454 65.4532 77.7875 65.6033 77.2229 65.7135C75.4446 66.0505 73.6561 66.1105 71.8574 65.957C68.2365 65.6434 64.8691 64.5322 61.7012 62.8038C61.5592 62.727 61.4206 62.6403 61.282 62.5569C61.2381 62.5302 61.1941 62.4968 61.1299 62.4468C61.1231 62.053 61.1062 61.6459 61.14 61.2422C61.2888 61.2222 61.3598 61.3189 61.4477 61.3723C64.4499 63.2042 67.6854 64.4121 71.188 64.8726C73.9773 65.2396 76.7124 65.0027 79.3461 63.9416C79.6132 63.8349 79.7856 63.6847 79.9141 63.4244C81.449 60.3112 82.9941 57.2047 84.5358 54.0948C86.9971 49.133 89.4584 44.1679 91.9197 39.2061C93.5763 35.8694 95.2329 32.5359 96.8896 29.1992C97.4407 28.088 97.9884 26.9735 98.5428 25.8624C98.5834 25.7823 98.6003 25.6822 98.7457 25.6088L98.7423 25.6055Z" fill="white" fill-opacity="0.2"/>
<path d="M87.0402 0.328118H92.9771C93.3625 1.13228 93.7445 1.93644 94.1266 2.74394C94.3971 3.31119 94.6506 3.88512 94.9346 4.44236C95.0529 4.67927 95.0496 4.88281 94.9583 5.12306C94.4748 6.39437 94.0049 7.67235 93.5383 8.947C93.491 9.07713 93.3963 9.20393 93.4301 9.36076C93.589 9.38745 93.6533 9.26733 93.7344 9.19058C97.0173 6.25089 100.445 3.47803 103.823 0.648448C104.107 0.411538 104.384 0.301424 104.763 0.304761C106.386 0.324782 108.009 0.314771 109.628 0.314771C109.777 0.314771 109.922 0.314771 110.145 0.314771C108.387 4.78271 106.643 9.2106 104.898 13.6352C105.155 13.5618 105.294 13.3849 105.449 13.2281C106.812 11.8767 108.167 10.5186 109.533 9.16722C111.812 6.90823 114.094 4.65257 116.376 2.39358C117.005 1.7696 117.631 1.14229 118.256 0.514978C118.371 0.398191 118.479 0.308098 118.668 0.308098C120.724 0.314771 122.776 0.314771 124.832 0.314771C124.883 0.314771 124.933 0.331455 125.011 0.341466C126.076 5.05966 127.141 9.77452 128.213 14.5194H124.903C124.653 13.2948 124.399 12.0602 124.149 10.8356C124 10.7689 123.862 10.7956 123.73 10.7956C120.89 10.7956 118.053 10.7956 115.213 10.7889C114.929 10.7889 114.743 10.8723 114.551 11.0725C113.533 12.1403 112.495 13.1914 111.474 14.2591C111.271 14.4694 111.065 14.5528 110.771 14.5528C106.744 14.5428 102.714 14.5461 98.6874 14.5461H98.2039C98.8734 12.841 99.5124 11.186 100.172 9.53427C100.834 7.88257 101.433 6.20417 102.173 4.58918C99.0289 7.41542 95.7257 10.0415 92.5207 12.7776C92.2705 12.9912 92.0271 13.0846 91.6687 12.9878C91.0939 11.5997 90.4921 10.1916 89.9241 8.77015C89.3561 7.34868 88.6428 5.98395 88.2743 4.50242C87.0233 7.84253 85.6642 11.1526 84.3659 14.4994H74.771C74.5309 13.2815 74.2943 12.0602 74.0576 10.8623C73.8953 10.7956 73.7736 10.8156 73.6519 10.8156C70.9066 10.8156 68.1647 10.8156 65.4194 10.8089C65.1523 10.8089 64.9664 10.8923 64.7872 11.0792C63.7594 12.1403 62.7181 13.1847 61.6903 14.2458C61.4976 14.4427 61.3015 14.5328 61.0209 14.5294C60.1148 14.5127 59.2087 14.5261 58.3026 14.5227C58.1742 14.5227 58.0356 14.5661 57.8936 14.4527C57.995 14.3426 58.093 14.2358 58.1945 14.1357C59.797 12.5474 61.3995 10.9624 63.0021 9.3741C65.9468 6.45109 68.8916 3.52808 71.8262 0.598397C72.0223 0.404864 72.2116 0.314771 72.4922 0.318108C74.3855 0.331455 76.2789 0.324782 78.1688 0.324782C78.3006 0.324782 78.4392 0.301424 78.6083 0.36816C79.6192 4.82609 80.6368 9.30403 81.6545 13.782C81.6781 13.7853 81.7018 13.792 81.7255 13.7953C83.4937 9.31404 85.2585 4.83276 87.0335 0.331455L87.0402 0.328118ZM123.757 8.82354C123.348 6.80813 122.952 4.86613 122.543 2.85072C120.579 4.87947 118.685 6.83816 116.765 8.82354H123.757ZM73.6587 8.8469C73.3172 6.92491 72.9825 5.05632 72.6342 3.11432C70.7308 5.04298 68.8781 6.92491 66.9814 8.8469H73.6553H73.6587Z" fill="white"/>
<path d="M87.0402 0.328118H92.9771C93.3625 1.13228 93.7445 1.93644 94.1266 2.74394C94.3971 3.31119 94.6506 3.88512 94.9346 4.44236C95.0529 4.67927 95.0496 4.88281 94.9583 5.12306C94.4748 6.39437 94.0049 7.67235 93.5383 8.947C93.491 9.07713 93.3963 9.20393 93.4301 9.36076C93.589 9.38745 93.6533 9.26733 93.7344 9.19058C97.0173 6.25089 100.445 3.47803 103.823 0.648448C104.107 0.411538 104.384 0.301424 104.763 0.304761C106.386 0.324782 108.009 0.314771 109.628 0.314771C109.777 0.314771 109.922 0.314771 110.145 0.314771C108.387 4.78271 106.643 9.2106 104.898 13.6352C105.155 13.5618 105.294 13.3849 105.449 13.2281C106.812 11.8767 108.167 10.5186 109.533 9.16722C111.812 6.90823 114.094 4.65257 116.376 2.39358C117.005 1.7696 117.631 1.14229 118.256 0.514978C118.371 0.398191 118.479 0.308098 118.668 0.308098C120.724 0.314771 122.776 0.314771 124.832 0.314771C124.883 0.314771 124.933 0.331455 125.011 0.341466C126.076 5.05966 127.141 9.77452 128.213 14.5194H124.903C124.653 13.2948 124.399 12.0602 124.149 10.8356C124 10.7689 123.862 10.7956 123.73 10.7956C120.89 10.7956 118.053 10.7956 115.213 10.7889C114.929 10.7889 114.743 10.8723 114.551 11.0725C113.533 12.1403 112.495 13.1914 111.474 14.2591C111.271 14.4694 111.065 14.5528 110.771 14.5528C106.744 14.5428 102.714 14.5461 98.6874 14.5461H98.2039C98.8734 12.841 99.5124 11.186 100.172 9.53427C100.834 7.88257 101.433 6.20417 102.173 4.58918C99.0289 7.41542 95.7257 10.0415 92.5207 12.7776C92.2705 12.9912 92.0271 13.0846 91.6687 12.9878C91.0939 11.5997 90.4921 10.1916 89.9241 8.77015C89.3561 7.34868 88.6428 5.98395 88.2743 4.50242C87.0233 7.84253 85.6642 11.1526 84.3659 14.4994H74.771C74.5309 13.2815 74.2943 12.0602 74.0576 10.8623C73.8953 10.7956 73.7736 10.8156 73.6519 10.8156C70.9066 10.8156 68.1647 10.8156 65.4194 10.8089C65.1523 10.8089 64.9664 10.8923 64.7872 11.0792C63.7594 12.1403 62.7181 13.1847 61.6903 14.2458C61.4976 14.4427 61.3015 14.5328 61.0209 14.5294C60.1148 14.5127 59.2087 14.5261 58.3026 14.5227C58.1742 14.5227 58.0356 14.5661 57.8936 14.4527C57.995 14.3426 58.093 14.2358 58.1945 14.1357C59.797 12.5474 61.3995 10.9624 63.0021 9.3741C65.9468 6.45109 68.8916 3.52808 71.8262 0.598397C72.0223 0.404864 72.2116 0.314771 72.4922 0.318108C74.3855 0.331455 76.2789 0.324782 78.1688 0.324782C78.3006 0.324782 78.4392 0.301424 78.6083 0.36816C79.6192 4.82609 80.6368 9.30403 81.6545 13.782C81.6781 13.7853 81.7018 13.792 81.7255 13.7953C83.4937 9.31404 85.2585 4.83276 87.0335 0.331455L87.0402 0.328118ZM123.757 8.82354C123.348 6.80813 122.952 4.86613 122.543 2.85072C120.579 4.87947 118.685 6.83816 116.765 8.82354H123.757ZM73.6587 8.8469C73.3172 6.92491 72.9825 5.05632 72.6342 3.11432C70.7308 5.04298 68.8781 6.92491 66.9814 8.8469H73.6553H73.6587Z" fill="white" fill-opacity="0.2"/>
<path d="M137.084 26.487C137.233 26.4202 137.354 26.4436 137.476 26.4436C140.248 26.4436 143.017 26.4469 145.79 26.4336C146.097 26.4336 146.277 26.5337 146.452 26.7773C152.21 34.7588 157.974 42.7337 163.735 50.7086C165.554 53.2279 167.373 55.7438 169.192 58.2631C169.27 58.3698 169.327 58.4933 169.456 58.57C169.628 58.4132 169.73 58.2097 169.855 58.0228C174.274 51.4794 178.686 44.936 183.101 38.3892C185.674 34.572 188.247 30.7547 190.827 26.9408C191.232 26.3402 191.019 26.4503 191.793 26.4436C191.922 26.4436 192.061 26.4036 192.209 26.517C191.939 26.9274 191.672 27.3379 191.398 27.7483C187.523 33.5743 183.649 39.4003 179.771 45.2263C176.451 50.2181 173.138 55.2099 169.811 60.195C169.666 60.4153 169.638 60.6288 169.638 60.8724C169.638 67.4192 169.638 73.9692 169.638 80.516C169.638 80.6861 169.669 80.8597 169.595 81.0599H161.771C161.683 80.8797 161.72 80.7028 161.72 80.5327C161.72 73.9993 161.717 67.4625 161.72 60.9291C161.72 60.6222 161.646 60.3719 161.46 60.1216C154.211 50.148 146.966 40.1677 139.721 30.1875C138.91 29.073 138.098 27.9552 137.29 26.8407C137.212 26.7339 137.114 26.6371 137.074 26.487H137.084Z" fill="white"/>
<path d="M137.084 26.487C137.233 26.4202 137.354 26.4436 137.476 26.4436C140.248 26.4436 143.017 26.4469 145.79 26.4336C146.097 26.4336 146.277 26.5337 146.452 26.7773C152.21 34.7588 157.974 42.7337 163.735 50.7086C165.554 53.2279 167.373 55.7438 169.192 58.2631C169.27 58.3698 169.327 58.4933 169.456 58.57C169.628 58.4132 169.73 58.2097 169.855 58.0228C174.274 51.4794 178.686 44.936 183.101 38.3892C185.674 34.572 188.247 30.7547 190.827 26.9408C191.232 26.3402 191.019 26.4503 191.793 26.4436C191.922 26.4436 192.061 26.4036 192.209 26.517C191.939 26.9274 191.672 27.3379 191.398 27.7483C187.523 33.5743 183.649 39.4003 179.771 45.2263C176.451 50.2181 173.138 55.2099 169.811 60.195C169.666 60.4153 169.638 60.6288 169.638 60.8724C169.638 67.4192 169.638 73.9692 169.638 80.516C169.638 80.6861 169.669 80.8597 169.595 81.0599H161.771C161.683 80.8797 161.72 80.7028 161.72 80.5327C161.72 73.9993 161.717 67.4625 161.72 60.9291C161.72 60.6222 161.646 60.3719 161.46 60.1216C154.211 50.148 146.966 40.1677 139.721 30.1875C138.91 29.073 138.098 27.9552 137.29 26.8407C137.212 26.7339 137.114 26.6371 137.074 26.487H137.084Z" fill="white" fill-opacity="0.2"/>
<path d="M40.7539 14.4504C41.829 11.7342 42.8974 9.03479 43.9691 6.32867H46.8767C46.1194 8.24064 45.3756 10.1293 44.6352 11.9945C44.6859 12.0779 44.7434 12.0713 44.7941 12.0713C46.4135 12.0546 48.0363 12.1213 49.6558 11.9945C50.5754 11.9211 51.468 11.7442 52.3233 11.3739C53.013 11.0736 53.5912 10.6398 53.9766 10.0091C54.8319 8.60769 55.5183 7.1295 55.7346 5.49448C55.9104 4.18313 55.2715 3.25551 54.1355 2.84842C53.5573 2.64154 52.9589 2.54811 52.347 2.54811C50.2238 2.54811 48.104 2.54811 45.9808 2.54811C45.832 2.54811 45.6866 2.54811 45.4703 2.54811C45.7644 1.79066 46.045 1.06658 46.3222 0.362525C46.471 0.279106 46.6062 0.312473 46.7415 0.309137C50.0108 0.309137 53.2835 0.299126 56.5528 0.309137C57.6922 0.312473 58.8146 0.465965 59.8898 0.866377C61.0697 1.30349 61.9825 2.02757 62.3984 3.24549C62.6824 4.07635 62.6587 4.92723 62.4694 5.77143C62.0197 7.78684 61.0291 9.51529 59.6125 11.0202C58.4326 12.2748 57.0295 13.2024 55.3999 13.7697C54.4431 14.1033 53.4424 14.2668 52.4349 14.3836C51.4139 14.5038 50.3928 14.5204 49.365 14.5138C46.6772 14.4904 43.986 14.5071 41.2948 14.5038C41.1359 14.5038 40.9703 14.5338 40.7539 14.4437V14.4504Z" fill="white"/>
<path d="M40.7539 14.4504C41.829 11.7342 42.8974 9.03479 43.9691 6.32867H46.8767C46.1194 8.24064 45.3756 10.1293 44.6352 11.9945C44.6859 12.0779 44.7434 12.0713 44.7941 12.0713C46.4135 12.0546 48.0363 12.1213 49.6558 11.9945C50.5754 11.9211 51.468 11.7442 52.3233 11.3739C53.013 11.0736 53.5912 10.6398 53.9766 10.0091C54.8319 8.60769 55.5183 7.1295 55.7346 5.49448C55.9104 4.18313 55.2715 3.25551 54.1355 2.84842C53.5573 2.64154 52.9589 2.54811 52.347 2.54811C50.2238 2.54811 48.104 2.54811 45.9808 2.54811C45.832 2.54811 45.6866 2.54811 45.4703 2.54811C45.7644 1.79066 46.045 1.06658 46.3222 0.362525C46.471 0.279106 46.6062 0.312473 46.7415 0.309137C50.0108 0.309137 53.2835 0.299126 56.5528 0.309137C57.6922 0.312473 58.8146 0.465965 59.8898 0.866377C61.0697 1.30349 61.9825 2.02757 62.3984 3.24549C62.6824 4.07635 62.6587 4.92723 62.4694 5.77143C62.0197 7.78684 61.0291 9.51529 59.6125 11.0202C58.4326 12.2748 57.0295 13.2024 55.3999 13.7697C54.4431 14.1033 53.4424 14.2668 52.4349 14.3836C51.4139 14.5038 50.3928 14.5204 49.365 14.5138C46.6772 14.4904 43.986 14.5071 41.2948 14.5038C41.1359 14.5038 40.9703 14.5338 40.7539 14.4437V14.4504Z" fill="white" fill-opacity="0.2"/>
<path d="M150.49 0.393511C149.973 1.85835 149.364 3.26981 148.824 4.69795H145.916C146.197 3.96719 146.47 3.26313 146.738 2.56909C146.633 2.44229 146.518 2.489 146.42 2.48567C145.216 2.48233 144.013 2.4523 142.812 2.489C139.827 2.58243 137.656 3.96386 136.335 6.60658C135.834 7.60427 135.486 8.65202 135.51 9.78986C135.526 10.6407 135.888 11.2647 136.696 11.6217C137.423 11.9454 138.191 12.0755 138.972 12.1523C140.439 12.2991 141.913 12.2124 143.387 12.2324C144.144 12.2424 144.898 12.2324 145.727 12.2324C145.429 13.0065 145.149 13.7439 144.881 14.4513C144.702 14.5414 144.55 14.5114 144.405 14.5114C141.609 14.5114 138.809 14.5247 136.013 14.5081C134.57 14.498 133.123 14.448 131.716 14.0709C130.144 13.6505 129.11 12.6929 128.799 11.0912C128.579 9.9567 128.714 8.83554 129.106 7.74442C129.86 5.65894 131.084 3.90046 132.927 2.60913C134.445 1.54136 136.149 0.894027 137.978 0.550339C138.884 0.380164 139.797 0.320102 140.716 0.320102C143.796 0.323439 146.88 0.320102 149.96 0.320102C150.105 0.320102 150.257 0.293408 150.497 0.383501L150.49 0.393511Z" fill="white"/>
<path d="M150.49 0.393511C149.973 1.85835 149.364 3.26981 148.824 4.69795H145.916C146.197 3.96719 146.47 3.26313 146.738 2.56909C146.633 2.44229 146.518 2.489 146.42 2.48567C145.216 2.48233 144.013 2.4523 142.812 2.489C139.827 2.58243 137.656 3.96386 136.335 6.60658C135.834 7.60427 135.486 8.65202 135.51 9.78986C135.526 10.6407 135.888 11.2647 136.696 11.6217C137.423 11.9454 138.191 12.0755 138.972 12.1523C140.439 12.2991 141.913 12.2124 143.387 12.2324C144.144 12.2424 144.898 12.2324 145.727 12.2324C145.429 13.0065 145.149 13.7439 144.881 14.4513C144.702 14.5414 144.55 14.5114 144.405 14.5114C141.609 14.5114 138.809 14.5247 136.013 14.5081C134.57 14.498 133.123 14.448 131.716 14.0709C130.144 13.6505 129.11 12.6929 128.799 11.0912C128.579 9.9567 128.714 8.83554 129.106 7.74442C129.86 5.65894 131.084 3.90046 132.927 2.60913C134.445 1.54136 136.149 0.894027 137.978 0.550339C138.884 0.380164 139.797 0.320102 140.716 0.320102C143.796 0.323439 146.88 0.320102 149.96 0.320102C150.105 0.320102 150.257 0.293408 150.497 0.383501L150.49 0.393511Z" fill="white" fill-opacity="0.2"/>
<path d="M46.9528 97.9959C47.2604 98.076 47.5072 98.1294 47.7507 98.2028C48.2443 98.353 48.7108 98.5565 49.0929 98.9135C49.928 99.691 49.8941 100.972 49.0084 101.696C48.3389 102.244 47.5343 102.457 46.6992 102.584C45.9926 102.694 45.2792 102.737 44.5591 102.734C42.5745 102.731 40.5865 102.734 38.602 102.734H38.1692C38.0847 102.414 38.0543 94.4156 38.1286 93.6481C38.2402 93.548 38.3788 93.5914 38.5073 93.5914C40.5189 93.5914 42.5339 93.5814 44.5456 93.5914C45.3976 93.5947 46.2428 93.6882 47.061 93.9518C47.5782 94.1186 48.0651 94.3388 48.4539 94.7326C49.1233 95.4133 49.1267 96.4577 48.4674 97.1484C48.0651 97.5688 47.5512 97.7924 46.9528 97.9926V97.9959ZM39.5959 101.937C40.0896 101.937 40.5358 101.94 40.9787 101.937C42.517 101.917 44.0587 101.993 45.597 101.87C46.2462 101.817 46.8851 101.72 47.4633 101.399C47.9332 101.139 48.2003 100.752 48.1969 100.202C48.1936 99.6476 47.9096 99.2739 47.4329 99.0236C47.2063 98.9035 46.9663 98.8168 46.7161 98.7534C46.0602 98.5832 45.3874 98.5165 44.7112 98.5131C43.1425 98.5131 41.5771 98.5131 40.0084 98.5131C39.8766 98.5131 39.7413 98.4831 39.5926 98.5598V101.94L39.5959 101.937ZM39.5959 97.6322C39.6974 97.709 39.7819 97.6923 39.8597 97.6923C41.3439 97.6923 42.8281 97.6989 44.3123 97.6889C44.7822 97.6856 45.2556 97.6389 45.7187 97.5354C46.1819 97.432 46.635 97.2985 47.0069 96.9882C47.6222 96.481 47.6289 95.6301 47.0305 95.1063C46.8243 94.9261 46.5809 94.816 46.3273 94.7226C45.7525 94.5123 45.1541 94.4323 44.5422 94.4122C43.0174 94.3588 41.4926 94.3989 39.9678 94.3889C39.8495 94.3889 39.7244 94.3622 39.5959 94.4589V97.6322Z" fill="white"/>
<path d="M46.9528 97.9959C47.2604 98.076 47.5072 98.1294 47.7507 98.2028C48.2443 98.353 48.7108 98.5565 49.0929 98.9135C49.928 99.691 49.8941 100.972 49.0084 101.696C48.3389 102.244 47.5343 102.457 46.6992 102.584C45.9926 102.694 45.2792 102.737 44.5591 102.734C42.5745 102.731 40.5865 102.734 38.602 102.734H38.1692C38.0847 102.414 38.0543 94.4156 38.1286 93.6481C38.2402 93.548 38.3788 93.5914 38.5073 93.5914C40.5189 93.5914 42.5339 93.5814 44.5456 93.5914C45.3976 93.5947 46.2428 93.6882 47.061 93.9518C47.5782 94.1186 48.0651 94.3388 48.4539 94.7326C49.1233 95.4133 49.1267 96.4577 48.4674 97.1484C48.0651 97.5688 47.5512 97.7924 46.9528 97.9926V97.9959ZM39.5959 101.937C40.0896 101.937 40.5358 101.94 40.9787 101.937C42.517 101.917 44.0587 101.993 45.597 101.87C46.2462 101.817 46.8851 101.72 47.4633 101.399C47.9332 101.139 48.2003 100.752 48.1969 100.202C48.1936 99.6476 47.9096 99.2739 47.4329 99.0236C47.2063 98.9035 46.9663 98.8168 46.7161 98.7534C46.0602 98.5832 45.3874 98.5165 44.7112 98.5131C43.1425 98.5131 41.5771 98.5131 40.0084 98.5131C39.8766 98.5131 39.7413 98.4831 39.5926 98.5598V101.94L39.5959 101.937ZM39.5959 97.6322C39.6974 97.709 39.7819 97.6923 39.8597 97.6923C41.3439 97.6923 42.8281 97.6989 44.3123 97.6889C44.7822 97.6856 45.2556 97.6389 45.7187 97.5354C46.1819 97.432 46.635 97.2985 47.0069 96.9882C47.6222 96.481 47.6289 95.6301 47.0305 95.1063C46.8243 94.9261 46.5809 94.816 46.3273 94.7226C45.7525 94.5123 45.1541 94.4323 44.5422 94.4122C43.0174 94.3588 41.4926 94.3989 39.9678 94.3889C39.8495 94.3889 39.7244 94.3622 39.5959 94.4589V97.6322Z" fill="white" fill-opacity="0.2"/>
<path d="M96.1964 102.717H94.6412C94.0935 101.916 93.5458 101.109 93.0014 100.315C92.8594 100.248 92.7242 100.275 92.589 100.275C90.29 100.275 87.9943 100.278 85.6953 100.268C85.408 100.268 85.2288 100.345 85.0699 100.592C84.6574 101.232 84.2111 101.853 83.7953 102.49C83.6769 102.671 83.5485 102.744 83.3355 102.734C82.9467 102.717 82.5612 102.731 82.1353 102.731C82.1927 102.53 82.3009 102.41 82.3888 102.283C84.299 99.5206 86.216 96.7611 88.1161 93.9916C88.3324 93.678 88.5556 93.5278 88.941 93.5779C89.2453 93.6179 89.5935 93.4911 89.8606 93.6279C90.1277 93.7647 90.2426 94.095 90.4184 94.3486C92.2407 96.978 94.0597 99.6074 95.882 102.237C95.98 102.377 96.0713 102.52 96.2031 102.721L96.1964 102.717ZM92.4267 99.4606C91.311 97.8156 90.2426 96.2339 89.1371 94.6022C88.0349 96.2306 86.9564 97.8256 85.8475 99.4606H92.4233H92.4267Z" fill="white"/>
<path d="M96.1964 102.717H94.6412C94.0935 101.916 93.5458 101.109 93.0014 100.315C92.8594 100.248 92.7242 100.275 92.589 100.275C90.29 100.275 87.9943 100.278 85.6953 100.268C85.408 100.268 85.2288 100.345 85.0699 100.592C84.6574 101.232 84.2111 101.853 83.7953 102.49C83.6769 102.671 83.5485 102.744 83.3355 102.734C82.9467 102.717 82.5612 102.731 82.1353 102.731C82.1927 102.53 82.3009 102.41 82.3888 102.283C84.299 99.5206 86.216 96.7611 88.1161 93.9916C88.3324 93.678 88.5556 93.5278 88.941 93.5779C89.2453 93.6179 89.5935 93.4911 89.8606 93.6279C90.1277 93.7647 90.2426 94.095 90.4184 94.3486C92.2407 96.978 94.0597 99.6074 95.882 102.237C95.98 102.377 96.0713 102.52 96.2031 102.721L96.1964 102.717ZM92.4267 99.4606C91.311 97.8156 90.2426 96.2339 89.1371 94.6022C88.0349 96.2306 86.9564 97.8256 85.8475 99.4606H92.4233H92.4267Z" fill="white" fill-opacity="0.2"/>
<path d="M122.699 102.713H121.184C121.056 102.53 120.91 102.323 120.768 102.116C120.406 101.586 120.048 101.052 119.69 100.518C119.598 100.381 119.51 100.274 119.311 100.274C116.84 100.284 114.365 100.284 111.893 100.291C111.88 100.291 111.866 100.298 111.826 100.311C111.349 101.012 110.852 101.722 110.379 102.45C110.237 102.667 110.081 102.753 109.821 102.74C109.459 102.717 109.091 102.733 108.732 102.733C108.668 102.593 108.776 102.527 108.83 102.446C110.808 99.5835 112.789 96.7239 114.76 93.8576C114.896 93.6574 115.048 93.5673 115.291 93.584C115.562 93.6007 115.832 93.6007 116.103 93.584C116.346 93.5673 116.491 93.6641 116.63 93.8643C117.942 95.7729 119.26 97.6749 120.579 99.5768C121.211 100.491 121.843 101.402 122.476 102.316C122.557 102.433 122.655 102.543 122.699 102.713ZM118.976 99.4634C117.861 97.8183 116.785 96.2334 115.687 94.6084C114.578 96.2467 113.503 97.8317 112.4 99.4634H118.98H118.976Z" fill="white"/>
<path d="M122.699 102.713H121.184C121.056 102.53 120.91 102.323 120.768 102.116C120.406 101.586 120.048 101.052 119.69 100.518C119.598 100.381 119.51 100.274 119.311 100.274C116.84 100.284 114.365 100.284 111.893 100.291C111.88 100.291 111.866 100.298 111.826 100.311C111.349 101.012 110.852 101.722 110.379 102.45C110.237 102.667 110.081 102.753 109.821 102.74C109.459 102.717 109.091 102.733 108.732 102.733C108.668 102.593 108.776 102.527 108.83 102.446C110.808 99.5835 112.789 96.7239 114.76 93.8576C114.896 93.6574 115.048 93.5673 115.291 93.584C115.562 93.6007 115.832 93.6007 116.103 93.584C116.346 93.5673 116.491 93.6641 116.63 93.8643C117.942 95.7729 119.26 97.6749 120.579 99.5768C121.211 100.491 121.843 101.402 122.476 102.316C122.557 102.433 122.655 102.543 122.699 102.713ZM118.976 99.4634C117.861 97.8183 116.785 96.2334 115.687 94.6084C114.578 96.2467 113.503 97.8317 112.4 99.4634H118.98H118.976Z" fill="white" fill-opacity="0.2"/>
<path d="M80.6128 100.842C80.9238 101.045 81.2281 101.215 81.5121 101.449C81.3972 101.619 81.2213 101.696 81.0658 101.786C80.1293 102.327 79.0981 102.59 78.0332 102.72C76.4644 102.914 74.9025 102.85 73.3743 102.42C72.1606 102.08 71.0719 101.522 70.1929 100.595C68.8473 99.17 68.8642 96.881 70.4633 95.4395C71.4641 94.5385 72.6542 94.038 73.9524 93.7678C76.0553 93.3273 78.138 93.3974 80.18 94.1048C80.4742 94.2082 80.7514 94.3417 81.0219 94.4952C81.1842 94.5886 81.3397 94.692 81.5358 94.8155C81.2518 95.0924 80.9204 95.2393 80.6297 95.4695C79.9129 95.0124 79.1455 94.6987 78.3104 94.5519C76.4272 94.2216 74.5948 94.3317 72.857 95.1759C72.2451 95.4728 71.7109 95.8799 71.2883 96.4171C70.4059 97.545 70.4836 99.0665 71.4675 100.114C72.2383 100.938 73.2086 101.416 74.2871 101.676C75.8254 102.046 77.3637 102.036 78.8953 101.626C79.5106 101.459 80.0786 101.182 80.606 100.838L80.6128 100.842Z" fill="white"/>
<path d="M80.6128 100.842C80.9238 101.045 81.2281 101.215 81.5121 101.449C81.3972 101.619 81.2213 101.696 81.0658 101.786C80.1293 102.327 79.0981 102.59 78.0332 102.72C76.4644 102.914 74.9025 102.85 73.3743 102.42C72.1606 102.08 71.0719 101.522 70.1929 100.595C68.8473 99.17 68.8642 96.881 70.4633 95.4395C71.4641 94.5385 72.6542 94.038 73.9524 93.7678C76.0553 93.3273 78.138 93.3974 80.18 94.1048C80.4742 94.2082 80.7514 94.3417 81.0219 94.4952C81.1842 94.5886 81.3397 94.692 81.5358 94.8155C81.2518 95.0924 80.9204 95.2393 80.6297 95.4695C79.9129 95.0124 79.1455 94.6987 78.3104 94.5519C76.4272 94.2216 74.5948 94.3317 72.857 95.1759C72.2451 95.4728 71.7109 95.8799 71.2883 96.4171C70.4059 97.545 70.4836 99.0665 71.4675 100.114C72.2383 100.938 73.2086 101.416 74.2871 101.676C75.8254 102.046 77.3637 102.036 78.8953 101.626C79.5106 101.459 80.0786 101.182 80.606 100.838L80.6128 100.842Z" fill="white" fill-opacity="0.2"/>
<path d="M102.459 101.51C102.817 100.98 103.155 100.486 103.486 99.9887C104.849 97.9566 106.218 95.9278 107.57 93.8891C107.723 93.6588 107.892 93.5621 108.166 93.5854C108.51 93.6155 108.862 93.5521 109.207 93.6221C109.2 93.7823 109.099 93.8791 109.028 93.9892C107.151 96.7887 105.268 99.5849 103.405 102.391C103.226 102.661 103.03 102.768 102.716 102.742C102.475 102.718 102.229 102.728 101.985 102.742C101.793 102.752 101.661 102.695 101.549 102.528C99.6017 99.615 97.6509 96.7053 95.7036 93.7923C95.6765 93.7489 95.6562 93.6989 95.6089 93.5988C96.1295 93.5988 96.6062 93.5954 97.0863 93.5988C97.2283 93.5988 97.2757 93.7322 97.3399 93.8323C98.6517 95.801 99.9635 97.7731 101.275 99.7418C101.661 100.319 102.046 100.896 102.459 101.514V101.51Z" fill="white"/>
<path d="M102.459 101.51C102.817 100.98 103.155 100.486 103.486 99.9887C104.849 97.9566 106.218 95.9278 107.57 93.8891C107.723 93.6588 107.892 93.5621 108.166 93.5854C108.51 93.6155 108.862 93.5521 109.207 93.6221C109.2 93.7823 109.099 93.8791 109.028 93.9892C107.151 96.7887 105.268 99.5849 103.405 102.391C103.226 102.661 103.03 102.768 102.716 102.742C102.475 102.718 102.229 102.728 101.985 102.742C101.793 102.752 101.661 102.695 101.549 102.528C99.6017 99.615 97.6509 96.7053 95.7036 93.7923C95.6765 93.7489 95.6562 93.6989 95.6089 93.5988C96.1295 93.5988 96.6062 93.5954 97.0863 93.5988C97.2283 93.5988 97.2757 93.7322 97.3399 93.8323C98.6517 95.801 99.9635 97.7731 101.275 99.7418C101.661 100.319 102.046 100.896 102.459 101.514V101.51Z" fill="white" fill-opacity="0.2"/>
<path d="M50.4863 93.5916C51.0476 93.5916 51.5141 93.5849 51.9841 93.5949C52.1497 93.5983 52.2241 93.7518 52.3222 93.8585C53.6711 95.3134 55.0167 96.7682 56.3657 98.2264C56.5009 98.3732 56.6429 98.5167 56.8018 98.6869C57.336 98.1129 57.8533 97.559 58.3706 96.9984C59.3443 95.9474 60.3213 94.8963 61.2883 93.8352C61.4573 93.6483 61.6331 93.5649 61.8867 93.5849C62.2214 93.6116 62.5595 93.5616 62.9111 93.6183C62.8739 93.8319 62.7049 93.9353 62.5832 94.0654C60.9739 95.8106 59.3679 97.5524 57.7485 99.2875C57.549 99.501 57.4746 99.7146 57.4814 99.9982C57.4949 100.889 57.4882 101.783 57.4882 102.721C57.0047 102.748 56.5415 102.744 56.0614 102.721C56.0073 102.524 56.031 102.337 56.031 102.154C56.0276 101.406 56.0209 100.662 56.0344 99.9148C56.0378 99.6846 55.9701 99.5177 55.8146 99.3475C54.1614 97.5724 52.5182 95.7872 50.8717 94.0087C50.7669 93.8953 50.6621 93.7785 50.4931 93.5949L50.4863 93.5916Z" fill="white"/>
<path d="M50.4863 93.5916C51.0476 93.5916 51.5141 93.5849 51.9841 93.5949C52.1497 93.5983 52.2241 93.7518 52.3222 93.8585C53.6711 95.3134 55.0167 96.7682 56.3657 98.2264C56.5009 98.3732 56.6429 98.5167 56.8018 98.6869C57.336 98.1129 57.8533 97.559 58.3706 96.9984C59.3443 95.9474 60.3213 94.8963 61.2883 93.8352C61.4573 93.6483 61.6331 93.5649 61.8867 93.5849C62.2214 93.6116 62.5595 93.5616 62.9111 93.6183C62.8739 93.8319 62.7049 93.9353 62.5832 94.0654C60.9739 95.8106 59.3679 97.5524 57.7485 99.2875C57.549 99.501 57.4746 99.7146 57.4814 99.9982C57.4949 100.889 57.4882 101.783 57.4882 102.721C57.0047 102.748 56.5415 102.744 56.0614 102.721C56.0073 102.524 56.031 102.337 56.031 102.154C56.0276 101.406 56.0209 100.662 56.0344 99.9148C56.0378 99.6846 55.9701 99.5177 55.8146 99.3475C54.1614 97.5724 52.5182 95.7872 50.8717 94.0087C50.7669 93.8953 50.6621 93.7785 50.4931 93.5949L50.4863 93.5916Z" fill="white" fill-opacity="0.2"/>
<path d="M136.686 93.6094H138.136C138.157 94.1466 138.143 94.6872 138.147 95.2277C138.147 95.7749 138.147 96.3222 138.147 96.8661V101.868H145.872C145.902 102.175 145.896 102.432 145.875 102.709H136.683V93.6094H136.686Z" fill="white"/>
<path d="M136.686 93.6094H138.136C138.157 94.1466 138.143 94.6872 138.147 95.2277C138.147 95.7749 138.147 96.3222 138.147 96.8661V101.868H145.872C145.902 102.175 145.896 102.432 145.875 102.709H136.683V93.6094H136.686Z" fill="white" fill-opacity="0.2"/>
<path d="M126.486 101.886H134.204C134.275 102.169 134.258 102.42 134.221 102.7H125.059V93.6138C125.532 93.5604 125.985 93.5904 126.486 93.5904V101.886Z" fill="white"/>
<path d="M126.486 101.886H134.204C134.275 102.169 134.258 102.42 134.221 102.7H125.059V93.6138C125.532 93.5604 125.985 93.5904 126.486 93.5904V101.886Z" fill="white" fill-opacity="0.2"/>
<path d="M149.752 102.71C149.293 102.71 148.84 102.71 148.387 102.71C148.295 102.437 148.272 94.1248 148.363 93.611C148.813 93.5609 149.266 93.591 149.752 93.591V102.707V102.71Z" fill="white"/>
<path d="M149.752 102.71C149.293 102.71 148.84 102.71 148.387 102.71C148.295 102.437 148.272 94.1248 148.363 93.611C148.813 93.5609 149.266 93.591 149.752 93.591V102.707V102.71Z" fill="white" fill-opacity="0.2"/>
</g>
</mask>
<g mask="url(#mask0_1498_2542)">
<g filter="url(#filter0_f_1498_2542)">
<rect x="-14.79" y="2" width="221" height="101" fill="white"/>
</g>
</g>
<defs>
<filter id="filter0_f_1498_2542" x="-63.8238" y="-47.0338" width="319.068" height="199.068" filterUnits="userSpaceOnUse" color-interpolation-filters="sRGB">
<feFlood flood-opacity="0" result="BackgroundImageFix"/>
<feBlend mode="normal" in="SourceGraphic" in2="BackgroundImageFix" result="shape"/>
<feGaussianBlur stdDeviation="24.5169" result="effect1_foregroundBlur_1498_2542"/>
</filter>
<clipPath id="clip0_1498_2542">
<rect width="192.211" height="102.512" fill="white" transform="translate(0 0.304688)"/>
</clipPath>
</defs>
</svg>
