<svg width="361" height="110" viewBox="0 0 361 110" fill="none" xmlns="http://www.w3.org/2000/svg">
<g opacity="0.4">
<mask id="path-1-inside-1_1325_463" fill="white">
<path d="M0.5 41.6259V0.773047H15.3451C19.7948 0.773047 23.5157 1.69367 26.5077 3.53493C29.4998 5.33783 31.7438 7.79283 33.2398 10.9C34.7358 13.9687 35.4839 17.3827 35.4839 21.1419C35.4839 25.2848 34.6591 28.8906 33.0097 31.9593C31.3602 35.0281 29.0203 37.4064 25.9899 39.0942C22.9978 40.782 19.4496 41.6259 15.3451 41.6259H0.5ZM27.4859 21.1419C27.4859 18.4951 27.0064 16.1744 26.0474 14.1797C25.0884 12.1466 23.7075 10.5739 21.9046 9.46147C20.1017 8.31069 17.9152 7.73529 15.3451 7.73529H8.44041V34.6637H15.3451C17.9536 34.6637 20.1592 34.0883 21.9621 32.9375C23.765 31.7483 25.1268 30.1372 26.0474 28.1042C27.0064 26.0328 27.4859 23.712 27.4859 21.1419Z"/>
<path d="M59.1221 41.9136C56.1301 41.9136 53.4066 41.3382 50.9516 40.1874C48.5349 39.0366 46.4443 37.4831 44.6798 35.5267C42.9536 33.532 41.611 31.3072 40.652 28.8522C39.6931 26.3588 39.2136 23.8079 39.2136 21.1995C39.2136 18.476 39.7122 15.8867 40.7096 13.4317C41.7453 10.9383 43.1454 8.73264 44.9099 6.81467C46.7128 4.85833 48.8226 3.32395 51.2393 2.21153C53.6943 1.06074 56.3794 0.485352 59.2948 0.485352C62.2484 0.485352 64.9336 1.07992 67.3503 2.26907C69.8053 3.45821 71.8958 5.05013 73.622 7.04482C75.3482 9.03952 76.6908 11.2644 77.6498 13.7194C78.6088 16.1744 79.0882 18.7061 79.0882 21.3146C79.0882 23.9997 78.5896 26.589 77.5922 29.0823C76.5949 31.5374 75.1948 33.743 73.3919 35.6994C71.6273 37.6173 69.5176 39.1325 67.0625 40.245C64.6459 41.3574 61.9991 41.9136 59.1221 41.9136ZM47.2691 21.1995C47.2691 22.964 47.5376 24.671 48.0746 26.3205C48.6116 27.9699 49.3788 29.4468 50.3762 30.751C51.4119 32.0168 52.6586 33.0334 54.1162 33.8006C55.6122 34.5294 57.3001 34.8938 59.1797 34.8938C61.0976 34.8938 62.8046 34.5102 64.3007 33.743C65.7967 32.9375 67.0434 31.8826 68.0407 30.5784C69.0381 29.2358 69.7861 27.7589 70.2847 26.1478C70.8218 24.4984 71.0903 22.8489 71.0903 21.1995C71.0903 19.4349 70.8026 17.7471 70.2272 16.136C69.6902 14.4866 68.9038 13.0289 67.8681 11.763C66.8707 10.4588 65.6241 9.44229 64.128 8.71346C62.6704 7.94627 61.0209 7.56268 59.1797 7.56268C57.2233 7.56268 55.4972 7.96545 54.0011 8.771C52.5435 9.53819 51.316 10.5739 50.3186 11.8781C49.3213 13.1823 48.5541 14.64 48.0171 16.2511C47.5184 17.8622 47.2691 19.5117 47.2691 21.1995Z"/>
<path d="M97.5318 0.888128H104.897L109.558 14.4098L114.276 0.888128H121.583L114.563 19.4733L119.742 32.4772L131.307 0.773047H139.938L123.597 41.6259H116.75L109.558 24.4792L102.423 41.6259H95.5755L79.2919 0.773047H87.8077L99.4306 32.4772L104.494 19.4733L97.5318 0.888128Z"/>
<path d="M152.064 15.388V41.6259H144.123V0.773047H150.453L171.57 27.7014V0.830586H179.51V41.6259H172.893L152.064 15.388Z"/>
<path d="M218.562 7.73529H205.5V41.6259H197.617V7.73529H184.556V0.773047H218.562V7.73529Z"/>
<path d="M240.112 41.9136C237.12 41.9136 234.397 41.3382 231.942 40.1874C229.525 39.0366 227.434 37.4831 225.67 35.5267C223.944 33.532 222.601 31.3072 221.642 28.8522C220.683 26.3588 220.204 23.8079 220.204 21.1995C220.204 18.476 220.702 15.8867 221.7 13.4317C222.735 10.9383 224.135 8.73264 225.9 6.81467C227.703 4.85833 229.813 3.32395 232.229 2.21153C234.684 1.06074 237.37 0.485352 240.285 0.485352C243.239 0.485352 245.924 1.07992 248.34 2.26907C250.795 3.45821 252.886 5.05013 254.612 7.04482C256.338 9.03952 257.681 11.2644 258.64 13.7194C259.599 16.1744 260.078 18.7061 260.078 21.3146C260.078 23.9997 259.58 26.589 258.582 29.0823C257.585 31.5374 256.185 33.743 254.382 35.6994C252.617 37.6173 250.508 39.1325 248.053 40.245C245.636 41.3574 242.989 41.9136 240.112 41.9136ZM228.259 21.1995C228.259 22.964 228.528 24.671 229.065 26.3205C229.602 27.9699 230.369 29.4468 231.366 30.751C232.402 32.0168 233.649 33.0334 235.106 33.8006C236.602 34.5294 238.29 34.8938 240.17 34.8938C242.088 34.8938 243.795 34.5102 245.291 33.743C246.787 32.9375 248.033 31.8826 249.031 30.5784C250.028 29.2358 250.776 27.7589 251.275 26.1478C251.812 24.4984 252.08 22.8489 252.08 21.1995C252.08 19.4349 251.793 17.7471 251.217 16.136C250.68 14.4866 249.894 13.0289 248.858 11.763C247.861 10.4588 246.614 9.44229 245.118 8.71346C243.66 7.94627 242.011 7.56268 240.17 7.56268C238.213 7.56268 236.487 7.96545 234.991 8.771C233.534 9.53819 232.306 10.5739 231.309 11.8781C230.311 13.1823 229.544 14.64 229.007 16.2511C228.508 17.8622 228.259 19.5117 228.259 21.1995Z"/>
<path d="M278.522 0.888128H285.887L290.548 14.4098L295.266 0.888128H302.573L295.554 19.4733L300.732 32.4772L312.297 0.773047H320.928L304.587 41.6259H297.74L290.548 24.4792L283.413 41.6259H276.566L260.282 0.773047H268.798L280.421 32.4772L285.484 19.4733L278.522 0.888128Z"/>
<path d="M333.054 15.388V41.6259H325.113V0.773047H331.443L352.56 27.7014V0.830586H360.5V41.6259H353.883L333.054 15.388Z"/>
<path d="M68.7573 75.1641H55.6959V109.055H47.813V75.1641H34.7516V68.2018H68.7573V75.1641Z"/>
<path d="M102.196 102.092V109.055H73.8288V68.2018H101.678V75.1641H81.7692V85.0033H98.9734V91.4477H81.7692V102.092H102.196Z"/>
<path d="M108.386 109.055V68.2018H126.453C128.333 68.2018 130.059 68.5854 131.632 69.3526C133.243 70.1198 134.624 71.1555 135.775 72.4597C136.964 73.764 137.865 75.2216 138.479 76.8327C139.131 78.4438 139.457 80.0933 139.457 81.7811C139.457 83.5073 139.15 85.1759 138.537 86.787C137.961 88.3597 137.117 89.7407 136.005 90.9298C134.892 92.119 133.588 93.0396 132.092 93.6917L141.414 109.055H132.668L124.267 95.3603H116.326V109.055H108.386ZM116.326 88.3981H126.281C127.278 88.3981 128.16 88.1104 128.928 87.535C129.695 86.9213 130.308 86.1157 130.769 85.1184C131.229 84.121 131.459 83.0086 131.459 81.7811C131.459 80.4769 131.191 79.3453 130.654 78.3863C130.117 77.3889 129.426 76.6026 128.582 76.0272C127.777 75.4518 126.895 75.1641 125.936 75.1641H116.326V88.3981Z"/>
<path d="M146.652 109.055V68.2018H164.719C166.599 68.2018 168.325 68.5854 169.898 69.3526C171.509 70.1198 172.89 71.1555 174.041 72.4597C175.23 73.764 176.131 75.2216 176.745 76.8327C177.397 78.4438 177.723 80.0933 177.723 81.7811C177.723 83.5073 177.416 85.1759 176.802 86.787C176.227 88.3597 175.383 89.7407 174.271 90.9298C173.158 92.119 171.854 93.0396 170.358 93.6917L179.679 109.055H170.933L162.533 95.3603H154.592V109.055H146.652ZM154.592 88.3981H164.547C165.544 88.3981 166.426 88.1104 167.193 87.535C167.961 86.9213 168.574 86.1157 169.035 85.1184C169.495 84.121 169.725 83.0086 169.725 81.7811C169.725 80.4769 169.457 79.3453 168.92 78.3863C168.383 77.3889 167.692 76.6026 166.848 76.0272C166.043 75.4518 165.16 75.1641 164.201 75.1641H154.592V88.3981Z"/>
<path d="M196.023 68.2018H204.078L219.096 109.055H210.925L207.128 98.8702H192.858L189.118 109.055H180.948L196.023 68.2018ZM205.689 93.2889L200.051 76.4299L194.182 93.2889H205.689Z"/>
<path d="M219.529 88.3406C219.529 85.8472 219.97 83.4114 220.853 81.0331C221.773 78.6164 223.097 76.4299 224.823 74.4736C226.549 72.4789 228.659 70.9062 231.152 69.7554C233.646 68.5662 236.484 67.9717 239.668 67.9717C243.427 67.9717 246.669 68.7964 249.392 70.4459C252.154 72.0953 254.206 74.2434 255.549 76.8903L249.45 81.0906C248.759 79.5562 247.858 78.3479 246.745 77.4656C245.633 76.545 244.444 75.9121 243.178 75.5668C241.912 75.1833 240.665 74.9915 239.438 74.9915C237.443 74.9915 235.698 75.3942 234.202 76.1998C232.744 77.0053 231.517 78.0602 230.519 79.3644C229.522 80.6687 228.774 82.1263 228.275 83.7374C227.815 85.3485 227.585 86.9596 227.585 88.5707C227.585 90.3736 227.873 92.119 228.448 93.8068C229.023 95.4562 229.829 96.9331 230.865 98.2373C231.939 99.5032 233.205 100.52 234.662 101.287C236.158 102.016 237.788 102.38 239.553 102.38C240.819 102.38 242.104 102.169 243.408 101.747C244.712 101.325 245.921 100.654 247.033 99.7333C248.146 98.8127 249.009 97.6236 249.622 96.1659L256.124 99.9059C255.319 101.939 253.995 103.665 252.154 105.084C250.351 106.504 248.318 107.578 246.055 108.307C243.792 109.036 241.548 109.4 239.323 109.4C236.408 109.4 233.742 108.805 231.325 107.616C228.908 106.389 226.818 104.778 225.053 102.783C223.327 100.75 221.965 98.4866 220.968 95.9933C220.009 93.4616 219.529 90.9106 219.529 88.3406Z"/>
<path d="M289.816 102.092V109.055H261.449V68.2018H289.298V75.1641H269.39V85.0033H286.594V91.4477H269.39V102.092H289.816Z"/>
<path d="M320.346 78.9041C320.077 78.6356 319.579 78.2712 318.85 77.8109C318.159 77.3506 317.296 76.9094 316.26 76.4875C315.263 76.0655 314.17 75.7011 312.981 75.3942C311.792 75.049 310.583 74.8764 309.356 74.8764C307.208 74.8764 305.577 75.2792 304.465 76.0847C303.391 76.8902 302.854 78.0219 302.854 79.4795C302.854 80.5919 303.199 81.4742 303.89 82.1263C304.58 82.7784 305.616 83.3346 306.997 83.795C308.378 84.2553 310.104 84.754 312.175 85.291C314.86 85.9431 317.181 86.7486 319.137 87.7076C321.132 88.6283 322.647 89.8558 323.683 91.3901C324.757 92.8862 325.294 94.8809 325.294 97.3742C325.294 99.5607 324.891 101.44 324.086 103.013C323.28 104.547 322.168 105.794 320.749 106.753C319.329 107.712 317.718 108.422 315.915 108.882C314.112 109.304 312.194 109.515 310.161 109.515C308.128 109.515 306.095 109.304 304.062 108.882C302.029 108.46 300.073 107.866 298.193 107.098C296.314 106.293 294.587 105.334 293.015 104.221L296.524 97.3742C296.87 97.7195 297.483 98.1798 298.366 98.7552C299.248 99.2922 300.322 99.8484 301.588 100.424C302.854 100.961 304.235 101.421 305.731 101.805C307.227 102.188 308.742 102.38 310.276 102.38C312.424 102.38 314.055 102.016 315.167 101.287C316.28 100.558 316.836 99.5223 316.836 98.1798C316.836 96.9523 316.395 95.9933 315.512 95.3028C314.63 94.6123 313.403 94.0178 311.83 93.5191C310.257 92.9821 308.397 92.4067 306.249 91.7929C303.679 91.0641 301.53 90.2585 299.804 89.3763C298.078 88.4556 296.793 87.3049 295.949 85.9239C295.105 84.543 294.683 82.8168 294.683 80.7454C294.683 77.9451 295.335 75.6052 296.64 73.7256C297.982 71.8076 299.785 70.3691 302.048 69.4102C304.311 68.4128 306.824 67.9141 309.586 67.9141C311.504 67.9141 313.307 68.1251 314.995 68.5471C316.721 68.969 318.332 69.5252 319.828 70.2157C321.324 70.9062 322.666 71.6542 323.856 72.4597L320.346 78.9041Z"/>
</mask>
<path d="M0.5 41.6259V0.773047H15.3451C19.7948 0.773047 23.5157 1.69367 26.5077 3.53493C29.4998 5.33783 31.7438 7.79283 33.2398 10.9C34.7358 13.9687 35.4839 17.3827 35.4839 21.1419C35.4839 25.2848 34.6591 28.8906 33.0097 31.9593C31.3602 35.0281 29.0203 37.4064 25.9899 39.0942C22.9978 40.782 19.4496 41.6259 15.3451 41.6259H0.5ZM27.4859 21.1419C27.4859 18.4951 27.0064 16.1744 26.0474 14.1797C25.0884 12.1466 23.7075 10.5739 21.9046 9.46147C20.1017 8.31069 17.9152 7.73529 15.3451 7.73529H8.44041V34.6637H15.3451C17.9536 34.6637 20.1592 34.0883 21.9621 32.9375C23.765 31.7483 25.1268 30.1372 26.0474 28.1042C27.0064 26.0328 27.4859 23.712 27.4859 21.1419Z" stroke="white" stroke-width="2" mask="url(#path-1-inside-1_1325_463)"/>
<path d="M59.1221 41.9136C56.1301 41.9136 53.4066 41.3382 50.9516 40.1874C48.5349 39.0366 46.4443 37.4831 44.6798 35.5267C42.9536 33.532 41.611 31.3072 40.652 28.8522C39.6931 26.3588 39.2136 23.8079 39.2136 21.1995C39.2136 18.476 39.7122 15.8867 40.7096 13.4317C41.7453 10.9383 43.1454 8.73264 44.9099 6.81467C46.7128 4.85833 48.8226 3.32395 51.2393 2.21153C53.6943 1.06074 56.3794 0.485352 59.2948 0.485352C62.2484 0.485352 64.9336 1.07992 67.3503 2.26907C69.8053 3.45821 71.8958 5.05013 73.622 7.04482C75.3482 9.03952 76.6908 11.2644 77.6498 13.7194C78.6088 16.1744 79.0882 18.7061 79.0882 21.3146C79.0882 23.9997 78.5896 26.589 77.5922 29.0823C76.5949 31.5374 75.1948 33.743 73.3919 35.6994C71.6273 37.6173 69.5176 39.1325 67.0625 40.245C64.6459 41.3574 61.9991 41.9136 59.1221 41.9136ZM47.2691 21.1995C47.2691 22.964 47.5376 24.671 48.0746 26.3205C48.6116 27.9699 49.3788 29.4468 50.3762 30.751C51.4119 32.0168 52.6586 33.0334 54.1162 33.8006C55.6122 34.5294 57.3001 34.8938 59.1797 34.8938C61.0976 34.8938 62.8046 34.5102 64.3007 33.743C65.7967 32.9375 67.0434 31.8826 68.0407 30.5784C69.0381 29.2358 69.7861 27.7589 70.2847 26.1478C70.8218 24.4984 71.0903 22.8489 71.0903 21.1995C71.0903 19.4349 70.8026 17.7471 70.2272 16.136C69.6902 14.4866 68.9038 13.0289 67.8681 11.763C66.8707 10.4588 65.6241 9.44229 64.128 8.71346C62.6704 7.94627 61.0209 7.56268 59.1797 7.56268C57.2233 7.56268 55.4972 7.96545 54.0011 8.771C52.5435 9.53819 51.316 10.5739 50.3186 11.8781C49.3213 13.1823 48.5541 14.64 48.0171 16.2511C47.5184 17.8622 47.2691 19.5117 47.2691 21.1995Z" stroke="white" stroke-width="2" mask="url(#path-1-inside-1_1325_463)"/>
<path d="M97.5318 0.888128H104.897L109.558 14.4098L114.276 0.888128H121.583L114.563 19.4733L119.742 32.4772L131.307 0.773047H139.938L123.597 41.6259H116.75L109.558 24.4792L102.423 41.6259H95.5755L79.2919 0.773047H87.8077L99.4306 32.4772L104.494 19.4733L97.5318 0.888128Z" stroke="white" stroke-width="2" mask="url(#path-1-inside-1_1325_463)"/>
<path d="M152.064 15.388V41.6259H144.123V0.773047H150.453L171.57 27.7014V0.830586H179.51V41.6259H172.893L152.064 15.388Z" stroke="white" stroke-width="2" mask="url(#path-1-inside-1_1325_463)"/>
<path d="M218.562 7.73529H205.5V41.6259H197.617V7.73529H184.556V0.773047H218.562V7.73529Z" stroke="white" stroke-width="2" mask="url(#path-1-inside-1_1325_463)"/>
<path d="M240.112 41.9136C237.12 41.9136 234.397 41.3382 231.942 40.1874C229.525 39.0366 227.434 37.4831 225.67 35.5267C223.944 33.532 222.601 31.3072 221.642 28.8522C220.683 26.3588 220.204 23.8079 220.204 21.1995C220.204 18.476 220.702 15.8867 221.7 13.4317C222.735 10.9383 224.135 8.73264 225.9 6.81467C227.703 4.85833 229.813 3.32395 232.229 2.21153C234.684 1.06074 237.37 0.485352 240.285 0.485352C243.239 0.485352 245.924 1.07992 248.34 2.26907C250.795 3.45821 252.886 5.05013 254.612 7.04482C256.338 9.03952 257.681 11.2644 258.64 13.7194C259.599 16.1744 260.078 18.7061 260.078 21.3146C260.078 23.9997 259.58 26.589 258.582 29.0823C257.585 31.5374 256.185 33.743 254.382 35.6994C252.617 37.6173 250.508 39.1325 248.053 40.245C245.636 41.3574 242.989 41.9136 240.112 41.9136ZM228.259 21.1995C228.259 22.964 228.528 24.671 229.065 26.3205C229.602 27.9699 230.369 29.4468 231.366 30.751C232.402 32.0168 233.649 33.0334 235.106 33.8006C236.602 34.5294 238.29 34.8938 240.17 34.8938C242.088 34.8938 243.795 34.5102 245.291 33.743C246.787 32.9375 248.033 31.8826 249.031 30.5784C250.028 29.2358 250.776 27.7589 251.275 26.1478C251.812 24.4984 252.08 22.8489 252.08 21.1995C252.08 19.4349 251.793 17.7471 251.217 16.136C250.68 14.4866 249.894 13.0289 248.858 11.763C247.861 10.4588 246.614 9.44229 245.118 8.71346C243.66 7.94627 242.011 7.56268 240.17 7.56268C238.213 7.56268 236.487 7.96545 234.991 8.771C233.534 9.53819 232.306 10.5739 231.309 11.8781C230.311 13.1823 229.544 14.64 229.007 16.2511C228.508 17.8622 228.259 19.5117 228.259 21.1995Z" stroke="white" stroke-width="2" mask="url(#path-1-inside-1_1325_463)"/>
<path d="M278.522 0.888128H285.887L290.548 14.4098L295.266 0.888128H302.573L295.554 19.4733L300.732 32.4772L312.297 0.773047H320.928L304.587 41.6259H297.74L290.548 24.4792L283.413 41.6259H276.566L260.282 0.773047H268.798L280.421 32.4772L285.484 19.4733L278.522 0.888128Z" stroke="white" stroke-width="2" mask="url(#path-1-inside-1_1325_463)"/>
<path d="M333.054 15.388V41.6259H325.113V0.773047H331.443L352.56 27.7014V0.830586H360.5V41.6259H353.883L333.054 15.388Z" stroke="white" stroke-width="2" mask="url(#path-1-inside-1_1325_463)"/>
<path d="M68.7573 75.1641H55.6959V109.055H47.813V75.1641H34.7516V68.2018H68.7573V75.1641Z" stroke="white" stroke-width="2" mask="url(#path-1-inside-1_1325_463)"/>
<path d="M102.196 102.092V109.055H73.8288V68.2018H101.678V75.1641H81.7692V85.0033H98.9734V91.4477H81.7692V102.092H102.196Z" stroke="white" stroke-width="2" mask="url(#path-1-inside-1_1325_463)"/>
<path d="M108.386 109.055V68.2018H126.453C128.333 68.2018 130.059 68.5854 131.632 69.3526C133.243 70.1198 134.624 71.1555 135.775 72.4597C136.964 73.764 137.865 75.2216 138.479 76.8327C139.131 78.4438 139.457 80.0933 139.457 81.7811C139.457 83.5073 139.15 85.1759 138.537 86.787C137.961 88.3597 137.117 89.7407 136.005 90.9298C134.892 92.119 133.588 93.0396 132.092 93.6917L141.414 109.055H132.668L124.267 95.3603H116.326V109.055H108.386ZM116.326 88.3981H126.281C127.278 88.3981 128.16 88.1104 128.928 87.535C129.695 86.9213 130.308 86.1157 130.769 85.1184C131.229 84.121 131.459 83.0086 131.459 81.7811C131.459 80.4769 131.191 79.3453 130.654 78.3863C130.117 77.3889 129.426 76.6026 128.582 76.0272C127.777 75.4518 126.895 75.1641 125.936 75.1641H116.326V88.3981Z" stroke="white" stroke-width="2" mask="url(#path-1-inside-1_1325_463)"/>
<path d="M146.652 109.055V68.2018H164.719C166.599 68.2018 168.325 68.5854 169.898 69.3526C171.509 70.1198 172.89 71.1555 174.041 72.4597C175.23 73.764 176.131 75.2216 176.745 76.8327C177.397 78.4438 177.723 80.0933 177.723 81.7811C177.723 83.5073 177.416 85.1759 176.802 86.787C176.227 88.3597 175.383 89.7407 174.271 90.9298C173.158 92.119 171.854 93.0396 170.358 93.6917L179.679 109.055H170.933L162.533 95.3603H154.592V109.055H146.652ZM154.592 88.3981H164.547C165.544 88.3981 166.426 88.1104 167.193 87.535C167.961 86.9213 168.574 86.1157 169.035 85.1184C169.495 84.121 169.725 83.0086 169.725 81.7811C169.725 80.4769 169.457 79.3453 168.92 78.3863C168.383 77.3889 167.692 76.6026 166.848 76.0272C166.043 75.4518 165.16 75.1641 164.201 75.1641H154.592V88.3981Z" stroke="white" stroke-width="2" mask="url(#path-1-inside-1_1325_463)"/>
<path d="M196.023 68.2018H204.078L219.096 109.055H210.925L207.128 98.8702H192.858L189.118 109.055H180.948L196.023 68.2018ZM205.689 93.2889L200.051 76.4299L194.182 93.2889H205.689Z" stroke="white" stroke-width="2" mask="url(#path-1-inside-1_1325_463)"/>
<path d="M219.529 88.3406C219.529 85.8472 219.97 83.4114 220.853 81.0331C221.773 78.6164 223.097 76.4299 224.823 74.4736C226.549 72.4789 228.659 70.9062 231.152 69.7554C233.646 68.5662 236.484 67.9717 239.668 67.9717C243.427 67.9717 246.669 68.7964 249.392 70.4459C252.154 72.0953 254.206 74.2434 255.549 76.8903L249.45 81.0906C248.759 79.5562 247.858 78.3479 246.745 77.4656C245.633 76.545 244.444 75.9121 243.178 75.5668C241.912 75.1833 240.665 74.9915 239.438 74.9915C237.443 74.9915 235.698 75.3942 234.202 76.1998C232.744 77.0053 231.517 78.0602 230.519 79.3644C229.522 80.6687 228.774 82.1263 228.275 83.7374C227.815 85.3485 227.585 86.9596 227.585 88.5707C227.585 90.3736 227.873 92.119 228.448 93.8068C229.023 95.4562 229.829 96.9331 230.865 98.2373C231.939 99.5032 233.205 100.52 234.662 101.287C236.158 102.016 237.788 102.38 239.553 102.38C240.819 102.38 242.104 102.169 243.408 101.747C244.712 101.325 245.921 100.654 247.033 99.7333C248.146 98.8127 249.009 97.6236 249.622 96.1659L256.124 99.9059C255.319 101.939 253.995 103.665 252.154 105.084C250.351 106.504 248.318 107.578 246.055 108.307C243.792 109.036 241.548 109.4 239.323 109.4C236.408 109.4 233.742 108.805 231.325 107.616C228.908 106.389 226.818 104.778 225.053 102.783C223.327 100.75 221.965 98.4866 220.968 95.9933C220.009 93.4616 219.529 90.9106 219.529 88.3406Z" stroke="white" stroke-width="2" mask="url(#path-1-inside-1_1325_463)"/>
<path d="M289.816 102.092V109.055H261.449V68.2018H289.298V75.1641H269.39V85.0033H286.594V91.4477H269.39V102.092H289.816Z" stroke="white" stroke-width="2" mask="url(#path-1-inside-1_1325_463)"/>
<path d="M320.346 78.9041C320.077 78.6356 319.579 78.2712 318.85 77.8109C318.159 77.3506 317.296 76.9094 316.26 76.4875C315.263 76.0655 314.17 75.7011 312.981 75.3942C311.792 75.049 310.583 74.8764 309.356 74.8764C307.208 74.8764 305.577 75.2792 304.465 76.0847C303.391 76.8902 302.854 78.0219 302.854 79.4795C302.854 80.5919 303.199 81.4742 303.89 82.1263C304.58 82.7784 305.616 83.3346 306.997 83.795C308.378 84.2553 310.104 84.754 312.175 85.291C314.86 85.9431 317.181 86.7486 319.137 87.7076C321.132 88.6283 322.647 89.8558 323.683 91.3901C324.757 92.8862 325.294 94.8809 325.294 97.3742C325.294 99.5607 324.891 101.44 324.086 103.013C323.28 104.547 322.168 105.794 320.749 106.753C319.329 107.712 317.718 108.422 315.915 108.882C314.112 109.304 312.194 109.515 310.161 109.515C308.128 109.515 306.095 109.304 304.062 108.882C302.029 108.46 300.073 107.866 298.193 107.098C296.314 106.293 294.587 105.334 293.015 104.221L296.524 97.3742C296.87 97.7195 297.483 98.1798 298.366 98.7552C299.248 99.2922 300.322 99.8484 301.588 100.424C302.854 100.961 304.235 101.421 305.731 101.805C307.227 102.188 308.742 102.38 310.276 102.38C312.424 102.38 314.055 102.016 315.167 101.287C316.28 100.558 316.836 99.5223 316.836 98.1798C316.836 96.9523 316.395 95.9933 315.512 95.3028C314.63 94.6123 313.403 94.0178 311.83 93.5191C310.257 92.9821 308.397 92.4067 306.249 91.7929C303.679 91.0641 301.53 90.2585 299.804 89.3763C298.078 88.4556 296.793 87.3049 295.949 85.9239C295.105 84.543 294.683 82.8168 294.683 80.7454C294.683 77.9451 295.335 75.6052 296.64 73.7256C297.982 71.8076 299.785 70.3691 302.048 69.4102C304.311 68.4128 306.824 67.9141 309.586 67.9141C311.504 67.9141 313.307 68.1251 314.995 68.5471C316.721 68.969 318.332 69.5252 319.828 70.2157C321.324 70.9062 322.666 71.6542 323.856 72.4597L320.346 78.9041Z" stroke="white" stroke-width="2" mask="url(#path-1-inside-1_1325_463)"/>
</g>
</svg>
