<svg width="361" height="110" viewBox="0 0 361 110" fill="none" xmlns="http://www.w3.org/2000/svg">
<path d="M0.5 41.6257V0.772803H15.3451C19.7948 0.772803 23.5157 1.69343 26.5077 3.53468C29.4998 5.33758 31.7438 7.79259 33.2398 10.8997C34.7358 13.9685 35.4839 17.3825 35.4839 21.1417C35.4839 25.2845 34.6591 28.8903 33.0097 31.9591C31.3602 35.0278 29.0203 37.4061 25.9899 39.0939C22.9978 40.7817 19.4496 41.6257 15.3451 41.6257H0.5ZM27.4859 21.1417C27.4859 18.4949 27.0064 16.1741 26.0474 14.1794C25.0884 12.1464 23.7075 10.5737 21.9046 9.46123C20.1017 8.31044 17.9152 7.73505 15.3451 7.73505H8.44041V34.6634H15.3451C17.9536 34.6634 20.1592 34.088 21.9621 32.9372C23.765 31.7481 25.1268 30.137 26.0474 28.1039C27.0064 26.0325 27.4859 23.7118 27.4859 21.1417Z" fill="white"/>
<path d="M59.1221 41.9134C56.1301 41.9134 53.4066 41.338 50.9516 40.1872C48.5349 39.0364 46.4443 37.4828 44.6798 35.5265C42.9536 33.5318 41.611 31.307 40.652 28.8519C39.6931 26.3586 39.2136 23.8077 39.2136 21.1992C39.2136 18.4757 39.7122 15.8864 40.7096 13.4314C41.7453 10.9381 43.1454 8.7324 44.9099 6.81442C46.7128 4.85809 48.8226 3.32371 51.2393 2.21128C53.6943 1.0605 56.3794 0.485107 59.2948 0.485107C62.2484 0.485107 64.9336 1.07968 67.3503 2.26882C69.8053 3.45797 71.8958 5.04989 73.622 7.04458C75.3482 9.03927 76.6908 11.2641 77.6498 13.7191C78.6087 16.1741 79.0882 18.7059 79.0882 21.3143C79.0882 23.9995 78.5896 26.5887 77.5922 29.0821C76.5949 31.5371 75.1948 33.7428 73.3919 35.6991C71.6273 37.6171 69.5176 39.1323 67.0625 40.2447C64.6459 41.3571 61.9991 41.9134 59.1221 41.9134ZM47.2691 21.1992C47.2691 22.9638 47.5376 24.6708 48.0746 26.3202C48.6116 27.9697 49.3788 29.4465 50.3762 30.7507C51.4119 32.0166 52.6586 33.0331 54.1162 33.8003C55.6122 34.5291 57.3001 34.8936 59.1797 34.8936C61.0976 34.8936 62.8046 34.51 64.3007 33.7428C65.7967 32.9372 67.0434 31.8823 68.0407 30.5781C69.0381 29.2355 69.7861 27.7587 70.2847 26.1476C70.8218 24.4981 71.0903 22.8487 71.0903 21.1992C71.0903 19.4347 70.8026 17.7469 70.2272 16.1358C69.6902 14.4863 68.9038 13.0287 67.8681 11.7628C66.8708 10.4586 65.6241 9.44205 64.128 8.71322C62.6704 7.94603 61.0209 7.56243 59.1797 7.56243C57.2233 7.56243 55.4972 7.96521 54.0011 8.77076C52.5435 9.53795 51.316 10.5737 50.3186 11.8779C49.3213 13.1821 48.5541 14.6398 48.0171 16.2509C47.5184 17.862 47.2691 19.5114 47.2691 21.1992Z" fill="white"/>
<path d="M97.5318 0.887884H104.897L109.558 14.4096L114.276 0.887884H121.583L114.563 19.4731L119.742 32.4769L131.307 0.772803H139.938L123.597 41.6257H116.75L109.558 24.479L102.423 41.6257H95.5755L79.2919 0.772803H87.8077L99.4306 32.4769L104.494 19.4731L97.5318 0.887884Z" fill="white"/>
<path d="M152.064 15.3878V41.6257H144.123V0.772803H150.453L171.57 27.7012V0.830342H179.51V41.6257H172.893L152.064 15.3878Z" fill="white"/>
<path d="M218.562 7.73505H205.5V41.6257H197.617V7.73505H184.556V0.772803H218.562V7.73505Z" fill="white"/>
<path d="M240.112 41.9134C237.12 41.9134 234.397 41.338 231.942 40.1872C229.525 39.0364 227.434 37.4828 225.67 35.5265C223.944 33.5318 222.601 31.307 221.642 28.8519C220.683 26.3586 220.204 23.8077 220.204 21.1992C220.204 18.4757 220.702 15.8864 221.7 13.4314C222.735 10.9381 224.135 8.7324 225.9 6.81442C227.703 4.85809 229.813 3.32371 232.229 2.21128C234.684 1.0605 237.37 0.485107 240.285 0.485107C243.239 0.485107 245.924 1.07968 248.34 2.26882C250.795 3.45797 252.886 5.04989 254.612 7.04458C256.338 9.03927 257.681 11.2641 258.64 13.7191C259.599 16.1741 260.078 18.7059 260.078 21.3143C260.078 23.9995 259.58 26.5887 258.582 29.0821C257.585 31.5371 256.185 33.7428 254.382 35.6991C252.617 37.6171 250.508 39.1323 248.053 40.2447C245.636 41.3571 242.989 41.9134 240.112 41.9134ZM228.259 21.1992C228.259 22.9638 228.528 24.6708 229.065 26.3202C229.602 27.9697 230.369 29.4465 231.366 30.7507C232.402 32.0166 233.649 33.0331 235.106 33.8003C236.602 34.5291 238.29 34.8936 240.17 34.8936C242.088 34.8936 243.795 34.51 245.291 33.7428C246.787 32.9372 248.033 31.8823 249.031 30.5781C250.028 29.2355 250.776 27.7587 251.275 26.1476C251.812 24.4981 252.08 22.8487 252.08 21.1992C252.08 19.4347 251.793 17.7469 251.217 16.1358C250.68 14.4863 249.894 13.0287 248.858 11.7628C247.861 10.4586 246.614 9.44205 245.118 8.71322C243.66 7.94603 242.011 7.56243 240.17 7.56243C238.213 7.56243 236.487 7.96521 234.991 8.77076C233.534 9.53795 232.306 10.5737 231.309 11.8779C230.311 13.1821 229.544 14.6398 229.007 16.2509C228.508 17.862 228.259 19.5114 228.259 21.1992Z" fill="white"/>
<path d="M278.522 0.887884H285.887L290.548 14.4096L295.266 0.887884H302.573L295.554 19.4731L300.732 32.4769L312.297 0.772803H320.928L304.587 41.6257H297.74L290.548 24.479L283.413 41.6257H276.566L260.282 0.772803H268.798L280.421 32.4769L285.484 19.4731L278.522 0.887884Z" fill="white"/>
<path d="M333.054 15.3878V41.6257H325.113V0.772803H331.443L352.56 27.7012V0.830342H360.5V41.6257H353.883L333.054 15.3878Z" fill="white"/>
<path d="M68.7573 75.1638H55.6959V109.054H47.813V75.1638H34.7516V68.2016H68.7573V75.1638Z" fill="white"/>
<path d="M102.196 102.092V109.054H73.8288V68.2016H101.678V75.1638H81.7692V85.003H98.9734V91.4474H81.7692V102.092H102.196Z" fill="white"/>
<path d="M108.386 109.054V68.2016H126.453C128.333 68.2016 130.059 68.5852 131.632 69.3524C133.243 70.1196 134.624 71.1553 135.775 72.4595C136.964 73.7637 137.865 75.2214 138.479 76.8325C139.131 78.4436 139.457 80.093 139.457 81.7808C139.457 83.507 139.15 85.1757 138.537 86.7868C137.961 88.3595 137.117 89.7404 136.005 90.9296C134.892 92.1187 133.588 93.0393 132.092 93.6915L141.414 109.054H132.668L124.267 95.3601H116.326V109.054H108.386ZM116.326 88.3979H126.281C127.278 88.3979 128.16 88.1102 128.928 87.5348C129.695 86.921 130.308 86.1155 130.769 85.1181C131.229 84.1208 131.459 83.0083 131.459 81.7808C131.459 80.4766 131.191 79.345 130.654 78.386C130.117 77.3887 129.426 76.6023 128.582 76.0269C127.777 75.4515 126.895 75.1638 125.936 75.1638H116.326V88.3979Z" fill="white"/>
<path d="M146.652 109.054V68.2016H164.719C166.599 68.2016 168.325 68.5852 169.898 69.3524C171.509 70.1196 172.89 71.1553 174.041 72.4595C175.23 73.7637 176.131 75.2214 176.745 76.8325C177.397 78.4436 177.723 80.093 177.723 81.7808C177.723 83.507 177.416 85.1757 176.802 86.7868C176.227 88.3595 175.383 89.7404 174.271 90.9296C173.158 92.1187 171.854 93.0393 170.358 93.6915L179.679 109.054H170.933L162.533 95.3601H154.592V109.054H146.652ZM154.592 88.3979H164.547C165.544 88.3979 166.426 88.1102 167.193 87.5348C167.961 86.921 168.574 86.1155 169.035 85.1181C169.495 84.1208 169.725 83.0083 169.725 81.7808C169.725 80.4766 169.457 79.345 168.92 78.386C168.383 77.3887 167.692 76.6023 166.848 76.0269C166.043 75.4515 165.16 75.1638 164.201 75.1638H154.592V88.3979Z" fill="white"/>
<path d="M196.023 68.2016H204.078L219.096 109.054H210.925L207.128 98.87H192.858L189.118 109.054H180.948L196.023 68.2016ZM205.689 93.2887L200.051 76.4297L194.182 93.2887H205.689Z" fill="white"/>
<path d="M219.529 88.3403C219.529 85.8469 219.97 83.4111 220.853 81.0328C221.773 78.6162 223.097 76.4297 224.823 74.4734C226.549 72.4787 228.659 70.9059 231.152 69.7551C233.646 68.566 236.484 67.9714 239.668 67.9714C243.427 67.9714 246.669 68.7962 249.392 70.4456C252.154 72.0951 254.206 74.2432 255.549 76.89L249.45 81.0904C248.759 79.556 247.858 78.3477 246.745 77.4654C245.633 76.5448 244.444 75.9118 243.178 75.5666C241.912 75.183 240.665 74.9912 239.438 74.9912C237.443 74.9912 235.698 75.394 234.202 76.1995C232.744 77.0051 231.517 78.06 230.519 79.3642C229.522 80.6684 228.774 82.1261 228.275 83.7372C227.815 85.3483 227.585 86.9594 227.585 88.5705C227.585 90.3734 227.873 92.1187 228.448 93.8065C229.023 95.456 229.829 96.9328 230.865 98.2371C231.939 99.5029 233.204 100.519 234.662 101.287C236.158 102.015 237.788 102.38 239.553 102.38C240.819 102.38 242.104 102.169 243.408 101.747C244.712 101.325 245.921 100.654 247.033 99.7331C248.146 98.8125 249.009 97.6233 249.622 96.1656L256.124 99.9057C255.319 101.939 253.995 103.665 252.154 105.084C250.351 106.504 248.318 107.578 246.055 108.306C243.792 109.035 241.548 109.4 239.323 109.4C236.408 109.4 233.742 108.805 231.325 107.616C228.908 106.388 226.818 104.777 225.053 102.783C223.327 100.75 221.965 98.4864 220.968 95.993C220.009 93.4613 219.529 90.9104 219.529 88.3403Z" fill="white"/>
<path d="M289.816 102.092V109.054H261.449V68.2016H289.298V75.1638H269.39V85.003H286.594V91.4474H269.39V102.092H289.816Z" fill="white"/>
<path d="M320.346 78.9039C320.077 78.6354 319.579 78.2709 318.85 77.8106C318.159 77.3503 317.296 76.9092 316.26 76.4872C315.263 76.0653 314.17 75.7009 312.981 75.394C311.792 75.0488 310.583 74.8761 309.356 74.8761C307.208 74.8761 305.577 75.2789 304.465 76.0845C303.391 76.89 302.854 78.0216 302.854 79.4793C302.854 80.5917 303.199 81.474 303.89 82.1261C304.58 82.7782 305.616 83.3344 306.997 83.7947C308.378 84.255 310.104 84.7537 312.175 85.2907C314.86 85.9428 317.181 86.7484 319.137 87.7074C321.132 88.628 322.647 89.8555 323.683 91.3899C324.757 92.8859 325.294 94.8806 325.294 97.374C325.294 99.5605 324.891 101.44 324.086 103.013C323.28 104.547 322.168 105.794 320.749 106.753C319.329 107.712 317.718 108.422 315.915 108.882C314.112 109.304 312.194 109.515 310.161 109.515C308.128 109.515 306.095 109.304 304.062 108.882C302.029 108.46 300.073 107.865 298.193 107.098C296.314 106.293 294.587 105.334 293.015 104.221L296.524 97.374C296.87 97.7192 297.483 98.1795 298.366 98.7549C299.248 99.2919 300.322 99.8482 301.588 100.424C302.854 100.961 304.235 101.421 305.731 101.804C307.227 102.188 308.742 102.38 310.276 102.38C312.424 102.38 314.055 102.015 315.167 101.287C316.28 100.558 316.836 99.5221 316.836 98.1795C316.836 96.952 316.395 95.993 315.512 95.3026C314.63 94.6121 313.403 94.0175 311.83 93.5188C310.257 92.9818 308.397 92.4064 306.249 91.7927C303.679 91.0638 301.53 90.2583 299.804 89.376C298.078 88.4554 296.793 87.3046 295.949 85.9237C295.105 84.5427 294.683 82.8166 294.683 80.7451C294.683 77.9449 295.335 75.605 296.64 73.7254C297.982 71.8074 299.785 70.3689 302.048 69.4099C304.311 68.4126 306.824 67.9139 309.586 67.9139C311.504 67.9139 313.307 68.1249 314.995 68.5468C316.721 68.9688 318.332 69.525 319.828 70.2155C321.324 70.9059 322.666 71.6539 323.856 72.4595L320.346 78.9039Z" fill="white"/>
</svg>
