<svg width="234" height="25" viewBox="0 0 234 25" fill="none" xmlns="http://www.w3.org/2000/svg">
<g clip-path="url(#clip0_3910_411)">
<path d="M134.007 4.7465C133.99 4.75661 133.093 5.29247 133.076 5.30259C132.237 5.87553 131.023 6.73159 131.017 8.82784C131.009 10.0714 131.05 11.1297 131.033 11.8206C131.02 12.3665 130.841 12.8957 130.517 13.3203L126.043 19.2215V22.8176L142.642 0.304565L134.007 4.7465ZM133.235 9.33336C132.76 7.37189 135.382 6.52262 135.45 6.75851C135.483 6.87648 133.761 8.85141 133.336 9.37715C133.299 9.421 133.245 9.39067 133.232 9.33671" fill="#D2A749"/>
<path d="M133.713 12.7776L131.761 15.3558C131.714 15.4165 131.69 15.494 131.687 15.5749L131.643 19.2013C131.643 19.3192 131.583 19.4304 131.488 19.4945L130.989 19.8315C129.846 20.6033 129.168 21.9008 129.192 23.2793L129.205 24.0578L133.15 21.0313C133.437 20.8123 133.653 20.4988 133.761 20.1382C133.807 19.9764 133.831 19.8113 133.828 19.6428L133.71 12.7743L133.713 12.7776Z" fill="#D2A749"/>
<path d="M109.447 0.304565L126.042 22.8209V19.2249L121.568 13.3237C121.245 12.899 121.066 12.3699 121.052 11.8239C121.039 11.1331 121.076 10.0748 121.069 8.83119C121.063 6.73159 119.849 5.87889 119.009 5.30596C118.992 5.29585 118.095 4.75661 118.079 4.74987L109.447 0.304565ZM118.749 9.37045C118.325 8.84465 116.602 6.86972 116.635 6.75181C116.703 6.51586 119.326 7.36513 118.851 9.3266C118.837 9.38391 118.784 9.41089 118.746 9.36704" fill="#D2A749"/>
<path d="M118.376 12.7776L120.328 15.3558C120.376 15.4165 120.399 15.494 120.403 15.5749L120.446 19.2013C120.446 19.3192 120.507 19.4304 120.601 19.4945L120.905 19.7001C122.169 20.5528 122.918 21.9884 122.891 23.5118L122.881 24.0578L118.936 21.0313C118.649 20.8123 118.433 20.4988 118.326 20.1382C118.278 19.9764 118.255 19.8113 118.258 19.6428L118.376 12.7743V12.7776Z" fill="#D2A749"/>
<path d="M3.32844 17.0198C3.50722 17.0408 3.71229 17.0566 3.94365 17.0671C4.18552 17.0776 4.44844 17.0829 4.73238 17.0829C5.08994 17.0829 5.44224 17.0671 5.78928 17.0356C6.14686 16.9935 6.48336 16.9146 6.79885 16.7989C7.12488 16.6727 7.4246 16.4992 7.698 16.2784C7.98195 16.047 8.23434 15.7473 8.45518 15.3792C8.79169 14.8113 9.02307 14.2329 9.14927 13.644C9.286 13.0446 9.35434 12.3926 9.35434 11.688C9.35434 10.8572 9.27546 10.1053 9.11772 9.4322C8.95997 8.74866 8.69704 8.17024 8.32899 7.697C7.97141 7.21322 7.49293 6.83993 6.8935 6.577C6.29406 6.31407 5.55266 6.18264 4.66928 6.18264C4.40637 6.18264 4.16449 6.18787 3.94365 6.19841C3.73332 6.20895 3.52825 6.21942 3.32844 6.22996V17.0198ZM0 17.0198H1.75098V6.22996H0V6.00912H2.93408C3.0813 6.00912 3.22854 6.00912 3.37576 6.00912C3.52299 5.9986 3.67023 5.98808 3.81745 5.97757C3.96468 5.97757 4.11191 5.97757 4.25914 5.97757C4.40637 5.96705 4.5536 5.96179 4.70083 5.96179C5.01632 5.96179 5.29501 5.96705 5.53688 5.97757C5.78928 5.98808 6.02064 6.00912 6.23097 6.04066C6.45181 6.0617 6.65688 6.09853 6.84618 6.15109C7.04601 6.19317 7.25631 6.25097 7.47716 6.32461C8.11868 6.53492 8.67079 6.81886 9.13349 7.17644C9.60673 7.52348 9.99056 7.92838 10.285 8.39108C10.59 8.85378 10.8108 9.35857 10.9476 9.90544C11.0948 10.4523 11.1684 11.0254 11.1684 11.6249C11.1684 12.319 11.0843 12.9447 10.916 13.502C10.7477 14.0489 10.5164 14.5379 10.2219 14.9691C9.92746 15.3898 9.58042 15.7578 9.18082 16.0733C8.79169 16.3783 8.37107 16.6254 7.91885 16.8147C7.66645 16.9304 7.4246 17.0198 7.19322 17.0829C6.97237 17.146 6.74099 17.1933 6.49913 17.2249C6.26775 17.2564 6.01012 17.2774 5.72618 17.288C5.44224 17.2985 5.11623 17.3037 4.74815 17.3037C4.59041 17.3037 4.42214 17.2985 4.24337 17.288C4.06459 17.288 3.88581 17.2827 3.70703 17.2722C3.52825 17.2616 3.34947 17.2512 3.17069 17.2406C3.00243 17.2406 2.83943 17.2406 2.68168 17.2406H0V17.0198Z" fill="white"/>
<path d="M15.277 11.609C15.277 12.5555 15.3401 13.381 15.4663 14.0856C15.5925 14.7903 15.8028 15.3792 16.0972 15.8524C16.3917 16.3256 16.7703 16.6779 17.233 16.9093C17.6958 17.1407 18.2689 17.2563 18.9525 17.2563C19.6255 17.2563 20.1934 17.1407 20.6561 16.9093C21.1293 16.6779 21.5132 16.3256 21.8077 15.8524C22.1021 15.3792 22.3124 14.7903 22.4386 14.0856C22.5648 13.381 22.6279 12.5555 22.6279 11.609C22.6279 10.8834 22.5806 10.1841 22.486 9.511C22.3913 8.82746 22.2073 8.22272 21.9338 7.69692C21.671 7.16059 21.2976 6.73467 20.8139 6.41918C20.3406 6.10369 19.7202 5.94594 18.9525 5.94594C18.1848 5.94594 17.559 6.10369 17.0753 6.41918C16.602 6.73467 16.2287 7.16059 15.9553 7.69692C15.6924 8.22272 15.5136 8.82746 15.4189 9.511C15.3243 10.1841 15.277 10.8834 15.277 11.609ZM13.4629 11.609C13.4629 10.7677 13.6259 9.98948 13.9519 9.27438C14.2885 8.55929 14.7144 7.93878 15.2296 7.41298C15.7555 6.88718 16.3444 6.47704 16.9964 6.18256C17.6485 5.87759 18.3005 5.7251 18.9525 5.7251C19.6465 5.7251 20.3196 5.87759 20.9716 6.18256C21.6341 6.47704 22.2231 6.88718 22.7384 7.41298C23.2537 7.93878 23.6638 8.55929 23.9688 9.27438C24.2843 9.98948 24.442 10.7677 24.442 11.609C24.442 12.3452 24.3 13.0655 24.0161 13.7701C23.7322 14.4748 23.3431 15.1004 22.8488 15.6473C22.3545 16.1942 21.7709 16.6359 21.0978 16.9724C20.4353 17.3089 19.7202 17.4772 18.9525 17.4772C18.1637 17.4772 17.4329 17.3142 16.7598 16.9882C16.0868 16.6621 15.5031 16.231 15.0088 15.6946C14.5251 15.1478 14.1465 14.5221 13.873 13.8175C13.5996 13.1024 13.4629 12.3662 13.4629 11.609Z" fill="white"/>
<path d="M25.0801 6.00903H29.8282V6.22988H28.1877L31.4372 15.3791H31.4688L33.5668 9.55832L32.3679 6.22988H31.0429V6.00903H35.7753V6.22988H34.0558L37.3054 15.3791H37.3369L40.6496 6.22988H38.9617V6.00903H42.3375V6.22988H40.9178L36.8322 17.4772H36.4378L33.7246 9.90536H33.693L30.9482 17.4772H30.5223L26.4998 6.22988H25.0801V6.00903Z" fill="white"/>
<path d="M42.5137 17.0197H44.2647V6.22988H42.5137V6.00903H45.8894L51.2213 14.6062H51.2528V6.22988H49.5018V6.00903H53.2404V6.22988H51.4894V17.4614H51.1739L44.5328 6.87664H44.5013V17.0197H46.2523V17.2405H42.5137V17.0197Z" fill="white"/>
<path d="M56.4218 17.0197H58.1728V6.22988H57.2578C57.0475 6.22988 56.8109 6.25089 56.548 6.29298C56.2851 6.32452 56.0169 6.42441 55.7435 6.59269C55.4806 6.76098 55.2229 7.02914 54.9705 7.3972C54.7287 7.75478 54.5184 8.25426 54.3395 8.89578H54.166V6.00903H63.7569V8.89578H63.5833C63.4049 8.25426 63.1893 7.75478 62.9365 7.3972C62.6947 7.02914 62.4371 6.76098 62.1636 6.59269C61.9011 6.42441 61.638 6.32452 61.3749 6.29298C61.1124 6.25089 60.8755 6.22988 60.6652 6.22988H59.7502V17.0197H61.501V17.2405H56.4218V17.0197Z" fill="white"/>
<path d="M67.0839 11.609C67.0839 12.5555 67.1466 13.381 67.2727 14.0856C67.3994 14.7903 67.6095 15.3792 67.9037 15.8524C68.1985 16.3256 68.5767 16.6779 69.0396 16.9093C69.5025 17.1407 70.0756 17.2563 70.759 17.2563C71.432 17.2563 72.0002 17.1407 72.4625 16.9093C72.9357 16.6779 73.3201 16.3256 73.6142 15.8524C73.909 15.3792 74.1191 14.7903 74.2452 14.0856C74.3713 13.381 74.4346 12.5555 74.4346 11.609C74.4346 10.8834 74.3871 10.1841 74.2927 9.511C74.1977 8.82746 74.0138 8.22272 73.7403 7.69692C73.4778 7.16059 73.1044 6.73467 72.6202 6.41918C72.147 6.10369 71.527 5.94594 70.759 5.94594C69.9916 5.94594 69.3654 6.10369 68.8818 6.41918C68.4086 6.73467 68.0353 7.16059 67.7618 7.69692C67.4993 8.22272 67.3202 8.82746 67.2258 9.511C67.1308 10.1841 67.0839 10.8834 67.0839 11.609ZM65.2695 11.609C65.2695 10.7677 65.4328 9.98948 65.7586 9.27438C66.0954 8.55929 66.5211 7.93878 67.0364 7.41298C67.562 6.88718 68.151 6.47704 68.8033 6.18256C69.455 5.87759 70.1073 5.7251 70.759 5.7251C71.4533 5.7251 72.1263 5.87759 72.778 6.18256C73.4407 6.47704 74.0296 6.88718 74.5449 7.41298C75.0601 7.93878 75.4706 8.55929 75.7758 9.27438C76.0913 9.98948 76.249 10.7677 76.249 11.609C76.249 12.3452 76.1065 13.0655 75.8227 13.7701C75.5389 14.4748 75.1497 15.1004 74.6557 15.6473C74.1612 16.1942 73.5777 16.6359 72.9047 16.9724C72.242 17.3089 71.527 17.4772 70.759 17.4772C69.9702 17.4772 69.2394 17.3142 68.5664 16.9882C67.8934 16.6621 67.3099 16.231 66.8153 15.6946C66.3317 15.1478 65.9529 14.5221 65.68 13.8175C65.4066 13.1024 65.2695 12.3662 65.2695 11.609Z" fill="white"/>
<path d="M76.8867 6.00903H81.6349V6.22988H79.9947L83.2441 15.3791H83.2757L85.3733 9.55832L84.1747 6.22988H82.8494V6.00903H87.5818V6.22988H85.8624L89.1123 15.3791H89.144L92.4567 6.22988H90.7684V6.00903H94.1444V6.22988H92.7247L88.6391 17.4772H88.2444L85.5311 9.90536H85.5L82.755 17.4772H82.3293L78.3064 6.22988H76.8867V6.00903Z" fill="white"/>
<path d="M94.3203 17.0197H96.0714V6.22988H94.3203V6.00903H97.6963L103.028 14.6062H103.06V6.22988H101.309V6.00903H105.047V6.22988H103.297V17.4614H102.981L96.34 6.87664H96.3083V17.0197H98.0593V17.2405H94.3203V17.0197Z" fill="white"/>
<path d="M149.282 17.0197H151.033V6.22988H150.118C149.908 6.22988 149.672 6.25089 149.408 6.29298C149.145 6.32452 148.877 6.42441 148.604 6.59269C148.341 6.76098 148.083 7.02914 147.831 7.3972C147.589 7.75478 147.378 8.25426 147.2 8.89578H147.026V6.00903H156.617V8.89578H156.444C156.265 8.25426 156.05 7.75478 155.797 7.3972C155.555 7.02914 155.297 6.76098 155.024 6.59269C154.761 6.42441 154.498 6.32452 154.235 6.29298C153.973 6.25089 153.736 6.22988 153.526 6.22988H152.611V17.0197H154.362V17.2405H149.282V17.0197Z" fill="white"/>
<path d="M157.684 17.0197H159.435V6.22988H157.684V6.00903H166.707V8.73804H166.533C166.396 8.3279 166.249 7.97032 166.092 7.66537C165.934 7.34987 165.744 7.08694 165.523 6.87664C165.303 6.65579 165.04 6.49281 164.735 6.38762C164.43 6.28244 164.062 6.22988 163.63 6.22988H161.012V11.1042H162.037C162.384 11.1042 162.679 11.0727 162.921 11.0096C163.163 10.9465 163.368 10.8308 163.536 10.6625C163.714 10.4838 163.862 10.2472 163.978 9.95268C164.104 9.64773 164.225 9.2586 164.341 8.78536H164.514V13.6913H164.341C164.267 13.3863 164.188 13.0918 164.104 12.8079C164.03 12.5239 163.92 12.2715 163.772 12.0507C163.636 11.8299 163.446 11.6563 163.205 11.5301C162.973 11.3934 162.668 11.3251 162.29 11.3251H161.012V17.0197H163.993C164.572 17.0197 165.05 16.8987 165.429 16.6569C165.818 16.4045 166.134 16.11 166.375 15.7735C166.617 15.4265 166.796 15.0689 166.911 14.7008C167.027 14.3328 167.101 14.0278 167.133 13.7859H167.306V17.2405H157.684V17.0197Z" fill="white"/>
<path d="M172.12 11.1043H173.571C173.865 11.1043 174.134 11.0675 174.375 10.9939C174.617 10.9203 174.823 10.7941 174.991 10.6153C175.169 10.426 175.306 10.1736 175.401 9.85812C175.496 9.54263 175.542 9.14302 175.542 8.65925C175.542 8.11237 175.469 7.67599 175.322 7.34996C175.185 7.01345 175.001 6.76106 174.77 6.59278C174.549 6.42449 174.296 6.31407 174.012 6.26151C173.739 6.20895 173.466 6.18264 173.192 6.18264C173.003 6.18264 172.808 6.18787 172.609 6.19841C172.419 6.19841 172.256 6.20895 172.12 6.22996V11.1043ZM168.791 17.0198H170.542V6.22996H168.791V6.00912H171.788C171.914 6.00912 172.041 6.00912 172.167 6.00912C172.293 5.9986 172.419 5.98808 172.545 5.97757C172.672 5.97757 172.798 5.97757 172.924 5.97757C173.05 5.96705 173.176 5.96179 173.303 5.96179C173.923 5.96179 174.47 5.9986 174.943 6.07221C175.416 6.13531 175.858 6.32985 176.268 6.65587C176.636 6.93982 176.894 7.26055 177.041 7.61812C177.199 7.9757 177.278 8.31221 177.278 8.6277C177.278 8.78544 177.247 8.99051 177.183 9.24291C177.131 9.48476 177.004 9.73716 176.804 10.0001C176.616 10.2525 176.337 10.4891 175.969 10.7099C175.6 10.9203 175.111 11.0622 174.502 11.1359V11.1674C174.67 11.1884 174.896 11.2305 175.18 11.2936C175.474 11.3462 175.769 11.4408 176.063 11.5775C176.368 11.7143 176.647 11.8983 176.899 12.1297C177.152 12.3505 177.331 12.6397 177.435 12.9973C177.499 13.2076 177.541 13.4495 177.562 13.7229C177.593 13.9858 177.614 14.2592 177.625 14.5432C177.646 14.8271 177.662 15.1005 177.672 15.3635C177.693 15.6264 177.725 15.8472 177.767 16.026C177.83 16.2994 177.93 16.5465 178.066 16.7674C178.203 16.9882 178.424 17.0987 178.729 17.0987C178.866 17.0987 179.008 17.0723 179.155 17.0198C179.302 16.9672 179.434 16.883 179.549 16.7674L179.691 16.9409C179.639 16.983 179.576 17.0303 179.502 17.0829C179.439 17.125 179.355 17.167 179.25 17.2091C179.144 17.2512 179.013 17.2827 178.855 17.3037C178.708 17.3353 178.524 17.351 178.303 17.351C177.882 17.351 177.53 17.2985 177.247 17.1933C176.973 17.0881 176.752 16.9357 176.584 16.7358C176.415 16.5255 176.289 16.2731 176.205 15.9787C176.131 15.6737 176.079 15.3214 176.047 14.9218L175.937 13.4863C175.895 12.9605 175.79 12.5503 175.622 12.2559C175.453 11.9614 175.253 11.7458 175.022 11.6091C174.801 11.4724 174.57 11.3935 174.328 11.3725C174.086 11.3409 173.876 11.3252 173.697 11.3252H172.12V17.0198H173.871V17.2406H168.791V17.0198Z" fill="white"/>
<path d="M183.503 11.1043H184.954C185.249 11.1043 185.517 11.0675 185.759 10.9939C186 10.9203 186.206 10.7941 186.374 10.6153C186.553 10.426 186.689 10.1736 186.784 9.85812C186.879 9.54263 186.926 9.14302 186.926 8.65925C186.926 8.11237 186.853 7.67599 186.705 7.34996C186.569 7.01345 186.385 6.76106 186.153 6.59278C185.932 6.42449 185.68 6.31407 185.396 6.26151C185.123 6.20895 184.849 6.18264 184.576 6.18264C184.386 6.18264 184.192 6.18787 183.992 6.19841C183.803 6.19841 183.64 6.20895 183.503 6.22996V11.1043ZM180.175 17.0198H181.926V6.22996H180.175V6.00912H183.172C183.298 6.00912 183.424 6.00912 183.55 6.00912C183.676 5.9986 183.803 5.98808 183.929 5.97757C184.055 5.97757 184.181 5.97757 184.307 5.97757C184.434 5.96705 184.56 5.96179 184.686 5.96179C185.307 5.96179 185.854 5.9986 186.327 6.07221C186.8 6.13531 187.242 6.32985 187.652 6.65587C188.02 6.93982 188.278 7.26055 188.424 7.61812C188.582 7.9757 188.661 8.31221 188.661 8.6277C188.661 8.78544 188.63 8.99051 188.566 9.24291C188.514 9.48476 188.388 9.73716 188.188 10.0001C187.999 10.2525 187.72 10.4891 187.352 10.7099C186.984 10.9203 186.495 11.0622 185.885 11.1359V11.1674C186.053 11.1884 186.279 11.2305 186.563 11.2936C186.858 11.3462 187.152 11.4408 187.447 11.5775C187.751 11.7143 188.03 11.8983 188.283 12.1297C188.535 12.3505 188.714 12.6397 188.819 12.9973C188.882 13.2076 188.924 13.4495 188.945 13.7229C188.977 13.9858 188.998 14.2592 189.009 14.5432C189.029 14.8271 189.045 15.1005 189.055 15.3635C189.077 15.6264 189.108 15.8472 189.15 16.026C189.213 16.2994 189.313 16.5465 189.45 16.7674C189.587 16.9882 189.808 17.0987 190.113 17.0987C190.249 17.0987 190.391 17.0723 190.539 17.0198C190.686 16.9672 190.817 16.883 190.933 16.7674L191.075 16.9409C191.022 16.983 190.959 17.0303 190.886 17.0829C190.822 17.125 190.738 17.167 190.633 17.2091C190.528 17.2512 190.397 17.2827 190.239 17.3037C190.091 17.3353 189.908 17.351 189.686 17.351C189.266 17.351 188.914 17.2985 188.63 17.1933C188.356 17.0881 188.135 16.9357 187.967 16.7358C187.799 16.5255 187.673 16.2731 187.589 15.9787C187.515 15.6737 187.462 15.3214 187.431 14.9218L187.32 13.4863C187.278 12.9605 187.173 12.5503 187.005 12.2559C186.837 11.9614 186.637 11.7458 186.405 11.6091C186.185 11.4724 185.954 11.3935 185.712 11.3725C185.469 11.3409 185.259 11.3252 185.081 11.3252H183.503V17.0198H185.254V17.2406H180.175V17.0198Z" fill="white"/>
<path d="M196.197 7.82312L194.462 12.4135H197.933L196.197 7.82312ZM191.07 17.0197H192.458L196.718 5.7251H197.096L201.387 17.0197H202.791V17.2406H197.933V17.0197H199.684L198.027 12.6344H194.367L192.711 17.0197H194.462V17.2406H191.07V17.0197Z" fill="white"/>
<path d="M212.885 17.2406H212.649C212.575 17.1564 212.491 17.0828 212.396 17.0197C212.302 16.9461 212.155 16.9093 211.955 16.9093C211.797 16.9093 211.623 16.9408 211.435 17.0039C211.256 17.0565 211.045 17.1196 210.804 17.1932C210.572 17.2669 210.309 17.33 210.015 17.3825C209.72 17.4456 209.394 17.4772 209.037 17.4772C208.374 17.4772 207.727 17.3562 207.096 17.1144C206.476 16.8725 205.887 16.4781 205.329 15.9313C204.814 15.4159 204.383 14.806 204.036 14.1014C203.689 13.3968 203.516 12.5818 203.516 11.6563C203.516 10.8676 203.658 10.1157 203.941 9.40058C204.225 8.68548 204.62 8.0545 205.125 7.50763C205.629 6.96075 206.223 6.5296 206.907 6.21411C207.591 5.8881 208.337 5.7251 209.147 5.7251C209.473 5.7251 209.762 5.75665 210.015 5.81975C210.267 5.88284 210.493 5.95646 210.693 6.04059C210.893 6.11422 211.076 6.18256 211.245 6.24566C211.413 6.30876 211.577 6.34031 211.734 6.34031C211.944 6.34031 212.092 6.30876 212.176 6.24566C212.27 6.17202 212.354 6.09315 212.428 6.00904H212.665V9.16396H212.491C212.396 8.76436 212.276 8.36999 212.128 7.98087C211.981 7.59174 211.776 7.25 211.513 6.95552C211.25 6.65056 210.914 6.40864 210.503 6.22988C210.104 6.04059 209.604 5.94594 209.005 5.94594C208.448 5.94594 207.969 6.03533 207.57 6.21411C207.17 6.38239 206.833 6.61371 206.56 6.90819C206.286 7.19214 206.066 7.52864 205.898 7.91777C205.74 8.29636 205.619 8.70126 205.535 9.13241C205.451 9.55309 205.393 9.98424 205.361 10.4259C205.34 10.8571 205.329 11.2672 205.329 11.6563C205.329 12.7606 205.419 13.6755 205.598 14.4011C205.776 15.1268 206.024 15.6999 206.339 16.1206C206.665 16.5412 207.054 16.8357 207.506 17.0039C207.959 17.1722 208.458 17.2563 209.005 17.2563C209.71 17.2563 210.277 17.1564 210.709 16.9566C211.14 16.7568 211.487 16.4991 211.75 16.1837C212.013 15.8576 212.212 15.4948 212.349 15.0952C212.486 14.6851 212.607 14.2802 212.712 13.8806H212.885V17.2406Z" fill="white"/>
<path d="M214.158 17.0197H215.909V6.22988H214.158V6.00903H223.181V8.73804H223.008C222.871 8.3279 222.724 7.97032 222.566 7.66537C222.409 7.34987 222.219 7.08694 221.998 6.87664C221.778 6.65579 221.514 6.49281 221.209 6.38762C220.904 6.28244 220.536 6.22988 220.105 6.22988H217.487V11.1042H218.512C218.859 11.1042 219.154 11.0727 219.395 11.0096C219.637 10.9465 219.843 10.8308 220.011 10.6625C220.189 10.4838 220.336 10.2472 220.452 9.95268C220.578 9.64773 220.699 9.2586 220.815 8.78536H220.989V13.6913H220.815C220.742 13.3863 220.662 13.0918 220.578 12.8079C220.505 12.5239 220.394 12.2715 220.247 12.0507C220.111 11.8299 219.921 11.6563 219.679 11.5301C219.448 11.3934 219.143 11.3251 218.765 11.3251H217.487V17.0197H220.468C221.047 17.0197 221.525 16.8987 221.904 16.6569C222.293 16.4045 222.608 16.11 222.85 15.7735C223.092 15.4265 223.27 15.0689 223.386 14.7008C223.502 14.3328 223.575 14.0278 223.607 13.7859H223.781V17.2405H214.158V17.0197Z" fill="white"/>
<path d="M225.975 13.849H226.148C226.263 14.4169 226.411 14.8954 226.59 15.2845C226.779 15.6736 226.984 15.9944 227.205 16.2468C227.425 16.4991 227.657 16.6937 227.899 16.8304C228.141 16.9671 228.383 17.067 228.625 17.1301C228.877 17.1932 229.114 17.23 229.334 17.2406C229.566 17.2511 229.781 17.2563 229.981 17.2563C230.538 17.2563 230.996 17.1722 231.354 17.0039C231.711 16.8357 231.995 16.6253 232.205 16.373C232.415 16.11 232.563 15.8314 232.647 15.5369C232.731 15.2319 232.774 14.9532 232.774 14.7008C232.774 14.3328 232.705 14.0173 232.568 13.7544C232.431 13.4914 232.258 13.2706 232.048 13.0918C231.837 12.9025 231.606 12.75 231.354 12.6344C231.111 12.5187 230.881 12.4293 230.659 12.3662L228.845 11.8141C227.994 11.5512 227.347 11.2041 226.905 10.773C226.474 10.3418 226.258 9.76339 226.258 9.03776C226.258 8.56452 226.342 8.12807 226.511 7.72847C226.679 7.31833 226.916 6.96605 227.221 6.67157C227.525 6.37709 227.888 6.14577 228.309 5.97749C228.74 5.80923 229.208 5.7251 229.713 5.7251C230.081 5.7251 230.386 5.75665 230.628 5.81975C230.881 5.88284 231.096 5.95646 231.275 6.04059C231.454 6.11422 231.611 6.18256 231.748 6.24566C231.895 6.30876 232.043 6.34031 232.189 6.34031C232.326 6.34031 232.415 6.32453 232.458 6.29298C232.51 6.2509 232.579 6.15625 232.663 6.00904H232.884V8.86424H232.694C232.631 8.48565 232.521 8.12284 232.363 7.7758C232.216 7.41822 232.021 7.10802 231.78 6.84509C231.538 6.57169 231.243 6.35608 230.896 6.19834C230.56 6.03007 230.165 5.94594 229.713 5.94594C229.461 5.94594 229.182 5.98275 228.877 6.05636C228.572 6.11946 228.288 6.23512 228.025 6.40341C227.762 6.57169 227.541 6.79253 227.363 7.06594C227.195 7.33934 227.11 7.68639 227.11 8.10706C227.11 8.44357 227.179 8.73281 227.315 8.97466C227.452 9.20605 227.626 9.40582 227.836 9.5741C228.056 9.73185 228.299 9.86858 228.561 9.98424C228.835 10.0894 229.108 10.1841 229.382 10.2682L231.29 10.8676C231.49 10.9307 231.742 11.0148 232.048 11.12C232.353 11.2252 232.647 11.3829 232.931 11.5932C233.225 11.8036 233.473 12.0823 233.672 12.4293C233.883 12.7763 233.988 13.218 233.988 13.7544C233.988 14.2486 233.893 14.7219 233.704 15.1741C233.525 15.6158 233.262 16.0101 232.915 16.3572C232.568 16.6937 232.147 16.9671 231.653 17.1775C231.159 17.3773 230.602 17.4772 229.981 17.4772C229.761 17.4772 229.566 17.4719 229.398 17.4614C229.229 17.4614 229.072 17.4509 228.924 17.4298C228.777 17.4088 228.629 17.3825 228.483 17.351C228.335 17.33 228.172 17.2931 227.994 17.2406C227.784 17.1775 227.557 17.1038 227.315 17.0197C227.073 16.9356 226.863 16.8935 226.684 16.8935C226.526 16.8935 226.416 16.9251 226.353 16.9882C226.3 17.0513 226.253 17.1354 226.211 17.2406H225.975V13.849Z" fill="white"/>
</g>
<defs>
<clipPath id="clip0_3910_411">
<rect width="234" height="24.3014" fill="white"/>
</clipPath>
</defs>
</svg>
