<svg width="282" height="72" viewBox="0 0 282 72" fill="none" xmlns="http://www.w3.org/2000/svg">
				<path d="M0 71.6111V44.3889H12.7556C16.0222 44.3889 18.5111 45.037 20.2222 46.3333C21.9333 47.6037 22.7889 49.3148 22.7889 51.4667C22.7889 52.9185 22.4519 54.163 21.7778 55.2C21.1037 56.2111 20.1963 57.0019 19.0556 57.5722C17.9407 58.1167 16.7222 58.3889 15.4 58.3889L16.1 56.9889C17.6296 56.9889 19.0037 57.2741 20.2222 57.8444C21.4407 58.3889 22.4 59.1926 23.1 60.2556C23.8259 61.3185 24.1889 62.6407 24.1889 64.2222C24.1889 66.5556 23.2944 68.3704 21.5056 69.6667C19.7167 70.963 17.0593 71.6111 13.5333 71.6111H0ZM5.05556 67.6444H13.2222C15.1148 67.6444 16.5667 67.3333 17.5778 66.7111C18.5889 66.0889 19.0944 65.0907 19.0944 63.7167C19.0944 62.3685 18.5889 61.3833 17.5778 60.7611C16.5667 60.113 15.1148 59.7889 13.2222 59.7889H4.66667V55.8611H12.2111C13.9741 55.8611 15.3222 55.55 16.2556 54.9278C17.2148 54.3056 17.6944 53.3722 17.6944 52.1278C17.6944 50.8574 17.2148 49.9111 16.2556 49.2889C15.3222 48.6667 13.9741 48.3556 12.2111 48.3556H5.05556V67.6444Z" fill="#EFEFEF"></path>
				<path d="M34.2511 55.7056H47.7844V59.8667H34.2511V55.7056ZM34.64 67.3722H50.0011V71.6111H29.5844V44.3889H49.4566V48.6278H34.64V67.3722Z" fill="#EFEFEF"></path>
				<path d="M51.7869 71.6111L64.0369 44.3889H69.0147L81.3036 71.6111H76.0147L65.4758 47.0722H67.498L56.998 71.6111H51.7869ZM57.4258 65.3111L58.7869 61.3444H73.4869L74.848 65.3111H57.4258Z" fill="#EFEFEF"></path>
				<path d="M96.9858 72C94.9118 72 92.9803 71.663 91.1914 70.9889C89.4284 70.2889 87.8858 69.3167 86.5636 68.0722C85.2673 66.8019 84.2562 65.3111 83.5303 63.6C82.8044 61.8889 82.4414 60.0222 82.4414 58C82.4414 55.9778 82.8044 54.1111 83.5303 52.4C84.2562 50.6889 85.2803 49.2111 86.6025 47.9667C87.9247 46.6963 89.4673 45.7241 91.2303 45.05C92.9933 44.35 94.9247 44 97.0247 44C99.2544 44 101.29 44.3889 103.13 45.1667C104.971 45.9185 106.527 47.0463 107.797 48.55L104.53 51.6222C103.545 50.5593 102.443 49.7685 101.225 49.25C100.006 48.7056 98.684 48.4333 97.2581 48.4333C95.8321 48.4333 94.5229 48.6667 93.3303 49.1333C92.1636 49.6 91.1395 50.2611 90.2581 51.1167C89.4025 51.9722 88.7284 52.9833 88.2358 54.15C87.7692 55.3167 87.5358 56.6 87.5358 58C87.5358 59.4 87.7692 60.6833 88.2358 61.85C88.7284 63.0167 89.4025 64.0278 90.2581 64.8833C91.1395 65.7389 92.1636 66.4 93.3303 66.8667C94.5229 67.3333 95.8321 67.5667 97.2581 67.5667C98.684 67.5667 100.006 67.3074 101.225 66.7889C102.443 66.2444 103.545 65.4278 104.53 64.3389L107.797 67.45C106.527 68.9278 104.971 70.0556 103.13 70.8333C101.29 71.6111 99.2414 72 96.9858 72Z" fill="#EFEFEF"></path>
				<path d="M131.774 44.3889H136.83V71.6111H131.774V44.3889ZM117.697 71.6111H112.641V44.3889H117.697V71.6111ZM132.163 59.9444H117.269V55.6278H132.163V59.9444Z" fill="#EFEFEF"></path>
				<path d="M148.752 56.9111H162.324V61.1889H148.752V56.9111ZM149.18 71.6111H144.124V44.3889H163.997V48.6278H149.18V71.6111Z" fill="#EFEFEF"></path>
				<path d="M168.886 71.6111V44.3889H180.086C182.497 44.3889 184.558 44.7778 186.269 45.5556C188.006 46.3333 189.341 47.4481 190.275 48.9C191.208 50.3519 191.675 52.0759 191.675 54.0722C191.675 56.0685 191.208 57.7926 190.275 59.2444C189.341 60.6704 188.006 61.7722 186.269 62.55C184.558 63.3019 182.497 63.6778 180.086 63.6778H171.686L173.941 61.3833V71.6111H168.886ZM186.697 71.6111L179.813 61.7333H185.219L192.141 71.6111H186.697ZM173.941 61.9278L171.686 59.5167H179.852C182.082 59.5167 183.754 59.037 184.869 58.0778C186.01 57.1185 186.58 55.7833 186.58 54.0722C186.58 52.3352 186.01 51 184.869 50.0667C183.754 49.1333 182.082 48.6667 179.852 48.6667H171.686L173.941 46.1778V61.9278Z" fill="#EFEFEF"></path>
				<path d="M210.086 72C207.96 72 206.003 71.65 204.214 70.95C202.425 70.25 200.87 69.2778 199.547 68.0333C198.225 66.763 197.201 65.2852 196.475 63.6C195.749 61.8889 195.386 60.0222 195.386 58C195.386 55.9778 195.749 54.1241 196.475 52.4389C197.201 50.7278 198.225 49.25 199.547 48.0056C200.87 46.7352 202.425 45.75 204.214 45.05C206.003 44.35 207.947 44 210.047 44C212.173 44 214.118 44.35 215.881 45.05C217.67 45.75 219.225 46.7352 220.547 48.0056C221.87 49.25 222.894 50.7278 223.62 52.4389C224.346 54.1241 224.708 55.9778 224.708 58C224.708 60.0222 224.346 61.8889 223.62 63.6C222.894 65.3111 221.87 66.7889 220.547 68.0333C219.225 69.2778 217.67 70.25 215.881 70.95C214.118 71.65 212.186 72 210.086 72ZM210.047 67.5667C211.421 67.5667 212.692 67.3333 213.858 66.8667C215.025 66.4 216.036 65.7389 216.892 64.8833C217.747 64.0019 218.408 62.9907 218.875 61.85C219.368 60.6833 219.614 59.4 219.614 58C219.614 56.6 219.368 55.3296 218.875 54.1889C218.408 53.0222 217.747 52.0111 216.892 51.1556C216.036 50.2741 215.025 49.6 213.858 49.1333C212.692 48.6667 211.421 48.4333 210.047 48.4333C208.673 48.4333 207.403 48.6667 206.236 49.1333C205.096 49.6 204.084 50.2741 203.203 51.1556C202.347 52.0111 201.673 53.0222 201.181 54.1889C200.714 55.3296 200.481 56.6 200.481 58C200.481 59.3741 200.714 60.6444 201.181 61.8111C201.673 62.9778 202.347 64.0019 203.203 64.8833C204.058 65.7389 205.07 66.4 206.236 66.8667C207.403 67.3333 208.673 67.5667 210.047 67.5667Z" fill="#EFEFEF"></path>
				<path d="M230.067 71.6111V44.3889H234.228L251.301 65.35H249.239V44.3889H254.256V71.6111H250.095L233.023 50.65H235.084V71.6111H230.067Z" fill="#EFEFEF"></path>
				<path d="M267.073 71.6111V48.6667H258.051V44.3889H281.151V48.6667H272.128V71.6111H267.073Z" fill="#EFEFEF"></path>
				<path d="M92.6051 27.5896L92.9229 24.9174C92.9229 24.7898 92.616 24.868 92.1443 24.9886C91.4118 25.1752 90.282 25.4625 89.2879 25.2387H78.3244V14.4633H89.9234L90.6044 12.4375H78.3244V1.66154H87.9616C88.9182 1.66154 89.9202 2.02899 90.6011 2.35091C90.7621 2.35091 90.9336 2.43172 91.1046 2.51252C91.2168 2.5651 91.3289 2.61769 91.4376 2.64783C91.4938 2.66322 91.5491 2.67284 91.6031 2.67284V0H73C73.6809 2.02899 73.6809 3.04029 73.6809 4.3767V23.2129C73.6809 24.5493 73.6809 25.5638 73 27.5896H92.6051Z" fill="#EFEFEF"></path>
				<path d="M121.808 22.9339C122.126 24.2703 122.126 26.2961 121.808 27.6325L127.726 28L127.656 27.8538C127.061 26.6104 126.713 25.8838 126.407 23.6233L123.404 0.410416H122.084L111.121 21.9194L99.8395 0.410416H98.2019L95.1992 23.6233C95.1522 23.9677 95.1121 24.2761 95.0756 24.5557L95.073 24.5769C94.8629 26.1954 94.776 26.8649 94.1972 28H97.5177C97.1999 26.9855 97.1999 24.9597 97.5177 23.302L99.5185 9.16382L109.162 27.6325H110.845L120.171 9.80702L121.808 22.9339Z" fill="#EFEFEF"></path>
				<path fill-rule="evenodd" clip-rule="evenodd" d="M150.055 27.6325L145.733 17.5459H136.773L132.451 27.6325H129.13C129.858 26.6629 130.224 26.0338 130.753 25.1277L130.761 25.1143C130.958 24.775 131.179 24.3973 131.449 23.9484L141.728 0.0917024H143.048L153.327 23.3052C154.329 25.6529 154.965 26.3455 156.648 27.6819H150.052L150.055 27.6325ZM137.772 15.5201H144.734L141.093 7.45995L137.772 15.5201Z" fill="#EFEFEF"></path>
				<path fill-rule="evenodd" clip-rule="evenodd" d="M173.934 17.5459L178.257 27.6325L178.253 27.6819H184.849C183.166 26.3455 182.53 25.6529 181.528 23.3052L171.249 0.0917024H169.929L159.65 23.9484C159.376 24.4031 159.154 24.7853 158.954 25.1277C158.426 26.0332 158.059 26.6623 157.332 27.6325H160.652L164.975 17.5459H173.934ZM172.935 15.5201H165.656L169.294 7.45995L172.935 15.5201Z" fill="#EFEFEF"></path>
				<path fill-rule="evenodd" clip-rule="evenodd" d="M193.176 16.5314C197.494 21.9207 201.176 25.2823 203.815 27.6293V27.5864H209.182C208.498 27.2612 196.218 14.8276 196.218 14.8276H197.22C200.858 14.1837 204.178 11.8328 204.178 7.78123C204.178 0.00705403 195.545 0.0307812 191.342 0.0416829L190.896 0.0429654H185.258C185.938 2.07196 185.938 3.08325 185.938 4.41967V23.2558C185.938 24.5923 185.938 25.6068 185.258 27.6325H191.218C190.537 25.6036 190.537 24.5923 190.537 23.2558V14.8737C191.175 14.8737 191.856 15.195 193.176 16.5314ZM200.18 7.78508C200.18 9.81087 199.499 12.1579 196.86 13.1724C195.222 13.8163 190.537 13.4944 190.9 13.4944V1.75004C199.178 1.38259 200.18 5.75929 200.18 7.78508Z" fill="#EFEFEF"></path>
				</svg>