<svg width="332" height="86" viewBox="0 0 332 86" fill="none" xmlns="http://www.w3.org/2000/svg">
<path d="M0.847656 84.7468V52.6834H15.8717C19.7193 52.6834 22.6508 53.4468 24.6662 54.9736C26.6816 56.4699 27.6893 58.4853 27.6893 61.0199C27.6893 62.7299 27.2924 64.1957 26.4984 65.4172C25.7045 66.6081 24.6357 67.5395 23.2921 68.2113C21.979 68.8525 20.5438 69.1732 18.9864 69.1732L19.8109 67.5242C21.6126 67.5242 23.231 67.8601 24.6662 68.5319C26.1014 69.1732 27.2313 70.1198 28.0558 71.3718C28.9108 72.6238 29.3383 74.1812 29.3383 76.0439C29.3383 78.7922 28.2848 80.9298 26.1778 82.4566C24.0707 83.9834 20.9407 84.7468 16.7878 84.7468H0.847656ZM6.80229 80.0747H16.4213C18.6505 80.0747 20.3605 79.7083 21.5515 78.9754C22.7424 78.2425 23.3379 77.0669 23.3379 75.4484C23.3379 73.8605 22.7424 72.7001 21.5515 71.9673C20.3605 71.2038 18.6505 70.8221 16.4213 70.8221H6.34425V66.1958H15.2304C17.3069 66.1958 18.8948 65.8294 19.9941 65.0965C21.124 64.3636 21.6889 63.2643 21.6889 61.7986C21.6889 60.3023 21.124 59.1877 19.9941 58.4548C18.8948 57.7219 17.3069 57.3555 15.2304 57.3555H6.80229V80.0747Z" fill="#EFEFEF"/>
<path d="M41.19 66.0126H57.1301V70.9137H41.19V66.0126ZM41.648 79.7541H59.741V84.7468H35.6934V52.6834H59.0997V57.6761H41.648V79.7541Z" fill="#EFEFEF"/>
<path d="M61.8444 84.7468L76.273 52.6834H82.136L96.6103 84.7468H90.3809L77.9677 55.8439H80.3496L67.9823 84.7468H61.8444ZM68.4861 77.3264L70.0893 72.6543H87.4035L89.0067 77.3264H68.4861Z" fill="#EFEFEF"/>
<path d="M115.082 85.2049C112.639 85.2049 110.364 84.8079 108.257 84.014C106.18 83.1895 104.363 82.0443 102.806 80.5786C101.279 79.0823 100.088 77.3264 99.233 75.311C98.378 73.2956 97.9505 71.097 97.9505 68.7151C97.9505 66.3333 98.378 64.1346 99.233 62.1192C100.088 60.1038 101.294 58.3632 102.852 56.8974C104.409 55.4011 106.226 54.256 108.302 53.4621C110.379 52.6376 112.654 52.2253 115.127 52.2253C117.753 52.2253 120.151 52.6834 122.319 53.5995C124.487 54.4851 126.319 55.8134 127.815 57.5845L123.968 61.2031C122.807 59.9511 121.509 59.0197 120.074 58.409C118.639 57.7677 117.082 57.4471 115.402 57.4471C113.723 57.4471 112.181 57.7219 110.776 58.2716C109.402 58.8213 108.196 59.5999 107.157 60.6076C106.15 61.6153 105.356 62.8063 104.775 64.1804C104.226 65.5546 103.951 67.0661 103.951 68.7151C103.951 70.3641 104.226 71.8757 104.775 73.2498C105.356 74.6239 106.15 75.8149 107.157 76.8226C108.196 77.8303 109.402 78.609 110.776 79.1586C112.181 79.7083 113.723 79.9831 115.402 79.9831C117.082 79.9831 118.639 79.6778 120.074 79.067C121.509 78.4258 122.807 77.4639 123.968 76.1813L127.815 79.8457C126.319 81.5863 124.487 82.9146 122.319 83.8307C120.151 84.7468 117.738 85.2049 115.082 85.2049Z" fill="#EFEFEF"/>
<path d="M156.057 52.6834H162.012V84.7468H156.057V52.6834ZM139.475 84.7468H133.521V52.6834H139.475V84.7468ZM156.515 71.0054H138.972V65.921H156.515V71.0054Z" fill="#EFEFEF"/>
<path d="M176.054 67.4326H192.04V72.4711H176.054V67.4326ZM176.558 84.7468H170.603V52.6834H194.009V57.6761H176.558V84.7468Z" fill="#EFEFEF"/>
<path d="M199.768 84.7468V52.6834H212.96C215.8 52.6834 218.227 53.1414 220.243 54.0575C222.289 54.9736 223.861 56.2867 224.961 57.9968C226.06 59.7068 226.61 61.7375 226.61 64.0888C226.61 66.4401 226.06 68.4708 224.961 70.1809C223.861 71.8604 222.289 73.1582 220.243 74.0743C218.227 74.9598 215.8 75.4026 212.96 75.4026H203.066L205.723 72.7001V84.7468H199.768ZM220.747 84.7468L212.639 73.1124H219.006L227.159 84.7468H220.747ZM205.723 73.3414L203.066 70.5015H212.685C215.311 70.5015 217.281 69.9366 218.594 68.8067C219.937 67.6769 220.609 66.1042 220.609 64.0888C220.609 62.0429 219.937 60.4702 218.594 59.3709C217.281 58.2716 215.311 57.7219 212.685 57.7219H203.066L205.723 54.7904V73.3414Z" fill="#EFEFEF"/>
<path d="M248.296 85.2049C245.792 85.2049 243.486 84.7926 241.379 83.9681C239.272 83.1437 237.44 81.9985 235.883 80.5328C234.325 79.0365 233.119 77.2959 232.264 75.311C231.409 73.2956 230.982 71.097 230.982 68.7151C230.982 66.3333 231.409 64.1499 232.264 62.165C233.119 60.1496 234.325 58.409 235.883 56.9432C237.44 55.447 239.272 54.2866 241.379 53.4621C243.486 52.6376 245.777 52.2253 248.25 52.2253C250.754 52.2253 253.044 52.6376 255.121 53.4621C257.228 54.2866 259.06 55.447 260.617 56.9432C262.175 58.409 263.381 60.1496 264.236 62.165C265.091 64.1499 265.518 66.3333 265.518 68.7151C265.518 71.097 265.091 73.2956 264.236 75.311C263.381 77.3264 262.175 79.067 260.617 80.5328C259.06 81.9985 257.228 83.1437 255.121 83.9681C253.044 84.7926 250.769 85.2049 248.296 85.2049ZM248.25 79.9831C249.868 79.9831 251.365 79.7083 252.739 79.1586C254.113 78.609 255.304 77.8303 256.312 76.8226C257.319 75.7843 258.098 74.5934 258.648 73.2498C259.228 71.8757 259.518 70.3641 259.518 68.7151C259.518 67.0661 259.228 65.5698 258.648 64.2262C258.098 62.8521 257.319 61.6612 256.312 60.6534C255.304 59.6152 254.113 58.8213 252.739 58.2716C251.365 57.7219 249.868 57.4471 248.25 57.4471C246.632 57.4471 245.135 57.7219 243.761 58.2716C242.418 58.8213 241.227 59.6152 240.188 60.6534C239.181 61.6612 238.387 62.8521 237.806 64.2262C237.257 65.5698 236.982 67.0661 236.982 68.7151C236.982 70.3336 237.257 71.8298 237.806 73.204C238.387 74.5781 239.181 75.7843 240.188 76.8226C241.196 77.8303 242.387 78.609 243.761 79.1586C245.135 79.7083 246.632 79.9831 248.25 79.9831Z" fill="#EFEFEF"/>
<path d="M271.83 84.7468V52.6834H276.731L296.84 77.3722H294.412V52.6834H300.321V84.7468H295.42L275.311 60.058H277.739V84.7468H271.83Z" fill="#EFEFEF"/>
<path d="M315.417 84.7468V57.7219H304.79V52.6834H331.998V57.7219H321.371V84.7468H315.417Z" fill="#EFEFEF"/>
<path d="M109.92 32.8965L110.294 29.7491C110.294 29.5988 109.933 29.6909 109.377 29.8329C108.514 30.0527 107.184 30.3911 106.013 30.1275H93.0995V17.4359H106.761L107.563 15.0498H93.0995V2.35742H104.451C105.577 2.35742 106.757 2.79022 107.559 3.16939C107.749 3.16939 107.951 3.26456 108.153 3.35973C108.285 3.42167 108.417 3.48361 108.545 3.51911C108.611 3.53723 108.676 3.54856 108.74 3.54856V0.400391H86.8281C87.6302 2.79022 87.6302 3.98136 87.6302 5.55545V27.7415C87.6302 29.3156 87.6302 30.5105 86.8281 32.8965H109.92Z" fill="#EFEFEF"/>
<path d="M144.317 27.4129C144.691 28.987 144.691 31.373 144.317 32.9471L151.287 33.3799L151.205 33.2077C150.503 31.7432 150.093 30.8874 149.733 28.2249L146.196 0.883795H144.641L131.728 26.218L118.441 0.883795H116.512L112.975 28.2249C112.92 28.6305 112.873 28.9938 112.83 29.3231L112.827 29.348C112.579 31.2545 112.477 32.043 111.795 33.3799H115.706C115.332 32.185 115.332 29.799 115.706 27.8465L118.063 11.1939L129.421 32.9471H131.404L142.388 11.9515L144.317 27.4129Z" fill="#EFEFEF"/>
<path fill-rule="evenodd" clip-rule="evenodd" d="M177.587 32.9471L172.496 21.0667H161.943L156.852 32.9471H152.941C153.797 31.8051 154.229 31.0641 154.852 29.9968L154.861 29.981C155.094 29.5814 155.353 29.1365 155.672 28.6078L167.779 0.508401H169.333L181.441 27.8502C182.621 30.6155 183.369 31.4312 185.352 33.0053H177.583L177.587 32.9471ZM163.119 18.6806H171.319L167.03 9.18703L163.119 18.6806Z" fill="#EFEFEF"/>
<path fill-rule="evenodd" clip-rule="evenodd" d="M205.712 21.0667L210.804 32.9471L210.8 33.0053H218.568C216.586 31.4312 215.838 30.6155 214.657 27.8502L202.55 0.508401H200.996L188.888 28.6078C188.566 29.1433 188.303 29.5935 188.068 29.9968C187.446 31.0634 187.014 31.8043 186.158 32.9471H190.068L195.16 21.0667H205.712ZM204.536 18.6806H195.962L200.247 9.18703L204.536 18.6806Z" fill="#EFEFEF"/>
<path fill-rule="evenodd" clip-rule="evenodd" d="M228.376 19.8718C233.462 26.2195 237.799 30.1789 240.908 32.9434V32.8927H247.229C246.423 32.5098 231.959 17.8649 231.959 17.8649H233.139C237.424 17.1066 241.335 14.3376 241.335 9.56544C241.335 0.408699 231.167 0.436646 226.216 0.449486L225.691 0.450997H219.05C219.852 2.84083 219.852 4.03197 219.852 5.60606V27.7921C219.852 29.3662 219.852 30.5611 219.05 32.9471H226.07C225.267 30.5573 225.267 29.3662 225.267 27.7921V17.9193C226.02 17.9193 226.822 18.2977 228.376 19.8718ZM236.626 9.56998C236.626 11.956 235.824 14.7205 232.715 15.9154C230.786 16.6738 225.267 16.2946 225.695 16.2946V2.46166C235.446 2.02886 236.626 7.18392 236.626 9.56998Z" fill="#EFEFEF"/>
</svg>
