<svg width="361" height="104" viewBox="0 0 361 104" fill="none" xmlns="http://www.w3.org/2000/svg">
<path d="M115.431 32.7576V39.3175H88.7033V0.825684H114.943V7.38555H96.1848V16.6561H112.395V22.7281H96.1848V32.7576H115.431Z" fill="white"/>
<path d="M152.653 39.3175V14.0539L142.786 32.866H138.612L128.745 14.0539V39.3175H121.263V0.825684H129.287L140.672 22.7281L152.165 0.825684H160.135V39.3175H152.653Z" fill="white"/>
<path d="M178.634 0.825684H186.224L200.374 39.3175H192.676L189.098 29.7216H175.653L172.129 39.3175H164.43L178.634 0.825684ZM187.742 24.4629L182.429 8.57826L176.899 24.4629H187.742Z" fill="white"/>
<path d="M215.059 0.825684H222.649L236.799 39.3175H229.101L225.522 29.7216H212.077L208.554 39.3175H200.855L215.059 0.825684ZM224.167 24.4629L218.854 8.57826L213.324 24.4629H224.167Z" fill="white"/>
<path d="M241.021 39.3175V0.825684H258.044C259.815 0.825684 261.441 1.18711 262.923 1.90996C264.441 2.63281 265.742 3.60866 266.827 4.83751C267.947 6.06635 268.796 7.43977 269.375 8.95776C269.989 10.4757 270.296 12.0299 270.296 13.6201C270.296 15.2466 270.007 16.8188 269.429 18.3367C268.887 19.8186 268.092 21.1197 267.043 22.2401C265.995 23.3606 264.766 24.228 263.357 24.8424L272.14 39.3175H263.899L255.984 26.4146H248.502V39.3175H241.021ZM248.502 19.8547H257.881C258.821 19.8547 259.652 19.5837 260.375 19.0415C261.098 18.4632 261.676 17.7043 262.11 16.7645C262.544 15.8248 262.761 14.7767 262.761 13.6201C262.761 12.3913 262.508 11.3251 262.002 10.4215C261.496 9.48182 260.845 8.7409 260.05 8.19876C259.291 7.65662 258.46 7.38555 257.556 7.38555H248.502V19.8547Z" fill="white"/>
<path d="M31.5103 92.9282C31.5103 95.0967 30.9501 96.9219 29.8297 98.4038C28.7093 99.8495 27.1913 100.952 25.2757 101.711C23.3963 102.47 21.3362 102.849 19.0953 102.849H0.5V64.3575H21.1012C22.9084 64.3575 24.4625 64.8454 25.7636 65.8213C27.1009 66.761 28.1129 67.9898 28.7996 69.5078C29.5225 70.9896 29.8839 72.5438 29.8839 74.1702C29.8839 76.0135 29.414 77.7664 28.4743 79.4289C27.5346 81.0915 26.1612 82.3203 24.3541 83.1155C26.5588 83.766 28.2936 84.9407 29.5586 86.6394C30.8597 88.3381 31.5103 90.4343 31.5103 92.9282ZM23.9746 91.5186C23.9746 90.5428 23.7758 89.6753 23.3782 88.9163C22.9807 88.1212 22.4385 87.5068 21.7518 87.0731C21.1012 86.6032 20.3423 86.3683 19.4748 86.3683H7.98151V96.5063H19.0953C19.9989 96.5063 20.8121 96.2894 21.535 95.8557C22.294 95.3859 22.8903 94.7714 23.324 94.0124C23.7577 93.2534 23.9746 92.4222 23.9746 91.5186ZM7.98151 70.7547V80.459H17.9568C18.7881 80.459 19.5471 80.2602 20.2338 79.8626C20.9205 79.4651 21.4627 78.9049 21.8602 78.182C22.294 77.4592 22.5108 76.5917 22.5108 75.5798C22.5108 74.6039 22.312 73.7546 21.9145 73.0317C21.553 72.3088 21.047 71.7486 20.3965 71.3511C19.782 70.9535 19.0773 70.7547 18.2821 70.7547H7.98151Z" fill="white"/>
<path d="M64.0759 96.2894V102.849H37.3484V64.3575H63.5879V70.9174H44.83V80.1879H61.0399V86.2599H44.83V96.2894H64.0759Z" fill="white"/>
<path d="M80.3718 64.3575H87.9617L102.112 102.849H94.4131L90.835 93.2534H77.39L73.8661 102.849H66.1677L80.3718 64.3575ZM89.4797 87.9947L84.1667 72.1101L78.6369 87.9947H89.4797Z" fill="white"/>
<path d="M102.52 83.3323C102.52 80.9831 102.935 78.688 103.767 76.4472C104.634 74.1702 105.881 72.1101 107.507 70.2668C109.134 68.3874 111.122 66.9055 113.471 65.8213C115.82 64.7008 118.495 64.1406 121.495 64.1406C125.037 64.1406 128.091 64.9177 130.657 66.4718C133.259 68.026 135.193 70.0499 136.458 72.5438L130.711 76.5014C130.06 75.0557 129.211 73.9172 128.163 73.0859C127.115 72.2185 125.994 71.6221 124.802 71.2969C123.609 70.9354 122.434 70.7547 121.278 70.7547C119.398 70.7547 117.754 71.1342 116.344 71.8932C114.971 72.6522 113.814 73.6461 112.875 74.875C111.935 76.1038 111.23 77.4772 110.76 78.9952C110.327 80.5132 110.11 82.0312 110.11 83.5492C110.11 85.2479 110.381 86.8924 110.923 88.4826C111.465 90.0368 112.224 91.4283 113.2 92.6571C114.212 93.8498 115.405 94.8076 116.778 95.5304C118.188 96.2171 119.724 96.5605 121.386 96.5605C122.579 96.5605 123.79 96.3617 125.019 95.9641C126.247 95.5666 127.386 94.9341 128.434 94.0667C129.482 93.1992 130.295 92.0788 130.874 90.7054L137 94.2293C136.241 96.1449 134.994 97.7713 133.259 99.1085C131.56 100.446 129.645 101.458 127.512 102.145C125.38 102.831 123.266 103.175 121.169 103.175C118.423 103.175 115.911 102.614 113.634 101.494C111.357 100.337 109.387 98.8194 107.724 96.94C106.098 95.0244 104.815 92.892 103.875 90.5428C102.972 88.1573 102.52 85.7539 102.52 83.3323Z" fill="white"/>
<path d="M174.383 64.3575V102.849H166.955V86.4225H149.499V102.849H142.017V64.3575H149.499V79.9169H166.955V64.3575H174.383Z" fill="white"/>
<path d="M182.413 102.849V64.3575H208.273V70.9174H189.894V80.8385H205.183V86.9104H189.894V102.849H182.413Z" fill="white"/>
<path d="M213.543 102.849V64.3575H230.566C232.337 64.3575 233.964 64.7189 235.446 65.4418C236.964 66.1646 238.265 67.1405 239.349 68.3693C240.469 69.5982 241.319 70.9716 241.897 72.4896C242.512 74.0076 242.819 75.5617 242.819 77.1519C242.819 78.7784 242.53 80.3506 241.951 81.8685C241.409 83.3504 240.614 84.6515 239.566 85.7719C238.518 86.8924 237.289 87.7598 235.879 88.3742L244.662 102.849H236.422L228.506 89.9464H221.025V102.849H213.543ZM221.025 83.3865H230.404C231.344 83.3865 232.175 83.1155 232.898 82.5733C233.62 81.995 234.199 81.2361 234.632 80.2963C235.066 79.3566 235.283 78.3085 235.283 77.1519C235.283 75.9231 235.03 74.8569 234.524 73.9533C234.018 73.0136 233.367 72.2727 232.572 71.7306C231.813 71.1884 230.982 70.9174 230.079 70.9174H221.025V83.3865Z" fill="white"/>
<path d="M265.813 103.12C262.993 103.12 260.427 102.578 258.114 101.494C255.837 100.41 253.868 98.9459 252.205 97.1026C250.579 95.2232 249.314 93.127 248.41 90.8138C247.506 88.4646 247.055 86.0611 247.055 83.6034C247.055 81.0373 247.524 78.5976 248.464 76.2845C249.44 73.9353 250.759 71.8571 252.422 70.0499C254.121 68.2067 256.108 66.761 258.385 65.7128C260.698 64.6286 263.228 64.0864 265.975 64.0864C268.758 64.0864 271.288 64.6466 273.565 65.767C275.878 66.8875 277.848 68.3874 279.474 70.2668C281.101 72.1462 282.366 74.2425 283.269 76.5556C284.173 78.8687 284.625 81.2541 284.625 83.7118C284.625 86.2418 284.155 88.6814 283.215 91.0307C282.276 93.3438 280.956 95.422 279.258 97.2653C277.595 99.0724 275.607 100.5 273.294 101.548C271.017 102.596 268.523 103.12 265.813 103.12ZM254.645 83.6034C254.645 85.2659 254.898 86.8743 255.404 88.4284C255.91 89.9825 256.632 91.374 257.572 92.6029C258.548 93.7956 259.723 94.7534 261.096 95.4762C262.506 96.1629 264.096 96.5063 265.867 96.5063C267.674 96.5063 269.282 96.1449 270.692 95.422C272.101 94.663 273.276 93.6691 274.216 92.4402C275.155 91.1752 275.86 89.7838 276.33 88.2658C276.836 86.7116 277.089 85.1575 277.089 83.6034C277.089 81.9408 276.818 80.3506 276.276 78.8326C275.77 77.2784 275.029 75.905 274.053 74.7123C273.113 73.4835 271.939 72.5257 270.529 71.839C269.156 71.1161 267.602 70.7547 265.867 70.7547C264.024 70.7547 262.397 71.1342 260.988 71.8932C259.614 72.6161 258.458 73.5919 257.518 74.8208C256.578 76.0496 255.855 77.423 255.349 78.941C254.88 80.459 254.645 82.0131 254.645 83.6034Z" fill="white"/>
<path d="M297.845 78.1278V102.849H290.364V64.3575H296.327L316.224 89.7296V64.4117H323.705V102.849H317.471L297.845 78.1278Z" fill="white"/>
<path d="M360.5 70.9174H348.193V102.849H340.766V70.9174H328.46V64.3575H360.5V70.9174Z" fill="white"/>
</svg>
