<svg width="267" height="110" viewBox="0 0 267 110" fill="none" xmlns="http://www.w3.org/2000/svg">
<path d="M0.425781 41.3255V0.0582042H8.45806V19.6733L25.8031 0H34.6503L18.8185 18.3345L35.6398 41.3255H26.5598L13.6965 23.5148L8.45806 28.986V41.3255H0.425781Z" fill="white"/>
<path d="M68.0567 34.2827V41.3255H39.3617V0H67.5329V7.04279H47.394V16.9958H64.7972V23.5148H47.394V34.2827H68.0567Z" fill="white"/>
<path d="M105.226 7.04279H92.013V41.3255H84.039V7.04279H70.8264V0H105.226V7.04279Z" fill="white"/>
<path d="M127.875 41.6165C124.577 41.6165 121.764 41.0733 119.436 39.9868C117.146 38.8615 115.284 37.3287 113.848 35.3886C112.451 33.4484 111.423 31.256 110.763 28.8114C110.104 26.328 109.774 23.7476 109.774 21.0702V0H117.806V21.0702C117.806 22.7775 117.961 24.4461 118.272 26.0758C118.621 27.6667 119.183 29.1025 119.96 30.383C120.736 31.6635 121.764 32.6724 123.044 33.4096C124.325 34.1469 125.916 34.5155 127.817 34.5155C129.757 34.5155 131.368 34.1469 132.648 33.4096C133.968 32.6336 134.996 31.6053 135.733 30.3248C136.509 29.0442 137.072 27.6085 137.421 26.0176C137.77 24.3879 137.945 22.7387 137.945 21.0702V0H145.919V21.0702C145.919 23.9028 145.57 26.5608 144.871 29.0442C144.212 31.5277 143.145 33.72 141.67 35.6214C140.234 37.484 138.372 38.9585 136.082 40.045C133.793 41.0927 131.057 41.6165 127.875 41.6165Z" fill="white"/>
<path d="M154.009 41.3255V0H172.286C174.187 0 175.933 0.388032 177.524 1.1641C179.154 1.94016 180.551 2.98785 181.715 4.30716C182.918 5.62647 183.83 7.101 184.451 8.73074C185.11 10.3605 185.44 12.029 185.44 13.7364C185.44 15.4825 185.13 17.1704 184.509 18.8002C183.927 20.3911 183.073 21.788 181.948 22.9909C180.822 24.1938 179.503 25.1251 177.99 25.7848L187.419 41.3255H178.572L170.074 27.4727H162.042V41.3255H154.009ZM162.042 20.4299H172.111C173.12 20.4299 174.013 20.1389 174.789 19.5569C175.565 18.936 176.185 18.1211 176.651 17.1122C177.117 16.1034 177.35 14.9781 177.35 13.7364C177.35 12.417 177.078 11.2724 176.535 10.3023C175.991 9.29338 175.293 8.49792 174.439 7.91587C173.624 7.33382 172.732 7.04279 171.762 7.04279H162.042V20.4299Z" fill="white"/>
<path d="M203.952 0H212.1L227.292 41.3255H219.027L215.185 31.0232H200.75L196.967 41.3255H188.702L203.952 0ZM213.73 25.3773L208.026 8.3233L202.089 25.3773H213.73Z" fill="white"/>
<path d="M266.573 0V41.3255H258.599V23.6894H239.857V41.3255H231.824V0H239.857V16.7048H258.599V0H266.573Z" fill="white"/>
<path d="M23.9863 109.534V68.2089H42.2626C44.164 68.2089 45.9101 68.5969 47.501 69.373C49.1308 70.149 50.5277 71.1967 51.6918 72.516C52.8947 73.8353 53.8066 75.3099 54.4274 76.9396C55.0871 78.5694 55.4169 80.2379 55.4169 81.9452C55.4169 83.6914 55.1065 85.3793 54.4856 87.0091C53.9036 88.6 53.0499 89.9969 51.9246 91.1998C50.7993 92.4027 49.48 93.334 47.9667 93.9937L57.3959 109.534H48.5487L40.0508 95.6816H32.0185V109.534H23.9863ZM32.0185 88.6388H42.088C43.0969 88.6388 43.9893 88.3478 44.7654 87.7657C45.5415 87.1449 46.1623 86.33 46.628 85.3211C47.0936 84.3122 47.3264 83.1869 47.3264 81.9452C47.3264 80.6259 47.0548 79.4812 46.5116 78.5111C45.9683 77.5023 45.2699 76.7068 44.4162 76.1247C43.6013 75.5427 42.7088 75.2517 41.7388 75.2517H32.0185V88.6388Z" fill="white"/>
<path d="M91.3898 102.492V109.534H62.6948V68.2089H90.866V75.2517H70.7271V85.2047H88.1303V91.7237H70.7271V102.492H91.3898Z" fill="white"/>
<path d="M122.273 79.035C122.001 78.7634 121.496 78.3947 120.759 77.9291C120.061 77.4635 119.188 77.0172 118.14 76.5904C117.131 76.1635 116.025 75.7949 114.822 75.4845C113.619 75.1353 112.397 74.9606 111.155 74.9606C108.982 74.9606 107.333 75.3681 106.208 76.183C105.121 76.9978 104.578 78.1425 104.578 79.617C104.578 80.7423 104.927 81.6348 105.626 82.2945C106.324 82.9541 107.372 83.5168 108.769 83.9824C110.166 84.448 111.912 84.9525 114.007 85.4957C116.724 86.1554 119.071 86.9703 121.05 87.9403C123.068 88.8716 124.601 90.1133 125.648 91.6655C126.735 93.1788 127.278 95.1965 127.278 97.7188C127.278 99.9305 126.871 101.832 126.056 103.423C125.241 104.975 124.116 106.236 122.68 107.206C121.244 108.176 119.614 108.894 117.791 109.36C115.967 109.787 114.027 110 111.97 110C109.914 110 107.857 109.787 105.801 109.36C103.744 108.933 101.765 108.331 99.8636 107.555C97.9623 106.741 96.2161 105.77 94.6252 104.645L98.1757 97.7188C98.5249 98.068 99.1458 98.5336 100.038 99.1157C100.931 99.6589 102.017 100.222 103.298 100.804C104.578 101.347 105.975 101.813 107.488 102.201C109.002 102.589 110.535 102.783 112.087 102.783C114.26 102.783 115.909 102.414 117.034 101.677C118.159 100.939 118.722 99.8917 118.722 98.5336C118.722 97.2919 118.276 96.3218 117.383 95.6234C116.491 94.9249 115.249 94.3235 113.658 93.819C112.067 93.2758 110.185 92.6937 108.012 92.0729C105.413 91.3356 103.24 90.5208 101.493 89.6283C99.7472 88.697 98.4473 87.5329 97.5936 86.136C96.74 84.7391 96.3131 82.9929 96.3131 80.8975C96.3131 78.0649 96.9728 75.6979 98.2921 73.7965C99.6502 71.8564 101.474 70.4013 103.763 69.4312C106.053 68.4223 108.594 67.9179 111.388 67.9179C113.328 67.9179 115.152 68.1313 116.859 68.5581C118.606 68.9849 120.235 69.5476 121.749 70.2461C123.262 70.9445 124.62 71.7012 125.823 72.516L122.273 79.035Z" fill="white"/>
<path d="M150.984 109.825C147.957 109.825 145.202 109.243 142.719 108.079C140.274 106.915 138.159 105.344 136.374 103.365C134.628 101.347 133.27 99.0963 132.3 96.6129C131.33 94.0907 130.845 91.5102 130.845 88.8716C130.845 86.1166 131.349 83.4974 132.358 81.014C133.406 78.4917 134.822 76.2606 136.607 74.3204C138.431 72.3414 140.565 70.7893 143.01 69.664C145.493 68.4999 148.209 67.9179 151.159 67.9179C154.146 67.9179 156.863 68.5193 159.307 69.7222C161.791 70.9251 163.905 72.5354 165.652 74.5532C167.398 76.571 168.756 78.8216 169.726 81.305C170.696 83.7884 171.181 86.3494 171.181 88.988C171.181 91.7043 170.677 94.3235 169.668 96.8457C168.659 99.3291 167.242 101.56 165.419 103.539C163.634 105.479 161.5 107.012 159.016 108.137C156.572 109.263 153.894 109.825 150.984 109.825ZM138.994 88.8716C138.994 90.6566 139.265 92.3833 139.809 94.0519C140.352 95.7204 141.128 97.2143 142.137 98.5336C143.184 99.8141 144.446 100.842 145.92 101.618C147.433 102.356 149.141 102.724 151.042 102.724C152.982 102.724 154.709 102.336 156.222 101.56C157.736 100.745 158.997 99.6783 160.006 98.359C161.015 97.0009 161.771 95.507 162.276 93.8772C162.819 92.2087 163.091 90.5402 163.091 88.8716C163.091 87.0867 162.8 85.3793 162.217 83.7496C161.674 82.081 160.879 80.6065 159.831 79.326C158.822 78.0067 157.561 76.9784 156.048 76.2412C154.573 75.4651 152.905 75.0771 151.042 75.0771C149.063 75.0771 147.317 75.4845 145.804 76.2994C144.329 77.0754 143.087 78.1231 142.079 79.4424C141.07 80.7617 140.294 82.2363 139.75 83.866C139.246 85.4957 138.994 87.1643 138.994 88.8716Z" fill="white"/>
<path d="M177.343 109.534V68.2089H195.619C197.52 68.2089 199.266 68.5969 200.857 69.373C202.487 70.149 203.884 71.1967 205.048 72.516C206.251 73.8353 207.163 75.3099 207.784 76.9396C208.443 78.5694 208.773 80.2379 208.773 81.9452C208.773 83.6914 208.463 85.3793 207.842 87.0091C207.26 88.6 206.406 89.9969 205.281 91.1998C204.156 92.4027 202.836 93.334 201.323 93.9937L210.752 109.534H201.905L193.407 95.6816H185.375V109.534H177.343ZM185.375 88.6388H195.444C196.453 88.6388 197.346 88.3478 198.122 87.7657C198.898 87.1449 199.519 86.33 199.984 85.3211C200.45 84.3122 200.683 83.1869 200.683 81.9452C200.683 80.6259 200.411 79.4812 199.868 78.5111C199.325 77.5023 198.626 76.7068 197.772 76.1247C196.958 75.5427 196.065 75.2517 195.095 75.2517H185.375V88.6388Z" fill="white"/>
<path d="M246.503 75.2517H233.291V109.534H225.317V75.2517H212.104V68.2089H246.503V75.2517Z" fill="white"/>
</svg>
