<svg width="267" height="110" viewBox="0 0 267 110" fill="none" xmlns="http://www.w3.org/2000/svg">
<g opacity="0.4">
<mask id="path-1-inside-1_1325_529" fill="white">
<path d="M0.425781 41.3255V0.0582042H8.45806V19.6733L25.8031 0H34.6503L18.8185 18.3345L35.6398 41.3255H26.5598L13.6965 23.5148L8.45806 28.986V41.3255H0.425781Z"/>
<path d="M68.0567 34.2827V41.3255H39.3617V0H67.5329V7.04279H47.394V16.9958H64.7972V23.5148H47.394V34.2827H68.0567Z"/>
<path d="M105.226 7.04279H92.013V41.3255H84.039V7.04279H70.8264V0H105.226V7.04279Z"/>
<path d="M127.875 41.6165C124.577 41.6165 121.764 41.0733 119.436 39.9868C117.146 38.8615 115.284 37.3287 113.848 35.3886C112.451 33.4484 111.423 31.256 110.763 28.8114C110.104 26.328 109.774 23.7476 109.774 21.0702V0H117.806V21.0702C117.806 22.7775 117.961 24.4461 118.272 26.0758C118.621 27.6667 119.183 29.1025 119.96 30.383C120.736 31.6635 121.764 32.6724 123.044 33.4096C124.325 34.1469 125.916 34.5155 127.817 34.5155C129.757 34.5155 131.368 34.1469 132.648 33.4096C133.968 32.6336 134.996 31.6053 135.733 30.3248C136.509 29.0442 137.072 27.6085 137.421 26.0176C137.77 24.3879 137.945 22.7387 137.945 21.0702V0H145.919V21.0702C145.919 23.9028 145.57 26.5608 144.871 29.0442C144.212 31.5277 143.145 33.72 141.67 35.6214C140.234 37.484 138.372 38.9585 136.082 40.045C133.793 41.0927 131.057 41.6165 127.875 41.6165Z"/>
<path d="M154.009 41.3255V0H172.286C174.187 0 175.933 0.388032 177.524 1.1641C179.154 1.94016 180.551 2.98785 181.715 4.30716C182.918 5.62647 183.83 7.101 184.451 8.73074C185.11 10.3605 185.44 12.029 185.44 13.7364C185.44 15.4825 185.13 17.1704 184.509 18.8002C183.927 20.3911 183.073 21.788 181.948 22.9909C180.822 24.1938 179.503 25.1251 177.99 25.7848L187.419 41.3255H178.572L170.074 27.4727H162.042V41.3255H154.009ZM162.042 20.4299H172.111C173.12 20.4299 174.013 20.1389 174.789 19.5569C175.565 18.936 176.185 18.1211 176.651 17.1122C177.117 16.1034 177.35 14.9781 177.35 13.7364C177.35 12.417 177.078 11.2724 176.535 10.3023C175.991 9.29338 175.293 8.49792 174.439 7.91587C173.624 7.33382 172.732 7.04279 171.762 7.04279H162.042V20.4299Z"/>
<path d="M203.952 0H212.1L227.292 41.3255H219.027L215.185 31.0232H200.75L196.967 41.3255H188.702L203.952 0ZM213.73 25.3773L208.026 8.3233L202.089 25.3773H213.73Z"/>
<path d="M266.573 0V41.3255H258.599V23.6894H239.857V41.3255H231.824V0H239.857V16.7048H258.599V0H266.573Z"/>
<path d="M9.83292 109.534V68.2089H28.1093C30.0106 68.2089 31.7568 68.5969 33.3477 69.373C34.9774 70.149 36.3744 71.1967 37.5385 72.516C38.7414 73.8353 39.6532 75.3099 40.2741 76.9396C40.9337 78.5694 41.2636 80.2379 41.2636 81.9452C41.2636 83.6914 40.9531 85.3793 40.3323 87.0091C39.7502 88.6 38.8966 89.9969 37.7713 91.1998C36.646 92.4027 35.3267 93.334 33.8133 93.9937L43.2425 109.534H34.3954L25.8975 95.6816H17.8652V109.534H9.83292ZM17.8652 88.6388H27.9346C28.9435 88.6388 29.836 88.3478 30.6121 87.7657C31.3881 87.1449 32.009 86.33 32.4746 85.3211C32.9403 84.3122 33.1731 83.1869 33.1731 81.9452C33.1731 80.6259 32.9015 79.4812 32.3582 78.5111C31.815 77.5023 31.1165 76.7068 30.2628 76.1247C29.448 75.5427 28.5555 75.2517 27.5854 75.2517H17.8652V88.6388Z"/>
<path d="M77.2365 102.492V109.534H48.5415V68.2089H76.7126V75.2517H56.5737V85.2047H73.977V91.7237H56.5737V102.492H77.2365Z"/>
<path d="M108.119 79.035C107.848 78.7634 107.343 78.3947 106.606 77.9291C105.907 77.4635 105.034 77.0172 103.987 76.5904C102.978 76.1635 101.872 75.7949 100.669 75.4845C99.4661 75.1353 98.2437 74.9606 97.002 74.9606C94.8291 74.9606 93.1799 75.3681 92.0546 76.183C90.9681 76.9978 90.4249 78.1425 90.4249 79.617C90.4249 80.7423 90.7741 81.6348 91.4726 82.2945C92.171 82.9541 93.2187 83.5168 94.6156 83.9824C96.0126 84.448 97.7587 84.9525 99.8541 85.4957C102.57 86.1554 104.918 86.9703 106.897 87.9403C108.915 88.8716 110.447 90.1133 111.495 91.6655C112.582 93.1788 113.125 95.1965 113.125 97.7188C113.125 99.9305 112.717 101.832 111.903 103.423C111.088 104.975 109.962 106.236 108.527 107.206C107.091 108.176 105.461 108.894 103.637 109.36C101.814 109.787 99.8735 110 97.8169 110C95.7603 110 93.7038 109.787 91.6472 109.36C89.5906 108.933 87.6117 108.331 85.7103 107.555C83.8089 106.741 82.0628 105.77 80.4718 104.645L84.0224 97.7188C84.3716 98.068 84.9924 98.5336 85.8849 99.1157C86.7774 99.6589 87.8639 100.222 89.1444 100.804C90.4249 101.347 91.8218 101.813 93.3351 102.201C94.8485 102.589 96.3812 102.783 97.9333 102.783C100.106 102.783 101.755 102.414 102.881 101.677C104.006 100.939 104.569 99.8917 104.569 98.5336C104.569 97.2919 104.122 96.3218 103.23 95.6234C102.337 94.9249 101.096 94.3235 99.5049 93.819C97.9139 93.2758 96.032 92.6937 93.859 92.0729C91.2592 91.3356 89.0862 90.5208 87.34 89.6283C85.5939 88.697 84.294 87.5329 83.4403 86.136C82.5866 84.7391 82.1598 82.9929 82.1598 80.8975C82.1598 78.0649 82.8195 75.6979 84.1388 73.7965C85.4969 71.8564 87.3206 70.4013 89.61 69.4312C91.8994 68.4223 94.441 67.9179 97.2349 67.9179C99.175 67.9179 100.999 68.1313 102.706 68.5581C104.452 68.9849 106.082 69.5476 107.595 70.2461C109.109 70.9445 110.467 71.7012 111.67 72.516L108.119 79.035Z"/>
<path d="M147.89 102.492V109.534H119.194V68.2089H147.366V75.2517H127.227V85.2047H144.63V91.7237H127.227V102.492H147.89Z"/>
<path d="M154.152 109.534V68.2089H172.428C174.329 68.2089 176.075 68.5969 177.666 69.373C179.296 70.149 180.693 71.1967 181.857 72.516C183.06 73.8353 183.972 75.3099 184.593 76.9396C185.252 78.5694 185.582 80.2379 185.582 81.9452C185.582 83.6914 185.272 85.3793 184.651 87.0091C184.069 88.6 183.215 89.9969 182.09 91.1998C180.965 92.4027 179.645 93.334 178.132 93.9937L187.561 109.534H178.714L170.216 95.6816H162.184V109.534H154.152ZM162.184 88.6388H172.253C173.262 88.6388 174.155 88.3478 174.931 87.7657C175.707 87.1449 176.328 86.33 176.793 85.3211C177.259 84.3122 177.492 83.1869 177.492 81.9452C177.492 80.6259 177.22 79.4812 176.677 78.5111C176.134 77.5023 175.435 76.7068 174.581 76.1247C173.767 75.5427 172.874 75.2517 171.904 75.2517H162.184V88.6388Z"/>
<path d="M195.745 68.2089L206.92 99.9888L217.979 68.2089H226.419L210.762 109.534H203.02L187.305 68.2089H195.745Z"/>
<path d="M259.525 102.492V109.534H230.83V68.2089H259.001V75.2517H238.862V85.2047H256.265V91.7237H238.862V102.492H259.525Z"/>
</mask>
<path d="M0.425781 41.3255V0.0582042H8.45806V19.6733L25.8031 0H34.6503L18.8185 18.3345L35.6398 41.3255H26.5598L13.6965 23.5148L8.45806 28.986V41.3255H0.425781Z" stroke="white" stroke-width="2" mask="url(#path-1-inside-1_1325_529)"/>
<path d="M68.0567 34.2827V41.3255H39.3617V0H67.5329V7.04279H47.394V16.9958H64.7972V23.5148H47.394V34.2827H68.0567Z" stroke="white" stroke-width="2" mask="url(#path-1-inside-1_1325_529)"/>
<path d="M105.226 7.04279H92.013V41.3255H84.039V7.04279H70.8264V0H105.226V7.04279Z" stroke="white" stroke-width="2" mask="url(#path-1-inside-1_1325_529)"/>
<path d="M127.875 41.6165C124.577 41.6165 121.764 41.0733 119.436 39.9868C117.146 38.8615 115.284 37.3287 113.848 35.3886C112.451 33.4484 111.423 31.256 110.763 28.8114C110.104 26.328 109.774 23.7476 109.774 21.0702V0H117.806V21.0702C117.806 22.7775 117.961 24.4461 118.272 26.0758C118.621 27.6667 119.183 29.1025 119.96 30.383C120.736 31.6635 121.764 32.6724 123.044 33.4096C124.325 34.1469 125.916 34.5155 127.817 34.5155C129.757 34.5155 131.368 34.1469 132.648 33.4096C133.968 32.6336 134.996 31.6053 135.733 30.3248C136.509 29.0442 137.072 27.6085 137.421 26.0176C137.77 24.3879 137.945 22.7387 137.945 21.0702V0H145.919V21.0702C145.919 23.9028 145.57 26.5608 144.871 29.0442C144.212 31.5277 143.145 33.72 141.67 35.6214C140.234 37.484 138.372 38.9585 136.082 40.045C133.793 41.0927 131.057 41.6165 127.875 41.6165Z" stroke="white" stroke-width="2" mask="url(#path-1-inside-1_1325_529)"/>
<path d="M154.009 41.3255V0H172.286C174.187 0 175.933 0.388032 177.524 1.1641C179.154 1.94016 180.551 2.98785 181.715 4.30716C182.918 5.62647 183.83 7.101 184.451 8.73074C185.11 10.3605 185.44 12.029 185.44 13.7364C185.44 15.4825 185.13 17.1704 184.509 18.8002C183.927 20.3911 183.073 21.788 181.948 22.9909C180.822 24.1938 179.503 25.1251 177.99 25.7848L187.419 41.3255H178.572L170.074 27.4727H162.042V41.3255H154.009ZM162.042 20.4299H172.111C173.12 20.4299 174.013 20.1389 174.789 19.5569C175.565 18.936 176.185 18.1211 176.651 17.1122C177.117 16.1034 177.35 14.9781 177.35 13.7364C177.35 12.417 177.078 11.2724 176.535 10.3023C175.991 9.29338 175.293 8.49792 174.439 7.91587C173.624 7.33382 172.732 7.04279 171.762 7.04279H162.042V20.4299Z" stroke="white" stroke-width="2" mask="url(#path-1-inside-1_1325_529)"/>
<path d="M203.952 0H212.1L227.292 41.3255H219.027L215.185 31.0232H200.75L196.967 41.3255H188.702L203.952 0ZM213.73 25.3773L208.026 8.3233L202.089 25.3773H213.73Z" stroke="white" stroke-width="2" mask="url(#path-1-inside-1_1325_529)"/>
<path d="M266.573 0V41.3255H258.599V23.6894H239.857V41.3255H231.824V0H239.857V16.7048H258.599V0H266.573Z" stroke="white" stroke-width="2" mask="url(#path-1-inside-1_1325_529)"/>
<path d="M9.83292 109.534V68.2089H28.1093C30.0106 68.2089 31.7568 68.5969 33.3477 69.373C34.9774 70.149 36.3744 71.1967 37.5385 72.516C38.7414 73.8353 39.6532 75.3099 40.2741 76.9396C40.9337 78.5694 41.2636 80.2379 41.2636 81.9452C41.2636 83.6914 40.9531 85.3793 40.3323 87.0091C39.7502 88.6 38.8966 89.9969 37.7713 91.1998C36.646 92.4027 35.3267 93.334 33.8133 93.9937L43.2425 109.534H34.3954L25.8975 95.6816H17.8652V109.534H9.83292ZM17.8652 88.6388H27.9346C28.9435 88.6388 29.836 88.3478 30.6121 87.7657C31.3881 87.1449 32.009 86.33 32.4746 85.3211C32.9403 84.3122 33.1731 83.1869 33.1731 81.9452C33.1731 80.6259 32.9015 79.4812 32.3582 78.5111C31.815 77.5023 31.1165 76.7068 30.2628 76.1247C29.448 75.5427 28.5555 75.2517 27.5854 75.2517H17.8652V88.6388Z" stroke="white" stroke-width="2" mask="url(#path-1-inside-1_1325_529)"/>
<path d="M77.2365 102.492V109.534H48.5415V68.2089H76.7126V75.2517H56.5737V85.2047H73.977V91.7237H56.5737V102.492H77.2365Z" stroke="white" stroke-width="2" mask="url(#path-1-inside-1_1325_529)"/>
<path d="M108.119 79.035C107.848 78.7634 107.343 78.3947 106.606 77.9291C105.907 77.4635 105.034 77.0172 103.987 76.5904C102.978 76.1635 101.872 75.7949 100.669 75.4845C99.4661 75.1353 98.2437 74.9606 97.002 74.9606C94.8291 74.9606 93.1799 75.3681 92.0546 76.183C90.9681 76.9978 90.4249 78.1425 90.4249 79.617C90.4249 80.7423 90.7741 81.6348 91.4726 82.2945C92.171 82.9541 93.2187 83.5168 94.6156 83.9824C96.0126 84.448 97.7587 84.9525 99.8541 85.4957C102.57 86.1554 104.918 86.9703 106.897 87.9403C108.915 88.8716 110.447 90.1133 111.495 91.6655C112.582 93.1788 113.125 95.1965 113.125 97.7188C113.125 99.9305 112.717 101.832 111.903 103.423C111.088 104.975 109.962 106.236 108.527 107.206C107.091 108.176 105.461 108.894 103.637 109.36C101.814 109.787 99.8735 110 97.8169 110C95.7603 110 93.7038 109.787 91.6472 109.36C89.5906 108.933 87.6117 108.331 85.7103 107.555C83.8089 106.741 82.0628 105.77 80.4718 104.645L84.0224 97.7188C84.3716 98.068 84.9924 98.5336 85.8849 99.1157C86.7774 99.6589 87.8639 100.222 89.1444 100.804C90.4249 101.347 91.8218 101.813 93.3351 102.201C94.8485 102.589 96.3812 102.783 97.9333 102.783C100.106 102.783 101.755 102.414 102.881 101.677C104.006 100.939 104.569 99.8917 104.569 98.5336C104.569 97.2919 104.122 96.3218 103.23 95.6234C102.337 94.9249 101.096 94.3235 99.5049 93.819C97.9139 93.2758 96.032 92.6937 93.859 92.0729C91.2592 91.3356 89.0862 90.5208 87.34 89.6283C85.5939 88.697 84.294 87.5329 83.4403 86.136C82.5866 84.7391 82.1598 82.9929 82.1598 80.8975C82.1598 78.0649 82.8195 75.6979 84.1388 73.7965C85.4969 71.8564 87.3206 70.4013 89.61 69.4312C91.8994 68.4223 94.441 67.9179 97.2349 67.9179C99.175 67.9179 100.999 68.1313 102.706 68.5581C104.452 68.9849 106.082 69.5476 107.595 70.2461C109.109 70.9445 110.467 71.7012 111.67 72.516L108.119 79.035Z" stroke="white" stroke-width="2" mask="url(#path-1-inside-1_1325_529)"/>
<path d="M147.89 102.492V109.534H119.194V68.2089H147.366V75.2517H127.227V85.2047H144.63V91.7237H127.227V102.492H147.89Z" stroke="white" stroke-width="2" mask="url(#path-1-inside-1_1325_529)"/>
<path d="M154.152 109.534V68.2089H172.428C174.329 68.2089 176.075 68.5969 177.666 69.373C179.296 70.149 180.693 71.1967 181.857 72.516C183.06 73.8353 183.972 75.3099 184.593 76.9396C185.252 78.5694 185.582 80.2379 185.582 81.9452C185.582 83.6914 185.272 85.3793 184.651 87.0091C184.069 88.6 183.215 89.9969 182.09 91.1998C180.965 92.4027 179.645 93.334 178.132 93.9937L187.561 109.534H178.714L170.216 95.6816H162.184V109.534H154.152ZM162.184 88.6388H172.253C173.262 88.6388 174.155 88.3478 174.931 87.7657C175.707 87.1449 176.328 86.33 176.793 85.3211C177.259 84.3122 177.492 83.1869 177.492 81.9452C177.492 80.6259 177.22 79.4812 176.677 78.5111C176.134 77.5023 175.435 76.7068 174.581 76.1247C173.767 75.5427 172.874 75.2517 171.904 75.2517H162.184V88.6388Z" stroke="white" stroke-width="2" mask="url(#path-1-inside-1_1325_529)"/>
<path d="M195.745 68.2089L206.92 99.9888L217.979 68.2089H226.419L210.762 109.534H203.02L187.305 68.2089H195.745Z" stroke="white" stroke-width="2" mask="url(#path-1-inside-1_1325_529)"/>
<path d="M259.525 102.492V109.534H230.83V68.2089H259.001V75.2517H238.862V85.2047H256.265V91.7237H238.862V102.492H259.525Z" stroke="white" stroke-width="2" mask="url(#path-1-inside-1_1325_529)"/>
</g>
</svg>
