<svg width="359" height="74" viewBox="0 0 359 74" fill="none" xmlns="http://www.w3.org/2000/svg">
<g clip-path="url(#clip0_1417_410)">
<path d="M258.141 40.0411V39.0274H261.136C261.885 39.0274 262.884 37 262.884 37C262.884 37 278.862 0.506836 279.361 0.506836C279.86 0.506836 295.588 37 295.588 37C295.588 37 296.587 39.0274 298.834 39.0274H301.081V40.0411H285.353V39.0274H286.351C287.1 39.0274 287.1 37 287.1 37C287.1 37 277.364 13.1781 276.865 13.1781C276.365 13.1781 267.877 37 267.877 37C267.877 37 267.378 39.0274 269.874 39.0274H272.371V40.0411H258.141Z" fill="white" stroke="white"/>
<path fill-rule="evenodd" clip-rule="evenodd" d="M207.211 1.52051V2.02729H210.456C212.454 2.02729 212.454 4.30812 212.454 4.30812V36.4931C212.454 36.4931 211.954 39.2807 210.706 39.2807H207.96V40.041H225.685V39.2807H222.44C220.692 39.2807 220.193 36.4931 220.193 36.4931V24.0752H224.687C229.283 33.2508 235.671 39.2807 237.918 39.7876C240.165 40.2944 248.653 40.041 248.653 40.041V39.2807C248.653 39.2807 245.907 39.7876 244.908 38.7739C243.91 37.7602 230.429 22.8081 231.427 21.541C231.427 21.541 236.66 17.8285 237.918 14.1917C238.709 11.9078 238.667 10.3904 238.168 8.10955C237.669 5.82872 233.076 1.51647 230.179 1.52051C227.282 1.52455 207.211 1.52051 207.211 1.52051ZM220.692 4.30404C220.692 4.30404 220.443 19.2602 220.692 20.2698C220.942 21.2794 227.183 21.5369 229.18 19.5095C231.178 17.4821 230.928 12.667 230.429 10.8931C229.929 9.11909 228.431 4.77877 224.936 4.27192C221.441 3.76507 220.692 4.30404 220.692 4.30404Z" fill="white"/>
<path d="M207.211 2.02735H206.961V2.28077H207.211V2.02735ZM207.211 1.52057V1.26714L206.961 1.26709V1.52057H207.211ZM212.453 36.4931L212.699 36.5384L212.703 36.516V36.4931H212.453ZM207.96 39.2808V39.0274H207.71V39.2808H207.96ZM207.96 40.0411H207.71V40.2945H207.96V40.0411ZM225.685 40.0411V40.2945H225.935V40.0411H225.685ZM225.685 39.2808H225.935V39.0274H225.685V39.2808ZM220.193 36.4931H219.943V36.516L219.947 36.5384L220.193 36.4931ZM220.193 24.0753V23.8218H219.943V24.0753H220.193ZM224.686 24.0753L224.909 23.9604L224.84 23.8218H224.686V24.0753ZM248.653 40.0411L248.66 40.2944L248.903 40.2871V40.0411H248.653ZM248.653 39.2808H248.903V38.9771L248.608 39.0315L248.653 39.2808ZM231.427 21.541L231.284 21.3333L231.255 21.3542L231.232 21.3827L231.427 21.541ZM220.692 4.30409L220.548 4.09735L220.444 4.17153L220.442 4.2998L220.692 4.30409ZM207.46 2.02735V1.52057H206.961V2.02735H207.46ZM210.456 1.77392H207.211V2.28077H210.456V1.77392ZM212.453 4.30817C212.703 4.30817 212.703 4.30805 212.703 4.30793C212.703 4.30787 212.703 4.30803 212.703 4.30793C212.703 4.30771 212.703 4.30716 212.703 4.30687C212.703 4.30629 212.703 4.30558 212.703 4.30473C212.703 4.30303 212.703 4.30078 212.703 4.298C212.703 4.29243 212.702 4.28474 212.702 4.27505C212.702 4.25569 212.7 4.22833 212.698 4.19411C212.694 4.12575 212.686 4.02954 212.669 3.91465C212.636 3.68618 212.569 3.37721 212.432 3.06483C212.295 2.75221 212.084 2.42763 211.761 2.18099C211.434 1.932 211.006 1.77392 210.456 1.77392V2.28077C210.905 2.28077 211.226 2.4078 211.461 2.58647C211.699 2.76748 211.863 3.0131 211.975 3.27069C212.088 3.52851 212.146 3.78976 212.175 3.98893C212.19 4.08787 212.197 4.16985 212.2 4.22623C212.202 4.25437 212.203 4.27602 212.203 4.29007C212.204 4.29709 212.204 4.30219 212.204 4.30526C212.204 4.3068 212.204 4.30782 212.204 4.30831C212.204 4.30833 212.204 4.30855 212.204 4.30831C212.204 4.30821 212.204 4.30817 212.453 4.30817ZM212.703 36.4931V4.30793L212.204 4.30831V36.4931H212.703ZM210.706 39.5342C211.118 39.5342 211.447 39.302 211.694 39.0108C211.942 38.7197 212.134 38.3428 212.279 37.9829C212.425 37.6203 212.53 37.26 212.598 36.9919C212.632 36.8574 212.657 36.7451 212.673 36.666C212.682 36.6264 212.688 36.5951 212.692 36.5734C212.694 36.5625 212.696 36.5541 212.697 36.5482C212.697 36.5453 212.698 36.543 212.698 36.5413C212.698 36.5405 212.698 36.5398 212.699 36.5394C212.699 36.5391 212.699 36.5386 212.699 36.5384C212.699 36.5384 212.699 36.5385 212.699 36.5384C212.699 36.5384 212.699 36.5384 212.453 36.4931C212.208 36.4478 212.208 36.4478 212.208 36.4477C212.208 36.4479 212.208 36.4484 212.208 36.4489C212.207 36.45 212.207 36.4516 212.207 36.454C212.206 36.4586 212.204 36.4659 212.203 36.4754C212.199 36.4946 212.193 36.5231 212.185 36.5598C212.17 36.6332 212.146 36.7386 212.114 36.8655C212.049 37.12 211.951 37.4566 211.817 37.791C211.681 38.1281 211.514 38.448 211.316 38.6796C211.12 38.911 210.917 39.0274 210.706 39.0274V39.5342ZM207.96 39.5342H210.706V39.0274H207.96V39.5342ZM208.209 40.0411V39.2808H207.71V40.0411H208.209ZM225.685 39.7876H207.96V40.2945H225.685V39.7876ZM225.435 39.2808V40.0411H225.935V39.2808H225.435ZM222.439 39.5342H225.685V39.0274H222.439V39.5342ZM220.193 36.4931C219.947 36.5384 219.947 36.5383 219.947 36.5384C219.947 36.5383 219.947 36.5385 219.947 36.5384C219.947 36.5386 219.947 36.5393 219.947 36.5395C219.947 36.5401 219.947 36.5408 219.947 36.5417C219.948 36.5434 219.948 36.5458 219.949 36.5489C219.95 36.555 219.952 36.5637 219.954 36.5748C219.958 36.5971 219.965 36.6289 219.974 36.669C219.992 36.7493 220.019 36.8629 220.058 36.9988C220.135 37.2697 220.257 37.6337 220.437 38.0003C220.79 38.7155 221.414 39.5342 222.439 39.5342V39.0274C221.717 39.0274 221.218 38.4522 220.884 37.7736C220.721 37.4432 220.609 37.1104 220.538 36.8586C220.502 36.7332 220.477 36.6289 220.461 36.5567C220.453 36.5206 220.447 36.4926 220.443 36.474C220.441 36.4647 220.44 36.4577 220.439 36.4533C220.439 36.4511 220.439 36.4495 220.438 36.4486C220.438 36.4481 220.438 36.4478 220.438 36.4477C220.438 36.4478 220.438 36.4478 220.193 36.4931ZM219.943 24.0753V36.4931H220.442V24.0753H219.943ZM224.686 23.8218H220.193V24.3287H224.686V23.8218ZM237.972 39.5402C237.468 39.4266 236.685 38.9857 235.702 38.2091C234.729 37.4397 233.586 36.362 232.367 35.011C229.929 32.3094 227.196 28.5268 224.909 23.9604L224.464 24.1902C226.773 28.7993 229.532 32.6195 231.999 35.3534C233.232 36.7202 234.395 37.8185 235.395 38.609C236.386 39.3923 237.244 39.8952 237.864 40.035L237.972 39.5402ZM248.653 40.0411C248.645 39.7877 248.645 39.7877 248.645 39.7877C248.645 39.7877 248.644 39.7878 248.644 39.7878C248.643 39.7878 248.641 39.7878 248.639 39.7879C248.635 39.788 248.629 39.7882 248.621 39.7884C248.605 39.7889 248.581 39.7896 248.55 39.7904C248.488 39.7921 248.396 39.7946 248.277 39.7976C248.042 39.8035 247.702 39.8115 247.287 39.8194C246.457 39.8352 245.327 39.851 244.128 39.851C242.928 39.851 241.66 39.8352 240.554 39.7878C239.441 39.7403 238.51 39.6615 237.972 39.5402L237.864 40.035C238.45 40.1672 239.422 40.2468 240.533 40.2942C241.649 40.342 242.925 40.3578 244.128 40.3578C245.331 40.3578 246.464 40.342 247.296 40.3261C247.712 40.3182 248.053 40.3102 248.29 40.3043C248.408 40.3013 248.501 40.2988 248.564 40.2971C248.595 40.2962 248.619 40.2955 248.635 40.2951C248.644 40.2948 248.65 40.2947 248.654 40.2945C248.656 40.2945 248.657 40.2944 248.658 40.2944C248.659 40.2944 248.659 40.2944 248.66 40.2944C248.66 40.2944 248.66 40.2944 248.653 40.0411ZM248.403 39.2808V40.0411H248.903V39.2808H248.403ZM244.731 38.9531C245.027 39.2534 245.437 39.4271 245.857 39.5275C246.281 39.6286 246.739 39.6609 247.155 39.6609C247.573 39.6609 247.957 39.6283 248.236 39.5959C248.376 39.5797 248.491 39.5634 248.57 39.5511C248.61 39.545 248.641 39.5398 248.663 39.5362C248.674 39.5343 248.682 39.5329 248.688 39.5318C248.691 39.5313 248.693 39.5309 248.695 39.5306C248.695 39.5305 248.696 39.5304 248.697 39.5303C248.696 39.5303 248.697 39.5303 248.697 39.5303C248.697 39.5303 248.697 39.5302 248.697 39.5302C248.697 39.5302 248.697 39.5301 248.653 39.2808C248.608 39.0315 248.608 39.0315 248.608 39.0315C248.608 39.0315 248.608 39.0315 248.608 39.0315C248.608 39.0315 248.607 39.0316 248.607 39.0317C248.606 39.0319 248.604 39.0322 248.602 39.0326C248.597 39.0334 248.59 39.0347 248.58 39.0363C248.562 39.0396 248.533 39.0443 248.496 39.05C248.421 39.0615 248.313 39.0769 248.18 39.0923C247.913 39.1233 247.548 39.1541 247.155 39.1541C246.76 39.1541 246.344 39.1231 245.972 39.0341C245.596 38.9444 245.288 38.8014 245.085 38.5947L244.731 38.9531ZM231.232 21.3827C231.09 21.5623 231.114 21.8038 231.161 21.9936C231.212 22.2018 231.317 22.4486 231.457 22.7215C231.741 23.27 232.198 23.9737 232.769 24.7744C233.914 26.3783 235.542 28.4038 237.228 30.4167C240.6 34.4416 244.225 38.4391 244.731 38.9531L245.085 38.5947C244.593 38.0951 240.978 34.1097 237.609 30.0884C235.925 28.0781 234.307 26.0646 233.174 24.477C232.606 23.6819 232.166 23.0016 231.9 22.486C231.765 22.2268 231.682 22.0215 231.645 21.8708C231.604 21.7019 231.639 21.6781 231.622 21.6993L231.232 21.3827ZM237.682 14.1078C237.075 15.8637 235.492 17.6654 234.03 19.0446C233.304 19.7298 232.617 20.3028 232.11 20.7045C231.857 20.9052 231.65 21.0629 231.506 21.1702C231.434 21.2239 231.378 21.2649 231.34 21.2924C231.322 21.3061 231.308 21.3165 231.298 21.3234C231.293 21.3268 231.29 21.3293 231.287 21.331C231.286 21.3318 231.285 21.3324 231.285 21.3328C231.284 21.333 231.284 21.3332 231.284 21.3333C231.284 21.3333 231.284 21.3333 231.427 21.541C231.57 21.7488 231.57 21.7487 231.57 21.7487C231.57 21.7486 231.57 21.7488 231.57 21.7487C231.571 21.7485 231.571 21.7481 231.571 21.7479C231.572 21.7473 231.573 21.7466 231.574 21.7456C231.577 21.7437 231.581 21.7409 231.586 21.7372C231.597 21.7298 231.612 21.7188 231.631 21.7045C231.671 21.6758 231.728 21.6336 231.802 21.5786C231.949 21.4687 232.161 21.3079 232.418 21.1038C232.932 20.6957 233.631 20.1133 234.37 19.4158C235.84 18.0296 237.502 16.1566 238.153 14.2757L237.682 14.1078ZM237.924 8.16454C238.171 9.29563 238.302 10.2222 238.277 11.1424C238.251 12.0607 238.071 12.9848 237.682 14.1078L238.153 14.2757C238.555 13.1147 238.749 12.1381 238.776 11.1565C238.803 10.1769 238.663 9.20434 238.411 8.05461L237.924 8.16454ZM230.179 1.77399C230.847 1.77306 231.637 2.02286 232.465 2.45325C233.29 2.88178 234.135 3.47963 234.91 4.15102C235.685 4.82228 236.383 5.56223 236.918 6.27121C237.455 6.98556 237.81 7.64776 237.924 8.16454L238.411 8.05461C238.275 7.43103 237.868 6.69889 237.314 5.96335C236.756 5.22244 236.032 4.4569 235.234 3.7655C234.436 3.07423 233.559 2.45221 232.693 2.00206C231.829 1.55376 230.959 1.26605 230.178 1.26714L230.179 1.77399ZM207.211 1.52057C207.211 1.77399 207.211 1.77392 207.211 1.77392C207.211 1.77392 207.211 1.77399 207.212 1.77399C207.212 1.77399 207.213 1.77399 207.214 1.77399C207.217 1.77399 207.22 1.77399 207.225 1.77399C207.235 1.77399 207.249 1.77399 207.268 1.774C207.306 1.774 207.363 1.77402 207.437 1.77403C207.585 1.77406 207.801 1.7741 208.079 1.77415C208.633 1.77426 209.429 1.7744 210.392 1.77456C212.319 1.77487 214.918 1.77525 217.608 1.77551C222.988 1.77601 228.73 1.77601 230.179 1.77399L230.178 1.26714C228.73 1.26916 222.988 1.26916 217.608 1.26866C214.918 1.2684 212.319 1.26802 210.392 1.26771C209.429 1.26755 208.633 1.26741 208.079 1.2673C207.801 1.26725 207.585 1.26721 207.437 1.26718C207.363 1.26717 207.306 1.26716 207.269 1.26715C207.249 1.26715 207.235 1.26715 207.225 1.26714C207.221 1.26714 207.217 1.26714 207.214 1.26714C207.213 1.26714 207.212 1.26714 207.212 1.26714C207.211 1.26714 207.211 1.26714 207.211 1.26714C207.211 1.26714 207.211 1.26714 207.211 1.52057ZM220.934 20.2081C220.924 20.1693 220.912 20.0727 220.9 19.9057C220.888 19.7453 220.878 19.5366 220.87 19.2853C220.853 18.783 220.842 18.1186 220.836 17.3473C220.825 15.8052 220.832 13.8427 220.848 11.9104C220.864 9.97845 220.887 8.07792 220.907 6.66032C220.916 5.95149 220.925 5.36349 220.931 4.95267C220.934 4.74727 220.937 4.58618 220.938 4.47644C220.939 4.42158 220.94 4.37955 220.941 4.35125C220.941 4.3371 220.941 4.32637 220.941 4.31919C220.941 4.3156 220.941 4.3129 220.941 4.31109C220.941 4.31019 220.941 4.30951 220.941 4.30906C220.941 4.30883 220.941 4.30917 220.941 4.30906C220.941 4.30895 220.941 4.30838 220.692 4.30409C220.442 4.2998 220.442 4.29968 220.442 4.2998C220.442 4.29991 220.442 4.30026 220.442 4.30049C220.442 4.30095 220.442 4.30163 220.442 4.30254C220.442 4.30436 220.442 4.30708 220.442 4.31068C220.442 4.31788 220.442 4.32863 220.442 4.34281C220.441 4.37116 220.44 4.41324 220.44 4.46816C220.438 4.578 220.435 4.73922 220.432 4.94474C220.426 5.35579 220.417 5.94409 220.407 6.65322C220.388 8.07143 220.364 9.97303 220.349 11.9063C220.333 13.8393 220.325 15.805 220.337 17.3512C220.343 18.1241 220.353 18.7937 220.371 19.3026C220.379 19.5569 220.389 19.773 220.402 19.9427C220.413 20.1056 220.428 20.2441 220.45 20.3316L220.934 20.2081ZM229.003 19.3304C228.548 19.7928 227.831 20.1415 226.98 20.3814C226.133 20.6201 225.178 20.7444 224.272 20.7753C223.366 20.8062 222.52 20.7433 221.892 20.6137C221.577 20.5487 221.328 20.4692 221.157 20.3831C220.971 20.2896 220.937 20.2194 220.934 20.2081L220.45 20.3316C220.509 20.5726 220.725 20.7313 220.935 20.8373C221.161 20.9506 221.457 21.041 221.793 21.1104C222.468 21.2498 223.354 21.3138 224.289 21.2819C225.225 21.2499 226.22 21.1216 227.113 20.8698C228.002 20.6194 228.814 20.24 229.357 19.6888L229.003 19.3304ZM230.188 10.9628C230.428 11.8161 230.614 13.4327 230.491 15.0872C230.368 16.7511 229.936 18.3834 229.003 19.3304L229.357 19.6888C230.421 18.6083 230.863 16.8194 230.989 15.1254C231.116 13.422 230.928 11.7441 230.668 10.8235L230.188 10.9628ZM224.9 4.52285C226.547 4.76155 227.741 5.90465 228.596 7.24512C229.45 8.58406 229.941 10.0844 230.188 10.9628L230.668 10.8235C230.416 9.92787 229.909 8.37108 229.015 6.96965C228.122 5.56973 226.82 4.28925 224.971 4.0211L224.9 4.52285ZM220.692 4.30409C220.836 4.51083 220.836 4.51102 220.836 4.51121C220.836 4.51126 220.835 4.51145 220.835 4.51156C220.835 4.5118 220.835 4.51202 220.834 4.51224C220.834 4.51266 220.833 4.51306 220.833 4.51341C220.832 4.51412 220.831 4.51469 220.83 4.51511C220.829 4.51596 220.828 4.51625 220.829 4.51602C220.829 4.51558 220.834 4.51308 220.842 4.50896C220.858 4.50071 220.891 4.48593 220.943 4.46801C221.048 4.43208 221.234 4.38385 221.531 4.3498C222.128 4.28157 223.166 4.27134 224.9 4.52285L224.971 4.0211C223.21 3.76576 222.127 3.77159 221.475 3.84613C221.149 3.88347 220.928 3.9383 220.784 3.98759C220.712 4.01227 220.658 4.03564 220.62 4.05489C220.601 4.06451 220.585 4.0731 220.573 4.0803C220.567 4.0839 220.562 4.08715 220.558 4.09001C220.556 4.09144 220.554 4.09276 220.552 4.09399C220.552 4.0946 220.551 4.09519 220.55 4.09575C220.55 4.09603 220.549 4.0963 220.549 4.09657C220.549 4.0967 220.548 4.0969 220.548 4.09696C220.548 4.09715 220.548 4.09735 220.692 4.30409Z" fill="white"/>
<path d="M150.293 1.01369V0.506836H167.519V1.01369H165.022C164.024 1.01369 162.776 3.80136 162.776 3.80136V28.1301C162.776 28.1301 163.525 35.7329 169.516 36.4931H175.508C181 34.7192 181 27.6233 181 27.6233V3.29451C181 3.29451 180.501 1.01369 179.003 1.01369H175.758V0.506836H190.986V1.01369H187.99C186.992 1.01369 186.243 3.29451 186.243 3.29451C186.243 3.29451 185.993 26.1027 185.744 27.6233C185.494 29.1438 183.497 35.226 180.002 37.5068C176.506 39.7877 174.509 39.7877 174.509 39.7877C174.509 39.7877 167.519 40.0411 166.77 39.7877C166.021 39.5342 164.024 39.7877 161.028 37.5068C158.032 35.226 155.286 31.1712 155.036 27.6233C154.787 24.0753 154.787 3.29451 154.787 3.29451C154.787 3.29451 154.287 1.01369 153.039 1.01369H150.293Z" fill="white" stroke="white"/>
<mask id="mask0_1417_410" style="mask-type:luminance" maskUnits="userSpaceOnUse" x="89" y="54" width="177" height="20">
<path d="M265.63 54.7397H89.375V74H265.63V54.7397Z" fill="white"/>
</mask>
<g mask="url(#mask0_1417_410)">
<path d="M89.668 73.4933V55.0622H96.4765C97.8715 55.0622 99.0414 55.3085 99.9871 55.8002C100.939 56.2923 101.657 56.9822 102.142 57.8702C102.632 58.7521 102.878 59.781 102.878 60.9569C102.878 62.1388 102.629 63.1647 102.133 64.035C101.642 64.8986 100.918 65.5677 99.9606 66.0416C99.003 66.5099 97.8271 66.7436 96.432 66.7436H91.5828V63.9716H95.9887C96.8045 63.9716 97.4726 63.8581 97.9924 63.63C98.5126 63.3958 98.8966 63.0567 99.1448 62.6127C99.3989 62.1632 99.5262 61.6112 99.5262 60.9569C99.5262 60.303 99.3989 59.745 99.1448 59.2832C98.8906 58.8149 98.5037 58.4611 97.9834 58.2214C97.4636 57.9751 96.7925 57.8524 95.9712 57.8524H92.9569V73.4933H89.668ZM99.0474 65.1419L103.542 73.4933H99.8718L95.4569 65.1419H99.0474ZM117.139 73.4933V55.0622H128.948V57.861H120.428V62.8646H128.337V65.664H120.428V70.6945H129.019V73.4933H117.139ZM153.405 60.1292C153.323 59.3431 152.974 58.7313 152.359 58.2934C151.751 57.8549 150.959 57.636 149.983 57.636C149.298 57.636 148.71 57.7414 148.219 57.9512C147.729 58.1611 147.353 58.4459 147.093 58.8063C146.833 59.1662 146.7 59.5772 146.694 60.039C146.694 60.4232 146.78 60.7562 146.951 61.038C147.128 61.3198 147.368 61.56 147.669 61.7582C147.971 61.9498 148.305 62.112 148.671 62.2438C149.038 62.376 149.407 62.487 149.779 62.5768L151.481 63.0091C152.167 63.1708 152.826 63.3897 153.459 63.666C154.097 63.9417 154.667 64.2899 155.17 64.7096C155.678 65.1298 156.08 65.6366 156.376 66.2306C156.671 66.8247 156.818 67.5206 156.818 68.3183C156.818 69.3984 156.547 70.3493 156.003 71.1714C155.459 71.9874 154.673 72.6261 153.645 73.0883C152.622 73.5445 151.384 73.772 149.93 73.772C148.518 73.772 147.291 73.55 146.251 73.106C145.217 72.6625 144.407 72.0143 143.822 71.1623C143.242 70.3103 142.929 69.2727 142.882 68.0487H146.118C146.165 68.6904 146.36 69.2246 146.703 69.6503C147.046 70.0766 147.492 70.3944 148.042 70.6042C148.597 70.8146 149.218 70.9195 149.904 70.9195C150.619 70.9195 151.245 70.8115 151.783 70.5956C152.327 70.3736 152.752 70.0675 153.06 69.6777C153.367 69.2814 153.524 68.8196 153.53 68.2915C153.524 67.8115 153.385 67.4157 153.113 67.1034C152.841 66.7856 152.46 66.5216 151.969 66.3117C151.484 66.0958 150.917 65.9037 150.267 65.736L148.201 65.1956C146.706 64.8059 145.524 64.2149 144.655 63.4227C143.792 62.6249 143.361 61.5661 143.361 60.2463C143.361 59.1601 143.65 58.2092 144.229 57.3932C144.815 56.5772 145.61 55.9441 146.614 55.4945C147.619 55.0384 148.757 54.8103 150.027 54.8103C151.316 54.8103 152.445 55.0384 153.414 55.4945C154.389 55.9441 155.155 56.5711 155.71 57.3755C156.266 58.1732 156.553 59.0912 156.57 60.1292H153.405ZM170.985 73.4933V55.0622H182.794V57.861H174.274V62.8646H182.182V65.664H174.274V70.6945H182.865V73.4933H170.985ZM197.384 73.4933V55.0622H204.192C205.588 55.0622 206.758 55.3085 207.704 55.8002C208.655 56.2923 209.373 56.9822 209.858 57.8702C210.348 58.7521 210.594 59.781 210.594 60.9569C210.594 62.1388 210.345 63.1647 209.849 64.035C209.358 64.8986 208.634 65.5677 207.677 66.0416C206.719 66.5099 205.543 66.7436 204.149 66.7436H199.299V63.9716H203.705C204.521 63.9716 205.189 63.8581 205.709 63.63C206.229 63.3958 206.613 63.0567 206.861 62.6127C207.115 62.1632 207.242 61.6112 207.242 60.9569C207.242 60.303 207.115 59.745 206.861 59.2832C206.607 58.8149 206.22 58.4611 205.7 58.2214C205.18 57.9751 204.509 57.8524 203.687 57.8524H200.673V73.4933H197.384ZM206.764 65.1419L211.259 73.4933H207.588L203.173 65.1419H206.764ZM226.821 55.0622L231.547 69.5692H231.733L236.45 55.0622H240.067L233.665 73.4933H229.605L223.213 55.0622H226.821ZM253.693 73.4933V55.0622H265.501V57.861H256.981V62.8646H264.889V65.664H256.981V70.6945H265.572V73.4933H253.693Z" fill="white"/>
</g>
<path d="M3.49192 1.77393H0.496094V1.52051H18.2214V1.77393H15.4752L13.478 4.05475V18.2465H14.7263L27.7082 3.04106L26.7096 1.77393H25.2117V1.52051H39.4418V1.77393H35.9467L34.1992 2.53421L19.969 16.9794C19.969 16.9794 24.7124 23.7829 27.7082 28.1301C30.704 32.4773 32.7012 35.4794 38.4432 38.5205L42.6873 39.0274V39.7876C42.6873 39.7876 35.7021 40.8964 31.453 39.7876C27.4394 38.7403 22.9648 34.4657 21.0013 31.4246C19.0379 28.3835 14.7263 20.7808 14.7263 20.7808H13.478V35.9863L15.4752 39.0274H18.9704V39.7876H0.995398V39.0274H3.49192L5.48914 35.9863V4.05475L3.49192 1.77393Z" fill="white"/>
<path d="M13.478 20.7808V35.9863L15.4752 39.0274H18.9704V39.7876H0.995398V39.0274H3.49192L5.48914 35.9863V4.05475L3.49192 1.77393H0.496094V1.52051H18.2214V1.77393H15.4752L13.478 4.05475V18.2465M13.478 20.7808H14.7263C14.7263 20.7808 19.0379 28.3835 21.0013 31.4246C22.9648 34.4657 27.4394 38.7403 31.453 39.7876C35.7021 40.8964 42.6873 39.7876 42.6873 39.7876V39.0274M13.478 20.7808V18.2465M13.478 18.2465H14.7263L27.7082 3.04106L26.7096 1.77393H25.2117V1.52051H39.4418V1.77393H35.9467L34.1992 2.53421L19.969 16.9794C19.969 16.9794 24.7124 23.7829 27.7082 28.1301C30.704 32.4773 32.7012 35.4794 38.4432 38.5205M42.6873 39.0274C42.6873 39.0274 41.3179 39.0274 40.4405 39.0274C40.4405 39.0274 41.6887 41.0548 38.4432 38.5205M42.6873 39.0274L38.4432 38.5205" stroke="white"/>
<path d="M56.418 1.52051V2.02736H58.6648C60.4124 2.02736 60.6621 4.05475 60.6621 4.05475V36.4931C60.6621 36.4931 59.9131 39.2808 59.1641 39.2808H56.418V39.7876H83.3804V31.1712H83.1308C83.1308 31.1712 83.0559 32.427 82.8811 33.1986C82.4942 34.9049 79.8853 36.4931 79.8853 36.4931C79.8853 36.4931 74.1717 38.3345 71.3971 36.4931C70.3586 35.8037 69.1502 34.2123 69.1502 34.2123V20.5274H77.8881C77.8881 20.5274 79.8638 21.2151 80.3846 22.3013C80.8539 23.2802 80.8839 25.089 80.8839 25.089H81.3832V15.7123C81.3832 15.7123 80.8839 16.9794 79.8853 17.4863C78.8867 17.9931 69.1502 17.4863 69.1502 17.4863V4.5616H78.637C78.637 4.5616 80.4914 5.64743 80.8839 6.84243C81.1615 7.68745 81.1335 9.12325 81.1335 9.12325H81.8825V1.52051H56.418Z" fill="white" stroke="white"/>
<path d="M102.606 1.78213C101.857 1.78213 100.359 0.761898 100.359 0.761898L99.8594 0.506836V9.94407H100.359V6.62826C100.359 6.62826 100.359 4.84285 102.606 4.84285H112.342V36.4702C112.342 36.4702 112.342 39.2759 111.094 39.2759H107.599V40.0411H126.073V39.2759H122.827C120.83 39.2759 120.83 36.4702 120.83 36.4702L120.581 4.84285H131.316C132.813 4.84285 133.313 6.62826 133.313 6.62826V9.94407H133.812V0.761898C133.812 0.761898 132.065 1.78213 131.316 1.78213H102.606Z" fill="white" stroke="white"/>
<path d="M315.062 1.26711V0.506836H332.788V1.26711H330.042C328.294 1.26711 328.294 3.54793 328.294 3.54793V17.2329H345.021V3.54793C345.021 3.54793 344.771 1.26711 343.273 1.26711H340.028V0.506836H358.003V1.26711H355.007C353.01 1.26711 353.259 3.54793 353.259 3.54793V36.4931C353.259 36.4931 353.259 38.5205 355.506 38.5205H358.752V39.2808H340.777V38.5205H343.273C344.771 38.5205 345.021 36.4931 345.021 36.4931V20.0205H328.294V36.4931C328.294 36.4931 328.294 38.5205 330.541 38.5205H333.786V39.2808H315.062V38.5205H318.308C319.556 38.5205 319.556 36.4931 319.556 36.4931L320.056 3.54793C320.056 3.54793 320.305 1.26711 318.308 1.26711H315.062Z" fill="white" stroke="white"/>
</g>
<defs>
<clipPath id="clip0_1417_410">
<rect width="359" height="74" fill="white"/>
</clipPath>
</defs>
</svg>
