<svg width="288" height="174" viewBox="0 0 288 174" fill="none" xmlns="http://www.w3.org/2000/svg">
<path d="M80.2297 167.153C80.2297 165.225 79.0198 163.675 76.7891 163.675H74.8608V170.632H76.7891C78.9442 170.632 80.2297 169.081 80.2297 167.153ZM73.7266 171.615V162.692H76.7891C79.5491 162.692 81.3639 164.62 81.3639 167.153C81.3639 169.686 79.5491 171.615 76.7891 171.615H73.7266Z" fill="white"/>
<path d="M84.8828 168.136V162.654H85.9793V168.098C85.9793 169.724 86.849 170.783 88.5125 170.783C90.1761 170.783 91.0457 169.762 91.0457 168.098V162.654H92.1422V168.098C92.1422 170.329 90.9323 171.728 88.5125 171.728C86.0928 171.728 84.8828 170.291 84.8828 168.098V168.136Z" fill="white"/>
<path d="M101.477 169.081C101.477 168.25 100.91 167.531 99.8135 167.531H97.0913V170.632H99.8135C100.872 170.632 101.477 170.027 101.477 169.081ZM101.288 165.111C101.288 164.317 100.759 163.675 99.7379 163.675H97.0534V166.548H99.7379C100.759 166.548 101.288 165.943 101.288 165.111ZM95.957 171.615V162.692H99.9269C101.477 162.692 102.422 163.637 102.422 164.96C102.422 166.094 101.666 166.851 100.872 167.002C101.817 167.153 102.611 168.136 102.611 169.195C102.611 170.632 101.666 171.615 100.04 171.615H95.957Z" fill="white"/>
<path d="M109.494 163.826L107.603 168.628H111.384L109.494 163.826ZM112.518 171.615L111.724 169.648H107.263L106.469 171.615H105.184L108.775 162.692H110.174L113.766 171.615H112.481H112.518Z" fill="white"/>
<path d="M116.68 171.614V162.654H117.776V171.614H116.68Z" fill="white"/>
<path d="M121.82 173.316L121.328 172.9C121.744 172.635 122.16 172.106 122.198 171.652C122.198 171.652 122.084 171.652 122.009 171.652C121.631 171.652 121.366 171.388 121.366 170.972C121.366 170.556 121.668 170.253 122.084 170.253C122.538 170.253 122.916 170.632 122.916 171.274C122.916 172.106 122.425 172.862 121.82 173.316Z" fill="white"/>
<path d="M131.234 167.153C131.234 164.393 133.276 162.54 135.847 162.54C137.435 162.54 138.531 163.296 139.25 164.317L138.305 164.847C137.813 164.09 136.868 163.561 135.847 163.561C133.881 163.561 132.406 165.073 132.406 167.191C132.406 169.308 133.881 170.82 135.847 170.82C136.868 170.82 137.775 170.291 138.305 169.535L139.25 170.064C138.494 171.085 137.435 171.841 135.847 171.841C133.276 171.841 131.234 169.951 131.234 167.229V167.153Z" fill="white"/>
<path d="M147.643 165.338C147.643 164.317 146.925 163.637 145.866 163.637H143.522V167.04H145.866C146.925 167.04 147.643 166.321 147.643 165.338ZM147.568 171.577L145.299 168.023H143.522V171.577H142.426V162.654H146.018C147.643 162.654 148.815 163.712 148.815 165.338C148.815 166.964 147.719 167.834 146.509 167.947L148.929 171.577H147.606H147.568Z" fill="white"/>
<path d="M152.254 171.614V162.654H158.114V163.637H153.388V166.548H158.039V167.531H153.388V170.594H158.114V171.614H152.254Z" fill="white"/>
<path d="M161.633 171.614V162.654H167.493V163.637H162.729V166.548H167.38V167.531H162.729V170.594H167.493V171.614H161.633Z" fill="white"/>
<path d="M176.379 171.614L172.977 167.569L172.107 168.59V171.614H170.973V162.654H172.107V167.266L176.039 162.654H177.438L173.695 166.926L177.74 171.614H176.379Z" fill="white"/>
<path d="M180.237 170.329L180.88 169.497C181.485 170.14 182.43 170.783 183.678 170.783C185.266 170.783 185.795 169.913 185.795 169.232C185.795 166.926 180.502 168.212 180.502 164.998C180.502 163.523 181.825 162.502 183.564 162.502C184.925 162.502 185.984 162.956 186.74 163.75L186.06 164.582C185.379 163.826 184.434 163.523 183.489 163.523C182.43 163.523 181.636 164.09 181.636 164.96C181.636 166.964 186.929 165.83 186.929 169.157C186.929 170.442 186.06 171.766 183.64 171.766C182.09 171.766 180.955 171.161 180.199 170.329H180.237Z" fill="white"/>
<path d="M190.328 171.614V162.654H191.462V171.614H190.328Z" fill="white"/>
<path d="M201.749 167.153C201.749 165.225 200.539 163.675 198.309 163.675H196.38V170.632H198.309C200.464 170.632 201.749 169.081 201.749 167.153ZM195.246 171.615V162.692H198.309C201.069 162.692 202.884 164.62 202.884 167.153C202.884 169.686 201.069 171.615 198.309 171.615H195.246Z" fill="white"/>
<path d="M206.398 171.614V162.654H212.221V163.637H207.495V166.548H212.145V167.531H207.495V170.594H212.221V171.614H206.398Z" fill="white"/>
<path d="M143.939 67.3754C135.092 67.3754 129.193 67.2619 129.193 67.2619L127.946 62.498C127.946 62.498 135.999 61.3638 143.939 61.3638C151.879 61.3638 159.932 62.498 159.932 62.498L158.684 67.2619C158.684 67.2619 152.786 67.3754 143.939 67.3754ZM166.511 49.454L166.171 49.3406C165.717 50.0211 164.129 51.4957 161.747 51.4957L161.634 51.7225C162.654 52.7433 162.428 55.0119 161.18 55.0119C160.386 55.0119 160.045 54.3313 159.932 53.7642L159.705 53.6508C159.365 53.8776 158.458 54.5582 158.231 54.7851C158.231 55.4656 158.344 56.373 158.458 56.9401H158.684C158.911 56.4864 159.365 56.373 159.592 56.373C160.159 56.373 160.613 56.8267 160.613 57.5073C160.613 58.6416 159.819 59.6624 158.231 59.6624C156.529 59.6624 155.055 58.8684 155.055 57.0536C155.055 56.1461 155.508 55.1253 156.756 54.5582V54.3313C155.849 53.6508 155.055 52.5165 154.828 51.9494H154.601C154.261 52.4031 153.126 53.4239 152.106 53.6508V53.8776C153.013 54.785 153.127 55.6925 153.127 56.2596C153.127 57.7341 151.879 58.6415 149.27 58.6415C147.342 58.6415 145.413 58.0744 145.413 56.1462C145.413 55.1253 146.094 54.5582 146.888 54.5582C147.455 54.5582 148.136 54.785 148.589 55.4656H148.816C149.27 54.8985 149.497 54.5582 150.291 53.8776V53.6508C149.951 53.4239 149.383 52.7434 148.816 51.9494H148.589C147.795 52.8568 147.228 52.9702 146.548 52.9702C146.094 52.9702 145.413 52.7434 145.413 51.9494C145.413 50.9286 146.661 50.4748 147.682 50.1345V49.9077C145.981 49.2271 144.393 47.4123 144.052 46.2781H143.825C143.485 47.4123 141.897 49.2271 140.196 49.9077V50.1345C141.217 50.4748 142.464 50.9286 142.464 51.9494C142.464 52.7434 141.784 52.9702 141.33 52.9702C140.65 52.9702 140.082 52.8568 139.288 51.9494H139.062C138.494 52.7434 137.927 53.4239 137.587 53.6508V53.8776C138.381 54.5582 138.608 54.8985 139.062 55.4656H139.288C139.742 54.785 140.423 54.5582 140.99 54.5582C141.784 54.5582 142.464 55.1253 142.464 56.1462C142.464 58.0744 140.536 58.6415 138.608 58.6415C135.999 58.6415 134.751 57.7341 134.751 56.2596C134.751 55.6925 134.865 54.785 135.772 53.8776V53.6508C134.751 53.4239 133.617 52.4031 133.277 51.9494H133.05C132.823 52.5165 132.029 53.6508 131.122 54.3313V54.5582C132.369 55.1253 132.823 56.1461 132.823 57.0536C132.823 58.8684 131.349 59.6624 129.647 59.6624C128.059 59.6624 127.265 58.6416 127.265 57.5073C127.265 56.8267 127.719 56.373 128.286 56.373C128.513 56.373 128.967 56.4864 129.193 56.9401H129.42C129.534 56.373 129.647 55.4656 129.647 54.7851C129.42 54.5582 128.513 53.8776 128.173 53.6508L127.946 53.7642C127.832 54.3313 127.492 55.0119 126.698 55.0119C125.45 55.0119 125.224 52.7433 126.244 51.7225L126.131 51.4957C123.749 51.4957 122.161 50.0211 121.707 49.3406L121.367 49.454L126.131 60.343C126.131 60.343 125.11 60.7966 125.337 61.5906C125.791 63.1786 127.152 65.2203 127.152 67.7157C127.152 68.7365 127.038 68.8499 127.038 69.3036C127.038 69.7574 127.379 69.9842 127.832 69.9842H160.083C160.537 69.9842 160.877 69.7574 160.877 69.3036C160.877 68.8499 160.764 68.7365 160.764 67.7157C160.764 65.2203 162.125 63.1786 162.579 61.5906C162.806 60.7966 161.785 60.343 161.785 60.343L166.549 49.454H166.511ZM129.609 11.6451C129.723 11.872 130.063 12.0988 130.29 12.0988C130.744 11.6451 131.197 11.078 131.197 10.5109C130.63 10.6243 129.609 10.8512 129.609 11.6451ZM151.501 6.99463L151.841 7.22148C151.841 7.22148 153.883 6.31408 153.883 4.83953C153.883 4.83953 153.883 4.04554 153.429 3.59183C153.202 3.59183 153.202 4.04554 153.202 4.27239C153.202 4.7261 152.862 5.06637 152.295 5.06637C151.841 5.06637 151.047 4.61269 151.047 3.8187C151.047 3.02472 151.387 2.68443 151.387 2.45758C151.387 2.45758 151.387 2.34416 151.274 2.34416C149.459 3.02472 149.346 3.81868 149.346 4.38581C149.346 5.1798 149.686 5.97379 151.501 6.99463ZM126.66 46.1646C131.991 46.1646 131.878 40.0396 131.878 37.9979C131.878 28.8104 134.6 26.5418 140.952 23.5927C145.716 21.3242 150.026 20.4168 150.026 15.8797C150.026 14.2917 149.572 12.5904 147.758 12.5904C147.758 12.5904 148.438 13.2709 148.438 14.4052C148.438 14.8589 148.325 15.3126 148.098 15.8797C148.098 15.426 147.984 14.8589 147.644 14.4052C147.077 15.3126 147.191 16.6737 146.85 17.2408C146.85 17.2408 146.623 17.808 145.035 18.602C145.035 18.602 144.808 18.8288 145.602 18.8288C145.602 18.8288 147.531 18.8288 148.211 18.0348C147.644 19.6228 146.964 20.1899 145.943 20.1899C145.376 20.1899 144.468 20.0765 143.674 20.0765C142.313 20.0765 139.137 20.7571 137.89 22.9122C136.982 24.3867 134.373 25.7478 133.466 25.7478C132.672 25.7478 131.538 23.933 131.538 23.139C131.538 22.2316 133.126 22.7987 134.373 21.551C136.415 19.5094 137.209 19.0557 139.364 19.0557C139.364 19.0557 140.612 19.0557 139.477 17.9214L135.961 14.632C135.508 14.1783 135.167 13.9515 134.714 13.9515C134.487 13.9515 134.033 14.0649 133.012 14.9723C130.97 15.1992 130.177 15.5394 129.609 15.8797C129.269 16.1066 129.042 16.3334 128.815 16.3334C128.475 16.3334 128.021 14.5186 128.021 14.1783C128.021 13.2709 129.042 12.7038 129.042 12.1366C129.042 11.7964 128.702 11.6829 128.702 11.6829L127.227 12.3635C127.227 12.3635 126.433 11.4561 127.341 11.0024C127.341 11.0024 129.609 9.75469 133.92 7.71301C134.146 8.9607 134.487 9.18756 135.508 9.07413L135.054 9.18755L134.827 9.52782C135.167 9.64125 135.848 9.52783 136.528 9.30098C137.096 9.07412 137.776 9.07414 137.89 8.96071C138.003 8.84728 138.343 8.507 138.343 8.39357C138.116 8.39357 137.436 8.50699 136.982 8.62042C137.663 8.16671 138.003 7.82644 138.003 7.59959C138.003 7.48616 137.89 7.37272 137.89 7.37272C137.549 7.37272 137.322 7.59957 136.982 7.48614C136.755 7.37271 136.528 7.14589 136.528 6.80561C136.528 6.57875 136.755 6.35189 137.549 6.35189H138.116C138.116 5.89818 136.982 5.67133 136.528 5.67133C135.961 5.67133 135.167 5.89819 134.487 6.23847C134.487 6.23847 134.6 5.33105 135.621 4.87735C136.188 4.65049 139.137 4.31021 141.973 4.31021C146.056 4.31021 149.119 7.82643 149.686 7.82643C149.913 7.82643 150.14 7.59957 149.799 7.37272C148.325 6.35188 147.417 5.55789 147.417 4.53705C147.417 4.19677 147.417 2.04169 152.068 1.2477C154.11 2.9491 154.79 4.19677 154.79 5.33103C154.79 7.25929 152.635 7.48616 152.408 8.28015C157.739 8.62043 161.709 15.6529 161.709 19.1691C161.709 25.521 155.698 28.1298 151.954 28.9238C157.399 24.8404 159.441 20.7571 159.441 17.9214C159.441 13.2709 155.244 10.5487 154.223 9.98154C156.605 12.5903 157.172 15.3126 157.172 17.3543C157.172 21.3242 154.677 23.2525 154.677 23.2525C155.13 22.345 155.244 21.551 155.244 20.8705C155.244 20.3033 155.13 19.8497 155.13 19.8497C152.975 24.9538 147.984 28.4701 147.644 32.7803C147.304 31.7594 147.191 30.7386 147.191 29.8312C147.191 26.2015 149.459 23.933 149.459 23.933C145.035 26.9955 144.015 30.5118 144.015 33.234C144.015 35.9562 145.149 37.9979 145.149 37.9979C144.922 36.9771 145.035 35.2757 145.262 33.9146C145.716 37.7711 147.644 42.535 152.975 45.5975C143.674 45.5975 139.818 34.4817 143.674 27.4492C137.209 29.1506 136.415 35.8428 136.302 39.6993C135.848 37.6576 135.734 36.0697 135.734 34.822C135.734 27.9029 141.519 26.0881 145.829 24.1599C152.181 21.3242 154.79 19.0557 154.79 14.9723C154.79 10.6621 149.686 7.93985 145.943 8.73384L147.304 10.095C147.531 10.3218 147.871 10.5487 147.871 10.5487C151.841 12.5904 152.408 14.8589 152.408 16.22C152.408 19.8497 148.325 21.7779 145.376 23.0256C135.848 27.1089 134.146 28.9238 134.146 34.822C134.146 39.1322 135.394 45.9378 130.857 46.5049C131.197 47.072 132.785 47.2989 132.785 47.2989C131.424 48.4331 129.95 48.7734 128.248 48.7734C126.66 48.7734 123.484 48.3197 122.577 44.9169C123.484 45.4841 124.732 46.1646 126.66 46.1646ZM133.92 21.2108C133.466 21.6645 133.012 21.6645 132.785 21.6645C132.558 21.0973 132.785 20.3034 132.785 20.3034C133.239 20.3034 133.92 20.6436 133.92 21.2108ZM132.672 19.7362C132.218 20.4168 131.878 21.3242 130.517 21.3242C129.156 21.3242 128.021 20.3034 127.114 20.3034C126.66 20.3034 126.433 20.4168 126.207 20.4168C125.98 20.4168 125.866 20.3033 125.866 20.1899C125.866 19.8496 126.32 19.5094 127.001 19.5094C127.681 19.5094 128.248 19.8496 129.269 20.0765C130.744 20.5302 131.651 19.2825 132.218 18.8288C132.899 18.2617 133.466 18.1483 134.033 18.1483C135.167 18.1483 135.961 18.7154 135.961 18.7154C135.394 18.7154 134.146 19.2825 133.239 19.8497C132.899 19.7362 132.785 19.6228 132.672 19.7362ZM130.29 16.3334C130.517 16.22 131.311 16.1066 131.311 16.1066C131.538 16.5603 131.538 17.3543 131.424 18.0348C130.403 18.0348 130.063 17.014 130.29 16.3334ZM155.697 4.99077C159.894 5.89818 159.327 8.62042 160.121 10.5487C158.306 8.28014 155.924 6.80561 155.924 6.80561C156.151 5.78477 155.697 4.99077 155.697 4.99077ZM161.029 26.4284C161.029 31.1923 154.904 31.7594 154.904 36.4099C154.904 38.2248 155.471 39.4725 155.13 40.6067C155.13 40.6067 156.378 39.2456 156.491 38.2248C156.491 41.741 158.306 45.8243 162.957 45.8243C163.637 45.8243 164.658 45.7109 165.566 45.1438C165.566 45.1438 165.339 48.4331 161.596 48.4331C156.832 48.4331 152.522 44.4632 152.522 37.0905C152.522 35.7294 152.748 34.1414 153.542 33.0071C153.542 33.0071 151.274 34.2548 151.047 38.2248C151.047 38.2248 150.14 36.8637 150.14 35.1623C150.14 29.4909 157.059 31.5326 161.029 26.4284ZM160.575 50.4749C164.772 50.4749 166.927 48.3197 166.927 45.0304C166.927 43.8961 166.586 43.1021 166.586 43.1021C165.452 44.0095 164.091 44.2364 163.297 44.2364C161.596 44.2364 159.327 43.2156 159.327 40.4933C159.327 36.9771 163.07 35.1622 163.07 31.1923C163.07 30.058 162.616 29.6043 162.616 29.6043C164.318 27.3358 164.885 25.1807 164.885 23.4793C164.885 20.3034 163.184 18.2617 163.184 18.2617L164.998 19.1691C164.204 16.1066 162.503 14.0649 162.503 14.0649C162.503 14.0649 163.411 14.5186 163.864 14.2917C162.957 13.838 161.596 12.1367 161.596 9.07413C161.596 6.01161 160.915 4.31022 155.017 3.28938C154.336 1.92826 152.748 0.453706 151.954 0C150.593 0.68056 148.552 1.47455 147.871 2.04168C147.871 2.04168 146.17 2.1551 145.489 2.1551C144.468 2.1551 143.674 1.81481 143.221 1.81481C141.859 1.81481 140.952 3.17593 140.952 3.17593C140.952 3.17593 137.89 3.28936 135.734 3.74307C134.6 3.96992 133.92 4.87735 133.126 6.80561L127.568 9.86812C126.547 10.4352 125.866 10.7755 125.866 11.6829C125.866 12.1366 126.207 12.9306 126.887 13.9515C127.454 17.3543 128.021 17.9214 128.815 17.9214C129.042 17.9214 129.496 17.808 129.496 17.808C129.723 18.0348 130.29 18.9422 130.403 19.2825C129.496 19.7362 128.362 18.7154 127.001 18.7154C126.207 18.7154 124.959 19.1691 124.959 20.5302C124.959 20.9839 125.186 21.0974 125.413 21.0974C125.753 21.0974 126.093 20.9839 126.887 20.9839C127.908 20.9839 128.702 21.8913 130.29 21.8913C130.857 21.8913 131.197 21.7779 131.424 21.8913C130.63 22.4585 130.177 22.7987 130.403 23.5927C130.744 25.0673 132.105 26.7687 132.785 26.7687C133.352 26.7687 134.373 26.4284 134.373 26.4284L133.693 26.9955C129.156 30.852 130.177 35.1623 130.177 39.4725C130.177 42.7618 129.269 44.8035 126.66 44.8035C124.959 44.8035 122.577 43.7826 120.762 41.5141C120.535 42.1947 120.422 43.2155 120.422 44.1229C120.422 48.0929 124.051 50.7017 127.681 50.7017C130.857 50.7017 133.126 49.7943 135.394 47.9795C141.859 47.866 143.901 43.5558 143.901 43.5558C146.964 47.9795 152.635 47.6392 153.542 47.6392C155.471 49.6809 158.42 50.4749 160.575 50.4749ZM141.746 40.8336C141.746 44.3498 138.797 45.9377 135.734 45.9377C139.704 41.6275 136.642 35.3891 140.498 31.3057C140.158 34.9354 141.746 38.3382 141.746 40.8336ZM137.549 11.7586H137.663C138.23 13.9137 140.725 14.1405 141.292 16.6359L141.179 16.7493C139.931 14.9345 138.23 14.7077 137.549 13.8002C137.209 13.3465 137.209 12.7794 137.549 11.7586ZM149.119 64.4263C149.119 64.4263 148.438 65.3337 148.325 65.3337C148.211 65.3337 147.531 64.5397 147.531 64.4263C147.531 64.1994 148.211 63.5189 148.325 63.5189C148.438 63.5189 149.119 64.1994 149.119 64.4263ZM157.853 64.6532C157.853 64.6532 157.172 65.5606 157.059 65.5606C156.945 65.5606 156.265 64.7666 156.265 64.6532C156.265 64.4263 156.945 63.7457 157.059 63.7457C157.172 63.7457 157.853 64.4263 157.853 64.6532ZM154.904 66.2411C155.13 66.2411 155.357 66.1277 155.357 65.7874V63.2921C155.357 62.9518 155.13 62.8383 154.904 62.8383C153.542 62.7249 151.387 62.6115 150.48 62.6115C150.14 62.6115 149.913 62.8384 149.913 63.1786V65.674C149.913 66.0143 150.14 66.2411 150.48 66.2411H154.904ZM146.056 66.3546C146.397 66.3546 146.623 66.1277 146.623 65.7874V63.0652C146.623 62.7249 146.397 62.498 146.056 62.498H141.746C141.406 62.498 141.179 62.7249 141.179 63.0652V65.7874C141.179 66.1277 141.406 66.3546 141.746 66.3546H146.056ZM138.684 64.4263C138.684 64.1994 139.364 63.5189 139.477 63.5189C139.591 63.5189 140.272 64.1994 140.272 64.4263C140.272 64.5397 139.591 65.3337 139.477 65.3337C139.364 65.3337 138.684 64.5397 138.684 64.4263ZM129.95 64.6532C129.95 64.4263 130.63 63.7457 130.744 63.7457C130.857 63.7457 131.538 64.4263 131.538 64.6532C131.538 64.7666 130.857 65.5606 130.744 65.5606C130.63 65.5606 129.95 64.7666 129.95 64.6532ZM132.899 66.2411H137.322C137.663 66.2411 137.89 66.0143 137.89 65.674V63.1786C137.89 62.8384 137.663 62.6115 137.322 62.6115C136.415 62.6115 134.26 62.7249 132.899 62.8383C132.672 62.8383 132.445 62.9518 132.445 63.2921V65.7874C132.445 66.1277 132.672 66.2411 132.899 66.2411ZM142.767 64.4263C142.767 64.086 143.674 63.1786 143.901 63.1786C144.015 63.1786 144.922 64.086 144.922 64.4263C144.922 64.5397 144.015 65.5606 143.901 65.5606C143.674 65.5606 142.767 64.5397 142.767 64.4263ZM151.614 64.4263C151.614 64.086 152.522 63.1786 152.748 63.1786C152.862 63.1786 153.769 64.086 153.769 64.4263C153.769 64.5397 152.862 65.5606 152.748 65.5606C152.522 65.5606 151.614 64.5397 151.614 64.4263ZM134.033 64.4263C134.033 64.086 134.94 63.1786 135.167 63.1786C135.281 63.1786 136.188 64.086 136.188 64.4263C136.188 64.5397 135.281 65.5606 135.167 65.5606C134.94 65.5606 134.033 64.5397 134.033 64.4263Z" fill="white"/>
<path d="M284.094 105.903L274.605 95.0137H268.253V95.8833C270.181 95.8833 270.483 96.1479 270.483 97.7737V106.886C270.483 110.137 269.803 110.477 268.215 110.477V111.347H274.113V110.477C272.26 110.477 271.655 110.062 271.655 108.133V97.3956L284.359 111.763H285.304V98.1518C285.304 96.1101 286.401 95.921 287.46 95.921V95.0515H281.561V95.921C283.036 95.921 284.17 96.2236 284.17 98.1518V105.978L284.094 105.903Z" fill="white"/>
<path d="M257.705 110.969C254.681 110.969 253.282 108.247 253.282 103.143C253.282 98.0384 254.681 95.3162 257.705 95.3162C260.73 95.3162 262.129 98.0384 262.129 103.143C262.129 108.247 260.73 110.969 257.705 110.969ZM257.705 94.56C253.32 94.56 248.82 97.3957 248.82 103.143C248.82 108.89 253.32 111.725 257.705 111.725C262.091 111.725 266.59 108.89 266.59 103.143C266.59 97.3957 262.091 94.56 257.705 94.56Z" fill="white"/>
<path d="M236.609 109.116C236.609 110.288 236.231 110.402 234.567 110.402V111.271H242.734V110.402C241.07 110.402 240.692 110.288 240.692 109.116V96.6017C240.692 95.9967 240.995 95.732 241.562 95.732C242.961 95.732 245.343 97.0175 246.704 99.5507L247.346 99.3239L246.363 94.5222H245.683C245.229 94.7868 244.624 94.9758 244.057 94.9758H233.282C232.979 94.9758 232.714 94.9758 232.412 94.8624C232.11 94.749 231.883 94.6734 231.656 94.5599H230.975L229.992 99.3617L230.635 99.5885C231.996 97.0553 234.378 95.7699 235.777 95.7699C236.344 95.7699 236.647 96.0345 236.647 96.6394V109.154L236.609 109.116Z" fill="white"/>
<path d="M216.948 109.116C216.948 110.288 216.57 110.402 214.906 110.402V111.271H230.294L231.542 106.508H230.786C228.517 109.797 227.081 110.402 223.186 110.402C221.372 110.402 221.031 110.099 221.031 109.268V97.131C221.031 95.9589 221.409 95.8455 223.073 95.8455V94.9758H214.906V95.8455C216.57 95.8455 216.948 95.9589 216.948 97.131V109.116Z" fill="white"/>
<path d="M202.39 102.689H200.953V95.8833H201.861C205.226 95.8833 206.057 97.8493 206.057 99.3239C206.057 101.819 204.318 102.727 202.39 102.727V102.689ZM210.708 108.814L208.023 104.617C207.343 103.558 206.738 103.18 205.906 103.143V103.067C208.553 102.916 210.103 101.555 210.103 99.5129C210.103 97.4712 208.25 94.9758 202.995 94.9758H194.828V95.8455C196.492 95.8455 196.87 95.9589 196.87 97.131V109.116C196.87 110.288 196.492 110.402 194.828 110.402V111.271H202.995V110.402C201.331 110.402 200.953 110.288 200.953 109.116V103.407C202.655 103.407 203.26 103.634 203.713 104.466L207.532 111.271H213.128V110.402C212.182 110.402 211.691 110.288 210.708 108.738V108.814Z" fill="white"/>
<path d="M178.079 106.167L181.293 99.3237L184.658 106.167H178.079ZM190.329 108.662L183.448 95.4294C183.146 94.9379 183.032 94.7488 182.919 94.7488C182.692 94.7488 182.163 96.0343 180.159 97.3954C180.461 97.5088 180.65 97.8491 180.65 98.1138C180.65 98.3028 180.65 98.4541 180.386 98.9078L176.265 107.49C175.206 109.721 174.601 110.439 173.051 110.439V111.309H178.949V110.439C177.361 110.439 176.718 109.986 176.718 109.381C176.718 109.003 176.907 108.36 177.663 107.15H185.074C186.095 108.7 186.284 109.532 186.284 109.797C186.284 110.326 185.792 110.477 184.053 110.477V111.347H192.9V110.477C191.464 110.477 191.048 110.175 190.292 108.7L190.329 108.662Z" fill="white"/>
<path d="M170.101 105.676C168.664 108.625 166.509 110.856 163.825 110.856C161.367 110.856 158.607 108.965 158.607 103.143C158.607 97.7738 160.838 95.4296 163.976 95.4296C166.963 95.4296 168.778 97.4335 170.101 99.8533H170.782V94.7491H170.215C169.95 95.165 169.421 95.4296 168.967 95.4296C168.022 95.4296 165.98 94.56 163.598 94.56C157.813 94.56 154.184 98.3787 154.184 103.445C154.184 107.982 157.889 111.763 163.144 111.763C166.131 111.763 168.249 110.667 168.967 110.667C169.534 110.667 169.912 111.045 170.215 111.763H170.782V105.714H170.101V105.676Z" fill="white"/>
<path d="M119.853 111.271H134.031L135.733 106.356H135.052C132.67 109.532 131.234 110.515 128.889 110.515H124.882L135.166 95.4296V94.9758H121.176L119.664 99.5507H120.231C122.084 97.0932 124.05 95.8455 126.243 95.8455H129.986L119.777 110.704V111.271H119.853Z" fill="white"/>
<path d="M107.265 109.116C107.265 110.288 106.887 110.402 105.223 110.402V111.271H113.39V110.402C111.726 110.402 111.348 110.288 111.348 109.116V96.6017C111.348 95.9967 111.651 95.732 112.218 95.732C113.617 95.732 115.999 97.0175 117.36 99.5507L118.003 99.3239L117.02 94.5222H116.339C115.885 94.7868 115.28 94.9758 114.713 94.9758H103.938C103.635 94.9758 103.371 94.9758 103.068 94.8624C102.766 94.749 102.539 94.6734 102.312 94.5599H101.632L100.648 99.3617L101.291 99.5885C102.652 97.0553 105.034 95.7699 106.433 95.7699C107 95.7699 107.303 96.0345 107.303 96.6394V109.154L107.265 109.116Z" fill="white"/>
<path d="M92.4792 109.116C92.4792 110.288 92.1011 110.402 90.4375 110.402V111.271H98.6042V110.402C96.9406 110.402 96.5625 110.288 96.5625 109.116V97.131C96.5625 95.9589 96.9406 95.8455 98.6042 95.8455V94.9758H90.4375V95.8455C92.1011 95.8455 92.4792 95.9589 92.4792 97.131V109.116Z" fill="white"/>
<path d="M77.5461 102.689H76.1095V95.8833H77.0169C80.3819 95.8833 81.2136 97.8493 81.2136 99.3239C81.2136 101.819 79.4744 102.727 77.5461 102.727V102.689ZM85.8641 108.814L83.1797 104.617C82.4992 103.558 81.8943 103.18 81.0625 103.143V103.067C83.7091 102.916 85.2592 101.555 85.2592 99.5129C85.2592 97.4712 83.4065 94.9758 78.1511 94.9758H69.9844V95.8455C71.648 95.8455 72.0261 95.9589 72.0261 97.131V109.116C72.0261 110.288 71.648 110.402 69.9844 110.402V111.271H78.1511V110.402C76.4875 110.402 76.1095 110.288 76.1095 109.116V103.407C77.8109 103.407 78.4158 103.634 78.8695 104.466L82.6882 111.271H88.284V110.402C87.3387 110.402 86.8472 110.288 85.8641 108.738V108.814Z" fill="white"/>
<path d="M44.0847 109.116C44.0847 110.288 43.7066 110.402 42.043 110.402V111.271H57.0909L58.3764 106.508H57.6202C55.7676 109.532 53.9528 110.402 50.6634 110.402C48.4705 110.402 48.2058 110.099 48.2058 109.419V103.256H49.3022C52.2513 103.256 53.5746 104.05 54.0662 106.356H54.7467V99.097H54.0662C53.3856 101.517 52.3269 102.386 49.3022 102.386H48.2058V96.8663C48.2058 95.9589 48.5082 95.8076 49.6803 95.8076C53.3478 95.8076 55.087 96.8285 57.3934 99.4373H58.0739L56.4481 94.9758H42.0808V95.8455C43.7444 95.8455 44.1224 95.9589 44.1224 97.131V109.116H44.0847Z" fill="white"/>
<path d="M33.3063 109.116C33.3063 110.288 32.9282 110.402 31.2646 110.402V111.271H39.4313V110.402C37.7677 110.402 37.3896 110.288 37.3896 109.116V97.131C37.3896 95.9589 37.7677 95.8455 39.4313 95.8455V94.9758H31.2646V95.8455C32.9282 95.8455 33.3063 95.9589 33.3063 97.131V102.122H24.9883V97.131C24.9883 95.9589 25.3664 95.8455 27.03 95.8455V94.9758H18.8633V95.8455C20.5269 95.8455 20.905 95.9589 20.905 97.131V109.116C20.905 110.288 20.5269 110.402 18.8633 110.402V111.271H27.03V110.402C25.3664 110.402 24.9883 110.288 24.9883 109.116V103.256H33.3063V109.116Z" fill="white"/>
<path d="M6.61655 109.116C6.61655 110.288 6.23843 110.402 4.57484 110.402V111.271H12.7416V110.402C11.078 110.402 10.6999 110.288 10.6999 109.116V96.6017C10.6999 95.9967 11.0024 95.732 11.5695 95.732C12.9684 95.732 15.3503 97.0175 16.7115 99.5507L17.3543 99.3239L16.3712 94.5222H15.6907C15.2369 94.7868 14.632 94.9758 14.0649 94.9758H3.28935C2.98688 94.9758 2.72218 94.9758 2.41971 94.8624C2.11724 94.749 1.89045 94.6734 1.6636 94.5599H0.982952L0 99.3617L0.642686 99.5885C2.00381 97.0553 4.38582 95.7699 5.78475 95.7699C6.35188 95.7699 6.65428 96.0345 6.65428 96.6394V109.154L6.61655 109.116Z" fill="white"/>
<path d="M140.988 104.314H146.433L148.739 101.025H143.295L140.988 104.314Z" fill="white"/>
<path d="M61.8178 127.983H63.2544C65.1826 127.983 66.9219 127.113 66.9219 124.618C66.9219 123.181 66.0902 121.215 62.763 121.215H61.8555V128.021L61.8178 127.983ZM57.7722 122.501C57.7722 121.328 57.3941 121.215 55.7305 121.215V120.345H63.8972C69.1526 120.345 70.9674 122.803 70.9674 124.883C70.9674 126.962 69.3795 128.248 66.7707 128.437V128.512C67.6403 128.512 68.2074 128.928 68.888 129.949L71.5724 134.108C72.5554 135.658 73.0092 135.734 73.9922 135.734V136.603H68.3965L64.6156 129.798C64.1619 128.966 63.5569 128.739 61.8555 128.739V134.41C61.8555 135.582 62.2336 135.696 63.8972 135.696V136.565H55.7305V135.696C57.3941 135.696 57.7722 135.582 57.7722 134.41V122.463V122.501Z" fill="white"/>
<path d="M77.6588 122.463C77.6588 121.291 77.2808 121.177 75.6172 121.177V120.308H89.9845L91.6103 124.769H90.9297C88.6234 122.16 86.8841 121.177 83.2167 121.177C82.0068 121.177 81.7422 121.291 81.7422 122.236V127.718H82.8008C85.7877 127.718 86.8842 126.849 87.527 124.429H88.2075V131.65H87.527C87.0354 129.344 85.7121 128.55 82.8008 128.55H81.7422V134.713C81.7422 135.393 82.0447 135.696 84.1998 135.696C87.4891 135.696 89.3039 134.826 91.1566 131.802H91.9128L90.665 136.528H75.6549V135.658C77.3185 135.658 77.6966 135.545 77.6966 134.373V122.425L77.6588 122.463Z" fill="white"/>
<path d="M105.373 125.639C104.466 122.765 102.613 120.724 99.9667 120.724C98.5678 120.724 97.3579 121.48 97.3579 122.841C97.3579 126.395 107.15 125.261 107.15 131.764C107.15 134.94 104.731 137.019 100.912 137.019C98.1141 137.019 96.9042 136.15 96.2992 136.15C95.6565 136.15 95.2783 136.452 94.9381 137.019H94.4844V131.083H95.0515C96.0345 134.486 98.2653 136.187 100.799 136.187C103.029 136.187 103.974 134.978 103.974 133.768C103.974 132.633 103.105 131.121 99.3239 129.949C96.526 129.079 94.4844 127.113 94.4844 124.693C94.4844 121.669 97.0554 119.93 100.042 119.93C102.386 119.93 103.596 120.799 104.201 120.799C104.617 120.799 105.109 120.421 105.373 119.93H105.94V125.677H105.373V125.639Z" fill="white"/>
<path d="M112.217 122.463C112.217 121.291 111.839 121.177 110.176 121.177V120.308H118.343V121.177C116.679 121.177 116.301 121.291 116.301 122.463V134.41C116.301 135.582 116.679 135.696 118.343 135.696V136.565H110.176V135.696C111.839 135.696 112.217 135.582 112.217 134.41V122.463Z" fill="white"/>
<path d="M127.302 134.751C127.302 135.28 127.415 135.696 129.571 135.696C134.183 135.696 135.885 131.839 135.885 128.777C135.885 123.181 132.784 121.177 129.344 121.177C127.529 121.177 127.302 121.631 127.302 122.576V134.788V134.751ZM123.257 122.463C123.257 121.291 122.878 121.177 121.215 121.177V120.308H130.289C135.847 120.308 140.346 123.37 140.346 128.437C140.346 132.596 136.565 136.565 130.932 136.565H121.215V135.696C122.878 135.696 123.257 135.582 123.257 134.41V122.463Z" fill="white"/>
<path d="M143.784 122.463C143.784 121.291 143.406 121.177 141.742 121.177V120.308H156.11L157.735 124.769H157.055C154.748 122.16 153.009 121.177 149.342 121.177C148.132 121.177 147.867 121.291 147.867 122.236V127.718H148.926C151.913 127.718 153.009 126.849 153.652 124.429H154.333V131.65H153.652C153.16 129.344 151.837 128.55 148.926 128.55H147.867V134.713C147.867 135.393 148.17 135.696 150.325 135.696C153.614 135.696 155.429 134.826 157.282 131.802H158.038L156.79 136.528H141.78V135.658C143.444 135.658 143.822 135.545 143.822 134.373V122.425L143.784 122.463Z" fill="white"/>
<path d="M175.921 123.371C175.921 121.442 174.825 121.14 173.313 121.14V120.27H179.173V121.14C178.114 121.14 177.018 121.367 177.018 123.371V136.944H176.073L163.407 122.576V133.276C163.407 135.205 164.012 135.621 165.864 135.621V136.49H160.004V135.621C161.63 135.621 162.272 135.318 162.272 132.066V122.992C162.272 121.367 161.97 121.102 160.042 121.102V120.232H166.393L175.884 131.121V123.333L175.921 123.371Z" fill="white"/>
<path d="M197.25 130.97V137.019H196.683C196.381 136.301 196.003 135.923 195.436 135.923C194.717 135.923 192.6 137.019 189.613 137.019C184.358 137.019 180.652 133.276 180.652 128.739C180.652 123.71 184.244 119.892 190.029 119.892C192.449 119.892 194.453 120.761 195.398 120.761C195.851 120.761 196.381 120.497 196.645 120.081H197.213V125.185H196.532C195.246 122.765 193.394 120.761 190.445 120.761C187.269 120.761 185.076 123.143 185.076 128.474C185.076 134.297 187.836 136.187 190.294 136.187C192.978 136.187 195.133 133.957 196.57 131.007H197.25V130.97Z" fill="white"/>
<path d="M202.241 122.463C202.241 121.291 201.863 121.177 200.199 121.177V120.308H214.567L216.192 124.769H215.512C213.206 122.16 211.466 121.177 207.799 121.177C206.589 121.177 206.324 121.291 206.324 122.236V127.718H207.383C210.37 127.718 211.466 126.849 212.109 124.429H212.79V131.65H212.109C211.618 129.344 210.294 128.55 207.383 128.55H206.324V134.713C206.324 135.393 206.627 135.696 208.782 135.696C212.071 135.696 213.886 134.826 215.739 131.802H216.495L215.247 136.528H200.237V135.658C201.901 135.658 202.279 135.545 202.279 134.373V122.425L202.241 122.463Z" fill="white"/>
<path d="M229.916 125.639C229.009 122.765 227.156 120.724 224.51 120.724C223.111 120.724 221.901 121.48 221.901 122.841C221.901 126.395 231.693 125.261 231.693 131.764C231.693 134.94 229.274 137.019 225.455 137.019C222.657 137.019 221.447 136.15 220.842 136.15C220.199 136.15 219.821 136.452 219.481 137.019H219.027V131.083H219.594C220.577 134.486 222.808 136.187 225.341 136.187C227.572 136.187 228.517 134.978 228.517 133.768C228.517 132.633 227.648 131.121 223.867 129.949C221.069 129.079 219.027 127.113 219.027 124.693C219.027 121.669 221.598 119.93 224.585 119.93C226.929 119.93 228.139 120.799 228.744 120.799C229.16 120.799 229.652 120.421 229.916 119.93H230.483V125.677H229.916V125.639Z" fill="white"/>
</svg>
