<svg width="270" height="35" viewBox="0 0 270 35" fill="none" xmlns="http://www.w3.org/2000/svg">
<path d="M268.684 15.699C268.233 14.2896 267.333 13.3109 266.041 13.3109C265.356 13.3109 264.769 13.6828 264.769 14.3484C264.769 16.0905 269.545 15.5424 269.545 18.694C269.545 20.2404 268.37 21.2583 266.511 21.2583C265.16 21.2583 264.553 20.8471 264.26 20.8471C263.947 20.8471 263.77 20.9842 263.594 21.2583H263.379V18.3612H263.653C264.123 20.025 265.219 20.8471 266.452 20.8471C267.548 20.8471 267.999 20.2599 267.999 19.6531C267.999 19.105 267.568 18.3612 265.728 17.7935C264.358 17.3628 263.359 16.4037 263.359 15.2292C263.359 13.7415 264.612 12.8998 266.08 12.8998C267.216 12.8998 267.803 13.3109 268.096 13.3109C268.292 13.3109 268.547 13.1347 268.664 12.8998H268.938V15.699H268.664H268.684ZM255.177 14.1526C255.177 13.5849 255.001 13.5262 254.179 13.5262V13.1151H261.187L261.969 15.2879H261.637C260.501 14.0155 259.66 13.5262 257.878 13.5262C257.291 13.5262 257.154 13.5849 257.154 14.0352V16.7169H257.683C259.151 16.7169 259.679 16.2862 259.992 15.1117H260.325V18.6352H259.992C259.758 17.4999 259.112 17.1279 257.683 17.1279H257.154V20.1425C257.154 20.4753 257.291 20.6123 258.348 20.6123C259.953 20.6123 260.854 20.2012 261.735 18.7135H262.106L261.48 21.0234H254.159V20.6123C254.981 20.6123 255.157 20.5536 255.157 19.9859V14.1526H255.177ZM252.73 18.3024V21.2583H252.456C252.319 20.9059 252.123 20.7102 251.849 20.7102C251.497 20.7102 250.459 21.2583 249.011 21.2583C246.447 21.2583 244.646 19.4182 244.646 17.2259C244.646 14.779 246.408 12.8998 249.226 12.8998C250.401 12.8998 251.38 13.3109 251.849 13.3109C252.065 13.3109 252.319 13.1934 252.456 12.9781H252.73V15.4641H252.397C251.771 14.27 250.871 13.3109 249.422 13.3109C247.876 13.3109 246.799 14.4658 246.799 17.0692C246.799 19.9076 248.15 20.8276 249.344 20.8276C250.655 20.8276 251.712 19.7314 252.397 18.3024H252.73ZM242.336 14.6028C242.336 13.6632 241.788 13.5262 241.064 13.5262V13.1151H243.941V13.5262C243.413 13.5262 242.884 13.6436 242.884 14.6224V21.2583H242.414L236.229 14.2504V19.4769C236.229 20.4165 236.522 20.6123 237.423 20.6123V21.0234H234.545V20.6123C235.328 20.6123 235.661 20.4557 235.661 18.8701V14.4462C235.661 13.6436 235.524 13.5262 234.584 13.5262V13.1151H237.677L242.297 18.4199V14.6028H242.336ZM226.657 14.1526C226.657 13.5849 226.48 13.5262 225.658 13.5262V13.1151H232.666L233.449 15.2879H233.116C231.981 14.0155 231.139 13.5262 229.358 13.5262C228.771 13.5262 228.634 13.5849 228.634 14.0352V16.7169H229.162C230.63 16.7169 231.159 16.2862 231.472 15.1117H231.805V18.6352H231.472C231.237 17.4999 230.591 17.1279 229.162 17.1279H228.634V20.1425C228.634 20.4753 228.771 20.6123 229.828 20.6123C231.433 20.6123 232.333 20.2012 233.214 18.7135H233.586L232.96 21.0234H225.639V20.6123C226.461 20.6123 226.637 20.5536 226.637 19.9859V14.1526H226.657ZM218.592 20.1621C218.592 20.4165 218.65 20.6319 219.708 20.6319C221.959 20.6319 222.8 18.7526 222.8 17.2454C222.8 14.5245 221.293 13.5262 219.61 13.5262C218.729 13.5262 218.611 13.7415 218.611 14.2113V20.1621H218.592ZM216.615 14.1526C216.615 13.5849 216.438 13.5262 215.616 13.5262V13.1151H220.04C222.761 13.1151 224.954 14.6028 224.954 17.0888C224.954 19.1246 223.094 21.0625 220.353 21.0625H215.616V20.6514C216.438 20.6514 216.615 20.5927 216.615 20.025V14.1917V14.1526ZM211.232 14.1526C211.232 13.5849 211.055 13.5262 210.233 13.5262V13.1151H214.207V13.5262C213.385 13.5262 213.209 13.5849 213.209 14.1526V19.9859C213.209 20.5536 213.385 20.6123 214.207 20.6123V21.0234H210.233V20.6123C211.055 20.6123 211.232 20.5536 211.232 19.9859V14.1526ZM207.884 15.699C207.434 14.2896 206.534 13.3109 205.242 13.3109C204.557 13.3109 203.969 13.6828 203.969 14.3484C203.969 16.0905 208.746 15.5424 208.746 18.694C208.746 20.2404 207.571 21.2583 205.712 21.2583C204.361 21.2583 203.754 20.8471 203.46 20.8471C203.147 20.8471 202.971 20.9842 202.795 21.2583H202.58V18.3612H202.854C203.323 20.025 204.42 20.8471 205.653 20.8471C206.749 20.8471 207.199 20.2599 207.199 19.6531C207.199 19.105 206.769 18.3612 204.929 17.7935C203.558 17.3628 202.56 16.4037 202.56 15.2292C202.56 13.7415 203.813 12.8998 205.281 12.8998C206.416 12.8998 207.003 13.3109 207.297 13.3109C207.493 13.3109 207.747 13.1347 207.865 12.8998H208.139V15.699H207.865H207.884ZM194.358 14.1526C194.358 13.5849 194.182 13.5262 193.36 13.5262V13.1151H200.368L201.151 15.2879H200.818C199.682 14.0155 198.841 13.5262 197.059 13.5262C196.472 13.5262 196.335 13.5849 196.335 14.0352V16.7169H196.864C198.332 16.7169 198.86 16.2862 199.174 15.1117H199.506V18.6352H199.174C198.939 17.4999 198.293 17.1279 196.864 17.1279H196.335V20.1425C196.335 20.4753 196.472 20.6123 197.529 20.6123C199.134 20.6123 200.035 20.2012 200.916 18.7135H201.288L200.661 21.0234H193.34V20.6123C194.162 20.6123 194.339 20.5536 194.339 19.9859V14.1526H194.358ZM186.626 16.8343H187.311C188.251 16.8343 189.093 16.4037 189.093 15.1901C189.093 14.4854 188.701 13.5262 187.057 13.5262H186.607V16.8343H186.626ZM184.649 14.1526C184.649 13.5849 184.473 13.5262 183.651 13.5262V13.1151H187.624C190.189 13.1151 191.089 14.3092 191.089 15.3271C191.089 16.345 190.326 16.9714 189.034 17.0497V17.0888C189.445 17.0888 189.738 17.2845 190.071 17.7935L191.383 19.8293C191.853 20.5927 192.087 20.6319 192.557 20.6319V21.0429H189.817L187.957 17.7348C187.742 17.3433 187.448 17.2259 186.607 17.2259V20.0054C186.607 20.5731 186.783 20.6319 187.605 20.6319V21.0429H183.631V20.6319C184.453 20.6319 184.629 20.5731 184.629 20.0054V14.1722L184.649 14.1526ZM107.622 17.6369H110.284L111.4 16.0318H108.738L107.622 17.6369ZM42.3403 19.9859C42.3403 20.5536 42.1641 20.6123 41.342 20.6123V21.0234H45.3352V20.6123C44.5131 20.6123 44.3369 20.5536 44.3369 19.9859V13.8785C44.3369 13.5849 44.474 13.4675 44.748 13.4675C45.4331 13.4675 46.588 14.0939 47.2536 15.3271L47.5668 15.2097L47.097 12.8802H46.7642C46.5489 12.9977 46.2553 13.0955 45.9812 13.0955H40.7156C40.5786 13.0955 40.4415 13.0955 40.3045 13.0368C40.1675 12.9977 40.05 12.939 39.9326 12.8802H39.5998L39.1301 15.2097L39.4432 15.3271C40.1087 14.0939 41.2637 13.4675 41.9488 13.4675C42.2229 13.4675 42.3599 13.5849 42.3599 13.8785V19.9859H42.3403ZM55.3771 19.9859C55.3771 20.5536 55.2009 20.6123 54.3788 20.6123V21.0234H58.3721V20.6123C57.5499 20.6123 57.3737 20.5536 57.3737 19.9859V14.133C57.3737 13.5653 57.5499 13.5066 58.3721 13.5066V13.0955H54.3788V13.5066C55.2009 13.5066 55.3771 13.5653 55.3771 14.133V16.5603H51.3251V14.133C51.3251 13.5653 51.5013 13.5066 52.3234 13.5066V13.0955H48.3302V13.5066C49.1523 13.5066 49.3285 13.5653 49.3285 14.133V19.9859C49.3285 20.5536 49.1523 20.6123 48.3302 20.6123V21.0234H52.3234V20.6123C51.5013 20.6123 51.3251 20.5536 51.3251 19.9859V17.1279H55.3771V19.9859ZM60.6231 19.9859C60.6231 20.5536 60.447 20.6123 59.6249 20.6123V21.0234H66.9654L67.5918 18.7135H67.2198C66.3194 20.2012 65.419 20.6123 63.8138 20.6123C62.7568 20.6123 62.6002 20.4557 62.6002 20.1425V17.1279H63.1287C64.5577 17.1279 65.2233 17.5195 65.4386 18.6352H65.7713V15.0922H65.4386C65.1058 16.2667 64.5968 16.6973 63.1287 16.6973H62.6002V14.0156C62.6002 13.5653 62.7372 13.5066 63.3245 13.5066C65.1254 13.5066 65.9671 13.996 67.1024 15.2684H67.4352L66.6522 13.0955H59.6249V13.5066C60.447 13.5066 60.6231 13.5653 60.6231 14.133V19.9859ZM76.9485 16.8343H76.2438V13.5066H76.6941C78.3384 13.5066 78.7298 14.4658 78.7298 15.1705C78.7298 16.3841 77.8881 16.8343 76.929 16.8343H76.9485ZM81.0201 19.8097L79.7086 17.7739C79.3758 17.265 79.0822 17.0692 78.6711 17.0692V17.0301C79.963 16.9518 80.7265 16.2862 80.7265 15.3075C80.7265 14.3288 79.826 13.0955 77.2617 13.0955H73.2685V13.5066C74.0906 13.5066 74.2668 13.5653 74.2668 14.133V19.9859C74.2668 20.5536 74.0906 20.6123 73.2685 20.6123V21.0234H77.2617V20.6123C76.4396 20.6123 76.2634 20.5536 76.2634 19.9859V17.2063C77.1052 17.2063 77.3987 17.3237 77.614 17.7152L79.4737 21.0429H82.2141V20.6319C81.7443 20.6319 81.5094 20.5927 81.0396 19.8293L81.0201 19.8097ZM84.2499 19.9859C84.2499 20.5536 84.0737 20.6123 83.2516 20.6123V21.0234H87.2449V20.6123C86.4227 20.6123 86.2465 20.5536 86.2465 19.9859V14.133C86.2465 13.5653 86.4227 13.5066 87.2449 13.5066V13.0955H83.2516V13.5066C84.0737 13.5066 84.2499 13.5653 84.2499 14.133V19.9859ZM91.2381 19.9859C91.2381 20.5536 91.0424 20.6123 90.2398 20.6123V21.0234H94.2331V20.6123C93.4109 20.6123 93.2348 20.5536 93.2348 19.9859V13.8785C93.2348 13.5849 93.3718 13.4675 93.6458 13.4675C94.3309 13.4675 95.4858 14.0939 96.1514 15.3271L96.4646 15.2097L95.9948 12.8802H95.662C95.4467 12.9977 95.1531 13.0955 94.879 13.0955H89.6134C89.4764 13.0955 89.3394 13.0955 89.2024 13.0368C89.0653 12.9977 88.9479 12.939 88.8304 12.8802H88.4977L88.0083 15.2097L88.3215 15.3271C88.987 14.0939 90.1419 13.4675 90.827 13.4675C91.1011 13.4675 91.2381 13.5849 91.2381 13.8785V19.9859ZM97.2084 21.0429H104.138L104.98 18.6548H104.647C103.492 20.2012 102.768 20.671 101.632 20.671H99.6945L104.725 13.3109V13.0955H97.9132L97.1693 15.3271H97.4433C98.3633 14.1135 99.3225 13.5262 100.38 13.5262H102.2L97.228 20.7689V21.0429H97.2084ZM121.501 18.3024C120.796 19.7314 119.759 20.8471 118.447 20.8471C117.233 20.8471 115.902 19.9271 115.902 17.0692C115.902 14.4658 116.979 13.2913 118.525 13.2913C119.974 13.2913 120.874 14.27 121.501 15.4641H121.834V12.9781H121.559C121.442 13.1738 121.168 13.3109 120.953 13.3109C120.483 13.3109 119.504 12.8998 118.33 12.8998C115.491 12.8998 113.73 14.779 113.73 17.2259C113.73 19.4378 115.53 21.2778 118.114 21.2778C119.563 21.2778 120.6 20.7297 120.953 20.7297C121.227 20.7297 121.422 20.9059 121.559 21.2778H121.834V18.322H121.501V18.3024ZM125.357 18.5373L126.943 15.1901L128.587 18.5373H125.377H125.357ZM131.347 19.751L128 13.2913C127.863 13.0368 127.804 12.9585 127.745 12.9585C127.647 12.9585 127.373 13.5849 126.394 14.2504C126.531 14.3092 126.649 14.4658 126.649 14.6028C126.649 14.7007 126.649 14.779 126.532 14.9943L124.515 19.1833C124.006 20.2599 123.693 20.6123 122.93 20.6123V21.0234H125.807V20.6123C125.044 20.6123 124.731 20.397 124.731 20.0838C124.731 19.9076 124.829 19.5944 125.2 18.9876H128.822C129.311 19.751 129.409 20.1425 129.409 20.2795C129.409 20.534 129.154 20.6123 128.332 20.6123V21.0234H132.639V20.6123C131.934 20.6123 131.738 20.4557 131.366 19.751H131.347ZM137.239 16.8343H136.534V13.5066H136.984C138.629 13.5066 139.02 14.4658 139.02 15.1705C139.02 16.3841 138.178 16.8343 137.219 16.8343H137.239ZM141.31 19.8097L139.999 17.7739C139.666 17.265 139.373 17.0692 138.962 17.0692V17.0301C140.253 16.9518 141.017 16.2862 141.017 15.3075C141.017 14.3288 140.116 13.0955 137.552 13.0955H133.559V13.5066C134.381 13.5066 134.557 13.5653 134.557 14.133V19.9859C134.557 20.5536 134.361 20.6123 133.559 20.6123V21.0234H137.552V20.6123C136.73 20.6123 136.554 20.5536 136.554 19.9859V17.2063C137.396 17.2063 137.689 17.3237 137.904 17.7152L139.764 21.0429H142.505V20.6319C142.035 20.6319 141.8 20.5927 141.33 19.8293L141.31 19.8097ZM144.188 19.9859C144.188 20.5536 143.992 20.6123 143.19 20.6123V21.0234H150.706L151.313 18.7135H150.941C149.845 20.3186 149.14 20.6123 147.222 20.6123C146.341 20.6123 146.165 20.4557 146.165 20.0642V14.133C146.165 13.5653 146.361 13.5066 147.163 13.5066V13.0955H143.17V13.5066C143.992 13.5066 144.168 13.5653 144.168 14.133V19.9859H144.188ZM153.564 19.9859C153.564 20.5536 153.388 20.6123 152.566 20.6123V21.0234H156.559V20.6123C155.737 20.6123 155.561 20.5536 155.561 19.9859V13.8785C155.561 13.5849 155.698 13.4675 155.972 13.4675C156.657 13.4675 157.812 14.0939 158.478 15.3271L158.791 15.2097L158.321 12.8802H157.988C157.773 12.9977 157.479 13.0955 157.205 13.0955H151.94C151.803 13.0955 151.666 13.0955 151.528 13.0368C151.391 12.9977 151.274 12.939 151.157 12.8802H150.824L150.334 15.2097L150.648 15.3271C151.313 14.0939 152.468 13.4675 153.153 13.4675C153.427 13.4675 153.564 13.5849 153.564 13.8785V19.9859ZM163.841 20.8863C162.353 20.8863 161.668 19.5552 161.668 17.0692C161.668 14.5832 162.353 13.2522 163.841 13.2522C165.329 13.2522 166.014 14.5832 166.014 17.0692C166.014 19.5552 165.329 20.8863 163.841 20.8863ZM163.841 12.8802C161.707 12.8802 159.515 14.27 159.515 17.0692C159.515 19.8684 161.707 21.2583 163.841 21.2583C165.975 21.2583 168.167 19.8684 168.167 17.0692C168.167 14.27 165.975 12.8802 163.841 12.8802ZM176.623 18.4199L171.984 13.0955H168.872V13.5066C169.811 13.5066 169.948 13.624 169.948 14.4266V18.8701C169.948 20.4557 169.616 20.6123 168.833 20.6123V21.0234H171.71V20.6123C170.79 20.6123 170.496 20.4165 170.496 19.4769V14.2309L176.702 21.2583H177.171V14.6028C177.171 13.6045 177.7 13.5066 178.229 13.5066V13.0955H175.351V13.5066C176.075 13.5066 176.623 13.6437 176.623 14.5832V18.4003V18.4199ZM11.4513 32.8857C7.12524 32.8857 4.24776 32.827 4.24776 32.827L3.64094 30.4976C3.64094 30.4976 7.57546 29.9495 11.4513 29.9495C15.3271 29.9495 19.2616 30.4976 19.2616 30.4976L18.6548 32.827C18.6548 32.827 15.7773 32.8857 11.4513 32.8857ZM22.4719 24.1358L22.3153 24.077C22.0999 24.4098 21.317 25.134 20.1621 25.134L20.1034 25.2515C20.5927 25.7408 20.4948 26.8566 19.888 26.8566C19.4965 26.8566 19.3399 26.5239 19.2812 26.2498L19.1637 26.1911C19.0071 26.3085 18.5569 26.6413 18.4395 26.7392C18.4395 27.0719 18.4982 27.5222 18.5569 27.7962H18.6744C18.7918 27.5809 19.0072 27.5222 19.1246 27.5222C19.3987 27.5222 19.614 27.7375 19.614 28.0702C19.614 28.6183 19.2225 29.1273 18.4591 29.1273C17.6369 29.1273 16.9127 28.7358 16.9127 27.855C16.9127 27.4047 17.1279 26.9154 17.7348 26.6413V26.5239C17.2845 26.1911 16.9127 25.643 16.7952 25.369H16.6778C16.5212 25.5843 15.9534 26.0932 15.4641 26.1911V26.3085C15.9143 26.7587 15.9534 27.1894 15.9534 27.4634C15.9534 28.1877 15.3466 28.6183 14.0743 28.6183C13.1347 28.6183 12.1951 28.3443 12.1951 27.4047C12.1951 26.9153 12.5279 26.6217 12.9194 26.6217C13.1934 26.6217 13.5262 26.7392 13.7415 27.072H13.859C14.0743 26.7979 14.1918 26.6218 14.5832 26.289V26.1715C14.4266 26.054 14.133 25.7213 13.859 25.3494H13.7415C13.35 25.7996 13.076 25.8388 12.7432 25.8388C12.5279 25.8388 12.1951 25.7213 12.1951 25.3494C12.1951 24.86 12.802 24.6251 13.3109 24.4685V24.351C12.4888 24.0183 11.7058 23.1374 11.5296 22.5697H11.4121C11.2555 23.1178 10.4725 24.0183 9.63083 24.351V24.4685C10.1202 24.6251 10.7466 24.86 10.7466 25.3494C10.7466 25.7409 10.4138 25.8388 10.1985 25.8388C9.86574 25.8388 9.59167 25.78 9.20018 25.3494H9.08273C8.80869 25.7409 8.53465 26.0736 8.35848 26.1715V26.289C8.74997 26.6218 8.84784 26.7784 9.08273 27.072H9.20018C9.4155 26.7392 9.74824 26.6217 10.0223 26.6217C10.4138 26.6217 10.7466 26.8958 10.7466 27.4047C10.7466 28.3443 9.80697 28.6183 8.86738 28.6183C7.59502 28.6183 6.98822 28.1681 6.98822 27.4634C6.98822 27.1894 7.04694 26.7392 7.47759 26.3085V26.1911C6.98822 26.0736 6.42056 25.5843 6.26396 25.369H6.14651C6.02907 25.643 5.65712 26.1911 5.2069 26.5239V26.6413C5.81372 26.9154 6.02907 27.4243 6.02907 27.855C6.02907 28.7358 5.30479 29.1273 4.48264 29.1273C3.69965 29.1273 3.32774 28.6379 3.32774 28.0702C3.32774 27.7375 3.54306 27.5222 3.81711 27.5222C3.93456 27.5222 4.1499 27.5809 4.26735 27.7962H4.38479C4.44352 27.5222 4.50224 27.0719 4.50224 26.7392C4.38479 26.6217 3.95415 26.289 3.77798 26.1911L3.66048 26.2498C3.60175 26.5239 3.44516 26.8566 3.05366 26.8566C2.44684 26.8566 2.32942 25.7408 2.83837 25.2515L2.77965 25.134C1.62473 25.134 0.841731 24.4098 0.626408 24.077L0.469836 24.1358L2.79924 29.4601C2.79924 29.4601 2.30985 29.6754 2.40772 30.0669C2.62304 30.8499 3.28861 31.8482 3.28861 33.0619C3.28861 33.5512 3.22983 33.6099 3.22983 33.8448C3.22983 34.0797 3.38645 34.1776 3.62135 34.1776H19.3595C19.5748 34.1776 19.751 34.0602 19.751 33.8448C19.751 33.6295 19.6922 33.5708 19.6922 33.0619C19.6922 31.8482 20.3578 30.8499 20.5731 30.0669C20.6906 29.6754 20.1816 29.4601 20.1816 29.4601L22.511 24.1358H22.4719ZM4.46305 5.69627C4.52178 5.81372 4.6784 5.91163 4.79585 5.91163C5.01117 5.6963 5.24609 5.42221 5.24609 5.12859C4.97204 5.18731 4.46305 5.28518 4.46305 5.67668V5.69627ZM15.1509 3.42559L15.3075 3.54303C15.3075 3.54303 16.3058 3.09282 16.3058 2.38813C16.3058 2.38813 16.3058 1.99664 16.0905 1.78131C15.973 1.78131 15.973 1.99666 15.973 2.11411C15.973 2.32943 15.8165 2.50557 15.5229 2.50557C15.3075 2.50557 14.916 2.29025 14.916 1.89876C14.916 1.50726 15.0726 1.35067 15.0726 1.23322C15.0726 1.23322 15.0726 1.1745 15.0139 1.1745C14.133 1.50727 14.0743 1.89879 14.0743 2.17283C14.0743 2.56433 14.2309 2.95581 15.1313 3.44518L15.1509 3.42559ZM3.01454 22.5306C5.61798 22.5306 5.55923 19.5356 5.55923 18.5373C5.55923 14.0547 6.89034 12.9389 9.98316 11.51C12.3126 10.3942 14.4071 9.96361 14.4071 7.75166C14.4071 6.96867 14.1917 6.14651 13.2913 6.14651C13.2913 6.14651 13.6241 6.47925 13.6241 7.02734C13.6241 7.24267 13.5653 7.47761 13.4675 7.75166C13.4675 7.53634 13.4088 7.26224 13.2522 7.02734C12.9781 7.47756 13.0368 8.14315 12.8607 8.4172C12.8607 8.4172 12.7432 8.69124 11.9798 9.08273C11.9798 9.08273 11.8623 9.20018 12.2538 9.20018C12.2538 9.20018 13.1934 9.20015 13.5262 8.80866C13.2521 9.59165 12.9194 9.86571 12.4104 9.86571C12.1364 9.86571 11.6862 9.80699 11.2947 9.80699C10.6292 9.80699 9.08274 10.1397 8.47592 11.1968C8.0257 11.9211 6.75333 12.5866 6.32268 12.5866C5.93118 12.5866 5.38307 11.7057 5.38307 11.3142C5.38307 10.864 6.1661 11.1576 6.77292 10.5312C7.77124 9.53293 8.16273 9.31762 9.21977 9.31762C9.21977 9.31762 9.82659 9.31762 9.27849 8.76953L7.5559 7.16438C7.34058 6.94906 7.16441 6.83164 6.94909 6.83164C6.83164 6.83164 6.61629 6.89037 6.12692 7.32101C5.12861 7.43846 4.7371 7.59502 4.46305 7.7712C4.30645 7.88864 4.18904 7.98655 4.07159 7.98655C3.91499 7.98655 3.68007 7.10567 3.68007 6.92949C3.68007 6.47927 4.16944 6.20521 4.16944 5.93116C4.16944 5.77456 4.01287 5.71587 4.01287 5.71587L3.28861 6.0486C3.28861 6.0486 2.89711 5.59839 3.34733 5.38307C3.34733 5.38307 4.46307 4.7763 6.55757 3.77798C6.67502 4.3848 6.8316 4.50224 7.34055 4.44352L7.12525 4.50224L7.00781 4.65881C7.16441 4.71754 7.49715 4.65882 7.82992 4.54137C8.10397 4.42392 8.43673 4.42394 8.49545 4.38479C8.55418 4.32607 8.71081 4.16944 8.71081 4.11072C8.59336 4.11072 8.26059 4.16944 8.04527 4.22816C8.37804 4.01284 8.53464 3.83667 8.53464 3.73879C8.53464 3.68007 8.47592 3.62135 8.47592 3.62135C8.31932 3.62135 8.20185 3.7388 8.02568 3.68007C7.90823 3.62135 7.81038 3.52351 7.81038 3.34733C7.81038 3.22988 7.92783 3.13198 8.29975 3.13198H8.57377C8.57377 2.91666 8.02569 2.79924 7.79079 2.79924C7.51674 2.79924 7.12523 2.91666 6.79246 3.07326C6.79246 3.07326 6.85118 2.62304 7.34055 2.40772C7.6146 2.29027 9.06316 2.13365 10.4334 2.13365C12.43 2.13365 13.9177 3.85624 14.1917 3.85624C14.3092 3.85624 14.407 3.73882 14.2504 3.64094C13.5262 3.15157 13.0955 2.76003 13.0955 2.25109C13.0955 2.09449 13.0955 1.0375 15.3662 0.646002C16.3645 1.46814 16.6973 2.09451 16.6973 2.64261C16.6973 3.5822 15.6403 3.69963 15.5424 4.09112C18.1458 4.24772 20.0838 7.69289 20.0838 9.41547C20.0838 12.5083 17.1476 13.8003 15.3271 14.1722C17.9893 12.1756 18.9876 10.1789 18.9876 8.80866C18.9876 6.53798 16.9322 5.20693 16.4428 4.93289C17.5977 6.20525 17.8914 7.53633 17.8914 8.53464C17.8914 10.4725 16.6778 11.4121 16.6778 11.4121C16.8931 10.9619 16.9518 10.59 16.9518 10.2572C16.9518 9.98319 16.8931 9.76786 16.8931 9.76786C15.836 12.2539 13.4088 13.9764 13.2326 16.0905C13.076 15.6011 13.0172 15.0922 13.0172 14.642C13.0172 12.8607 14.133 11.7645 14.133 11.7645C11.9798 13.2522 11.4709 14.9748 11.4709 16.3058C11.4709 17.6369 12.019 18.6352 12.019 18.6352C11.9015 18.1459 11.9602 17.3041 12.0777 16.6386C12.293 18.5178 13.2326 20.8472 15.836 22.3348C11.2946 22.3348 9.41551 16.9126 11.2947 13.4675C8.14315 14.2896 7.75166 17.5586 7.69294 19.4574C7.47762 18.459 7.41886 17.676 7.41886 17.0692C7.41886 13.6828 10.2376 12.8019 12.3517 11.8623C15.4445 10.4725 16.7365 9.37636 16.7365 7.37974C16.7365 5.26566 14.2504 3.95415 12.4104 4.32607L13.076 4.99161C13.1935 5.10906 13.35 5.2069 13.35 5.2069C15.2879 6.20522 15.562 7.32099 15.562 7.96696C15.562 9.74826 13.5654 10.6879 12.1364 11.2947C7.4776 13.2913 6.65542 14.1722 6.65542 17.0497C6.65542 19.1638 7.26228 22.4719 5.05033 22.7459C5.20693 23.0199 5.98988 23.1374 5.98988 23.1374C5.32434 23.6855 4.60012 23.8617 3.77798 23.8617C2.99499 23.8617 1.44855 23.6464 0.998334 21.9825C1.44855 22.2566 2.05535 22.5893 2.99494 22.5893L3.01454 22.5306ZM6.55757 10.3355C6.34225 10.5508 6.10735 10.5508 6.00948 10.5508C5.89203 10.2768 6.00948 9.88531 6.00948 9.88531C6.2248 9.88531 6.55757 10.0419 6.55757 10.3355ZM5.95075 9.61123C5.73543 9.944 5.55924 10.3942 4.8937 10.3942C4.22816 10.3942 3.68005 9.90484 3.22983 9.90484C3.01451 9.90484 2.8971 9.96356 2.77965 9.96356C2.6622 9.96356 2.62302 9.90484 2.62302 9.84612C2.62302 9.68952 2.83834 9.51338 3.17111 9.51338C3.50388 9.51338 3.77794 9.66995 4.28688 9.7874C5.01115 10.0027 5.44184 9.39591 5.73546 9.18058C6.06823 8.90654 6.34224 8.84785 6.61629 8.84785C7.16438 8.84785 7.5559 9.12186 7.5559 9.12186C7.28185 9.12186 6.67505 9.39591 6.22483 9.66995C6.06823 9.61123 6.00948 9.55251 5.95075 9.61123ZM4.79585 7.94736C4.9133 7.88864 5.28522 7.82992 5.28522 7.82992C5.40267 8.04524 5.40266 8.43676 5.34394 8.76953C4.85457 8.76953 4.6784 8.28013 4.79585 7.94736ZM17.2063 2.40772C19.2616 2.85794 18.9876 4.189 19.3595 5.12859C18.4786 4.01282 17.3041 3.30815 17.3041 3.30815C17.4216 2.81878 17.1867 2.42732 17.1867 2.42732L17.2063 2.40772ZM19.8097 12.8802C19.8097 15.2096 16.8147 15.4837 16.8147 17.7544C16.8147 18.6352 17.0888 19.242 16.9322 19.8097C16.9322 19.8097 17.5391 19.1441 17.5978 18.6548C17.5978 20.3774 18.4786 22.374 20.7493 22.374C21.0821 22.374 21.5714 22.3153 22.0216 22.0412C22.0216 22.0412 21.9042 23.6464 20.0838 23.6464C17.7544 23.6464 15.6598 21.7084 15.6598 18.1067C15.6598 17.4411 15.7773 16.6582 16.1492 16.1101C16.1492 16.1101 15.0335 16.7169 14.9356 18.6548C14.9356 18.6548 14.4853 17.9893 14.4853 17.1671C14.4853 14.4071 17.8718 15.3858 19.8097 12.8998V12.8802ZM19.5944 24.6251C21.6497 24.6251 22.6872 23.5681 22.6872 21.9629C22.6872 21.4148 22.5306 21.0234 22.5306 21.0234C21.9825 21.4736 21.317 21.5715 20.9255 21.5715C20.1033 21.5715 18.9876 21.082 18.9876 19.751C18.9876 18.0284 20.808 17.1476 20.808 15.2097C20.808 14.6616 20.5927 14.4266 20.5927 14.4266C21.4149 13.3109 21.7084 12.2734 21.7084 11.4317C21.7084 9.88526 20.8863 8.88697 20.8863 8.88697L21.7672 9.33722C21.3757 7.84953 20.5535 6.85118 20.5535 6.85118C20.5535 6.85118 21.0037 7.0665 21.2191 6.96862C20.7689 6.7533 20.1034 5.91161 20.1034 4.42392C20.1034 2.93624 19.7706 2.09452 16.8931 1.60515C16.5603 0.939604 15.7773 0.215323 15.4054 0C14.7398 0.332772 13.7415 0.724287 13.4087 0.998334C13.4087 0.998334 12.5866 1.05706 12.2538 1.05706C11.7645 1.05706 11.373 0.900484 11.1381 0.900484C10.4725 0.900484 10.0223 1.56602 10.0223 1.56602C10.0223 1.56602 8.53462 1.62471 7.47759 1.84004C6.92949 1.95748 6.59673 2.38815 6.20524 3.32774L3.48431 4.81544C2.99494 5.08949 2.6622 5.26563 2.6622 5.69627C2.6622 5.9116 2.8188 6.30311 3.15157 6.81205C3.42562 8.47591 3.69963 8.74994 4.09112 8.74994C4.20857 8.74994 4.42392 8.69121 4.42392 8.69121C4.54137 8.80866 4.81544 9.2393 4.87416 9.41547C4.42394 9.63079 3.87584 9.14146 3.2103 9.14146C2.8188 9.14146 2.21196 9.35674 2.21196 10.0223C2.21196 10.2376 2.32944 10.2964 2.42732 10.2964C2.58391 10.2964 2.76008 10.2376 3.15157 10.2376C3.64094 10.2376 4.03245 10.6879 4.81544 10.6879C5.08949 10.6879 5.26566 10.6292 5.36353 10.6879C4.97204 10.9619 4.75672 11.1381 4.87416 11.51C5.03076 12.2343 5.6963 13.0564 6.02907 13.0564C6.30312 13.0564 6.81205 12.8998 6.81205 12.8998L6.47925 13.1739C4.2673 15.053 4.75672 17.1671 4.75672 19.2616C4.75672 20.8667 4.30649 21.8651 3.03413 21.8651C2.21199 21.8651 1.0375 21.3757 0.156632 20.2599C0.039183 20.5927 0 21.0821 0 21.5323C0 23.4702 1.7813 24.7426 3.54303 24.7426C5.08944 24.7426 6.20523 24.2924 7.30142 23.4115C10.453 23.3528 11.4513 21.2583 11.4513 21.2583C12.939 23.4115 15.7186 23.2549 16.1688 23.2549C17.1084 24.2532 18.5569 24.6447 19.5944 24.6447V24.6251ZM10.3942 19.9076C10.3942 21.6302 8.94568 22.3936 7.45799 22.3936C9.3959 20.2795 7.90822 17.2454 9.7874 15.2488C9.6308 17.0301 10.3942 18.6744 10.3942 19.9076ZM8.33888 5.73546H8.3976C8.67165 6.7925 9.8853 6.89032 10.1789 8.12353L10.1202 8.18231C9.51338 7.30144 8.67165 7.18395 8.33888 6.73373C8.18228 6.51841 8.18228 6.2444 8.33888 5.73546ZM13.996 31.4371C13.996 31.4371 13.6632 31.8874 13.6045 31.8874C13.5458 31.8874 13.213 31.4958 13.213 31.4371C13.213 31.3197 13.5458 30.9869 13.6045 30.9869C13.6632 30.9869 13.996 31.3197 13.996 31.4371ZM18.2633 31.5546C18.2633 31.5546 17.9305 32.0048 17.8718 32.0048C17.8131 32.0048 17.4803 31.6133 17.4803 31.5546C17.4803 31.4371 17.8131 31.1044 17.8718 31.1044C17.9305 31.1044 18.2633 31.4371 18.2633 31.5546ZM16.8147 32.3376C16.9322 32.3376 17.0301 32.2788 17.0301 32.1222V30.9086C17.0301 30.752 16.9126 30.6933 16.8147 30.6933C16.1492 30.6346 15.0922 30.5758 14.6616 30.5758C14.4854 30.5758 14.3875 30.6933 14.3875 30.8499V32.0635C14.3875 32.2201 14.505 32.3376 14.6616 32.3376H16.8147ZM12.4887 32.3963C12.6453 32.3963 12.7628 32.2788 12.7628 32.1222V30.7912C12.7628 30.6346 12.6453 30.5171 12.4887 30.5171H10.3747C10.2181 30.5171 10.1006 30.6346 10.1006 30.7912V32.1222C10.1006 32.2788 10.2181 32.3963 10.3747 32.3963H12.4887ZM8.88697 31.4567C8.88697 31.3393 9.21977 31.0065 9.27849 31.0065C9.33722 31.0065 9.66995 31.3393 9.66995 31.4567C9.66995 31.5154 9.33722 31.907 9.27849 31.907C9.21977 31.907 8.88697 31.5154 8.88697 31.4567ZM4.61968 31.5742C4.61968 31.4567 4.95242 31.1239 5.01114 31.1239C5.06987 31.1239 5.40266 31.4567 5.40266 31.5742C5.40266 31.6329 5.06987 32.0244 5.01114 32.0244C4.95242 32.0244 4.61968 31.6329 4.61968 31.5742ZM6.0682 32.3571H8.22144C8.37804 32.3571 8.49545 32.2397 8.49545 32.0831V30.8695C8.49545 30.7129 8.37804 30.5954 8.22144 30.5954C7.77122 30.5954 6.73374 30.6541 6.0682 30.7129C5.95075 30.7129 5.8529 30.7716 5.8529 30.9282V32.1418C5.8529 32.2984 5.97032 32.3571 6.0682 32.3571ZM10.8836 31.4763C10.8836 31.3197 11.3338 30.8695 11.4317 30.8695C11.4904 30.8695 11.921 31.3197 11.921 31.4763C11.921 31.535 11.4708 32.0244 11.4317 32.0244C11.3142 32.0244 10.8836 31.535 10.8836 31.4763ZM15.2097 31.4763C15.2097 31.3197 15.6599 30.8695 15.7577 30.8695C15.8165 30.8695 16.2471 31.3197 16.2471 31.4763C16.2471 31.535 15.7969 32.0244 15.7577 32.0244C15.6403 32.0244 15.2097 31.535 15.2097 31.4763ZM6.61629 31.4763C6.61629 31.3197 7.06651 30.8695 7.16438 30.8695C7.22311 30.8695 7.65375 31.3197 7.65375 31.4763C7.65375 31.535 7.20353 32.0244 7.16438 32.0244C7.04693 32.0244 6.61629 31.535 6.61629 31.4763Z" fill="white"/>
<path d="M43.4557 32.0243C43.4557 31.1043 42.8685 30.3408 41.8114 30.3408H40.8718V33.6881H41.8114C42.8489 33.6881 43.4557 32.9443 43.4557 32.0243ZM40.3433 34.1775V29.8906H41.8114C43.1425 29.8906 44.0038 30.8302 44.0038 32.0438C44.0038 33.2574 43.1425 34.197 41.8114 34.197H40.3433V34.1775Z" fill="white"/>
<path d="M45.6874 32.5136V29.8906H46.216V32.5136C46.216 33.2966 46.6466 33.786 47.4296 33.786C48.2126 33.786 48.6433 33.2966 48.6433 32.5136V29.8906H49.1717V32.5136C49.1717 33.5903 48.5845 34.2558 47.4296 34.2558C46.2747 34.2558 45.6874 33.5707 45.6874 32.5136Z" fill="white"/>
<path d="M53.6736 32.9638C53.6736 32.5723 53.3995 32.22 52.871 32.22H51.5594V33.7077H52.871C53.3799 33.7077 53.6736 33.4336 53.6736 32.9638ZM53.5952 31.0651C53.5952 30.6736 53.3408 30.3604 52.8514 30.3604H51.5594V31.7502H52.8514C53.3408 31.7502 53.5952 31.4566 53.5952 31.0651ZM51.0309 34.1775V29.8906H52.9493C53.6931 29.8906 54.1433 30.3408 54.1433 30.9868C54.1433 31.5349 53.791 31.8872 53.3995 31.9655C53.8497 32.0438 54.2412 32.5136 54.2412 33.0225C54.2412 33.7077 53.791 34.1775 53.008 34.1775H51.0505H51.0309Z" fill="white"/>
<path d="M57.5102 30.4387L56.5902 32.7485H58.4106L57.5102 30.4387ZM58.9587 34.1775L58.5869 33.2183H56.4532L56.0812 34.1775H55.4744L57.197 29.8906H57.8626L59.5851 34.1775H58.9783H58.9587Z" fill="white"/>
<path d="M60.9758 34.1768V29.8704H61.5043V34.1768H60.9758Z" fill="white"/>
<path d="M63.442 35.0002L63.2072 34.8044C63.4225 34.6674 63.5986 34.4129 63.6182 34.1976C63.6182 34.1976 63.5595 34.1976 63.5204 34.1976C63.3442 34.1976 63.2072 34.0606 63.2072 33.8648C63.2072 33.6691 63.3638 33.5125 63.54 33.5125C63.7553 33.5125 63.951 33.6886 63.951 34.0018C63.951 34.3933 63.7161 34.7652 63.4224 34.9806L63.442 35.0002Z" fill="white"/>
<path d="M67.9637 32.0245C67.9637 30.713 68.9424 29.8125 70.1756 29.8125C70.9391 29.8125 71.4676 30.1844 71.8004 30.6542L71.3501 30.9087C71.1153 30.5563 70.665 30.2823 70.1756 30.2823C69.2361 30.2823 68.5314 31.0066 68.5314 32.0245C68.5314 33.0424 69.2361 33.7666 70.1756 33.7666C70.665 33.7666 71.1153 33.5122 71.3501 33.1402L71.8004 33.3947C71.448 33.884 70.9195 34.2364 70.1561 34.2364C68.9228 34.2364 67.9442 33.336 67.9442 32.0245H67.9637Z" fill="white"/>
<path d="M75.8336 31.1826C75.8336 30.6932 75.4812 30.3604 74.9723 30.3604H73.8369V32.0047H74.9723C75.4812 32.0047 75.8336 31.6719 75.8336 31.1826ZM75.7944 34.1775L74.6982 32.4745H73.8369V34.1775H73.3084V29.8906H75.031C75.814 29.8906 76.3817 30.3996 76.3817 31.1826C76.3817 31.9656 75.8531 32.3766 75.2659 32.4353L76.4208 34.1775H75.7944Z" fill="white"/>
<path d="M78.064 34.1768V29.8704H80.8828V30.3597H78.5925V31.73H80.8241V32.2194H78.5925V33.6875H80.8828V34.1768H78.064Z" fill="white"/>
<path d="M82.567 34.1768V29.8704H85.3662V30.3597H83.0955V31.73H85.327V32.2194H83.0955V33.6875H85.3662V34.1768H82.567Z" fill="white"/>
<path d="M89.6532 34.1768L88.0089 32.2389L87.5782 32.7283V34.1768H87.0497V29.8704H87.5782V32.1019L89.477 29.8704H90.1621L88.3612 31.9257L90.3187 34.1768H89.6532Z" fill="white"/>
<path d="M91.4929 33.5704L91.8061 33.1593C92.0801 33.4725 92.5499 33.7662 93.1567 33.7662C93.9201 33.7662 94.1747 33.3551 94.1747 33.0223C94.1747 31.9065 91.6299 32.533 91.6299 30.9866C91.6299 30.2819 92.2563 29.7925 93.098 29.7925C93.7636 29.7925 94.2725 30.0078 94.6248 30.3993L94.3117 30.7908C93.9985 30.4385 93.5483 30.2819 93.0785 30.2819C92.5695 30.2819 92.1976 30.5559 92.1976 30.967C92.1976 31.9261 94.7423 31.378 94.7423 32.9832C94.7423 33.6096 94.3116 34.236 93.1567 34.236C92.4129 34.236 91.8648 33.9619 91.5125 33.5509L91.4929 33.5704Z" fill="white"/>
<path d="M96.3478 34.1768V29.8704H96.8959V34.1768H96.3478Z" fill="white"/>
<path d="M101.847 32.0243C101.847 31.1043 101.26 30.3408 100.203 30.3408H99.2636V33.6881H100.203C101.241 33.6881 101.847 32.9443 101.847 32.0243ZM98.735 34.1775V29.8906H100.203C101.534 29.8906 102.396 30.8302 102.396 32.0438C102.396 33.2574 101.534 34.197 100.203 34.197H98.735V34.1775Z" fill="white"/>
<path d="M104.06 34.1768V29.8704H106.879V30.3597H104.588V31.73H106.82V32.2194H104.588V33.6875H106.879V34.1768H104.06Z" fill="white"/>
</svg>
