<svg width="384" height="79" viewBox="0 0 384 79" fill="none" xmlns="http://www.w3.org/2000/svg">
<path d="M275.865 42.6712V41.6027H279.061C279.86 41.6027 280.926 39.4658 280.926 39.4658C280.926 39.4658 297.972 1 298.504 1C299.037 1 315.816 39.4658 315.816 39.4658C315.816 39.4658 316.882 41.6027 319.279 41.6027H321.676V42.6712H304.896V41.6027H305.962C306.761 41.6027 306.761 39.4658 306.761 39.4658C306.761 39.4658 296.373 14.3562 295.841 14.3562C295.308 14.3562 286.252 39.4658 286.252 39.4658C286.252 39.4658 285.72 41.6027 288.383 41.6027H291.047V42.6712H275.865Z" fill="white"/>
<path d="M160.805 1.53425V1H179.183V1.53425H176.52C175.454 1.53425 174.122 4.4726 174.122 4.4726V30.1164C174.122 30.1164 174.921 38.1301 181.314 38.9315H187.706C193.565 37.0616 193.565 29.5822 193.565 29.5822V3.93836C193.565 3.93836 193.033 1.53425 191.435 1.53425H187.972V1H204.219V1.53425H201.023C199.958 1.53425 199.159 3.93836 199.159 3.93836C199.159 3.93836 198.892 27.9795 198.626 29.5822C198.36 31.1849 196.229 37.5959 192.5 40C188.771 42.4041 186.641 42.4041 186.641 42.4041C186.641 42.4041 179.183 42.6712 178.384 42.4041C177.585 42.137 175.454 42.4041 172.258 40C169.062 37.5959 166.132 33.3219 165.866 29.5822C165.599 25.8425 165.599 3.93836 165.599 3.93836C165.599 3.93836 165.067 1.53425 163.735 1.53425H160.805Z" fill="white"/>
<path d="M4.19611 2.33548H1V2.06836H19.9103V2.33548H16.9805L14.8498 4.73959V19.6985H16.1815L30.0313 3.6711L28.9659 2.33548H27.3679V2.06836H42.5494V2.33548H38.8206L36.9562 3.13685L21.7747 18.3629C21.7747 18.3629 26.8352 25.5341 30.0313 30.1163C33.2274 34.6985 35.3581 37.8629 41.484 41.0684L46.0118 41.6026V42.404C46.0118 42.404 38.5596 43.5727 34.0264 42.404C29.7445 41.3 24.9708 36.7944 22.8761 33.5889C20.7814 30.3834 16.1815 22.3697 16.1815 22.3697H14.8498V38.3971L16.9805 41.6026H20.7093V42.404H1.53268V41.6026H4.19611L6.32684 38.3971V4.73959L4.19611 2.33548Z" fill="white"/>
<path d="M14.8498 38.3971V22.3697H16.1815C16.1815 22.3697 20.7814 30.3834 22.8761 33.5889C24.9708 36.7944 29.7445 41.3 34.0264 42.404C38.5596 43.5727 46.0118 42.404 46.0118 42.404V41.6026L41.484 41.0684C35.3581 37.8629 33.2274 34.6985 30.0313 30.1163C26.8352 25.5341 21.7747 18.3629 21.7747 18.3629L36.9562 3.13685L38.8206 2.33548H42.5494V2.06836H27.3679V2.33548H28.9659L30.0313 3.6711L16.1815 19.6985H14.8498V4.73959L16.9805 2.33548H19.9103V2.06836H1V2.33548H4.19611L6.32684 4.73959V38.3971L4.19611 41.6026H1.53268V42.404H20.7093V41.6026H16.9805L14.8498 38.3971Z" fill="white"/>
<path d="M60.6606 2.06836V2.60261H63.0577C64.9221 2.60261 65.1885 4.73959 65.1885 4.73959V38.9314C65.1885 38.9314 64.3894 41.8697 63.5904 41.8697H60.6606V42.404H89.4256V33.3218H89.1593C89.1593 33.3218 89.0794 34.6455 88.8929 35.4588C88.4801 37.2573 85.6968 38.9314 85.6968 38.9314C85.6968 38.9314 79.6013 40.8723 76.6412 38.9314C75.5332 38.2047 74.2441 36.5273 74.2441 36.5273V22.1026H83.5661C83.5661 22.1026 85.6739 22.8275 86.2295 23.9725C86.7302 25.0043 86.7622 26.9108 86.7622 26.9108H87.2949V17.0273C87.2949 17.0273 86.7622 18.3629 85.6968 18.8971C84.6314 19.4314 74.2441 18.8971 74.2441 18.8971V5.27384H84.3651C84.3651 5.27384 86.3435 6.41836 86.7622 7.67795C87.0583 8.56864 87.0285 10.0821 87.0285 10.0821H87.8275V2.06836H60.6606Z" fill="white"/>
<path d="M109.934 2.34423C109.135 2.34423 107.537 1.26885 107.537 1.26885L107.004 1V10.9474H107.537V7.45231C107.537 7.45231 107.537 5.57039 109.934 5.57039H120.321V38.9074C120.321 38.9074 120.321 41.8647 118.99 41.8647H115.261V42.6712H134.97V41.8647H131.508C129.377 41.8647 129.377 38.9074 129.377 38.9074L129.111 5.57039H140.563C142.161 5.57039 142.694 7.45231 142.694 7.45231V10.9474H143.227V1.26885C143.227 1.26885 141.362 2.34423 140.563 2.34423H109.934Z" fill="white"/>
<path d="M336.591 1.80137V1H355.501V1.80137H352.572C350.707 1.80137 350.707 4.20548 350.707 4.20548V18.6301H368.552V4.20548C368.552 4.20548 368.286 1.80137 366.688 1.80137H363.225V1H382.402V1.80137H379.206C377.075 1.80137 377.341 4.20548 377.341 4.20548V38.9315C377.341 38.9315 377.341 41.0685 379.739 41.0685H383.201V41.8699H364.024V41.0685H366.688C368.286 41.0685 368.552 38.9315 368.552 38.9315V21.5685H350.707V38.9315C350.707 38.9315 350.707 41.0685 353.104 41.0685H356.567V41.8699H336.591V41.0685H340.054C341.385 41.0685 341.385 38.9315 341.385 38.9315L341.918 4.20548C341.918 4.20548 342.184 1.80137 340.054 1.80137H336.591Z" fill="white"/>
<path fill-rule="evenodd" clip-rule="evenodd" d="M224.994 2.60254C227.124 2.60254 227.124 5.00665 227.124 5.00665V38.9313C227.124 38.9313 226.592 41.8697 225.26 41.8697L222.064 41.8698V42.6711H241.507V41.8698L237.778 41.8697C235.914 41.8697 235.381 38.9313 235.381 38.9313V25.8422H240.175C245.079 35.5138 251.894 41.8697 254.291 42.4039C256.688 42.9382 265.744 42.671 265.744 42.671V41.8697C265.744 41.8697 262.814 42.4039 261.749 41.3354C260.684 40.2669 246.301 24.5066 247.367 23.171C247.367 23.171 252.949 19.2579 254.291 15.4245C255.135 13.0171 255.09 11.4177 254.558 9.01356C254.025 6.60945 249.125 2.0641 246.035 2.06836C242.944 2.07262 221.531 2.06836 221.531 2.06836L221.265 2.06845V2.60262L224.994 2.60254ZM236.172 21.7663C236.162 21.7253 236.148 21.6235 236.135 21.4474C236.123 21.2785 236.112 21.0584 236.103 20.7935C236.085 20.2641 236.074 19.5637 236.068 18.7508C236.055 17.1254 236.063 15.0567 236.08 13.02C236.097 10.9836 236.122 8.98036 236.143 7.48613C236.151 6.90857 236.158 6.40712 236.164 6.00921C236.166 5.89237 236.167 5.78447 236.169 5.68618C236.171 5.56765 236.174 5.46045 236.177 5.36872C236.179 5.2929 236.181 5.22765 236.182 5.17531C236.294 5.13745 236.492 5.08661 236.809 5.05072C237.446 4.9788 238.554 4.96802 240.404 5.23312C242.16 5.48472 243.434 6.68962 244.346 8.10254C245.257 9.51386 245.781 11.0953 246.045 12.0211C246.301 12.9206 246.5 14.6246 246.368 16.3686C246.237 18.1224 245.776 19.8429 244.781 20.8411C244.295 21.3285 243.53 21.696 242.622 21.9489C241.718 22.2005 240.7 22.3315 239.734 22.3641C238.766 22.3967 237.864 22.3303 237.194 22.1938C236.858 22.1252 236.593 22.0414 236.41 21.9506C236.212 21.8522 236.175 21.7782 236.172 21.7663Z" fill="white"/>
<path d="M271.12 77.9317V58.5044H283.718V61.4545H274.629V66.7286H283.066V69.6792H274.629V74.9816H283.794V77.9317H271.12Z" fill="white"/>
<path d="M247.494 73.7956L242.453 58.5044H238.603L245.423 77.9317H249.755L256.584 58.5044H252.725L247.693 73.7956H247.494Z" fill="white"/>
<path d="M182.884 58.5044V77.9317H195.558V74.9816H186.393V69.6792H194.829V66.7286H186.393V61.4545H195.482V58.5044H182.884Z" fill="white"/>
<path d="M163.013 61.9101C163.668 62.3717 164.041 63.0165 164.129 63.8452H167.505C167.487 62.751 167.181 61.7835 166.588 60.9426C165.995 60.0947 165.179 59.4339 164.138 58.96C163.104 58.4792 161.9 58.2388 160.525 58.2388C159.169 58.2388 157.956 58.4792 156.884 58.96C155.812 59.4339 154.964 60.1012 154.34 60.9613C153.722 61.8214 153.413 62.8237 153.413 63.9686C153.413 65.3597 153.873 66.4758 154.793 67.3167C155.721 68.1517 156.982 68.7747 158.577 69.1855L160.781 69.755C161.474 69.9318 162.079 70.1343 162.597 70.3619C163.12 70.5831 163.527 70.8614 163.817 71.1964C164.107 71.5255 164.255 71.9427 164.261 72.4487C164.255 73.0053 164.088 73.492 163.76 73.9098C163.432 74.3207 162.978 74.6434 162.398 74.8773C161.824 75.1049 161.156 75.2187 160.393 75.2187C159.662 75.2187 158.999 75.1081 158.407 74.8864C157.82 74.6653 157.344 74.3303 156.979 73.881C156.613 73.4322 156.405 72.8691 156.354 72.1928H152.902C152.952 73.483 153.286 74.5766 153.904 75.4746C154.529 76.3727 155.393 77.056 156.496 77.5235C157.606 77.9915 158.914 78.2255 160.421 78.2255C161.972 78.2255 163.293 77.9856 164.384 77.5048C165.481 77.0175 166.32 76.3444 166.9 75.4843C167.48 74.6177 167.77 73.6155 167.77 72.477C167.77 71.6361 167.612 70.9026 167.298 70.2764C166.982 69.6503 166.554 69.116 166.011 68.6731C165.475 68.2308 164.866 67.8638 164.186 67.5731C163.511 67.282 162.808 67.0512 162.076 66.8807L160.26 66.425C159.864 66.3305 159.469 66.2135 159.078 66.074C158.687 65.9351 158.331 65.7642 158.009 65.5622C157.688 65.3533 157.432 65.1001 157.243 64.8031C157.061 64.506 156.969 64.155 156.969 63.7501C156.975 63.2634 157.117 62.8301 157.395 62.4508C157.672 62.0709 158.073 61.7707 158.596 61.5495C159.119 61.3283 159.747 61.2172 160.478 61.2172C161.519 61.2172 162.363 61.448 163.013 61.9101Z" fill="white"/>
<path d="M125.438 58.5044V77.9317H138.112V74.9816H128.947V69.6792H137.384V66.7286H128.947V61.4545H138.037V58.5044H125.438Z" fill="white"/>
<path fill-rule="evenodd" clip-rule="evenodd" d="M96.1305 77.9317V58.5044H103.394C104.883 58.5044 106.131 58.764 107.139 59.2823C108.155 59.801 108.921 60.5281 109.438 61.4641C109.961 62.3937 110.223 63.4782 110.223 64.7177C110.223 65.9635 109.958 67.0449 109.428 67.9622C108.827 69.0093 107.855 69.7902 106.743 70.2406L110.932 77.9317H107.016L103.21 70.8172H99.6393V77.9317H96.1305ZM99.6393 67.8953H102.874C103.744 67.8953 104.457 67.7756 105.011 67.5352C105.566 67.2884 105.976 66.931 106.241 66.463C106.512 65.9891 106.648 65.4073 106.648 64.7176C106.648 64.0284 106.512 63.4402 106.241 62.9535C105.97 62.4598 105.557 62.0869 105.002 61.8342C104.447 61.5746 103.731 61.4453 102.855 61.4453H99.6393V67.8953Z" fill="white"/>
<path fill-rule="evenodd" clip-rule="evenodd" d="M212.467 77.9317V58.5044H219.731C221.219 58.5044 222.467 58.764 223.476 59.2823C224.492 59.801 225.258 60.5281 225.775 61.4641C226.298 62.3937 226.56 63.4782 226.56 64.7177C226.56 65.9635 226.295 67.0449 225.765 67.9622C225.164 69.0093 224.192 69.7902 223.079 70.2406L227.269 77.9317H223.353L219.547 70.8172H215.976V77.9317H212.467ZM215.976 67.8953H219.211C220.081 67.8953 220.794 67.7756 221.348 67.5352C221.903 67.2884 222.313 66.931 222.578 66.463C222.849 65.9891 222.985 65.4073 222.985 64.7176C222.985 64.0284 222.849 63.4402 222.578 62.9535C222.307 62.4598 221.894 62.0869 221.339 61.8342C220.784 61.5746 220.068 61.4453 219.192 61.4453H215.976V67.8953Z" fill="white"/>
<path d="M222.064 41.8698V42.6711M222.064 41.8698H222.597M222.064 41.8698L225.26 41.8697C226.592 41.8697 227.124 38.9313 227.124 38.9313V5.00665C227.124 5.00665 227.124 2.60254 224.994 2.60254L221.265 2.60262M222.064 42.6711H222.597M222.064 42.6711H241.507M241.507 42.6711V41.8698M241.507 42.6711H240.974M241.507 41.8698H240.974M241.507 41.8698L237.778 41.8697C235.914 41.8697 235.381 38.9313 235.381 38.9313V25.8422H240.175C245.079 35.5138 251.894 41.8697 254.291 42.4039C256.688 42.9382 265.744 42.671 265.744 42.671V41.8697C265.744 41.8697 262.814 42.4039 261.749 41.3354C260.684 40.2669 246.301 24.5066 247.367 23.171C247.367 23.171 252.949 19.2579 254.291 15.4245C255.135 13.0171 255.09 11.4177 254.558 9.01356C254.025 6.60945 249.125 2.0641 246.035 2.06836C242.944 2.07262 221.531 2.06836 221.531 2.06836L221.265 2.06845M221.265 2.06845V2.60262M221.265 2.06845H221.798M221.265 2.60262H221.798M275.865 42.6712V41.6027H279.061C279.86 41.6027 280.926 39.4658 280.926 39.4658C280.926 39.4658 297.972 1 298.504 1C299.037 1 315.816 39.4658 315.816 39.4658C315.816 39.4658 316.882 41.6027 319.279 41.6027H321.676V42.6712H304.896V41.6027H305.962C306.761 41.6027 306.761 39.4658 306.761 39.4658C306.761 39.4658 296.373 14.3562 295.841 14.3562C295.308 14.3562 286.252 39.4658 286.252 39.4658C286.252 39.4658 285.72 41.6027 288.383 41.6027H291.047V42.6712H275.865ZM160.805 1.53425V1H179.183V1.53425H176.52C175.454 1.53425 174.122 4.4726 174.122 4.4726V30.1164C174.122 30.1164 174.921 38.1301 181.314 38.9315H187.706C193.565 37.0616 193.565 29.5822 193.565 29.5822V3.93836C193.565 3.93836 193.033 1.53425 191.435 1.53425H187.972V1H204.219V1.53425H201.023C199.958 1.53425 199.159 3.93836 199.159 3.93836C199.159 3.93836 198.892 27.9795 198.626 29.5822C198.36 31.1849 196.229 37.5959 192.5 40C188.771 42.4041 186.641 42.4041 186.641 42.4041C186.641 42.4041 179.183 42.6712 178.384 42.4041C177.585 42.137 175.454 42.4041 172.258 40C169.062 37.5959 166.132 33.3219 165.866 29.5822C165.599 25.8425 165.599 3.93836 165.599 3.93836C165.599 3.93836 165.067 1.53425 163.735 1.53425H160.805ZM4.19611 2.33548H1V2.06836H19.9103V2.33548H16.9805L14.8498 4.73959V19.6985H16.1815L30.0313 3.6711L28.9659 2.33548H27.3679V2.06836H42.5494V2.33548H38.8206L36.9562 3.13685L21.7747 18.3629C21.7747 18.3629 26.8352 25.5341 30.0313 30.1163C33.2274 34.6985 35.3581 37.8629 41.484 41.0684L46.0118 41.6026V42.404C46.0118 42.404 38.5596 43.5727 34.0264 42.404C29.7445 41.3 24.9708 36.7944 22.8761 33.5889C20.7814 30.3834 16.1815 22.3697 16.1815 22.3697H14.8498V38.3971L16.9805 41.6026H20.7093V42.404H1.53268V41.6026H4.19611L6.32684 38.3971V4.73959L4.19611 2.33548ZM60.6606 2.06836V2.60261H63.0577C64.9221 2.60261 65.1885 4.73959 65.1885 4.73959V38.9314C65.1885 38.9314 64.3894 41.8697 63.5904 41.8697H60.6606V42.404H89.4256V33.3218H89.1593C89.1593 33.3218 89.0794 34.6455 88.8929 35.4588C88.4801 37.2573 85.6968 38.9314 85.6968 38.9314C85.6968 38.9314 79.6013 40.8723 76.6412 38.9314C75.5332 38.2047 74.2441 36.5273 74.2441 36.5273V22.1026H83.5661C83.5661 22.1026 85.6739 22.8275 86.2295 23.9725C86.7302 25.0043 86.7622 26.9108 86.7622 26.9108H87.2949V17.0273C87.2949 17.0273 86.7622 18.3629 85.6968 18.8971C84.6314 19.4314 74.2441 18.8971 74.2441 18.8971V5.27384H84.3651C84.3651 5.27384 86.3435 6.41836 86.7622 7.67795C87.0583 8.56864 87.0285 10.0821 87.0285 10.0821H87.8275V2.06836H60.6606ZM109.934 2.34423C109.135 2.34423 107.537 1.26885 107.537 1.26885L107.004 1V10.9474H107.537V7.45231C107.537 7.45231 107.537 5.57039 109.934 5.57039H120.321V38.9074C120.321 38.9074 120.321 41.8647 118.99 41.8647H115.261V42.6712H134.97V41.8647H131.508C129.377 41.8647 129.377 38.9074 129.377 38.9074L129.111 5.57039H140.563C142.161 5.57039 142.694 7.45231 142.694 7.45231V10.9474H143.227V1.26885C143.227 1.26885 141.362 2.34423 140.563 2.34423H109.934ZM336.591 1.80137V1H355.501V1.80137H352.572C350.707 1.80137 350.707 4.20548 350.707 4.20548V18.6301H368.552V4.20548C368.552 4.20548 368.286 1.80137 366.688 1.80137H363.225V1H382.402V1.80137H379.206C377.075 1.80137 377.341 4.20548 377.341 4.20548V38.9315C377.341 38.9315 377.341 41.0685 379.739 41.0685H383.201V41.8699H364.024V41.0685H366.688C368.286 41.0685 368.552 38.9315 368.552 38.9315V21.5685H350.707V38.9315C350.707 38.9315 350.707 41.0685 353.104 41.0685H356.567V41.8699H336.591V41.0685H340.054C341.385 41.0685 341.385 38.9315 341.385 38.9315L341.918 4.20548C341.918 4.20548 342.184 1.80137 340.054 1.80137H336.591ZM236.135 21.4474C236.148 21.6235 236.162 21.7253 236.172 21.7663C236.175 21.7782 236.212 21.8522 236.41 21.9506C236.593 22.0414 236.858 22.1252 237.194 22.1938C237.864 22.3303 238.766 22.3967 239.734 22.3641C240.7 22.3315 241.718 22.2005 242.622 21.9489C243.53 21.696 244.295 21.3285 244.781 20.8411C245.776 19.8429 246.237 18.1224 246.368 16.3686C246.5 14.6246 246.301 12.9206 246.045 12.0211C245.781 11.0953 245.257 9.51386 244.346 8.10254C243.434 6.68962 242.16 5.48472 240.404 5.23312C238.554 4.96802 237.446 4.9788 236.809 5.05072C236.492 5.08661 236.294 5.13745 236.182 5.17531C236.181 5.22765 236.179 5.2929 236.177 5.36872C236.174 5.46045 236.171 5.56765 236.169 5.68618C236.167 5.78447 236.166 5.89237 236.164 6.00921C236.158 6.40712 236.151 6.90857 236.143 7.48613C236.122 8.98036 236.097 10.9836 236.08 13.02C236.063 15.0567 236.055 17.1254 236.068 18.7508C236.074 19.5637 236.085 20.2641 236.103 20.7935C236.112 21.0584 236.123 21.2785 236.135 21.4474ZM271.12 77.9317V58.5044H283.718V61.4545H274.629V66.7286H283.066V69.6792H274.629V74.9816H283.794V77.9317H271.12ZM242.453 58.5044L247.494 73.7956H247.693L252.725 58.5044H256.584L249.755 77.9317H245.423L238.603 58.5044H242.453ZM182.884 77.9317V58.5044H195.482V61.4545H186.393V66.7286H194.829V69.6792H186.393V74.9816H195.558V77.9317H182.884ZM164.129 63.8452C164.041 63.0165 163.668 62.3717 163.013 61.9101C162.363 61.448 161.519 61.2172 160.478 61.2172C159.747 61.2172 159.119 61.3283 158.596 61.5495C158.073 61.7707 157.672 62.0709 157.395 62.4508C157.117 62.8301 156.975 63.2634 156.969 63.7501C156.969 64.155 157.061 64.506 157.243 64.8031C157.432 65.1001 157.688 65.3533 158.009 65.5622C158.331 65.7642 158.687 65.9351 159.078 66.074C159.469 66.2135 159.864 66.3305 160.26 66.425L162.076 66.8807C162.808 67.0512 163.511 67.282 164.186 67.5731C164.866 67.8638 165.475 68.2308 166.011 68.6731C166.554 69.116 166.982 69.6503 167.298 70.2764C167.612 70.9026 167.77 71.6361 167.77 72.477C167.77 73.6155 167.48 74.6177 166.9 75.4843C166.32 76.3444 165.481 77.0175 164.384 77.5048C163.293 77.9856 161.972 78.2255 160.421 78.2255C158.914 78.2255 157.606 77.9915 156.496 77.5235C155.393 77.056 154.529 76.3727 153.904 75.4746C153.286 74.5766 152.952 73.483 152.902 72.1928H156.354C156.405 72.8691 156.613 73.4322 156.979 73.881C157.344 74.3303 157.82 74.6653 158.407 74.8864C158.999 75.1081 159.662 75.2187 160.393 75.2187C161.156 75.2187 161.824 75.1049 162.398 74.8773C162.978 74.6434 163.432 74.3207 163.76 73.9098C164.088 73.492 164.255 73.0053 164.261 72.4487C164.255 71.9427 164.107 71.5255 163.817 71.1964C163.527 70.8614 163.12 70.5831 162.597 70.3619C162.079 70.1343 161.474 69.9318 160.781 69.755L158.577 69.1855C156.982 68.7747 155.721 68.1517 154.793 67.3167C153.873 66.4758 153.413 65.3597 153.413 63.9686C153.413 62.8237 153.722 61.8214 154.34 60.9613C154.964 60.1012 155.812 59.4339 156.884 58.96C157.956 58.4792 159.169 58.2388 160.525 58.2388C161.9 58.2388 163.104 58.4792 164.138 58.96C165.179 59.4339 165.995 60.0947 166.588 60.9426C167.181 61.7835 167.487 62.751 167.505 63.8452H164.129ZM125.438 77.9317V58.5044H138.037V61.4545H128.947V66.7286H137.384V69.6792H128.947V74.9816H138.112V77.9317H125.438ZM96.1305 58.5044V77.9317H99.6393V70.8172H103.21L107.016 77.9317H110.932L106.743 70.2406C107.855 69.7902 108.827 69.0093 109.428 67.9622C109.958 67.0449 110.223 65.9635 110.223 64.7177C110.223 63.4782 109.961 62.3937 109.438 61.4641C108.921 60.5281 108.155 59.801 107.139 59.2823C106.131 58.764 104.883 58.5044 103.394 58.5044H96.1305ZM102.874 67.8953H99.6393V61.4453H102.855C103.731 61.4453 104.447 61.5746 105.002 61.8342C105.557 62.0869 105.97 62.4598 106.241 62.9535C106.512 63.4402 106.648 64.0284 106.648 64.7176C106.648 65.4073 106.512 65.9891 106.241 66.463C105.976 66.931 105.566 67.2884 105.011 67.5352C104.457 67.7756 103.744 67.8953 102.874 67.8953ZM212.467 58.5044V77.9317H215.976V70.8172H219.547L223.353 77.9317H227.269L223.079 70.2406C224.192 69.7902 225.164 69.0093 225.765 67.9622C226.295 67.0449 226.56 65.9635 226.56 64.7177C226.56 63.4782 226.298 62.3937 225.775 61.4641C225.258 60.5281 224.492 59.801 223.476 59.2823C222.467 58.764 221.219 58.5044 219.731 58.5044H212.467ZM219.211 67.8953H215.976V61.4453H219.192C220.068 61.4453 220.784 61.5746 221.339 61.8342C221.894 62.0869 222.307 62.4598 222.578 62.9535C222.849 63.4402 222.985 64.0284 222.985 64.7176C222.985 65.4073 222.849 65.9891 222.578 66.463C222.313 66.931 221.903 67.2884 221.348 67.5352C220.794 67.7756 220.081 67.8953 219.211 67.8953Z" stroke="white"/>
</svg>