<svg width="1240" height="970" viewBox="0 0 1240 970" fill="none" xmlns="http://www.w3.org/2000/svg">
<path d="M76.5979 731.779V737.253C76.5979 735.471 76.4906 733.646 76.5979 731.779Z" fill="white"/>
<path d="M840.86 932.838C819.404 879.379 798.163 825.706 776.492 772.033C754.393 717.502 732.722 662.97 709.979 608.867C702.469 590.833 687.021 580.743 667.496 579.24C648.4 577.737 632.308 584.822 621.58 600.924C608.707 620.031 602.913 642.145 594.331 663.184C562.362 741.547 531.25 820.554 499.71 899.131C491.342 919.956 482.76 940.567 474.178 961.821H554.208C565.151 933.697 575.664 906.645 586.178 879.594H738.515C749.243 907.075 760.186 934.77 770.914 962.251H852.447C848.37 951.087 844.723 941.855 840.86 932.838ZM614.285 808.531C630.163 766.881 645.396 726.519 662.132 682.721C679.082 726.089 694.96 766.451 711.266 808.531H614.285Z" fill="white"/>
<path d="M1237.37 783.627C1236.08 845.243 1211.83 895.052 1162.49 932.838C1098.12 982.217 1001.14 980.5 935.911 935.199C898.792 909.436 872.186 875.73 858.24 833.221C833.136 757.649 854.163 680.36 912.094 626.043C942.347 597.489 977.964 579.454 1018.95 573.658C1096.19 562.923 1178.79 591.907 1218.92 665.546L1219.79 667.414C1219.79 667.414 1219.09 667.865 1218.7 668.122C1197.46 680.789 1173.62 690.45 1150.23 702.258C1147.87 699.253 1145.96 696.676 1144.03 693.885C1114.64 651.162 1073.01 640.427 1024.74 648.371C964.018 658.246 920.891 716.643 929.259 787.062C941.275 887.538 1048.55 923.391 1118.07 874.012C1136.52 860.916 1148.32 842.667 1152.62 817.763H1046.41V752.711C1050.27 749.491 1055.42 750.779 1060.14 750.779H1203.9C1225.14 750.779 1237.8 762.802 1237.37 783.627Z" fill="white"/>
<path d="M840.86 932.838C819.404 879.379 798.163 825.706 776.492 772.033C754.393 717.502 732.722 662.97 709.979 608.867C702.469 590.833 687.021 580.743 667.496 579.24C648.4 577.737 632.308 584.822 621.58 600.924C608.707 620.031 602.913 642.145 594.331 663.184C562.362 741.547 531.25 820.554 499.71 899.131C491.342 919.956 482.76 940.567 474.178 961.821H554.208C565.151 933.697 575.664 906.645 586.178 879.594H738.515C749.243 907.075 760.186 934.77 770.914 962.251H852.447C848.37 951.087 844.723 941.855 840.86 932.838ZM614.285 808.531C630.163 766.881 645.396 726.519 662.132 682.721C679.082 726.089 694.96 766.451 711.266 808.531H614.285Z" fill="white"/>
<path d="M442.852 640.341V962.38H365.61V705.887L354.002 731.392L346.901 746.936C329.392 785.452 311.884 824.075 294.376 862.548C289.849 872.423 285.322 882.299 280.773 892.175C270.002 915.512 259.167 938.892 248.353 962.38H194.499C169.417 907.654 144.227 852.758 118.909 797.496L76.5979 704.019V731.907C76.4906 733.775 76.5979 735.6 76.5979 737.382V962.38H0V943.487C0 846.446 0 749.619 0.21456 652.579C0.21456 643.347 0 633.9 2.1456 624.883C7.72416 599.12 28.751 581.515 54.9274 579.154C79.3872 577.007 103.203 590.532 113.717 613.719C124.059 636.52 134.357 659.32 144.613 682.12C160.384 717.072 176.111 752.024 191.817 786.976C197.138 798.934 202.48 810.893 207.801 822.851C209.561 826.78 211.299 830.709 213.058 834.638C213.466 835.518 213.873 836.42 214.302 837.3L221.748 853.895L229.665 836.269C231.982 832.276 233.699 827.875 235.437 823.474C236.359 821.091 237.325 818.707 238.376 816.389C246.057 799.643 253.653 782.875 261.248 766.086L264.939 757.928C271.29 743.866 277.619 729.782 283.949 715.698L315.918 644.656C320.381 634.759 324.865 624.883 329.35 615.007C342.438 586.239 368.185 574.216 399.725 581.086C424.614 586.668 442.852 611.358 442.852 640.341Z" fill="white"/>
<path d="M150.535 505.171C128.457 504.892 110.842 486.428 111.249 463.907C111.678 442.094 129.98 424.597 152.08 424.876C174.459 425.305 191.924 443.49 191.495 466.011C191.066 487.974 172.764 505.45 150.535 505.171Z" fill="white"/>
<path d="M342.245 255.956V395.248H130.667C95.2646 395.248 78.3144 412.209 78.0998 447.633V504.956H0.193104V454.976C0.193104 438.187 1.2659 421.441 6.65136 405.124C19.7395 364.977 46.5595 338.999 85.3949 324.185C101.058 318.174 117.364 316.886 133.671 316.886H248.46C250.928 316.886 253.438 317.143 256.142 316.886H264.681V313.73C264.681 313.73 264.746 313.687 264.767 313.665C264.767 295.631 264.552 276.524 264.767 257.416C264.982 247.111 262.836 237.664 258.974 228.218C247.817 200.737 222.07 186.568 189.456 190.432C164.353 193.223 141.824 215.766 137.747 241.958C137.104 245.823 136.675 249.687 136.031 253.981H59.004C59.6477 222.206 68.6592 193.652 87.755 168.963C116.935 130.748 156.414 110.996 204.047 111.64C249.748 112.284 286.867 133.109 314.116 170.036C332.804 195.391 342.245 223.967 342.245 255.956Z" fill="white"/>
<path d="M1211.62 167.675C1177.72 122.16 1115.28 100.691 1061.86 116.149C1026.03 126.583 997.768 148.589 979.788 176.799C978.951 178.087 978.157 179.375 977.364 180.685C976.999 181.308 976.634 181.93 976.269 182.553C956.916 216.388 951.874 258.167 965.52 299.345C965.649 299.753 965.799 300.161 965.949 300.569C967.816 305.786 969.961 310.874 972.407 315.812H455.296V0H378.913V394.604H1100.05C1122 394.604 1142.45 389.108 1161.5 379.447C1162.01 379.189 1162.53 378.932 1163.04 378.653C1167.29 376.441 1171.45 374.037 1175.57 371.418C1176.24 370.988 1176.9 370.559 1177.55 370.108C1201.62 354.264 1219.07 332.15 1229.28 307.31C1229.71 306.259 1230.14 305.207 1230.54 304.155C1230.84 303.382 1231.15 302.609 1231.4 301.836C1231.77 300.934 1232.09 300.011 1232.39 299.066C1232.78 297.95 1233.14 296.834 1233.51 295.717C1233.51 295.674 1233.55 295.631 1233.55 295.567C1233.96 294.214 1234.36 292.862 1234.75 291.509C1235.91 287.344 1236.87 283.136 1237.67 278.885C1237.93 277.468 1238.16 276.051 1238.38 274.613C1238.76 272.144 1239.06 269.675 1239.3 267.185C1242.69 233.091 1233.85 197.495 1211.62 167.675ZM1037.18 251.405C1037.83 217.913 1065.93 191.076 1099.83 191.505C1134.16 192.15 1160.98 220.06 1160.34 254.625C1159.7 288.332 1131.59 315.168 1097.47 314.739C1063.57 314.309 1036.54 285.97 1037.18 251.405Z" fill="white"/>
</svg>
