<svg width="194" height="150" viewBox="0 0 194 150" fill="none" xmlns="http://www.w3.org/2000/svg">
<g opacity="0.8" clip-path="url(#clip0_1417_82)">
<path d="M11.984 113.162V114.008C11.984 113.733 11.9672 113.45 11.984 113.162Z" fill="white"/>
<path d="M131.552 144.254C128.195 135.987 124.872 127.687 121.481 119.387C118.024 110.954 114.633 102.521 111.075 94.1549C109.9 91.3662 107.483 89.8059 104.429 89.5734C101.441 89.341 98.9233 90.4366 97.2449 92.9266C95.2309 95.8813 94.3244 99.301 92.9817 102.554C87.9801 114.672 83.1126 126.89 78.1781 139.041C76.8689 142.261 75.5263 145.449 74.1836 148.735H86.7044C88.4165 144.386 90.0612 140.203 91.7062 136.02H115.54C117.218 140.27 118.93 144.552 120.608 148.802H133.364C132.727 147.076 132.156 145.648 131.552 144.254ZM96.1036 125.031C98.5877 118.59 100.971 112.349 103.589 105.576C106.241 112.282 108.725 118.524 111.276 125.031H96.1036Z" fill="white"/>
<path d="M193.586 121.179C193.384 130.707 189.59 138.41 181.87 144.253C171.8 151.889 156.627 151.623 146.422 144.618C140.614 140.634 136.452 135.422 134.27 128.848C130.342 117.162 133.632 105.21 142.696 96.8104C147.429 92.3948 153.001 89.6059 159.413 88.7096C171.498 87.0496 184.421 91.5317 190.699 102.919L190.835 103.208C190.835 103.208 190.726 103.278 190.665 103.317C187.342 105.276 183.612 106.77 179.952 108.596C179.583 108.132 179.284 107.733 178.982 107.301C174.384 100.695 167.871 99.0347 160.319 100.263C150.819 101.79 144.072 110.821 145.381 121.71C147.261 137.248 164.044 142.792 174.921 135.156C177.807 133.131 179.654 130.309 180.326 126.458H163.71V116.398C164.313 115.9 165.119 116.099 165.858 116.099H188.349C191.672 116.099 193.653 117.959 193.586 121.179Z" fill="white"/>
<path d="M131.552 144.254C128.195 135.987 124.872 127.687 121.481 119.387C118.024 110.954 114.633 102.521 111.075 94.1549C109.9 91.3662 107.483 89.8059 104.429 89.5734C101.441 89.341 98.9233 90.4366 97.2449 92.9266C95.2309 95.8813 94.3244 99.301 92.9817 102.554C87.9801 114.672 83.1126 126.89 78.1781 139.041C76.8689 142.261 75.5263 145.449 74.1836 148.735H86.7044C88.4165 144.386 90.0612 140.203 91.7062 136.02H115.54C117.218 140.27 118.93 144.552 120.608 148.802H133.364C132.727 147.076 132.156 145.648 131.552 144.254ZM96.1036 125.031C98.5877 118.59 100.971 112.349 103.589 105.576C106.241 112.282 108.725 118.524 111.276 125.031H96.1036Z" fill="white"/>
<path d="M69.2849 99.0217V148.822H57.2003V109.158L55.3842 113.102L54.2732 115.505C51.5339 121.462 48.7948 127.434 46.0556 133.384C45.3473 134.911 44.6391 136.438 43.9274 137.965C42.2423 141.574 40.5471 145.189 38.8552 148.822H30.4297C26.5056 140.359 22.5645 131.87 18.6035 123.324L11.9839 108.869V113.181C11.9671 113.47 11.9839 113.752 11.9839 114.028V148.822H0V145.9C0 130.894 0 115.92 0.0335683 100.914C0.0335683 99.4866 0 98.0257 0.335683 96.6313C1.20846 92.6473 4.49814 89.9249 8.59348 89.5598C12.4203 89.2278 16.1463 91.3193 17.7912 94.9049C19.4092 98.4308 21.0204 101.957 22.6249 105.482C25.0923 110.887 27.5529 116.292 30.0101 121.697C30.8426 123.546 31.6783 125.396 32.5108 127.245C32.7862 127.852 33.0581 128.46 33.3333 129.068C33.3971 129.204 33.4608 129.343 33.5279 129.479L34.6928 132.046L35.9315 129.32C36.294 128.702 36.5626 128.022 36.8345 127.341C36.9787 126.973 37.1299 126.604 37.2943 126.246C38.496 123.656 39.6844 121.063 40.8727 118.467L41.4501 117.205C42.4438 115.031 43.4339 112.853 44.4243 110.675L49.4259 99.689C50.1241 98.1585 50.8257 96.6313 51.5273 95.1041C53.575 90.6554 57.6031 88.7962 62.5376 89.8586C66.4315 90.7218 69.2849 94.5398 69.2849 99.0217Z" fill="white"/>
<path d="M23.5498 78.1194C20.0956 78.0763 17.3397 75.221 17.4034 71.7384C17.4705 68.3652 20.3339 65.6595 23.7915 65.7027C27.2927 65.769 30.0252 68.5811 29.958 72.0637C29.8909 75.4601 27.0275 78.1626 23.5498 78.1194Z" fill="white"/>
<path d="M53.5458 39.581V61.121H20.4441C14.9053 61.121 12.2535 63.7438 12.2199 69.2218V78.0861H0.03125V70.3573C0.03125 67.761 0.199091 65.1714 1.04165 62.6482C3.08932 56.4399 7.28535 52.4227 13.3612 50.1319C15.8117 49.2023 18.3628 49.0032 20.9141 49.0032H38.873C39.2591 49.0032 39.6518 49.0429 40.0749 49.0032H41.4108V48.5151C41.4108 48.5151 41.421 48.5085 41.4243 48.5051C41.4243 45.7163 41.3906 42.7616 41.4243 39.8068C41.4579 38.2132 41.1222 36.7523 40.5179 35.2916C38.7724 31.042 34.7442 28.8509 29.6417 29.4484C25.7143 29.88 22.1896 33.366 21.5518 37.4163C21.4512 38.014 21.3841 38.6116 21.2833 39.2756H9.23231C9.33302 34.3619 10.7429 29.9463 13.7304 26.1285C18.2957 20.2189 24.4723 17.1645 31.9245 17.2641C39.0745 17.3637 44.8818 20.584 49.145 26.2944C52.0688 30.2153 53.5458 34.6342 53.5458 39.581Z" fill="white"/>
<path d="M189.56 25.9291C184.256 18.8907 174.487 15.5708 166.129 17.9612C160.524 19.5747 156.102 22.9777 153.289 27.34C153.158 27.5392 153.034 27.7384 152.91 27.941C152.853 28.0373 152.796 28.1335 152.739 28.2298C149.711 33.4621 148.922 39.9227 151.057 46.2905C151.077 46.3536 151.101 46.4166 151.124 46.4797C151.416 47.2865 151.752 48.0733 152.134 48.8369H71.2315V0H59.2812V61.0212H172.104C175.538 61.0212 178.738 60.1713 181.718 58.6774C181.798 58.6375 181.879 58.5977 181.959 58.5546C182.624 58.2125 183.275 57.8408 183.92 57.4358C184.024 57.3693 184.128 57.3029 184.229 57.2332C187.995 54.7831 190.725 51.3634 192.323 47.5222C192.39 47.3596 192.457 47.197 192.52 47.0343C192.567 46.9147 192.615 46.7952 192.654 46.6757C192.712 46.5362 192.762 46.3935 192.809 46.2473C192.87 46.0747 192.926 45.9022 192.984 45.7294C192.984 45.7228 192.991 45.7161 192.991 45.7062C193.055 45.497 193.117 45.2879 193.178 45.0787C193.36 44.4346 193.51 43.7839 193.635 43.1265C193.676 42.9074 193.712 42.6883 193.746 42.4659C193.806 42.0841 193.853 41.7023 193.89 41.3173C194.421 36.045 193.038 30.5405 189.56 25.9291ZM162.268 38.8771C162.37 33.6979 166.766 29.5478 172.07 29.6142C177.441 29.7139 181.637 34.0299 181.537 39.375C181.437 44.5874 177.039 48.7373 171.701 48.671C166.397 48.6045 162.168 44.2222 162.268 38.8771Z" fill="white"/>
</g>
<defs>
<clipPath id="clip0_1417_82">
<rect width="194" height="150" fill="white"/>
</clipPath>
</defs>
</svg>
