<svg width="195" height="131" viewBox="0 0 195 131" fill="none" xmlns="http://www.w3.org/2000/svg">
<path d="M10.0183 92.8126C11.5596 92.8126 12.8352 92.4145 13.8184 91.6182C14.8016 90.8218 15.3065 89.6539 15.3065 88.1409C15.3065 86.7341 14.9079 85.6192 14.0841 84.7964C13.2603 83.9735 12.0911 83.5488 10.5498 83.5488H10.1512C9.32739 83.5488 8.71619 83.6019 8.31758 83.7346C7.91897 83.8673 7.65323 84.0797 7.49378 84.3717C7.33434 84.6902 7.25462 85.168 7.25462 85.8316V92.7861H9.99174L10.0183 92.8126ZM3.32166 103.138C3.77342 102.979 4.06574 102.634 4.27833 102.13C4.46435 101.599 4.57064 100.802 4.57064 99.7406V87.0526C4.57064 85.9908 4.46435 85.2211 4.27833 84.7167C4.09231 84.2124 3.77342 83.8939 3.32166 83.7346C2.86991 83.5754 2.23213 83.4957 1.32861 83.4957V82.9648H10.6561C13.1009 82.9648 14.9611 83.4161 16.2632 84.3717C17.5653 85.3007 18.2031 86.5748 18.2031 88.1674C18.2031 89.4946 17.6982 90.6095 16.6884 91.512C15.6786 92.4145 14.3233 93.025 12.6226 93.317L16.2366 98.1214C17.3527 99.5813 18.2297 100.67 18.8675 101.413C19.5318 102.156 20.143 102.66 20.7011 102.979C21.2591 103.297 21.8703 103.457 22.5347 103.457V103.988H17.3527L9.59313 93.5559H7.28119V99.6344C7.28119 100.776 7.38749 101.599 7.57351 102.13C7.75952 102.66 8.07841 103.005 8.5036 103.165C8.92878 103.324 9.59313 103.43 10.4701 103.43V103.961H1.35519V103.43C2.23213 103.43 2.89648 103.351 3.34824 103.191" fill="white"/>
<path d="M38.5851 104.571C38.5851 104.279 38.4788 104.12 38.2928 104.014C38.0802 103.934 37.7613 103.881 37.3095 103.881H23.8896V103.35C24.7666 103.35 25.4309 103.271 25.8561 103.112C26.3079 102.952 26.6268 102.607 26.8128 102.103C26.9988 101.599 27.1051 100.802 27.1051 99.714V87.0525C27.1051 85.9642 26.9988 85.1679 26.8128 84.6636C26.6268 84.1592 26.3079 83.8142 25.8561 83.6549C25.4309 83.4956 24.7666 83.416 23.8896 83.416V82.8851H36.6718C37.1235 82.8851 37.4424 82.832 37.6284 82.7259C37.841 82.6197 37.9207 82.4604 37.9207 82.195C37.9207 82.0092 37.9207 81.8765 37.8676 81.7437L38.3991 81.5845L40.0998 87.9285L39.5417 88.1143C39.0634 86.8667 38.6117 85.9377 38.1599 85.3272C37.7347 84.7167 37.1767 84.2654 36.4592 83.9734C35.7682 83.6814 34.785 83.5487 33.5892 83.5487H32.7654C31.8619 83.5487 31.2241 83.6018 30.8255 83.708C30.4269 83.8142 30.1611 84.0265 30.0282 84.345C29.8954 84.6636 29.8157 85.1944 29.8157 85.9377V92.6002H31.8353C32.7919 92.6002 33.5094 92.494 33.9878 92.2551C34.4661 92.0162 34.7584 91.6977 34.9179 91.2464C35.0773 90.7952 35.1305 90.1316 35.1305 89.2822H35.6885V96.5818H35.1305C35.1305 95.7058 35.0507 95.0422 34.8913 94.591C34.7318 94.1397 34.413 93.8212 33.9612 93.6089C33.5094 93.3965 32.7919 93.2903 31.8619 93.2903H29.8157V100.855C29.8157 101.572 29.8954 102.103 30.0282 102.421C30.1611 102.74 30.4269 102.979 30.8255 103.085C31.2241 103.191 31.8353 103.244 32.7122 103.244H34.3598C35.6088 103.244 36.592 103.085 37.3095 102.766C38.027 102.448 38.6117 101.944 39.0634 101.227C39.5152 100.51 39.9669 99.4751 40.3921 98.0948L40.9502 98.2806L39.0634 105.182L38.5319 105.023C38.5319 105.023 38.5851 104.757 38.5851 104.571Z" fill="white"/>
<path d="M43.7937 97.0593L44.458 96.9C45.521 101.412 47.7532 103.642 51.1812 103.642C52.2708 103.642 53.2009 103.456 53.9981 103.058C54.7953 102.66 55.4065 102.156 55.8051 101.492C56.2037 100.855 56.4163 100.138 56.4163 99.3686C56.4163 98.4927 56.1772 97.7494 55.7254 97.1389C55.2736 96.5284 54.6359 96.0241 53.8121 95.5994C52.9883 95.1747 51.8722 94.6969 50.4637 94.1926C49.0287 93.6617 47.8595 93.1574 46.9294 92.653C45.9993 92.1487 45.2552 91.5116 44.6972 90.7419C44.1391 89.9721 43.8468 89.043 43.8468 87.9282C43.8468 86.8134 44.1657 85.9109 44.7769 85.0615C45.3881 84.2121 46.2385 83.5219 47.2749 83.0441C48.3112 82.5663 49.4274 82.3009 50.6498 82.3009C51.8722 82.3009 52.9617 82.4867 54.131 82.8318C54.2107 82.8318 54.3701 82.8849 54.6359 82.9645C54.875 83.0441 55.0876 83.0707 55.2736 83.0707C55.5128 83.0707 55.6988 82.9645 55.8583 82.7256C55.9911 82.4867 56.0443 82.1947 56.0443 81.8496L56.6023 81.77L58.1702 88.6183L57.5324 88.7511C57.0009 86.9461 56.124 85.5392 54.9548 84.5306C53.7855 83.5219 52.3771 83.0176 50.7561 83.0176C49.3211 83.0176 48.2581 83.3626 47.4875 84.0528C46.7434 84.7429 46.3713 85.6189 46.3713 86.6541C46.3713 87.7689 46.7965 88.698 47.6469 89.4412C48.4973 90.1844 49.9323 90.8746 51.9519 91.5382C54.3435 92.3079 56.0709 93.237 57.187 94.2987C58.3031 95.3605 58.8611 96.6611 58.8611 98.1741C58.8611 99.3686 58.5157 100.457 57.8513 101.386C57.187 102.315 56.2569 103.085 55.061 103.616C53.8918 104.147 52.5897 104.412 51.1547 104.412C50.2777 104.412 49.5337 104.332 48.9224 104.173C48.3112 104.014 47.6735 103.801 47.0091 103.509C46.4245 103.271 45.9993 103.138 45.7336 103.138C45.1755 103.138 44.8832 103.509 44.8301 104.279L44.272 104.332L43.7671 97.0328L43.7937 97.0593Z" fill="white"/>
<path d="M62.6351 103.085C63.0869 102.926 63.3792 102.581 63.5918 102.077C63.7778 101.572 63.8841 100.776 63.8841 99.6877V87.0263C63.8841 85.938 63.7778 85.1417 63.5918 84.6373C63.4058 84.133 63.0869 83.7879 62.6351 83.6287C62.1834 83.4694 61.5456 83.3898 60.6421 83.3898V82.8589H69.7836V83.3898C68.9332 83.3898 68.2954 83.4694 67.8702 83.6287C67.445 83.7879 67.0996 84.133 66.9136 84.6373C66.701 85.1417 66.6212 85.938 66.6212 87.0263V99.6612C66.6212 100.749 66.7275 101.546 66.9136 102.05C67.0996 102.581 67.4185 102.9 67.8436 103.059C68.2688 103.218 68.9332 103.298 69.8101 103.298V103.829H60.6687V103.298C61.5456 103.298 62.21 103.218 62.6617 103.059" fill="white"/>
<path d="M78.8981 102.183C79.1107 102.581 79.4296 102.873 79.8813 103.006C80.3331 103.138 80.9443 103.218 81.7681 103.218H82.8576C84.5052 103.218 85.9668 102.82 87.2157 101.997C88.4647 101.174 89.4214 100.006 90.1123 98.4931C90.7767 96.9801 91.1221 95.2016 91.1221 93.1843C91.1221 91.167 90.7501 89.5212 90.0326 88.0879C89.2885 86.6545 88.2256 85.5396 86.8171 84.7433C85.4087 83.947 83.708 83.5489 81.7149 83.5489C80.5722 83.5489 79.775 83.7081 79.2967 84.0001C78.8184 84.2921 78.5792 84.9291 78.5792 85.8847V100.404C78.5792 101.174 78.6855 101.785 78.8981 102.183ZM74.6462 103.085C75.0714 102.926 75.3637 102.581 75.5498 102.076C75.7358 101.546 75.8421 100.749 75.8421 99.6345V86.9996C75.8421 85.9113 75.7358 85.1149 75.5498 84.6372C75.3637 84.1328 75.0448 83.8143 74.6462 83.655C74.2211 83.4958 73.5833 83.4161 72.7329 83.4161V82.8853H81.7681C84.3192 82.8853 86.5514 83.2834 88.4116 84.1063C90.2718 84.9291 91.6802 86.0971 92.6634 87.6101C93.6467 89.1496 94.125 90.9546 94.125 93.0516C94.125 95.3609 93.6467 97.2986 92.69 98.9178C91.7333 100.537 90.3515 101.758 88.571 102.607C86.7906 103.457 84.6646 103.881 82.2198 103.881H72.7329V103.351C73.5833 103.351 74.2476 103.271 74.6462 103.112" fill="white"/>
<path d="M109.724 104.571C109.724 104.279 109.618 104.12 109.432 104.014C109.219 103.934 108.9 103.881 108.449 103.881H95.0288V103.35C95.9058 103.35 96.5701 103.271 96.9953 103.112C97.447 102.952 97.7659 102.607 97.952 102.103C98.138 101.599 98.2443 100.802 98.2443 99.714V87.0525C98.2443 85.9642 98.138 85.1679 97.952 84.6636C97.7659 84.1592 97.447 83.8142 96.9953 83.6549C96.5701 83.4956 95.9058 83.416 95.0288 83.416V82.8851H107.811C108.263 82.8851 108.582 82.832 108.768 82.7259C108.98 82.6197 109.06 82.4604 109.06 82.195C109.06 82.0092 109.06 81.8765 109.007 81.7437L109.538 81.5845L111.239 87.9285L110.681 88.1143C110.203 86.8667 109.751 85.9377 109.299 85.3272C108.874 84.7167 108.316 84.2654 107.598 83.9734C106.907 83.6814 105.924 83.5487 104.728 83.5487H103.905C103.001 83.5487 102.363 83.6018 101.965 83.708C101.566 83.8142 101.3 84.0265 101.167 84.345C101.035 84.6636 100.955 85.1944 100.955 85.9377V92.6002H102.974C103.931 92.6002 104.649 92.494 105.127 92.2551C105.605 92.0162 105.898 91.6977 106.057 91.2464C106.216 90.7952 106.27 90.1316 106.27 89.2822H106.828V96.5818H106.27C106.27 95.7058 106.19 95.0422 106.03 94.591C105.871 94.1397 105.552 93.8212 105.1 93.6089C104.649 93.3965 103.931 93.2903 103.001 93.2903H100.955V100.855C100.955 101.572 101.035 102.103 101.167 102.421C101.3 102.74 101.566 102.979 101.965 103.085C102.363 103.191 102.974 103.244 103.851 103.244H105.499C106.748 103.244 107.731 103.085 108.449 102.766C109.166 102.448 109.751 101.944 110.203 101.227C110.654 100.51 111.106 99.4751 111.531 98.0948L112.089 98.2806L110.203 105.182L109.671 105.023C109.671 105.023 109.724 104.757 109.724 104.571Z" fill="white"/>
<path d="M116.235 102.528C116.74 101.997 117.005 101.094 117.005 99.8201V85.9111C117.005 84.982 116.766 84.3184 116.288 83.9734C115.81 83.6018 115.039 83.4425 113.923 83.4425V82.9116H119.211L133.056 99.3157V86.9728C133.056 85.6456 132.737 84.7431 132.126 84.2123C131.515 83.6814 130.532 83.4425 129.176 83.4425V82.9116H136.59V83.4425C135.607 83.4425 134.89 83.7079 134.438 84.2123C133.986 84.7431 133.747 85.6456 133.747 86.9463V104.094H133.428L117.723 85.6191V99.8466C117.723 101.147 118.015 102.05 118.573 102.581C119.131 103.112 120.088 103.35 121.443 103.35V103.881H113.923V103.35C114.933 103.35 115.677 103.085 116.182 102.528" fill="white"/>
<path d="M143.208 103.058C141.587 102.156 140.311 100.882 139.328 99.2096C138.345 97.5639 137.866 95.6262 137.866 93.4496C137.866 91.273 138.371 89.3618 139.407 87.663C140.444 85.9642 141.773 84.637 143.473 83.708C145.147 82.7789 146.981 82.3012 148.921 82.3012C149.931 82.3012 151.073 82.4339 152.269 82.6993C152.96 82.832 153.385 82.8851 153.598 82.8851C154.316 82.8851 154.688 82.6462 154.688 82.1684C154.688 81.9826 154.688 81.8499 154.634 81.7172L155.166 81.5845L156.946 88.4062L156.362 88.5921C155.697 86.6809 154.714 85.2741 153.412 84.3716C152.11 83.4425 150.595 82.9913 148.868 82.9913C147.327 82.9913 145.971 83.4425 144.775 84.3185C143.58 85.1944 142.65 86.4155 141.985 87.9815C141.321 89.5476 141.002 91.2995 141.002 93.2638C141.002 95.228 141.401 97.0065 142.198 98.5195C142.995 100.032 144.058 101.174 145.387 101.97C146.715 102.766 148.124 103.165 149.665 103.165C151.206 103.165 152.562 102.793 153.89 102.076C155.219 101.36 156.282 100.271 157.053 98.8115L157.531 99.13C156.574 100.855 155.299 102.183 153.731 103.058C152.136 103.934 150.409 104.386 148.496 104.386C146.582 104.386 144.829 103.934 143.234 103.032" fill="white"/>
<path d="M173.901 104.571C173.901 104.279 173.794 104.12 173.608 104.014C173.396 103.934 173.077 103.881 172.625 103.881H159.205V103.35C160.082 103.35 160.746 103.271 161.172 103.112C161.623 102.952 161.942 102.607 162.128 102.103C162.314 101.599 162.421 100.802 162.421 99.714V87.0525C162.421 85.9642 162.314 85.1679 162.128 84.6636C161.942 84.1592 161.623 83.8142 161.172 83.6549C160.746 83.4956 160.082 83.416 159.205 83.416V82.8851H171.987C172.439 82.8851 172.758 82.832 172.944 82.7259C173.156 82.6197 173.236 82.4604 173.236 82.195C173.236 82.0092 173.236 81.8765 173.183 81.7437L173.714 81.5845L175.415 87.9285L174.857 88.1143C174.379 86.8667 173.927 85.9377 173.475 85.3272C173.05 84.7167 172.492 84.2654 171.775 83.9734C171.084 83.6814 170.1 83.5487 168.905 83.5487H168.081C167.177 83.5487 166.54 83.6018 166.141 83.708C165.742 83.8142 165.477 84.0265 165.344 84.345C165.211 84.6636 165.131 85.1944 165.131 85.9377V92.6002H167.151C168.107 92.6002 168.825 92.494 169.303 92.2551C169.782 92.0162 170.074 91.6977 170.233 91.2464C170.393 90.7952 170.446 90.1316 170.446 89.2822H171.004V96.5818H170.446C170.446 95.7058 170.366 95.0422 170.207 94.591C170.047 94.1397 169.728 93.8212 169.277 93.6089C168.825 93.3965 168.107 93.2903 167.177 93.2903H165.131V100.855C165.131 101.572 165.211 102.103 165.344 102.421C165.477 102.74 165.742 102.979 166.141 103.085C166.54 103.191 167.151 103.244 168.028 103.244H169.675C170.924 103.244 171.907 103.085 172.625 102.766C173.342 102.448 173.927 101.944 174.379 101.227C174.831 100.51 175.282 99.4751 175.708 98.0948L176.266 98.2806L174.379 105.182L173.847 105.023C173.847 105.023 173.901 104.757 173.901 104.571Z" fill="white"/>
<path d="M179.109 97.0593L179.773 96.9C180.836 101.412 183.068 103.642 186.496 103.642C187.586 103.642 188.516 103.456 189.313 103.058C190.11 102.66 190.721 102.156 191.12 101.492C191.519 100.855 191.731 100.138 191.731 99.3686C191.731 98.4927 191.492 97.7494 191.04 97.1389C190.589 96.5284 189.951 96.0241 189.127 95.5994C188.303 95.1747 187.187 94.6969 185.779 94.1926C184.344 93.6617 183.174 93.1574 182.244 92.653C181.314 92.1487 180.57 91.5116 180.012 90.7419C179.454 89.9721 179.162 89.043 179.162 87.9282C179.162 86.8134 179.481 85.9109 180.092 85.0615C180.703 84.2121 181.553 83.5219 182.59 83.0441C183.626 82.5663 184.742 82.3009 185.965 82.3009C187.187 82.3009 188.277 82.4867 189.446 82.8318C189.526 82.8318 189.685 82.8849 189.951 82.9645C190.19 83.0441 190.403 83.0707 190.589 83.0707C190.828 83.0707 191.014 82.9645 191.173 82.7256C191.306 82.4867 191.359 82.1947 191.359 81.8496L191.917 81.77L193.485 88.6183L192.847 88.7511C192.316 86.9461 191.439 85.5392 190.27 84.5306C189.1 83.5219 187.692 83.0176 186.071 83.0176C184.636 83.0176 183.573 83.3626 182.802 84.0528C182.058 84.7429 181.686 85.6189 181.686 86.6541C181.686 87.7689 182.111 88.698 182.962 89.4412C183.812 90.1844 185.247 90.8746 187.267 91.5382C189.658 92.3079 191.386 93.237 192.502 94.2987C193.618 95.3605 194.176 96.6611 194.176 98.1741C194.176 99.3686 193.831 100.457 193.166 101.386C192.502 102.315 191.572 103.085 190.376 103.616C189.207 104.147 187.905 104.412 186.47 104.412C185.593 104.412 184.849 104.332 184.237 104.173C183.626 104.014 182.988 103.801 182.324 103.509C181.739 103.271 181.314 103.138 181.049 103.138C180.49 103.138 180.198 103.509 180.145 104.279L179.587 104.332L179.082 97.0328L179.109 97.0593Z" fill="white"/>
<path d="M8.53026 121.851L6.08545 115.508L3.64064 121.851H8.55683H8.53026ZM9.32748 126.178C9.59322 126.019 9.72609 125.78 9.72609 125.408C9.72609 125.116 9.61979 124.692 9.4072 124.134L8.6897 122.25H3.4812L2.84342 123.922C2.6574 124.4 2.57768 124.771 2.57768 125.09C2.57768 125.966 3.24203 126.39 4.54416 126.39V126.736H0V126.39C0.558054 126.39 1.00981 126.178 1.3287 125.78C1.67416 125.382 2.01962 124.692 2.39166 123.736L5.79313 114.924L5.36795 113.835V113.703C6.00573 113.411 6.45748 113.065 6.77637 112.694H6.90924L11.294 124.081C11.5331 124.718 11.7457 125.196 11.9317 125.515C12.1177 125.833 12.3038 126.072 12.5429 126.205C12.7555 126.337 13.0478 126.417 13.3933 126.417V126.762H8.02535V126.417C8.58341 126.417 9.00859 126.337 9.27433 126.178" fill="white"/>
<path d="M17.2199 126.258C17.4857 126.151 17.6717 125.966 17.8045 125.647C17.9108 125.329 17.9906 124.851 17.9906 124.214V115.242C17.9906 114.711 17.8843 114.366 17.6983 114.154C17.5122 113.941 17.1668 113.835 16.715 113.835H16.1038C15.5723 113.835 15.1206 113.968 14.7485 114.233C14.3765 114.499 14.0576 114.87 13.7653 115.375C13.4996 115.852 13.1541 116.543 12.8086 117.418L12.4897 117.312L13.5527 112.747L13.845 112.826C13.845 112.826 13.8184 113.039 13.8184 113.092C13.8184 113.251 13.8716 113.357 14.0045 113.41C14.1373 113.463 14.3499 113.49 14.6422 113.49H23.0928C23.3851 113.49 23.5977 113.49 23.7306 113.41C23.8634 113.357 23.9166 113.251 23.9166 113.092C23.9166 112.986 23.9166 112.879 23.89 112.8L24.1823 112.72L25.2718 117.286L24.953 117.392C24.5809 116.516 24.2355 115.826 23.9697 115.348C23.704 114.87 23.3851 114.499 23.0131 114.233C22.641 113.968 22.1893 113.835 21.6578 113.835H21.0466C20.5682 113.835 20.2228 113.941 20.0368 114.154C19.8507 114.366 19.7445 114.738 19.7445 115.242V124.214C19.7445 124.877 19.7976 125.355 19.9305 125.647C20.0368 125.939 20.2228 126.151 20.5151 126.258C20.7808 126.364 21.206 126.417 21.7907 126.417V126.762H15.9975V126.417C16.5556 126.417 16.9808 126.364 17.2731 126.258" fill="white"/>
<path d="M36.6456 120.842C37.2302 120.842 37.7883 120.71 38.3197 120.391C38.8246 120.099 39.2498 119.675 39.5687 119.144C39.8876 118.613 40.047 117.976 40.047 117.259C40.047 116.065 39.7016 115.189 39.0372 114.658C38.3729 114.127 37.5225 113.861 36.5393 113.861C36.1407 113.861 35.8484 113.888 35.6358 113.968C35.4232 114.047 35.2903 114.18 35.2106 114.392C35.1309 114.605 35.0777 114.897 35.0777 115.321V120.657C35.5295 120.763 36.0609 120.816 36.619 120.816M32.5798 126.231C32.8455 126.125 33.0581 125.912 33.1644 125.594C33.2972 125.275 33.3504 124.744 33.3504 124.054V116.091C33.3504 115.401 33.2972 114.897 33.1644 114.552C33.0581 114.233 32.8455 114.021 32.5798 113.914C32.314 113.808 31.8888 113.755 31.3042 113.755V113.41H36.8316C38.426 113.41 39.6484 113.755 40.552 114.419C41.4289 115.082 41.8807 116.038 41.8807 117.259C41.8807 118.108 41.6415 118.825 41.1897 119.409C40.738 120.02 40.1002 120.444 39.3296 120.763C38.5323 121.081 37.682 121.214 36.7253 121.214C36.1938 121.214 35.6358 121.161 35.1043 121.081V123.975C35.1043 124.691 35.1574 125.222 35.2903 125.541C35.4232 125.859 35.6358 126.098 35.9547 126.204C36.2735 126.31 36.7519 126.364 37.4162 126.364V126.709H31.3573V126.364C31.9154 126.364 32.3406 126.31 32.6063 126.204" fill="white"/>
<path d="M49.0823 121.851L46.6375 115.508L44.1927 121.851H49.1089H49.0823ZM49.8795 126.178C50.1453 126.019 50.2781 125.78 50.2781 125.408C50.2781 125.116 50.1718 124.692 49.9592 124.134L49.2417 122.25H44.0332L43.3955 123.922C43.2094 124.4 43.1297 124.771 43.1297 125.09C43.1297 125.966 43.7941 126.39 45.0962 126.39V126.736H40.5786V126.39C41.1367 126.39 41.5884 126.178 41.9073 125.78C42.2528 125.382 42.5982 124.692 42.9703 123.736L46.3717 114.924L45.9466 113.835V113.703C46.5843 113.411 47.0361 113.065 47.355 112.694H47.4879L51.8726 124.081C52.1117 124.718 52.3243 125.196 52.5103 125.515C52.6964 125.833 52.8824 126.072 53.1215 126.205C53.3341 126.337 53.6264 126.417 53.9719 126.417V126.762H48.604V126.417C49.162 126.417 49.5872 126.337 49.8529 126.178" fill="white"/>
<path d="M64.1761 127.186C64.1761 127.027 64.0964 126.921 63.9635 126.841C63.8306 126.788 63.6181 126.735 63.3257 126.735H54.8752V126.39C55.4067 126.39 55.8319 126.337 56.0976 126.231C56.3899 126.125 56.5759 125.912 56.7088 125.594C56.8417 125.275 56.8948 124.771 56.8948 124.081V116.065C56.8948 115.374 56.8417 114.87 56.7088 114.552C56.5759 114.233 56.3899 114.021 56.0976 113.914C55.8319 113.808 55.4067 113.755 54.8486 113.755V113.41H60.9075V113.755C60.2432 113.755 59.7383 113.808 59.4459 113.914C59.1271 114.021 58.9145 114.233 58.8082 114.552C58.7019 114.87 58.6221 115.374 58.6221 116.065V124.797C58.6221 125.249 58.6753 125.567 58.7816 125.78C58.8879 125.992 59.0739 126.125 59.3396 126.204C59.6054 126.284 60.0306 126.31 60.5886 126.31H61.2264C62.1299 126.31 62.8208 126.178 63.3257 125.939C63.8307 125.7 64.2027 125.302 64.495 124.797C64.7873 124.293 65.0796 123.497 65.4251 122.462L65.7706 122.568L64.4153 127.558L64.0964 127.452C64.0964 127.452 64.123 127.293 64.123 127.16" fill="white"/>
<path d="M68.2156 125.913C68.5079 125.568 68.6673 124.984 68.6673 124.134V115.401C68.6673 114.764 68.5079 114.34 68.2156 114.101C67.9232 113.888 67.4449 113.782 66.8071 113.782V113.437H70.182L75.4171 123.577L80.3864 113.437H83.9739V113.782C83.4425 113.782 83.0704 113.835 82.8047 113.941C82.5389 114.048 82.3529 114.26 82.2466 114.605C82.1138 114.923 82.0606 115.454 82.0606 116.171V124.134C82.0606 124.824 82.1138 125.329 82.2466 125.647C82.3529 125.966 82.5389 126.178 82.8047 126.258C83.0704 126.364 83.469 126.39 84.0005 126.39V126.736H78.42V126.39C78.9515 126.39 79.3766 126.337 79.6158 126.258C79.8815 126.152 80.0676 125.966 80.1739 125.621C80.3067 125.302 80.3599 124.771 80.3599 124.081V114.711L74.8325 126.019H74.6199L69.1722 115.136V124.081C69.1722 124.931 69.3051 125.541 69.5974 125.886C69.8897 126.231 70.368 126.39 71.0058 126.39V126.736H66.8337V126.39C67.4715 126.39 67.9232 126.231 68.2421 125.886" fill="white"/>
<path d="M89.0228 130.664C88.7039 130.478 88.5444 130.213 88.5444 129.894C88.5444 129.682 88.6242 129.523 88.757 129.363C88.8899 129.204 89.0759 129.151 89.3151 129.151C89.4745 129.151 89.634 129.204 89.7403 129.284C89.8731 129.363 90.006 129.523 90.192 129.708C90.4046 129.947 90.5906 130.107 90.7501 130.239C90.9361 130.345 91.1221 130.425 91.3879 130.425C91.8396 130.425 92.1585 130.186 92.3977 129.708C92.6103 129.231 92.7166 128.408 92.7166 127.213V116.091C92.7166 115.401 92.6634 114.897 92.5305 114.578C92.3977 114.26 92.1851 114.048 91.8662 113.941C91.5473 113.835 91.069 113.782 90.4046 113.782V113.437H96.4635V113.782C95.9054 113.782 95.4803 113.835 95.2145 113.941C94.9488 114.048 94.7362 114.26 94.6299 114.578C94.5236 114.897 94.4439 115.401 94.4439 116.091V126.523C94.4439 127.957 94.0984 129.045 93.4075 129.815C92.7166 130.584 91.7333 130.956 90.4843 130.956C89.8466 130.956 89.3417 130.85 89.0228 130.664Z" fill="white"/>
<path d="M100.662 125.806C99.8386 124.957 99.4134 123.63 99.4134 121.825V116.091C99.4134 115.401 99.3602 114.897 99.2274 114.578C99.1211 114.26 98.9085 114.048 98.6162 113.941C98.3504 113.835 97.9252 113.782 97.3672 113.782V113.437H103.16V113.782C102.602 113.782 102.204 113.835 101.938 113.941C101.672 114.048 101.46 114.26 101.327 114.578C101.194 114.897 101.114 115.401 101.114 116.091V121.613C101.114 123.152 101.433 124.32 102.097 125.09C102.735 125.886 103.665 126.284 104.861 126.284C106.243 126.284 107.306 125.86 107.97 125.01C108.661 124.161 109.007 122.834 109.007 121.055V116.091C109.007 115.242 108.821 114.631 108.475 114.286C108.13 113.941 107.545 113.782 106.721 113.782V113.437H111.372V113.782C110.734 113.782 110.256 113.968 109.963 114.313C109.644 114.658 109.512 115.269 109.512 116.091V121.082C109.512 123.072 109.113 124.585 108.289 125.594C107.465 126.603 106.216 127.107 104.489 127.107C102.762 127.107 101.513 126.682 100.689 125.806" fill="white"/>
<path d="M113.71 125.913C114.003 125.568 114.162 124.984 114.162 124.134V115.401C114.162 114.764 114.003 114.34 113.71 114.101C113.418 113.888 112.94 113.782 112.302 113.782V113.437H115.677L120.912 123.577L125.881 113.437H129.469V113.782C128.937 113.782 128.565 113.835 128.299 113.941C128.034 114.048 127.848 114.26 127.741 114.605C127.608 114.923 127.555 115.454 127.555 116.171V124.134C127.555 124.824 127.608 125.329 127.741 125.647C127.848 125.966 128.034 126.178 128.299 126.258C128.565 126.364 128.964 126.39 129.495 126.39V126.736H123.915V126.39C124.446 126.39 124.871 126.337 125.11 126.258C125.376 126.152 125.562 125.966 125.668 125.621C125.801 125.302 125.855 124.771 125.855 124.081V114.711L120.327 126.019H120.115L114.667 115.136V124.081C114.667 124.931 114.8 125.541 115.092 125.886C115.384 126.231 115.863 126.39 116.5 126.39V126.736H112.328V126.39C112.966 126.39 113.418 126.231 113.737 125.886" fill="white"/>
<path d="M140.656 127.187C140.656 127.001 140.603 126.895 140.47 126.842C140.337 126.789 140.125 126.762 139.832 126.762H131.329V126.417C131.887 126.417 132.312 126.364 132.578 126.258C132.843 126.152 133.056 125.939 133.162 125.621C133.295 125.302 133.348 124.798 133.348 124.108V116.092C133.348 115.402 133.295 114.897 133.162 114.579C133.056 114.26 132.843 114.048 132.578 113.942C132.285 113.835 131.887 113.782 131.329 113.782V113.437H139.434C139.699 113.437 139.912 113.411 140.045 113.331C140.178 113.278 140.231 113.145 140.231 112.986C140.231 112.88 140.231 112.774 140.204 112.694L140.55 112.588L141.639 116.623L141.267 116.729C140.975 115.932 140.683 115.348 140.39 114.95C140.125 114.552 139.753 114.26 139.327 114.074C138.876 113.889 138.264 113.809 137.494 113.809H136.989C136.431 113.809 136.006 113.835 135.766 113.915C135.501 113.995 135.341 114.127 135.262 114.313C135.182 114.526 135.129 114.844 135.129 115.322V119.542H136.404C137.015 119.542 137.467 119.463 137.76 119.33C138.052 119.197 138.264 118.958 138.344 118.693C138.45 118.401 138.477 118.003 138.477 117.445H138.849V122.064H138.477C138.477 121.507 138.424 121.082 138.318 120.79C138.211 120.498 138.025 120.286 137.733 120.153C137.441 120.02 136.989 119.941 136.404 119.941H135.102V124.718C135.102 125.17 135.155 125.515 135.235 125.727C135.315 125.939 135.501 126.072 135.74 126.152C135.979 126.231 136.378 126.258 136.936 126.258H137.972C138.743 126.258 139.381 126.152 139.832 125.966C140.284 125.78 140.656 125.435 140.948 125.01C141.241 124.559 141.506 123.896 141.799 123.02L142.171 123.126L140.975 127.506L140.63 127.399C140.63 127.399 140.656 127.24 140.656 127.107" fill="white"/>
<path d="M144.589 126.258C144.855 126.152 145.068 125.939 145.174 125.621C145.307 125.302 145.36 124.798 145.36 124.108V116.091C145.36 115.401 145.307 114.897 145.174 114.578C145.068 114.26 144.855 114.048 144.589 113.941C144.297 113.835 143.898 113.782 143.34 113.782V113.437H149.133V113.782C148.602 113.782 148.203 113.835 147.911 113.941C147.645 114.048 147.433 114.26 147.3 114.578C147.167 114.897 147.114 115.401 147.114 116.091V124.081C147.114 124.771 147.167 125.276 147.3 125.594C147.433 125.913 147.619 126.125 147.884 126.231C148.15 126.337 148.575 126.39 149.133 126.39V126.736H143.34V126.39C143.898 126.39 144.324 126.337 144.589 126.231" fill="white"/>
<path d="M156.468 119.754C157.451 119.754 158.248 119.489 158.886 118.985C159.524 118.48 159.816 117.737 159.816 116.781C159.816 115.905 159.55 115.189 159.045 114.658C158.54 114.127 157.796 113.862 156.813 113.862H156.574C156.042 113.862 155.67 113.888 155.405 113.968C155.139 114.047 154.979 114.18 154.873 114.366C154.767 114.552 154.74 114.87 154.74 115.295V119.701H156.468V119.754ZM152.216 126.284C152.482 126.178 152.694 125.966 152.8 125.647C152.933 125.328 152.986 124.798 152.986 124.134V116.091C152.986 115.428 152.933 114.923 152.8 114.605C152.694 114.286 152.482 114.074 152.216 113.968C151.923 113.862 151.525 113.808 150.967 113.808V113.463H156.893C158.434 113.463 159.63 113.755 160.427 114.339C161.251 114.923 161.65 115.72 161.65 116.755C161.65 117.604 161.331 118.294 160.693 118.878C160.055 119.462 159.205 119.834 158.115 120.02L160.401 123.046C161.091 123.975 161.65 124.665 162.075 125.116C162.5 125.567 162.872 125.912 163.244 126.098C163.589 126.284 163.988 126.39 164.413 126.39V126.735H161.118L156.202 120.126H154.74V123.975C154.74 124.691 154.793 125.222 154.926 125.567C155.059 125.912 155.245 126.125 155.511 126.231C155.777 126.337 156.202 126.39 156.76 126.39V126.735H150.967V126.39C151.525 126.39 151.95 126.337 152.216 126.231" fill="white"/>
<path d="M173.502 121.851L171.057 115.508L168.612 121.851H173.528H173.502ZM174.299 126.178C174.565 126.019 174.698 125.78 174.698 125.408C174.698 125.116 174.591 124.692 174.379 124.134L173.661 122.25H168.453L167.815 123.922C167.629 124.4 167.549 124.771 167.549 125.09C167.549 125.966 168.214 126.39 169.516 126.39V126.736H164.998V126.39C165.556 126.39 166.008 126.178 166.327 125.78C166.672 125.382 167.018 124.692 167.39 123.736L170.791 114.924L170.366 113.835V113.703C171.004 113.411 171.456 113.065 171.774 112.694H171.907L176.292 124.081C176.531 124.718 176.744 125.196 176.93 125.515C177.116 125.833 177.302 126.072 177.541 126.205C177.754 126.337 178.046 126.417 178.391 126.417V126.762H173.023V126.417C173.581 126.417 174.007 126.337 174.272 126.178" fill="white"/>
<path d="M189.473 126.257C189.738 126.151 189.951 125.939 190.057 125.62C190.19 125.302 190.243 124.797 190.243 124.107V120.02H183.095V124.054C183.095 124.744 183.148 125.275 183.281 125.594C183.387 125.912 183.6 126.125 183.865 126.231C184.131 126.337 184.556 126.39 185.114 126.39V126.735H179.321V126.39C179.879 126.39 180.305 126.337 180.57 126.231C180.836 126.125 181.049 125.912 181.181 125.594C181.288 125.275 181.367 124.771 181.367 124.081V116.065C181.367 115.374 181.314 114.87 181.181 114.552C181.049 114.233 180.863 114.021 180.57 113.914C180.278 113.808 179.879 113.755 179.321 113.755V113.41H185.114V113.755C184.583 113.755 184.184 113.808 183.892 113.914C183.6 114.021 183.414 114.233 183.281 114.552C183.148 114.87 183.095 115.374 183.095 116.065V119.568H190.243V116.065C190.243 115.374 190.19 114.87 190.057 114.552C189.924 114.233 189.738 114.021 189.473 113.914C189.207 113.808 188.782 113.755 188.224 113.755V113.41H194.017V113.755C193.485 113.755 193.06 113.808 192.794 113.914C192.529 114.021 192.316 114.233 192.183 114.552C192.05 114.87 191.997 115.374 191.997 116.065V124.054C191.997 124.744 192.05 125.275 192.183 125.594C192.316 125.912 192.502 126.125 192.768 126.231C193.033 126.337 193.459 126.39 194.017 126.39V126.735H188.224V126.39C188.782 126.39 189.207 126.337 189.473 126.231" fill="white"/>
<mask id="mask0_207_851" style="mask-type:alpha" maskUnits="userSpaceOnUse" x="0" y="0" width="195" height="69">
<path d="M174.272 28.0454C162.819 24.17 159.657 21.3829 159.657 15.1716C159.657 8.96031 164.121 5.19108 171.057 5.19108C179.189 5.19108 187.905 10.261 190.669 20.268H191.519V6.25284C186.204 2.61632 179.003 0.545898 171.721 0.545898C165.264 0.545898 159.79 2.35088 155.963 5.77505C152.216 9.11958 150.223 13.7648 150.223 19.2063C150.223 30.4609 157.478 35.106 170.021 39.3C181.58 43.2019 185.088 46.2014 185.088 52.0941C185.088 59.2079 180.278 63.2957 171.907 63.2957C163.536 63.2957 153.598 57.6949 150.435 46.6261H149.559L150.303 61.7827C154.156 64.8352 161.65 68.047 171.243 68.047C177.86 68.047 183.812 66.3217 188.011 63.1895C192.582 59.7653 195 54.8016 195 48.8027C195 37.2296 187.4 32.4251 174.272 28.0454ZM127.21 46.6261H126.2C123.383 57.1906 114.853 62.5524 107.2 62.5524H102.682C96.8357 62.5524 93.6468 61.4907 93.6468 55.8899V12.4376C93.6468 6.91643 96.3839 2.64287 102.496 2.35088V1.50148H73.1583V2.35088C79.4829 2.66941 82.1137 6.88989 82.1137 12.4376V56.0492C82.1137 61.7561 79.35 66.0297 73.1583 66.242V67.0914H123.888L127.21 46.6261ZM24.7138 28.0454C13.2604 24.17 10.0981 21.3829 10.0981 15.1716C10.0981 8.96031 14.5626 5.19108 21.4984 5.19108C29.63 5.19108 38.3463 10.261 41.11 20.268H41.9604V6.25284C36.6456 2.61632 29.444 0.545898 22.1362 0.545898C15.6787 0.545898 10.231 2.35088 6.37776 5.77505C2.63083 9.11958 0.637776 13.7648 0.637776 19.2063C0.637776 30.4609 7.89248 35.106 20.4354 39.3C31.9951 43.2019 35.5029 46.2014 35.5029 52.0941C35.5029 59.2079 30.693 63.2957 22.3222 63.2957C13.9514 63.2957 4.03925 57.6684 0.876942 46.6261H0L0.744072 61.7827C4.5973 64.8352 12.0646 68.047 21.6844 68.047C28.3013 68.047 34.2539 66.3217 38.4526 63.1895C43.0233 59.7653 45.4416 54.8016 45.4416 48.8027C45.4416 37.2296 37.8414 32.4251 24.7138 28.0454Z" fill="white"/>
</mask>
<g mask="url(#mask0_207_851)">
<g filter="url(#filter0_f_207_851)">
<rect x="-9.84277" y="-8.06641" width="217.145" height="84.8896" fill="white"/>
</g>
</g>
<defs>
<filter id="filter0_f_207_851" x="-58.8766" y="-57.1002" width="315.213" height="182.957" filterUnits="userSpaceOnUse" color-interpolation-filters="sRGB">
<feFlood flood-opacity="0" result="BackgroundImageFix"/>
<feBlend mode="normal" in="SourceGraphic" in2="BackgroundImageFix" result="shape"/>
<feGaussianBlur stdDeviation="24.5169" result="effect1_foregroundBlur_207_851"/>
</filter>
</defs>
</svg>
