<svg width="361" height="32" viewBox="0 0 361 32" fill="none" xmlns="http://www.w3.org/2000/svg">
<path d="M21.5021 8.4614C21.2957 8.25506 20.9125 7.97504 20.3525 7.62132C19.8219 7.2676 19.1587 6.92862 18.3628 6.60437C17.5964 6.28013 16.7563 6.00011 15.8426 5.76429C14.9288 5.499 14.0003 5.36636 13.057 5.36636C11.4063 5.36636 10.1536 5.67586 9.29876 6.29487C8.47342 6.91388 8.06075 7.78344 8.06075 8.90355C8.06075 9.75837 8.32604 10.4363 8.85661 10.9374C9.38719 11.4385 10.1831 11.8659 11.2442 12.2197C12.3054 12.5734 13.6318 12.9566 15.2236 13.3693C17.2869 13.8704 19.0703 14.4894 20.5736 15.2263C22.1063 15.9337 23.2707 16.877 24.0665 18.056C24.8919 19.2056 25.3046 20.7384 25.3046 22.6544C25.3046 24.3345 24.995 25.7789 24.376 26.9874C23.757 28.1665 22.9022 29.1245 21.8116 29.8614C20.7209 30.5983 19.4829 31.1436 18.0975 31.4974C16.7121 31.8216 15.2383 31.9837 13.676 31.9837C12.1138 31.9837 10.5515 31.8216 8.98926 31.4974C7.427 31.1731 5.92369 30.7162 4.47934 30.1267C3.03499 29.5077 1.70854 28.7708 0.5 27.916L3.19711 22.6544C3.4624 22.9197 3.93402 23.2734 4.61198 23.7155C5.28995 24.1282 6.11529 24.5556 7.08802 24.9978C8.06075 25.4104 9.1219 25.7642 10.2715 26.0589C11.4211 26.3537 12.5854 26.5011 13.7645 26.5011C15.4152 26.5011 16.6679 26.221 17.5227 25.661C18.3776 25.1009 18.805 24.3051 18.805 23.2734C18.805 22.3301 18.466 21.5932 17.788 21.0626C17.1101 20.5321 16.1668 20.0752 14.9583 19.692C13.7497 19.2793 12.3201 18.8372 10.6694 18.3655C8.69449 17.8055 7.0438 17.1865 5.71736 16.5085C4.39091 15.8011 3.40344 14.9168 2.75496 13.8556C2.10647 12.7945 1.78223 11.468 1.78223 9.87628C1.78223 7.72449 2.28333 5.92641 3.28554 4.48206C4.31722 3.00823 5.70262 1.90286 7.44174 1.16595C9.18086 0.399553 11.1116 0.0163574 13.2339 0.0163574C14.7077 0.0163574 16.0931 0.178478 17.3901 0.50272C18.7165 0.826964 19.9545 1.25437 21.1041 1.78495C22.2537 2.31553 23.2854 2.89033 24.1992 3.50933L21.5021 8.4614Z" fill="white"/>
<path d="M29.9153 31.63V0.237432H36.017V26.28H52.0228V31.63H29.9153Z" fill="white"/>
<path d="M74.439 8.4614C74.2327 8.25506 73.8495 7.97504 73.2894 7.62132C72.7589 7.2676 72.0956 6.92862 71.2998 6.60437C70.5334 6.28013 69.6933 6.00011 68.7795 5.76429C67.8658 5.499 66.9372 5.36636 65.994 5.36636C64.3433 5.36636 63.0905 5.67586 62.2357 6.29487C61.4104 6.91388 60.9977 7.78344 60.9977 8.90355C60.9977 9.75837 61.263 10.4363 61.7936 10.9374C62.3242 11.4385 63.12 11.8659 64.1812 12.2197C65.2423 12.5734 66.5688 12.9566 68.1605 13.3693C70.2239 13.8704 72.0072 14.4894 73.5105 15.2263C75.0433 15.9337 76.2076 16.877 77.0035 18.056C77.8288 19.2056 78.2415 20.7384 78.2415 22.6544C78.2415 24.3345 77.932 25.7789 77.313 26.9874C76.694 28.1665 75.8392 29.1245 74.7485 29.8614C73.6579 30.5983 72.4199 31.1436 71.0345 31.4974C69.6491 31.8216 68.1753 31.9837 66.613 31.9837C65.0507 31.9837 63.4885 31.8216 61.9262 31.4974C60.364 31.1731 58.8607 30.7162 57.4163 30.1267C55.972 29.5077 54.6455 28.7708 53.437 27.916L56.1341 22.6544C56.3994 22.9197 56.871 23.2734 57.549 23.7155C58.2269 24.1282 59.0523 24.5556 60.025 24.9978C60.9977 25.4104 62.0589 25.7642 63.2085 26.0589C64.358 26.3537 65.5224 26.5011 66.7014 26.5011C68.3521 26.5011 69.6049 26.221 70.4597 25.661C71.3145 25.1009 71.7419 24.3051 71.7419 23.2734C71.7419 22.3301 71.4029 21.5932 70.725 21.0626C70.047 20.5321 69.1038 20.0752 67.8952 19.692C66.6867 19.2793 65.2571 18.8372 63.6064 18.3655C61.6315 17.8055 59.9808 17.1865 58.6543 16.5085C57.3279 15.8011 56.3404 14.9168 55.6919 13.8556C55.0434 12.7945 54.7192 11.468 54.7192 9.87628C54.7192 7.72449 55.2203 5.92641 56.2225 4.48206C57.2542 3.00823 58.6396 1.90286 60.3787 1.16595C62.1178 0.399553 64.0485 0.0163574 66.1709 0.0163574C67.6447 0.0163574 69.0301 0.178478 70.327 0.50272C71.6535 0.826964 72.8915 1.25437 74.0411 1.78495C75.1907 2.31553 76.2224 2.89033 77.1361 3.50933L74.439 8.4614Z" fill="white"/>
<path d="M93.4742 31.63V0.237432H107.358C108.802 0.237432 110.129 0.532197 111.337 1.12173C112.575 1.71126 113.636 2.50713 114.521 3.50933C115.434 4.51154 116.127 5.63165 116.599 6.86967C117.1 8.10768 117.35 9.37518 117.35 10.6721C117.35 11.9986 117.114 13.2808 116.643 14.5188C116.201 15.7274 115.552 16.7885 114.697 17.7023C113.843 18.6161 112.84 19.3235 111.691 19.8246L118.854 31.63H112.133L105.678 21.1069H99.5759V31.63H93.4742ZM99.5759 15.7569H107.225C107.991 15.7569 108.669 15.5358 109.259 15.0936C109.848 14.622 110.32 14.003 110.674 13.2366C111.028 12.4702 111.204 11.6154 111.204 10.6721C111.204 9.66994 110.998 8.80038 110.585 8.06347C110.173 7.29708 109.642 6.69281 108.994 6.25066C108.375 5.80851 107.697 5.58743 106.96 5.58743H99.5759V15.7569Z" fill="white"/>
<path d="M144.677 26.28V31.63H122.879V0.237432H144.279V5.58743H128.981V13.1482H142.201V18.1002H128.981V26.28H144.677Z" fill="white"/>
<path d="M168.137 8.4614C167.93 8.25506 167.547 7.97504 166.987 7.62132C166.456 7.2676 165.793 6.92862 164.997 6.60437C164.231 6.28013 163.391 6.00011 162.477 5.76429C161.563 5.499 160.635 5.36636 159.692 5.36636C158.041 5.36636 156.788 5.67586 155.933 6.29487C155.108 6.91388 154.695 7.78344 154.695 8.90355C154.695 9.75837 154.961 10.4363 155.491 10.9374C156.022 11.4385 156.818 11.8659 157.879 12.2197C158.94 12.5734 160.266 12.9566 161.858 13.3693C163.921 13.8704 165.705 14.4894 167.208 15.2263C168.741 15.9337 169.905 16.877 170.701 18.056C171.526 19.2056 171.939 20.7384 171.939 22.6544C171.939 24.3345 171.63 25.7789 171.011 26.9874C170.392 28.1665 169.537 29.1245 168.446 29.8614C167.355 30.5983 166.117 31.1436 164.732 31.4974C163.347 31.8216 161.873 31.9837 160.311 31.9837C158.748 31.9837 157.186 31.8216 155.624 31.4974C154.062 31.1731 152.558 30.7162 151.114 30.1267C149.67 29.5077 148.343 28.7708 147.135 27.916L149.832 22.6544C150.097 22.9197 150.569 23.2734 151.247 23.7155C151.924 24.1282 152.75 24.5556 153.723 24.9978C154.695 25.4104 155.756 25.7642 156.906 26.0589C158.056 26.3537 159.22 26.5011 160.399 26.5011C162.05 26.5011 163.302 26.221 164.157 25.661C165.012 25.1009 165.439 24.3051 165.439 23.2734C165.439 22.3301 165.101 21.5932 164.423 21.0626C163.745 20.5321 162.801 20.0752 161.593 19.692C160.384 19.2793 158.955 18.8372 157.304 18.3655C155.329 17.8055 153.678 17.1865 152.352 16.5085C151.025 15.8011 150.038 14.9168 149.389 13.8556C148.741 12.7945 148.417 11.468 148.417 9.87628C148.417 7.72449 148.918 5.92641 149.92 4.48206C150.952 3.00823 152.337 1.90286 154.076 1.16595C155.815 0.399553 157.746 0.0163574 159.868 0.0163574C161.342 0.0163574 162.728 0.178478 164.025 0.50272C165.351 0.826964 166.589 1.25437 167.739 1.78495C168.888 2.31553 169.92 2.89033 170.834 3.50933L168.137 8.4614Z" fill="white"/>
<path d="M176.55 31.63V0.237432H182.652V31.63H176.55Z" fill="white"/>
<path d="M189.201 31.63V0.237432H200.609C204.028 0.237432 206.887 0.944869 209.186 2.35975C211.486 3.74515 213.21 5.63165 214.359 8.01925C215.509 10.3774 216.084 13.0008 216.084 15.8895C216.084 19.073 215.45 21.8438 214.183 24.2019C212.915 26.56 211.117 28.3876 208.788 29.6845C206.489 30.9815 203.763 31.63 200.609 31.63H189.201ZM209.938 15.8895C209.938 13.8556 209.57 12.0723 208.833 10.5395C208.096 8.97724 207.035 7.7687 205.649 6.91388C204.264 6.02958 202.584 5.58743 200.609 5.58743H195.303V26.28H200.609C202.613 26.28 204.308 25.8379 205.693 24.9536C207.079 24.0398 208.125 22.8018 208.833 21.2395C209.57 19.6478 209.938 17.8644 209.938 15.8895Z" fill="white"/>
<path d="M242.649 26.28V31.63H220.851V0.237432H242.251V5.58743H226.953V13.1482H240.173V18.1002H226.953V26.28H242.649Z" fill="white"/>
<path d="M253.508 11.468V31.63H247.406V0.237432H252.27L268.496 20.93V0.281646H274.598V31.63H269.513L253.508 11.468Z" fill="white"/>
<path d="M279.227 15.7126C279.227 13.7967 279.566 11.9249 280.244 10.0974C280.952 8.24033 281.969 6.56016 283.295 5.05686C284.621 3.52407 286.243 2.31553 288.159 1.43123C290.075 0.517459 292.256 0.0605717 294.702 0.0605717C297.591 0.0605717 300.082 0.694319 302.175 1.96181C304.297 3.22931 305.874 4.88 306.906 6.91388L302.219 10.1416C301.688 8.9625 300.996 8.03399 300.141 7.35603C299.286 6.64859 298.372 6.16223 297.4 5.89694C296.427 5.60217 295.469 5.45479 294.526 5.45479C292.993 5.45479 291.652 5.76429 290.502 6.3833C289.382 7.00231 288.439 7.81292 287.672 8.81512C286.906 9.81732 286.331 10.9374 285.948 12.1755C285.594 13.4135 285.417 14.6515 285.417 15.8895C285.417 17.2749 285.638 18.6161 286.081 19.9131C286.523 21.1805 287.142 22.3154 287.938 23.3176C288.763 24.2903 289.736 25.0715 290.856 25.661C292.005 26.221 293.258 26.5011 294.614 26.5011C295.587 26.5011 296.574 26.339 297.576 26.0147C298.579 25.6905 299.507 25.1746 300.362 24.4672C301.217 23.7598 301.88 22.846 302.352 21.7259L307.348 24.5998C306.729 26.1621 305.712 27.4885 304.297 28.5792C302.912 29.6698 301.349 30.4952 299.61 31.0552C297.871 31.6153 296.147 31.8953 294.437 31.8953C292.197 31.8953 290.148 31.4384 288.291 30.5246C286.434 29.5814 284.828 28.3434 283.472 26.8106C282.145 25.2483 281.099 23.5092 280.333 21.5932C279.596 19.6478 279.227 17.6876 279.227 15.7126Z" fill="white"/>
<path d="M333.238 26.28V31.63H311.44V0.237432H332.84V5.58743H317.541V13.1482H330.762V18.1002H317.541V26.28H333.238Z" fill="white"/>
<path d="M356.698 8.4614C356.491 8.25506 356.108 7.97504 355.548 7.62132C355.017 7.2676 354.354 6.92862 353.558 6.60437C352.792 6.28013 351.952 6.00011 351.038 5.76429C350.124 5.499 349.196 5.36636 348.253 5.36636C346.602 5.36636 345.349 5.67586 344.494 6.29487C343.669 6.91388 343.256 7.78344 343.256 8.90355C343.256 9.75837 343.522 10.4363 344.052 10.9374C344.583 11.4385 345.379 11.8659 346.44 12.2197C347.501 12.5734 348.827 12.9566 350.419 13.3693C352.482 13.8704 354.266 14.4894 355.769 15.2263C357.302 15.9337 358.466 16.877 359.262 18.056C360.087 19.2056 360.5 20.7384 360.5 22.6544C360.5 24.3345 360.191 25.7789 359.572 26.9874C358.952 28.1665 358.098 29.1245 357.007 29.8614C355.916 30.5983 354.678 31.1436 353.293 31.4974C351.908 31.8216 350.434 31.9837 348.871 31.9837C347.309 31.9837 345.747 31.8216 344.185 31.4974C342.622 31.1731 341.119 30.7162 339.675 30.1267C338.23 29.5077 336.904 28.7708 335.695 27.916L338.393 22.6544C338.658 22.9197 339.129 23.2734 339.807 23.7155C340.485 24.1282 341.311 24.5556 342.283 24.9978C343.256 25.4104 344.317 25.7642 345.467 26.0589C346.617 26.3537 347.781 26.5011 348.96 26.5011C350.611 26.5011 351.863 26.221 352.718 25.661C353.573 25.1009 354 24.3051 354 23.2734C354 22.3301 353.661 21.5932 352.983 21.0626C352.306 20.5321 351.362 20.0752 350.154 19.692C348.945 19.2793 347.516 18.8372 345.865 18.3655C343.89 17.8055 342.239 17.1865 340.913 16.5085C339.586 15.8011 338.599 14.9168 337.95 13.8556C337.302 12.7945 336.978 11.468 336.978 9.87628C336.978 7.72449 337.479 5.92641 338.481 4.48206C339.513 3.00823 340.898 1.90286 342.637 1.16595C344.376 0.399553 346.307 0.0163574 348.429 0.0163574C349.903 0.0163574 351.289 0.178478 352.586 0.50272C353.912 0.826964 355.15 1.25437 356.3 1.78495C357.449 2.31553 358.481 2.89033 359.395 3.50933L356.698 8.4614Z" fill="white"/>
</svg>
