<svg width="213" height="144" viewBox="0 0 213 144" fill="none" xmlns="http://www.w3.org/2000/svg">
<path d="M10.941 101.764C12.6246 101.764 14.0179 101.329 15.0919 100.46C16.1659 99.5898 16.7174 98.3141 16.7174 96.6614C16.7174 95.1247 16.282 93.907 15.3822 93.0082C14.4823 92.1093 13.2051 91.6454 11.5216 91.6454H11.0862C10.1863 91.6454 9.51872 91.7034 9.08331 91.8484C8.64791 91.9934 8.35764 92.2253 8.18348 92.5443C8.00931 92.8922 7.92223 93.4141 7.92223 94.1389V101.735H10.912L10.941 101.764ZM3.62624 113.043C4.1197 112.869 4.439 112.492 4.67121 111.941C4.8744 111.361 4.99051 110.492 4.99051 109.332V95.4727C4.99051 94.3129 4.8744 93.4721 4.67121 92.9212C4.46802 92.3703 4.1197 92.0224 3.62624 91.8484C3.13278 91.6744 2.43614 91.5875 1.44922 91.5875V91.0076H11.6377C14.3082 91.0076 16.3401 91.5005 17.7624 92.5443C19.1847 93.559 19.8813 94.9508 19.8813 96.6904C19.8813 98.1401 19.3298 99.3579 18.2268 100.344C17.1238 101.329 15.6434 101.996 13.7857 102.315L17.7334 107.563C18.9525 109.158 19.9104 110.347 20.607 111.158C21.3327 111.97 22.0003 112.521 22.6099 112.869C23.2194 113.217 23.8871 113.391 24.6127 113.391V113.971H18.9525L10.4766 102.576H7.95126V109.216C7.95126 110.463 8.06737 111.361 8.27056 111.941C8.47375 112.521 8.82207 112.898 9.2865 113.072C9.75093 113.246 10.4766 113.362 11.4345 113.362V113.942H1.47825V113.362C2.43614 113.362 3.16181 113.275 3.65527 113.101" fill="white"/>
<path d="M42.1496 114.609C42.1496 114.29 42.0335 114.116 41.8303 114C41.5981 113.913 41.2497 113.855 40.7563 113.855H26.0977V113.275C27.0555 113.275 27.7812 113.188 28.2457 113.014C28.7391 112.84 29.0874 112.463 29.2906 111.912C29.4938 111.362 29.6099 110.492 29.6099 109.303V95.4728C29.6099 94.284 29.4938 93.4142 29.2906 92.8633C29.0874 92.3124 28.7391 91.9355 28.2457 91.7615C27.7812 91.5876 27.0555 91.5006 26.0977 91.5006V90.9207H40.0596C40.5531 90.9207 40.9014 90.8627 41.1046 90.7467C41.3368 90.6308 41.4239 90.4568 41.4239 90.1669C41.4239 89.9639 41.4239 89.8189 41.3658 89.674L41.9464 89.5L43.8041 96.4296L43.1945 96.6325C42.6721 95.2698 42.1786 94.255 41.6851 93.5882C41.2207 92.9213 40.6111 92.4284 39.8274 92.1095C39.0727 91.7905 37.9987 91.6456 36.6925 91.6456H35.7927C34.8057 91.6456 34.1091 91.7035 33.6737 91.8195C33.2383 91.9355 32.948 92.1675 32.8029 92.5154C32.6578 92.8633 32.5707 93.4432 32.5707 94.255V101.533H34.7767C35.8217 101.533 36.6054 101.417 37.1279 101.156C37.6504 100.895 37.9697 100.547 38.1439 100.054C38.318 99.5609 38.3761 98.8361 38.3761 97.9083H38.9856V105.882H38.3761C38.3761 104.925 38.289 104.2 38.1148 103.707C37.9407 103.214 37.5923 102.866 37.0989 102.634C36.6054 102.402 35.8217 102.286 34.8057 102.286H32.5707V110.55C32.5707 111.333 32.6578 111.912 32.8029 112.26C32.948 112.608 33.2383 112.869 33.6737 112.985C34.1091 113.101 34.7767 113.159 35.7346 113.159H37.5343C38.8986 113.159 39.9726 112.985 40.7563 112.637C41.54 112.289 42.1786 111.738 42.6721 110.956C43.1655 110.173 43.659 109.042 44.1234 107.534L44.733 107.737L42.6721 115.276L42.0915 115.102C42.0915 115.102 42.1496 114.812 42.1496 114.609Z" fill="white"/>
<path d="M47.8337 106.404L48.5594 106.23C49.7205 111.159 52.1587 113.594 55.9032 113.594C57.0933 113.594 58.1093 113.391 58.9801 112.956C59.8509 112.521 60.5185 111.971 60.9539 111.246C61.3893 110.55 61.6215 109.767 61.6215 108.926C61.6215 107.969 61.3603 107.158 60.8668 106.491C60.3734 105.824 59.6767 105.273 58.7769 104.809C57.877 104.345 56.6579 103.823 55.1195 103.272C53.552 102.692 52.2748 102.142 51.2589 101.591C50.243 101.04 49.4302 100.344 48.8206 99.5031C48.2111 98.6623 47.8918 97.6475 47.8918 96.4297C47.8918 95.212 48.2401 94.2262 48.9077 93.2984C49.5753 92.3706 50.5042 91.6167 51.6363 91.0948C52.7683 90.5729 53.9874 90.283 55.3227 90.283C56.6579 90.283 57.848 90.486 59.1252 90.8629C59.2123 90.8629 59.3864 90.9209 59.6767 91.0079C59.938 91.0948 60.1702 91.1238 60.3734 91.1238C60.6346 91.1238 60.8378 91.0079 61.012 90.7469C61.1571 90.486 61.2152 90.167 61.2152 89.7901L61.8247 89.7031L63.5373 97.1836L62.8407 97.3286C62.2601 95.357 61.3022 93.8203 60.025 92.7185C58.7479 91.6167 57.2094 91.0658 55.4388 91.0658C53.8713 91.0658 52.7102 91.4428 51.8685 92.1966C51.0557 92.9505 50.6493 93.9073 50.6493 95.038C50.6493 96.2558 51.1138 97.2706 52.0426 98.0824C52.9715 98.8942 54.5389 99.6481 56.745 100.373C59.3574 101.214 61.2442 102.229 62.4633 103.388C63.6824 104.548 64.292 105.969 64.292 107.621C64.292 108.926 63.9147 110.115 63.189 111.13C62.4633 112.145 61.4474 112.985 60.1412 113.565C58.864 114.145 57.4416 114.435 55.8742 114.435C54.9163 114.435 54.1035 114.348 53.4359 114.174C52.7683 114 52.0717 113.768 51.346 113.449C50.7074 113.188 50.243 113.043 49.9527 113.043C49.3431 113.043 49.0238 113.449 48.9658 114.29L48.3562 114.348L47.8047 106.375L47.8337 106.404Z" fill="white"/>
<path d="M68.4153 112.985C68.9088 112.811 69.2281 112.434 69.4603 111.884C69.6635 111.333 69.7796 110.463 69.7796 109.274V95.4439C69.7796 94.2552 69.6635 93.3853 69.4603 92.8344C69.2571 92.2836 68.9088 91.9066 68.4153 91.7327C67.9218 91.5587 67.2252 91.4717 66.2383 91.4717V90.8918H76.2236V91.4717C75.2947 91.4717 74.5981 91.5587 74.1336 91.7327C73.6692 91.9066 73.2918 92.2836 73.0886 92.8344C72.8564 93.3853 72.7694 94.2552 72.7694 95.4439V109.245C72.7694 110.434 72.8855 111.304 73.0886 111.855C73.2918 112.434 73.6402 112.782 74.1046 112.956C74.569 113.13 75.2947 113.217 76.2526 113.217V113.797H66.2673V113.217C67.2252 113.217 67.9509 113.13 68.4443 112.956" fill="white"/>
<path d="M86.1835 112C86.4157 112.435 86.764 112.753 87.2575 112.898C87.7509 113.043 88.4186 113.13 89.3184 113.13H90.5085C92.3082 113.13 93.9046 112.695 95.2689 111.797C96.6332 110.898 97.6782 109.622 98.4329 107.969C99.1585 106.317 99.5359 104.374 99.5359 102.171C99.5359 99.9671 99.1295 98.1694 98.3458 96.6037C97.533 95.0381 96.3719 93.8203 94.8335 92.9505C93.2951 92.0807 91.4374 91.6458 89.2603 91.6458C88.0122 91.6458 87.1414 91.8197 86.6189 92.1386C86.0964 92.4576 85.8351 93.1534 85.8351 94.1972V110.057C85.8351 110.898 85.9513 111.565 86.1835 112ZM81.5392 112.985C82.0036 112.811 82.3229 112.434 82.5261 111.884C82.7293 111.304 82.8454 110.434 82.8454 109.216V95.415C82.8454 94.2262 82.7293 93.3564 82.5261 92.8345C82.3229 92.2836 81.9746 91.9357 81.5392 91.7617C81.0747 91.5878 80.3781 91.5008 79.4492 91.5008V90.9209H89.3184C92.105 90.9209 94.5432 91.3558 96.5751 92.2546C98.607 93.1534 100.145 94.4292 101.219 96.0818C102.293 97.7635 102.816 99.7351 102.816 102.026C102.816 104.548 102.293 106.665 101.248 108.433C100.204 110.202 98.6941 111.536 96.7493 112.463C94.8045 113.391 92.4823 113.855 89.8118 113.855H79.4492V113.275C80.3781 113.275 81.1038 113.188 81.5392 113.014" fill="white"/>
<path d="M119.853 114.609C119.853 114.29 119.737 114.116 119.533 114C119.301 113.913 118.953 113.855 118.459 113.855H103.801V113.275C104.759 113.275 105.484 113.188 105.949 113.014C106.442 112.84 106.791 112.463 106.994 111.912C107.197 111.362 107.313 110.492 107.313 109.303V95.4728C107.313 94.284 107.197 93.4142 106.994 92.8633C106.791 92.3124 106.442 91.9355 105.949 91.7615C105.484 91.5876 104.759 91.5006 103.801 91.5006V90.9207H117.763C118.256 90.9207 118.605 90.8627 118.808 90.7467C119.04 90.6308 119.127 90.4568 119.127 90.1669C119.127 89.9639 119.127 89.8189 119.069 89.674L119.65 89.5L121.507 96.4296L120.898 96.6325C120.375 95.2698 119.882 94.255 119.388 93.5882C118.924 92.9213 118.314 92.4284 117.531 92.1095C116.776 91.7905 115.702 91.6456 114.396 91.6456H113.496C112.509 91.6456 111.812 91.7035 111.377 91.8195C110.941 91.9355 110.651 92.1675 110.506 92.5154C110.361 92.8633 110.274 93.4432 110.274 94.255V101.533H112.48C113.525 101.533 114.309 101.417 114.831 101.156C115.354 100.895 115.673 100.547 115.847 100.054C116.021 99.5609 116.079 98.8361 116.079 97.9083H116.689V105.882H116.079C116.079 104.925 115.992 104.2 115.818 103.707C115.644 103.214 115.295 102.866 114.802 102.634C114.309 102.402 113.525 102.286 112.509 102.286H110.274V110.55C110.274 111.333 110.361 111.912 110.506 112.26C110.651 112.608 110.941 112.869 111.377 112.985C111.812 113.101 112.48 113.159 113.438 113.159H115.237C116.602 113.159 117.676 112.985 118.459 112.637C119.243 112.289 119.882 111.738 120.375 110.956C120.869 110.173 121.362 109.042 121.827 107.534L122.436 107.737L120.375 115.276L119.795 115.102C119.795 115.102 119.853 114.812 119.853 114.609Z" fill="white"/>
<path d="M126.963 112.376C127.514 111.796 127.805 110.811 127.805 109.419V94.226C127.805 93.2112 127.543 92.4864 127.021 92.1095C126.498 91.7036 125.657 91.5296 124.438 91.5296V90.9497H130.214L145.337 108.868V95.3858C145.337 93.9361 144.989 92.9503 144.321 92.3704C143.653 91.7905 142.579 91.5296 141.099 91.5296V90.9497H149.198V91.5296C148.124 91.5296 147.34 91.8195 146.846 92.3704C146.353 92.9503 146.092 93.9361 146.092 95.3568V114.087H145.743L128.588 93.9071V109.448C128.588 110.869 128.908 111.854 129.517 112.434C130.127 113.014 131.172 113.275 132.652 113.275V113.855H124.438V113.275C125.541 113.275 126.353 112.985 126.905 112.376" fill="white"/>
<path d="M156.428 112.956C154.658 111.97 153.264 110.579 152.19 108.752C151.116 106.954 150.594 104.838 150.594 102.46C150.594 100.083 151.145 97.9953 152.277 96.1396C153.409 94.284 154.861 92.8343 156.718 91.8195C158.547 90.8047 160.55 90.2828 162.669 90.2828C163.772 90.2828 165.02 90.4278 166.326 90.7178C167.081 90.8627 167.545 90.9207 167.778 90.9207C168.561 90.9207 168.968 90.6598 168.968 90.1379C168.968 89.9349 168.968 89.7899 168.91 89.645L169.49 89.5L171.435 96.9515L170.797 97.1544C170.071 95.0669 168.997 93.5302 167.575 92.5444C166.152 91.5296 164.498 91.0367 162.611 91.0367C160.927 91.0367 159.447 91.5296 158.141 92.4864C156.835 93.4432 155.819 94.7769 155.093 96.4876C154.367 98.1982 154.019 100.112 154.019 102.257C154.019 104.403 154.454 106.346 155.325 107.998C156.196 109.651 157.357 110.898 158.808 111.767C160.26 112.637 161.798 113.072 163.482 113.072C165.165 113.072 166.646 112.666 168.097 111.883C169.548 111.101 170.709 109.912 171.551 108.317L172.074 108.665C171.029 110.55 169.635 111.999 167.923 112.956C166.181 113.913 164.294 114.406 162.205 114.406C160.115 114.406 158.199 113.913 156.457 112.927" fill="white"/>
<path d="M189.95 114.609C189.95 114.29 189.834 114.116 189.631 114C189.399 113.913 189.051 113.855 188.557 113.855H173.898V113.275C174.856 113.275 175.582 113.188 176.046 113.014C176.54 112.84 176.888 112.463 177.091 111.912C177.295 111.362 177.411 110.492 177.411 109.303V95.4728C177.411 94.284 177.295 93.4142 177.091 92.8633C176.888 92.3124 176.54 91.9355 176.046 91.7615C175.582 91.5876 174.856 91.5006 173.898 91.5006V90.9207H187.86C188.354 90.9207 188.702 90.8627 188.905 90.7467C189.138 90.6308 189.225 90.4568 189.225 90.1669C189.225 89.9639 189.225 89.8189 189.167 89.674L189.747 89.5L191.605 96.4296L190.995 96.6325C190.473 95.2698 189.979 94.255 189.486 93.5882C189.021 92.9213 188.412 92.4284 187.628 92.1095C186.873 91.7905 185.8 91.6456 184.493 91.6456H183.593C182.607 91.6456 181.91 91.7035 181.474 91.8195C181.039 91.9355 180.749 92.1675 180.604 92.5154C180.459 92.8633 180.371 93.4432 180.371 94.255V101.533H182.578C183.622 101.533 184.406 101.417 184.929 101.156C185.451 100.895 185.77 100.547 185.945 100.054C186.119 99.5609 186.177 98.8361 186.177 97.9083H186.786V105.882H186.177C186.177 104.925 186.09 104.2 185.916 103.707C185.741 103.214 185.393 102.866 184.9 102.634C184.406 102.402 183.622 102.286 182.607 102.286H180.371V110.55C180.371 111.333 180.459 111.912 180.604 112.26C180.749 112.608 181.039 112.869 181.474 112.985C181.91 113.101 182.578 113.159 183.535 113.159H185.335C186.699 113.159 187.773 112.985 188.557 112.637C189.341 112.289 189.979 111.738 190.473 110.956C190.966 110.173 191.46 109.042 191.924 107.534L192.534 107.737L190.473 115.276L189.892 115.102C189.892 115.102 189.95 114.812 189.95 114.609Z" fill="white"/>
<path d="M195.642 106.404L196.368 106.23C197.529 111.159 199.967 113.594 203.712 113.594C204.902 113.594 205.918 113.391 206.789 112.956C207.659 112.521 208.327 111.971 208.762 111.246C209.198 110.55 209.43 109.767 209.43 108.926C209.43 107.969 209.169 107.158 208.675 106.491C208.182 105.824 207.485 105.273 206.585 104.809C205.686 104.345 204.467 103.823 202.928 103.272C201.361 102.692 200.083 102.142 199.067 101.591C198.052 101.04 197.239 100.344 196.629 99.5031C196.02 98.6623 195.7 97.6475 195.7 96.4297C195.7 95.212 196.049 94.2262 196.716 93.2984C197.384 92.3706 198.313 91.6167 199.445 91.0948C200.577 90.5729 201.796 90.283 203.131 90.283C204.467 90.283 205.657 90.486 206.934 90.8629C207.021 90.8629 207.195 90.9209 207.485 91.0079C207.747 91.0948 207.979 91.1238 208.182 91.1238C208.443 91.1238 208.646 91.0079 208.821 90.7469C208.966 90.486 209.024 90.167 209.024 89.7901L209.633 89.7031L211.346 97.1836L210.649 97.3286C210.069 95.357 209.111 93.8203 207.834 92.7185C206.556 91.6167 205.018 91.0658 203.247 91.0658C201.68 91.0658 200.519 91.4428 199.677 92.1966C198.864 92.9505 198.458 93.9073 198.458 95.038C198.458 96.2558 198.922 97.2706 199.851 98.0824C200.78 98.8942 202.348 99.6481 204.554 100.373C207.166 101.214 209.053 102.229 210.272 103.388C211.491 104.548 212.101 105.969 212.101 107.621C212.101 108.926 211.723 110.115 210.998 111.13C210.272 112.145 209.256 112.985 207.95 113.565C206.673 114.145 205.25 114.435 203.683 114.435C202.725 114.435 201.912 114.348 201.245 114.174C200.577 114 199.88 113.768 199.155 113.449C198.516 113.188 198.052 113.043 197.761 113.043C197.152 113.043 196.832 113.449 196.774 114.29L196.165 114.348L195.613 106.375L195.642 106.404Z" fill="white"/>
<path d="M9.31766 133.484L6.64718 126.554L3.9767 133.484H9.34668H9.31766ZM10.1885 138.21C10.4787 138.036 10.6239 137.775 10.6239 137.369C10.6239 137.05 10.5078 136.586 10.2755 135.978L9.49182 133.919H3.80253L3.10589 135.746C2.9027 136.267 2.81562 136.673 2.81562 137.021C2.81562 137.978 3.54129 138.442 4.96361 138.442V138.819H0V138.442C0.609566 138.442 1.10302 138.21 1.45135 137.775C1.8287 137.34 2.20605 136.586 2.61243 135.543L6.32788 125.917L5.86345 124.728V124.583C6.5601 124.264 7.05355 123.887 7.40188 123.481H7.54701L12.3365 135.92C12.5977 136.615 12.8299 137.137 13.0331 137.485C13.2363 137.833 13.4395 138.094 13.7007 138.239C13.9329 138.384 14.2522 138.471 14.6296 138.471V138.848H8.76614V138.471C9.37571 138.471 9.84014 138.384 10.1304 138.21" fill="white"/>
<path d="M18.8074 138.297C19.0977 138.181 19.3009 137.978 19.446 137.63C19.5621 137.282 19.6492 136.76 19.6492 136.064V126.264C19.6492 125.684 19.5331 125.307 19.3299 125.075C19.1267 124.843 18.7494 124.728 18.2559 124.728H17.5883C17.0078 124.728 16.5143 124.872 16.1079 125.162C15.7015 125.452 15.3532 125.858 15.0339 126.409C14.7437 126.931 14.3663 127.685 13.9889 128.642L13.6406 128.526L14.8017 123.539L15.121 123.626C15.121 123.626 15.092 123.858 15.092 123.916C15.092 124.09 15.15 124.206 15.2952 124.264C15.4403 124.322 15.6725 124.351 15.9918 124.351H25.2224C25.5417 124.351 25.7739 124.351 25.919 124.264C26.0642 124.206 26.1222 124.09 26.1222 123.916C26.1222 123.8 26.1222 123.684 26.0932 123.597L26.4125 123.51L27.6026 128.497L27.2543 128.613C26.8479 127.656 26.4705 126.902 26.1803 126.38C25.89 125.858 25.5417 125.452 25.1353 125.162C24.7289 124.872 24.2355 124.728 23.6549 124.728H22.9873C22.4648 124.728 22.0875 124.843 21.8843 125.075C21.6811 125.307 21.565 125.713 21.565 126.264V136.064C21.565 136.789 21.623 137.311 21.7682 137.63C21.8843 137.949 22.0875 138.181 22.4068 138.297C22.697 138.413 23.1615 138.471 23.8001 138.471V138.848H17.4722V138.471C18.0818 138.471 18.5462 138.413 18.8655 138.297" fill="white"/>
<path d="M40.0297 132.382C40.6683 132.382 41.2779 132.237 41.8584 131.889C42.4099 131.57 42.8744 131.106 43.2227 130.526C43.571 129.947 43.7452 129.251 43.7452 128.468C43.7452 127.163 43.3678 126.206 42.6422 125.626C41.9165 125.047 40.9876 124.757 39.9136 124.757C39.4782 124.757 39.1589 124.786 38.9267 124.873C38.6945 124.96 38.5494 125.104 38.4623 125.336C38.3752 125.568 38.3171 125.887 38.3171 126.351V132.179C38.8106 132.295 39.3911 132.353 40.0007 132.353M35.5886 138.268C35.8789 138.152 36.1111 137.92 36.2272 137.572C36.3723 137.224 36.4304 136.644 36.4304 135.89V127.192C36.4304 126.438 36.3723 125.887 36.2272 125.51C36.1111 125.162 35.8789 124.931 35.5886 124.815C35.2983 124.699 34.8339 124.641 34.1953 124.641V124.264H40.2329C41.9745 124.264 43.3098 124.641 44.2967 125.365C45.2546 126.09 45.748 127.134 45.748 128.468C45.748 129.396 45.4868 130.178 44.9933 130.816C44.4999 131.483 43.8032 131.947 42.9615 132.295C42.0907 132.643 41.1618 132.788 40.1168 132.788C39.5363 132.788 38.9267 132.73 38.3462 132.643V135.803C38.3462 136.586 38.4042 137.166 38.5494 137.514C38.6945 137.862 38.9267 138.123 39.275 138.239C39.6234 138.355 40.1458 138.413 40.8715 138.413V138.79H34.2534V138.413C34.8629 138.413 35.3274 138.355 35.6176 138.239" fill="white"/>
<path d="M53.6128 133.484L50.9424 126.555L48.2719 133.484H53.6419H53.6128ZM54.4837 138.21C54.7739 138.036 54.9191 137.775 54.9191 137.369C54.9191 137.05 54.803 136.587 54.5707 135.978L53.787 133.919H48.0977L47.4011 135.746C47.1979 136.268 47.1108 136.673 47.1108 137.021C47.1108 137.978 47.8365 138.442 49.2588 138.442V138.819H44.3242V138.442C44.9338 138.442 45.4272 138.21 45.7756 137.775C46.1529 137.34 46.5303 136.587 46.9366 135.543L50.6521 125.917L50.1877 124.728V124.583C50.8843 124.264 51.3778 123.887 51.7261 123.481H51.8712L56.6607 135.92C56.9219 136.616 57.1541 137.137 57.3573 137.485C57.5605 137.833 57.7637 138.094 58.0249 138.239C58.2572 138.384 58.5765 138.471 58.9538 138.471V138.848H53.0904V138.471C53.6999 138.471 54.1644 138.384 54.4546 138.21" fill="white"/>
<path d="M70.0986 139.312C70.0986 139.138 70.0115 139.022 69.8664 138.935C69.7213 138.877 69.4891 138.819 69.1698 138.819H59.9392V138.442C60.5197 138.442 60.9842 138.384 61.2744 138.268C61.5937 138.152 61.7969 137.92 61.942 137.572C62.0872 137.224 62.1452 136.673 62.1452 135.919V127.163C62.1452 126.409 62.0872 125.858 61.942 125.51C61.7969 125.162 61.5937 124.931 61.2744 124.815C60.9842 124.699 60.5197 124.641 59.9102 124.641V124.264H66.5283V124.641C65.8026 124.641 65.2511 124.699 64.9318 124.815C64.5835 124.931 64.3513 125.162 64.2352 125.51C64.1191 125.858 64.032 126.409 64.032 127.163V136.702C64.032 137.195 64.09 137.543 64.2062 137.775C64.3223 138.007 64.5254 138.152 64.8157 138.239C65.106 138.326 65.5704 138.355 66.18 138.355H66.8766C67.8636 138.355 68.6182 138.21 69.1698 137.949C69.7213 137.688 70.1277 137.253 70.4469 136.702C70.7662 136.151 71.0855 135.281 71.4629 134.151L71.8402 134.267L70.3599 139.718L70.0115 139.602C70.0115 139.602 70.0406 139.428 70.0406 139.283" fill="white"/>
<path d="M74.515 137.92C74.8343 137.544 75.0085 136.906 75.0085 135.978V126.439C75.0085 125.743 74.8343 125.279 74.515 125.018C74.1957 124.786 73.6732 124.67 72.9766 124.67V124.293H76.663L82.3813 135.369L87.8093 124.293H91.728V124.67C91.1474 124.67 90.7411 124.728 90.4508 124.844C90.1605 124.96 89.9573 125.192 89.8412 125.569C89.6961 125.917 89.638 126.497 89.638 127.28V135.978C89.638 136.732 89.6961 137.283 89.8412 137.63C89.9573 137.978 90.1605 138.21 90.4508 138.297C90.7411 138.413 91.1765 138.442 91.757 138.442V138.819H85.6614V138.442C86.2419 138.442 86.7063 138.384 86.9676 138.297C87.2578 138.181 87.461 137.978 87.5771 137.601C87.7223 137.254 87.7803 136.674 87.7803 135.92V125.685L81.7427 138.036H81.5105L75.56 126.149V135.92C75.56 136.848 75.7051 137.515 76.0244 137.891C76.3437 138.268 76.8662 138.442 77.5628 138.442V138.819H73.0056V138.442C73.7022 138.442 74.1957 138.268 74.544 137.891" fill="white"/>
<path d="M97.2373 143.11C96.889 142.907 96.7148 142.617 96.7148 142.27C96.7148 142.038 96.8019 141.864 96.9471 141.69C97.0922 141.516 97.2954 141.458 97.5566 141.458C97.7308 141.458 97.905 141.516 98.0211 141.603C98.1662 141.69 98.3113 141.864 98.5145 142.067C98.7467 142.328 98.9499 142.501 99.1241 142.646C99.3273 142.762 99.5305 142.849 99.8207 142.849C100.314 142.849 100.663 142.588 100.924 142.067C101.156 141.545 101.272 140.646 101.272 139.341V127.193C101.272 126.439 101.214 125.888 101.069 125.54C100.924 125.192 100.692 124.96 100.343 124.844C99.9949 124.728 99.4724 124.67 98.7467 124.67V124.293H105.365V124.67C104.755 124.67 104.291 124.728 104.001 124.844C103.71 124.96 103.478 125.192 103.362 125.54C103.246 125.888 103.159 126.439 103.159 127.193V138.587C103.159 140.153 102.781 141.342 102.027 142.183C101.272 143.023 100.198 143.429 98.8338 143.429C98.1372 143.429 97.5857 143.313 97.2373 143.11Z" fill="white"/>
<path d="M109.955 137.804C109.055 136.877 108.591 135.427 108.591 133.455V127.193C108.591 126.439 108.532 125.888 108.387 125.54C108.271 125.192 108.039 124.96 107.72 124.844C107.429 124.728 106.965 124.67 106.355 124.67V124.293H112.683V124.67C112.074 124.67 111.638 124.728 111.348 124.844C111.058 124.96 110.826 125.192 110.68 125.54C110.535 125.888 110.448 126.439 110.448 127.193V133.223C110.448 134.905 110.797 136.181 111.522 137.022C112.219 137.891 113.235 138.326 114.541 138.326C116.05 138.326 117.212 137.862 117.937 136.935C118.692 136.007 119.069 134.557 119.069 132.615V127.193C119.069 126.265 118.866 125.598 118.489 125.221C118.111 124.844 117.473 124.67 116.573 124.67V124.293H121.653V124.67C120.956 124.67 120.434 124.873 120.114 125.25C119.766 125.627 119.621 126.294 119.621 127.193V132.644C119.621 134.818 119.185 136.471 118.286 137.573C117.386 138.674 116.021 139.225 114.135 139.225C112.248 139.225 110.884 138.761 109.984 137.804" fill="white"/>
<path d="M124.206 137.92C124.526 137.544 124.7 136.906 124.7 135.978V126.439C124.7 125.743 124.526 125.279 124.206 125.018C123.887 124.786 123.365 124.67 122.668 124.67V124.293H126.354L132.073 135.369L137.501 124.293H141.419V124.67C140.839 124.67 140.432 124.728 140.142 124.844C139.852 124.96 139.649 125.192 139.533 125.569C139.388 125.917 139.329 126.497 139.329 127.28V135.978C139.329 136.732 139.388 137.283 139.533 137.63C139.649 137.978 139.852 138.21 140.142 138.297C140.432 138.413 140.868 138.442 141.448 138.442V138.819H135.353V138.442C135.933 138.442 136.398 138.384 136.659 138.297C136.949 138.181 137.152 137.978 137.269 137.601C137.414 137.254 137.472 136.674 137.472 135.92V125.685L131.434 138.036H131.202L125.251 126.149V135.92C125.251 136.848 125.397 137.515 125.716 137.891C126.035 138.268 126.558 138.442 127.254 138.442V138.819H122.697V138.442C123.394 138.442 123.887 138.268 124.235 137.891" fill="white"/>
<path d="M153.638 139.312C153.638 139.109 153.58 138.993 153.435 138.935C153.289 138.877 153.057 138.848 152.738 138.848H143.449V138.471C144.059 138.471 144.523 138.413 144.813 138.297C145.104 138.181 145.336 137.949 145.452 137.601C145.597 137.253 145.655 136.703 145.655 135.949V127.192C145.655 126.439 145.597 125.888 145.452 125.54C145.336 125.192 145.104 124.96 144.813 124.844C144.494 124.728 144.059 124.67 143.449 124.67V124.293H152.302C152.593 124.293 152.825 124.264 152.97 124.177C153.115 124.119 153.173 123.974 153.173 123.8C153.173 123.684 153.173 123.568 153.144 123.481L153.522 123.365L154.712 127.772L154.305 127.888C153.986 127.018 153.667 126.381 153.347 125.946C153.057 125.511 152.651 125.192 152.186 124.989C151.693 124.786 151.025 124.699 150.183 124.699H149.632C149.022 124.699 148.558 124.728 148.297 124.815C148.006 124.902 147.832 125.047 147.745 125.25C147.658 125.482 147.6 125.83 147.6 126.352V130.962H148.993C149.661 130.962 150.154 130.875 150.474 130.73C150.793 130.585 151.025 130.324 151.112 130.034C151.228 129.715 151.257 129.28 151.257 128.671H151.664V133.716H151.257C151.257 133.107 151.199 132.643 151.083 132.324C150.967 132.005 150.764 131.774 150.445 131.629C150.125 131.484 149.632 131.397 148.993 131.397H147.571V136.616C147.571 137.108 147.629 137.485 147.716 137.717C147.803 137.949 148.006 138.094 148.268 138.181C148.529 138.268 148.964 138.297 149.574 138.297H150.706C151.548 138.297 152.244 138.181 152.738 137.978C153.231 137.775 153.638 137.398 153.957 136.934C154.276 136.442 154.567 135.717 154.886 134.76L155.292 134.876L153.986 139.66L153.609 139.544C153.609 139.544 153.638 139.37 153.638 139.225" fill="white"/>
<path d="M157.935 138.297C158.225 138.181 158.457 137.949 158.573 137.601C158.718 137.254 158.776 136.703 158.776 135.949V127.193C158.776 126.439 158.718 125.888 158.573 125.54C158.457 125.192 158.225 124.96 157.935 124.844C157.615 124.728 157.18 124.67 156.57 124.67V124.293H162.898V124.67C162.318 124.67 161.882 124.728 161.563 124.844C161.273 124.96 161.04 125.192 160.895 125.54C160.75 125.888 160.692 126.439 160.692 127.193V135.92C160.692 136.674 160.75 137.225 160.895 137.573C161.04 137.92 161.244 138.152 161.534 138.268C161.824 138.384 162.289 138.442 162.898 138.442V138.819H156.57V138.442C157.18 138.442 157.644 138.384 157.935 138.268" fill="white"/>
<path d="M170.911 131.193C171.985 131.193 172.856 130.903 173.552 130.352C174.249 129.801 174.568 128.99 174.568 127.946C174.568 126.989 174.278 126.206 173.727 125.626C173.175 125.046 172.362 124.756 171.288 124.756H171.027C170.446 124.756 170.04 124.785 169.75 124.872C169.46 124.959 169.285 125.104 169.169 125.307C169.053 125.51 169.024 125.858 169.024 126.322V131.135H170.911V131.193ZM166.267 138.326C166.557 138.21 166.789 137.978 166.905 137.63C167.05 137.282 167.108 136.702 167.108 135.977V127.192C167.108 126.467 167.05 125.916 166.905 125.568C166.789 125.22 166.557 124.988 166.267 124.872C165.947 124.756 165.512 124.698 164.902 124.698V124.322H171.375C173.059 124.322 174.365 124.64 175.236 125.278C176.136 125.916 176.571 126.786 176.571 127.917C176.571 128.845 176.223 129.598 175.526 130.236C174.83 130.874 173.901 131.28 172.711 131.483L175.207 134.788C175.962 135.803 176.571 136.557 177.036 137.05C177.5 137.543 177.906 137.92 178.313 138.123C178.69 138.326 179.126 138.442 179.59 138.442V138.819H175.991L170.621 131.599H169.024V135.803C169.024 136.586 169.082 137.166 169.227 137.543C169.372 137.92 169.576 138.152 169.866 138.268C170.156 138.384 170.621 138.442 171.23 138.442V138.819H164.902V138.442C165.512 138.442 165.976 138.384 166.267 138.268" fill="white"/>
<path d="M189.515 133.484L186.845 126.554L184.174 133.484H189.544H189.515ZM190.386 138.21C190.676 138.036 190.821 137.775 190.821 137.369C190.821 137.05 190.705 136.586 190.473 135.978L189.689 133.919H184L183.303 135.746C183.1 136.267 183.013 136.673 183.013 137.021C183.013 137.978 183.739 138.442 185.161 138.442V138.819H180.227V138.442C180.836 138.442 181.33 138.21 181.678 137.775C182.055 137.34 182.433 136.586 182.839 135.543L186.554 125.917L186.09 124.728V124.583C186.787 124.264 187.28 123.887 187.628 123.481H187.774L192.563 135.92C192.824 136.615 193.056 137.137 193.26 137.485C193.463 137.833 193.666 138.094 193.927 138.239C194.16 138.384 194.479 138.471 194.856 138.471V138.848H188.993V138.471C189.602 138.471 190.067 138.384 190.357 138.21" fill="white"/>
<path d="M206.959 138.297C207.25 138.181 207.482 137.949 207.598 137.601C207.743 137.253 207.801 136.702 207.801 135.948V131.483H199.993V135.89C199.993 136.644 200.051 137.224 200.196 137.572C200.312 137.92 200.544 138.152 200.835 138.268C201.125 138.384 201.589 138.442 202.199 138.442V138.819H195.871V138.442C196.481 138.442 196.945 138.384 197.235 138.268C197.526 138.152 197.758 137.92 197.903 137.572C198.019 137.224 198.106 136.673 198.106 135.919V127.163C198.106 126.409 198.048 125.858 197.903 125.51C197.758 125.162 197.555 124.931 197.235 124.815C196.916 124.699 196.481 124.641 195.871 124.641V124.264H202.199V124.641C201.618 124.641 201.183 124.699 200.864 124.815C200.544 124.931 200.341 125.162 200.196 125.51C200.051 125.858 199.993 126.409 199.993 127.163V130.99H207.801V127.163C207.801 126.409 207.743 125.858 207.598 125.51C207.453 125.162 207.25 124.931 206.959 124.815C206.669 124.699 206.205 124.641 205.595 124.641V124.264H211.923V124.641C211.342 124.641 210.878 124.699 210.588 124.815C210.297 124.931 210.065 125.162 209.92 125.51C209.775 125.858 209.717 126.409 209.717 127.163V135.89C209.717 136.644 209.775 137.224 209.92 137.572C210.065 137.92 210.268 138.152 210.559 138.268C210.849 138.384 211.313 138.442 211.923 138.442V138.819H205.595V138.442C206.205 138.442 206.669 138.384 206.959 138.268" fill="white"/>
<mask id="mask0_1417_146" style="mask-type:alpha" maskUnits="userSpaceOnUse" x="0" y="0" width="213" height="75">
<path d="M190.359 31.0189C177.848 26.7858 174.394 23.7414 174.394 16.9568C174.394 10.1722 179.271 6.05504 186.847 6.05504C195.729 6.05504 205.25 11.5929 208.269 22.5237H209.197V7.2148C203.392 3.24262 195.526 0.981079 187.572 0.981079C180.519 0.981079 174.539 2.95268 170.359 6.69291C166.266 10.3462 164.089 15.4201 164.089 21.3639C164.089 33.6574 172.014 38.7314 185.715 43.3124C198.341 47.5746 202.173 50.8509 202.173 57.2876C202.173 65.058 196.919 69.5231 187.775 69.5231C178.632 69.5231 167.776 63.4053 164.322 51.3148H163.364L164.177 67.8704C168.385 71.2047 176.571 74.713 187.05 74.713C194.278 74.713 200.78 72.8284 205.366 69.4071C210.358 65.6669 213 60.245 213 53.6923C213 41.0509 204.698 35.803 190.359 31.0189ZM138.952 51.3148H137.849C134.772 62.8544 125.455 68.7112 117.095 68.7112H112.16C105.774 68.7112 102.291 67.5515 102.291 61.4337V13.9704C102.291 7.93966 105.281 3.27161 111.957 2.95268V2.02487H79.9113V2.95268C86.8197 3.3006 89.6933 7.91066 89.6933 13.9704V61.6077C89.6933 67.8414 86.6745 72.5095 79.9113 72.7414V73.6692H135.324L138.952 51.3148ZM26.9951 31.0189C14.4845 26.7858 11.0302 23.7414 11.0302 16.9568C11.0302 10.1722 15.9068 6.05504 23.4828 6.05504C32.3651 6.05504 41.8859 11.5929 44.9047 22.5237H45.8336V7.2148C40.0282 3.24262 32.1619 0.981079 24.1795 0.981079C17.1259 0.981079 11.1754 2.95268 6.96647 6.69291C2.87367 10.3462 0.696647 15.4201 0.696647 21.3639C0.696647 33.6574 8.62101 38.7314 22.3217 43.3124C34.9485 47.5746 38.78 50.8509 38.78 57.2876C38.78 65.058 33.5261 69.5231 24.3827 69.5231C15.2392 69.5231 4.4121 63.3763 0.95789 51.3148H0L0.812755 67.8704C5.02167 71.2047 13.1782 74.713 23.686 74.713C30.9137 74.713 37.4158 72.8284 42.002 69.4071C46.9947 65.6669 49.6361 60.245 49.6361 53.6923C49.6361 41.0509 41.3344 35.803 26.9951 31.0189Z" fill="white"/>
</mask>
<g mask="url(#mask0_1417_146)">
<g filter="url(#filter0_f_1417_146)">
<rect x="-10.7539" y="-8.42639" width="237.189" height="92.7255" fill="white"/>
</g>
</g>
<defs>
<filter id="filter0_f_1417_146" x="-59.7877" y="-57.4602" width="335.255" height="190.793" filterUnits="userSpaceOnUse" color-interpolation-filters="sRGB">
<feFlood flood-opacity="0" result="BackgroundImageFix"/>
<feBlend mode="normal" in="SourceGraphic" in2="BackgroundImageFix" result="shape"/>
<feGaussianBlur stdDeviation="24.5169" result="effect1_foregroundBlur_1417_146"/>
</filter>
</defs>
</svg>
