<svg width="236" height="200" viewBox="0 0 236 200" fill="none" xmlns="http://www.w3.org/2000/svg">
<g style="mix-blend-mode:hard-light">
<path fill-rule="evenodd" clip-rule="evenodd" d="M139.842 0H179.398V98.0992L139.842 137.655H179.398V137.656H139.842L139.842 137.655L139.842 0Z" fill="url(#paint0_linear_1417_470)"/>
<path fill-rule="evenodd" clip-rule="evenodd" d="M55.9845 98.0993L95.5406 137.655H55.9844V137.656H179.4V98.0993H179.4V137.655H139.843L179.4 98.0993H55.9845Z" fill="url(#paint1_linear_1417_470)"/>
<path fill-rule="evenodd" clip-rule="evenodd" d="M95.5406 0H55.9844V98.0993L95.5405 137.655H55.9844V137.656H95.5406V0Z" fill="url(#paint2_linear_1417_470)"/>
</g>
<path d="M13.1926 200C10.8194 200 8.79509 199.602 7.11984 198.806C5.44458 197.981 4.07646 196.872 3.01546 195.479C1.98239 194.058 1.21456 192.451 0.711984 190.66C0.237328 188.84 0 186.936 0 184.945V169.464H6.86855V184.945C6.86855 186.083 6.98023 187.191 7.2036 188.272C7.42697 189.324 7.78994 190.262 8.29251 191.087C8.79509 191.911 9.43727 192.565 10.2191 193.048C11.0288 193.532 12.02 193.773 13.1926 193.773C14.3932 193.773 15.3984 193.532 16.2081 193.048C17.0178 192.537 17.66 191.868 18.1346 191.044C18.6093 190.191 18.9583 189.239 19.1817 188.187C19.405 187.135 19.5167 186.054 19.5167 184.945V169.464H26.3853V184.945C26.3853 187.049 26.12 189.011 25.5895 190.831C25.087 192.65 24.3052 194.257 23.2442 195.65C22.1832 197.015 20.8151 198.081 19.1398 198.849C17.4925 199.616 15.5101 200 13.1926 200Z" fill="#BCBCBC"/>
<path d="M31.2883 199.744V169.464H44.6904C46.0864 169.464 47.3708 169.763 48.5435 170.36C49.7441 170.928 50.7771 171.71 51.6427 172.705C52.5082 173.672 53.1783 174.767 53.653 175.989C54.1556 177.212 54.4069 178.449 54.4069 179.7C54.4069 180.951 54.2114 182.145 53.8205 183.282C53.4296 184.391 52.8712 185.4 52.1453 186.31C51.4193 187.191 50.5538 187.916 49.5486 188.485L56.0821 199.744H48.5016L42.8057 189.978H38.1569V199.744H31.2883ZM38.1569 183.879H44.4391C44.9975 183.879 45.4861 183.709 45.9049 183.367C46.3517 182.998 46.7147 182.5 46.9939 181.875C47.2731 181.249 47.4127 180.524 47.4127 179.7C47.4127 178.875 47.2452 178.164 46.9101 177.567C46.603 176.942 46.2121 176.458 45.7374 176.117C45.2628 175.776 44.7602 175.605 44.2297 175.605H38.1569V183.879Z" fill="#BCBCBC"/>
<path d="M83.5112 191.982C83.5112 193.717 83.0505 195.167 82.1291 196.332C81.2356 197.47 80.021 198.323 78.4854 198.891C76.9497 199.46 75.2605 199.744 73.4177 199.744H58.9268V169.464H75.4699C76.866 169.464 78.0666 169.848 79.0717 170.616C80.1048 171.355 80.8866 172.322 81.4171 173.516C81.9755 174.71 82.2547 175.947 82.2547 177.226C82.2547 178.648 81.8917 180.012 81.1658 181.32C80.4399 182.6 79.3789 183.566 77.9828 184.22C79.686 184.732 81.0262 185.642 82.0034 186.95C83.0086 188.258 83.5112 189.935 83.5112 191.982ZM76.517 190.575C76.517 189.921 76.3913 189.352 76.14 188.869C75.8887 188.357 75.5537 187.959 75.1349 187.675C74.744 187.362 74.2693 187.206 73.7109 187.206H65.7953V193.816H73.4177C74.0041 193.816 74.5206 193.674 74.9674 193.39C75.442 193.105 75.8189 192.721 76.0982 192.238C76.3774 191.755 76.517 191.2 76.517 190.575ZM65.7953 175.435V181.704H72.5382C73.0408 181.704 73.5015 181.59 73.9203 181.363C74.3671 181.135 74.73 180.794 75.0092 180.339C75.2884 179.856 75.428 179.259 75.428 178.548C75.428 177.866 75.3024 177.297 75.0511 176.842C74.8277 176.387 74.5206 176.046 74.1297 175.819C73.7388 175.563 73.2921 175.435 72.7895 175.435H65.7953Z" fill="#BCBCBC"/>
<path d="M93.9802 169.464H101.393L111.612 199.744H104.576L102.273 192.963H93.0169L90.7553 199.744H83.7193L93.9802 169.464ZM101.142 188.144L97.6658 176.501L94.1058 188.144H101.142Z" fill="#BCBCBC"/>
<path d="M120.99 182.429V199.744H114.122V169.464H119.566L133.345 187.291V169.464H140.214V199.744H134.602L120.99 182.429Z" fill="#BCBCBC"/>
<path d="M154.838 199.744V169.464H161.707V193.603H176.114V199.744H154.838Z" fill="#BCBCBC"/>
<path d="M178.919 199.744V169.464H185.787V199.744H178.919Z" fill="#BCBCBC"/>
<path d="M191.056 199.744V169.464H211.243V175.605H197.925V182.131H208.897V187.803H197.925V199.744H191.056Z" fill="#BCBCBC"/>
<path d="M235.381 193.603V199.744H214.482V169.464H235.004V175.605H221.35V181.491H233.077V187.163H221.35V193.603H235.381Z" fill="#BCBCBC"/>
<defs>
<linearGradient id="paint0_linear_1417_470" x1="159.62" y1="0" x2="159.62" y2="137.656" gradientUnits="userSpaceOnUse">
<stop stop-color="#C6C6C6"/>
<stop offset="1" stop-color="#8E8E8E"/>
</linearGradient>
<linearGradient id="paint1_linear_1417_470" x1="60.7311" y1="110.757" x2="175.444" y2="110.757" gradientUnits="userSpaceOnUse">
<stop stop-color="#747474"/>
<stop offset="1" stop-color="#D9D9D9"/>
</linearGradient>
<linearGradient id="paint2_linear_1417_470" x1="75.7625" y1="0" x2="75.7625" y2="137.656" gradientUnits="userSpaceOnUse">
<stop stop-color="#DDDDDD"/>
<stop offset="1" stop-color="#BABABA"/>
</linearGradient>
</defs>
</svg>
