<svg width="370" height="48" viewBox="0 0 370 48" fill="none" xmlns="http://www.w3.org/2000/svg">
<path d="M20.7378 48C17.0072 48 13.8252 47.3743 11.1918 46.1229C8.55846 44.8268 6.40787 43.0838 4.74007 40.8939C3.11616 38.6592 1.90919 36.1341 1.11918 33.3184C0.373061 30.4581 0 27.4637 0 24.3352V0H10.7968V24.3352C10.7968 26.1229 10.9724 27.8659 11.3235 29.5642C11.6746 31.2179 12.2452 32.6927 13.0352 33.9888C13.8252 35.2849 14.8347 36.3128 16.0636 37.0726C17.3364 37.8324 18.8944 38.2123 20.7378 38.2123C22.625 38.2123 24.2051 37.8324 25.4779 37.0726C26.7507 36.2682 27.7601 35.2179 28.5062 33.9218C29.2524 32.581 29.801 31.0838 30.1521 29.4302C30.5032 27.7765 30.6788 26.0782 30.6788 24.3352V0H41.4756V24.3352C41.4756 27.6425 41.0587 30.7263 40.2248 33.5866C39.4347 36.4469 38.2058 38.9721 36.538 41.162C34.8702 43.3073 32.7196 44.9832 30.0863 46.1899C27.4968 47.3966 24.3806 48 20.7378 48Z" fill="url(#paint0_linear_2067_458)"/>
<path d="M49.1828 47.5978V0H70.2498C72.4443 0 74.4632 0.469274 76.3066 1.40782C78.1938 2.30168 79.8177 3.53073 81.1783 5.09497C82.5389 6.61453 83.5922 8.3352 84.3384 10.257C85.1284 12.1788 85.5234 14.1229 85.5234 16.0894C85.5234 18.0559 85.2162 19.933 84.6017 21.7207C83.9872 23.4637 83.1094 25.0503 81.9683 26.4804C80.8272 27.8659 79.4666 29.0056 77.8866 29.8994L88.1568 47.5978H76.2407L67.2873 32.2458H59.9797V47.5978H49.1828ZM59.9797 22.6592H69.8548C70.7326 22.6592 71.5007 22.3911 72.159 21.8547C72.8613 21.2737 73.4318 20.4916 73.8707 19.5084C74.3096 18.5251 74.529 17.3855 74.529 16.0894C74.529 14.7933 74.2657 13.676 73.739 12.7374C73.2563 11.7542 72.6418 10.9944 71.8957 10.4581C71.1496 9.92179 70.3595 9.65363 69.5256 9.65363H59.9797V22.6592Z" fill="url(#paint1_linear_2067_458)"/>
<path d="M131.273 35.3966C131.273 38.1229 130.549 40.4022 129.101 42.2346C127.696 44.0223 125.787 45.3631 123.373 46.257C120.959 47.1508 118.304 47.5978 115.407 47.5978H92.6283V0H118.633C120.827 0 122.715 0.603352 124.295 1.81006C125.919 2.97207 127.147 4.49162 127.981 6.36872C128.859 8.24581 129.298 10.1899 129.298 12.2011C129.298 14.4358 128.727 16.581 127.586 18.6369C126.445 20.648 124.777 22.1676 122.583 23.1955C125.26 24 127.367 25.4302 128.903 27.486C130.483 29.5419 131.273 32.1788 131.273 35.3966ZM120.279 33.1844C120.279 32.1564 120.081 31.2626 119.686 30.5028C119.291 29.6983 118.765 29.0726 118.106 28.6257C117.492 28.1341 116.746 27.8883 115.868 27.8883H103.425V38.2793H115.407C116.329 38.2793 117.141 38.0559 117.843 37.6089C118.589 37.162 119.181 36.5587 119.62 35.7989C120.059 35.0391 120.279 34.1676 120.279 33.1844ZM103.425 9.38547V19.2402H114.024C114.814 19.2402 115.539 19.0615 116.197 18.7039C116.899 18.3464 117.47 17.8101 117.909 17.095C118.348 16.3352 118.567 15.3966 118.567 14.2793C118.567 13.2067 118.37 12.3128 117.975 11.5978C117.623 10.8827 117.141 10.3464 116.526 9.98882C115.912 9.58659 115.209 9.38547 114.419 9.38547H103.425Z" fill="url(#paint2_linear_2067_458)"/>
<path d="M147.73 0H159.382L175.446 47.5978H164.386L160.765 36.9385H146.215L142.66 47.5978H131.6L147.73 0ZM158.987 29.3631L153.523 11.0615L147.927 29.3631H158.987Z" fill="url(#paint3_linear_2067_458)"/>
<path d="M190.188 20.3799V47.5978H179.391V0H187.949L209.609 28.0223V0H220.405V47.5978H211.584L190.188 20.3799Z" fill="url(#paint4_linear_2067_458)"/>
<path d="M243.394 47.5978V0H254.191V37.9441H276.838V47.5978H243.394Z" fill="url(#paint5_linear_2067_458)"/>
<path d="M281.246 47.5978V0H292.043V47.5978H281.246Z" fill="url(#paint6_linear_2067_458)"/>
<path d="M300.325 47.5978V0H332.057V9.65363H311.122V19.9106H328.371V28.8268H311.122V47.5978H300.325Z" fill="url(#paint7_linear_2067_458)"/>
<path d="M370 37.9441V47.5978H337.149V0H369.408V9.65363H347.946V18.905H366.379V27.8212H347.946V37.9441H370Z" fill="url(#paint8_linear_2067_458)"/>
<defs>
<linearGradient id="paint0_linear_2067_458" x1="-27.182" y1="48" x2="83.3774" y2="226.014" gradientUnits="userSpaceOnUse">
<stop stop-color="#BCBCBC"/>
<stop offset="1" stop-color="#272727"/>
</linearGradient>
<linearGradient id="paint1_linear_2067_458" x1="-27.182" y1="48" x2="83.3774" y2="226.014" gradientUnits="userSpaceOnUse">
<stop stop-color="#BCBCBC"/>
<stop offset="1" stop-color="#272727"/>
</linearGradient>
<linearGradient id="paint2_linear_2067_458" x1="-27.182" y1="48" x2="83.3774" y2="226.014" gradientUnits="userSpaceOnUse">
<stop stop-color="#BCBCBC"/>
<stop offset="1" stop-color="#272727"/>
</linearGradient>
<linearGradient id="paint3_linear_2067_458" x1="-27.182" y1="48" x2="83.3774" y2="226.014" gradientUnits="userSpaceOnUse">
<stop stop-color="#BCBCBC"/>
<stop offset="1" stop-color="#272727"/>
</linearGradient>
<linearGradient id="paint4_linear_2067_458" x1="-27.182" y1="48" x2="83.3774" y2="226.014" gradientUnits="userSpaceOnUse">
<stop stop-color="#BCBCBC"/>
<stop offset="1" stop-color="#272727"/>
</linearGradient>
<linearGradient id="paint5_linear_2067_458" x1="-27.182" y1="48" x2="83.3774" y2="226.014" gradientUnits="userSpaceOnUse">
<stop stop-color="#BCBCBC"/>
<stop offset="1" stop-color="#272727"/>
</linearGradient>
<linearGradient id="paint6_linear_2067_458" x1="-27.182" y1="48" x2="83.3774" y2="226.014" gradientUnits="userSpaceOnUse">
<stop stop-color="#BCBCBC"/>
<stop offset="1" stop-color="#272727"/>
</linearGradient>
<linearGradient id="paint7_linear_2067_458" x1="-27.182" y1="48" x2="83.3774" y2="226.014" gradientUnits="userSpaceOnUse">
<stop stop-color="#BCBCBC"/>
<stop offset="1" stop-color="#272727"/>
</linearGradient>
<linearGradient id="paint8_linear_2067_458" x1="-27.182" y1="48" x2="83.3774" y2="226.014" gradientUnits="userSpaceOnUse">
<stop stop-color="#BCBCBC"/>
<stop offset="1" stop-color="#272727"/>
</linearGradient>
</defs>
</svg>
