<svg width="361" height="46" viewBox="0 0 361 46" fill="none" xmlns="http://www.w3.org/2000/svg">
<path d="M20.1378 45.5741C16.5597 45.5741 13.5077 44.9847 10.9819 43.806C8.49826 42.5853 6.47764 40.9225 4.92009 38.8177C3.40463 36.7129 2.28908 34.3344 1.57345 31.6824C0.857817 28.9882 0.5 26.1888 0.5 23.2842V0.426025H9.21389V23.2842C9.21389 25.1364 9.38227 26.9466 9.71904 28.7146C10.0979 30.4405 10.7083 31.9981 11.5502 33.3873C12.3921 34.7764 13.5077 35.8709 14.8969 36.6708C16.286 37.4706 18.012 37.8705 20.0747 37.8705C22.1795 37.8705 23.9265 37.4706 25.3156 36.6708C26.7469 35.8288 27.8625 34.7133 28.6623 33.3241C29.5042 31.9349 30.1146 30.3774 30.4935 28.6515C30.8723 26.8834 31.0618 25.0943 31.0618 23.2842V0.426025H39.7125V23.2842C39.7125 26.3572 39.3336 29.2408 38.5759 31.9349C37.8603 34.6291 36.7026 37.0075 35.103 39.0702C33.5454 41.0908 31.5248 42.6905 29.0411 43.8692C26.5575 45.0058 23.5897 45.5741 20.1378 45.5741Z" fill="white"/>
<path d="M48.4895 45.2584V0.426025H68.3168C70.3795 0.426025 72.2738 0.846986 73.9998 1.68891C75.7678 2.53083 77.2833 3.66742 78.5462 5.09869C79.8511 6.52996 80.8404 8.12961 81.5139 9.89765C82.2296 11.6657 82.5874 13.4758 82.5874 15.328C82.5874 17.2224 82.2506 19.0535 81.5771 20.8216C80.9456 22.5475 80.0195 24.063 78.7987 25.368C77.5779 26.6729 76.1467 27.6832 74.5049 28.3989L84.7343 45.2584H75.1364L65.9173 30.2301H57.2034V45.2584H48.4895ZM57.2034 22.5896H68.1274C69.2219 22.5896 70.1901 22.2739 71.032 21.6425C71.8739 20.9689 72.5475 20.0849 73.0526 18.9904C73.5578 17.8959 73.8103 16.6751 73.8103 15.328C73.8103 13.8968 73.5157 12.6549 72.9263 11.6025C72.337 10.508 71.5792 9.64507 70.6531 9.01363C69.7691 8.38219 68.8009 8.06646 67.7485 8.06646H57.2034V22.5896Z" fill="white"/>
<path d="M126.601 33.703C126.601 36.2287 125.949 38.3546 124.644 40.0805C123.339 41.7644 121.571 43.0483 119.34 43.9323C117.151 44.8163 114.751 45.2584 112.141 45.2584H90.4828V0.426025H114.478C116.582 0.426025 118.393 0.994323 119.908 2.13092C121.466 3.22542 122.644 4.65668 123.444 6.42472C124.286 8.15066 124.707 9.96079 124.707 11.8551C124.707 14.002 124.16 16.0437 123.065 17.9801C121.971 19.9165 120.371 21.3478 118.266 22.2739C120.834 23.0316 122.855 24.3997 124.328 26.3783C125.844 28.3568 126.601 30.7984 126.601 33.703ZM117.824 32.0612C117.824 30.9246 117.593 29.9143 117.13 29.0303C116.667 28.1042 116.035 27.3886 115.235 26.8834C114.478 26.3362 113.594 26.0625 112.583 26.0625H99.1967V37.8705H112.141C113.194 37.8705 114.141 37.6179 114.983 37.1128C115.867 36.5655 116.561 35.8499 117.067 34.9659C117.572 34.0818 117.824 33.1136 117.824 32.0612ZM99.1967 7.87703V19.1798H110.815C111.783 19.1798 112.667 18.9483 113.467 18.4852C114.267 18.0222 114.899 17.3697 115.362 16.5278C115.867 15.6859 116.119 14.6756 116.119 13.4969C116.119 12.3603 115.888 11.371 115.425 10.5291C115.004 9.68716 114.414 9.03467 113.657 8.57162C112.941 8.10856 112.12 7.87703 111.194 7.87703H99.1967Z" fill="white"/>
<path d="M144.601 0.426025H153.441L169.922 45.2584H160.956L156.788 34.0819H141.128L137.024 45.2584H128.058L144.601 0.426025ZM155.21 27.9569L149.021 9.45564L142.581 27.9569H155.21Z" fill="white"/>
<path d="M183.553 16.4646V45.2584H174.839V0.426025H181.785L204.959 29.9775V0.489169H213.673V45.2584H206.412L183.553 16.4646Z" fill="white"/>
<path d="M238.169 45.2584V0.426025H246.882V37.6179H269.741V45.2584H238.169Z" fill="white"/>
<path d="M275.044 45.2584V0.426025H283.758V45.2584H275.044Z" fill="white"/>
<path d="M293.111 45.2584V0.426025H323.231V8.06646H301.825V19.6218H319.632V26.694H301.825V45.2584H293.111Z" fill="white"/>
<path d="M360.5 37.6179V45.2584H329.37V0.426025H359.932V8.06646H338.084V18.8641H356.964V25.9363H338.084V37.6179H360.5Z" fill="white"/>
</svg>
