<svg width="235" height="200" viewBox="0 0 235 200" fill="none" xmlns="http://www.w3.org/2000/svg">
<path d="M0 167.194H5.05486V136.136H0V135.501H10.2463L18.6711 159.929H18.7622L27.1869 135.501H37.2511V136.136H32.1963V167.194H37.2511V167.83H22.5875V167.194H27.6423V136.409H27.5513L16.6674 167.876L5.82903 136.727H5.73795V167.194H10.7928V167.83H0V167.194Z" fill="white"/>
<path d="M46.7742 151.62C46.7742 154.344 46.9563 156.721 47.3206 158.749C47.6849 160.777 48.2921 162.472 49.1422 163.834C49.9923 165.197 51.0852 166.211 52.421 166.877C53.7568 167.543 55.4114 167.876 57.3848 167.876C59.3278 167.876 60.9672 167.543 62.3031 166.877C63.6692 166.211 64.7774 165.197 65.6274 163.834C66.4775 162.472 67.0847 160.777 67.449 158.749C67.8133 156.721 67.9955 154.344 67.9955 151.62C67.9955 149.531 67.8588 147.518 67.5856 145.581C67.3124 143.613 66.7811 141.873 65.9917 140.359C65.2327 138.815 64.155 137.589 62.7584 136.681C61.3923 135.773 59.6011 135.319 57.3848 135.319C55.1686 135.319 53.3622 135.773 51.9656 136.681C50.5995 137.589 49.5217 138.815 48.7323 140.359C47.9734 141.873 47.4572 143.613 47.184 145.581C46.9108 147.518 46.7742 149.531 46.7742 151.62ZM41.5371 151.62C41.5371 149.198 42.0077 146.958 42.9489 144.9C43.9204 142.841 45.1499 141.055 46.6375 139.542C48.1555 138.028 49.8557 136.848 51.7379 136C53.6202 135.122 55.5025 134.683 57.3848 134.683C59.3885 134.683 61.3315 135.122 63.2138 136C65.1265 136.848 66.8266 138.028 68.3142 139.542C69.8018 141.055 70.9859 142.841 71.8663 144.9C72.7771 146.958 73.2325 149.198 73.2325 151.62C73.2325 153.739 72.8226 155.812 72.0029 157.841C71.1832 159.869 70.0599 161.67 68.633 163.244C67.2061 164.818 65.5212 166.09 63.5781 167.058C61.6655 168.027 59.6011 168.511 57.3848 168.511C55.1078 168.511 52.9979 168.042 51.0549 167.104C49.1118 166.165 47.4269 164.924 46 163.38C44.6035 161.806 43.5105 160.005 42.7212 157.977C41.9318 155.918 41.5371 153.799 41.5371 151.62Z" fill="white"/>
<path d="M77.2869 167.194H82.3417V136.136H77.2869V135.501H87.0323L102.425 160.247H102.516V136.136H97.4608V135.501H108.254V136.136H103.199V168.466H102.288L83.1159 137.998H83.0248V167.194H88.0797V167.83H77.2869V167.194Z" fill="white"/>
<path d="M117.438 167.194H122.493V136.136H119.852C119.244 136.136 118.561 136.197 117.802 136.318C117.043 136.409 116.269 136.696 115.48 137.181C114.721 137.665 113.977 138.437 113.248 139.496C112.55 140.526 111.943 141.963 111.427 143.81H110.926V135.501H138.614V143.81H138.113C137.597 141.963 136.974 140.526 136.246 139.496C135.547 138.437 134.804 137.665 134.014 137.181C133.255 136.696 132.496 136.409 131.737 136.318C130.978 136.197 130.295 136.136 129.688 136.136H127.047V167.194H132.102V167.83H117.438V167.194Z" fill="white"/>
<path d="M151.656 140.722L146.647 153.936H156.665L151.656 140.722ZM136.856 167.194H140.863L153.159 134.683H154.252L166.638 167.194H170.691V167.83H156.665V167.194H161.72L156.939 154.571H146.374L141.592 167.194H146.647V167.83H136.856V167.194Z" fill="white"/>
<path d="M204.524 156.251H200.881V166.559H200.335C200.001 166.226 199.728 165.999 199.515 165.878C199.302 165.757 198.969 165.696 198.513 165.696C197.967 165.696 197.405 165.847 196.828 166.15C196.282 166.423 195.629 166.74 194.87 167.104C194.141 167.467 193.276 167.785 192.274 168.057C191.272 168.36 190.058 168.511 188.631 168.511C186.476 168.511 184.563 168.163 182.893 167.467C181.223 166.74 179.614 165.605 178.066 164.061C176.548 162.548 175.288 160.762 174.286 158.703C173.284 156.645 172.783 154.329 172.783 151.756C172.783 150.031 172.981 148.487 173.375 147.125C173.77 145.732 174.241 144.521 174.787 143.492C175.364 142.463 175.941 141.6 176.518 140.904C177.125 140.208 177.626 139.663 178.02 139.269C179.387 137.907 180.95 136.802 182.711 135.955C184.472 135.107 186.476 134.683 188.722 134.683C189.876 134.683 190.817 134.774 191.546 134.956C192.305 135.137 192.957 135.349 193.504 135.591C194.05 135.803 194.536 136 194.961 136.182C195.416 136.363 195.917 136.454 196.464 136.454C197.071 136.454 197.496 136.378 197.739 136.227C198.012 136.045 198.27 135.803 198.513 135.501H199.196V144.582H198.695C198.574 143.795 198.331 142.872 197.967 141.812C197.633 140.753 197.086 139.738 196.327 138.77C195.599 137.801 194.612 136.984 193.367 136.318C192.153 135.652 190.589 135.319 188.677 135.319C186.4 135.319 184.563 135.803 183.166 136.772C181.8 137.71 180.722 138.967 179.933 140.541C179.174 142.085 178.658 143.84 178.385 145.808C178.142 147.775 178.02 149.758 178.02 151.756C178.02 153.118 178.081 154.481 178.203 155.843C178.324 157.205 178.521 158.492 178.795 159.702C179.098 160.913 179.508 162.033 180.024 163.062C180.54 164.092 181.208 164.97 182.028 165.696C182.939 166.513 183.88 167.089 184.851 167.422C185.823 167.724 187.083 167.876 188.631 167.876C189.572 167.876 190.513 167.724 191.455 167.422C192.396 167.089 193.231 166.604 193.959 165.968C194.718 165.333 195.325 164.531 195.781 163.562C196.267 162.563 196.509 161.398 196.509 160.066V156.251H190.635V155.616H204.524V156.251Z" fill="white"/>
<path d="M206.888 167.194H211.943V136.136H206.888V135.501H232.936V143.356H232.435C232.041 142.175 231.616 141.146 231.16 140.268C230.705 139.36 230.158 138.603 229.521 137.998C228.883 137.362 228.124 136.893 227.244 136.59C226.363 136.288 225.301 136.136 224.056 136.136H216.497V150.167H219.457C220.458 150.167 221.309 150.076 222.007 149.894C222.705 149.713 223.297 149.38 223.783 148.896C224.299 148.381 224.724 147.7 225.058 146.852C225.422 145.974 225.771 144.854 226.105 143.492H226.606V157.614H226.105C225.893 156.736 225.665 155.888 225.422 155.071C225.21 154.254 224.891 153.527 224.466 152.891C224.071 152.256 223.525 151.756 222.826 151.393C222.159 150.999 221.278 150.803 220.185 150.803H216.497V167.194H225.103C226.773 167.194 228.155 166.846 229.247 166.15C230.371 165.424 231.282 164.576 231.98 163.607C232.678 162.608 233.194 161.579 233.528 160.52C233.862 159.46 234.075 158.582 234.166 157.886H234.667V167.83H206.888V167.194Z" fill="white"/>
<path d="M53.5119 189.628H55.8806C56.3612 189.628 56.7989 189.569 57.1937 189.449C57.5885 189.329 57.9232 189.124 58.1979 188.833C58.4897 188.524 58.7128 188.114 58.8673 187.6C59.0218 187.087 59.099 186.436 59.099 185.649C59.099 184.759 58.9789 184.049 58.7386 183.518C58.5154 182.971 58.215 182.56 57.8374 182.286C57.477 182.012 57.065 181.833 56.6016 181.747C56.1553 181.661 55.709 181.619 55.2627 181.619C54.9537 181.619 54.6362 181.627 54.3101 181.644C54.0011 181.644 53.735 181.661 53.5119 181.696V189.628ZM53.5119 199.256C53.7179 199.273 53.941 199.298 54.1813 199.333C54.4388 199.35 54.7992 199.358 55.2627 199.358C56.0694 199.358 56.756 199.281 57.3225 199.127C57.9061 198.973 58.3781 198.708 58.7386 198.331C59.1162 197.938 59.3908 197.424 59.5625 196.791C59.7341 196.158 59.82 195.362 59.82 194.403C59.82 193.034 59.5281 191.956 58.9445 191.169C58.3609 190.381 57.4941 189.988 56.3441 189.988H53.5119V199.256ZM48.0792 199.256H50.9372V181.696H48.0792V181.336H52.585C52.8425 181.336 53.0999 181.336 53.3574 181.336C53.632 181.319 53.9067 181.302 54.1813 181.285C54.456 181.285 54.722 181.285 54.9795 181.285C55.2369 181.268 55.4858 181.259 55.7261 181.259C56.9792 181.259 58.0091 181.413 58.8158 181.721C59.6226 182.012 60.2577 182.38 60.7211 182.825C61.1846 183.253 61.5021 183.724 61.6738 184.237C61.8454 184.734 61.9312 185.187 61.9312 185.598C61.9312 186.163 61.8025 186.685 61.545 187.164C61.3047 187.643 60.97 188.062 60.5409 188.422C60.1289 188.781 59.6483 189.072 59.099 189.295C58.5498 189.517 57.9747 189.663 57.374 189.731V189.782C57.9919 189.834 58.6184 189.971 59.2535 190.193C59.9058 190.399 60.4894 190.698 61.0043 191.092C61.5364 191.468 61.9656 191.939 62.2917 192.504C62.6178 193.069 62.7809 193.719 62.7809 194.455C62.7809 195.225 62.635 195.935 62.3432 196.586C62.0514 197.219 61.6137 197.767 61.0301 198.229C60.4465 198.691 59.7084 199.059 58.8158 199.333C57.9232 199.589 56.8848 199.718 55.7004 199.718C55.4601 199.718 55.2198 199.709 54.9795 199.692C54.7563 199.692 54.516 199.683 54.2586 199.666C54.0011 199.649 53.735 199.632 53.4604 199.615C53.1858 199.615 52.894 199.615 52.585 199.615H48.0792V199.256Z" fill="white"/>
<path d="M69.7067 199.256H72.5646V191.888L66.7715 181.696H64.4285V181.336H72.3071V181.696H69.7324L74.8819 190.732L79.7481 181.696H77.1476V181.336H82.6575V181.696H80.16L75.1393 191.066V199.256H77.9973V199.615H69.7067V199.256Z" fill="white"/>
<path d="M86.901 181.336H94.8568V181.696H91.9989L97.7148 196.586L103.353 181.696H100.547V181.336H106.108V181.696H103.791L96.8651 200H96.2215L89.2182 181.696H86.901V181.336Z" fill="white"/>
<path d="M111.267 184.289L108.435 191.759H114.099L111.267 184.289ZM102.899 199.256H105.165L112.117 180.874H112.734L119.738 199.256H122.029V199.615H114.099V199.256H116.957L114.254 192.119H108.28L105.577 199.256H108.435V199.615H102.899V199.256Z" fill="white"/>
<path d="M122.781 199.256H125.639V181.696H122.781V181.336H131.072V181.696H128.214V199.256H132.797C134.307 199.256 135.492 198.785 136.35 197.844C137.208 196.902 137.835 195.619 138.23 193.993H138.513V199.615H122.781V199.256Z" fill="white"/>
<path d="M144.346 190.45C144.346 191.99 144.449 193.334 144.655 194.48C144.861 195.627 145.205 196.586 145.685 197.356C146.166 198.126 146.784 198.699 147.539 199.076C148.294 199.452 149.23 199.641 150.346 199.641C151.444 199.641 152.371 199.452 153.126 199.076C153.899 198.699 154.525 198.126 155.006 197.356C155.486 196.586 155.83 195.627 156.036 194.48C156.242 193.334 156.345 191.99 156.345 190.45C156.345 189.269 156.267 188.131 156.113 187.035C155.958 185.923 155.658 184.939 155.212 184.083C154.783 183.21 154.173 182.517 153.384 182.004C152.611 181.49 151.599 181.234 150.346 181.234C149.092 181.234 148.071 181.49 147.282 182.004C146.509 182.517 145.9 183.21 145.454 184.083C145.024 184.939 144.733 185.923 144.578 187.035C144.424 188.131 144.346 189.269 144.346 190.45ZM141.385 190.45C141.385 189.081 141.652 187.814 142.184 186.65C142.733 185.487 143.428 184.477 144.269 183.621C145.127 182.765 146.089 182.098 147.153 181.619C148.217 181.122 149.281 180.874 150.346 180.874C151.478 180.874 152.577 181.122 153.641 181.619C154.723 182.098 155.684 182.765 156.525 183.621C157.366 184.477 158.035 185.487 158.533 186.65C159.048 187.814 159.306 189.081 159.306 190.45C159.306 191.648 159.074 192.82 158.61 193.967C158.147 195.114 157.512 196.132 156.705 197.022C155.898 197.912 154.946 198.631 153.847 199.178C152.766 199.726 151.599 200 150.346 200C149.058 200 147.865 199.735 146.767 199.204C145.668 198.674 144.715 197.972 143.909 197.099C143.119 196.209 142.501 195.191 142.055 194.044C141.609 192.88 141.385 191.682 141.385 190.45Z" fill="white"/>
<path d="M167.262 189.628H169.631C170.112 189.628 170.549 189.569 170.944 189.449C171.339 189.329 171.674 189.124 171.948 188.833C172.24 188.524 172.463 188.114 172.618 187.6C172.772 187.087 172.849 186.436 172.849 185.649C172.849 184.759 172.729 184.049 172.489 183.518C172.266 182.971 171.965 182.56 171.588 182.286C171.227 182.012 170.815 181.833 170.352 181.747C169.906 181.661 169.459 181.619 169.013 181.619C168.704 181.619 168.387 181.627 168.06 181.644C167.751 181.644 167.485 181.661 167.262 181.696V189.628ZM161.83 199.256H164.687V181.696H161.83V181.336H166.722C166.927 181.336 167.133 181.336 167.339 181.336C167.545 181.319 167.751 181.302 167.957 181.285C168.163 181.285 168.369 181.285 168.575 181.285C168.781 181.268 168.987 181.259 169.193 181.259C170.206 181.259 171.099 181.319 171.871 181.439C172.643 181.542 173.364 181.858 174.034 182.389C174.634 182.851 175.055 183.373 175.295 183.955C175.553 184.537 175.682 185.084 175.682 185.598C175.682 185.855 175.63 186.188 175.527 186.599C175.441 186.993 175.235 187.403 174.909 187.831C174.6 188.242 174.145 188.627 173.545 188.987C172.944 189.329 172.146 189.56 171.15 189.68V189.731C171.425 189.765 171.794 189.834 172.257 189.936C172.738 190.022 173.218 190.176 173.699 190.399C174.197 190.621 174.652 190.921 175.064 191.297C175.476 191.657 175.767 192.127 175.939 192.709C176.042 193.051 176.111 193.445 176.145 193.89C176.196 194.318 176.231 194.763 176.248 195.225C176.282 195.687 176.308 196.132 176.325 196.56C176.36 196.988 176.411 197.347 176.48 197.638C176.583 198.083 176.746 198.485 176.969 198.845C177.192 199.204 177.552 199.384 178.05 199.384C178.273 199.384 178.505 199.341 178.745 199.256C178.986 199.17 179.2 199.033 179.389 198.845L179.621 199.127C179.535 199.196 179.432 199.273 179.312 199.358C179.209 199.427 179.072 199.495 178.9 199.564C178.728 199.632 178.514 199.683 178.256 199.718C178.016 199.769 177.716 199.795 177.355 199.795C176.669 199.795 176.093 199.709 175.63 199.538C175.184 199.367 174.823 199.119 174.549 198.793C174.274 198.451 174.068 198.04 173.931 197.561C173.811 197.065 173.725 196.491 173.673 195.841L173.493 193.505C173.424 192.649 173.253 191.982 172.978 191.502C172.703 191.023 172.377 190.672 172 190.45C171.639 190.227 171.262 190.099 170.867 190.065C170.472 190.013 170.129 189.988 169.837 189.988H167.262V199.256H170.12V199.615H161.83V199.256Z" fill="white"/>
<path d="M180.488 199.256H183.346V181.696H180.488V181.336H188.779V181.696H185.921V199.256H188.779V199.615H180.488V199.256Z" fill="white"/>
<path d="M150.888 18.717C150.816 18.7596 147.026 21.0176 146.955 21.0602C143.407 23.4743 138.278 27.0814 138.249 35.9145C138.221 41.1547 138.392 45.6138 138.321 48.525C138.264 50.8256 137.508 53.0551 136.141 54.8445L117.233 79.7105V94.8631L187.378 0L150.888 18.717ZM147.625 38.0446C145.616 29.7796 156.701 26.201 156.986 27.195C157.129 27.6921 149.848 36.0139 148.052 38.2292C147.896 38.4139 147.668 38.2861 147.611 38.0588" fill="#D2A749"/>
<path d="M149.648 52.5581L141.398 63.422C141.199 63.6776 141.099 64.0042 141.085 64.345L140.9 79.6254C140.9 80.1224 140.643 80.591 140.244 80.8609L138.135 82.281C133.305 85.533 130.441 91.0004 130.541 96.8087L130.598 100.089L147.269 87.3365C148.48 86.4135 149.392 85.0928 149.848 83.5732C150.047 82.8916 150.147 82.1958 150.133 81.4857L149.634 52.5439L149.648 52.5581Z" fill="#D2A749"/>
<path d="M47.1019 0L117.233 94.8773V79.7248L98.3251 54.8587C96.9573 53.0694 96.2021 50.8398 96.1451 48.5392C96.0881 45.628 96.2448 41.1689 96.2163 35.9287C96.1879 27.0814 91.0584 23.4886 87.5105 21.0744C87.4393 21.0318 83.6492 18.7596 83.578 18.7312L47.1019 0ZM86.4134 38.2009C84.6181 35.9855 77.3371 27.6637 77.4796 27.1666C77.7646 26.1726 88.8499 29.7512 86.8409 38.0162C86.7839 38.2577 86.5559 38.3713 86.3991 38.1867" fill="#D2A749"/>
<path d="M84.8318 52.5581L93.0817 63.422C93.2812 63.6776 93.3809 64.0042 93.3951 64.345L93.5804 79.6254C93.5804 80.1224 93.8368 80.591 94.2358 80.8609L95.5182 81.7271C100.861 85.32 104.024 91.3696 103.91 97.7885L103.868 100.089L87.1971 87.3365C85.9859 86.4135 85.074 85.0928 84.6181 83.5732C84.4186 82.8916 84.3189 82.1958 84.3331 81.4857L84.8318 52.5439V52.5581Z" fill="#D2A749"/>
</svg>
