<svg width="285" height="110" viewBox="0 0 285 110" fill="none" xmlns="http://www.w3.org/2000/svg">
<g opacity="0.4">
<mask id="path-1-inside-1_1325_521" fill="white">
<path d="M37.8378 41.5725V14.4777L27.2557 34.6535H22.7787L12.1966 14.4777V41.5725H4.17282V0.290717H12.778L24.9881 23.7806L37.3145 0.290717H45.8616V41.5725H37.8378Z"/>
<path d="M72.0979 41.8632C69.0745 41.8632 66.3223 41.2818 63.8415 40.1189C61.3995 38.9561 59.287 37.3862 57.5039 35.4093C55.7596 33.3937 54.4029 31.1455 53.4339 28.6647C52.4648 26.1451 51.9803 23.5674 51.9803 20.9316C51.9803 18.1795 52.4842 15.563 53.492 13.0823C54.5386 10.5627 55.9534 8.33389 57.7365 6.39577C59.5583 4.4189 61.6902 2.86841 64.1323 1.7443C66.613 0.581433 69.3264 0 72.2723 0C75.257 0 77.9704 0.600815 80.4124 1.80245C82.8932 3.00407 85.0057 4.61271 86.75 6.62835C88.4943 8.64398 89.851 10.8922 90.8201 13.373C91.7891 15.8538 92.2737 18.4121 92.2737 21.0479C92.2737 23.7613 91.7698 26.3777 90.7619 28.8973C89.7541 31.378 88.3393 33.6069 86.5175 35.5837C84.7344 37.5219 82.6025 39.053 80.1217 40.1771C77.6797 41.3012 75.0051 41.8632 72.0979 41.8632ZM60.1204 20.9316C60.1204 22.7147 60.3917 24.4396 60.9344 26.1064C61.4771 27.7732 62.2523 29.2655 63.2601 30.5834C64.3067 31.8626 65.5665 32.8898 67.0394 33.665C68.5512 34.4015 70.2567 34.7697 72.1561 34.7697C74.0942 34.7697 75.8191 34.3821 77.3308 33.6069C78.8425 32.7929 80.1023 31.7269 81.1101 30.409C82.1179 29.0523 82.8738 27.56 83.3777 25.9319C83.9204 24.2652 84.1917 22.5984 84.1917 20.9316C84.1917 19.1486 83.901 17.443 83.3196 15.815C82.7769 14.1482 81.9823 12.6753 80.9357 11.3961C79.9279 10.0782 78.6681 9.05099 77.1564 8.3145C75.6834 7.53926 74.0166 7.15164 72.1561 7.15164C70.1792 7.15164 68.4349 7.55864 66.9231 8.37265C65.4502 9.14789 64.2098 10.1945 63.202 11.5124C62.1942 12.8303 61.4189 14.3033 60.8762 15.9313C60.3723 17.5593 60.1204 19.2261 60.1204 20.9316Z"/>
<path d="M106.452 15.0591V41.5725H98.4287V0.290717H104.824L126.163 27.5018V0.348859H134.187V41.5725H127.5L106.452 15.0591Z"/>
<path d="M173.648 7.32606H160.45V41.5725H152.484V7.32606H139.286V0.290717H173.648V7.32606Z"/>
<path d="M186.134 0.290717H194.274L209.449 41.5725H201.193L197.356 31.2811H182.936L179.157 41.5725H170.9L186.134 0.290717ZM195.902 25.6412L190.204 8.60522L184.273 25.6412H195.902Z"/>
<path d="M229.54 41.8632C226.865 41.8632 224.326 41.3206 221.923 40.2352C219.558 39.1499 217.465 37.6575 215.643 35.7582C213.86 33.8201 212.465 31.5719 211.457 29.0135C210.449 26.4552 209.945 23.6837 209.945 20.699C209.945 17.8694 210.449 15.2142 211.457 12.7334C212.465 10.2139 213.88 8.0044 215.702 6.10506C217.523 4.2057 219.655 2.71336 222.097 1.62801C224.539 0.542671 227.195 0 230.063 0C233.939 0 237.253 0.833388 240.006 2.50016C242.796 4.12818 244.89 6.29887 246.285 9.01222L240.296 13.4311C239.25 11.3767 237.777 9.80685 235.877 8.72151C234.017 7.63616 231.982 7.09349 229.772 7.09349C228.028 7.09349 226.439 7.46173 225.005 8.19822C223.57 8.9347 222.33 9.94252 221.283 11.2217C220.237 12.5008 219.423 13.9738 218.841 15.6406C218.299 17.3073 218.027 19.071 218.027 20.9316C218.027 22.9085 218.318 24.7303 218.899 26.3971C219.52 28.0639 220.372 29.5175 221.458 30.7578C222.582 31.9982 223.88 32.9867 225.353 33.7232C226.826 34.4209 228.454 34.7697 230.237 34.7697C232.331 34.7697 234.327 34.2271 236.226 33.1417C238.164 32.0564 239.967 30.4671 241.634 28.374V36.2815C238.184 40.0026 234.152 41.8632 229.54 41.8632ZM241.052 26.2227H232.738V20.3502H247.68V41.5725H241.052V26.2227Z"/>
<path d="M283.183 34.5372V41.5725H254.519V0.290717H282.66V7.32606H262.542V17.2686H279.927V23.7806H262.542V34.5372H283.183Z"/>
<path d="M33.4846 99.069C33.4846 101.395 32.8838 103.352 31.6821 104.942C30.4805 106.492 28.8525 107.674 26.7981 108.488C24.7824 109.302 22.573 109.709 20.1697 109.709H0.226562V68.4275H22.321C24.2592 68.4275 25.9259 68.9508 27.3214 69.9974C28.7556 71.0052 29.8409 72.3231 30.5774 73.9511C31.3527 75.5404 31.7403 77.2071 31.7403 78.9514C31.7403 80.9283 31.2364 82.8083 30.2285 84.5913C29.2207 86.3744 27.7478 87.6923 25.8096 88.5451C28.1741 89.2428 30.0347 90.5026 31.3914 92.3244C32.7869 94.1462 33.4846 96.3945 33.4846 99.069ZM25.4026 97.5573C25.4026 96.5107 25.1895 95.5804 24.7631 94.7664C24.3367 93.9137 23.7552 93.2547 23.0188 92.7896C22.321 92.2857 21.507 92.0337 20.5767 92.0337H8.25035V102.907H20.1697C21.1388 102.907 22.0109 102.674 22.7862 102.209C23.6002 101.705 24.2398 101.046 24.7049 100.232C25.1701 99.4179 25.4026 98.5264 25.4026 97.5573ZM8.25035 75.2884V85.6961H18.9487C19.8403 85.6961 20.6543 85.4829 21.3908 85.0565C22.1272 84.6301 22.7087 84.0293 23.1351 83.254C23.6002 82.4788 23.8328 81.5485 23.8328 80.4632C23.8328 79.4166 23.6196 78.5057 23.1932 77.7304C22.8056 76.9552 22.2629 76.3544 21.5652 75.928C20.9062 75.5016 20.1504 75.2884 19.2976 75.2884H8.25035Z"/>
<path d="M42.5236 68.4275L52.6987 87.8474L63.0482 68.4275H71.7116L56.7106 95.2897V109.709H48.7449V95.1734L33.8021 68.4275H42.5236Z"/>
<path d="M90.3234 68.4275L101.487 100.174L112.534 68.4275H120.965L105.324 109.709H97.5913L81.8926 68.4275H90.3234Z"/>
<path d="M133.243 68.4275H141.383L156.558 109.709H148.302L144.464 99.4179H130.045L126.265 109.709H118.009L133.243 68.4275ZM143.011 93.778L137.313 76.742L131.382 93.778H143.011Z"/>
<path d="M161.086 109.709V68.4275H169.11V102.674H190.158V109.709H161.086Z"/>
<path d="M211.75 110C208.726 110 205.974 109.419 203.494 108.256C201.052 107.093 198.939 105.523 197.156 103.546C195.412 101.53 194.055 99.2822 193.086 96.8015C192.117 94.2819 191.632 91.7042 191.632 89.0684C191.632 86.3163 192.136 83.6998 193.144 81.219C194.191 78.6995 195.605 76.4707 197.388 74.5325C199.21 72.5557 201.342 71.0052 203.784 69.8811C206.265 68.7182 208.978 68.1368 211.924 68.1368C214.909 68.1368 217.622 68.7376 220.064 69.9392C222.545 71.1408 224.658 72.7495 226.402 74.7651C228.146 76.7808 229.503 79.029 230.472 81.5097C231.441 83.9905 231.926 86.5488 231.926 89.1847C231.926 91.898 231.422 94.5145 230.414 97.034C229.406 99.5148 227.991 101.744 226.169 103.721C224.386 105.659 222.254 107.19 219.774 108.314C217.332 109.438 214.657 110 211.75 110ZM199.772 89.0684C199.772 90.8514 200.044 92.5764 200.586 94.2431C201.129 95.9099 201.904 97.4023 202.912 98.7202C203.959 99.9993 205.218 101.027 206.691 101.802C208.203 102.538 209.909 102.907 211.808 102.907C213.746 102.907 215.471 102.519 216.983 101.744C218.495 100.93 219.754 99.8637 220.762 98.5458C221.77 97.1891 222.526 95.6967 223.03 94.0687C223.572 92.4019 223.844 90.7352 223.844 89.0684C223.844 87.2853 223.553 85.5798 222.972 83.9518C222.429 82.285 221.634 80.812 220.588 79.5329C219.58 78.215 218.32 77.1878 216.808 76.4513C215.335 75.676 213.669 75.2884 211.808 75.2884C209.831 75.2884 208.087 75.6954 206.575 76.5094C205.102 77.2847 203.862 78.3312 202.854 79.6492C201.846 80.9671 201.071 82.44 200.528 84.0681C200.024 85.6961 199.772 87.3628 199.772 89.0684Z"/>
<path d="M238.081 109.709V68.4275H256.338C258.237 68.4275 259.981 68.8151 261.571 69.5904C263.199 70.3656 264.594 71.4122 265.757 72.7301C266.959 74.048 267.869 75.521 268.49 77.149C269.149 78.777 269.478 80.4438 269.478 82.1493C269.478 83.8936 269.168 85.5798 268.548 87.2078C267.966 88.7971 267.114 90.1925 265.989 91.3941C264.865 92.5957 263.547 93.526 262.036 94.185L271.455 109.709H262.617L254.128 95.8712H246.104V109.709H238.081ZM246.104 88.8358H256.163C257.171 88.8358 258.063 88.5451 258.838 87.9637C259.613 87.3435 260.233 86.5295 260.698 85.5216C261.164 84.5138 261.396 83.3897 261.396 82.1493C261.396 80.8314 261.125 79.6879 260.582 78.7189C260.039 77.711 259.342 76.9164 258.489 76.335C257.675 75.7536 256.783 75.4628 255.814 75.4628H246.104V88.8358Z"/>
<path d="M276.748 109.709V68.4275H284.772V109.709H276.748Z"/>
</mask>
<path d="M37.8378 41.5725V14.4777L27.2557 34.6535H22.7787L12.1966 14.4777V41.5725H4.17282V0.290717H12.778L24.9881 23.7806L37.3145 0.290717H45.8616V41.5725H37.8378Z" stroke="white" stroke-width="2" mask="url(#path-1-inside-1_1325_521)"/>
<path d="M72.0979 41.8632C69.0745 41.8632 66.3223 41.2818 63.8415 40.1189C61.3995 38.9561 59.287 37.3862 57.5039 35.4093C55.7596 33.3937 54.4029 31.1455 53.4339 28.6647C52.4648 26.1451 51.9803 23.5674 51.9803 20.9316C51.9803 18.1795 52.4842 15.563 53.492 13.0823C54.5386 10.5627 55.9534 8.33389 57.7365 6.39577C59.5583 4.4189 61.6902 2.86841 64.1323 1.7443C66.613 0.581433 69.3264 0 72.2723 0C75.257 0 77.9704 0.600815 80.4124 1.80245C82.8932 3.00407 85.0057 4.61271 86.75 6.62835C88.4943 8.64398 89.851 10.8922 90.8201 13.373C91.7891 15.8538 92.2737 18.4121 92.2737 21.0479C92.2737 23.7613 91.7698 26.3777 90.7619 28.8973C89.7541 31.378 88.3393 33.6069 86.5175 35.5837C84.7344 37.5219 82.6025 39.053 80.1217 40.1771C77.6797 41.3012 75.0051 41.8632 72.0979 41.8632ZM60.1204 20.9316C60.1204 22.7147 60.3917 24.4396 60.9344 26.1064C61.4771 27.7732 62.2523 29.2655 63.2601 30.5834C64.3067 31.8626 65.5665 32.8898 67.0394 33.665C68.5512 34.4015 70.2567 34.7697 72.1561 34.7697C74.0942 34.7697 75.8191 34.3821 77.3308 33.6069C78.8425 32.7929 80.1023 31.7269 81.1101 30.409C82.1179 29.0523 82.8738 27.56 83.3777 25.9319C83.9204 24.2652 84.1917 22.5984 84.1917 20.9316C84.1917 19.1486 83.901 17.443 83.3196 15.815C82.7769 14.1482 81.9823 12.6753 80.9357 11.3961C79.9279 10.0782 78.6681 9.05099 77.1564 8.3145C75.6834 7.53926 74.0166 7.15164 72.1561 7.15164C70.1792 7.15164 68.4349 7.55864 66.9231 8.37265C65.4502 9.14789 64.2098 10.1945 63.202 11.5124C62.1942 12.8303 61.4189 14.3033 60.8762 15.9313C60.3723 17.5593 60.1204 19.2261 60.1204 20.9316Z" stroke="white" stroke-width="2" mask="url(#path-1-inside-1_1325_521)"/>
<path d="M106.452 15.0591V41.5725H98.4287V0.290717H104.824L126.163 27.5018V0.348859H134.187V41.5725H127.5L106.452 15.0591Z" stroke="white" stroke-width="2" mask="url(#path-1-inside-1_1325_521)"/>
<path d="M173.648 7.32606H160.45V41.5725H152.484V7.32606H139.286V0.290717H173.648V7.32606Z" stroke="white" stroke-width="2" mask="url(#path-1-inside-1_1325_521)"/>
<path d="M186.134 0.290717H194.274L209.449 41.5725H201.193L197.356 31.2811H182.936L179.157 41.5725H170.9L186.134 0.290717ZM195.902 25.6412L190.204 8.60522L184.273 25.6412H195.902Z" stroke="white" stroke-width="2" mask="url(#path-1-inside-1_1325_521)"/>
<path d="M229.54 41.8632C226.865 41.8632 224.326 41.3206 221.923 40.2352C219.558 39.1499 217.465 37.6575 215.643 35.7582C213.86 33.8201 212.465 31.5719 211.457 29.0135C210.449 26.4552 209.945 23.6837 209.945 20.699C209.945 17.8694 210.449 15.2142 211.457 12.7334C212.465 10.2139 213.88 8.0044 215.702 6.10506C217.523 4.2057 219.655 2.71336 222.097 1.62801C224.539 0.542671 227.195 0 230.063 0C233.939 0 237.253 0.833388 240.006 2.50016C242.796 4.12818 244.89 6.29887 246.285 9.01222L240.296 13.4311C239.25 11.3767 237.777 9.80685 235.877 8.72151C234.017 7.63616 231.982 7.09349 229.772 7.09349C228.028 7.09349 226.439 7.46173 225.005 8.19822C223.57 8.9347 222.33 9.94252 221.283 11.2217C220.237 12.5008 219.423 13.9738 218.841 15.6406C218.299 17.3073 218.027 19.071 218.027 20.9316C218.027 22.9085 218.318 24.7303 218.899 26.3971C219.52 28.0639 220.372 29.5175 221.458 30.7578C222.582 31.9982 223.88 32.9867 225.353 33.7232C226.826 34.4209 228.454 34.7697 230.237 34.7697C232.331 34.7697 234.327 34.2271 236.226 33.1417C238.164 32.0564 239.967 30.4671 241.634 28.374V36.2815C238.184 40.0026 234.152 41.8632 229.54 41.8632ZM241.052 26.2227H232.738V20.3502H247.68V41.5725H241.052V26.2227Z" stroke="white" stroke-width="2" mask="url(#path-1-inside-1_1325_521)"/>
<path d="M283.183 34.5372V41.5725H254.519V0.290717H282.66V7.32606H262.542V17.2686H279.927V23.7806H262.542V34.5372H283.183Z" stroke="white" stroke-width="2" mask="url(#path-1-inside-1_1325_521)"/>
<path d="M33.4846 99.069C33.4846 101.395 32.8838 103.352 31.6821 104.942C30.4805 106.492 28.8525 107.674 26.7981 108.488C24.7824 109.302 22.573 109.709 20.1697 109.709H0.226562V68.4275H22.321C24.2592 68.4275 25.9259 68.9508 27.3214 69.9974C28.7556 71.0052 29.8409 72.3231 30.5774 73.9511C31.3527 75.5404 31.7403 77.2071 31.7403 78.9514C31.7403 80.9283 31.2364 82.8083 30.2285 84.5913C29.2207 86.3744 27.7478 87.6923 25.8096 88.5451C28.1741 89.2428 30.0347 90.5026 31.3914 92.3244C32.7869 94.1462 33.4846 96.3945 33.4846 99.069ZM25.4026 97.5573C25.4026 96.5107 25.1895 95.5804 24.7631 94.7664C24.3367 93.9137 23.7552 93.2547 23.0188 92.7896C22.321 92.2857 21.507 92.0337 20.5767 92.0337H8.25035V102.907H20.1697C21.1388 102.907 22.0109 102.674 22.7862 102.209C23.6002 101.705 24.2398 101.046 24.7049 100.232C25.1701 99.4179 25.4026 98.5264 25.4026 97.5573ZM8.25035 75.2884V85.6961H18.9487C19.8403 85.6961 20.6543 85.4829 21.3908 85.0565C22.1272 84.6301 22.7087 84.0293 23.1351 83.254C23.6002 82.4788 23.8328 81.5485 23.8328 80.4632C23.8328 79.4166 23.6196 78.5057 23.1932 77.7304C22.8056 76.9552 22.2629 76.3544 21.5652 75.928C20.9062 75.5016 20.1504 75.2884 19.2976 75.2884H8.25035Z" stroke="white" stroke-width="2" mask="url(#path-1-inside-1_1325_521)"/>
<path d="M42.5236 68.4275L52.6987 87.8474L63.0482 68.4275H71.7116L56.7106 95.2897V109.709H48.7449V95.1734L33.8021 68.4275H42.5236Z" stroke="white" stroke-width="2" mask="url(#path-1-inside-1_1325_521)"/>
<path d="M90.3234 68.4275L101.487 100.174L112.534 68.4275H120.965L105.324 109.709H97.5913L81.8926 68.4275H90.3234Z" stroke="white" stroke-width="2" mask="url(#path-1-inside-1_1325_521)"/>
<path d="M133.243 68.4275H141.383L156.558 109.709H148.302L144.464 99.4179H130.045L126.265 109.709H118.009L133.243 68.4275ZM143.011 93.778L137.313 76.742L131.382 93.778H143.011Z" stroke="white" stroke-width="2" mask="url(#path-1-inside-1_1325_521)"/>
<path d="M161.086 109.709V68.4275H169.11V102.674H190.158V109.709H161.086Z" stroke="white" stroke-width="2" mask="url(#path-1-inside-1_1325_521)"/>
<path d="M211.75 110C208.726 110 205.974 109.419 203.494 108.256C201.052 107.093 198.939 105.523 197.156 103.546C195.412 101.53 194.055 99.2822 193.086 96.8015C192.117 94.2819 191.632 91.7042 191.632 89.0684C191.632 86.3163 192.136 83.6998 193.144 81.219C194.191 78.6995 195.605 76.4707 197.388 74.5325C199.21 72.5557 201.342 71.0052 203.784 69.8811C206.265 68.7182 208.978 68.1368 211.924 68.1368C214.909 68.1368 217.622 68.7376 220.064 69.9392C222.545 71.1408 224.658 72.7495 226.402 74.7651C228.146 76.7808 229.503 79.029 230.472 81.5097C231.441 83.9905 231.926 86.5488 231.926 89.1847C231.926 91.898 231.422 94.5145 230.414 97.034C229.406 99.5148 227.991 101.744 226.169 103.721C224.386 105.659 222.254 107.19 219.774 108.314C217.332 109.438 214.657 110 211.75 110ZM199.772 89.0684C199.772 90.8514 200.044 92.5764 200.586 94.2431C201.129 95.9099 201.904 97.4023 202.912 98.7202C203.959 99.9993 205.218 101.027 206.691 101.802C208.203 102.538 209.909 102.907 211.808 102.907C213.746 102.907 215.471 102.519 216.983 101.744C218.495 100.93 219.754 99.8637 220.762 98.5458C221.77 97.1891 222.526 95.6967 223.03 94.0687C223.572 92.4019 223.844 90.7352 223.844 89.0684C223.844 87.2853 223.553 85.5798 222.972 83.9518C222.429 82.285 221.634 80.812 220.588 79.5329C219.58 78.215 218.32 77.1878 216.808 76.4513C215.335 75.676 213.669 75.2884 211.808 75.2884C209.831 75.2884 208.087 75.6954 206.575 76.5094C205.102 77.2847 203.862 78.3312 202.854 79.6492C201.846 80.9671 201.071 82.44 200.528 84.0681C200.024 85.6961 199.772 87.3628 199.772 89.0684Z" stroke="white" stroke-width="2" mask="url(#path-1-inside-1_1325_521)"/>
<path d="M238.081 109.709V68.4275H256.338C258.237 68.4275 259.981 68.8151 261.571 69.5904C263.199 70.3656 264.594 71.4122 265.757 72.7301C266.959 74.048 267.869 75.521 268.49 77.149C269.149 78.777 269.478 80.4438 269.478 82.1493C269.478 83.8936 269.168 85.5798 268.548 87.2078C267.966 88.7971 267.114 90.1925 265.989 91.3941C264.865 92.5957 263.547 93.526 262.036 94.185L271.455 109.709H262.617L254.128 95.8712H246.104V109.709H238.081ZM246.104 88.8358H256.163C257.171 88.8358 258.063 88.5451 258.838 87.9637C259.613 87.3435 260.233 86.5295 260.698 85.5216C261.164 84.5138 261.396 83.3897 261.396 82.1493C261.396 80.8314 261.125 79.6879 260.582 78.7189C260.039 77.711 259.342 76.9164 258.489 76.335C257.675 75.7536 256.783 75.4628 255.814 75.4628H246.104V88.8358Z" stroke="white" stroke-width="2" mask="url(#path-1-inside-1_1325_521)"/>
<path d="M276.748 109.709V68.4275H284.772V109.709H276.748Z" stroke="white" stroke-width="2" mask="url(#path-1-inside-1_1325_521)"/>
</g>
</svg>
