<svg width="243" height="29" viewBox="0 0 243 29" fill="none" xmlns="http://www.w3.org/2000/svg">
<path d="M146.734 12.8058H148.418C148.761 12.8058 149.072 12.763 149.352 12.6776C149.633 12.5922 149.871 12.4457 150.066 12.2382C150.274 12.0185 150.432 11.7256 150.542 11.3594C150.652 10.9933 150.707 10.5295 150.707 9.96805C150.707 9.33341 150.622 8.82685 150.45 8.44851C150.292 8.05792 150.079 7.765 149.81 7.56974C149.553 7.37448 149.26 7.24633 148.931 7.18528C148.614 7.12423 148.297 7.09374 147.979 7.09374C147.759 7.09374 147.534 7.09986 147.302 7.11205C147.082 7.11205 146.893 7.12423 146.734 7.14866V12.8058ZM146.734 19.6712C146.88 19.6833 147.04 19.7016 147.21 19.7261C147.393 19.7383 147.649 19.7444 147.979 19.7444C148.553 19.7444 149.041 19.6895 149.444 19.5796C149.859 19.4698 150.194 19.2806 150.45 19.0121C150.719 18.7313 150.915 18.3652 151.036 17.9136C151.159 17.462 151.219 16.8945 151.219 16.211C151.219 15.2346 151.012 14.4656 150.597 13.9042C150.182 13.3428 149.566 13.0621 148.748 13.0621H146.734V19.6712ZM142.871 19.6712H144.903V7.14866H142.871V6.89233H146.075C146.258 6.89233 146.441 6.89233 146.624 6.89233C146.82 6.88012 147.015 6.86791 147.21 6.85571C147.406 6.85571 147.594 6.85571 147.778 6.85571C147.961 6.84351 148.138 6.8374 148.308 6.8374C149.2 6.8374 149.932 6.94725 150.505 7.16697C151.079 7.37448 151.531 7.63684 151.86 7.9542C152.19 8.25931 152.416 8.59497 152.538 8.96113C152.66 9.3151 152.721 9.63851 152.721 9.93144C152.721 10.3342 152.629 10.7065 152.446 11.0482C152.276 11.3899 152.038 11.689 151.732 11.9453C151.439 12.2016 151.098 12.4091 150.707 12.5678C150.317 12.7264 149.908 12.8302 149.48 12.879V12.9156C149.92 12.9522 150.365 13.0499 150.817 13.2085C151.281 13.355 151.695 13.5686 152.062 13.8493C152.44 14.1178 152.745 14.4534 152.977 14.8562C153.209 15.259 153.325 15.7228 153.325 16.2476C153.325 16.7968 153.221 17.3033 153.014 17.7671C152.807 18.2187 152.495 18.6093 152.08 18.9388C151.665 19.2684 151.141 19.5308 150.505 19.7261C149.871 19.9092 149.132 20.0007 148.29 20.0007C148.12 20.0007 147.949 19.9946 147.778 19.9824C147.619 19.9824 147.448 19.9763 147.265 19.9641C147.082 19.9519 146.893 19.9396 146.697 19.9275C146.502 19.9275 146.295 19.9275 146.075 19.9275H142.871V19.6712Z" fill="white"/>
<path d="M158.268 19.6709H160.3V14.4166L156.181 7.14841H154.515V6.89209H160.117V7.14841H158.286L161.948 13.5927L165.408 7.14841H163.559V6.89209H167.477V7.14841H165.701L162.131 13.8307V19.6709H164.163V19.9272H158.268V19.6709Z" fill="white"/>
<path d="M170.493 6.89209H176.15V7.14841H174.118L178.182 17.7669L182.192 7.14841H180.196V6.89209H184.151V7.14841H182.503L177.578 20.2018H177.121L172.141 7.14841H170.493V6.89209Z" fill="white"/>
<path d="M187.819 8.99754L185.805 14.3251H189.833L187.819 8.99754ZM181.869 19.6709H183.48L188.423 6.56262H188.863L193.842 19.6709H195.472V19.9273H189.833V19.6709H191.865L189.943 14.5814H185.695L183.773 19.6709H185.805V19.9273H181.869V19.6709Z" fill="white"/>
<path d="M196.007 19.6709H198.039V7.14841H196.007V6.89209H201.902V7.14841H199.87V19.6709H203.129C204.202 19.6709 205.045 19.3352 205.655 18.664C206.265 17.9927 206.711 17.0773 206.991 15.9178H207.193V19.9272H196.007V19.6709Z" fill="white"/>
<path d="M211.341 13.3914C211.341 14.4899 211.414 15.448 211.56 16.2657C211.707 17.0834 211.951 17.7669 212.293 18.3162C212.634 18.8654 213.074 19.2743 213.611 19.5428C214.147 19.8113 214.813 19.9456 215.606 19.9456C216.387 19.9456 217.046 19.8113 217.584 19.5428C218.133 19.2743 218.578 18.8654 218.92 18.3162C219.262 17.7669 219.506 17.0834 219.652 16.2657C219.799 15.448 219.872 14.4899 219.872 13.3914C219.872 12.5492 219.817 11.7376 219.707 10.9565C219.598 10.1631 219.383 9.46136 219.067 8.85107C218.761 8.22861 218.328 7.7343 217.767 7.36815C217.218 7.00201 216.497 6.81893 215.606 6.81893C214.715 6.81893 213.989 7.00201 213.428 7.36815C212.879 7.7343 212.445 8.22861 212.128 8.85107C211.822 9.46136 211.615 10.1631 211.506 10.9565C211.396 11.7376 211.341 12.5492 211.341 13.3914ZM209.235 13.3914C209.235 12.415 209.424 11.5118 209.803 10.6818C210.193 9.85187 210.687 9.13182 211.286 8.52154C211.896 7.91125 212.579 7.43525 213.336 7.09353C214.093 6.73959 214.849 6.56262 215.606 6.56262C216.412 6.56262 217.193 6.73959 217.95 7.09353C218.719 7.43525 219.402 7.91125 220 8.52154C220.598 9.13182 221.074 9.85187 221.428 10.6818C221.794 11.5118 221.978 12.415 221.978 13.3914C221.978 14.2457 221.813 15.0818 221.483 15.8996C221.154 16.7173 220.702 17.4435 220.128 18.0782C219.555 18.7128 218.877 19.2254 218.096 19.616C217.327 20.0066 216.497 20.2019 215.606 20.2019C214.691 20.2019 213.843 20.0127 213.062 19.6343C212.28 19.256 211.603 18.7556 211.03 18.1331C210.468 17.4985 210.028 16.7722 209.711 15.9545C209.394 15.1245 209.235 14.2702 209.235 13.3914Z" fill="white"/>
<path d="M227.634 12.8058H229.319C229.661 12.8058 229.972 12.763 230.252 12.6776C230.533 12.5922 230.771 12.4457 230.966 12.2382C231.174 12.0185 231.333 11.7256 231.442 11.3594C231.552 10.9933 231.607 10.5295 231.607 9.96805C231.607 9.33341 231.522 8.82685 231.351 8.44851C231.192 8.05792 230.979 7.765 230.71 7.56974C230.454 7.37448 230.161 7.24633 229.831 7.18528C229.514 7.12423 229.197 7.09374 228.879 7.09374C228.66 7.09374 228.434 7.09986 228.202 7.11205C227.982 7.11205 227.794 7.12423 227.634 7.14866V12.8058ZM223.771 19.6712H225.804V7.14866H223.771V6.89233H227.25C227.396 6.89233 227.543 6.89233 227.689 6.89233C227.836 6.88012 227.982 6.86791 228.129 6.85571C228.275 6.85571 228.422 6.85571 228.568 6.85571C228.715 6.84351 228.861 6.8374 229.008 6.8374C229.728 6.8374 230.362 6.88012 230.912 6.96556C231.461 7.03879 231.973 7.26463 232.449 7.64297C232.877 7.97251 233.176 8.34479 233.346 8.75974C233.53 9.17469 233.621 9.56528 233.621 9.93144C233.621 10.1145 233.584 10.3525 233.511 10.6454C233.451 10.9262 233.304 11.2191 233.072 11.5242C232.852 11.8171 232.529 12.0918 232.102 12.3481C231.675 12.5922 231.107 12.757 230.399 12.8424V12.879C230.595 12.9034 230.857 12.9522 231.186 13.0254C231.528 13.0865 231.87 13.1963 232.211 13.355C232.566 13.5136 232.889 13.7273 233.182 13.9958C233.475 14.2521 233.682 14.5877 233.804 15.0027C233.877 15.2468 233.927 15.5275 233.951 15.8448C233.987 16.1499 234.012 16.4673 234.024 16.7968C234.048 17.1264 234.067 17.4437 234.079 17.7488C234.103 18.0539 234.14 18.3103 234.189 18.5178C234.262 18.8351 234.378 19.1219 234.536 19.3782C234.696 19.6345 234.952 19.7627 235.305 19.7627C235.464 19.7627 235.629 19.7322 235.8 19.6712C235.971 19.6101 236.124 19.5125 236.257 19.3782L236.422 19.5796C236.362 19.6284 236.288 19.6833 236.202 19.7444C236.129 19.7932 236.032 19.842 235.91 19.8908C235.788 19.9396 235.635 19.9763 235.452 20.0007C235.281 20.0373 235.067 20.0556 234.811 20.0556C234.323 20.0556 233.914 19.9946 233.584 19.8725C233.268 19.7505 233.011 19.5735 232.816 19.3416C232.62 19.0975 232.474 18.8046 232.376 18.4628C232.291 18.1089 232.23 17.7 232.193 17.2362L232.065 15.5702C232.016 14.9599 231.894 14.4839 231.699 14.1422C231.504 13.8005 231.272 13.5502 231.003 13.3916C230.747 13.233 230.478 13.1414 230.198 13.117C229.917 13.0804 229.673 13.0621 229.465 13.0621H227.634V19.6712H229.667V19.9275H223.771V19.6712Z" fill="white"/>
<path d="M237.039 19.6709H239.071V7.14841H237.039V6.89209H242.934V7.14841H240.902V19.6709H242.934V19.9272H237.039V19.6709Z" fill="white"/>
<path d="M0 19.6709H2.03216V7.14841H0V6.89209H4.11924L7.50617 16.7417H7.54279L10.9297 6.89209H14.9757V7.14841H12.9436V19.6709H14.9757V19.9272H9.08064V19.6709H11.1128V7.25825H11.0762L6.70063 19.9455L2.34339 7.38641H2.30677V19.6709H4.33893V19.9272H0V19.6709Z" fill="white"/>
<path d="M18.8036 13.3914C18.8036 14.4899 18.8769 15.448 19.0233 16.2657C19.1698 17.0834 19.4139 17.7669 19.7556 18.3162C20.0974 18.8654 20.5368 19.2743 21.0738 19.5428C21.6108 19.8113 22.276 19.9456 23.0693 19.9456C23.8505 19.9456 24.5096 19.8113 25.0466 19.5428C25.5958 19.2743 26.0413 18.8654 26.383 18.3162C26.7248 17.7669 26.9689 17.0834 27.1153 16.2657C27.2618 15.448 27.335 14.4899 27.335 13.3914C27.335 12.5492 27.2801 11.7376 27.1703 10.9565C27.0604 10.1631 26.8469 9.46136 26.5295 8.85107C26.2244 8.22861 25.7911 7.7343 25.2296 7.36815C24.6804 7.00201 23.9604 6.81893 23.0693 6.81893C22.1784 6.81893 21.4522 7.00201 20.8907 7.36815C20.3415 7.7343 19.9082 8.22861 19.5909 8.85107C19.2858 9.46136 19.0782 10.1631 18.9684 10.9565C18.8586 11.7376 18.8036 12.5492 18.8036 13.3914ZM16.6982 13.3914C16.6982 12.415 16.8874 11.5118 17.2658 10.6818C17.6564 9.85187 18.1507 9.13182 18.7487 8.52154C19.359 7.91125 20.0425 7.43525 20.7992 7.09353C21.5559 6.73959 22.3127 6.56262 23.0693 6.56262C23.8749 6.56262 24.6561 6.73959 25.4127 7.09353C26.1816 7.43525 26.8652 7.91125 27.4632 8.52154C28.0613 9.13182 28.5373 9.85187 28.8912 10.6818C29.2574 11.5118 29.4404 12.415 29.4404 13.3914C29.4404 14.2457 29.2757 15.0818 28.9461 15.8996C28.6166 16.7173 28.165 17.4435 27.5913 18.0782C27.0177 18.7128 26.3404 19.2254 25.5592 19.616C24.7903 20.0066 23.9604 20.2019 23.0693 20.2019C22.1539 20.2019 21.3057 20.0127 20.5246 19.6343C19.7435 19.256 19.0661 18.7556 18.4924 18.1331C17.931 17.4985 17.4916 16.7722 17.1742 15.9545C16.857 15.1245 16.6982 14.2702 16.6982 13.3914Z" fill="white"/>
<path d="M31.0713 19.6709H33.1034V7.14841H31.0713V6.89209H34.9891L41.1772 16.8698H41.2138V7.14841H39.1816V6.89209H43.5205V7.14841H41.4884V20.1835H41.1222L33.4147 7.89902H33.3781V19.6709H35.4102V19.9272H31.0713V19.6709Z" fill="white"/>
<path d="M47.2127 19.6709H49.2449V7.14841H48.183C47.939 7.14841 47.6644 7.17284 47.3592 7.22164C47.0541 7.25825 46.7429 7.37422 46.4255 7.56948C46.1204 7.76474 45.8213 8.07597 45.5284 8.50318C45.2478 8.91813 45.0036 9.49792 44.7961 10.2424H44.5947V6.89209H55.7258V10.2424H55.5244C55.317 9.49792 55.0668 8.91813 54.7738 8.50318C54.4932 8.07597 54.1941 7.76474 53.8767 7.56948C53.5716 7.37422 53.2665 7.25825 52.9614 7.22164C52.6563 7.17284 52.3816 7.14841 52.1375 7.14841H51.0757V19.6709H53.1078V19.9272H47.2127V19.6709Z" fill="white"/>
<path d="M60.9686 8.99754L58.9547 14.3251H62.9824L60.9686 8.99754ZM55.0186 19.6709H56.6296L61.5727 6.56262H62.0121L66.9918 19.6709H68.6212V19.9273H62.9824V19.6709H65.0146L63.0923 14.5814H58.8449L56.9226 19.6709H58.9547V19.9273H55.0186V19.6709Z" fill="white"/>
<path d="M82.2231 15.2588H80.7585V19.4146H80.5388C80.405 19.2804 80.2952 19.1888 80.2092 19.14C80.124 19.0912 79.9896 19.0668 79.8065 19.0668C79.5868 19.0668 79.3615 19.1278 79.1291 19.2499C78.9094 19.3597 78.6475 19.4879 78.3419 19.6343C78.0489 19.7808 77.7011 19.9089 77.2983 20.0188C76.8956 20.1408 76.4076 20.2019 75.8337 20.2019C74.9676 20.2019 74.1987 20.0615 73.5269 19.7808C72.8559 19.4879 72.2088 19.0302 71.5863 18.4077C70.9765 17.7974 70.4695 17.0774 70.067 16.2474C69.6643 15.4174 69.4629 14.4837 69.4629 13.4463C69.4629 12.7506 69.5422 12.1282 69.7009 11.5789C69.8595 11.0175 70.0487 10.5293 70.2684 10.1143C70.5005 9.69936 70.7322 9.35151 70.9638 9.07077C71.2082 8.79003 71.4096 8.57033 71.568 8.41169C72.1172 7.86246 72.746 7.41695 73.4537 7.07522C74.1621 6.7335 74.9676 6.56262 75.8703 6.56262C76.3343 6.56262 76.7125 6.59924 77.0054 6.67247C77.311 6.7457 77.5729 6.83113 77.7926 6.92878C78.0123 7.01421 78.2081 7.09353 78.3785 7.16676C78.5616 7.23999 78.7629 7.27661 78.9826 7.27661C79.227 7.27661 79.3981 7.24612 79.4952 7.18507C79.6051 7.11184 79.7093 7.01421 79.8065 6.89216H80.0811V10.5537H79.8797C79.8311 10.2363 79.7332 9.86413 79.5868 9.43692C79.453 9.00972 79.2333 8.60089 78.9277 8.2103C78.6348 7.81972 78.2384 7.49018 77.7377 7.22169C77.2497 6.95319 76.6209 6.81893 75.852 6.81893C74.9366 6.81893 74.1987 7.01421 73.6368 7.40476C73.0875 7.7831 72.6545 8.28966 72.3369 8.92431C72.032 9.54677 71.8243 10.2546 71.7145 11.048C71.6173 11.8414 71.568 12.6408 71.568 13.4463C71.568 13.9955 71.5926 14.5448 71.6412 15.094C71.6905 15.6432 71.7694 16.162 71.8792 16.6502C72.0017 17.1384 72.1665 17.59 72.3735 18.0049C72.5813 18.4199 72.8495 18.7739 73.1791 19.0668C73.5452 19.3963 73.9241 19.6282 74.3142 19.7625C74.705 19.8845 75.2112 19.9456 75.8337 19.9456C76.2125 19.9456 76.5907 19.8845 76.9688 19.7625C77.3476 19.6282 77.6828 19.4329 77.9757 19.1766C78.2813 18.9203 78.5249 18.5969 78.708 18.2063C78.9038 17.8036 79.0009 17.3337 79.0009 16.7966V15.2588H76.6392V15.0025H82.2231V15.2588Z" fill="white"/>
<path d="M83.1738 19.6709H85.206V7.14841H83.1738V6.89209H93.6459V10.0593H93.4445C93.2853 9.58333 93.1149 9.16838 92.9319 8.81441C92.7488 8.44825 92.5291 8.14315 92.2728 7.89902C92.0165 7.64271 91.7109 7.45351 91.3574 7.33148C91.0032 7.20945 90.5758 7.14841 90.0758 7.14841H87.0368V12.8055H88.2268C88.6295 12.8055 88.971 12.7689 89.252 12.6956C89.5323 12.6224 89.7703 12.4881 89.966 12.2929C90.173 12.0854 90.3441 11.8108 90.4786 11.469C90.6251 11.1151 90.7652 10.6635 90.8997 10.1143H91.1011V15.808H90.8997C90.8138 15.454 90.7223 15.1123 90.6251 14.7827C90.5392 14.4532 90.411 14.1603 90.2406 13.904C90.0815 13.6477 89.8618 13.4463 89.5815 13.2998C89.3126 13.1412 88.9591 13.0618 88.5197 13.0618H87.0368V19.6709H90.4969C91.168 19.6709 91.7235 19.5306 92.1629 19.2498C92.6143 18.9569 92.9804 18.6152 93.2614 18.2246C93.5416 17.8218 93.7494 17.4069 93.8839 16.9797C94.0176 16.5525 94.1035 16.1986 94.1402 15.9178H94.3416V19.9272H83.1738V19.6709Z" fill="white"/>
<path d="M127.819 5.48746C127.799 5.49915 126.762 6.11867 126.743 6.13036C125.772 6.79275 124.369 7.78246 124.361 10.206C124.353 11.6437 124.4 12.8671 124.38 13.6659C124.365 14.2971 124.159 14.9089 123.784 15.3998L118.611 22.2223V26.3798L137.801 0.352051L127.819 5.48746ZM126.926 10.7904C126.377 8.52272 129.409 7.54087 129.487 7.81358C129.526 7.94997 127.534 10.2332 127.043 10.841C127 10.8917 126.938 10.8567 126.922 10.7943" fill="#D2A749"/>
<path d="M127.479 14.7726L125.222 17.7533C125.167 17.8234 125.14 17.913 125.136 18.0065L125.085 22.199C125.085 22.3354 125.015 22.464 124.906 22.5381L124.329 22.9277C123.008 23.82 122.224 25.3201 122.252 26.9137L122.267 27.8137L126.828 24.3148C127.159 24.0615 127.409 23.6991 127.533 23.2823C127.588 23.0952 127.615 22.9043 127.611 22.7094L127.475 14.7687L127.479 14.7726Z" fill="#D2A749"/>
<path d="M99.4248 0.352051L118.611 26.3837V22.2263L113.438 15.4037C113.064 14.9128 112.857 14.3011 112.842 13.6698C112.826 12.8711 112.869 11.6476 112.861 10.2099C112.854 7.78246 111.45 6.79664 110.48 6.13426C110.46 6.12257 109.423 5.49915 109.404 5.49136L99.4248 0.352051ZM110.179 10.8333C109.688 10.2254 107.696 7.94216 107.735 7.80583C107.813 7.53305 110.846 8.51491 110.296 10.7826C110.281 10.8489 110.219 10.8801 110.176 10.8294" fill="#D2A749"/>
<path d="M109.747 14.7726L112.004 17.7533C112.059 17.8234 112.086 17.913 112.09 18.0065L112.141 22.199C112.141 22.3354 112.21 22.464 112.319 22.5381L112.671 22.7757C114.133 23.7615 114.998 25.4213 114.966 27.1825L114.955 27.8137L110.394 24.3148C110.063 24.0615 109.813 23.6991 109.689 23.2823C109.634 23.0952 109.607 22.9043 109.611 22.7094L109.747 14.7687V14.7726Z" fill="#D2A749"/>
</svg>
