<svg width="350" height="70" viewBox="0 0 350 70" fill="none" xmlns="http://www.w3.org/2000/svg">
<g clip-path="url(#clip0_963_1216)">
<mask id="mask0_963_1216" style="mask-type:luminance" maskUnits="userSpaceOnUse" x="0" y="0" width="350" height="70">
<path d="M350 0H0V69.5719H350V0Z" fill="white"/>
</mask>
<g mask="url(#mask0_963_1216)">
<path d="M50.8434 62.5063L49.8044 69.3984H0.107422C2.1637 64.6303 2.03383 61.9428 2.03383 58.4967V11.1185C2.03383 7.78078 2.1637 4.85486 0.107422 0.216736H14.9992H48.5922L48.6788 7.23894C47.7698 6.8705 47.0338 6.54539 46.3628 6.24196C44.5663 5.57008 42.2935 4.94156 39.9343 4.96322C36.168 4.96322 20.3671 4.96322 13.3542 4.96322V32.055H44.5446L43.0079 37.3867H13.3542V64.5003C19.0901 64.5003 37.4235 64.5003 41.4711 64.5003C46.2113 64.587 50.93 61.8995 50.93 61.8995L50.8 62.4846C50.8 62.5063 50.8217 62.5063 50.8434 62.5063ZM125.648 69.3984C126.319 65.9957 126.319 61.1842 125.779 57.2614L121.362 24.6644L97.2503 69.3768H92.6615L68.1594 22.6488L63.3974 57.9766C62.878 62.0512 62.7265 67.2095 63.1594 69.3984H54.5447C56.2113 65.8657 56.6225 64.3269 57.4019 58.5184L65.194 0.216736H69.155L97.7481 54.6172L126.319 0.216736H129.307L137.359 58.3883C138.159 64.1752 138.765 65.8441 140.367 69.3984H125.648ZM198.224 69.3984L186.753 44.0622H163.679L152.358 69.3984H151.384H143.398H143.355C146.211 65.8441 147.185 64.1968 149.199 59.7755L175.952 0.216736H178.961L205.28 58.1066C208.094 63.7633 209.415 65.5189 213.44 69.3984H198.224ZM270.41 69.3984L258.938 44.0622H235.865L224.545 69.3984H223.592H215.583H215.54C218.397 65.8441 219.371 64.1968 221.384 59.7755L248.137 0.216736H251.146L277.488 58.1066C280.302 63.7633 281.623 65.5189 285.648 69.3984H270.41ZM335.822 69.4418C328.917 63.1348 319.977 54.7689 308.787 41.5047C305.583 37.7552 303.333 37.2784 301.882 37.1917V58.4967C301.882 61.9212 301.882 64.6303 303.83 69.3984H288.636C290.692 64.6303 290.562 61.9428 290.562 58.4967V11.0752C290.562 7.73744 290.692 4.81151 288.636 0.17339H303.527C313.701 0.17339 337.748 -0.736898 337.748 19.1593C337.748 29.671 329.414 35.3278 319.632 36.7582L316.731 37.04C316.731 37.04 348.462 68.0981 349.826 69.4418H335.822ZM317.835 32.792L317.813 32.8137C324.22 30.3862 326.384 24.296 326.168 19.1377C325.929 14.1744 323.701 3.38106 301.904 4.248V33.7456C301.904 33.7456 314.112 34.4175 317.532 32.922C317.726 32.8353 317.835 32.792 317.835 32.792ZM238.073 39.229H256.709L247.315 18.5742L238.073 39.229ZM165.909 39.229H184.544L175.151 18.5742L165.909 39.229Z" fill="white"/>
</g>
</g>
<defs>
<clipPath id="clip0_963_1216">
<rect width="350" height="69.5719" fill="white"/>
</clipPath>
</defs>
</svg>
