<svg width="40" height="8" viewBox="0 0 40 8" fill="none" xmlns="http://www.w3.org/2000/svg">
<g clip-path="url(#clip0_963_1228)">
<mask id="mask0_963_1228" style="mask-type:luminance" maskUnits="userSpaceOnUse" x="0" y="0" width="40" height="8">
<path d="M40 0H0V7.95107H40V0Z" fill="white"/>
</mask>
<g mask="url(#mask0_963_1228)">
<path d="M5.81011 7.14403L5.69137 7.9317H0.0117188C0.246722 7.38677 0.23188 7.07962 0.23188 6.68579V1.27113C0.23188 0.889678 0.246722 0.555288 0.0117188 0.0252163H1.71363H5.55284L5.56274 0.827754C5.45885 0.785646 5.37474 0.748491 5.29805 0.713814C5.09273 0.637027 4.83299 0.565196 4.56336 0.567672C4.13293 0.567672 2.32712 0.567672 1.52563 0.567672V3.66388H5.09026L4.91463 4.27321H1.52563V7.3719C2.18117 7.3719 4.27641 7.3719 4.73899 7.3719C5.28073 7.38181 5.82001 7.07467 5.82001 7.07467L5.80516 7.14154C5.80516 7.14403 5.80764 7.14403 5.81011 7.14403ZM14.3592 7.9317C14.4359 7.54282 14.4359 6.99293 14.3741 6.5446L13.8694 2.81923L11.1138 7.92923H10.5893L7.78908 2.58888L7.24486 6.62634C7.1855 7.09201 7.16818 7.68153 7.21766 7.9317H6.23312C6.42359 7.52795 6.47059 7.35209 6.55965 6.68826L7.45019 0.0252163H7.90287L11.1707 6.24241L14.4359 0.0252163H14.7773L15.6976 6.6734C15.7891 7.33475 15.8583 7.52548 16.0414 7.9317H14.3592ZM22.6537 7.9317L21.3426 5.03612H18.7056L17.4118 7.9317H17.3005H16.3877H16.3828C16.7093 7.52548 16.8206 7.33723 17.0507 6.83193L20.1082 0.0252163H20.4521L23.46 6.6412C23.7816 7.28768 23.9326 7.48832 24.3926 7.9317H22.6537ZM30.9034 7.9317L29.5924 5.03612H26.9554L25.6617 7.9317H25.5529H24.6375H24.6326C24.9591 7.52548 25.0704 7.33723 25.3005 6.83193L28.358 0.0252163H28.7019L31.7124 6.6412C32.034 7.28768 32.1849 7.48832 32.645 7.9317H30.9034ZM38.379 7.93665C37.5899 7.21586 36.5683 6.25975 35.2894 4.74384C34.9233 4.31533 34.666 4.26083 34.5003 4.25093V6.68579C34.5003 7.07715 34.5003 7.38677 34.7229 7.9317H32.9864C33.2214 7.38677 33.2066 7.07962 33.2066 6.68579V1.26618C33.2066 0.884725 33.2214 0.550334 32.9864 0.0202624H34.6883C35.851 0.0202624 38.5992 -0.0837705 38.5992 2.19008C38.5992 3.39142 37.6468 4.03791 36.5288 4.20138L36.1973 4.23359C36.1973 4.23359 39.8237 7.78308 39.9795 7.93665H38.379ZM36.3234 3.7481L36.3209 3.75058C37.0532 3.47315 37.3005 2.77713 37.2758 2.18761C37.2485 1.62038 36.9938 0.386854 34.5027 0.485932V3.85709C34.5027 3.85709 35.8979 3.93387 36.2888 3.76296C36.311 3.75305 36.3234 3.7481 36.3234 3.7481ZM27.2078 4.48376H29.3376L28.2641 2.12321L27.2078 4.48376ZM18.9604 4.48376H21.0902L20.0167 2.12321L18.9604 4.48376Z" fill="#D2A749"/>
</g>
</g>
<defs>
<clipPath id="clip0_963_1228">
<rect width="40" height="7.95107" fill="white"/>
</clipPath>
</defs>
</svg>
