<svg width="22" height="31" viewBox="0 0 22 31" fill="none" xmlns="http://www.w3.org/2000/svg">
<path opacity="0.9" d="M13.3048 7.6501C12.712 8.2572 11.8994 8.6255 10.9923 8.6255H10.6678V1.9741H10.9923C11.8994 1.9741 12.712 2.3451 13.3048 2.9495C13.9001 3.5514 14.2655 4.3789 14.2655 5.2998C14.2655 6.2208 13.9001 7.0457 13.3048 7.6501ZM10.6653 24.3149H10.9898C12.2112 24.3149 13.315 23.8142 14.1147 22.9997C14.9171 22.1877 15.4102 21.067 15.4102 19.8244C15.4102 18.5818 14.9171 17.4638 14.1147 16.6492C13.315 15.8372 12.2112 15.3366 10.9898 15.3366H10.6653V13.4973H10.9898C12.712 13.4973 14.2655 14.2055 15.3949 15.3495C16.5243 16.4987 17.2218 18.076 17.2218 19.8244C17.2218 21.5729 16.5243 23.1527 15.3949 24.2993C14.2655 25.4459 12.712 26.1515 10.9898 26.1515H10.6653V24.3149ZM14.9656 9.4038L14.5236 9.23L14.843 8.8746C15.6938 7.9329 16.2125 6.6799 16.2125 5.2998C16.2125 2.371 13.8746 0 10.9923 0H8.197V25.5134L7.7013 25.1995C7.2976 24.9427 6.9245 24.6418 6.5872 24.2993C6.4211 24.1307 6.2678 23.9517 6.1222 23.7701L6.0506 23.6793V0H5.3429V20.3303H3.7254C3.8481 22.1747 4.6325 23.8298 5.8437 25.0568C7.1672 26.398 8.9814 27.2229 10.9974 27.2229C13.0109 27.2229 14.8276 26.3954 16.1487 25.0568C17.4697 23.7131 18.2848 21.8712 18.2848 19.8244C18.2848 17.7777 17.4697 15.9358 16.1487 14.5946C14.8276 13.2535 13.0109 12.4285 10.9974 12.4285C10.4966 12.4285 10.0111 12.4778 9.541 12.5738L9.1526 12.6542V10.7242L9.4209 10.6775C9.9345 10.5893 10.4609 10.5426 10.9974 10.5426C16.0465 10.5426 20.1398 14.6984 20.1398 19.827C20.1398 24.9556 16.0465 29.1115 10.9974 29.1141C6.112 29.1141 2.1233 25.2254 1.8627 20.3329H0C0.2606 26.2683 5.0822 31 10.9949 31C16.9075 31 22 25.9985 22 19.827C22 15.0797 19.082 11.0251 14.9707 9.4038H14.9656Z" fill="#D2A749"/>
</svg>
