<svg width="44" height="39" viewBox="0 0 44 39" fill="none" xmlns="http://www.w3.org/2000/svg">
<path d="M42.9157 29.1428C43.267 29.1428 43.5519 28.8581 43.5519 28.5067V27.2764C43.5519 26.0327 42.6022 25.0209 41.435 25.0209H40.4056V23.7175C40.4056 22.8055 39.6634 22.0635 38.7515 22.0635H33.631C32.719 22.0635 31.977 22.8055 31.977 23.7175V27.112C27.4029 26.5784 21.7091 26.5775 17.1273 27.112V23.7175C17.1273 22.8055 16.3852 22.0635 15.4732 22.0635H15.0687C18.5559 19.9399 22.4559 17.0603 25.4967 14.2558L27.4935 17.0009C28.0308 17.7396 29.068 17.901 29.8041 17.3655L33.945 14.3537C34.6825 13.8173 34.8461 12.7807 34.3097 12.043L33.5429 10.9889L34.3755 10.3834C35.3195 9.69672 35.4922 8.32 34.7606 7.31422L31.3077 2.56711C30.5761 1.56151 29.2131 1.30171 28.2692 1.98831L27.4366 2.59398L26.6698 1.53996C26.1334 0.802227 25.097 0.638782 24.3592 1.17516L20.2184 4.18703C19.4809 4.72344 19.3173 5.75992 19.8538 6.49758L21.8504 9.24266C17.8363 11.5024 13.2323 14.8502 9.84149 17.9775L8.37274 15.9584C7.54555 14.8213 5.94524 14.5685 4.80824 15.3959L2.11899 17.3518C0.981251 18.1795 0.728915 19.7785 1.55649 20.9163L1.79517 21.2445L0.962672 21.85C-9.32217e-05 22.5502 -0.139109 23.934 0.577516 24.9192L4.03045 29.6662C4.40823 30.1856 4.96195 30.516 5.55242 30.6038V33.1464C5.55242 34.3901 6.50203 35.402 7.66922 35.402H8.69875V36.7054C8.69875 37.6174 9.44078 38.3594 10.3528 38.3594H15.4732C16.3853 38.3594 17.1273 37.6173 17.1273 36.7054V33.3112C18.9352 33.5216 20.9675 33.6538 23.0549 33.6958C23.0593 33.6959 23.0637 33.6959 23.068 33.6959C23.4134 33.6959 23.6968 33.4195 23.7038 33.0726C23.7109 32.7213 23.4319 32.4309 23.0805 32.4238C20.9758 32.3814 18.9311 32.2459 17.1273 32.0302V28.3925C21.6274 27.8532 27.3834 27.842 31.977 28.3925V32.0302C30.1734 32.2459 28.1286 32.3814 26.0238 32.4238C25.6725 32.4309 25.3934 32.7213 25.4004 33.0725C25.4074 33.4195 25.6907 33.6959 26.0363 33.6959C26.0406 33.6959 26.045 33.6959 26.0493 33.6958C28.1369 33.6538 30.1692 33.5216 31.977 33.3112V36.7054C31.977 37.6174 32.7191 38.3594 33.631 38.3594H38.7515C39.6635 38.3594 40.4056 37.6173 40.4056 36.7054V35.402H41.435C42.6022 35.402 43.5519 34.3901 43.5519 33.1464V31.4755C43.5519 31.1241 43.267 30.8394 42.9157 30.8394C42.5644 30.8394 42.2796 31.1241 42.2796 31.4755V33.1464C42.2796 33.6794 41.8929 34.1296 41.4352 34.1296H40.4056V26.2934H41.4352C41.8928 26.2934 42.2796 26.7436 42.2796 27.2765V28.5068C42.2795 28.8581 42.5644 29.1428 42.9157 29.1428ZM29.0175 3.01719C29.3876 2.7482 29.9654 2.88469 30.2787 3.31563L33.7316 8.06274C34.0451 8.4936 33.9972 9.08531 33.627 9.35453L32.7945 9.96C32.2791 9.25109 28.7089 4.34297 28.185 3.62273L29.0175 3.01719ZM20.8827 5.74938C20.761 5.58203 20.7995 5.33781 20.9668 5.21609L25.1077 2.20416C25.2757 2.08212 25.5195 2.12156 25.6409 2.28839C25.8984 2.64242 31.8323 10.8005 32.1397 11.223L33.2806 12.7915C33.4023 12.9588 33.3638 13.203 33.1965 13.3247L29.0555 16.3366C28.8874 16.4587 28.6457 16.422 28.5224 16.2524C28.2715 15.9074 21.1855 6.1657 20.8827 5.74938ZM22.6037 10.2784L24.7436 13.2202C21.4339 16.292 16.7915 19.6877 12.7344 21.9546L10.5948 19.0132C13.8956 15.9495 18.5409 12.5484 22.6037 10.2784ZM5.55242 27.2764V29.2958C5.3632 29.2252 5.18828 29.0948 5.05953 28.9177L1.60661 24.1707C1.27879 23.7202 1.35207 23.1402 1.7112 22.8789L2.54368 22.2734C2.64461 22.4123 3.43486 23.4986 5.66227 26.5609C5.58641 26.8019 5.55242 27.0505 5.55242 27.2764ZM8.69875 34.1295H7.66922C7.21156 34.1295 6.82477 33.6794 6.82477 33.1463C6.82477 32.5716 6.82477 27.8755 6.82477 27.2763C6.82477 27.0541 6.89813 26.8141 7.04344 26.6257C7.21649 26.4009 7.45047 26.2932 7.66922 26.2932H8.69867L8.69875 34.1295ZM8.69875 23.7174V25.0209H7.66922C7.61758 25.0209 7.56641 25.0235 7.51563 25.0275C7.50664 25.0282 7.49766 25.0288 7.48867 25.0297C7.09477 25.0653 6.73141 25.2162 6.42836 25.4507L2.58549 20.1677C2.17056 19.5974 2.29703 18.7956 2.86743 18.3807L5.55664 16.4248C6.12453 16.0115 6.93039 16.1384 7.34367 16.7068C7.80688 17.3435 10.7443 21.3819 11.24 22.0633H10.3527C9.44078 22.0633 8.69875 22.8054 8.69875 23.7174ZM15.855 36.7053C15.855 36.9121 15.6802 37.087 15.4733 37.087H10.3529C10.146 37.087 9.97117 36.9121 9.97117 36.7053C9.97117 36.1066 9.97117 24.1078 9.97117 23.7175C9.97117 23.5106 10.146 23.3359 10.3529 23.3359C11.6474 23.3359 12.3622 23.3359 12.7343 23.3359C13.0025 23.3359 13.0935 23.3359 13.0935 23.3359C13.4654 23.3359 14.1798 23.3359 15.4733 23.3359C15.6802 23.3359 15.855 23.5106 15.855 23.7175C15.855 24.5047 15.855 36.2213 15.855 36.7053ZM39.1333 36.7053C39.1333 36.9121 38.9584 37.087 38.7516 37.087H33.6311C33.4242 37.087 33.2495 36.9121 33.2495 36.7053V23.7175C33.2495 23.5106 33.4242 23.3359 33.6311 23.3359H38.7516C38.9584 23.3359 39.1333 23.5106 39.1333 23.7175C39.1333 24.501 39.1333 36.2849 39.1333 36.7053Z" fill="#D79970"/>
</svg>
