<svg width="30" height="24" viewBox="0 0 30 24" fill="none" xmlns="http://www.w3.org/2000/svg">
<path d="M20.344 22.5693C19.8249 21.276 19.311 19.9774 18.7867 18.6789C18.2521 17.3596 17.7278 16.0403 17.1775 14.7313C16.9958 14.295 16.6221 14.0509 16.1497 14.0145C15.6877 13.9782 15.2984 14.1496 15.0388 14.5391C14.7274 15.0014 14.5872 15.5364 14.3796 16.0454C13.6061 17.9413 12.8534 19.8528 12.0904 21.7538C11.8879 22.2577 11.6803 22.7563 11.4727 23.2705H13.4089C13.6736 22.5901 13.928 21.9356 14.1823 21.2812H17.8679C18.1275 21.946 18.3922 22.6161 18.6518 23.2809H20.6243C20.5257 23.0108 20.4375 22.7875 20.344 22.5693ZM14.8623 19.5619C15.2465 18.5542 15.615 17.5777 16.0199 16.5181C16.43 17.5673 16.8142 18.5438 17.2087 19.5619H14.8623Z" fill="#D7B05B"/>
<path d="M29.9368 18.9584C29.9056 20.4491 29.3189 21.6542 28.1252 22.5684C26.5678 23.763 24.2216 23.7215 22.6434 22.6255C21.7454 22.0022 21.1017 21.1867 20.7643 20.1583C20.1569 18.3299 20.6657 16.46 22.0672 15.1459C22.7991 14.4551 23.6608 14.0188 24.6524 13.8785C26.5212 13.6188 28.5195 14.32 29.4904 16.1016L29.5115 16.1468C29.5115 16.1468 29.4945 16.1577 29.4851 16.1639C28.9712 16.4704 28.3945 16.7041 27.8286 16.9898C27.7715 16.9171 27.7253 16.8548 27.6786 16.7872C26.9675 15.7536 25.9603 15.4939 24.7925 15.6861C23.3234 15.925 22.28 17.3378 22.4825 19.0415C22.7732 21.4724 25.3686 22.3398 27.0505 21.1452C27.4969 20.8283 27.7824 20.3868 27.8864 19.7843H25.3168V18.2105C25.4102 18.1326 25.5348 18.1637 25.649 18.1637H29.127C29.6409 18.1637 29.9472 18.4546 29.9368 18.9584Z" fill="#D7B05B"/>
<path d="M20.344 22.5693C19.8249 21.276 19.311 19.9774 18.7867 18.6789C18.2521 17.3596 17.7278 16.0403 17.1775 14.7313C16.9958 14.295 16.6221 14.0509 16.1497 14.0145C15.6877 13.9782 15.2984 14.1496 15.0388 14.5391C14.7274 15.0014 14.5872 15.5364 14.3796 16.0454C13.6061 17.9413 12.8534 19.8528 12.0904 21.7538C11.8879 22.2577 11.6803 22.7563 11.4727 23.2705H13.4089C13.6736 22.5901 13.928 21.9356 14.1823 21.2812H17.8679C18.1275 21.946 18.3922 22.6161 18.6518 23.2809H20.6243C20.5257 23.0108 20.4375 22.7875 20.344 22.5693ZM14.8623 19.5619C15.2465 18.5542 15.615 17.5777 16.0199 16.5181C16.43 17.5673 16.8142 18.5438 17.2087 19.5619H14.8623Z" fill="#D7B05B"/>
<path d="M10.7142 15.4916V23.2828H8.8454V17.0774L8.56456 17.6944L8.39277 18.0705C7.96916 19.0023 7.54558 19.9368 7.122 20.8676C7.01248 21.1065 6.90295 21.3454 6.7929 21.5843C6.53231 22.1489 6.27017 22.7146 6.00854 23.2828H4.70562C4.0988 21.9588 3.48936 20.6307 2.87683 19.2937L1.85317 17.0322V17.7069C1.85058 17.7521 1.85317 17.7962 1.85317 17.8393V23.2828H0V22.8258C0 20.478 0 18.1354 0.00519097 15.7877C0.00519097 15.5643 0 15.3357 0.0519097 15.1176C0.186875 14.4943 0.695589 14.0684 1.32889 14.0112C1.92066 13.9593 2.49685 14.2865 2.75122 14.8475C3.00143 15.3991 3.25057 15.9507 3.4987 16.5024C3.88026 17.348 4.26075 18.1936 4.64073 19.0392C4.76947 19.3285 4.89871 19.6178 5.02744 19.9071C5.07002 20.0022 5.11207 20.0973 5.15463 20.1923C5.1645 20.2136 5.17435 20.2354 5.18473 20.2567L5.36487 20.6582L5.55641 20.2318C5.61247 20.1352 5.65401 20.0287 5.69606 19.9222C5.71836 19.8646 5.74173 19.8069 5.76716 19.7508C5.95299 19.3457 6.13677 18.94 6.32052 18.5338L6.40981 18.3364C6.56347 17.9962 6.71659 17.6555 6.86973 17.3147L7.64318 15.596C7.75115 15.3565 7.85964 15.1176 7.96814 14.8787C8.28479 14.1827 8.9077 13.8918 9.67077 14.058C10.2729 14.193 10.7142 14.7904 10.7142 15.4916Z" fill="#D7B05B"/>
<path d="M3.64204 12.222C3.1079 12.2152 2.68173 11.7685 2.69157 11.2237C2.70195 10.6959 3.14474 10.2726 3.67942 10.2794C4.22085 10.2898 4.64339 10.7297 4.63301 11.2746C4.62263 11.8059 4.17984 12.2287 3.64204 12.222Z" fill="#D7B05B"/>
<path d="M8.27936 6.19306V9.56302H3.16053C2.30402 9.56302 1.89394 9.97337 1.88875 10.8304V12.2173H0.00390625V11.0081C0.00390625 10.6019 0.029861 10.1967 0.160154 9.80196C0.476803 8.83066 1.12567 8.20216 2.06524 7.84376C2.44419 7.69833 2.83869 7.66717 3.23321 7.66717H6.01036C6.07007 7.66717 6.1308 7.67339 6.19622 7.66717H6.40281V7.59082C6.40281 7.59082 6.40438 7.58978 6.40489 7.58924C6.40489 7.15294 6.39969 6.69067 6.40489 6.22838C6.41009 5.97906 6.35817 5.75051 6.26473 5.52198C5.99481 4.85711 5.3719 4.51432 4.58285 4.6078C3.97552 4.67532 3.43046 5.22072 3.33182 5.8544C3.31627 5.9479 3.30589 6.04139 3.29031 6.14528H1.42675C1.44232 5.37653 1.66034 4.6857 2.12234 4.08839C2.82831 3.16383 3.78344 2.68596 4.93586 2.70154C6.04152 2.71712 6.93957 3.22095 7.59881 4.11435C8.05094 4.72777 8.27936 5.41913 8.27936 6.19306Z" fill="#D7B05B"/>
<path d="M29.3141 4.05665C28.4939 2.95548 26.9833 2.43607 25.6909 2.81006C24.824 3.06249 24.1403 3.5949 23.7053 4.2774C23.685 4.30856 23.6658 4.33972 23.6466 4.37141C23.6378 4.38648 23.629 4.40153 23.6201 4.4166C23.1519 5.23519 23.0299 6.24598 23.3601 7.24222C23.3632 7.25209 23.3668 7.26196 23.3705 7.27183C23.4156 7.39805 23.4675 7.52115 23.5267 7.64061H11.0159V0H9.16797V9.54687H26.6148C27.1459 9.54687 27.6406 9.4139 28.1015 9.18017C28.1139 9.17393 28.1264 9.16771 28.1388 9.16096C28.2416 9.10744 28.3423 9.04928 28.4419 8.98592C28.4581 8.97552 28.4741 8.96514 28.4898 8.95423C29.0722 8.5709 29.4943 8.03589 29.7414 7.43492C29.7518 7.40949 29.7622 7.38404 29.7718 7.35859C29.7791 7.33989 29.7866 7.32119 29.7927 7.30248C29.8016 7.28066 29.8093 7.25833 29.8166 7.23547C29.826 7.20847 29.8348 7.18147 29.8437 7.15444C29.8437 7.1534 29.8447 7.15236 29.8447 7.15081C29.8546 7.11808 29.8643 7.08537 29.8737 7.05264C29.9018 6.95187 29.925 6.85007 29.9443 6.74722C29.9506 6.71294 29.9562 6.67865 29.9615 6.64386C29.9707 6.58413 29.978 6.5244 29.9838 6.46415C30.0658 5.6393 29.8519 4.77811 29.3141 4.05665ZM25.0938 6.08238C25.1095 5.27209 25.7893 4.62281 26.6095 4.63319C27.4401 4.64879 28.0889 5.32403 28.0735 6.16028C28.058 6.97577 27.3779 7.62503 26.5524 7.61465C25.7323 7.60425 25.0783 6.91863 25.0938 6.08238Z" fill="#D7B05B"/>
</svg>
