<svg width="120" height="28" viewBox="0 0 120 28" fill="none" xmlns="http://www.w3.org/2000/svg">
<path d="M0.00115584 0H28.0929C28.0929 3.63642 28.0929 7.2721 28.0929 10.907H25.3184C25.3184 8.20838 25.3184 5.50973 25.3184 2.81109C17.8042 2.81109 10.2899 2.81109 2.77565 2.81109C2.79068 10.0693 2.73981 17.3287 2.79993 24.588C7.56396 24.6735 12.3292 24.5936 17.0932 24.6296C17.6978 25.5921 18.3359 26.5412 18.8989 27.5228C12.5997 27.579 6.2981 27.5329 0 27.5475C0.000770693 18.3639 0.00115584 9.18139 0.00115584 0Z" fill="white"/>
<path d="M43.2786 19.3718C44.0728 17.0858 46.4346 15.461 48.9051 15.4239C50.5871 15.3002 52.2576 15.8377 53.6448 16.7429C53.3119 17.6233 52.9685 18.5015 52.5986 19.3684C51.9686 19.0187 51.3628 18.5914 50.6414 18.4441C49.505 18.1473 48.1953 18.3407 47.319 19.1447C46.0774 20.4344 45.9317 22.7159 47.2034 24.0337C48.1756 25.0041 49.8403 25.1469 50.9987 24.4205C50.9987 23.964 50.9956 23.5082 50.9894 23.0532L48.5617 23.0464V20.3478H54.1107C54.1107 22.2998 54.1107 24.2518 54.1107 26.2039C52.6957 27.2118 51.0072 27.7928 49.2553 27.8748C46.6311 27.9355 43.8867 26.3489 43.1341 23.8268C42.7815 22.3718 42.6914 20.7807 43.2786 19.3718Z" fill="white"/>
<path d="M65.636 15.4476C67.6995 15.1755 69.9261 15.9378 71.2451 17.5312C73.3826 19.9836 73.2462 24.0889 70.7538 26.2658C69.2221 27.5026 67.1146 28.1616 65.1389 27.7624C63.9921 27.4509 62.7898 27.1001 61.9136 26.2725C60.4107 25.0278 59.8928 22.9802 60.05 21.1294C60.1206 18.2328 62.6835 15.686 65.636 15.4476ZM65.8672 18.3644C65.2256 18.4262 64.6823 18.8288 64.2372 19.2527C63.3367 20.4412 63.2569 22.129 63.8904 23.4513C64.6846 24.9243 66.9377 25.3482 68.2279 24.2564C69.3446 23.2973 69.3168 21.6545 69.0371 20.3512C68.7065 19.0289 67.2603 18.081 65.8672 18.361V18.3644Z" fill="white"/>
<path d="M15.8082 15.6431C16.8925 15.6341 17.9773 15.6304 19.0624 15.6319C20.0208 17.0813 21.0126 18.5104 22.0034 19.9396C23.1825 18.5295 24.3085 17.0779 25.4449 15.6341C26.3266 15.6289 27.2098 15.6289 28.0945 15.6341C28.0945 19.6071 28.0945 23.5801 28.0945 27.5531C27.2082 27.5531 26.3219 27.5531 25.4357 27.5531C25.4195 25.1266 25.4842 22.6978 25.3952 20.2724C24.1617 21.6982 23.1409 23.2814 22.0034 24.778C19.9032 21.7526 17.8382 18.7076 15.8082 15.6431Z" fill="white"/>
<path d="M34.8869 15.6218L37.6903 15.6297C39.2752 19.6023 40.8925 23.5626 42.4751 27.5352C41.3422 27.5442 40.2105 27.5464 39.0798 27.5487C38.814 26.9089 38.5562 26.2668 38.2706 25.6371C36.9539 25.6371 35.6372 25.6371 34.3204 25.6371C34.0441 26.2713 33.7817 26.9123 33.5216 27.5487C32.3899 27.5487 31.2604 27.5487 30.1298 27.5408C31.7055 23.5637 33.2534 19.5753 34.8869 15.6218ZM36.2938 19.8249C35.8795 20.9164 35.5253 22.0285 35.2325 23.1566L37.3481 23.1645C37.0128 22.0468 36.7215 20.9134 36.2938 19.8249Z" fill="white"/>
<path d="M74.2554 15.6645C76.853 15.6049 79.4576 15.6094 82.0494 15.6645C82.0633 16.6157 82.0806 17.5693 82.061 18.5217C80.5581 18.5633 79.068 18.561 77.5721 18.5599C77.5721 19.1596 77.5721 19.7593 77.5721 20.359C78.8437 20.359 80.1153 20.359 81.387 20.359C81.387 21.2945 81.387 22.2315 81.387 23.1701C80.1153 23.1701 78.8437 23.1701 77.5721 23.1701C77.5721 24.6318 77.5721 26.0936 77.5721 27.5554C76.4546 27.5554 75.337 27.5554 74.2195 27.5554C74.238 23.5872 74.1756 19.6247 74.2554 15.6645Z" fill="white"/>
<path d="M87.666 15.6588C88.7585 15.6386 89.8521 15.6329 90.9457 15.6498C91.0208 18.6397 90.9665 21.6318 90.9838 24.6228C92.4474 24.6228 93.9109 24.6228 95.3768 24.6228C95.3768 25.5973 95.3768 26.5718 95.3768 27.5463C92.7942 27.5463 90.2124 27.5463 87.6313 27.5463C87.6487 23.5838 87.5862 19.6202 87.666 15.6588Z" fill="white"/>
<path d="M97.146 15.6622C98.25 15.6386 99.3563 15.6307 100.463 15.6229C100.463 19.5959 100.463 23.5711 100.463 27.5486C99.3451 27.5441 98.2276 27.5441 97.1101 27.5486C97.1286 23.5861 97.0662 19.6236 97.146 15.6622Z" fill="white"/>
<path d="M102.696 15.6645C105.292 15.6049 107.888 15.6094 110.484 15.6645C110.509 16.6281 110.52 17.5918 110.531 18.5565H106.013C106.013 19.1562 106.013 19.754 106.013 20.35C107.31 20.35 108.608 20.35 109.906 20.3792C109.927 21.3073 109.941 22.2357 109.948 23.1644C108.636 23.1644 107.325 23.1644 106.018 23.1644C106.018 24.627 106.018 26.0887 106.018 27.5497C104.898 27.5497 103.781 27.5497 102.665 27.5497C102.679 23.5872 102.616 19.6247 102.696 15.6645Z" fill="white"/>
<path d="M112.023 15.6295C114.604 15.6295 117.185 15.6295 119.769 15.6295C119.769 16.604 119.769 17.5785 119.769 18.553C118.303 18.553 116.839 18.553 115.376 18.553V20.2397C116.647 20.2397 117.919 20.2397 119.191 20.2397C119.191 21.1392 119.191 22.0388 119.191 22.9383C117.919 22.9383 116.647 22.9383 115.376 22.9383V24.625H120C120 25.5995 120 26.574 120 27.5485C117.341 27.5485 114.682 27.5485 112.023 27.5485C112.023 23.5755 112.023 19.6025 112.023 15.6295Z" fill="white"/>
</svg>
