<svg width="34" height="25" viewBox="0 0 34 25" fill="none" xmlns="http://www.w3.org/2000/svg">
<path d="M24.9243 4.4968C24.9072 4.50704 23.997 5.04951 23.9799 5.05975C23.1279 5.63976 21.896 6.50636 21.8892 8.62852C21.8823 9.88752 21.9233 10.9588 21.9062 11.6582C21.8926 12.211 21.7112 12.7466 21.3827 13.1765L16.8419 19.1506V22.791L33.6876 0L24.9243 4.4968ZM24.1407 9.1403C23.6582 7.15461 26.3204 6.29483 26.3888 6.53366C26.423 6.65307 24.6745 8.65241 24.2434 9.18466C24.2058 9.22901 24.151 9.1983 24.1372 9.14371" fill="#D2A749"/>
<path d="M24.6269 12.6264L22.6456 15.2365C22.5977 15.2979 22.5738 15.3764 22.5704 15.4582L22.5259 19.1294C22.5259 19.2488 22.4642 19.3614 22.3684 19.4262L21.862 19.7674C20.7021 20.5488 20.0142 21.8623 20.0382 23.2577L20.0519 24.0459L24.0554 20.982C24.3463 20.7602 24.5653 20.443 24.6748 20.0779C24.7227 19.9141 24.7467 19.7469 24.7432 19.5764L24.6235 12.623L24.6269 12.6264Z" fill="#D2A749"/>
<path d="M0 0L16.8422 22.7945V19.154L12.3015 13.1799C11.973 12.75 11.7916 12.2144 11.7779 11.6617C11.7643 10.9622 11.8019 9.8909 11.795 8.63194C11.7882 6.50636 10.5563 5.64317 9.70432 5.06316C9.68719 5.05293 8.77703 4.50704 8.75991 4.5002L0 0ZM9.44081 9.17783C9.00968 8.64558 7.26116 6.64625 7.29532 6.52684C7.36374 6.28801 10.026 7.14779 9.54349 9.13348C9.52974 9.19148 9.47507 9.21877 9.43742 9.17442" fill="#D2A749"/>
<path d="M9.06104 12.6264L11.0422 15.2365C11.0901 15.2979 11.1141 15.3764 11.1175 15.4582L11.162 19.1294C11.162 19.2488 11.2236 19.3614 11.3194 19.4262L11.6274 19.6343C12.9105 20.4976 13.6702 21.951 13.6428 23.4931L13.6326 24.0459L9.62901 20.982C9.3382 20.7602 9.1192 20.443 9.00965 20.0779C8.96175 19.9141 8.93785 19.7469 8.94123 19.5764L9.06104 12.623V12.6264Z" fill="#D2A749"/>
</svg>
