<svg width="120" height="68" viewBox="0 0 120 68" fill="none" xmlns="http://www.w3.org/2000/svg">
<g clip-path="url(#clip0_162_72)">
<mask id="mask0_162_72" style="mask-type:luminance" maskUnits="userSpaceOnUse" x="0" y="0" width="120" height="68">
<path d="M120 0H0V67.7419H120V0Z" fill="white"/>
</mask>
<g mask="url(#mask0_162_72)">
<path d="M14.4332 45.0024H16.4931V32.4707H14.4332V32.2148H25.0408V36.0668H24.8355C24.6747 35.5892 24.5002 35.1729 24.3154 34.8113C24.1306 34.453 23.9082 34.146 23.6481 33.8969C23.3881 33.6479 23.0801 33.4602 22.7208 33.3373C22.3615 33.2145 21.9304 33.1532 21.4239 33.1532H18.3443V37.4486H19.5488C19.956 37.4486 20.3016 37.4111 20.5856 37.3394C20.8696 37.2678 21.116 37.1279 21.3179 36.9266C21.5231 36.7253 21.6942 36.449 21.8379 36.1009C21.9783 35.7529 22.1186 35.9884 22.2554 35.4357L22.4608 34.7532V41.1334H22.2554C22.1699 40.7786 22.0809 40.4374 21.9851 40.1065C21.8927 39.7755 21.7627 39.4821 21.595 39.2262C21.4273 38.9703 21.2049 38.7656 20.9278 38.6121C20.6506 38.4585 20.2879 38.3834 19.843 38.3834H18.3409V44.3133H21.8448C22.5258 44.3133 23.0904 44.1699 23.542 43.8833C23.9937 43.5967 24.3599 43.2555 24.6473 42.8564C24.9313 42.4606 25.1401 42.0478 25.2769 41.6213C25.4138 41.1948 25.4993 40.8399 25.5369 40.5603L25.7423 41.2426V45.2549H14.4297V44.999L14.4332 45.0024Z" fill="white"/>
<path d="M30.0026 45.0024H32.0625V39.7447L27.8879 32.4707H26.2009V32.2148H31.8778V32.4707H30.0231L33.3868 38.9192L36.8907 32.4707H35.3612V32.2148H39.3305V32.4707H37.5306L33.9171 39.1579V45.0024H35.9737V45.2583H30.0026V45.0024Z" fill="white"/>
<path d="M42.3657 45.0024H43.7345V32.4707H42.3657V32.2148H46.5404L49.9691 42.0717L49.661 41.7305L53.2266 32.2694L57.5347 32.2148V32.4707H55.4782V45.0024H57.5347V45.2583H51.5636V45.0024H53.6236V32.58H53.5859L49.1546 45.2754L44.7405 32.7096H44.7028V45.0024H46.7628V45.2583H42.3657V45.0024Z" fill="white"/>
<path d="M58.6877 45.0018H59.9744L64.9805 31.8867H65.7709L70.8147 45.0018H72.464V45.2576H66.753V45.0018H68.8129L66.8659 40.1979H62.5647L60.6177 45.0018H62.6776V45.2576H58.6912V45.0018H58.6877ZM64.7136 34.3227L62.6743 39.652H66.753L64.7136 34.3227Z" fill="white"/>
<path d="M68.7891 32.2148H74.5172V32.4707H72.4607L76.5772 43.0952L80.6389 32.4707H78.6166V32.2148H82.6235V32.4707H81.2993L76.3103 45.5313H75.5027L70.4589 32.4707H68.7891V32.2148Z" fill="white"/>
<path d="M96.5332 45.0024H98.5935V32.4707H96.5332V32.2148H101.194L107.463 42.1979H107.497V32.4707H105.44V32.2148H110.525V32.4707H108.465V45.5142H107.404L99.599 33.2214H99.5613V45.0024H101.622V45.2583H96.5332V45.0024Z" fill="white"/>
<path d="M110.58 41.3205H110.785C110.922 41.979 111.097 42.5351 111.312 42.9889C111.528 43.4427 111.768 43.8145 112.027 44.1079C112.287 44.4013 112.557 44.6265 112.842 44.7869C113.125 44.9472 113.413 45.0633 113.704 45.1349C113.994 45.2066 114.272 45.2509 114.539 45.2646C114.805 45.2782 115.056 45.2816 115.292 45.2816C115.945 45.2816 116.482 45.1827 116.903 44.9882C117.324 44.7937 117.656 44.5447 117.906 44.2478C118.153 43.9476 118.327 43.6235 118.426 43.2755C118.525 42.9275 118.573 42.6067 118.573 42.3133C118.573 41.8868 118.491 41.5183 118.33 41.2147C118.169 40.9111 117.964 40.6517 117.717 40.4368C117.471 40.2218 117.201 40.0478 116.91 39.9148C116.619 39.7817 116.346 39.6759 116.086 39.6043L113.954 38.9629C112.951 38.6558 112.195 38.2533 111.681 37.7551C111.168 37.2536 110.912 36.5814 110.912 35.7387C110.912 35.1894 111.011 34.6776 111.209 34.2102C111.407 33.7394 111.685 33.3334 112.044 32.9922C112.403 32.651 112.831 32.3815 113.334 32.187C113.834 31.9926 114.381 31.8936 114.977 31.8936C115.408 31.8936 115.771 31.9311 116.061 32.0027C116.353 32.0744 116.602 32.1597 116.814 32.2484C117.023 32.3406 117.211 32.4224 117.378 32.4975C117.547 32.5691 117.714 32.6067 117.888 32.6067C118.049 32.6067 118.159 32.5862 118.214 32.5418C118.269 32.5009 118.347 32.3917 118.447 32.2211H118.706V35.5374H118.485C118.409 35.0973 118.282 34.6743 118.104 34.2648C117.926 33.8554 117.694 33.4937 117.409 33.1833C117.126 32.8728 116.783 32.6203 116.38 32.4327C115.979 32.2416 115.511 32.1494 114.98 32.1494C114.682 32.1494 114.357 32.1905 113.998 32.2688C113.639 32.3473 113.307 32.4873 112.996 32.6817C112.688 32.8762 112.431 33.1321 112.225 33.4494C112.02 33.7667 111.918 34.1693 111.918 34.6571C111.918 35.0496 111.996 35.3805 112.16 35.6568C112.321 35.9332 112.53 36.1652 112.784 36.3528C113.036 36.5405 113.321 36.7008 113.635 36.8305C113.95 36.9602 114.268 37.0727 114.59 37.1682L116.835 37.8643C117.071 37.9359 117.365 38.0348 117.725 38.1577C118.084 38.2806 118.432 38.4648 118.772 38.707C119.111 38.9527 119.401 39.2734 119.644 39.6794C119.884 40.082 120.007 40.5937 120.007 41.2181C120.007 41.7913 119.897 42.3406 119.682 42.8592C119.466 43.3778 119.155 43.835 118.744 44.2342C118.337 44.6299 117.841 44.9472 117.259 45.1861C116.678 45.4249 116.024 45.5443 115.295 45.5443C115.035 45.5443 114.805 45.5443 114.607 45.5341C114.408 45.5273 114.224 45.5137 114.049 45.4897C113.875 45.4658 113.704 45.4386 113.53 45.4079C113.355 45.3771 113.163 45.3328 112.955 45.2714C112.708 45.1997 112.441 45.1145 112.158 45.0155C111.873 44.9199 111.627 44.8687 111.414 44.8687C111.229 44.8687 111.104 44.9063 111.035 44.978C110.966 45.0496 110.908 45.1485 110.861 45.2714H110.583V41.3342L110.58 41.3205Z" fill="white"/>
<path d="M65.8151 4.4968C65.7979 4.50704 64.8878 5.04951 64.8706 5.05975C64.0186 5.63976 62.7867 6.50636 62.7799 8.62852C62.7731 9.88752 62.8141 10.9588 62.797 11.6582C62.7833 12.211 62.602 12.7466 62.2734 13.1765L57.7327 19.1506V22.791L74.5783 0L65.8151 4.4968ZM65.0315 9.1403C64.549 7.15461 67.2111 6.29483 67.2795 6.53366C67.3138 6.65307 65.5653 8.65241 65.1341 9.18466C65.0965 9.22901 65.0417 9.1983 65.028 9.14371" fill="#D2A749"/>
<path d="M65.5177 12.6274L63.5365 15.2375C63.4886 15.2989 63.4647 15.3773 63.4613 15.4592L63.4168 19.1303C63.4168 19.2498 63.3551 19.3624 63.2593 19.4272L62.7529 19.7684C61.593 20.5497 60.9051 21.8632 60.9291 23.2586L60.9427 24.0469L64.9463 20.983C65.2372 20.7612 65.4562 20.444 65.5656 20.0788C65.6135 19.9151 65.6375 19.7479 65.634 19.5773L65.5143 12.624L65.5177 12.6274Z" fill="#D2A749"/>
<path d="M40.8909 0L57.7331 22.7945V19.154L53.1923 13.1799C52.8639 12.75 52.6825 12.2144 52.6688 11.6617C52.6551 10.9622 52.6928 9.8909 52.6859 8.63194C52.679 6.50636 51.4472 5.64317 50.5952 5.06316C50.5781 5.05293 49.6679 4.50704 49.6508 4.5002L40.8909 0ZM50.3317 9.17783C49.9005 8.64558 48.152 6.64625 48.1862 6.52684C48.2546 6.28801 50.9169 7.14779 50.4344 9.13348C50.4206 9.19148 50.3659 9.21877 50.3283 9.17442" fill="#D2A749"/>
<path d="M49.9517 12.6274L51.9328 15.2375C51.9807 15.2989 52.0047 15.3773 52.0081 15.4592L52.0526 19.1303C52.0526 19.2498 52.1142 19.3624 52.21 19.4272L52.518 19.6353C53.8011 20.4985 54.5608 21.952 54.5334 23.4941L54.5232 24.0469L50.5196 20.983C50.2288 20.7612 50.0098 20.444 49.9003 20.0788C49.8524 19.9151 49.8285 19.7479 49.8319 19.5773L49.9517 12.624V12.6274Z" fill="#D2A749"/>
<path d="M8.46225 63.6649H7.92503C7.53835 63.6649 7.21328 63.5865 6.95665 63.433V64.8284C6.95665 65.8349 6.70343 66.5616 6.197 67.0052C5.6324 67.4964 4.72904 67.7455 3.48691 67.7455C2.56302 67.7455 1.82391 67.6057 1.26615 67.3224C0.520191 66.9403 0.150635 66.4217 0.150635 65.7633C0.150635 65.4493 0.273821 65.1662 0.523613 64.9171C0.821312 64.6135 1.22851 64.4599 1.7452 64.4599C2.61777 64.4599 3.05577 64.767 3.05577 65.3811C3.05577 65.6302 2.95311 65.8452 2.74437 66.0294C2.49458 66.2443 2.16267 66.3535 1.7452 66.3535C1.3996 66.3535 1.01636 66.2375 0.598894 66.0055C0.598894 66.5821 0.999246 67.0222 1.80337 67.3259C2.17977 67.4691 2.5596 67.5408 2.936 67.5408C3.43217 67.5408 3.78461 67.4044 3.99334 67.1348C4.14049 66.9403 4.21576 66.4797 4.21576 65.7496V55.6472H2.98048V55.4561H7.88054V55.6472H6.95665V62.389C6.95665 62.9689 7.2954 63.259 7.9695 63.259H8.46225V63.6752V63.6649Z" fill="white"/>
<path d="M10.7238 63.249H8.01367V63.6653H10.7238V63.249Z" fill="white"/>
<path d="M12.972 63.249H10.262V63.6653H12.972V63.249Z" fill="white"/>
<path d="M29.2978 63.6653H20.401C20.0143 63.6653 19.6928 63.5868 19.4326 63.4332V63.6653H12.4795V63.2491H17.0202V55.569H16.3222V55.3779H19.9836V55.569H19.4326V62.3756C19.4326 62.9556 19.7714 63.2456 20.4456 63.2456H29.2978V63.6618V63.6653Z" fill="white"/>
<path d="M31.6073 63.249H28.8972V63.6653H31.6073V63.249Z" fill="white"/>
<path d="M42.4889 63.6653H41.8045C41.4178 63.6653 36.3056 63.5868 36.0456 63.4332V63.6653H31.1455V63.2491H33.6332V55.569H32.9352V55.3779H37.2808V55.569H36.0456V62.3756C36.0456 62.9556 41.1749 63.2456 41.8489 63.2456H42.4889V63.6618V63.6653Z" fill="white"/>
<path d="M42.0543 63.2488H45.3153C44.3127 62.6552 43.8097 61.3962 43.8097 59.4617C43.8097 58.2812 43.9328 57.4215 44.1826 56.8789C44.6685 55.811 45.6677 55.2754 47.1767 55.2754C48.388 55.2754 49.24 55.6268 49.7362 56.3296C50.1639 56.9404 50.3761 57.9639 50.3761 59.4003C50.3761 61.0005 50.1229 62.0888 49.6165 62.662C49.4078 62.9008 49.1716 63.0918 48.9013 63.242H51.5806V63.6583H42.0508V63.242L42.0543 63.2488ZM46.3589 56.7254V62.1468C46.3589 62.8667 46.6053 63.2249 47.1048 63.2249C47.6045 63.2249 47.8337 62.8667 47.8337 62.1468V56.7254C47.8337 56.0567 47.5907 55.7223 47.1048 55.7223C46.6189 55.7223 46.3589 56.0567 46.3589 56.7254Z" fill="white"/>
<path d="M53.7877 63.249H51.0776V63.6653H53.7877V63.249Z" fill="white"/>
<path d="M70.1437 63.6653H69.4593C69.0727 63.6653 61.9074 63.5868 61.6473 63.4332V63.6653H53.3254V63.2491H59.235V55.569H58.5369V55.3779H62.1983V55.569H61.6473V62.3756C61.6473 62.9556 68.8297 63.2456 69.5039 63.2456H70.1437V63.6618V63.6653Z" fill="white"/>
<path d="M68.3748 63.2485H71.4134V55.6093H70.6982V55.4183H73.8565V55.9403C74.1645 55.5309 74.6367 55.3262 75.2732 55.3262C77.0115 55.3262 77.8772 56.6602 77.8772 59.3283C77.8772 61.3856 77.5008 62.6889 76.7446 63.2382C76.3066 63.5556 75.7933 63.7124 75.1944 63.7124C74.6572 63.7124 74.2124 63.5146 73.8531 63.1222V63.6613H68.3748V63.245V63.2485ZM73.8531 57.5371V61.5971C73.8531 61.9008 73.9113 62.1942 74.031 62.4774C74.209 62.9073 74.4861 63.1256 74.866 63.1256C75.1637 63.1256 75.3142 62.8629 75.3142 62.3375V56.8751C75.3142 56.2371 75.1637 55.9199 74.866 55.9199C74.4895 55.9199 74.209 56.1485 74.031 56.609C73.9113 56.9127 73.8531 57.2231 73.8531 57.5405" fill="white"/>
<path d="M99.7325 55.3809V55.63H98.9728V63.252H103.007V63.6682H96.5604V57.1004C96.5604 56.4351 96.184 56.1212 95.4278 56.1553C95.0309 56.1724 94.8324 56.2953 94.8324 56.5306V63.2554H95.3696V63.6716H87.1812C85.9904 63.6716 85.2205 63.3612 84.8715 62.7436C84.4951 62.0953 84.3069 61.0138 84.3069 59.499C84.3069 56.7524 85.3129 55.3809 87.3284 55.3809C87.804 55.3809 88.1906 55.4627 88.4883 55.6231C88.6184 55.6913 88.8819 55.8858 89.2788 56.2133L88.6081 56.2714C88.3686 55.9677 88.0914 55.8141 87.7731 55.8141C87.6842 55.8141 87.5953 55.8244 87.5062 55.8483C87.0682 55.9472 86.8527 56.2475 86.8527 56.7456V61.5255C86.8527 62.6822 87.1059 63.2588 87.6124 63.2588H92.4063V56.111C92.6732 55.6231 93.2584 55.3809 94.1617 55.3809C95.0651 55.3809 95.8829 55.6231 96.5604 56.111V55.3877H99.7325V55.3809Z" fill="white"/>
<path d="M112.766 63.6444H96.6494V61.9385H113.074V63.3374C113.074 63.508 112.937 63.6444 112.766 63.6444Z" fill="white"/>
<path d="M94.5963 61.7676H85.5525V63.2517H94.5963V61.7676Z" fill="white"/>
<path d="M59.8099 62.0547H48.7883V63.5388H59.8099V62.0547Z" fill="white"/>
<path d="M71.7863 61.7129H61.4387V63.3028H71.7863V61.7129Z" fill="white"/>
<path d="M33.8041 61.7129H18.9739V63.3028H33.8041V61.7129Z" fill="white"/>
<path d="M19.015 61.8809H5.28662V63.4708H19.015V61.8809Z" fill="white"/>
<path d="M109.758 57.0421C110.655 56.5849 111.514 56.3665 112.336 56.3904C113.368 56.4177 114.121 56.7521 114.59 57.3935C115.069 58.0622 115.306 59.0755 115.306 60.4369C115.306 61.3308 115.124 62.095 114.765 62.7296C114.412 63.3403 113.653 63.644 112.483 63.644H105.677V63.2346H112.058C112.554 63.2346 112.804 62.6648 112.804 61.5287V57.7245C112.804 57.1035 112.461 56.793 111.781 56.793C111.254 56.793 110.631 57.0285 109.916 57.5027C109.197 57.977 108.112 58.185 106.659 58.1304L106.35 57.9019C107.042 57.8643 107.39 57.547 107.39 56.9465" fill="white"/>
<path d="M119.518 52.3985L107.501 57.4379C107.421 57.472 107.35 57.5231 107.292 57.5846L107.117 57.7825C106.813 58.1236 106.251 57.9905 106.131 57.5504C106.06 57.2809 106.189 56.9977 106.447 56.8817L119.124 51.1123L119.518 52.3985Z" fill="white"/>
<path d="M90.7296 65.79C90.7296 66.0118 90.6338 66.1994 90.4456 66.3495C90.2573 66.4996 90.035 66.5747 89.7783 66.5747C89.5217 66.5747 89.3027 66.4962 89.1247 66.3461C88.9468 66.1925 88.8578 66.0083 88.8578 65.79C88.851 65.5477 88.9366 65.3464 89.111 65.1792C89.2855 65.0155 89.5079 64.9336 89.7783 64.9336C90.0486 64.9336 90.2745 65.0155 90.4558 65.1861C90.6372 65.3532 90.7296 65.5545 90.7296 65.79Z" fill="white"/>
<path d="M71.2255 65.79C71.2255 66.0118 71.1296 66.1994 70.9414 66.3495C70.7532 66.4996 70.5308 66.5747 70.2742 66.5747C70.0175 66.5747 69.7985 66.4962 69.6206 66.3461C69.4427 66.1925 69.3536 66.0083 69.3536 65.79C69.3469 65.5477 69.4324 65.3464 69.6069 65.1792C69.7814 65.0155 70.0039 64.9336 70.2742 64.9336C70.5445 64.9336 70.7703 65.0155 70.9517 65.1861C71.133 65.3532 71.2255 65.5545 71.2255 65.79Z" fill="white"/>
<path d="M73.3505 65.79C73.3505 66.0118 73.2546 66.1994 73.0664 66.3495C72.8782 66.4996 72.6558 66.5747 72.3992 66.5747C72.1425 66.5747 71.9235 66.4962 71.7456 66.3461C71.5677 66.1925 71.4786 66.0083 71.4786 65.79C71.4719 65.5477 71.5574 65.3464 71.7319 65.1792C71.9064 65.0121 72.1289 64.9336 72.3992 64.9336C72.6695 64.9336 72.8953 65.0155 73.0767 65.1861C73.258 65.3532 73.3505 65.5545 73.3505 65.79Z" fill="white"/>
<path d="M31.8949 65.79C31.8949 66.0118 31.7991 66.1994 31.6109 66.3495C31.4226 66.4996 31.2002 66.5747 30.9436 66.5747C30.6869 66.5747 30.4679 66.4962 30.29 66.3461C30.1121 66.1925 30.0231 66.0083 30.0231 65.79C30.0163 65.5477 30.1019 65.3464 30.2763 65.1792C30.4508 65.0155 30.6732 64.9336 30.9436 64.9336C31.2139 64.9336 31.4398 65.0155 31.6211 65.1861C31.8025 65.3532 31.8949 65.5545 31.8949 65.79Z" fill="white"/>
<path d="M34.0199 65.79C34.0199 66.0118 33.9241 66.1994 33.7358 66.3495C33.5476 66.4996 33.3252 66.5747 33.0686 66.5747C32.8119 66.5747 32.5929 66.4962 32.415 66.3461C32.2371 66.1925 32.1481 66.0083 32.1481 65.79C32.1413 65.5477 32.2269 65.3464 32.4013 65.1792C32.5758 65.0155 32.7983 64.9336 33.0686 64.9336C33.3389 64.9336 33.5648 65.0155 33.7461 65.1861C33.9275 65.3532 34.0199 65.5545 34.0199 65.79Z" fill="white"/>
<path d="M17.2185 53.7333C17.2185 53.955 17.1227 54.1427 16.9346 54.2929C16.7464 54.443 16.5239 54.5181 16.2673 54.5181C16.0107 54.5181 15.7917 54.4396 15.6137 54.2894C15.4358 54.1359 15.3468 53.9516 15.3468 53.7333C15.3399 53.4911 15.4255 53.2898 15.6001 53.1226C15.7746 52.9588 15.9969 52.877 16.2673 52.877C16.5376 52.877 16.7635 52.9588 16.9449 53.1294C17.1262 53.2966 17.2185 53.4979 17.2185 53.7333Z" fill="white"/>
<path d="M6.71709 53.7333C6.71709 53.955 6.62128 54.1427 6.43308 54.2929C6.24488 54.443 6.02246 54.5181 5.76582 54.5181C5.50918 54.5181 5.29019 54.4396 5.11225 54.2894C4.93432 54.1359 4.84535 53.9516 4.84535 53.7333C4.83851 53.4911 4.92406 53.2898 5.09857 53.1226C5.27308 52.9588 5.4955 52.877 5.76582 52.877C6.03615 52.877 6.26199 52.9588 6.44334 53.1294C6.6247 53.2966 6.71709 53.4979 6.71709 53.7333Z" fill="white"/>
<path d="M48.0015 52.0751C48.0015 52.2969 47.9057 52.4846 47.7175 52.6347C47.5293 52.7848 47.3068 52.8598 47.0502 52.8598C46.7936 52.8598 46.5746 52.7847 46.3967 52.6313C46.2187 52.4777 46.1298 52.2934 46.1298 52.0751C46.1229 51.8329 46.2085 51.6316 46.3829 51.4644C46.5575 51.2972 46.7799 51.2188 47.0502 51.2188C47.3206 51.2188 47.5464 51.3006 47.7277 51.4712C47.9091 51.6384 48.0015 51.8397 48.0015 52.0751Z" fill="white"/>
<path d="M46.9407 53.9374C46.9407 54.1592 46.8449 54.3469 46.6567 54.497C46.4685 54.6471 46.2461 54.7221 45.9894 54.7221C45.7329 54.7221 45.5139 54.6437 45.3359 54.4936C45.1579 54.34 45.069 54.1557 45.069 53.9374C45.0621 53.6952 45.1477 53.4939 45.3221 53.3267C45.4967 53.1629 45.7191 53.0811 45.9894 53.0811C46.2598 53.0811 46.4857 53.1629 46.667 53.3335C46.8484 53.5007 46.9407 53.702 46.9407 53.9374Z" fill="white"/>
<path d="M49.0657 53.9374C49.0657 54.1592 48.9699 54.3469 48.7817 54.497C48.5935 54.6471 48.3711 54.7221 48.1144 54.7221C47.8579 54.7221 47.6389 54.6437 47.4609 54.4936C47.2829 54.34 47.194 54.1557 47.194 53.9374C47.1871 53.6952 47.2727 53.4939 47.4472 53.3267C47.6217 53.1629 47.8441 53.0811 48.1144 53.0811C48.3848 53.0811 48.6107 53.1629 48.792 53.3335C48.9734 53.5007 49.0657 53.702 49.0657 53.9374Z" fill="white"/>
<path d="M118.723 50.3652L118.398 50.4762L119.512 53.7022L119.837 53.5911L118.723 50.3652Z" fill="white"/>
<path d="M90.1205 56.1963H87.3831V56.5374H90.1205V56.1963Z" fill="white"/>
<path d="M92.995 65.79C92.995 66.0118 92.8992 66.1994 92.711 66.3495C92.5227 66.4996 92.3003 66.5747 92.0437 66.5747C91.787 66.5747 91.568 66.4962 91.3901 66.3461C91.2122 66.1925 91.1232 66.0083 91.1232 65.79C91.1164 65.5477 91.202 65.3464 91.3764 65.1792C91.5509 65.0155 91.7734 64.9336 92.0437 64.9336C92.314 64.9336 92.5399 65.0155 92.7212 65.1861C92.9026 65.3532 92.995 65.5545 92.995 65.79Z" fill="white"/>
<path d="M45.3664 61.792H35.9084V63.3819H45.3664V61.792Z" fill="white"/>
<path d="M83.2358 45.0708H85.2752V32.5391H83.2358V32.2832H93.7443V36.1351H93.5423C93.3816 35.6575 93.2105 35.2412 93.0291 34.8796C92.8443 34.5214 92.6253 34.2143 92.3686 33.9652C92.112 33.7161 91.804 33.5285 91.4516 33.4057C91.0957 33.2829 90.668 33.2214 90.165 33.2214H87.1161V37.5169H88.3104C88.7141 37.5169 89.0563 37.4794 89.3404 37.4078C89.6209 37.3361 89.8639 37.1962 90.0658 36.9949C90.2676 36.7937 90.4387 36.5173 90.5791 36.1693C90.7193 35.8213 90.8562 36.0567 90.9931 35.5039L91.1949 34.8216V41.2017H90.9931C90.9075 40.8468 90.8186 40.5057 90.7262 40.1748C90.6337 39.8438 90.5072 39.5504 90.3395 39.2945C90.1752 39.0386 89.9528 38.8339 89.6791 38.6804C89.4019 38.5269 89.0461 38.4518 88.6047 38.4518H87.1161V44.3815H90.5893C91.2634 44.3815 91.8246 44.2383 92.2694 43.9517C92.7177 43.6651 93.0804 43.3239 93.3609 42.9247C93.6416 42.5289 93.8503 42.1161 93.9872 41.6897C94.1206 41.2632 94.2062 40.9083 94.2438 40.6285L94.4457 41.3109V45.3232H83.2392V45.0674L83.2358 45.0708Z" fill="white"/>
<path d="M0 45.0024H2.05994V32.4707H0V32.2148H5.82395V32.4707H3.91115V38.2982H3.75375L9.35185 32.4707H7.42536V32.2148H11.6103V32.4707H10.0704L5.35858 37.4009L12.0893 45.0024H13.3143V45.2583H7.95575V45.0024H9.6256L4.06171 38.554H3.91115V45.0024H5.82395V45.2583H0V45.0024Z" fill="white"/>
</g>
</g>
<defs>
<clipPath id="clip0_162_72">
<rect width="120" height="67.7419" fill="white"/>
</clipPath>
</defs>
</svg>
