<svg width="30" height="17" viewBox="0 0 30 17" fill="none" xmlns="http://www.w3.org/2000/svg">
<path d="M27.1809 14.1901H22.2164C21.3128 14.1858 21.3138 12.8792 22.2164 12.8757H27.1809L26.1484 11.8934C25.5128 11.2827 26.4864 10.3608 27.1265 10.9663L29.337 13.0694C29.4664 13.1926 29.5391 13.3596 29.5391 13.5338C29.5391 13.708 29.4664 13.875 29.337 13.9982C29.3149 14.0044 27.133 16.1153 27.1099 16.1171C26.4569 16.7129 25.5027 15.77 26.1493 15.1716L27.1809 14.1901Z" fill="white"/>
<path d="M27.1809 14.1901H22.2164C21.3128 14.1858 21.3138 12.8792 22.2164 12.8757H27.1809L26.1484 11.8934C25.5128 11.2827 26.4864 10.3608 27.1265 10.9663L29.337 13.0694C29.4664 13.1926 29.5391 13.3596 29.5391 13.5338C29.5391 13.708 29.4664 13.875 29.337 13.9982C29.3149 14.0044 27.133 16.1153 27.1099 16.1171C26.4569 16.7129 25.5027 15.77 26.1493 15.1716L27.1809 14.1901Z" fill="url(#paint0_linear_1774_84)"/>
<path d="M15.4216 2.35821L15.4216 7.32268C15.4172 8.22623 14.1107 8.22531 14.1072 7.32268L14.1072 2.35821L13.1249 3.39071C12.5141 4.02624 11.5923 3.05268 12.1978 2.41255L14.3008 0.202025C14.4241 0.0726627 14.5911 3.63577e-07 14.7653 3.55964e-07C14.9394 3.48351e-07 15.1064 0.0726627 15.2297 0.202025C15.2358 0.22413 17.3467 2.4061 17.3485 2.42913C17.9444 3.08216 17.0015 4.03637 16.403 3.38979L15.4216 2.35821Z" fill="white"/>
<path d="M15.4216 2.35821L15.4216 7.32268C15.4172 8.22623 14.1107 8.22531 14.1072 7.32268L14.1072 2.35821L13.1249 3.39071C12.5141 4.02624 11.5923 3.05268 12.1978 2.41255L14.3008 0.202025C14.4241 0.0726627 14.5911 3.63577e-07 14.7653 3.55964e-07C14.9394 3.48351e-07 15.1064 0.0726627 15.2297 0.202025C15.2358 0.22413 17.3467 2.4061 17.3485 2.42913C17.9444 3.08216 17.0015 4.03637 16.403 3.38979L15.4216 2.35821Z" fill="url(#paint1_linear_1774_84)"/>
<path d="M2.35821 12.8851L7.32268 12.8851C8.22623 12.8894 8.22531 14.196 7.32268 14.1995L2.35821 14.1995L3.39071 15.1818C4.02623 15.7925 3.05268 16.7144 2.41255 16.1089L0.202024 14.0058C0.0726621 13.8826 -7.27154e-07 13.7155 -7.11928e-07 13.5414C-6.96703e-07 13.3672 0.0726621 13.2002 0.202024 13.077C0.224129 13.0708 2.4061 10.9599 2.42913 10.9581C3.08216 10.3623 4.03637 11.3051 3.38979 11.9036L2.35821 12.8851Z" fill="white"/>
<path d="M2.35821 12.8851L7.32268 12.8851C8.22623 12.8894 8.22531 14.196 7.32268 14.1995L2.35821 14.1995L3.39071 15.1818C4.02623 15.7925 3.05268 16.7144 2.41255 16.1089L0.202024 14.0058C0.0726621 13.8826 -7.27154e-07 13.7155 -7.11928e-07 13.5414C-6.96703e-07 13.3672 0.0726621 13.2002 0.202024 13.077C0.224129 13.0708 2.4061 10.9599 2.42913 10.9581C3.08216 10.3623 4.03637 11.3051 3.38979 11.9036L2.35821 12.8851Z" fill="url(#paint2_linear_1774_84)"/>
<defs>
<linearGradient id="paint0_linear_1774_84" x1="22.2413" y1="16.4635" x2="26.4975" y2="18.5748" gradientUnits="userSpaceOnUse">
<stop offset="0.00878495" stop-color="#AE6E56"/>
<stop offset="0.486725" stop-color="#C99179"/>
<stop offset="1" stop-color="#DD8B69"/>
</linearGradient>
<linearGradient id="paint1_linear_1774_84" x1="17.695" y1="7.29778" x2="19.8063" y2="3.04156" gradientUnits="userSpaceOnUse">
<stop offset="0.00878495" stop-color="#AE6E56"/>
<stop offset="0.486725" stop-color="#C99179"/>
<stop offset="1" stop-color="#DD8B69"/>
</linearGradient>
<linearGradient id="paint2_linear_1774_84" x1="7.29778" y1="10.6117" x2="3.04157" y2="8.50035" gradientUnits="userSpaceOnUse">
<stop offset="0.00878495" stop-color="#AE6E56"/>
<stop offset="0.486725" stop-color="#C99179"/>
<stop offset="1" stop-color="#DD8B69"/>
</linearGradient>
</defs>
</svg>
