<svg width="22" height="13" viewBox="0 0 22 13" fill="none" xmlns="http://www.w3.org/2000/svg">
<path d="M19.4113 10.4216H14.4469C13.5433 10.4172 13.5442 9.11068 14.4469 9.10717H19.4113L18.3788 8.12487C17.7433 7.51411 18.7168 6.59227 19.357 7.19778L21.5675 9.30083C21.6969 9.42405 21.7695 9.59109 21.7695 9.76525C21.7695 9.93941 21.6969 10.1064 21.5675 10.2297C21.5454 10.2358 19.3634 12.3467 19.3404 12.3485C18.6874 12.9444 17.7332 12.0015 18.3797 11.403L19.4113 10.4216Z" fill="white"/>
<path d="M19.4113 10.4216H14.4469C13.5433 10.4172 13.5442 9.11068 14.4469 9.10717H19.4113L18.3788 8.12487C17.7433 7.51411 18.7168 6.59227 19.357 7.19778L21.5675 9.30083C21.6969 9.42405 21.7695 9.59109 21.7695 9.76525C21.7695 9.93941 21.6969 10.1064 21.5675 10.2297C21.5454 10.2358 19.3634 12.3467 19.3404 12.3485C18.6874 12.9444 17.7332 12.0015 18.3797 11.403L19.4113 10.4216Z" fill="url(#paint0_linear_1505_24)"/>
<path d="M11.652 2.58965L11.652 7.55413C11.6477 8.45768 10.3411 8.45676 10.3376 7.55413L10.3376 2.58965L9.35534 3.62215C8.74458 4.25768 7.82274 3.28413 8.42824 2.644L10.5313 0.43347C10.6545 0.304108 10.8216 0.231446 10.9957 0.231446C11.1699 0.231446 11.3369 0.304108 11.4601 0.43347C11.4663 0.455575 13.5772 2.63755 13.579 2.66057C14.1748 3.3136 13.232 4.26781 12.6335 3.62123L11.652 2.58965Z" fill="white"/>
<path d="M11.652 2.58965L11.652 7.55413C11.6477 8.45768 10.3411 8.45676 10.3376 7.55413L10.3376 2.58965L9.35534 3.62215C8.74458 4.25768 7.82274 3.28413 8.42824 2.644L10.5313 0.43347C10.6545 0.304108 10.8216 0.231446 10.9957 0.231446C11.1699 0.231446 11.3369 0.304108 11.4601 0.43347C11.4663 0.455575 13.5772 2.63755 13.579 2.66057C14.1748 3.3136 13.232 4.26781 12.6335 3.62123L11.652 2.58965Z" fill="url(#paint1_linear_1505_24)"/>
<path d="M2.58868 9.11651L7.55315 9.11651C8.4567 9.12089 8.45578 10.4274 7.55315 10.4309L2.58868 10.4309L3.62118 11.4132C4.2567 12.024 3.28315 12.9458 2.64302 12.3403L0.432493 10.2373C0.303131 10.114 0.230468 9.94699 0.230468 9.77284C0.230468 9.59868 0.303131 9.43164 0.432493 9.30841C0.454598 9.30228 2.63657 7.19134 2.6596 7.18959C3.31262 6.59372 4.26684 7.53659 3.62026 8.13509L2.58868 9.11651Z" fill="white"/>
<path d="M2.58868 9.11651L7.55315 9.11651C8.4567 9.12089 8.45578 10.4274 7.55315 10.4309L2.58868 10.4309L3.62118 11.4132C4.2567 12.024 3.28315 12.9458 2.64302 12.3403L0.432493 10.2373C0.303131 10.114 0.230468 9.94699 0.230468 9.77284C0.230468 9.59868 0.303131 9.43164 0.432493 9.30841C0.454598 9.30228 2.63657 7.19134 2.6596 7.18959C3.31262 6.59372 4.26684 7.53659 3.62026 8.13509L2.58868 9.11651Z" fill="url(#paint2_linear_1505_24)"/>
<defs>
<linearGradient id="paint0_linear_1505_24" x1="14.4717" y1="12.695" x2="18.728" y2="14.8063" gradientUnits="userSpaceOnUse">
<stop offset="0.00878495" stop-color="#AE6E56"/>
<stop offset="0.486725" stop-color="#C99179"/>
<stop offset="1" stop-color="#DD8B69"/>
</linearGradient>
<linearGradient id="paint1_linear_1505_24" x1="13.9254" y1="7.52923" x2="16.0368" y2="3.27301" gradientUnits="userSpaceOnUse">
<stop offset="0.00878495" stop-color="#AE6E56"/>
<stop offset="0.486725" stop-color="#C99179"/>
<stop offset="1" stop-color="#DD8B69"/>
</linearGradient>
<linearGradient id="paint2_linear_1505_24" x1="7.52825" y1="6.84312" x2="3.27203" y2="4.73179" gradientUnits="userSpaceOnUse">
<stop offset="0.00878495" stop-color="#AE6E56"/>
<stop offset="0.486725" stop-color="#C99179"/>
<stop offset="1" stop-color="#DD8B69"/>
</linearGradient>
</defs>
</svg>
