<svg width="56" height="29" viewBox="0 0 56 29" fill="none" xmlns="http://www.w3.org/2000/svg">
<g clip-path="url(#clip0_114_32)">
<path d="M16.9442 27.749C16.5208 27.4938 16.3259 27.002 16.1348 26.5215L13.4407 19.4604L13.4182 19.4004H12.103L12.5639 20.6091L10.1283 27.0433C9.74983 27.7791 9.31143 27.8166 9.2927 27.8203L9.20276 27.8241V28.192H11.7395V27.8128L11.6421 27.8166C11.6384 27.8166 10.8327 27.8541 10.6791 27.3098C10.6304 27.1334 10.6416 26.9194 10.7128 26.6829L11.3723 24.9299H14.2164L14.8983 26.7317C14.9395 26.8331 14.962 26.9194 14.9733 27.017C15.0107 27.2685 14.9695 27.4637 14.8459 27.5989C14.636 27.8316 14.2463 27.8166 14.2463 27.8166L14.1489 27.8128V28.192H17.2252V27.8354L17.0903 27.8091C17.0454 27.7978 16.9967 27.7791 16.9442 27.749ZM11.5334 24.5094L12.7887 21.1947L13.9466 24.2241L14.0515 24.5094H11.5334Z" fill="url(#paint0_linear_114_32)"/>
<path d="M47.6744 27.7383C47.2511 27.483 47.0561 26.9912 46.8651 26.5108L44.1711 19.4497L44.1484 19.3896H42.8294L43.2905 20.5984L40.8549 27.0326C40.4762 27.7683 40.0342 27.8059 40.0192 27.8059L39.9293 27.8096V28.1775H42.4661V27.7983L42.3686 27.8021C42.3649 27.8021 41.5593 27.8396 41.4055 27.2953C41.3569 27.1189 41.3683 26.9049 41.4393 26.6684L42.0988 24.9154H44.9429L45.6248 26.7172C45.6661 26.8186 45.6885 26.9049 45.6999 27.0025C45.7371 27.254 45.6959 27.4492 45.5722 27.5844C45.3625 27.8171 44.9727 27.8021 44.9727 27.8021L44.8755 27.7983V28.1775H47.9518V27.8209L47.8168 27.7946C47.7719 27.7871 47.7233 27.7683 47.6744 27.7383ZM42.26 24.4987L43.5153 21.184L44.6731 24.2134L44.778 24.4987H42.26Z" fill="url(#paint1_linear_114_32)"/>
<path d="M22.1308 19.376H18.661V19.7326L18.7584 19.7251C18.7659 19.7251 19.4741 19.7063 19.6315 20.2694C19.6502 20.3407 19.6652 20.4158 19.6652 20.4796C19.6652 22.6832 19.6652 24.8904 19.6652 27.094C20.0774 27.4543 20.4933 27.8109 20.9055 28.1713V24.684H21.9434C21.9884 24.6765 23.416 24.699 24.3341 23.7906C24.8249 23.31 25.076 22.6456 25.076 21.8348C25.0797 19.5374 22.6292 19.3797 22.1308 19.376ZM23.7346 22.1201C23.7346 24.2072 22.1383 24.2635 21.9547 24.2635H20.9093V20.5209C20.9093 20.4609 20.9093 20.4233 20.9242 20.3745C21.0104 19.7626 21.6924 19.7626 21.9172 19.7739H21.9509C22.4493 19.7739 22.8577 19.924 23.1537 20.2206C23.5397 20.6148 23.7458 21.2604 23.7383 22.0901V22.1201H23.7346Z" fill="url(#paint2_linear_114_32)"/>
<path d="M28.9915 27.2733C28.9728 27.2058 28.9728 27.1269 28.9728 27.0631C28.9651 24.8596 28.9614 22.656 28.954 20.4563C28.5381 20.0959 28.1258 19.7393 27.7099 19.3789V22.0292C27.7099 23.7071 27.7174 25.3851 27.7174 27.0631C27.7174 27.1307 27.7024 27.2095 27.6987 27.2733C27.5338 27.8402 26.8443 27.8176 26.8106 27.8176L26.7169 27.8101V28.1667H29.9694V27.8101L29.8719 27.8176C29.8719 27.8214 29.1487 27.8477 28.9915 27.2733Z" fill="url(#paint3_linear_114_32)"/>
<path d="M31.603 22.1117H32.0752V22.0179C32.0752 20.4976 32.5624 19.7918 33.6116 19.7918H34.4508C34.4508 22.2244 34.4508 24.6569 34.4508 27.0894C34.8669 27.4498 35.2791 27.8064 35.691 28.1667V19.7956H36.5194C37.5686 19.7956 38.0555 20.5013 38.0555 22.0217V22.1155H38.5277V19.3789H31.603V22.1117Z" fill="url(#paint4_linear_114_32)"/>
<path d="M55.5322 25.388V25.4819C55.5322 27.0022 55.0416 27.7117 53.9887 27.7117H52.7334C52.5421 27.7192 51.9238 27.6967 51.8414 27.1373C51.834 27.1185 51.834 27.0697 51.834 27.0397C51.834 24.8287 51.834 22.6214 51.834 20.4104C51.4218 20.05 51.0059 19.6934 50.5937 19.333V27.0322C50.5488 27.8017 49.7131 27.7755 49.6756 27.783L49.582 27.7755V28.1321H56.0007V25.388H55.5322Z" fill="url(#paint5_linear_114_32)"/>
<path d="M7.15374 25.0687H6.65162L6.6479 25.1588C6.6479 25.1738 6.58044 26.6791 5.80105 27.3398C5.65866 27.4599 5.48628 27.5462 5.31768 27.6326L5.27271 27.6551C5.08911 27.7377 4.89052 27.8052 4.68815 27.8616C4.28347 27.9591 3.90503 27.9554 3.56031 27.8503C3.27926 27.7677 3.01696 27.6213 2.75842 27.3998C2.56358 27.2346 2.38372 27.0094 2.19262 26.6941C2.04273 26.4276 1.91533 26.146 1.81416 25.872C1.80667 25.8419 1.79543 25.8157 1.78418 25.7894C1.77669 25.7744 1.7692 25.7594 1.76545 25.7331C1.49191 24.9072 1.39449 24.0363 1.47693 23.1467C1.71674 20.4401 2.94579 19.8395 3.30925 19.7231C3.97246 19.5542 4.63946 19.6218 5.22024 19.9033C5.62495 20.0873 5.93593 20.3463 6.14577 20.6729C6.20197 20.763 6.2582 20.853 6.30314 20.9431C6.41182 21.1646 6.498 21.4236 6.56546 21.739C6.58795 21.9004 6.6104 22.0656 6.62541 22.2195V22.3471H7.10502L7.09379 21.007L7.13126 19.3815H6.68912L6.68536 19.4716C6.67786 19.6743 6.61415 20.0272 6.47177 20.106C6.45303 20.1173 6.40059 20.1473 6.26568 20.0685C6.24694 20.0647 6.22821 20.0497 6.20197 20.0272C5.55374 19.4904 4.80433 19.2051 4.02869 19.2051H3.80386C3.7664 19.2051 0.0343018 19.3327 0.0343018 23.935C0.0343018 25.9771 1.07224 28.3608 3.99122 28.3608H4.02869C4.81556 28.3608 5.60246 28.0643 6.24694 27.5274C6.35937 27.4411 6.44928 27.4111 6.51299 27.4411C6.65913 27.5087 6.72658 27.8691 6.73406 28.083L6.73781 28.1731H7.17998L7.1575 26.5514V25.0687H7.15374Z" fill="url(#paint6_linear_114_32)"/>
<path d="M22.8909 8.90807C24.0562 8.90807 25.2215 8.90807 26.3869 8.90807C26.3307 8.76542 26.2782 8.62279 26.222 8.48389H23.0557C23.0033 8.62279 22.9471 8.76542 22.8909 8.90807Z" fill="url(#paint7_linear_114_32)"/>
<path d="M37.895 14.6627C37.5803 14.4712 37.3105 14.2009 37.0894 13.9044C36.6846 13.3676 36.5535 12.9472 36.5535 12.9472C36.3662 12.4554 35.452 10.2218 34.0691 6.85835C34.8337 5.36804 35.5905 3.87776 36.3548 2.38747C36.9507 1.23127 37.509 0.544312 38.1761 0.420435C38.206 0.416682 38.2398 0.412928 38.2733 0.412928C38.3035 0.412928 38.3296 0.409174 38.3558 0.409174C38.3558 0.274034 38.3558 0.138894 38.3558 0C38.2958 0 38.2358 0 38.1761 0.00375388H34.9534V0.424189C35.0583 0.427943 35.1558 0.43545 35.2607 0.439204C35.628 0.491759 35.8867 0.596867 36.0402 0.784562C36.0402 0.784562 36.2013 0.983516 36.1976 1.29884C36.1937 1.64044 35.1407 3.80644 33.8556 6.35157C33.0986 4.51218 32.2182 2.3687 31.2478 0.00750776H29.0257C29.1604 0.330343 29.2954 0.653176 29.4265 0.968501C29.5578 1.28008 29.6852 1.59165 29.8162 1.90322C30.7642 4.18184 31.6898 6.46418 32.6304 8.7428C32.5892 8.82537 32.5443 8.90797 32.5031 8.99054C31.8097 10.3232 31.1278 11.6258 30.5618 12.7107C29.4865 9.83893 28.6772 7.75553 28.0439 6.11507C27.4856 4.65105 26.6912 2.57516 25.7132 0.0112616H23.4762C23.7685 0.769547 24.0608 1.52783 24.353 2.28611L22.3671 7.69169L20.3512 13.2174C19.5943 14.749 18.6613 14.794 18.6613 14.794V15.1544H22.9929V14.794C22.9929 14.794 21.3704 14.8841 21.0444 13.6942C20.9582 13.3526 20.9582 12.9321 21.1118 12.3916L22.0861 9.7113C22.3334 9.03935 22.5769 8.36365 22.8205 7.69169L24.5816 2.88299C25.1999 4.48588 25.8144 6.08506 26.4327 7.69169L26.7249 8.47626C26.7849 8.62641 26.8486 8.77659 26.9085 8.92674L27.1971 9.7113C27.8903 11.5282 28.5796 13.3375 29.2693 15.1507L29.835 15.1469C29.9961 14.8278 30.1573 14.5088 30.3222 14.1897C30.472 13.8969 30.6258 13.6003 30.7756 13.3038C30.7756 13.3 30.7793 13.3 30.7793 13.2925C31.4274 12.0312 32.0681 10.7699 32.7165 9.50482C32.7578 9.42225 32.799 9.34342 32.8402 9.26082C33.3087 10.3982 33.7845 11.5319 34.2641 12.6656C34.2865 12.7182 34.3502 12.9284 34.3988 13.2099C34.5114 13.8856 34.2715 14.2835 33.9568 14.505C33.492 14.8428 32.8365 14.8128 32.8365 14.8128V15.1507H38.3558V14.8128L38.221 14.7978C38.1161 14.7678 38.0036 14.7227 37.895 14.6627Z" fill="url(#paint8_linear_114_32)"/>
<path d="M18.6609 8.48389H0.0341797V8.90432H18.6609V8.48389Z" fill="url(#paint9_linear_114_32)"/>
<path d="M56.0008 8.48389H38.3594V8.90432H56.0008V8.48389Z" fill="url(#paint10_linear_114_32)"/>
</g>
<defs>
<linearGradient id="paint0_linear_114_32" x1="13.2142" y1="10.7761" x2="13.2142" y2="28.1758" gradientUnits="userSpaceOnUse">
<stop offset="0.0891892" stop-color="#AE6E56"/>
<stop offset="0.1151" stop-color="#C99179"/>
<stop offset="0.1416" stop-color="#DFAC95"/>
<stop offset="0.1684" stop-color="#EFC0A9"/>
<stop offset="0.195" stop-color="#F8CCB5"/>
<stop offset="0.2216" stop-color="#FBD0B9"/>
<stop offset="0.2635" stop-color="#F6CAB3"/>
<stop offset="0.3198" stop-color="#E9BAA2"/>
<stop offset="0.3324" stop-color="#E5B59D"/>
<stop offset="0.3355" stop-color="#E0AE96"/>
<stop offset="0.3492" stop-color="#CC957B"/>
<stop offset="0.365" stop-color="#BC8065"/>
<stop offset="0.3834" stop-color="#B07054"/>
<stop offset="0.4062" stop-color="#A76449"/>
<stop offset="0.4382" stop-color="#A25E42"/>
<stop offset="0.527" stop-color="#A15C40"/>
<stop offset="0.586" stop-color="#B96F50"/>
<stop offset="0.6559" stop-color="#CF7F5F"/>
<stop offset="0.7237" stop-color="#DC8A68"/>
<stop offset="0.7865" stop-color="#E08D6B"/>
<stop offset="0.7888" stop-color="#DD8B69"/>
<stop offset="0.8077" stop-color="#C7795A"/>
<stop offset="0.8298" stop-color="#B66C4E"/>
<stop offset="0.8571" stop-color="#AA6346"/>
<stop offset="0.8949" stop-color="#A35D41"/>
<stop offset="0.9944" stop-color="#A15C40"/>
</linearGradient>
<linearGradient id="paint1_linear_114_32" x1="43.9423" y1="10.7636" x2="43.9423" y2="28.1632" gradientUnits="userSpaceOnUse">
<stop offset="0.0891892" stop-color="#AE6E56"/>
<stop offset="0.1151" stop-color="#C99179"/>
<stop offset="0.1416" stop-color="#DFAC95"/>
<stop offset="0.1684" stop-color="#EFC0A9"/>
<stop offset="0.195" stop-color="#F8CCB5"/>
<stop offset="0.2216" stop-color="#FBD0B9"/>
<stop offset="0.2635" stop-color="#F6CAB3"/>
<stop offset="0.3198" stop-color="#E9BAA2"/>
<stop offset="0.3324" stop-color="#E5B59D"/>
<stop offset="0.3355" stop-color="#E0AE96"/>
<stop offset="0.3492" stop-color="#CC957B"/>
<stop offset="0.365" stop-color="#BC8065"/>
<stop offset="0.3834" stop-color="#B07054"/>
<stop offset="0.4062" stop-color="#A76449"/>
<stop offset="0.4382" stop-color="#A25E42"/>
<stop offset="0.527" stop-color="#A15C40"/>
<stop offset="0.586" stop-color="#B96F50"/>
<stop offset="0.6559" stop-color="#CF7F5F"/>
<stop offset="0.7237" stop-color="#DC8A68"/>
<stop offset="0.7865" stop-color="#E08D6B"/>
<stop offset="0.7888" stop-color="#DD8B69"/>
<stop offset="0.8077" stop-color="#C7795A"/>
<stop offset="0.8298" stop-color="#B66C4E"/>
<stop offset="0.8571" stop-color="#AA6346"/>
<stop offset="0.8949" stop-color="#A35D41"/>
<stop offset="0.9944" stop-color="#A15C40"/>
</linearGradient>
<linearGradient id="paint2_linear_114_32" x1="21.8715" y1="10.7405" x2="21.8715" y2="28.1551" gradientUnits="userSpaceOnUse">
<stop offset="0.0891892" stop-color="#AE6E56"/>
<stop offset="0.1151" stop-color="#C99179"/>
<stop offset="0.1416" stop-color="#DFAC95"/>
<stop offset="0.1684" stop-color="#EFC0A9"/>
<stop offset="0.195" stop-color="#F8CCB5"/>
<stop offset="0.2216" stop-color="#FBD0B9"/>
<stop offset="0.2635" stop-color="#F6CAB3"/>
<stop offset="0.3198" stop-color="#E9BAA2"/>
<stop offset="0.3324" stop-color="#E5B59D"/>
<stop offset="0.3355" stop-color="#E0AE96"/>
<stop offset="0.3492" stop-color="#CC957B"/>
<stop offset="0.365" stop-color="#BC8065"/>
<stop offset="0.3834" stop-color="#B07054"/>
<stop offset="0.4062" stop-color="#A76449"/>
<stop offset="0.4382" stop-color="#A25E42"/>
<stop offset="0.527" stop-color="#A15C40"/>
<stop offset="0.586" stop-color="#B96F50"/>
<stop offset="0.6559" stop-color="#CF7F5F"/>
<stop offset="0.7237" stop-color="#DC8A68"/>
<stop offset="0.7865" stop-color="#E08D6B"/>
<stop offset="0.7888" stop-color="#DD8B69"/>
<stop offset="0.8077" stop-color="#C7795A"/>
<stop offset="0.8298" stop-color="#B66C4E"/>
<stop offset="0.8571" stop-color="#AA6346"/>
<stop offset="0.8949" stop-color="#A35D41"/>
<stop offset="0.9944" stop-color="#A15C40"/>
</linearGradient>
<linearGradient id="paint3_linear_114_32" x1="28.3435" y1="10.7495" x2="28.3435" y2="28.1511" gradientUnits="userSpaceOnUse">
<stop offset="0.0891892" stop-color="#AE6E56"/>
<stop offset="0.1151" stop-color="#C99179"/>
<stop offset="0.1416" stop-color="#DFAC95"/>
<stop offset="0.1684" stop-color="#EFC0A9"/>
<stop offset="0.195" stop-color="#F8CCB5"/>
<stop offset="0.2216" stop-color="#FBD0B9"/>
<stop offset="0.2635" stop-color="#F6CAB3"/>
<stop offset="0.3198" stop-color="#E9BAA2"/>
<stop offset="0.3324" stop-color="#E5B59D"/>
<stop offset="0.3355" stop-color="#E0AE96"/>
<stop offset="0.3492" stop-color="#CC957B"/>
<stop offset="0.365" stop-color="#BC8065"/>
<stop offset="0.3834" stop-color="#B07054"/>
<stop offset="0.4062" stop-color="#A76449"/>
<stop offset="0.4382" stop-color="#A25E42"/>
<stop offset="0.527" stop-color="#A15C40"/>
<stop offset="0.586" stop-color="#B96F50"/>
<stop offset="0.6559" stop-color="#CF7F5F"/>
<stop offset="0.7237" stop-color="#DC8A68"/>
<stop offset="0.7865" stop-color="#E08D6B"/>
<stop offset="0.7888" stop-color="#DD8B69"/>
<stop offset="0.8077" stop-color="#C7795A"/>
<stop offset="0.8298" stop-color="#B66C4E"/>
<stop offset="0.8571" stop-color="#AA6346"/>
<stop offset="0.8949" stop-color="#A35D41"/>
<stop offset="0.9944" stop-color="#A15C40"/>
</linearGradient>
<linearGradient id="paint4_linear_114_32" x1="35.0676" y1="10.7397" x2="35.0676" y2="28.1542" gradientUnits="userSpaceOnUse">
<stop offset="0.0891892" stop-color="#AE6E56"/>
<stop offset="0.1151" stop-color="#C99179"/>
<stop offset="0.1416" stop-color="#DFAC95"/>
<stop offset="0.1684" stop-color="#EFC0A9"/>
<stop offset="0.195" stop-color="#F8CCB5"/>
<stop offset="0.2216" stop-color="#FBD0B9"/>
<stop offset="0.2635" stop-color="#F6CAB3"/>
<stop offset="0.3198" stop-color="#E9BAA2"/>
<stop offset="0.3324" stop-color="#E5B59D"/>
<stop offset="0.3355" stop-color="#E0AE96"/>
<stop offset="0.3492" stop-color="#CC957B"/>
<stop offset="0.365" stop-color="#BC8065"/>
<stop offset="0.3834" stop-color="#B07054"/>
<stop offset="0.4062" stop-color="#A76449"/>
<stop offset="0.4382" stop-color="#A25E42"/>
<stop offset="0.527" stop-color="#A15C40"/>
<stop offset="0.586" stop-color="#B96F50"/>
<stop offset="0.6559" stop-color="#CF7F5F"/>
<stop offset="0.7237" stop-color="#DC8A68"/>
<stop offset="0.7865" stop-color="#E08D6B"/>
<stop offset="0.7888" stop-color="#DD8B69"/>
<stop offset="0.8077" stop-color="#C7795A"/>
<stop offset="0.8298" stop-color="#B66C4E"/>
<stop offset="0.8571" stop-color="#AA6346"/>
<stop offset="0.8949" stop-color="#A35D41"/>
<stop offset="0.9944" stop-color="#A15C40"/>
</linearGradient>
<linearGradient id="paint5_linear_114_32" x1="52.7911" y1="10.6991" x2="52.7911" y2="28.114" gradientUnits="userSpaceOnUse">
<stop offset="0.0891892" stop-color="#AE6E56"/>
<stop offset="0.1151" stop-color="#C99179"/>
<stop offset="0.1416" stop-color="#DFAC95"/>
<stop offset="0.1684" stop-color="#EFC0A9"/>
<stop offset="0.195" stop-color="#F8CCB5"/>
<stop offset="0.2216" stop-color="#FBD0B9"/>
<stop offset="0.2635" stop-color="#F6CAB3"/>
<stop offset="0.3198" stop-color="#E9BAA2"/>
<stop offset="0.3324" stop-color="#E5B59D"/>
<stop offset="0.3355" stop-color="#E0AE96"/>
<stop offset="0.3492" stop-color="#CC957B"/>
<stop offset="0.365" stop-color="#BC8065"/>
<stop offset="0.3834" stop-color="#B07054"/>
<stop offset="0.4062" stop-color="#A76449"/>
<stop offset="0.4382" stop-color="#A25E42"/>
<stop offset="0.527" stop-color="#A15C40"/>
<stop offset="0.586" stop-color="#B96F50"/>
<stop offset="0.6559" stop-color="#CF7F5F"/>
<stop offset="0.7237" stop-color="#DC8A68"/>
<stop offset="0.7865" stop-color="#E08D6B"/>
<stop offset="0.7888" stop-color="#DD8B69"/>
<stop offset="0.8077" stop-color="#C7795A"/>
<stop offset="0.8298" stop-color="#B66C4E"/>
<stop offset="0.8571" stop-color="#AA6346"/>
<stop offset="0.8949" stop-color="#A35D41"/>
<stop offset="0.9944" stop-color="#A15C40"/>
</linearGradient>
<linearGradient id="paint6_linear_114_32" x1="3.6059" y1="10.2222" x2="3.6059" y2="28.3443" gradientUnits="userSpaceOnUse">
<stop offset="0.0891892" stop-color="#AE6E56"/>
<stop offset="0.1151" stop-color="#C99179"/>
<stop offset="0.1416" stop-color="#DFAC95"/>
<stop offset="0.1684" stop-color="#EFC0A9"/>
<stop offset="0.195" stop-color="#F8CCB5"/>
<stop offset="0.2216" stop-color="#FBD0B9"/>
<stop offset="0.2635" stop-color="#F6CAB3"/>
<stop offset="0.3198" stop-color="#E9BAA2"/>
<stop offset="0.3324" stop-color="#E5B59D"/>
<stop offset="0.3355" stop-color="#E0AE96"/>
<stop offset="0.3492" stop-color="#CC957B"/>
<stop offset="0.365" stop-color="#BC8065"/>
<stop offset="0.3834" stop-color="#B07054"/>
<stop offset="0.4062" stop-color="#A76449"/>
<stop offset="0.4382" stop-color="#A25E42"/>
<stop offset="0.527" stop-color="#A15C40"/>
<stop offset="0.586" stop-color="#B96F50"/>
<stop offset="0.6559" stop-color="#CF7F5F"/>
<stop offset="0.7237" stop-color="#DC8A68"/>
<stop offset="0.7865" stop-color="#E08D6B"/>
<stop offset="0.7888" stop-color="#DD8B69"/>
<stop offset="0.8077" stop-color="#C7795A"/>
<stop offset="0.8298" stop-color="#B66C4E"/>
<stop offset="0.8571" stop-color="#AA6346"/>
<stop offset="0.8949" stop-color="#A35D41"/>
<stop offset="0.9944" stop-color="#A15C40"/>
</linearGradient>
<linearGradient id="paint7_linear_114_32" x1="24.6405" y1="0.393203" x2="24.6405" y2="14.9495" gradientUnits="userSpaceOnUse">
<stop offset="0.0891892" stop-color="#AE6E56"/>
<stop offset="0.1151" stop-color="#C99179"/>
<stop offset="0.1416" stop-color="#DFAC95"/>
<stop offset="0.1684" stop-color="#EFC0A9"/>
<stop offset="0.195" stop-color="#F8CCB5"/>
<stop offset="0.2216" stop-color="#FBD0B9"/>
<stop offset="0.2635" stop-color="#F6CAB3"/>
<stop offset="0.3198" stop-color="#E9BAA2"/>
<stop offset="0.3324" stop-color="#E5B59D"/>
<stop offset="0.3355" stop-color="#E0AE96"/>
<stop offset="0.3492" stop-color="#CC957B"/>
<stop offset="0.365" stop-color="#BC8065"/>
<stop offset="0.3834" stop-color="#B07054"/>
<stop offset="0.4062" stop-color="#A76449"/>
<stop offset="0.4382" stop-color="#A25E42"/>
<stop offset="0.527" stop-color="#A15C40"/>
<stop offset="0.586" stop-color="#B96F50"/>
<stop offset="0.6559" stop-color="#CF7F5F"/>
<stop offset="0.7237" stop-color="#DC8A68"/>
<stop offset="0.7865" stop-color="#E08D6B"/>
<stop offset="0.7888" stop-color="#DD8B69"/>
<stop offset="0.8077" stop-color="#C7795A"/>
<stop offset="0.8298" stop-color="#B66C4E"/>
<stop offset="0.8571" stop-color="#AA6346"/>
<stop offset="0.8949" stop-color="#A35D41"/>
<stop offset="0.9944" stop-color="#A15C40"/>
</linearGradient>
<linearGradient id="paint8_linear_114_32" x1="28.5111" y1="0.0735011" x2="28.5111" y2="15.1259" gradientUnits="userSpaceOnUse">
<stop offset="0.0891892" stop-color="#AE6E56"/>
<stop offset="0.1151" stop-color="#C99179"/>
<stop offset="0.1416" stop-color="#DFAC95"/>
<stop offset="0.1684" stop-color="#EFC0A9"/>
<stop offset="0.195" stop-color="#F8CCB5"/>
<stop offset="0.2216" stop-color="#FBD0B9"/>
<stop offset="0.2635" stop-color="#F6CAB3"/>
<stop offset="0.3198" stop-color="#E9BAA2"/>
<stop offset="0.3324" stop-color="#E5B59D"/>
<stop offset="0.3355" stop-color="#E0AE96"/>
<stop offset="0.3492" stop-color="#CC957B"/>
<stop offset="0.365" stop-color="#BC8065"/>
<stop offset="0.3834" stop-color="#B07054"/>
<stop offset="0.4062" stop-color="#A76449"/>
<stop offset="0.4382" stop-color="#A25E42"/>
<stop offset="0.527" stop-color="#A15C40"/>
<stop offset="0.586" stop-color="#B96F50"/>
<stop offset="0.6559" stop-color="#CF7F5F"/>
<stop offset="0.7237" stop-color="#DC8A68"/>
<stop offset="0.7865" stop-color="#E08D6B"/>
<stop offset="0.7888" stop-color="#DD8B69"/>
<stop offset="0.8077" stop-color="#C7795A"/>
<stop offset="0.8298" stop-color="#B66C4E"/>
<stop offset="0.8571" stop-color="#AA6346"/>
<stop offset="0.8949" stop-color="#A35D41"/>
<stop offset="0.9944" stop-color="#A15C40"/>
</linearGradient>
<linearGradient id="paint9_linear_114_32" x1="9.34871" y1="1.69322" x2="9.34871" y2="14.0796" gradientUnits="userSpaceOnUse">
<stop offset="0.0891892" stop-color="#AE6E56"/>
<stop offset="0.1151" stop-color="#C99179"/>
<stop offset="0.1416" stop-color="#DFAC95"/>
<stop offset="0.1684" stop-color="#EFC0A9"/>
<stop offset="0.195" stop-color="#F8CCB5"/>
<stop offset="0.2216" stop-color="#FBD0B9"/>
<stop offset="0.2635" stop-color="#F6CAB3"/>
<stop offset="0.3198" stop-color="#E9BAA2"/>
<stop offset="0.3324" stop-color="#E5B59D"/>
<stop offset="0.3355" stop-color="#E0AE96"/>
<stop offset="0.3492" stop-color="#CC957B"/>
<stop offset="0.365" stop-color="#BC8065"/>
<stop offset="0.3834" stop-color="#B07054"/>
<stop offset="0.4062" stop-color="#A76449"/>
<stop offset="0.4382" stop-color="#A25E42"/>
<stop offset="0.527" stop-color="#A15C40"/>
<stop offset="0.586" stop-color="#B96F50"/>
<stop offset="0.6559" stop-color="#CF7F5F"/>
<stop offset="0.7237" stop-color="#DC8A68"/>
<stop offset="0.7865" stop-color="#E08D6B"/>
<stop offset="0.7888" stop-color="#DD8B69"/>
<stop offset="0.8077" stop-color="#C7795A"/>
<stop offset="0.8298" stop-color="#B66C4E"/>
<stop offset="0.8571" stop-color="#AA6346"/>
<stop offset="0.8949" stop-color="#A35D41"/>
<stop offset="0.9944" stop-color="#A15C40"/>
</linearGradient>
<linearGradient id="paint10_linear_114_32" x1="47.1795" y1="1.46977" x2="47.1795" y2="13.9761" gradientUnits="userSpaceOnUse">
<stop offset="0.0891892" stop-color="#AE6E56"/>
<stop offset="0.1151" stop-color="#C99179"/>
<stop offset="0.1416" stop-color="#DFAC95"/>
<stop offset="0.1684" stop-color="#EFC0A9"/>
<stop offset="0.195" stop-color="#F8CCB5"/>
<stop offset="0.2216" stop-color="#FBD0B9"/>
<stop offset="0.2635" stop-color="#F6CAB3"/>
<stop offset="0.3198" stop-color="#E9BAA2"/>
<stop offset="0.3324" stop-color="#E5B59D"/>
<stop offset="0.3355" stop-color="#E0AE96"/>
<stop offset="0.3492" stop-color="#CC957B"/>
<stop offset="0.365" stop-color="#BC8065"/>
<stop offset="0.3834" stop-color="#B07054"/>
<stop offset="0.4062" stop-color="#A76449"/>
<stop offset="0.4382" stop-color="#A25E42"/>
<stop offset="0.527" stop-color="#A15C40"/>
<stop offset="0.586" stop-color="#B96F50"/>
<stop offset="0.6559" stop-color="#CF7F5F"/>
<stop offset="0.7237" stop-color="#DC8A68"/>
<stop offset="0.7865" stop-color="#E08D6B"/>
<stop offset="0.7888" stop-color="#DD8B69"/>
<stop offset="0.8077" stop-color="#C7795A"/>
<stop offset="0.8298" stop-color="#B66C4E"/>
<stop offset="0.8571" stop-color="#AA6346"/>
<stop offset="0.8949" stop-color="#A35D41"/>
<stop offset="0.9944" stop-color="#A15C40"/>
</linearGradient>
<clipPath id="clip0_114_32">
<rect width="56" height="28.3944" fill="white"/>
</clipPath>
</defs>
</svg>
