<svg width="15" height="14" viewBox="0 0 15 14" fill="none" xmlns="http://www.w3.org/2000/svg">
<path fill-rule="evenodd" clip-rule="evenodd" d="M12.1633 3.2986C11.405 3.20508 10.4364 3.20508 9.21378 3.20508H6.47672C5.25341 3.20508 4.28478 3.20508 3.52719 3.2986C2.74742 3.39557 2.11502 3.59913 1.61711 4.05782C1.11921 4.5172 0.898152 5.09899 0.792991 5.81831C0.691406 6.51563 0.691406 7.40826 0.691406 8.53539V8.60416C0.691406 9.73129 0.691406 10.6239 0.792991 11.3226C0.898152 12.0413 1.11921 12.623 1.61711 13.0817C2.11502 13.5411 2.74742 13.7447 3.52719 13.8409C4.2855 13.9358 5.25413 13.9358 6.47672 13.9358H9.21378C10.4371 13.9358 11.4057 13.9358 12.1633 13.8416C12.9431 13.7454 13.5755 13.5418 14.0734 13.0824C14.5713 12.6237 14.7924 12.0419 14.8975 11.3233C14.9991 10.6246 14.9991 9.73198 14.9991 8.60485V8.53608C14.9991 7.40826 14.9991 6.51632 14.8975 5.81763C14.7924 5.09899 14.5713 4.5172 14.0734 4.05782C13.5755 3.59913 12.9431 3.39557 12.1633 3.2986ZM3.66025 4.21049C2.99065 4.29301 2.60506 4.44912 2.32248 4.70838C2.04134 4.96832 1.87251 5.32317 1.78237 5.94004C1.71083 6.43517 1.69438 7.0541 1.6908 7.86283L2.02703 7.59119C2.83184 6.94269 4.0437 6.97983 4.79914 7.67577L7.65353 10.3062C7.795 10.4344 7.97756 10.5127 8.17133 10.5282C8.3651 10.5437 8.55861 10.4955 8.72017 10.3915L8.91904 10.2629C9.38557 9.96297 9.94111 9.8175 10.5014 9.84853C11.0617 9.87955 11.5962 10.0854 12.0238 10.4348L13.7457 11.8638C13.8159 11.6823 13.8695 11.465 13.9081 11.2002C13.9997 10.5703 14.0011 9.73954 14.0011 8.57046C14.0011 7.40138 13.9997 6.57065 13.9081 5.94004C13.818 5.32317 13.6492 4.96832 13.3673 4.70906C13.0862 4.44912 12.6999 4.2937 12.0303 4.21049C11.3463 4.1259 10.445 4.12452 9.17587 4.12452H6.51464C5.24554 4.12452 4.34416 4.1259 3.66025 4.21049Z" fill="#D79970"/>
<path fill-rule="evenodd" clip-rule="evenodd" d="M12.1633 3.2986C11.405 3.20508 10.4364 3.20508 9.21378 3.20508H6.47672C5.25341 3.20508 4.28478 3.20508 3.52719 3.2986C2.74742 3.39557 2.11502 3.59913 1.61711 4.05782C1.11921 4.5172 0.898152 5.09899 0.792991 5.81831C0.691406 6.51563 0.691406 7.40826 0.691406 8.53539V8.60416C0.691406 9.73129 0.691406 10.6239 0.792991 11.3226C0.898152 12.0413 1.11921 12.623 1.61711 13.0817C2.11502 13.5411 2.74742 13.7447 3.52719 13.8409C4.2855 13.9358 5.25413 13.9358 6.47672 13.9358H9.21378C10.4371 13.9358 11.4057 13.9358 12.1633 13.8416C12.9431 13.7454 13.5755 13.5418 14.0734 13.0824C14.5713 12.6237 14.7924 12.0419 14.8975 11.3233C14.9991 10.6246 14.9991 9.73198 14.9991 8.60485V8.53608C14.9991 7.40826 14.9991 6.51632 14.8975 5.81763C14.7924 5.09899 14.5713 4.5172 14.0734 4.05782C13.5755 3.59913 12.9431 3.39557 12.1633 3.2986ZM3.66025 4.21049C2.99065 4.29301 2.60506 4.44912 2.32248 4.70838C2.04134 4.96832 1.87251 5.32317 1.78237 5.94004C1.71083 6.43517 1.69438 7.0541 1.6908 7.86283L2.02703 7.59119C2.83184 6.94269 4.0437 6.97983 4.79914 7.67577L7.65353 10.3062C7.795 10.4344 7.97756 10.5127 8.17133 10.5282C8.3651 10.5437 8.55861 10.4955 8.72017 10.3915L8.91904 10.2629C9.38557 9.96297 9.94111 9.8175 10.5014 9.84853C11.0617 9.87955 11.5962 10.0854 12.0238 10.4348L13.7457 11.8638C13.8159 11.6823 13.8695 11.465 13.9081 11.2002C13.9997 10.5703 14.0011 9.73954 14.0011 8.57046C14.0011 7.40138 13.9997 6.57065 13.9081 5.94004C13.818 5.32317 13.6492 4.96832 13.3673 4.70906C13.0862 4.44912 12.6999 4.2937 12.0303 4.21049C11.3463 4.1259 10.445 4.12452 9.17587 4.12452H6.51464C5.24554 4.12452 4.34416 4.1259 3.66025 4.21049Z" fill="url(#paint0_linear_2219_132)"/>
<path d="M11.2051 0.61494C10.6131 0.523437 9.85989 0.523438 8.92017 0.523438H6.79288C5.85384 0.523438 5.1 0.523437 4.50793 0.61494C3.89522 0.710602 3.3844 0.91274 2.9789 1.38024C2.75511 1.63979 2.58446 1.95877 2.48047 2.3119C2.82744 2.12058 3.21986 2.00744 3.66046 1.93757C4.40673 1.82111 5.36092 1.82111 6.56569 1.82111H9.26026C10.465 1.82111 11.4185 1.82111 12.1655 1.93757C12.5496 1.99829 12.898 2.09229 13.2112 2.24202C13.1059 1.91675 12.9433 1.62299 12.7348 1.38107C12.3293 0.91274 11.8185 0.710602 11.2051 0.615772" fill="#D79970"/>
<path d="M11.2051 0.61494C10.6131 0.523437 9.85989 0.523438 8.92017 0.523438H6.79288C5.85384 0.523438 5.1 0.523437 4.50793 0.61494C3.89522 0.710602 3.3844 0.91274 2.9789 1.38024C2.75511 1.63979 2.58446 1.95877 2.48047 2.3119C2.82744 2.12058 3.21986 2.00744 3.66046 1.93757C4.40673 1.82111 5.36092 1.82111 6.56569 1.82111H9.26026C10.465 1.82111 11.4185 1.82111 12.1655 1.93757C12.5496 1.99829 12.898 2.09229 13.2112 2.24202C13.1059 1.91675 12.9433 1.62299 12.7348 1.38107C12.3293 0.91274 11.8185 0.710602 11.2051 0.615772" fill="url(#paint1_linear_2219_132)"/>
<path d="M12.3158 5.88804C12.3158 6.38212 11.9153 6.7826 11.4213 6.7826C10.9272 6.7826 10.5273 6.38145 10.5273 5.88804C10.5273 5.39462 10.9278 4.99414 11.4213 4.99414C11.9147 4.99414 12.3158 5.39395 12.3158 5.88804Z" fill="#D79970"/>
<path d="M12.3158 5.88804C12.3158 6.38212 11.9153 6.7826 11.4213 6.7826C10.9272 6.7826 10.5273 6.38145 10.5273 5.88804C10.5273 5.39462 10.9278 4.99414 11.4213 4.99414C11.9147 4.99414 12.3158 5.39395 12.3158 5.88804Z" fill="url(#paint2_linear_2219_132)"/>
<defs>
<linearGradient id="paint0_linear_2219_132" x1="0.691406" y1="3.20508" x2="5.85449" y2="17.2884" gradientUnits="userSpaceOnUse">
<stop stop-color="#D79970"/>
<stop offset="0.5" stop-color="#905D44"/>
<stop offset="1" stop-color="#D79970"/>
</linearGradient>
<linearGradient id="paint1_linear_2219_132" x1="2.48047" y1="0.523437" x2="2.69597" y2="3.16857" gradientUnits="userSpaceOnUse">
<stop stop-color="#D79970"/>
<stop offset="0.5" stop-color="#905D44"/>
<stop offset="1" stop-color="#D79970"/>
</linearGradient>
<linearGradient id="paint2_linear_2219_132" x1="10.5273" y1="4.99414" x2="11.5779" y2="7.14331" gradientUnits="userSpaceOnUse">
<stop stop-color="#D79970"/>
<stop offset="0.5" stop-color="#905D44"/>
<stop offset="1" stop-color="#D79970"/>
</linearGradient>
</defs>
</svg>
