<svg width="26" height="26" viewBox="0 0 26 26" fill="none" xmlns="http://www.w3.org/2000/svg">
<rect x="0.5" y="0.5" width="25" height="25" rx="1.5" fill="#161616"/>
<rect x="0.5" y="0.5" width="25" height="25" rx="1.5" stroke="#D79970"/>
<rect x="0.5" y="0.5" width="25" height="25" rx="1.5" stroke="url(#paint0_linear_1423_24)"/>
<path fill-rule="evenodd" clip-rule="evenodd" d="M17.8288 9.10459C16.9808 9 15.8976 9 14.5304 9H11.4696C10.1016 9 9.0184 9 8.1712 9.10459C7.2992 9.21302 6.592 9.44066 6.0352 9.9536C5.4784 10.4673 5.2312 11.1179 5.1136 11.9223C5 12.7021 5 13.7003 5 14.9608V15.0377C5 16.2981 5 17.2963 5.1136 18.0777C5.2312 18.8813 5.4784 19.5319 6.0352 20.0449C6.592 20.5586 7.2992 20.7862 8.1712 20.8939C9.0192 21 10.1024 21 11.4696 21H14.5304C15.8984 21 16.9816 21 17.8288 20.8946C18.7008 20.787 19.408 20.5593 19.9648 20.0456C20.5216 19.5327 20.7688 18.8821 20.8864 18.0784C21 17.2971 21 16.2989 21 15.0385V14.9615C21 13.7003 21 12.7029 20.8864 11.9216C20.7688 11.1179 20.5216 10.4673 19.9648 9.9536C19.408 9.44066 18.7008 9.21302 17.8288 9.10459ZM8.32 10.1243C7.5712 10.2166 7.14 10.3912 6.824 10.6811C6.5096 10.9718 6.3208 11.3686 6.22 12.0584C6.14 12.6122 6.1216 13.3043 6.1176 14.2087L6.4936 13.9049C7.3936 13.1797 8.7488 13.2212 9.5936 13.9995L12.7856 16.941C12.9438 17.0844 13.148 17.172 13.3646 17.1893C13.5813 17.2066 13.7977 17.1527 13.9784 17.0364L14.2008 16.8926C14.7225 16.5572 15.3438 16.3945 15.9703 16.4292C16.5969 16.4639 17.1946 16.6941 17.6728 17.0849L19.5984 18.6829C19.6768 18.4799 19.7368 18.2369 19.78 17.9408C19.8824 17.2363 19.884 16.3074 19.884 15C19.884 13.6926 19.8824 12.7637 19.78 12.0584C19.6792 11.3686 19.4904 10.9718 19.1752 10.6819C18.8608 10.3912 18.4288 10.2174 17.68 10.1243C16.9152 10.0297 15.9072 10.0282 14.488 10.0282H11.512C10.0928 10.0282 9.0848 10.0297 8.32 10.1243Z" fill="#D79970"/>
<path d="M16.7566 6.10233C16.0945 6 15.2523 6 14.2014 6H11.8225C10.7724 6 9.92936 6 9.26727 6.10233C8.58209 6.2093 8.01084 6.43535 7.55739 6.95814C7.30713 7.24839 7.11629 7.60511 7 8C7.38802 7.78605 7.82684 7.65953 8.31956 7.5814C9.1541 7.45116 10.2211 7.45116 11.5684 7.45116H14.5817C15.929 7.45116 16.9953 7.45116 17.8306 7.5814C18.2602 7.6493 18.6497 7.75442 19 7.92186C18.8822 7.55811 18.7004 7.22961 18.4672 6.95907C18.0138 6.43535 17.4425 6.2093 16.7566 6.10326" fill="#D79970"/>
<path d="M18 11.9996C18 12.5521 17.5521 13 16.9996 13C16.4472 13 16 12.5514 16 11.9996C16 11.4479 16.4479 11 16.9996 11C17.5514 11 18 11.4471 18 11.9996Z" fill="#D79970"/>
<defs>
<linearGradient id="paint0_linear_1423_24" x1="0" y1="0" x2="15.2724" y2="31.2438" gradientUnits="userSpaceOnUse">
<stop stop-color="#D79970"/>
<stop offset="0.5" stop-color="#905D44"/>
<stop offset="1" stop-color="#D79970"/>
</linearGradient>
</defs>
</svg>
