<svg width="24" height="20" viewBox="0 0 24 20" fill="none" xmlns="http://www.w3.org/2000/svg">
<path d="M1.64988 8.45341C8.09231 5.68228 12.3883 3.85539 14.5378 2.97272C20.675 0.452533 21.9503 0.0147501 22.7815 0.000140146C22.9643 -0.00288513 23.3731 0.0418446 23.6379 0.253958C23.8614 0.433062 23.9229 0.675007 23.9524 0.844817C23.9818 1.01463 24.0185 1.40146 23.9893 1.70372C23.6568 5.15367 22.2177 13.5258 21.4856 17.3898C21.1758 19.0248 20.5658 19.573 19.9753 19.6266C18.6919 19.7432 17.7174 18.7893 16.4744 17.9849C14.5294 16.7261 13.4305 15.9425 11.5425 14.7142C9.36064 13.2947 10.7751 12.5145 12.0185 11.2394C12.344 10.9057 17.9985 5.82802 18.1079 5.36739C18.1216 5.30978 18.1343 5.09504 18.0051 4.98165C17.8759 4.86826 17.6851 4.90704 17.5475 4.93787C17.3524 4.98159 14.2452 7.00919 8.22584 11.0207C7.34386 11.6186 6.54499 11.9099 5.82924 11.8947C5.04017 11.8778 3.52233 11.4542 2.39397 11.0921C1.00999 10.6479 -0.0899676 10.4131 0.00581422 9.65882C0.0557033 9.26593 0.603724 8.86413 1.64988 8.45341Z" fill="white"/>
<path d="M1.64988 8.45341C8.09231 5.68228 12.3883 3.85539 14.5378 2.97272C20.675 0.452533 21.9503 0.0147501 22.7815 0.000140146C22.9643 -0.00288513 23.3731 0.0418446 23.6379 0.253958C23.8614 0.433062 23.9229 0.675007 23.9524 0.844817C23.9818 1.01463 24.0185 1.40146 23.9893 1.70372C23.6568 5.15367 22.2177 13.5258 21.4856 17.3898C21.1758 19.0248 20.5658 19.573 19.9753 19.6266C18.6919 19.7432 17.7174 18.7893 16.4744 17.9849C14.5294 16.7261 13.4305 15.9425 11.5425 14.7142C9.36064 13.2947 10.7751 12.5145 12.0185 11.2394C12.344 10.9057 17.9985 5.82802 18.1079 5.36739C18.1216 5.30978 18.1343 5.09504 18.0051 4.98165C17.8759 4.86826 17.6851 4.90704 17.5475 4.93787C17.3524 4.98159 14.2452 7.00919 8.22584 11.0207C7.34386 11.6186 6.54499 11.9099 5.82924 11.8947C5.04017 11.8778 3.52233 11.4542 2.39397 11.0921C1.00999 10.6479 -0.0899676 10.4131 0.00581422 9.65882C0.0557033 9.26593 0.603724 8.86413 1.64988 8.45341Z" fill="url(#paint0_linear_1649_399)"/>
<defs>
<linearGradient id="paint0_linear_1649_399" x1="0" y1="0" x2="10.0799" y2="25.2036" gradientUnits="userSpaceOnUse">
<stop stop-color="#D79970"/>
<stop offset="0.5" stop-color="#905D44"/>
<stop offset="1" stop-color="#D79970"/>
</linearGradient>
</defs>
</svg>
