<svg width="26" height="26" viewBox="0 0 26 26" fill="none" xmlns="http://www.w3.org/2000/svg">
<path d="M15.4933 5.7619C16.6613 5.98876 17.7347 6.55744 18.5762 7.39515C19.4176 8.23287 19.9889 9.3015 20.2167 10.4643M15.4933 1C17.9199 1.26838 20.1828 2.35021 21.9103 4.06786C23.6378 5.78552 24.7274 8.03691 25 10.4524M10.9216 15.1227C9.48476 13.6922 8.35019 12.0748 7.5179 10.3491C7.44631 10.2006 7.41052 10.1264 7.38302 10.0325C7.28529 9.69874 7.35549 9.28891 7.55879 9.00625C7.616 8.92672 7.68435 8.85867 7.82104 8.72259C8.23911 8.30639 8.44814 8.09829 8.58481 7.88903C9.1002 7.09988 9.1002 6.08252 8.58481 5.29337C8.44814 5.08411 8.23911 4.87601 7.82104 4.45981L7.58802 4.22782C6.95251 3.59515 6.63475 3.27882 6.29349 3.10698C5.61479 2.76523 4.81328 2.76523 4.13458 3.10698C3.79332 3.27882 3.47556 3.59515 2.84006 4.22782L2.65155 4.41548C2.01822 5.04599 1.70156 5.36124 1.4597 5.78985C1.19134 6.26545 0.99838 7.00413 1.00001 7.54963C1.00148 8.04123 1.09727 8.37721 1.28885 9.04917C2.31841 12.6604 4.26098 16.0679 7.11657 18.9108C9.97215 21.7536 13.395 23.6875 17.0224 24.7124C17.6974 24.9032 18.0349 24.9985 18.5287 25C19.0766 25.0016 19.8186 24.8095 20.2963 24.5423C20.7269 24.3016 21.0435 23.9863 21.6769 23.3558L21.8654 23.1682C22.5009 22.5355 22.8186 22.2192 22.9912 21.8794C23.3345 21.2038 23.3345 20.4058 22.9912 19.7302C22.8186 19.3904 22.5009 19.0741 21.8654 18.4414L21.6323 18.2094C21.2143 17.7932 21.0053 17.5851 20.7951 17.4491C20.0024 16.936 18.9804 16.936 18.1877 17.4491C17.9775 17.5851 17.7685 17.7932 17.3504 18.2094C17.2137 18.3455 17.1454 18.4136 17.0655 18.4705C16.7816 18.6729 16.3699 18.7428 16.0347 18.6455C15.9403 18.6181 15.8658 18.5825 15.7167 18.5112C13.9832 17.6826 12.3585 16.5531 10.9216 15.1227Z" stroke="white" stroke-width="1.4" stroke-linecap="round" stroke-linejoin="round"/>
<path d="M15.4933 5.7619C16.6613 5.98876 17.7347 6.55744 18.5762 7.39515C19.4176 8.23287 19.9889 9.3015 20.2167 10.4643M15.4933 1C17.9199 1.26838 20.1828 2.35021 21.9103 4.06786C23.6378 5.78552 24.7274 8.03691 25 10.4524M10.9216 15.1227C9.48476 13.6922 8.35019 12.0748 7.5179 10.3491C7.44631 10.2006 7.41052 10.1264 7.38302 10.0325C7.28529 9.69874 7.35549 9.28891 7.55879 9.00625C7.616 8.92672 7.68435 8.85867 7.82104 8.72259C8.23911 8.30639 8.44814 8.09829 8.58481 7.88903C9.1002 7.09988 9.1002 6.08252 8.58481 5.29337C8.44814 5.08411 8.23911 4.87601 7.82104 4.45981L7.58802 4.22782C6.95251 3.59515 6.63475 3.27882 6.29349 3.10698C5.61479 2.76523 4.81328 2.76523 4.13458 3.10698C3.79332 3.27882 3.47556 3.59515 2.84006 4.22782L2.65155 4.41548C2.01822 5.04599 1.70156 5.36124 1.4597 5.78985C1.19134 6.26545 0.99838 7.00413 1.00001 7.54963C1.00148 8.04123 1.09727 8.37721 1.28885 9.04917C2.31841 12.6604 4.26098 16.0679 7.11657 18.9108C9.97215 21.7536 13.395 23.6875 17.0224 24.7124C17.6974 24.9032 18.0349 24.9985 18.5287 25C19.0766 25.0016 19.8186 24.8095 20.2963 24.5423C20.7269 24.3016 21.0435 23.9863 21.6769 23.3558L21.8654 23.1682C22.5009 22.5355 22.8186 22.2192 22.9912 21.8794C23.3345 21.2038 23.3345 20.4058 22.9912 19.7302C22.8186 19.3904 22.5009 19.0741 21.8654 18.4414L21.6323 18.2094C21.2143 17.7932 21.0053 17.5851 20.7951 17.4491C20.0024 16.936 18.9804 16.936 18.1877 17.4491C17.9775 17.5851 17.7685 17.7932 17.3504 18.2094C17.2137 18.3455 17.1454 18.4136 17.0655 18.4705C16.7816 18.6729 16.3699 18.7428 16.0347 18.6455C15.9403 18.6181 15.8658 18.5825 15.7167 18.5112C13.9832 17.6826 12.3585 16.5531 10.9216 15.1227Z" stroke="url(#paint0_linear_1649_400)" stroke-width="1.4" stroke-linecap="round" stroke-linejoin="round"/>
<defs>
<linearGradient id="paint0_linear_1649_400" x1="1" y1="1" x2="15.0976" y2="29.8404" gradientUnits="userSpaceOnUse">
<stop stop-color="#D79970"/>
<stop offset="0.5" stop-color="#905D44"/>
<stop offset="1" stop-color="#D79970"/>
</linearGradient>
</defs>
</svg>
