<svg width="26" height="28" viewBox="0 0 26 28" fill="none" xmlns="http://www.w3.org/2000/svg">
<path d="M18.9242 27.2652C24.5273 25.1874 26.9124 19.9351 24.6543 13.5863L23.5958 10.6282C22.4949 7.49706 20.392 6.21287 17.9221 7.09307C17.2588 6.21287 16.2426 5.90985 15.1418 6.3139C14.7325 6.47261 14.3655 6.68902 14.0408 6.94876C13.3211 5.99641 12.2061 5.6357 11.0488 6.06856C10.7383 6.184 10.4419 6.35718 10.1596 6.55918L8.55066 2.05723C7.94378 0.340148 6.41955 -0.38132 4.85292 0.195852C3.2722 0.787454 2.5665 2.33139 3.17344 4.04849L7.19576 15.3611C7.224 15.4332 7.20991 15.4909 7.13933 15.5198C7.08285 15.5342 7.04051 15.5198 6.99818 15.462L5.33279 13.6295C4.51419 12.7349 3.54035 12.4607 2.59474 12.807C1.31042 13.2976 0.477722 14.553 0.999932 16.0392C1.14108 16.4577 1.42332 16.9627 1.74796 17.3811L6.47597 23.2106C10.0467 27.6404 14.2385 29.0111 18.9242 27.2652ZM18.3173 25.375C14.6195 26.7602 11.1476 26.0532 7.88736 22.0274L3.15929 16.2124C3.01814 16.0392 2.91938 15.8805 2.83471 15.6352C2.66532 15.1735 2.8629 14.6396 3.39926 14.4376C3.85089 14.2789 4.20371 14.452 4.57068 14.8416L7.83087 18.2902C8.38133 18.8674 8.8612 18.9251 9.32693 18.7519C9.89147 18.5499 10.1173 17.9439 9.89147 17.3234L4.89525 3.26929C4.68358 2.69212 4.93758 2.1438 5.47394 1.9418C6.02434 1.73978 6.53246 2.01395 6.74412 2.59112L10.3149 12.6194C10.4843 13.0956 11.0065 13.3121 11.4722 13.1389C11.9238 12.9657 12.1637 12.4607 11.9944 11.999L10.7101 8.37725C10.9076 8.18966 11.1758 8.00207 11.444 7.90111C12.1073 7.65577 12.6578 7.95879 12.9118 8.66587L14.0408 11.8114C14.2102 12.3165 14.7325 12.504 15.1841 12.3309C15.6216 12.1722 15.9039 11.696 15.7204 11.191L14.803 8.62259C15.0006 8.435 15.2688 8.24741 15.5369 8.14638C16.2003 7.90111 16.7507 8.20413 17.0047 8.91114L17.7527 11.0178C17.9362 11.5229 18.4584 11.7104 18.9101 11.5373C19.3476 11.3785 19.6157 10.8879 19.4464 10.3974L18.8818 8.83899C20.0673 8.40612 21.1823 9.38728 21.9445 11.5517L22.8336 14.0191C24.7672 19.4734 23.003 23.629 18.3173 25.375Z" fill="white" fill-opacity="0.85"/>
<path d="M18.9242 27.2652C24.5273 25.1874 26.9124 19.9351 24.6543 13.5863L23.5958 10.6282C22.4949 7.49706 20.392 6.21287 17.9221 7.09307C17.2588 6.21287 16.2426 5.90985 15.1418 6.3139C14.7325 6.47261 14.3655 6.68902 14.0408 6.94876C13.3211 5.99641 12.2061 5.6357 11.0488 6.06856C10.7383 6.184 10.4419 6.35718 10.1596 6.55918L8.55066 2.05723C7.94378 0.340148 6.41955 -0.38132 4.85292 0.195852C3.2722 0.787454 2.5665 2.33139 3.17344 4.04849L7.19576 15.3611C7.224 15.4332 7.20991 15.4909 7.13933 15.5198C7.08285 15.5342 7.04051 15.5198 6.99818 15.462L5.33279 13.6295C4.51419 12.7349 3.54035 12.4607 2.59474 12.807C1.31042 13.2976 0.477722 14.553 0.999932 16.0392C1.14108 16.4577 1.42332 16.9627 1.74796 17.3811L6.47597 23.2106C10.0467 27.6404 14.2385 29.0111 18.9242 27.2652ZM18.3173 25.375C14.6195 26.7602 11.1476 26.0532 7.88736 22.0274L3.15929 16.2124C3.01814 16.0392 2.91938 15.8805 2.83471 15.6352C2.66532 15.1735 2.8629 14.6396 3.39926 14.4376C3.85089 14.2789 4.20371 14.452 4.57068 14.8416L7.83087 18.2902C8.38133 18.8674 8.8612 18.9251 9.32693 18.7519C9.89147 18.5499 10.1173 17.9439 9.89147 17.3234L4.89525 3.26929C4.68358 2.69212 4.93758 2.1438 5.47394 1.9418C6.02434 1.73978 6.53246 2.01395 6.74412 2.59112L10.3149 12.6194C10.4843 13.0956 11.0065 13.3121 11.4722 13.1389C11.9238 12.9657 12.1637 12.4607 11.9944 11.999L10.7101 8.37725C10.9076 8.18966 11.1758 8.00207 11.444 7.90111C12.1073 7.65577 12.6578 7.95879 12.9118 8.66587L14.0408 11.8114C14.2102 12.3165 14.7325 12.504 15.1841 12.3309C15.6216 12.1722 15.9039 11.696 15.7204 11.191L14.803 8.62259C15.0006 8.435 15.2688 8.24741 15.5369 8.14638C16.2003 7.90111 16.7507 8.20413 17.0047 8.91114L17.7527 11.0178C17.9362 11.5229 18.4584 11.7104 18.9101 11.5373C19.3476 11.3785 19.6157 10.8879 19.4464 10.3974L18.8818 8.83899C20.0673 8.40612 21.1823 9.38728 21.9445 11.5517L22.8336 14.0191C24.7672 19.4734 23.003 23.629 18.3173 25.375Z" fill="url(#paint0_linear_1774_64)"/>
<defs>
<linearGradient id="paint0_linear_1774_64" x1="3.00619" y1="28.7912" x2="17.9831" y2="33.3207" gradientUnits="userSpaceOnUse">
<stop offset="0.00878495" stop-color="#AE6E56"/>
<stop offset="0.486725" stop-color="#C99179"/>
<stop offset="1" stop-color="#DD8B69"/>
</linearGradient>
</defs>
</svg>
