<svg width="24" height="25" viewBox="0 0 24 25" fill="none" xmlns="http://www.w3.org/2000/svg">
<path d="M3.90696 21.3504C1.62779 19.0712 0.35394 15.8783 0.353941 13.2797C0.353941 8.80537 3.1536 7.25283 4.82449 6.32513C5.15536 6.14188 5.59694 5.89627 5.75092 5.74993L5.75219 3.82961C5.75088 3.25579 5.91861 2.6943 6.23445 2.21522C6.5503 1.73614 7.00025 1.3607 7.52816 1.13578C8.05606 0.910849 8.63852 0.846399 9.20283 0.95047C9.76714 1.05454 10.2883 1.32252 10.7012 1.72096C11.2484 1.19412 11.9649 0.905243 12.7272 0.906515C13.2851 0.911673 13.8302 1.07389 14.3002 1.37459C14.7701 1.67528 15.1458 2.10229 15.3843 2.60667C15.8068 2.37761 16.2827 2.25544 16.7765 2.25544C18.3392 2.25544 19.7009 3.6171 19.6996 5.17854C20.0521 5.0322 20.4326 4.95457 20.8245 4.95457C22.386 4.9533 23.7489 6.31368 23.7489 7.87894L23.7489 15.9776C23.7489 20.9661 19.8612 24.3015 14.0761 24.3015L10.7012 24.3015C7.93593 24.2799 5.63257 23.076 3.90696 21.3504ZM5.75092 7.86749L5.69747 7.89803C4.11948 8.77356 2.15208 9.86288 2.15208 13.2785C2.15208 17.0122 5.48495 22.4601 10.7076 22.5008L14.0748 22.5008C14.1101 22.501 14.1454 22.5031 14.1804 22.5072C17.7118 22.4983 21.9495 20.7956 21.9495 16.003L21.9482 7.88021C21.9414 7.584 21.8207 7.30182 21.6112 7.09231C21.4017 6.8828 21.1195 6.76209 20.8233 6.75526C20.5229 6.75526 20.2404 6.87234 20.0279 7.08486C19.8154 7.29738 19.6983 7.57989 19.6983 7.88021L19.6983 9.9036C19.6989 10.0221 19.6761 10.1395 19.631 10.2491C19.586 10.3587 19.5196 10.4583 19.4358 10.5421C19.352 10.6259 19.2525 10.6922 19.1429 10.7373C19.0333 10.7823 18.9158 10.8052 18.7973 10.8046C18.5587 10.8045 18.3299 10.7097 18.1612 10.541C17.9925 10.3723 17.8977 10.1435 17.8976 9.90488L17.8976 5.18109C17.8908 4.88488 17.7701 4.60269 17.5606 4.39318C17.3511 4.18367 17.0689 4.06296 16.7727 4.05613C16.6251 4.0555 16.4789 4.0841 16.3424 4.14028C16.2059 4.19646 16.0819 4.27911 15.9776 4.38346C15.8732 4.48781 15.7906 4.6118 15.7344 4.74826C15.6782 4.88473 15.6496 5.03097 15.6503 5.17854V8.55341C15.6509 8.6719 15.628 8.78934 15.583 8.89894C15.5379 9.00853 15.4716 9.10811 15.3878 9.19189C15.304 9.27568 15.2044 9.34203 15.0948 9.38708C14.9852 9.43214 14.8678 9.45502 14.7493 9.45439C14.5107 9.45435 14.2819 9.35955 14.1131 9.19083C13.9444 9.02211 13.8496 8.79328 13.8496 8.55468L13.8508 3.82961C13.844 3.5334 13.7233 3.25122 13.5138 3.04171C13.3043 2.8322 13.0221 2.71149 12.7259 2.70466C12.4256 2.70466 12.1431 2.82174 11.9305 3.03426C11.718 3.24678 11.6009 3.52929 11.6009 3.82961L11.6009 7.20448C11.6016 7.32297 11.5787 7.44041 11.5336 7.55001C11.4886 7.6596 11.4222 7.75918 11.3384 7.84297C11.2547 7.92676 11.1551 7.9931 11.0455 8.03815C10.9359 8.08321 10.8185 8.10609 10.7 8.10546C10.4613 8.10542 10.2325 8.01062 10.0638 7.8419C9.89509 7.67318 9.80028 7.44436 9.80025 7.20575L9.80152 3.82962C9.80061 3.53154 9.68179 3.24593 9.47102 3.03516C9.26025 2.82438 8.97464 2.70557 8.67656 2.70466C8.37849 2.70557 8.09288 2.82438 7.88211 3.03516C7.67134 3.24593 7.55252 3.53154 7.55161 3.82961L7.55161 5.82501L7.55161 5.85555L7.55034 5.895L7.55161 11.2538C7.54751 11.4897 7.45092 11.7146 7.28264 11.88C7.11435 12.0453 6.88785 12.138 6.6519 12.138C6.41596 12.138 6.18945 12.0453 6.02117 11.88C5.85289 11.7146 5.75629 11.4897 5.75219 11.2538L5.75092 7.86749Z" fill="white"/>
<path d="M3.90696 21.3504C1.62779 19.0712 0.35394 15.8783 0.353941 13.2797C0.353941 8.80537 3.1536 7.25283 4.82449 6.32513C5.15536 6.14188 5.59694 5.89627 5.75092 5.74993L5.75219 3.82961C5.75088 3.25579 5.91861 2.6943 6.23445 2.21522C6.5503 1.73614 7.00025 1.3607 7.52816 1.13578C8.05606 0.910849 8.63852 0.846399 9.20283 0.95047C9.76714 1.05454 10.2883 1.32252 10.7012 1.72096C11.2484 1.19412 11.9649 0.905243 12.7272 0.906515C13.2851 0.911673 13.8302 1.07389 14.3002 1.37459C14.7701 1.67528 15.1458 2.10229 15.3843 2.60667C15.8068 2.37761 16.2827 2.25544 16.7765 2.25544C18.3392 2.25544 19.7009 3.6171 19.6996 5.17854C20.0521 5.0322 20.4326 4.95457 20.8245 4.95457C22.386 4.9533 23.7489 6.31368 23.7489 7.87894L23.7489 15.9776C23.7489 20.9661 19.8612 24.3015 14.0761 24.3015L10.7012 24.3015C7.93593 24.2799 5.63257 23.076 3.90696 21.3504ZM5.75092 7.86749L5.69747 7.89803C4.11948 8.77356 2.15208 9.86288 2.15208 13.2785C2.15208 17.0122 5.48495 22.4601 10.7076 22.5008L14.0748 22.5008C14.1101 22.501 14.1454 22.5031 14.1804 22.5072C17.7118 22.4983 21.9495 20.7956 21.9495 16.003L21.9482 7.88021C21.9414 7.584 21.8207 7.30182 21.6112 7.09231C21.4017 6.8828 21.1195 6.76209 20.8233 6.75526C20.5229 6.75526 20.2404 6.87234 20.0279 7.08486C19.8154 7.29738 19.6983 7.57989 19.6983 7.88021L19.6983 9.9036C19.6989 10.0221 19.6761 10.1395 19.631 10.2491C19.586 10.3587 19.5196 10.4583 19.4358 10.5421C19.352 10.6259 19.2525 10.6922 19.1429 10.7373C19.0333 10.7823 18.9158 10.8052 18.7973 10.8046C18.5587 10.8045 18.3299 10.7097 18.1612 10.541C17.9925 10.3723 17.8977 10.1435 17.8976 9.90488L17.8976 5.18109C17.8908 4.88488 17.7701 4.60269 17.5606 4.39318C17.3511 4.18367 17.0689 4.06296 16.7727 4.05613C16.6251 4.0555 16.4789 4.0841 16.3424 4.14028C16.2059 4.19646 16.0819 4.27911 15.9776 4.38346C15.8732 4.48781 15.7906 4.6118 15.7344 4.74826C15.6782 4.88473 15.6496 5.03097 15.6503 5.17854V8.55341C15.6509 8.6719 15.628 8.78934 15.583 8.89894C15.5379 9.00853 15.4716 9.10811 15.3878 9.19189C15.304 9.27568 15.2044 9.34203 15.0948 9.38708C14.9852 9.43214 14.8678 9.45502 14.7493 9.45439C14.5107 9.45435 14.2819 9.35955 14.1131 9.19083C13.9444 9.02211 13.8496 8.79328 13.8496 8.55468L13.8508 3.82961C13.844 3.5334 13.7233 3.25122 13.5138 3.04171C13.3043 2.8322 13.0221 2.71149 12.7259 2.70466C12.4256 2.70466 12.1431 2.82174 11.9305 3.03426C11.718 3.24678 11.6009 3.52929 11.6009 3.82961L11.6009 7.20448C11.6016 7.32297 11.5787 7.44041 11.5336 7.55001C11.4886 7.6596 11.4222 7.75918 11.3384 7.84297C11.2547 7.92676 11.1551 7.9931 11.0455 8.03815C10.9359 8.08321 10.8185 8.10609 10.7 8.10546C10.4613 8.10542 10.2325 8.01062 10.0638 7.8419C9.89509 7.67318 9.80028 7.44436 9.80025 7.20575L9.80152 3.82962C9.80061 3.53154 9.68179 3.24593 9.47102 3.03516C9.26025 2.82438 8.97464 2.70557 8.67656 2.70466C8.37849 2.70557 8.09288 2.82438 7.88211 3.03516C7.67134 3.24593 7.55252 3.53154 7.55161 3.82961L7.55161 5.82501L7.55161 5.85555L7.55034 5.895L7.55161 11.2538C7.54751 11.4897 7.45092 11.7146 7.28264 11.88C7.11435 12.0453 6.88785 12.138 6.6519 12.138C6.41596 12.138 6.18945 12.0453 6.02117 11.88C5.85289 11.7146 5.75629 11.4897 5.75219 11.2538L5.75092 7.86749Z" fill="url(#paint0_linear_1495_236)"/>
<defs>
<linearGradient id="paint0_linear_1495_236" x1="-3.50084" y1="14.9171" x2="3.22664" y2="28.7671" gradientUnits="userSpaceOnUse">
<stop offset="0.00878495" stop-color="#AE6E56"/>
<stop offset="0.486725" stop-color="#C99179"/>
<stop offset="1" stop-color="#DD8B69"/>
</linearGradient>
</defs>
</svg>
