<svg width="22" height="22" viewBox="0 0 22 22" fill="none" xmlns="http://www.w3.org/2000/svg">
<path d="M6 9.12581H6.01111M11 9.12581H11.0111M16 9.12581H16.0111M5.44444 17.2516V19.782C5.44444 20.3593 5.44444 20.648 5.56581 20.7962C5.67136 20.9252 5.83141 21.0002 6.0006 21C6.19514 20.9998 6.4263 20.8195 6.88862 20.4588L9.53913 18.3912C10.0806 17.9689 10.3513 17.7577 10.6528 17.6075C10.9202 17.4742 11.2049 17.3769 11.4991 17.318C11.8307 17.2516 12.1774 17.2516 12.8708 17.2516H15.6667C17.5335 17.2516 18.4669 17.2516 19.18 16.8974C19.8072 16.5857 20.3171 16.0885 20.6367 15.4769C21 14.7816 21 13.8715 21 12.0511V6.20052C21 4.38017 21 3.46999 20.6367 2.77471C20.3171 2.16312 19.8072 1.66588 19.18 1.35426C18.4669 1 17.5335 1 15.6667 1H6.33333C4.46649 1 3.53307 1 2.82003 1.35426C2.19282 1.66588 1.68289 2.16312 1.36331 2.77471C1 3.46999 1 4.38017 1 6.20052V12.9179C1 13.9254 1 14.4292 1.11358 14.8425C1.4218 15.9642 2.3203 16.8403 3.4706 17.1409C3.89449 17.2516 4.41114 17.2516 5.44444 17.2516ZM6.55556 9.12581C6.55556 9.425 6.30682 9.66753 6 9.66753C5.69317 9.66753 5.44444 9.425 5.44444 9.12581C5.44444 8.82663 5.69317 8.58409 6 8.58409C6.30682 8.58409 6.55556 8.82663 6.55556 9.12581ZM11.5556 9.12581C11.5556 9.425 11.3068 9.66753 11 9.66753C10.6932 9.66753 10.4444 9.425 10.4444 9.12581C10.4444 8.82663 10.6932 8.58409 11 8.58409C11.3068 8.58409 11.5556 8.82663 11.5556 9.12581ZM16.5556 9.12581C16.5556 9.425 16.3068 9.66753 16 9.66753C15.6932 9.66753 15.4444 9.425 15.4444 9.12581C15.4444 8.82663 15.6932 8.58409 16 8.58409C16.3068 8.58409 16.5556 8.82663 16.5556 9.12581Z" stroke="#D79970" stroke-width="2" stroke-linecap="round" stroke-linejoin="round"/>
<path d="M6 9.12581H6.01111M11 9.12581H11.0111M16 9.12581H16.0111M5.44444 17.2516V19.782C5.44444 20.3593 5.44444 20.648 5.56581 20.7962C5.67136 20.9252 5.83141 21.0002 6.0006 21C6.19514 20.9998 6.4263 20.8195 6.88862 20.4588L9.53913 18.3912C10.0806 17.9689 10.3513 17.7577 10.6528 17.6075C10.9202 17.4742 11.2049 17.3769 11.4991 17.318C11.8307 17.2516 12.1774 17.2516 12.8708 17.2516H15.6667C17.5335 17.2516 18.4669 17.2516 19.18 16.8974C19.8072 16.5857 20.3171 16.0885 20.6367 15.4769C21 14.7816 21 13.8715 21 12.0511V6.20052C21 4.38017 21 3.46999 20.6367 2.77471C20.3171 2.16312 19.8072 1.66588 19.18 1.35426C18.4669 1 17.5335 1 15.6667 1H6.33333C4.46649 1 3.53307 1 2.82003 1.35426C2.19282 1.66588 1.68289 2.16312 1.36331 2.77471C1 3.46999 1 4.38017 1 6.20052V12.9179C1 13.9254 1 14.4292 1.11358 14.8425C1.4218 15.9642 2.3203 16.8403 3.4706 17.1409C3.89449 17.2516 4.41114 17.2516 5.44444 17.2516ZM6.55556 9.12581C6.55556 9.425 6.30682 9.66753 6 9.66753C5.69317 9.66753 5.44444 9.425 5.44444 9.12581C5.44444 8.82663 5.69317 8.58409 6 8.58409C6.30682 8.58409 6.55556 8.82663 6.55556 9.12581ZM11.5556 9.12581C11.5556 9.425 11.3068 9.66753 11 9.66753C10.6932 9.66753 10.4444 9.425 10.4444 9.12581C10.4444 8.82663 10.6932 8.58409 11 8.58409C11.3068 8.58409 11.5556 8.82663 11.5556 9.12581ZM16.5556 9.12581C16.5556 9.425 16.3068 9.66753 16 9.66753C15.6932 9.66753 15.4444 9.425 15.4444 9.12581C15.4444 8.82663 15.6932 8.58409 16 8.58409C16.3068 8.58409 16.5556 8.82663 16.5556 9.12581Z" stroke="url(#paint0_linear_1643_314)" stroke-width="2" stroke-linecap="round" stroke-linejoin="round"/>
<defs>
<linearGradient id="paint0_linear_1643_314" x1="1" y1="1" x2="12.748" y2="25.0337" gradientUnits="userSpaceOnUse">
<stop stop-color="#D79970"/>
<stop offset="0.5" stop-color="#905D44"/>
<stop offset="1" stop-color="#D79970"/>
</linearGradient>
</defs>
</svg>
