<svg width="32" height="32" viewBox="0 0 32 32" fill="none" xmlns="http://www.w3.org/2000/svg">
<path d="M0 16C0 24.8366 7.16344 32 16 32C24.8366 32 32 24.8366 32 16C32 7.16344 24.8366 0 16 0C7.16344 0 0 7.16344 0 16Z" fill="url(#paint0_linear_1598_36)"/>
<path d="M0 16C0 24.8366 7.16344 32 16 32C24.8366 32 32 24.8366 32 16C32 7.16344 24.8366 0 16 0C7.16344 0 0 7.16344 0 16Z" fill="#D79970"/>
<path d="M16.6622 11.1746C17.4408 11.3258 18.1565 11.705 18.7174 12.2634C19.2784 12.8219 19.6592 13.5343 19.8112 14.3095M16.6622 8C18.2799 8.17892 19.7885 8.90014 20.9402 10.0452C22.0919 11.1903 22.8182 12.6913 23 14.3016M13.6144 17.4151C12.6565 16.4615 11.9001 15.3832 11.3453 14.2327C11.2975 14.1338 11.2737 14.0843 11.2553 14.0217C11.1902 13.7992 11.237 13.5259 11.3725 13.3375C11.4107 13.2845 11.4562 13.2391 11.5474 13.1484C11.8261 12.8709 11.9654 12.7322 12.0565 12.5927C12.4001 12.0666 12.4001 11.3883 12.0565 10.8622C11.9654 10.7227 11.8261 10.584 11.5474 10.3065L11.392 10.1519C10.9683 9.7301 10.7565 9.51921 10.529 9.40465C10.0765 9.17682 9.54219 9.17682 9.08972 9.40465C8.86221 9.51921 8.65038 9.7301 8.2267 10.1519L8.10104 10.277C7.67881 10.6973 7.4677 10.9075 7.30647 11.1932C7.12756 11.5103 6.99892 12.0028 7.00001 12.3664C7.00099 12.6942 7.06485 12.9181 7.19256 13.3661C7.87894 15.7736 9.17399 18.0453 11.0777 19.9405C12.9814 21.8357 15.2633 23.125 17.6816 23.8083C18.1316 23.9354 18.3566 23.999 18.6858 24C19.0511 24.0011 19.5457 23.873 19.8642 23.6949C20.1512 23.5344 20.3624 23.3242 20.7846 22.9039L20.9102 22.7788C21.3339 22.357 21.5458 22.1461 21.6608 21.9196C21.8897 21.4692 21.8897 20.9372 21.6608 20.4868C21.5458 20.2603 21.3339 20.0494 20.9102 19.6276L20.7549 19.4729C20.4762 19.1955 20.3368 19.0568 20.1967 18.966C19.6682 18.624 18.987 18.624 18.4585 18.966C18.3184 19.0568 18.179 19.1955 17.9003 19.4729C17.8092 19.5637 17.7636 19.609 17.7103 19.647C17.5211 19.7819 17.2466 19.8285 17.0231 19.7637C16.9602 19.7454 16.9105 19.7217 16.8111 19.6741C15.6555 19.1218 14.5723 18.3688 13.6144 17.4151Z" stroke="white" stroke-width="1.4" stroke-linecap="round" stroke-linejoin="round"/>
<defs>
<linearGradient id="paint0_linear_1598_36" x1="4" y1="3" x2="16.4352" y2="33.7696" gradientUnits="userSpaceOnUse">
<stop stop-color="#D79970"/>
<stop offset="0.5" stop-color="#905D44"/>
<stop offset="1" stop-color="#D79970"/>
</linearGradient>
</defs>
</svg>
