<svg width="242" height="228" viewBox="0 0 242 228" fill="none" xmlns="http://www.w3.org/2000/svg">
<path d="M93.6479 8.31641L16.8438 85.2743L89.8585 158.436L158.501 89.6554L123.233 54.3161L81.26 96.3728" stroke="white" stroke-width="16"/>
<path d="M140.914 34.6521L156.876 18.5654L226.094 88.3233L150.056 164.955" stroke="white" stroke-width="16"/>
<g opacity="0.65">
<path d="M29.7911 223.857C30.6147 223.857 31.3649 223.819 32.0418 223.743C32.7187 223.655 33.3449 223.53 33.9202 223.366C34.507 223.202 35.0598 223.005 35.5787 222.776C36.1088 222.536 36.6392 222.268 37.1692 221.973V215.732H32.5664C32.4423 215.732 32.3351 215.693 32.2449 215.617C32.1659 215.54 32.1264 215.453 32.1264 215.355V214.437H38.7431V222.678C38.1451 223.082 37.5246 223.442 36.8818 223.759C36.2386 224.076 35.5505 224.343 34.8172 224.562C34.084 224.769 33.294 224.928 32.448 225.037C31.6018 225.157 30.6767 225.217 29.6726 225.217C27.9466 225.217 26.3671 224.939 24.9344 224.382C23.5129 223.814 22.2888 223.016 21.2621 221.99C20.2468 220.952 19.4571 219.702 18.893 218.238C18.3289 216.775 18.0469 215.147 18.0469 213.356C18.0469 211.565 18.3289 209.943 18.893 208.49C19.4571 207.026 20.2581 205.781 21.296 204.755C22.3339 203.717 23.5918 202.92 25.0697 202.363C26.5589 201.795 28.2229 201.511 30.0619 201.511C30.9757 201.511 31.8162 201.571 32.5833 201.691C33.3619 201.811 34.0839 201.991 34.7493 202.232C35.4149 202.461 36.0357 202.751 36.6109 203.1C37.1862 203.439 37.739 203.832 38.2694 204.279L37.8124 205C37.7108 205.164 37.5698 205.246 37.3894 205.246C37.2878 205.246 37.192 205.224 37.1016 205.181C36.9324 205.115 36.6843 204.962 36.3571 204.722C36.0411 204.482 35.6069 204.23 35.054 203.968C34.5124 203.706 33.8298 203.472 33.0065 203.264C32.1828 203.056 31.1844 202.953 30.0111 202.953C28.4542 202.953 27.0497 203.193 25.7974 203.674C24.5451 204.154 23.4734 204.842 22.5821 205.738C21.7021 206.633 21.0196 207.726 20.5345 209.014C20.0607 210.303 19.8237 211.75 19.8237 213.356C19.8237 214.994 20.0663 216.463 20.5514 217.763C21.0365 219.063 21.7134 220.166 22.5821 221.072C23.4621 221.968 24.5113 222.656 25.7297 223.137C26.9594 223.617 28.3132 223.857 29.7911 223.857Z" fill="white"/>
<path d="M53.0756 217.223C53.0756 218.523 52.9061 219.67 52.5676 220.664C52.2407 221.658 51.7667 222.494 51.1463 223.171C50.537 223.848 49.7868 224.361 48.8955 224.711C48.0155 225.049 47.0226 225.219 45.9173 225.219C45.4097 225.219 44.8962 225.18 44.3774 225.104C43.8582 225.028 43.3224 224.907 42.7695 224.743C42.7923 224.59 42.8089 224.438 42.8205 224.285C42.8429 224.132 42.8599 223.979 42.8711 223.826C42.8936 223.728 42.9333 223.64 42.9897 223.564C43.0573 223.487 43.1701 223.449 43.3281 223.449C43.4297 223.449 43.548 223.471 43.6835 223.515C43.83 223.547 43.9992 223.586 44.1912 223.629C44.3941 223.673 44.6197 223.717 44.868 223.76C45.1276 223.793 45.4263 223.809 45.7648 223.809C46.6224 223.809 47.395 223.678 48.0834 223.416C48.7715 223.154 49.358 222.756 49.8432 222.221C50.3284 221.674 50.695 220.992 50.9431 220.172C51.2027 219.342 51.3325 218.37 51.3325 217.256V201.774H53.0756V217.223Z" fill="white"/>
<path d="M68.9722 214.471V224.956H67.2461V201.774H73.3551C76.119 201.774 78.1835 202.293 79.5487 203.331C80.9137 204.358 81.5963 205.87 81.5963 207.869C81.5963 208.753 81.4383 209.562 81.1226 210.294C80.8066 211.025 80.3496 211.67 79.7519 212.227C79.1651 212.773 78.4543 213.226 77.6195 213.586C76.7846 213.936 75.8427 214.165 74.7934 214.275C75.0642 214.438 75.3069 214.657 75.5213 214.93L83.7624 224.956H82.2565C82.0758 224.956 81.9178 224.923 81.7825 224.858C81.6585 224.792 81.5345 224.683 81.4101 224.53L73.7442 215.127C73.5525 214.886 73.3439 214.717 73.1183 214.619C72.9039 214.52 72.5655 214.471 72.1027 214.471H68.9722ZM68.9722 213.226H73.1349C74.1954 213.226 75.1431 213.106 75.9779 212.866C76.8243 212.614 77.5348 212.26 78.1104 211.801C78.6969 211.342 79.1427 210.79 79.4472 210.146C79.7519 209.502 79.9042 208.775 79.9042 207.967C79.9042 206.318 79.3456 205.095 78.2287 204.297C77.1118 203.5 75.4873 203.101 73.3551 203.101H68.9722V213.226Z" fill="white"/>
<path d="M93.6217 208.395C94.5694 208.395 95.4437 208.553 96.2446 208.869C97.057 209.186 97.7563 209.65 98.3431 210.262C98.9408 210.863 99.4036 211.605 99.7308 212.49C100.069 213.375 100.238 214.391 100.238 215.537C100.238 215.778 100.199 215.942 100.12 216.029C100.052 216.116 99.9394 216.16 99.7814 216.16H87.614V216.471C87.614 217.695 87.7608 218.77 88.054 219.699C88.3473 220.627 88.7648 221.408 89.3065 222.041C89.8478 222.664 90.5022 223.134 91.2694 223.451C92.0366 223.767 92.8939 223.926 93.8416 223.926C94.6877 223.926 95.4209 223.838 96.0414 223.663C96.6622 223.478 97.181 223.276 97.5983 223.057C98.0271 222.828 98.3655 222.626 98.6139 222.451C98.8619 222.266 99.0424 222.172 99.1552 222.172C99.302 222.172 99.4148 222.227 99.4936 222.337L99.9336 222.861C99.6628 223.189 99.302 223.494 98.8507 223.778C98.4107 224.062 97.9143 224.308 97.3614 224.515C96.8198 224.712 96.2334 224.87 95.6017 224.99C94.9809 225.111 94.355 225.171 93.723 225.171C92.5725 225.171 91.5232 224.979 90.5756 224.597C89.6279 224.204 88.8155 223.636 88.1386 222.893C87.4618 222.151 86.9371 221.244 86.5651 220.174C86.2039 219.093 86.0234 217.858 86.0234 216.471C86.0234 215.303 86.1927 214.227 86.5311 213.244C86.8807 212.25 87.3772 211.398 88.0204 210.688C88.6745 209.967 89.4699 209.405 90.4063 209.001C91.354 208.597 92.4257 208.395 93.6217 208.395ZM93.6384 209.558C92.7699 209.558 91.9915 209.689 91.3034 209.951C90.615 210.213 90.017 210.59 89.5093 211.081C89.0129 211.573 88.6068 212.163 88.2908 212.851C87.9864 213.539 87.7832 214.309 87.6819 215.161H98.7831C98.7831 214.287 98.6588 213.506 98.4107 212.818C98.1627 212.119 97.8127 211.529 97.3614 211.049C96.9102 210.568 96.3686 210.202 95.7369 209.951C95.1053 209.689 94.4056 209.558 93.6384 209.558Z" fill="white"/>
<path d="M115.301 224.954C114.963 224.954 114.754 224.802 114.676 224.496L114.438 222.415C113.976 222.852 113.513 223.245 113.051 223.595C112.599 223.944 112.126 224.239 111.629 224.48C111.133 224.72 110.597 224.9 110.022 225.02C109.446 225.151 108.815 225.217 108.126 225.217C107.551 225.217 106.993 225.135 106.451 224.971C105.909 224.807 105.43 224.556 105.013 224.217C104.595 223.879 104.257 223.447 103.997 222.923C103.749 222.388 103.625 221.749 103.625 221.006C103.625 220.318 103.828 219.679 104.234 219.089C104.64 218.5 105.272 217.986 106.13 217.55C106.998 217.113 108.11 216.763 109.463 216.501C110.828 216.239 112.464 216.086 114.371 216.042V214.338C114.371 212.831 114.032 211.673 113.355 210.865C112.69 210.046 111.697 209.636 110.377 209.636C109.565 209.636 108.871 209.746 108.296 209.964C107.732 210.183 107.252 210.423 106.857 210.685C106.462 210.947 106.141 211.187 105.893 211.406C105.644 211.624 105.436 211.733 105.267 211.733C105.041 211.733 104.872 211.635 104.759 211.439L104.471 210.964C105.351 210.112 106.276 209.467 107.246 209.03C108.217 208.593 109.316 208.375 110.546 208.375C111.449 208.375 112.239 208.517 112.915 208.801C113.592 209.074 114.151 209.473 114.591 209.997C115.042 210.51 115.381 211.138 115.606 211.881C115.832 212.613 115.945 213.432 115.945 214.338V224.954H115.301ZM108.533 224.086C109.187 224.086 109.785 224.021 110.326 223.89C110.879 223.748 111.387 223.557 111.849 223.316C112.323 223.065 112.763 222.77 113.169 222.432C113.575 222.093 113.976 221.727 114.371 221.334V217.091C112.769 217.134 111.387 217.254 110.225 217.451C109.074 217.637 108.121 217.894 107.365 218.221C106.62 218.549 106.067 218.942 105.707 219.401C105.357 219.849 105.182 220.362 105.182 220.941C105.182 221.487 105.272 221.962 105.453 222.366C105.644 222.759 105.893 223.087 106.197 223.349C106.502 223.6 106.857 223.786 107.263 223.906C107.669 224.026 108.093 224.086 108.533 224.086Z" fill="white"/>
<path d="M123.096 201.118V224.955H121.488V201.118H123.096Z" fill="white"/>
<path d="M150.761 201.774V203.167H138.153V212.538H148.645V213.898H138.153V223.564H150.761V224.956H136.41V201.774H150.761Z" fill="white"/>
<path d="M164.86 210.672C164.781 210.825 164.657 210.901 164.488 210.901C164.364 210.901 164.2 210.835 163.997 210.704C163.805 210.562 163.546 210.41 163.219 210.246C162.903 210.071 162.508 209.918 162.034 209.787C161.572 209.645 161.002 209.574 160.325 209.574C159.716 209.574 159.158 209.661 158.65 209.836C158.153 210 157.725 210.224 157.364 210.508C157.014 210.792 156.738 211.125 156.534 211.507C156.343 211.879 156.247 212.272 156.247 212.687C156.247 213.2 156.382 213.626 156.653 213.965C156.924 214.303 157.279 214.593 157.719 214.833C158.159 215.073 158.656 215.281 159.208 215.455C159.773 215.631 160.348 215.805 160.934 215.98C161.521 216.155 162.091 216.351 162.644 216.57C163.208 216.777 163.71 217.039 164.15 217.356C164.59 217.673 164.945 218.06 165.216 218.519C165.487 218.978 165.622 219.535 165.622 220.19C165.622 220.9 165.487 221.561 165.216 222.172C164.956 222.784 164.573 223.314 164.065 223.762C163.569 224.21 162.954 224.565 162.22 224.827C161.487 225.089 160.652 225.22 159.716 225.22C158.531 225.22 157.51 225.04 156.653 224.679C155.796 224.308 155.028 223.827 154.352 223.238L154.741 222.68C154.797 222.593 154.859 222.528 154.927 222.484C154.994 222.44 155.091 222.418 155.215 222.418C155.361 222.418 155.542 222.506 155.756 222.68C155.97 222.855 156.247 223.046 156.585 223.254C156.935 223.451 157.364 223.636 157.871 223.811C158.39 223.986 159.028 224.073 159.784 224.073C160.494 224.073 161.12 223.98 161.662 223.794C162.204 223.598 162.655 223.336 163.016 223.008C163.377 222.681 163.648 222.298 163.828 221.861C164.02 221.414 164.116 220.944 164.116 220.453C164.116 219.906 163.98 219.453 163.71 219.093C163.439 218.732 163.083 218.426 162.644 218.175C162.204 217.924 161.701 217.711 161.137 217.536C160.585 217.361 160.009 217.187 159.411 217.012C158.825 216.837 158.249 216.646 157.685 216.438C157.132 216.231 156.636 215.969 156.196 215.652C155.756 215.335 155.401 214.953 155.13 214.505C154.859 214.047 154.724 213.479 154.724 212.802C154.724 212.223 154.853 211.666 155.113 211.131C155.373 210.595 155.739 210.126 156.213 209.721C156.698 209.317 157.285 208.995 157.973 208.755C158.661 208.515 159.434 208.395 160.291 208.395C161.318 208.395 162.226 208.536 163.016 208.82C163.817 209.105 164.55 209.541 165.216 210.131L164.86 210.672Z" fill="white"/>
<path d="M174.738 225.218C173.599 225.218 172.707 224.912 172.064 224.3C171.432 223.688 171.116 222.744 171.116 221.466V210.325H168.696C168.572 210.325 168.471 210.293 168.392 210.227C168.313 210.162 168.273 210.069 168.273 209.948V209.342L171.15 209.146L171.556 203.313C171.568 203.215 171.607 203.128 171.675 203.051C171.754 202.975 171.855 202.937 171.979 202.937H172.741V209.162H178.038V210.325H172.741V221.384C172.741 221.832 172.797 222.22 172.91 222.547C173.034 222.864 173.198 223.126 173.401 223.334C173.615 223.541 173.864 223.694 174.146 223.792C174.428 223.89 174.732 223.939 175.059 223.939C175.466 223.939 175.815 223.885 176.109 223.776C176.402 223.656 176.656 223.53 176.87 223.399C177.084 223.257 177.259 223.132 177.395 223.022C177.53 222.902 177.637 222.842 177.716 222.842C177.806 222.842 177.897 222.896 177.987 223.006L178.427 223.694C177.998 224.153 177.451 224.524 176.785 224.808C176.131 225.081 175.449 225.218 174.738 225.218Z" fill="white"/>
<path d="M192.942 224.954C192.604 224.954 192.395 224.802 192.316 224.496L192.079 222.415C191.617 222.852 191.154 223.245 190.692 223.595C190.24 223.944 189.766 224.239 189.27 224.48C188.774 224.72 188.238 224.9 187.662 225.02C187.087 225.151 186.455 225.217 185.767 225.217C185.192 225.217 184.633 225.135 184.092 224.971C183.55 224.807 183.071 224.556 182.653 224.217C182.236 223.879 181.898 223.447 181.638 222.923C181.39 222.388 181.266 221.749 181.266 221.006C181.266 220.318 181.469 219.679 181.875 219.089C182.281 218.5 182.913 217.986 183.77 217.55C184.639 217.113 185.75 216.763 187.104 216.501C188.469 216.239 190.105 216.086 192.011 216.042V214.338C192.011 212.831 191.673 211.673 190.996 210.865C190.33 210.046 189.338 209.636 188.018 209.636C187.205 209.636 186.512 209.746 185.936 209.964C185.372 210.183 184.893 210.423 184.498 210.685C184.103 210.947 183.781 211.187 183.533 211.406C183.285 211.624 183.076 211.733 182.907 211.733C182.682 211.733 182.512 211.635 182.399 211.439L182.112 210.964C182.992 210.112 183.917 209.467 184.887 209.03C185.857 208.593 186.957 208.375 188.187 208.375C189.09 208.375 189.879 208.517 190.556 208.801C191.233 209.074 191.792 209.473 192.232 209.997C192.683 210.51 193.021 211.138 193.247 211.881C193.472 212.613 193.585 213.432 193.585 214.338V224.954H192.942ZM186.173 224.086C186.828 224.086 187.426 224.021 187.967 223.89C188.52 223.748 189.027 223.557 189.49 223.316C189.964 223.065 190.404 222.77 190.81 222.432C191.216 222.093 191.617 221.727 192.011 221.334V217.091C190.41 217.134 189.027 217.254 187.866 217.451C186.715 217.637 185.761 217.894 185.006 218.221C184.261 218.549 183.708 218.942 183.347 219.401C182.998 219.849 182.823 220.362 182.823 220.941C182.823 221.487 182.913 221.962 183.093 222.366C183.285 222.759 183.533 223.087 183.838 223.349C184.143 223.6 184.498 223.786 184.904 223.906C185.31 224.026 185.733 224.086 186.173 224.086Z" fill="white"/>
<path d="M203.253 225.218C202.114 225.218 201.223 224.912 200.58 224.3C199.948 223.688 199.632 222.744 199.632 221.466V210.325H197.212C197.088 210.325 196.986 210.293 196.907 210.227C196.828 210.162 196.789 210.069 196.789 209.948V209.342L199.666 209.146L200.072 203.313C200.083 203.215 200.123 203.128 200.19 203.051C200.269 202.975 200.371 202.937 200.495 202.937H201.257V209.162H206.553V210.325H201.257V221.384C201.257 221.832 201.313 222.22 201.426 222.547C201.55 222.864 201.714 223.126 201.916 223.334C202.131 223.541 202.379 223.694 202.661 223.792C202.943 223.89 203.248 223.939 203.575 223.939C203.981 223.939 204.331 223.885 204.624 223.776C204.917 223.656 205.171 223.53 205.386 223.399C205.6 223.257 205.775 223.132 205.91 223.022C206.046 222.902 206.153 222.842 206.232 222.842C206.322 222.842 206.412 222.896 206.503 223.006L206.943 223.694C206.514 224.153 205.967 224.524 205.301 224.808C204.647 225.081 203.964 225.218 203.253 225.218Z" fill="white"/>
<path d="M217.071 208.395C218.018 208.395 218.893 208.553 219.694 208.869C220.506 209.186 221.206 209.65 221.792 210.262C222.39 210.863 222.853 211.605 223.18 212.49C223.518 213.375 223.687 214.391 223.687 215.537C223.687 215.778 223.648 215.942 223.569 216.029C223.501 216.116 223.389 216.16 223.231 216.16H211.063V216.471C211.063 217.695 211.21 218.77 211.503 219.699C211.796 220.627 212.214 221.408 212.755 222.041C213.297 222.664 213.951 223.134 214.719 223.451C215.486 223.767 216.343 223.926 217.291 223.926C218.137 223.926 218.87 223.838 219.491 223.663C220.111 223.478 220.63 223.276 221.048 223.057C221.476 222.828 221.815 222.626 222.063 222.451C222.311 222.266 222.492 222.172 222.604 222.172C222.751 222.172 222.864 222.227 222.943 222.337L223.383 222.861C223.112 223.189 222.751 223.494 222.3 223.778C221.86 224.062 221.363 224.308 220.811 224.515C220.269 224.712 219.683 224.87 219.051 224.99C218.43 225.111 217.804 225.171 217.172 225.171C216.022 225.171 214.972 224.979 214.025 224.597C213.077 224.204 212.265 223.636 211.588 222.893C210.911 222.151 210.386 221.244 210.014 220.174C209.653 219.093 209.473 217.858 209.473 216.471C209.473 215.303 209.642 214.227 209.98 213.244C210.33 212.25 210.826 211.398 211.469 210.688C212.124 209.967 212.919 209.405 213.856 209.001C214.803 208.597 215.875 208.395 217.071 208.395ZM217.088 209.558C216.219 209.558 215.441 209.689 214.752 209.951C214.064 210.213 213.466 210.59 212.959 211.081C212.462 211.573 212.056 212.163 211.74 212.851C211.436 213.539 211.232 214.309 211.131 215.161H222.232C222.232 214.287 222.108 213.506 221.86 212.818C221.612 212.119 221.262 211.529 220.811 211.049C220.359 210.568 219.818 210.202 219.186 209.951C218.554 209.689 217.855 209.558 217.088 209.558Z" fill="white"/>
</g>
</svg>
