<svg width="34" height="12" viewBox="0 0 34 12" fill="none" xmlns="http://www.w3.org/2000/svg">
<g clip-path="url(#clip0_841_21)">
<mask id="mask0_841_21" style="mask-type:luminance" maskUnits="userSpaceOnUse" x="0" y="0" width="34" height="12">
<path d="M34 0H0V12H34V0Z" fill="white"/>
</mask>
<g mask="url(#mask0_841_21)">
<path d="M7.92346 8.57996C7.92346 9.64705 7.5006 10.5286 6.70371 11.1384C5.97186 11.6951 4.93429 12 3.77959 12C2.10447 12 0.796899 11.4267 0.126854 10.8865L0 8.19219H0.0585476C0.608248 10.1607 2.39395 11.1583 3.89343 11.1583C5.39289 11.1583 6.19306 10.4325 6.19306 9.16651C6.19306 8.12263 5.57831 7.58905 3.56491 6.89313C1.37912 6.14417 0.113843 5.31898 0.113843 3.32063C0.113843 2.34963 0.458624 1.52444 1.11241 0.931233C1.78571 0.321458 2.73548 0 3.8609 0C5.1327 0 6.3882 0.367854 7.31522 1.01408V3.50621H7.25993C6.77527 1.72659 5.16197 0.825186 3.74706 0.825186C2.54032 0.825186 1.76294 1.52113 1.76294 2.59818C1.76294 3.67523 2.30939 4.19884 4.3065 4.88814C6.59636 5.66694 7.92346 6.52196 7.92346 8.57996Z" fill="black"/>
<path d="M22.1183 8.42781L21.5751 11.8346H12.7539V11.7882C13.8338 11.7485 14.3152 10.8868 14.3152 9.86943V2.11465C14.3152 1.12376 13.8533 0.26875 12.7539 0.215725V0.166016H17.8703V0.215725C16.8035 0.26875 16.3253 1.1337 16.3253 2.11465V9.83628C16.3253 10.8338 16.8783 11.0227 17.8996 11.0227H18.69C20.0236 11.0227 21.0156 10.3897 22.0337 8.50734L22.0793 8.42781H22.1183Z" fill="black"/>
<path d="M34 8.57996C34 9.64705 33.5771 10.5286 32.777 11.1384C32.0451 11.6951 31.0075 12 29.8561 12C28.1777 12 26.8734 11.4267 26.2033 10.8865L26.0732 8.19219H26.1351C26.6848 10.1607 28.4672 11.1583 29.9699 11.1583C31.4726 11.1583 32.2663 10.4325 32.2663 9.16651C32.2663 8.12263 31.6516 7.58905 29.6381 6.89313C27.4524 6.14417 26.1871 5.31898 26.1871 3.32063C26.1871 2.34963 26.5351 1.52444 27.1889 0.931233C27.8589 0.321458 28.8087 0 29.9374 0C31.206 0 32.4647 0.367854 33.3917 1.01408V3.50621H33.3364C32.8518 1.72659 31.2385 0.825186 29.8203 0.825186C28.6168 0.825186 27.8362 1.52113 27.8362 2.59818C27.8362 3.67523 28.3826 4.19884 30.383 4.88814C32.6729 5.66694 34 6.52196 34 8.57996Z" fill="black"/>
</g>
</g>
<defs>
<clipPath id="clip0_841_21">
<rect width="34" height="12" fill="white"/>
</clipPath>
</defs>
</svg>
