<svg width="306" height="174" viewBox="0 0 306 174" fill="none" xmlns="http://www.w3.org/2000/svg">
<g clip-path="url(#clip0_877_1145)">
<mask id="mask0_877_1145" style="mask-type:luminance" maskUnits="userSpaceOnUse" x="0" y="0" width="306" height="174">
<path d="M306 0H0V174H306V0Z" fill="white"/>
</mask>
<g mask="url(#mask0_877_1145)">
<path d="M36.8048 115.591H42.0576V83.4023H36.8048V82.7451H63.8542V92.6393H63.3308C62.9206 91.4123 62.4757 90.3432 62.0044 89.4143C61.5333 88.4941 60.9662 87.7054 60.3029 87.0655C59.6398 86.426 58.8546 85.944 57.9383 85.6283C57.022 85.3129 55.9226 85.1553 54.6313 85.1553H46.7782V96.1884H49.8495C50.8879 96.1884 51.7692 96.0922 52.4935 95.908C53.2177 95.724 53.846 95.3646 54.3608 94.8476C54.8842 94.3305 55.3205 93.6209 55.687 92.7268C56.0448 91.8329 56.4026 92.4377 56.7515 91.0181L57.2752 89.2651V105.653H56.7515C56.5334 104.742 56.3066 103.865 56.0623 103.015C55.8266 102.165 55.495 101.412 55.0676 100.754C54.6399 100.097 54.0728 99.5712 53.366 99.1769C52.6593 98.7824 51.7344 98.5896 50.6 98.5896H46.7695V113.821H55.7045C57.441 113.821 58.8807 113.453 60.0324 112.716C61.1841 111.98 62.1179 111.104 62.8508 110.079C63.5751 109.062 64.1074 108.002 64.4563 106.906C64.8053 105.811 65.0234 104.899 65.1194 104.181L65.6431 105.934V116.239H36.7959V115.582L36.8048 115.591Z" fill="white"/>
<path d="M76.5068 115.591H81.7596V102.086L71.1143 83.4023H66.8125V82.7451H81.2885V83.4023H76.5591L85.1365 99.9656L94.0714 83.4023H90.1712V82.7451H100.293V83.4023H95.7031L86.4888 100.579V115.591H91.733V116.248H76.5068V115.591Z" fill="white"/>
<path d="M108.032 115.591H111.523V83.4023H108.032V82.7451H118.678L127.421 108.063L126.635 107.187L135.727 82.8853L146.713 82.7451V83.4023H141.469V115.591H146.713V116.248H131.487V115.591H136.74V83.683H136.644L125.344 116.292L114.088 84.0158H113.992V115.591H119.245V116.248H108.032V115.591Z" fill="white"/>
<path d="M149.653 115.591H152.934L165.7 81.9043H167.715L180.577 115.591H184.783V116.248H170.22V115.591H175.473L170.508 103.252H159.54L154.575 115.591H159.828V116.248H149.662V115.591H149.653ZM165.019 88.1613L159.819 101.85H170.22L165.019 88.1613Z" fill="white"/>
<path d="M175.412 82.7451H190.019V83.4023H184.775L195.272 110.692L205.629 83.4023H200.472V82.7451H210.69V83.4023H207.313L194.591 116.949H192.532L179.67 83.4023H175.412V82.7451Z" fill="white"/>
<path d="M246.16 115.591H251.414V83.4023H246.16V82.7451H258.045L274.031 108.387H274.117V83.4023H268.873V82.7451H281.839V83.4023H276.587V116.906H273.88L253.978 85.3305H253.882V115.591H259.136V116.248H246.16V115.591Z" fill="white"/>
<path d="M281.979 106.136H282.502C282.85 107.827 283.296 109.256 283.844 110.421C284.394 111.587 285.006 112.542 285.668 113.295C286.332 114.049 287.02 114.627 287.746 115.039C288.469 115.451 289.202 115.749 289.944 115.933C290.685 116.117 291.393 116.231 292.074 116.266C292.753 116.301 293.392 116.31 293.994 116.31C295.66 116.31 297.029 116.056 298.103 115.556C299.176 115.057 300.023 114.417 300.659 113.655C301.289 112.883 301.733 112.051 301.985 111.157C302.239 110.263 302.36 109.439 302.36 108.686C302.36 107.59 302.152 106.644 301.74 105.864C301.331 105.084 300.807 104.418 300.178 103.866C299.551 103.314 298.863 102.867 298.12 102.525C297.377 102.183 296.681 101.911 296.018 101.728L290.581 100.08C288.024 99.2913 286.097 98.2572 284.787 96.9776C283.479 95.6895 282.825 93.9629 282.825 91.7984C282.825 90.3875 283.077 89.073 283.583 87.8724C284.088 86.6631 284.797 85.6201 285.712 84.7439C286.628 83.8674 287.718 83.1752 289.002 82.6755C290.275 82.1762 291.672 81.9219 293.189 81.9219C294.29 81.9219 295.215 82.0183 295.956 82.2023C296.699 82.3865 297.335 82.6054 297.876 82.8334C298.409 83.07 298.887 83.2803 299.314 83.4732C299.744 83.6572 300.171 83.7536 300.615 83.7536C301.025 83.7536 301.306 83.7009 301.444 83.5871C301.585 83.4819 301.785 83.2015 302.039 82.7633H302.7V91.2813H302.135C301.943 90.1508 301.619 89.0643 301.165 88.0126C300.711 86.9609 300.119 86.032 299.393 85.2346C298.67 84.4372 297.797 83.7886 296.768 83.3067C295.746 82.8157 294.552 82.5791 293.199 82.5791C292.439 82.5791 291.61 82.6845 290.695 82.8858C289.779 83.0874 288.933 83.4469 288.138 83.9462C287.353 84.4459 286.699 85.1031 286.174 85.9182C285.651 86.7332 285.389 87.7673 285.389 89.0203C285.389 90.0283 285.589 90.8784 286.008 91.5881C286.418 92.298 286.951 92.8938 287.598 93.3758C288.242 93.8578 288.967 94.2697 289.769 94.6027C290.571 94.9358 291.383 95.2249 292.205 95.4703L297.928 97.2582C298.53 97.4422 299.28 97.6962 300.198 98.0119C301.113 98.3273 302.002 98.8006 302.868 99.4228C303.732 100.054 304.472 100.877 305.091 101.92C305.703 102.954 306.017 104.269 306.017 105.873C306.017 107.345 305.738 108.756 305.188 110.088C304.637 111.42 303.845 112.594 302.796 113.62C301.757 114.636 300.494 115.451 299.011 116.065C297.528 116.678 295.86 116.985 294.001 116.985C293.338 116.985 292.753 116.985 292.247 116.959C291.741 116.941 291.27 116.906 290.825 116.845C290.381 116.783 289.944 116.713 289.5 116.634C289.054 116.555 288.565 116.441 288.034 116.284C287.405 116.1 286.724 115.881 286.001 115.626C285.275 115.381 284.649 115.25 284.106 115.25C283.634 115.25 283.314 115.346 283.138 115.53C282.963 115.714 282.815 115.968 282.694 116.284H281.986V106.171L281.979 106.136Z" fill="white"/>
<path d="M167.829 11.5503C167.785 11.5766 165.464 12.97 165.421 12.9963C163.248 14.4861 160.107 16.7121 160.089 22.163C160.072 25.3968 160.176 28.1485 160.133 29.9449C160.098 31.3647 159.635 32.7406 158.798 33.8447L147.219 49.1898V58.5403L190.175 0L167.829 11.5503ZM165.831 23.4775C164.6 18.3771 171.389 16.1687 171.563 16.7822C171.651 17.0889 167.192 22.2243 166.093 23.5914C165.997 23.7054 165.857 23.6265 165.822 23.4863" fill="#D2A749"/>
<path d="M167.071 32.4345L162.019 39.1387C161.896 39.2963 161.835 39.4979 161.827 39.7082L161.713 49.1377C161.713 49.4445 161.556 49.7338 161.312 49.9001L160.02 50.7766C157.063 52.7835 155.309 56.1574 155.37 59.7415L155.405 61.7662L165.614 53.8964C166.355 53.3267 166.914 52.5118 167.193 51.574C167.315 51.1534 167.376 50.7239 167.367 50.2859L167.062 32.4258L167.071 32.4345Z" fill="#D2A749"/>
<path d="M104.271 0L147.219 58.5493V49.1985L135.64 33.8534C134.803 32.7493 134.34 31.3734 134.305 29.9538C134.27 28.1572 134.366 25.4055 134.349 22.1718C134.331 16.7121 131.19 14.4949 129.018 13.0051C128.974 12.9788 126.653 11.5766 126.609 11.5591L104.271 0ZM128.346 23.5739C127.246 22.2068 122.787 17.0714 122.875 16.7647C123.049 16.1512 129.838 18.3596 128.607 23.46C128.572 23.609 128.433 23.6791 128.337 23.5651" fill="#D2A749"/>
<path d="M127.377 32.4345L132.429 39.1387C132.551 39.2963 132.612 39.4979 132.621 39.7082L132.734 49.1377C132.734 49.4445 132.891 49.7338 133.135 49.9001L133.921 50.4348C137.193 52.652 139.13 56.3853 139.06 60.3463L139.034 61.7662L128.825 53.8964C128.083 53.3267 127.525 52.5118 127.246 51.574C127.123 51.1534 127.062 50.7239 127.071 50.2859L127.377 32.4258V32.4345Z" fill="#D2A749"/>
<path d="M21.5794 163.527H20.2095C19.2235 163.527 18.3945 163.326 17.7401 162.932V166.516C17.7401 169.101 17.0944 170.968 15.803 172.107C14.3633 173.369 12.0597 174.009 8.89228 174.009C6.53635 174.009 4.65161 173.65 3.22933 172.922C1.32713 171.941 0.384766 170.609 0.384766 168.917C0.384766 168.111 0.698889 167.384 1.33586 166.744C2.09499 165.964 3.13336 165.569 4.45091 165.569C6.67597 165.569 7.79285 166.358 7.79285 167.936C7.79285 168.575 7.53107 169.128 6.9988 169.601C6.36183 170.153 5.51544 170.433 4.45091 170.433C3.56963 170.433 2.59235 170.135 1.52783 169.539C1.52783 171.02 2.54872 172.151 4.59924 172.931C5.55907 173.299 6.52764 173.483 7.48744 173.483C8.75268 173.483 9.6514 173.132 10.1837 172.44C10.5589 171.941 10.7508 170.757 10.7508 168.882V142.933H7.60088V142.442H20.096V142.933H17.7401V160.25C17.7401 161.74 18.6039 162.485 20.3229 162.485H21.5794V163.554V163.527Z" fill="white"/>
<path d="M27.3453 162.459H20.4346V163.528H27.3453V162.459Z" fill="white"/>
<path d="M33.0786 162.459H26.168V163.528H33.0786V162.459Z" fill="white"/>
<path d="M74.7099 163.528H52.0232C51.0371 163.528 50.2171 163.326 49.5537 162.932V163.528H31.8232V162.459H43.4021V142.732H41.6222V142.241H50.9586V142.732H49.5537V160.215C49.5537 161.705 50.4177 162.45 52.1367 162.45H74.7099V163.519V163.528Z" fill="white"/>
<path d="M80.5982 162.459H73.6875V163.528H80.5982V162.459Z" fill="white"/>
<path d="M108.347 163.528H106.601C105.615 163.528 92.5791 163.326 91.9161 162.932V163.528H79.4209V162.459H85.7645V142.732H83.9845V142.241H95.0659V142.732H91.9161V160.215C91.9161 161.705 104.996 162.45 106.715 162.45H108.347V163.519V163.528Z" fill="white"/>
<path d="M107.238 162.459H115.554C112.997 160.934 111.715 157.7 111.715 152.731C111.715 149.699 112.029 147.491 112.666 146.097C113.905 143.354 116.453 141.979 120.301 141.979C123.39 141.979 125.562 142.881 126.827 144.686C127.918 146.255 128.459 148.884 128.459 152.574C128.459 156.684 127.813 159.479 126.522 160.951C125.99 161.565 125.388 162.056 124.698 162.441H131.531V163.511H107.229V162.441L107.238 162.459ZM118.215 145.703V159.628C118.215 161.477 118.843 162.397 120.117 162.397C121.391 162.397 121.976 161.477 121.976 159.628V145.703C121.976 143.985 121.356 143.126 120.117 143.126C118.878 143.126 118.215 143.985 118.215 145.703Z" fill="white"/>
<path d="M137.159 162.459H130.248V163.528H137.159V162.459Z" fill="white"/>
<path d="M178.867 163.528H177.122C176.136 163.528 157.864 163.326 157.201 162.932V163.528H135.98V162.459H151.05V142.732H149.27V142.241H158.606V142.732H157.201V160.215C157.201 161.705 175.516 162.45 177.235 162.45H178.867V163.519V163.528Z" fill="white"/>
<path d="M174.355 162.458H182.104V142.837H180.28V142.346H188.334V143.687C189.119 142.635 190.323 142.109 191.947 142.109C196.379 142.109 198.587 145.536 198.587 152.389C198.587 157.673 197.627 161.021 195.698 162.432C194.582 163.247 193.273 163.65 191.746 163.65C190.376 163.65 189.241 163.142 188.325 162.134V163.519H174.355V162.449V162.458ZM188.325 147.788V158.217C188.325 158.997 188.474 159.75 188.779 160.478C189.233 161.582 189.939 162.143 190.908 162.143C191.667 162.143 192.051 161.468 192.051 160.118V146.088C192.051 144.449 191.667 143.634 190.908 143.634C189.948 143.634 189.233 144.221 188.779 145.404C188.474 146.184 188.325 146.982 188.325 147.797" fill="white"/>
<path d="M254.318 142.249V142.889H252.381V162.467H262.669V163.536H246.229V146.666C246.229 144.957 245.269 144.151 243.341 144.238C242.329 144.282 241.823 144.598 241.823 145.202V162.475H243.192V163.544H222.312C219.275 163.544 217.312 162.747 216.422 161.161C215.462 159.496 214.982 156.718 214.982 152.827C214.982 145.772 217.548 142.249 222.687 142.249C223.9 142.249 224.886 142.459 225.645 142.871C225.977 143.046 226.649 143.546 227.661 144.387L225.951 144.536C225.34 143.756 224.633 143.362 223.821 143.362C223.595 143.362 223.368 143.388 223.141 143.45C222.024 143.704 221.474 144.475 221.474 145.754V158.032C221.474 161.003 222.12 162.484 223.411 162.484H235.636V144.124C236.317 142.871 237.809 142.249 240.112 142.249C242.416 142.249 244.501 142.871 246.229 144.124V142.267H254.318V142.249Z" fill="white"/>
<path d="M287.554 163.475H246.456V159.093H288.338V162.686C288.338 163.124 287.99 163.475 287.554 163.475Z" fill="white"/>
<path d="M241.221 158.655H218.159V162.467H241.221V158.655Z" fill="white"/>
<path d="M152.515 159.391H124.41V163.203H152.515V159.391Z" fill="white"/>
<path d="M183.055 158.515H156.669V162.598H183.055V158.515Z" fill="white"/>
<path d="M86.201 158.515H48.3838V162.598H86.201V158.515Z" fill="white"/>
<path d="M48.4889 158.944H13.4814V163.028H48.4889V158.944Z" fill="white"/>
<path d="M279.884 146.517C282.169 145.343 284.36 144.782 286.455 144.843C289.088 144.914 291.008 145.772 292.205 147.42C293.427 149.137 294.029 151.74 294.029 155.237C294.029 157.533 293.565 159.496 292.649 161.126C291.751 162.695 289.814 163.475 286.83 163.475H269.475V162.423H285.747C287.013 162.423 287.65 160.96 287.65 158.041V148.27C287.65 146.675 286.776 145.877 285.041 145.877C283.696 145.877 282.109 146.482 280.286 147.7C278.452 148.918 275.686 149.453 271.979 149.313L271.192 148.726C272.957 148.629 273.845 147.814 273.845 146.272" fill="white"/>
<path d="M304.771 134.59L274.127 147.534C273.924 147.622 273.742 147.753 273.594 147.911L273.149 148.419C272.372 149.295 270.941 148.953 270.635 147.823C270.452 147.131 270.783 146.403 271.439 146.105L303.767 131.286L304.771 134.59Z" fill="white"/>
<path d="M231.36 168.987C231.36 169.556 231.116 170.038 230.636 170.424C230.156 170.81 229.589 171.002 228.934 171.002C228.28 171.002 227.721 170.801 227.267 170.415C226.814 170.021 226.587 169.548 226.587 168.987C226.57 168.365 226.788 167.848 227.233 167.418C227.678 166.997 228.245 166.787 228.934 166.787C229.623 166.787 230.199 166.997 230.662 167.436C231.124 167.865 231.36 168.382 231.36 168.987Z" fill="white"/>
<path d="M181.625 168.987C181.625 169.556 181.38 170.038 180.9 170.424C180.42 170.81 179.853 171.002 179.199 171.002C178.544 171.002 177.986 170.801 177.532 170.415C177.079 170.021 176.852 169.548 176.852 168.987C176.834 168.365 177.052 167.848 177.497 167.418C177.942 166.997 178.51 166.787 179.199 166.787C179.888 166.787 180.464 166.997 180.927 167.436C181.389 167.865 181.625 168.382 181.625 168.987Z" fill="white"/>
<path d="M187.044 168.987C187.044 169.556 186.799 170.038 186.319 170.424C185.839 170.81 185.272 171.002 184.618 171.002C183.963 171.002 183.405 170.801 182.951 170.415C182.498 170.021 182.27 169.548 182.27 168.987C182.253 168.365 182.471 167.848 182.916 167.418C183.361 166.989 183.929 166.787 184.618 166.787C185.307 166.787 185.883 166.997 186.345 167.436C186.808 167.865 187.044 168.382 187.044 168.987Z" fill="white"/>
<path d="M81.3317 168.987C81.3317 169.556 81.0874 170.038 80.6074 170.424C80.1274 170.81 79.5603 171.002 78.9059 171.002C78.2514 171.002 77.693 170.801 77.2392 170.415C76.7856 170.021 76.5586 169.548 76.5586 168.987C76.5413 168.365 76.7594 167.848 77.2044 167.418C77.6493 166.997 78.2164 166.787 78.9059 166.787C79.5951 166.787 80.1711 166.997 80.6335 167.436C81.096 167.865 81.3317 168.382 81.3317 168.987Z" fill="white"/>
<path d="M86.7506 168.987C86.7506 169.556 86.5063 170.038 86.0263 170.424C85.5464 170.81 84.9793 171.002 84.3248 171.002C83.6704 171.002 83.1119 170.801 82.6581 170.415C82.2045 170.021 81.9775 169.548 81.9775 168.987C81.9602 168.365 82.1784 167.848 82.6233 167.418C83.0683 166.997 83.6356 166.787 84.3248 166.787C85.0141 166.787 85.59 166.997 86.0525 167.436C86.5149 167.865 86.7506 168.382 86.7506 168.987Z" fill="white"/>
<path d="M43.9066 138.017C43.9066 138.586 43.6623 139.068 43.1826 139.454C42.7026 139.84 42.1353 140.033 41.4811 140.033C40.8267 140.033 40.2682 139.831 39.8144 139.445C39.3606 139.051 39.1338 138.578 39.1338 138.017C39.1163 137.395 39.3344 136.878 39.7796 136.448C40.2245 136.028 40.7916 135.817 41.4811 135.817C42.1703 135.817 42.7463 136.028 43.2088 136.466C43.6712 136.895 43.9066 137.412 43.9066 138.017Z" fill="white"/>
<path d="M17.1284 138.017C17.1284 138.586 16.8841 139.068 16.4042 139.454C15.9243 139.84 15.3571 140.033 14.7027 140.033C14.0482 140.033 13.4898 139.831 13.0361 139.445C12.5823 139.051 12.3555 138.578 12.3555 138.017C12.338 137.395 12.5562 136.878 13.0012 136.448C13.4462 136.028 14.0133 135.817 14.7027 135.817C15.392 135.817 15.9679 136.028 16.4303 136.466C16.8928 136.895 17.1284 137.412 17.1284 138.017Z" fill="white"/>
<path d="M122.404 133.758C122.404 134.328 122.159 134.81 121.679 135.195C121.2 135.581 120.632 135.774 119.978 135.774C119.323 135.774 118.765 135.581 118.311 135.187C117.858 134.792 117.631 134.319 117.631 133.758C117.613 133.136 117.831 132.619 118.276 132.189C118.722 131.76 119.289 131.559 119.978 131.559C120.667 131.559 121.243 131.769 121.706 132.207C122.168 132.636 122.404 133.153 122.404 133.758Z" fill="white"/>
<path d="M119.699 138.542C119.699 139.112 119.454 139.594 118.974 139.98C118.495 140.365 117.927 140.558 117.273 140.558C116.619 140.558 116.06 140.356 115.606 139.971C115.153 139.576 114.926 139.103 114.926 138.542C114.908 137.92 115.126 137.403 115.571 136.974C116.017 136.553 116.584 136.343 117.273 136.343C117.962 136.343 118.538 136.553 119.001 136.991C119.463 137.421 119.699 137.938 119.699 138.542Z" fill="white"/>
<path d="M125.118 138.542C125.118 139.112 124.873 139.594 124.393 139.98C123.914 140.365 123.346 140.558 122.692 140.558C122.038 140.558 121.479 140.356 121.025 139.971C120.572 139.576 120.345 139.103 120.345 138.542C120.327 137.92 120.545 137.403 120.991 136.974C121.435 136.553 122.003 136.343 122.692 136.343C123.381 136.343 123.957 136.553 124.42 136.991C124.882 137.421 125.118 137.938 125.118 138.542Z" fill="white"/>
<path d="M302.743 129.366L301.916 129.651L304.756 137.937L305.583 137.652L302.743 129.366Z" fill="white"/>
<path d="M229.808 144.345H222.827V145.221H229.808V144.345Z" fill="white"/>
<path d="M237.137 168.987C237.137 169.556 236.893 170.038 236.413 170.424C235.933 170.81 235.366 171.002 234.712 171.002C234.057 171.002 233.499 170.801 233.045 170.415C232.591 170.021 232.364 169.548 232.364 168.987C232.347 168.365 232.565 167.848 233.01 167.418C233.455 166.997 234.022 166.787 234.712 166.787C235.401 166.787 235.977 166.997 236.439 167.436C236.902 167.865 237.137 168.382 237.137 168.987Z" fill="white"/>
<path d="M115.684 158.716H91.5664V162.8H115.684V158.716Z" fill="white"/>
<path d="M212.251 115.767H217.451V83.5781H212.251V82.9209H239.047V92.8148H238.532C238.123 91.5881 237.686 90.5187 237.224 89.5898C236.752 88.6699 236.194 87.8811 235.54 87.2413C234.885 86.6015 234.1 86.1195 233.201 85.8041C232.294 85.4886 231.203 85.3308 229.92 85.3308H222.146V96.3641H225.191C226.221 96.3641 227.093 96.2677 227.817 96.0838C228.533 95.8996 229.153 95.5404 229.667 95.0233C230.182 94.5063 230.618 93.7964 230.976 92.9025C231.334 92.0087 231.683 92.6134 232.032 91.1936L232.547 89.4409V105.829H232.032C231.814 104.917 231.587 104.041 231.351 103.191C231.116 102.341 230.793 101.587 230.365 100.93C229.946 100.273 229.379 99.747 228.681 99.3525C227.974 98.9582 227.067 98.7653 225.942 98.7653H222.146V113.996H231.002C232.721 113.996 234.152 113.628 235.287 112.892C236.43 112.156 237.355 111.28 238.07 110.254C238.786 109.238 239.318 108.177 239.667 107.082C240.007 105.987 240.225 105.075 240.321 104.356L240.836 106.109V116.415H212.26V115.758L212.251 115.767Z" fill="white"/>
<path d="M0 115.591H5.25284V83.4023H0V82.7451H14.8511V83.4023H9.97343V98.3706H9.57205L23.8472 83.4023H18.9347V82.7451H29.6062V83.4023H25.6796L13.6644 96.0658L30.8278 115.591H33.9514V116.248H20.2872V115.591H24.5453L10.3574 99.0278H9.97343V115.591H14.8511V116.248H0V115.591Z" fill="white"/>
</g>
</g>
<defs>
<clipPath id="clip0_877_1145">
<rect width="306" height="174" fill="white"/>
</clipPath>
</defs>
</svg>
