<svg width="120" height="73" viewBox="0 0 120 73" fill="none" xmlns="http://www.w3.org/2000/svg">
<g clip-path="url(#clip0_907_2692)">
<path d="M33.4751 69.7424C33.4751 68.9378 32.9703 68.291 32.0396 68.291H31.235V71.1937H32.0396C32.9387 71.1937 33.4751 70.5469 33.4751 69.7424ZM30.7617 71.6039V67.8809H32.0396C33.1912 67.8809 33.9483 68.6854 33.9483 69.7424C33.9483 70.7993 33.1912 71.6039 32.0396 71.6039H30.7617Z" fill="white"/>
<path d="M35.416 70.1526V67.8652H35.8736V70.1369C35.8736 70.8152 36.2364 71.2569 36.9305 71.2569C37.6246 71.2569 37.9874 70.8309 37.9874 70.1369V67.8652H38.445V70.1369C38.445 71.0676 37.9401 71.6512 36.9305 71.6512C35.9209 71.6512 35.416 71.0518 35.416 70.1369V70.1526Z" fill="white"/>
<path d="M42.3403 70.5469C42.3403 70.1999 42.1037 69.9001 41.6462 69.9001H40.5104V71.1937H41.6462C42.0879 71.1937 42.3403 70.9413 42.3403 70.5469ZM42.2614 68.8905C42.2614 68.5592 42.0405 68.291 41.6146 68.291H40.4946V69.49H41.6146C42.0405 69.49 42.2614 69.2376 42.2614 68.8905ZM40.0371 71.6039V67.8809H41.6935C42.3403 67.8809 42.7347 68.2752 42.7347 68.8274C42.7347 69.3007 42.4192 69.6162 42.0879 69.6792C42.4823 69.7424 42.8136 70.1525 42.8136 70.5942C42.8136 71.1937 42.4192 71.6039 41.7409 71.6039H40.0371Z" fill="white"/>
<path d="M45.6851 68.3541L44.8963 70.3576H46.4739L45.6851 68.3541ZM46.9471 71.6039L46.6158 70.7836H44.7544L44.4232 71.6039H43.8867L45.3853 67.8809H45.969L47.4677 71.6039H46.9314H46.9471Z" fill="white"/>
<path d="M48.6816 71.604V67.8652H49.1391V71.604H48.6816Z" fill="white"/>
<path d="M50.8281 72.314L50.623 72.1405C50.7966 72.03 50.9702 71.8092 50.9859 71.6198C50.9859 71.6198 50.9385 71.6198 50.907 71.6198C50.7492 71.6198 50.6389 71.5094 50.6389 71.3359C50.6389 71.1624 50.765 71.0361 50.9385 71.0361C51.1279 71.0361 51.2856 71.1939 51.2856 71.4621C51.2856 71.8092 51.0805 72.1246 50.8281 72.314Z" fill="white"/>
<path d="M54.7559 69.7429C54.7559 68.5913 55.6078 67.8184 56.6805 67.8184C57.343 67.8184 57.8005 68.1339 58.1002 68.5598L57.7058 68.7806C57.5008 68.4651 57.1064 68.2443 56.6805 68.2443C55.8602 68.2443 55.2449 68.8753 55.2449 69.7587C55.2449 70.6421 55.8602 71.2731 56.6805 71.2731C57.1064 71.2731 57.485 71.0523 57.7058 70.7368L58.1002 70.9576C57.7847 71.3836 57.343 71.6991 56.6805 71.6991C55.6078 71.6991 54.7559 70.9103 54.7559 69.7744V69.7429Z" fill="white"/>
<path d="M61.6028 68.9853C61.6028 68.5593 61.3031 68.2753 60.8614 68.2753H59.8833V69.6952H60.8614C61.3031 69.6952 61.6028 69.3954 61.6028 68.9853ZM61.5713 71.5882L60.6247 70.1053H59.8833V71.5882H59.4258V67.8652H60.9245C61.6028 67.8652 62.0918 68.3069 62.0918 68.9853C62.0918 69.6636 61.6344 70.0265 61.1295 70.0737L62.1392 71.5882H61.587H61.5713Z" fill="white"/>
<path d="M63.5273 71.604V67.8652H65.9725V68.2753H64.0006V69.4901H65.941V69.9002H64.0006V71.178H65.9725V71.604H63.5273Z" fill="white"/>
<path d="M67.4395 71.604V67.8652H69.8846V68.2753H67.8969V69.4901H69.8373V69.9002H67.8969V71.178H69.8846V71.604H67.4395Z" fill="white"/>
<path d="M73.5919 71.604L72.172 69.916L71.8092 70.3419V71.604H71.3359V67.8652H71.8092V69.7898L73.4499 67.8652H74.0335L72.4718 69.6478L74.1597 71.604H73.5919Z" fill="white"/>
<path d="M75.2013 71.0672L75.4695 70.7202C75.7219 70.9883 76.1163 71.2565 76.6369 71.2565C77.2994 71.2565 77.5203 70.8937 77.5203 70.6098C77.5203 69.6474 75.3118 70.1838 75.3118 68.8429C75.3118 68.2277 75.8639 67.8018 76.5895 67.8018C77.1574 67.8018 77.5992 67.991 77.9147 68.3223L77.6307 68.6694C77.3468 68.3538 76.9524 68.2277 76.558 68.2277C76.1163 68.2277 75.785 68.4643 75.785 68.8271C75.785 69.6632 77.9935 69.1899 77.9935 70.5782C77.9935 71.1146 77.6307 71.6667 76.6211 71.6667C75.9743 71.6667 75.5011 71.4142 75.1855 71.0672H75.2013Z" fill="white"/>
<path d="M79.4121 71.604V67.8652H79.8853V71.604H79.4121Z" fill="white"/>
<path d="M84.1759 69.7424C84.1759 68.9378 83.6715 68.291 82.7407 68.291H81.9364V71.1937H82.7407C83.6399 71.1937 84.1759 70.5469 84.1759 69.7424ZM81.4629 71.6039V67.8809H82.7407C83.8921 67.8809 84.6494 68.6854 84.6494 69.7424C84.6494 70.7993 83.8921 71.6039 82.7407 71.6039H81.4629Z" fill="white"/>
<path d="M86.1172 71.604V67.8652H88.5464V68.2753H86.5745V69.4901H88.5148V69.9002H86.5745V71.178H88.5464V71.604H86.1172Z" fill="white"/>
<path d="M60.0563 28.1115C56.365 28.1115 53.904 28.0642 53.904 28.0642L53.3834 26.0765C53.3834 26.0765 56.7436 25.6032 60.0563 25.6032C63.3691 25.6032 66.7293 26.0765 66.7293 26.0765L66.2087 28.0642C66.2087 28.0642 63.7478 28.1115 60.0563 28.1115ZM69.4741 20.6341L69.3322 20.5867C69.1428 20.8707 68.4803 21.4859 67.4865 21.4859L67.4392 21.5805C67.8651 22.0065 67.7705 22.953 67.2498 22.953C66.9186 22.953 66.7766 22.6691 66.7293 22.4325L66.6346 22.3851C66.4926 22.4797 66.1141 22.7637 66.0194 22.8584C66.0194 23.1423 66.0667 23.5209 66.1141 23.7576H66.2087C66.3034 23.5682 66.4926 23.5209 66.5873 23.5209C66.8239 23.5209 67.0133 23.7102 67.0133 23.9942C67.0133 24.4674 66.682 24.8934 66.0194 24.8934C65.3095 24.8934 64.6943 24.5621 64.6943 23.8048C64.6943 23.4263 64.8836 23.0004 65.4042 22.7637V22.6691C65.0255 22.3851 64.6943 21.9118 64.5996 21.6752H64.5049C64.363 21.8645 63.8897 22.2904 63.4638 22.3851V22.4797C63.8424 22.8584 63.8898 23.2369 63.8898 23.4736C63.8898 24.0889 63.3691 24.4674 62.2806 24.4674C61.4761 24.4674 60.6716 24.2308 60.6716 23.4263C60.6716 23.0004 60.9555 22.7637 61.2868 22.7637C61.5235 22.7637 61.8074 22.8584 61.9967 23.1423H62.0913C62.2806 22.9057 62.3753 22.7637 62.7066 22.4797V22.3851C62.5647 22.2904 62.328 22.0065 62.0913 21.6752H61.9967C61.6654 22.0538 61.4288 22.1012 61.1448 22.1012C60.9555 22.1012 60.6716 22.0065 60.6716 21.6752C60.6716 21.2492 61.1922 21.06 61.6181 20.9179V20.8233C60.9083 20.5394 60.2457 19.7822 60.1037 19.3089H60.009C59.867 19.7822 59.2045 20.5394 58.4945 20.8233V20.9179C58.9205 21.06 59.4411 21.2492 59.4411 21.6752C59.4411 22.0065 59.1571 22.1012 58.9679 22.1012C58.684 22.1012 58.4473 22.0538 58.116 21.6752H58.0214C57.7847 22.0065 57.5481 22.2904 57.4061 22.3851V22.4797C57.7373 22.7637 57.832 22.9057 58.0214 23.1423H58.116C58.3053 22.8584 58.5893 22.7637 58.8258 22.7637C59.1571 22.7637 59.4411 23.0004 59.4411 23.4263C59.4411 24.2308 58.6366 24.4674 57.832 24.4674C56.7435 24.4674 56.223 24.0889 56.223 23.4736C56.223 23.2369 56.2703 22.8584 56.6489 22.4797V22.3851C56.223 22.2904 55.7497 21.8645 55.6077 21.6752H55.5131C55.4184 21.9118 55.0871 22.3851 54.7085 22.6691V22.7637C55.2291 23.0004 55.4184 23.4263 55.4184 23.8048C55.4184 24.5621 54.8032 24.8934 54.0933 24.8934C53.4307 24.8934 53.0995 24.4674 53.0995 23.9942C53.0995 23.7102 53.2887 23.5209 53.5254 23.5209C53.62 23.5209 53.8094 23.5682 53.904 23.7576H53.9986C54.046 23.5209 54.0933 23.1423 54.0933 22.8584C53.9986 22.7637 53.62 22.4797 53.4781 22.3851L53.3834 22.4325C53.3361 22.6691 53.1941 22.953 52.8628 22.953C52.3422 22.953 52.2476 22.0065 52.6735 21.5805L52.6262 21.4859C51.6323 21.4859 50.9698 20.8707 50.7805 20.5867L50.6385 20.6341L52.6262 25.1773C52.6262 25.1773 52.2003 25.3666 52.2949 25.6979C52.4842 26.3604 53.0521 27.2124 53.0521 28.2535C53.0521 28.6794 53.0048 28.7268 53.0048 28.916C53.0048 29.1054 53.1468 29.2 53.3361 29.2H66.7924C66.9817 29.2 67.1237 29.1054 67.1237 28.916C67.1237 28.7268 67.0763 28.6794 67.0763 28.2535C67.0763 27.2124 67.6442 26.3604 67.8335 25.6979C67.9282 25.3666 67.5022 25.1773 67.5022 25.1773L69.49 20.6341H69.4741ZM54.0775 4.85878C54.1248 4.95344 54.2668 5.04808 54.3614 5.04808C54.5508 4.85878 54.7401 4.62215 54.7401 4.38552C54.5034 4.43285 54.0775 4.5275 54.0775 4.85878ZM63.2114 2.91842L63.3534 3.01307C63.3534 3.01307 64.2052 2.63447 64.2052 2.01924C64.2052 2.01924 64.2053 1.68795 64.0159 1.49865C63.9213 1.49865 63.9213 1.68795 63.9213 1.7826C63.9213 1.9719 63.7793 2.11388 63.5427 2.11388C63.3534 2.11388 63.0221 1.92458 63.0221 1.59331C63.0221 1.26203 63.1641 1.12005 63.1641 1.02539C63.1641 1.02539 63.1641 0.978073 63.1167 0.978073C62.3595 1.26203 62.3122 1.59329 62.3122 1.82993C62.3122 2.16121 62.4542 2.49249 63.2114 2.91842ZM52.8471 19.2616C55.0714 19.2616 55.024 16.706 55.024 15.8541C55.024 12.0208 56.1599 11.0742 58.8101 9.84373C60.7978 8.89727 62.5962 8.51862 62.5962 6.62561C62.5962 5.96304 62.4069 5.25316 61.6497 5.25316C61.6497 5.25316 61.9336 5.53711 61.9336 6.01037C61.9336 6.19967 61.8862 6.38898 61.7916 6.62561C61.7916 6.4363 61.7443 6.19967 61.6023 6.01037C61.3657 6.38898 61.4131 6.95689 61.271 7.19351C61.271 7.19351 61.1764 7.43014 60.5138 7.76142C60.5138 7.76142 60.4192 7.85608 60.7505 7.85608C60.7505 7.85608 61.555 7.85608 61.8389 7.52479C61.6023 8.18732 61.3184 8.424 60.8924 8.424C60.6558 8.424 60.2772 8.37665 59.9459 8.37665C59.378 8.37665 58.0529 8.66059 57.5324 9.55978C57.1537 10.175 56.0652 10.7429 55.6866 10.7429C55.3553 10.7429 54.8821 9.98578 54.8821 9.65449C54.8821 9.27584 55.5446 9.51251 56.0652 8.99189C56.917 8.14005 57.2483 7.95073 58.1475 7.95073C58.1475 7.95073 58.6681 7.95073 58.1949 7.47747L56.7278 6.10503C56.5385 5.91572 56.3965 5.82108 56.2072 5.82108C56.1125 5.82108 55.9232 5.8684 55.4973 6.247C54.6455 6.34165 54.3142 6.48362 54.0775 6.62561C53.9355 6.72025 53.8409 6.81491 53.7463 6.81491C53.6043 6.81491 53.415 6.0577 53.415 5.91572C53.415 5.53712 53.8409 5.30049 53.8409 5.06385C53.8409 4.92188 53.6989 4.87455 53.6989 4.87455L53.0837 5.15851C53.0837 5.15851 52.7524 4.7799 53.131 4.59059C53.131 4.59059 54.0775 4.07002 55.8759 3.21816C55.9706 3.73874 56.1125 3.83339 56.5385 3.78607L56.3491 3.83339L56.2545 3.97536C56.3965 4.02268 56.6804 3.97537 56.9644 3.88071C57.201 3.78607 57.485 3.78607 57.5324 3.73874C57.5796 3.69142 57.7216 3.54944 57.7216 3.50211C57.627 3.50211 57.343 3.54943 57.1537 3.59676C57.4377 3.40746 57.5796 3.26548 57.5796 3.17083C57.5796 3.1235 57.5324 3.07617 57.5324 3.07617C57.3903 3.07617 57.2957 3.17082 57.1537 3.12349C57.059 3.07617 56.9644 2.98153 56.9644 2.83955C56.9644 2.7449 57.0591 2.65024 57.3904 2.65024H57.627C57.627 2.46094 57.1537 2.36629 56.9644 2.36629C56.7278 2.36629 56.3965 2.46094 56.1126 2.60292C56.1126 2.60292 56.1599 2.22431 56.5858 2.03501C56.8224 1.94036 58.0529 1.79838 59.236 1.79838C60.9398 1.79838 62.2175 3.26548 62.4542 3.26548C62.5488 3.26548 62.6435 3.17082 62.5015 3.07617C61.8863 2.65024 61.5077 2.31896 61.5077 1.89302C61.5077 1.75105 61.5077 0.85187 63.448 0.520587C64.2999 1.23047 64.5839 1.75105 64.5839 2.22431C64.5839 3.02884 63.6846 3.1235 63.59 3.45478C65.8143 3.59677 67.4707 6.53096 67.4707 7.99806C67.4707 10.6483 64.9625 11.7368 63.4007 12.0681C65.6723 10.3644 66.5242 8.66059 66.5242 7.47747C66.5242 5.53712 64.7731 4.4013 64.3472 4.16466C65.341 5.25316 65.5777 6.38897 65.5777 7.24084C65.5777 8.89727 64.5365 9.70176 64.5365 9.70176C64.7259 9.32319 64.7731 8.99189 64.7731 8.70795C64.7731 8.47127 64.7259 8.28203 64.7259 8.28203C63.8267 10.4117 61.7443 11.8788 61.6023 13.6772C61.4603 13.2512 61.413 12.8253 61.413 12.4467C61.413 10.9322 62.3595 9.9857 62.3595 9.9857C60.5139 11.2635 60.0879 12.7306 60.0879 13.8665C60.0879 15.0023 60.5611 15.8541 60.5611 15.8541C60.4665 15.4282 60.5138 14.7183 60.6085 14.1504C60.7977 15.7595 61.6023 17.7472 63.8266 19.0249C59.9459 19.0249 58.3368 14.387 59.9459 11.4529C57.2483 12.1627 56.917 14.9549 56.8698 16.5641C56.6804 15.7121 56.6331 15.0496 56.6331 14.529C56.6331 11.6421 59.0468 10.8849 60.8452 10.0804C63.4954 8.89727 64.5839 7.95073 64.5839 6.247C64.5839 4.44862 62.4542 3.3128 60.8924 3.64408L61.4603 4.21199C61.555 4.30665 61.6969 4.4013 61.6969 4.4013C63.3533 5.25316 63.59 6.19968 63.59 6.76759C63.59 8.28203 61.8862 9.08651 60.6558 9.60714C56.6804 11.3109 55.9706 12.0681 55.9706 14.529C55.9706 16.3274 56.4911 19.1669 54.5981 19.4036C54.7401 19.6402 55.4027 19.7348 55.4027 19.7348C54.8347 20.2081 54.2195 20.3501 53.5096 20.3501C52.847 20.3501 51.5219 20.1608 51.1433 18.741C51.5219 18.9777 52.0425 19.2616 52.8471 19.2616ZM55.8759 8.84992C55.6865 9.03924 55.4973 9.03924 55.4027 9.03924C55.308 8.80257 55.4027 8.47135 55.4027 8.47135C55.5919 8.47135 55.8759 8.61333 55.8759 8.84992ZM55.3553 8.23468C55.166 8.51862 55.024 8.89727 54.4561 8.89727C53.8883 8.89727 53.415 8.47135 53.0363 8.47135C52.8471 8.47135 52.7524 8.51862 52.6578 8.51862C52.5631 8.51862 52.5157 8.47127 52.5157 8.424C52.5157 8.28203 52.7051 8.14005 52.9891 8.14005C53.273 8.14005 53.5096 8.28203 53.9356 8.37665C54.5508 8.56597 54.9294 8.04538 55.166 7.85608C55.45 7.61944 55.6865 7.57213 55.9232 7.57213C56.3965 7.57213 56.7278 7.80875 56.7278 7.80875C56.4911 7.80875 55.9706 8.04538 55.5919 8.28203C55.45 8.23468 55.4027 8.18733 55.3553 8.23468ZM54.3614 6.81491C54.4561 6.76759 54.7874 6.72027 54.7874 6.72027C54.8821 6.90957 54.8821 7.24084 54.8347 7.52479C54.4088 7.52479 54.2668 7.09887 54.3614 6.81491ZM64.9625 2.08233C66.7135 2.46094 66.4769 3.59676 66.8082 4.4013C66.051 3.45478 65.0571 2.83955 65.0571 2.83955C65.1518 2.41362 64.9625 2.08233 64.9625 2.08233ZM67.1868 11.0269C67.1868 13.0146 64.6312 13.2512 64.6312 15.1916C64.6312 15.9488 64.8678 16.4694 64.7259 16.9426C64.7259 16.9426 65.2464 16.3747 65.2937 15.9488C65.2937 17.4159 66.051 19.1196 67.9913 19.1196C68.2753 19.1196 68.7012 19.0723 69.0798 18.8357C69.0798 18.8357 68.9851 20.2081 67.4234 20.2081C65.4357 20.2081 63.6374 18.5517 63.6374 15.4755C63.6374 14.9076 63.732 14.2451 64.0633 13.7718C64.0633 13.7718 63.1167 14.2924 63.0221 15.9488C63.0221 15.9488 62.6435 15.3809 62.6435 14.671C62.6435 12.3047 65.5304 13.1565 67.1868 11.0269ZM66.9974 21.06C68.7485 21.06 69.6477 20.1608 69.6477 18.7884C69.6477 18.3151 69.5058 17.9838 69.5058 17.9838C69.0325 18.3624 68.4646 18.4571 68.1333 18.4571C67.4234 18.4571 66.4769 18.0311 66.4769 16.8954C66.4769 15.4282 68.0387 14.671 68.0387 13.0146C68.0387 12.5413 67.8493 12.3521 67.8493 12.3521C68.5592 11.4055 68.7958 10.5063 68.7958 9.79646C68.7958 8.47135 68.086 7.61946 68.086 7.61946L68.8432 7.99806C68.5119 6.72026 67.802 5.8684 67.802 5.8684C67.802 5.8684 68.1806 6.0577 68.3699 5.96304C67.9913 5.77374 67.4234 5.06386 67.4234 3.78607C67.4234 2.50827 67.1394 1.79839 64.6785 1.37245C64.3946 0.804543 63.732 0.189303 63.4007 0C62.8328 0.283955 61.981 0.615237 61.6969 0.851862C61.6969 0.851862 60.9871 0.899189 60.7031 0.899189C60.2772 0.899189 59.9459 0.757206 59.7567 0.757206C59.1888 0.757206 58.8101 1.32512 58.8101 1.32512C58.8101 1.32512 57.5323 1.37244 56.6331 1.56174C56.1599 1.6564 55.8759 2.03501 55.5447 2.83955L53.2257 4.11735C52.7997 4.35397 52.5157 4.49595 52.5157 4.87455C52.5157 5.06385 52.6578 5.39514 52.9417 5.82108C53.1783 7.24085 53.415 7.47747 53.7463 7.47747C53.8409 7.47747 54.0302 7.43015 54.0302 7.43015C54.1248 7.5248 54.3614 7.9034 54.4088 8.04538C54.0302 8.23468 53.557 7.80875 52.9891 7.80875C52.6578 7.80875 52.1371 7.99806 52.1371 8.56597C52.1371 8.7553 52.2318 8.80257 52.3265 8.80257C52.4684 8.80257 52.6104 8.7553 52.9417 8.7553C53.3676 8.7553 53.6989 9.13387 54.3614 9.13387C54.5981 9.13387 54.7401 9.08651 54.8347 9.13387C54.5034 9.37054 54.3142 9.51251 54.4088 9.84373C54.5508 10.459 55.1187 11.1689 55.4027 11.1689C55.6393 11.1689 56.0652 11.0269 56.0652 11.0269L55.7812 11.2635C53.8882 12.8726 54.3142 14.671 54.3142 16.4694C54.3142 17.8418 53.9355 18.6937 52.8471 18.6937C52.1371 18.6937 51.1433 18.2677 50.3861 17.3212C50.2915 17.6052 50.2441 18.0311 50.2441 18.4097C50.2441 20.0661 51.7586 21.1546 53.273 21.1546C54.5981 21.1546 55.5447 20.7761 56.4911 20.0188C59.1887 19.9715 60.0406 18.1731 60.0406 18.1731C61.3184 20.0188 63.6846 19.8769 64.0633 19.8769C64.8678 20.7287 66.0983 21.06 66.9974 21.06ZM59.1414 17.0373C59.1414 18.5044 57.9109 19.1669 56.6331 19.1669C58.2895 17.3685 57.0117 14.7657 58.6208 13.0619C58.4788 14.5764 59.1414 15.9961 59.1414 17.0373ZM57.3904 4.9061H57.4377C57.6743 5.8053 58.7155 5.89995 58.9521 6.94112L58.9047 6.98844C58.3842 6.23123 57.6743 6.13658 57.3904 5.75797C57.2483 5.56867 57.2483 5.33204 57.3904 4.9061ZM62.2175 26.8811C62.2175 26.8811 61.9336 27.2596 61.8862 27.2596C61.8389 27.2596 61.555 26.9283 61.555 26.8811C61.555 26.7864 61.8389 26.5024 61.8862 26.5024C61.9336 26.5024 62.2175 26.7864 62.2175 26.8811ZM65.8617 26.9757C65.8617 26.9757 65.5776 27.3543 65.5304 27.3543C65.483 27.3543 65.1991 27.023 65.1991 26.9757C65.1991 26.8811 65.483 26.5971 65.5304 26.5971C65.5776 26.5971 65.8617 26.8811 65.8617 26.9757ZM64.6312 27.6383C64.7259 27.6383 64.8205 27.5909 64.8205 27.4489V26.4078C64.8205 26.2658 64.7259 26.2185 64.6312 26.2185C64.0633 26.1711 63.1641 26.1238 62.7854 26.1238C62.6435 26.1238 62.5488 26.2185 62.5488 26.3604V27.4016C62.5488 27.5436 62.6435 27.6383 62.7854 27.6383H64.6312ZM60.9398 27.6856C61.0818 27.6856 61.1764 27.5909 61.1764 27.4489V26.3132C61.1764 26.1711 61.0818 26.0765 60.9398 26.0765H59.1414C58.9994 26.0765 58.9047 26.1711 58.9047 26.3132V27.4489C58.9047 27.5909 58.9994 27.6856 59.1414 27.6856H60.9398ZM57.8636 26.8811C57.8636 26.7864 58.1475 26.5024 58.1949 26.5024C58.2421 26.5024 58.5262 26.7864 58.5262 26.8811C58.5262 26.9283 58.2421 27.2596 58.1949 27.2596C58.1475 27.2596 57.8636 26.9283 57.8636 26.8811ZM54.2195 26.9757C54.2195 26.8811 54.5034 26.5971 54.5508 26.5971C54.5981 26.5971 54.8821 26.8811 54.8821 26.9757C54.8821 27.023 54.5981 27.3543 54.5508 27.3543C54.5034 27.3543 54.2195 27.023 54.2195 26.9757ZM55.4499 27.6383H57.2957C57.4377 27.6383 57.5324 27.5436 57.5324 27.4016V26.3604C57.5324 26.2185 57.4377 26.1238 57.2957 26.1238C56.9171 26.1238 56.0178 26.1711 55.4499 26.2185C55.3553 26.2185 55.2607 26.2658 55.2607 26.4078V27.4489C55.2607 27.5909 55.3553 27.6383 55.4499 27.6383ZM59.5673 26.8811C59.5673 26.7391 59.9459 26.3604 60.0406 26.3604C60.0879 26.3604 60.4665 26.7391 60.4665 26.8811C60.4665 26.9283 60.0879 27.3543 60.0406 27.3543C59.9459 27.3543 59.5673 26.9283 59.5673 26.8811ZM63.2587 26.8811C63.2587 26.7391 63.6374 26.3604 63.732 26.3604C63.7793 26.3604 64.1579 26.7391 64.1579 26.8811C64.1579 26.9283 63.7793 27.3543 63.732 27.3543C63.6374 27.3543 63.2587 26.9283 63.2587 26.8811ZM55.9232 26.8811C55.9232 26.7391 56.3019 26.3604 56.3965 26.3604C56.4438 26.3604 56.8224 26.7391 56.8224 26.8811C56.8224 26.9283 56.4438 27.3543 56.3965 27.3543C56.3019 27.3543 55.9232 26.9283 55.9232 26.8811Z" fill="white"/>
<path d="M118.535 44.1858L114.576 39.6426H111.926V40.0053C112.731 40.0053 112.856 40.1158 112.856 40.7942V44.596C112.856 45.9526 112.573 46.0946 111.91 46.0946V46.4574H114.371V46.0946C113.598 46.0946 113.345 45.9211 113.345 45.1166V40.6364L118.646 46.631H119.04V40.9519C119.04 40.1 119.498 40.0211 119.94 40.0211V39.6583H117.479V40.0211C118.094 40.0211 118.567 40.1474 118.567 40.9519V44.2173L118.535 44.1858Z" fill="white"/>
<path d="M107.523 46.3006C106.262 46.3006 105.678 45.1647 105.678 43.035C105.678 40.9054 106.262 39.7696 107.523 39.7696C108.786 39.7696 109.37 40.9054 109.37 43.035C109.37 45.1647 108.786 46.3006 107.523 46.3006ZM107.523 39.4541C105.693 39.4541 103.816 40.6372 103.816 43.035C103.816 45.4329 105.693 46.6161 107.523 46.6161C109.353 46.6161 111.23 45.4329 111.23 43.035C111.23 40.6372 109.353 39.4541 107.523 39.4541Z" fill="white"/>
<path d="M98.7218 45.5268C98.7218 46.0159 98.5636 46.0631 97.8696 46.0631V46.426H101.277V46.0631C100.583 46.0631 100.425 46.0159 100.425 45.5268V40.3052C100.425 40.0527 100.552 39.9423 100.789 39.9423C101.371 39.9423 102.366 40.4787 102.934 41.5356L103.201 41.441L102.791 39.4375H102.507C102.319 39.5479 102.066 39.6268 101.83 39.6268H97.3336C97.2072 39.6268 97.0969 39.6268 96.9704 39.5795C96.8447 39.5322 96.7499 39.5007 96.655 39.4533H96.3712L95.9609 41.4567L96.2293 41.5514C96.7969 40.4945 97.7909 39.9581 98.3747 39.9581C98.6115 39.9581 98.7372 40.0686 98.7372 40.321V45.5426L98.7218 45.5268Z" fill="white"/>
<path d="M90.5174 45.5279C90.5174 46.017 90.3601 46.0642 89.666 46.0642V46.4271H96.086L96.6066 44.4394H96.2912C95.3449 45.8118 94.7449 46.0642 93.1201 46.0642C92.3636 46.0642 92.2209 45.9381 92.2209 45.591V40.5271C92.2209 40.0381 92.379 39.9908 93.073 39.9908V39.6279H89.666V39.9908C90.3601 39.9908 90.5174 40.0381 90.5174 40.5271V45.5279Z" fill="white"/>
<path d="M84.4439 42.8461H83.8447V40.0066H84.2234C85.6277 40.0066 85.9747 40.8269 85.9747 41.4421C85.9747 42.4833 85.2491 42.8618 84.4439 42.8618V42.8461ZM87.915 45.4017L86.7945 43.6506C86.5107 43.209 86.2585 43.0512 85.9115 43.0354V43.0038C87.0158 42.9407 87.662 42.3728 87.662 41.521C87.662 40.6691 86.8893 39.6279 84.6969 39.6279H81.2891V39.9908C81.9831 39.9908 82.1412 40.0381 82.1412 40.5271V45.5279C82.1412 46.017 81.9831 46.0642 81.2891 46.0642V46.4271H84.6969V46.0642C84.0028 46.0642 83.8447 46.017 83.8447 45.5279V43.1459C84.555 43.1459 84.8072 43.2405 84.9961 43.5875L86.5893 46.4271H88.9245V46.0642C88.5304 46.0642 88.3253 46.017 87.915 45.3702V45.4017Z" fill="white"/>
<path d="M74.3013 44.2974L75.6422 41.442L77.0462 44.2974H74.3013ZM79.4125 45.3385L76.5414 39.8172C76.4151 39.6121 76.3679 39.5332 76.3205 39.5332C76.2259 39.5332 76.005 40.0696 75.1689 40.6374C75.2952 40.6848 75.374 40.8268 75.374 40.9372C75.374 41.0161 75.374 41.0792 75.2635 41.2685L73.544 44.8494C73.1024 45.7803 72.8499 46.0799 72.2031 46.0799V46.4428H74.6641V46.0799C74.0015 46.0799 73.7334 45.8906 73.7334 45.6382C73.7334 45.4805 73.8123 45.2123 74.1277 44.7075H77.2197C77.6456 45.3543 77.7245 45.7014 77.7245 45.8118C77.7245 46.0327 77.5195 46.0957 76.7938 46.0957V46.4586H80.4852V46.0957C79.8857 46.0957 79.7122 45.9695 79.3966 45.3543L79.4125 45.3385Z" fill="white"/>
<path d="M70.9734 44.092C70.374 45.3225 69.4748 46.2532 68.3547 46.2532C67.3293 46.2532 66.1777 45.4645 66.1777 43.035C66.1777 40.7949 67.1085 39.8169 68.4178 39.8169C69.6641 39.8169 70.4213 40.653 70.9734 41.6626H71.2573V39.533H71.0207C70.9103 39.7065 70.6894 39.8169 70.5002 39.8169C70.1058 39.8169 69.2539 39.4541 68.2601 39.4541C65.8465 39.4541 64.332 41.0474 64.332 43.1613C64.332 45.0543 65.878 46.6318 68.0708 46.6318C69.317 46.6318 70.2004 46.1743 70.5002 46.1743C70.7368 46.1743 70.8945 46.3321 71.0207 46.6318H71.2573V44.1078H70.9734V44.092Z" fill="white"/>
<path d="M50.0065 46.4271H55.9223L56.6322 44.3763H56.3482C55.3544 45.7015 54.7549 46.1116 53.7769 46.1116H52.1047L56.3956 39.8173V39.6279H50.5587L49.9277 41.5367H50.1643C50.9373 40.5114 51.7576 39.9908 52.6726 39.9908H54.2344L49.975 46.1905V46.4271H50.0065Z" fill="white"/>
<path d="M44.7548 45.5268C44.7548 46.0159 44.597 46.0631 43.903 46.0631V46.426H47.3104V46.0631C46.6163 46.0631 46.4585 46.0159 46.4585 45.5268V40.3052C46.4585 40.0527 46.5847 39.9423 46.8214 39.9423C47.405 39.9423 48.3988 40.4787 48.9668 41.5356L49.2349 41.441L48.8248 39.4375H48.5409C48.3515 39.5479 48.0991 39.6268 47.8625 39.6268H43.3666C43.2404 39.6268 43.1299 39.6268 43.0037 39.5795C42.8775 39.5322 42.7829 39.5007 42.6883 39.4533H42.4043L41.9941 41.4567L42.2623 41.5514C42.8302 40.4945 43.8241 39.9581 44.4078 39.9581C44.6444 39.9581 44.7706 40.0686 44.7706 40.321V45.5426L44.7548 45.5268Z" fill="white"/>
<path d="M38.5863 45.5279C38.5863 46.017 38.4285 46.0642 37.7344 46.0642V46.4271H41.1419V46.0642C40.4478 46.0642 40.29 46.017 40.29 45.5279V40.5271C40.29 40.0381 40.4478 39.9908 41.1419 39.9908V39.6279H37.7344V39.9908C38.4285 39.9908 38.5863 40.0381 38.5863 40.5271V45.5279Z" fill="white"/>
<path d="M32.3542 42.8461H31.7548V40.0066H32.1335C33.5375 40.0066 33.8845 40.8269 33.8845 41.4421C33.8845 42.4833 33.1588 42.8618 32.3542 42.8618V42.8461ZM35.8248 45.4017L34.7048 43.6506C34.4208 43.209 34.1684 43.0512 33.8214 43.0354V43.0038C34.9257 42.9407 35.5724 42.3728 35.5724 41.521C35.5724 40.6691 34.7994 39.6279 32.6067 39.6279H29.1992V39.9908C29.8933 39.9908 30.0511 40.0381 30.0511 40.5271V45.5279C30.0511 46.017 29.8933 46.0642 29.1992 46.0642V46.4271H32.6067V46.0642C31.9125 46.0642 31.7548 46.017 31.7548 45.5279V43.1459C32.4648 43.1459 32.7171 43.2405 32.9064 43.5875L34.4997 46.4271H36.8345V46.0642C36.4401 46.0642 36.2349 46.017 35.8248 45.3702V45.4017Z" fill="white"/>
<path d="M18.3948 45.5279C18.3948 46.017 18.237 46.0642 17.543 46.0642V46.4271H23.8215L24.3578 44.4394H24.0423C23.2693 45.7014 22.5122 46.0642 21.1397 46.0642C20.2247 46.0642 20.1143 45.9381 20.1143 45.6541V43.0827H20.5718C21.8022 43.0827 22.3544 43.414 22.5595 44.3763H22.8434V41.3475H22.5595C22.2755 42.3571 21.8338 42.7199 20.5718 42.7199H20.1143V40.4167C20.1143 40.0381 20.2405 39.975 20.7295 39.975C22.2597 39.975 22.9854 40.401 23.9477 41.4895H24.2317L23.5533 39.6279H17.5587V39.9908C18.2528 39.9908 18.4105 40.0381 18.4105 40.5271V45.5279H18.3948Z" fill="white"/>
<path d="M13.8973 45.5279C13.8973 46.017 13.7395 46.0642 13.0453 46.0642V46.4271H16.4529V46.0642C15.7587 46.0642 15.6009 46.017 15.6009 45.5279V40.5271C15.6009 40.0381 15.7587 39.9908 16.4529 39.9908V39.6279H13.0453V39.9908C13.7395 39.9908 13.8973 40.0381 13.8973 40.5271V42.6094H10.4267V40.5271C10.4267 40.0381 10.5844 39.9908 11.2786 39.9908V39.6279H7.87109V39.9908C8.5652 39.9908 8.72299 40.0381 8.72299 40.5271V45.5279C8.72299 46.017 8.5652 46.0642 7.87109 46.0642V46.4271H11.2786V46.0642C10.5844 46.0642 10.4267 46.017 10.4267 45.5279V43.0827H13.8973V45.5279Z" fill="white"/>
<path d="M2.76067 45.5268C2.76067 46.0159 2.60291 46.0631 1.90879 46.0631V46.426H5.31625V46.0631C4.62214 46.0631 4.46438 46.0159 4.46438 45.5268V40.3052C4.46438 40.0527 4.5906 39.9423 4.82723 39.9423C5.41091 39.9423 6.40473 40.4787 6.97264 41.5356L7.24084 41.441L6.83067 39.4375H6.54672C6.35742 39.5479 6.10502 39.6268 5.8684 39.6268H1.37244C1.24624 39.6268 1.13579 39.6268 1.00959 39.5795C0.883386 39.5322 0.788767 39.5007 0.694116 39.4533H0.410124L0 41.4567L0.268152 41.5514C0.836059 40.4945 1.82993 39.9581 2.41361 39.9581C2.65024 39.9581 2.77641 40.0686 2.77641 40.321V45.5426L2.76067 45.5268Z" fill="white"/>
<path d="M58.8262 43.5238H61.0978L62.0601 42.1514H59.7884L58.8262 43.5238Z" fill="white"/>
<path d="M25.7918 53.3995H26.3912C27.1957 53.3995 27.9214 53.0367 27.9214 51.9955C27.9214 51.396 27.5744 50.5757 26.1862 50.5757H25.8075V53.4153L25.7918 53.3995ZM24.1038 51.1121C24.1038 50.6231 23.9461 50.5757 23.252 50.5757V50.2129H26.6594C28.8521 50.2129 29.6094 51.2383 29.6094 52.1059C29.6094 52.9735 28.9468 53.5099 27.8583 53.5888V53.6203C28.2212 53.6203 28.4578 53.7938 28.7417 54.2198L29.8618 55.9551C30.272 56.6019 30.4613 56.6334 30.8714 56.6334V56.9963H28.5367L26.9591 54.1567C26.7698 53.8096 26.5174 53.715 25.8075 53.715V56.0813C25.8075 56.5703 25.9653 56.6177 26.6594 56.6177V56.9805H23.252V56.6177C23.9461 56.6177 24.1038 56.5703 24.1038 56.0813V51.0963V51.1121Z" fill="white"/>
<path d="M32.4026 51.0955C32.4026 50.6065 32.2449 50.5591 31.5508 50.5591V50.1963H37.5453L38.2237 52.0578H37.9397C36.9775 50.9692 36.2518 50.5591 34.7215 50.5591C34.2167 50.5591 34.1064 50.6065 34.1064 51.0009V53.2882H34.548C35.7943 53.2882 36.2518 52.9254 36.52 51.9158H36.8039V54.9288H36.52C36.3149 53.9666 35.7628 53.6353 34.548 53.6353H34.1064V56.2067C34.1064 56.4906 34.2325 56.6168 35.1317 56.6168C36.5042 56.6168 37.2614 56.254 38.0343 54.992H38.3499L37.8293 56.9639H31.5665V56.601C32.2606 56.601 32.4184 56.5537 32.4184 56.0647V51.0797L32.4026 51.0955Z" fill="white"/>
<path d="M43.9652 52.4211C43.5866 51.2222 42.8136 50.3704 41.7093 50.3704C41.1256 50.3704 40.6208 50.6859 40.6208 51.2538C40.6208 52.7367 44.7066 52.2634 44.7066 54.9767C44.7066 56.3018 43.697 57.1695 42.1037 57.1695C40.9363 57.1695 40.4315 56.8067 40.1791 56.8067C39.911 56.8067 39.7532 56.9329 39.6112 57.1695H39.4219V54.6928H39.6586C40.0687 56.1126 40.9995 56.8225 42.0564 56.8225C42.9871 56.8225 43.3815 56.3177 43.3815 55.8128C43.3815 55.3396 43.0186 54.7086 41.4411 54.2195C40.2738 53.8567 39.4219 53.0364 39.4219 52.0268C39.4219 50.7647 40.4946 50.0391 41.7409 50.0391C42.719 50.0391 43.2238 50.4019 43.4762 50.4019C43.6497 50.4019 43.8547 50.2442 43.9652 50.0391H44.2018V52.437H43.9652V52.4211Z" fill="white"/>
<path d="M46.8206 51.0955C46.8206 50.6065 46.6629 50.5591 45.9688 50.5591V50.1963H49.3762V50.5591C48.6821 50.5591 48.5243 50.6065 48.5243 51.0955V56.0804C48.5243 56.5695 48.6821 56.6168 49.3762 56.6168V56.9796H45.9688V56.6168C46.6629 56.6168 46.8206 56.5695 46.8206 56.0804V51.0955Z" fill="white"/>
<path d="M53.116 56.2224C53.116 56.4433 53.1633 56.6168 54.0625 56.6168C55.9871 56.6168 56.697 55.0077 56.697 53.73C56.697 51.3952 55.4034 50.5591 53.9679 50.5591C53.2107 50.5591 53.116 50.7485 53.116 51.1428V56.2382V56.2224ZM51.4281 51.0955C51.4281 50.6065 51.2703 50.5591 50.5762 50.5591V50.1963H54.3623C56.6812 50.1963 58.5584 51.474 58.5584 53.588C58.5584 55.3232 56.9809 56.9796 54.6305 56.9796H50.5762V56.6168C51.2703 56.6168 51.4281 56.5695 51.4281 56.0804V51.0955Z" fill="white"/>
<path d="M59.9925 51.0955C59.9925 50.6065 59.8348 50.5591 59.1406 50.5591V50.1963H65.1352L65.8136 52.0578H65.5296C64.5673 50.9692 63.8417 50.5591 62.3115 50.5591C61.8067 50.5591 61.6962 50.6065 61.6962 51.0009V53.2882H62.138C63.3842 53.2882 63.8416 52.9254 64.1098 51.9158H64.3938V54.9288H64.1098C63.9048 53.9666 63.3526 53.6353 62.138 53.6353H61.6962V56.2067C61.6962 56.4906 61.8224 56.6168 62.7216 56.6168C64.094 56.6168 64.8513 56.254 65.6243 54.992H65.9398L65.4192 56.9639H59.1564V56.601C59.8506 56.601 60.0083 56.5537 60.0083 56.0647V51.0797L59.9925 51.0955Z" fill="white"/>
<path d="M73.4011 51.4744C73.4011 50.6698 72.9437 50.5436 72.3126 50.5436V50.1808H74.7578V50.5436C74.316 50.5436 73.8586 50.6383 73.8586 51.4744V57.1377H73.4642L68.1795 51.1431V55.6075C68.1795 56.412 68.4319 56.5855 69.2049 56.5855V56.9484H66.7598V56.5855C67.4381 56.5855 67.7062 56.4594 67.7062 55.1027V51.3166C67.7062 50.6383 67.5801 50.5279 66.7755 50.5279V50.165H69.4257L73.3853 54.7083V51.4586L73.4011 51.4744Z" fill="white"/>
<path d="M82.2981 54.6456V57.1696H82.0613C81.9357 56.8699 81.7776 56.7121 81.5408 56.7121C81.2416 56.7121 80.358 57.1696 79.1118 57.1696C76.919 57.1696 75.373 55.6079 75.373 53.7148C75.373 51.6168 76.8717 50.0234 79.2852 50.0234C80.2948 50.0234 81.1313 50.3863 81.5254 50.3863C81.7143 50.3863 81.9357 50.2758 82.0459 50.1023H82.2827V52.232H81.9989C81.4622 51.2224 80.6893 50.3863 79.4588 50.3863C78.1337 50.3863 77.2187 51.3801 77.2187 53.6044C77.2187 56.0338 78.3703 56.8226 79.3957 56.8226C80.5157 56.8226 81.4151 55.8918 82.0143 54.6614H82.2981V54.6456Z" fill="white"/>
<path d="M84.3826 51.0955C84.3826 50.6065 84.2253 50.5591 83.5312 50.5591V50.1963H89.5256L90.2042 52.0578H89.9204C88.958 50.9692 88.2323 50.5591 86.7015 50.5591C86.1972 50.5591 86.0869 50.6065 86.0869 51.0009V53.2882H86.528C87.775 53.2882 88.2323 52.9254 88.4999 51.9158H88.7845V54.9288H88.4999C88.2956 53.9666 87.7434 53.6353 86.528 53.6353H86.0869V56.2067C86.0869 56.4906 86.2126 56.6168 87.1118 56.6168C88.4845 56.6168 89.2418 56.254 90.0145 54.992H90.3299L89.8094 56.9639H83.5467V56.601C84.2407 56.601 84.3988 56.5537 84.3988 56.0647V51.0797L84.3826 51.0955Z" fill="white"/>
<path d="M95.9297 52.4211C95.551 51.2222 94.7783 50.3704 93.674 50.3704C93.0902 50.3704 92.5859 50.6859 92.5859 51.2538C92.5859 52.7367 96.6716 52.2634 96.6716 54.9767C96.6716 56.3018 95.6613 57.1695 94.0681 57.1695C92.9013 57.1695 92.3962 56.8067 92.144 56.8067C91.8756 56.8067 91.7175 56.9329 91.5756 57.1695H91.3867V54.6928H91.6235C92.0337 56.1126 92.9637 56.8225 94.021 56.8225C94.9519 56.8225 95.3459 56.3177 95.3459 55.8128C95.3459 55.3396 94.9835 54.7086 93.4056 54.2195C92.2381 53.8567 91.3867 53.0364 91.3867 52.0268C91.3867 50.7647 92.4594 50.0391 93.7056 50.0391C94.6835 50.0391 95.1886 50.4019 95.4408 50.4019C95.6143 50.4019 95.8194 50.2442 95.9297 50.0391H96.1665V52.437H95.9297V52.4211Z" fill="white"/>
</g>
<defs>
<clipPath id="clip0_907_2692">
<rect width="120" height="72.973" fill="white"/>
</clipPath>
</defs>
</svg>
