<svg width="20" height="20" viewBox="0 0 20 20" fill="none" xmlns="http://www.w3.org/2000/svg">
<path d="M7.50932 1.59346V6.97057C7.50932 7.30409 7.23895 7.57447 6.90542 7.57447C6.5719 7.57447 6.30153 7.30409 6.30153 6.97057V1.59346H2.47034C1.91806 1.59346 1.47034 2.04117 1.47034 2.59346V11.1631H6.30153V10.5708C6.30153 10.2373 6.5719 9.96688 6.90542 9.96688C7.23895 9.96688 7.50932 10.2373 7.50932 10.5708V15.344C7.50932 15.6776 7.23895 15.9479 6.90542 15.9479C6.5719 15.9479 6.30153 15.6776 6.30153 15.344V12.3593H1.47034V17.3402C1.47034 17.8925 1.91806 18.3403 2.47034 18.3403H9.92492V16.5518C9.92492 16.2183 10.1953 15.9479 10.5288 15.9479C10.8623 15.9479 11.1327 16.2183 11.1327 16.5518V18.3403H18.3795V16.7582C18.3795 16.3107 18.7422 15.9479 19.1897 15.9479C19.6372 15.9479 20 16.3107 20 16.7582L20 19C20 19.5523 19.5523 20 19 20H1C0.447715 20 0 19.5523 0 19V1C0 0.447715 0.447715 0 1 0H19C19.5523 0 20 0.447716 20 1L20 12.7452C20 13.1927 19.6372 13.5555 19.1897 13.5555C18.7422 13.5555 18.3795 13.1927 18.3795 12.7452V7.57447H11.1327V12.9516C11.1327 13.2851 10.8623 13.5555 10.5288 13.5555C10.1953 13.5555 9.92492 13.2851 9.92492 12.9516V6.37827H18.3795V2.59346C18.3795 2.04117 17.9317 1.59346 17.3795 1.59346H7.50932Z" fill="#161616"/>
</svg>
