<svg width="93" height="88" viewBox="0 0 93 88" fill="none" xmlns="http://www.w3.org/2000/svg">
<path d="M35.8273 3.20996L6.18359 32.913L34.3647 61.1507L60.8584 34.604L47.2459 20.9642L31.046 37.1966" stroke="white" stroke-width="6.17544"/>
<path d="M54.0703 13.3749L60.2312 7.16602L86.9467 34.0901L57.5988 63.6672" stroke="white" stroke-width="6.17544"/>
<g opacity="0.5">
<path d="M11.1813 86.4014C11.4992 86.4014 11.7887 86.3866 12.05 86.3571C12.3113 86.3234 12.5529 86.2749 12.775 86.2117C13.0015 86.1485 13.2148 86.0725 13.4151 85.984C13.6197 85.8913 13.8244 85.7881 14.029 85.6742V83.2651H12.2525C12.2046 83.2651 12.1632 83.2503 12.1284 83.2207C12.0979 83.1912 12.0826 83.1575 12.0826 83.1196V82.7655H14.6365V85.9461C14.4056 86.102 14.1662 86.2412 13.918 86.3634C13.6698 86.4858 13.4042 86.589 13.1212 86.6733C12.8382 86.7534 12.5333 86.8145 12.2067 86.8567C11.8802 86.9031 11.5231 86.9263 11.1356 86.9263C10.4694 86.9263 9.85976 86.8187 9.30676 86.6038C8.75811 86.3845 8.28566 86.0768 7.88942 85.6805C7.49753 85.28 7.19273 84.7974 6.975 84.2325C6.75729 83.6677 6.64844 83.0395 6.64844 82.3482C6.64844 81.6568 6.75729 81.0308 6.975 80.4702C7.19273 79.9052 7.50188 79.4247 7.90248 79.0284C8.30308 78.628 8.78859 78.3202 9.35901 78.1052C9.93378 77.8861 10.576 77.7764 11.2858 77.7764C11.6385 77.7764 11.9629 77.7997 12.259 77.846C12.5595 77.8924 12.8382 77.9619 13.095 78.0546C13.3519 78.1431 13.5915 78.2549 13.8135 78.3898C14.0356 78.5205 14.2489 78.6722 14.4536 78.845L14.2773 79.1233C14.238 79.1865 14.1836 79.2181 14.114 79.2181C14.0748 79.2181 14.0378 79.2097 14.0029 79.1928C13.9376 79.1675 13.8418 79.1085 13.7156 79.0158C13.5936 78.9231 13.426 78.826 13.2126 78.7249C13.0036 78.6238 12.7401 78.5332 12.4223 78.453C12.1044 78.3729 11.7191 78.3329 11.2662 78.3329C10.6653 78.3329 10.1232 78.4256 9.63986 78.6111C9.15653 78.7965 8.74287 79.0622 8.39888 79.4078C8.05924 79.7535 7.79581 80.175 7.60857 80.6724C7.42569 81.1699 7.33424 81.7284 7.33424 82.3482C7.33424 82.9805 7.42786 83.5474 7.6151 84.0492C7.80234 84.5508 8.06359 84.9765 8.39888 85.3264C8.73852 85.6721 9.14347 85.9377 9.61373 86.1232C10.0884 86.3087 10.6109 86.4014 11.1813 86.4014Z" fill="white"/>
<path d="M20.1692 83.8407C20.1692 84.3425 20.1037 84.7851 19.9731 85.1687C19.847 85.5523 19.664 85.8748 19.4245 86.1362C19.1894 86.3974 18.8998 86.5956 18.5558 86.7305C18.2162 86.8612 17.833 86.9266 17.4063 86.9266C17.2104 86.9266 17.0122 86.9118 16.812 86.8823C16.6116 86.8528 16.4048 86.8063 16.1914 86.7431C16.2002 86.6841 16.2066 86.6251 16.2111 86.5661C16.2197 86.5071 16.2263 86.448 16.2306 86.389C16.2393 86.3511 16.2546 86.3174 16.2764 86.2879C16.3025 86.2584 16.346 86.2436 16.407 86.2436C16.4462 86.2436 16.4919 86.2521 16.5442 86.2689C16.6007 86.2816 16.666 86.2963 16.7401 86.3132C16.8184 86.33 16.9055 86.3469 17.0014 86.3637C17.1016 86.3764 17.2168 86.3827 17.3475 86.3827C17.6785 86.3827 17.9767 86.3321 18.2424 86.231C18.508 86.1299 18.7343 85.9759 18.9216 85.7694C19.1089 85.5586 19.2504 85.2951 19.3461 84.9789C19.4463 84.6585 19.4964 84.2833 19.4964 83.8534V77.8779H20.1692V83.8407Z" fill="white"/>
<path d="M26.3029 82.7784V86.8253H25.6367V77.8779H27.9946C29.0613 77.8779 29.8582 78.0781 30.3851 78.4786C30.9119 78.8749 31.1754 79.4587 31.1754 80.2301C31.1754 80.5716 31.1144 80.8836 30.9926 81.166C30.8706 81.4485 30.6942 81.6971 30.4635 81.9122C30.2371 82.1229 29.9627 82.2979 29.6405 82.4369C29.3182 82.5719 28.9547 82.6604 28.5497 82.7026C28.6543 82.7658 28.7479 82.8501 28.8306 82.9555L32.0115 86.8253H31.4302C31.3604 86.8253 31.2995 86.8127 31.2473 86.7874C31.1994 86.7621 31.1515 86.7199 31.1035 86.6609L28.1448 83.0314C28.0708 82.9387 27.9903 82.8734 27.9032 82.8353C27.8204 82.7974 27.6898 82.7784 27.5112 82.7784H26.3029ZM26.3029 82.2979H27.9096C28.3189 82.2979 28.6847 82.2515 29.0069 82.1588C29.3336 82.0618 29.6078 81.9248 29.83 81.7477C30.0563 81.5707 30.2284 81.3578 30.3459 81.1091C30.4635 80.8604 30.5223 80.58 30.5223 80.2681C30.5223 79.6316 30.3067 79.1594 29.8756 78.8516C29.4445 78.544 28.8175 78.3901 27.9946 78.3901H26.3029V82.2979Z" fill="white"/>
<path d="M35.8194 80.4326C36.1852 80.4326 36.5226 80.4937 36.8317 80.6159C37.1453 80.7383 37.4152 80.9174 37.6417 81.1535C37.8724 81.3853 38.051 81.6719 38.1773 82.0134C38.3079 82.3549 38.3732 82.7469 38.3732 83.1895C38.3732 83.2823 38.3579 83.3455 38.3274 83.3793C38.3013 83.413 38.2578 83.4298 38.1968 83.4298H33.5006V83.5499C33.5006 84.0222 33.5573 84.4374 33.6704 84.7957C33.7836 85.154 33.9448 85.4554 34.1538 85.6999C34.3628 85.9402 34.6154 86.1214 34.9115 86.2437C35.2076 86.3659 35.5385 86.427 35.9043 86.427C36.2308 86.427 36.5138 86.3933 36.7533 86.3259C36.9929 86.2543 37.1932 86.1763 37.3542 86.0919C37.5197 86.0034 37.6503 85.9254 37.7462 85.858C37.8419 85.7864 37.9116 85.7504 37.9551 85.7504C38.0118 85.7504 38.0553 85.7716 38.0857 85.8138L38.2556 86.016C38.151 86.1426 38.0118 86.2606 37.8376 86.3701C37.6678 86.4797 37.4762 86.5746 37.2628 86.6547C37.0537 86.7306 36.8274 86.7917 36.5836 86.838C36.344 86.8845 36.1024 86.9077 35.8585 86.9077C35.4144 86.9077 35.0094 86.8338 34.6437 86.6863C34.2779 86.5346 33.9643 86.3154 33.7031 86.0287C33.4419 85.742 33.2394 85.3921 33.0958 84.979C32.9564 84.5617 32.8867 84.0854 32.8867 83.5499C32.8867 83.0989 32.952 82.6837 33.0827 82.3043C33.2176 81.9207 33.4092 81.5919 33.6575 81.3178C33.9099 81.0396 34.2169 80.8226 34.5784 80.6665C34.9441 80.5106 35.3578 80.4326 35.8194 80.4326ZM35.8258 80.8815C35.4906 80.8815 35.1902 80.9321 34.9246 81.0333C34.6589 81.1345 34.4281 81.2799 34.2321 81.4697C34.0405 81.6593 33.8838 81.887 33.7619 82.1526C33.6443 82.4181 33.5659 82.7153 33.5268 83.0441H37.8115C37.8115 82.7069 37.7635 82.4054 37.6678 82.1399C37.572 81.8701 37.437 81.6424 37.2628 81.457C37.0886 81.2715 36.8796 81.1303 36.6358 81.0333C36.392 80.9321 36.122 80.8815 35.8258 80.8815Z" fill="white"/>
<path d="M44.1864 86.8249C44.0558 86.8249 43.9752 86.7659 43.9448 86.6479L43.8533 85.8448C43.6748 86.0134 43.4963 86.1652 43.3177 86.3001C43.1435 86.4349 42.9607 86.5488 42.7691 86.6416C42.5775 86.7343 42.3707 86.8038 42.1486 86.8503C41.9265 86.9008 41.6827 86.9261 41.4171 86.9261C41.1949 86.9261 40.9795 86.8945 40.7704 86.8312C40.5614 86.768 40.3763 86.6711 40.2153 86.5404C40.0541 86.4097 39.9235 86.2432 39.8234 86.0408C39.7276 85.8343 39.6797 85.5877 39.6797 85.301C39.6797 85.0355 39.7581 84.7888 39.9148 84.5612C40.0715 84.3336 40.3154 84.1354 40.6464 83.9669C40.9816 83.7982 41.4106 83.6633 41.933 83.5621C42.46 83.4609 43.0913 83.4019 43.8272 83.3851V82.7274C43.8272 82.1457 43.6965 81.6988 43.4353 81.3868C43.1784 81.0708 42.7952 80.9126 42.2858 80.9126C41.9722 80.9126 41.7044 80.9548 41.4824 81.0391C41.2647 81.1235 41.0797 81.2162 40.9271 81.3173C40.7748 81.4186 40.6507 81.5113 40.555 81.5956C40.4591 81.6798 40.3786 81.722 40.3133 81.722C40.2262 81.722 40.1609 81.6841 40.1173 81.6082L40.0062 81.4249C40.3459 81.0961 40.703 80.8473 41.0774 80.6786C41.4519 80.5101 41.8764 80.4258 42.3511 80.4258C42.6994 80.4258 43.0042 80.4806 43.2655 80.5901C43.5267 80.6956 43.7423 80.8494 43.9122 81.0518C44.0863 81.2499 44.2169 81.4923 44.304 81.779C44.3911 82.0613 44.4346 82.3775 44.4346 82.7274V86.8249H44.1864ZM41.5738 86.4898C41.8264 86.4898 42.0571 86.4644 42.2661 86.4139C42.4795 86.3591 42.6755 86.2853 42.8539 86.1926C43.0369 86.0956 43.2067 85.9818 43.3634 85.8512C43.5202 85.7204 43.6748 85.5792 43.8272 85.4275V83.7897C43.2088 83.8066 42.6755 83.8529 42.2269 83.9288C41.7829 84.0006 41.4149 84.0996 41.1232 84.226C40.8357 84.3526 40.6224 84.5043 40.4831 84.6814C40.3481 84.8542 40.2806 85.0524 40.2806 85.2757C40.2806 85.4865 40.3155 85.6698 40.3851 85.8259C40.4591 85.9776 40.555 86.104 40.6725 86.2053C40.7901 86.3022 40.9271 86.3738 41.084 86.4202C41.2407 86.4665 41.404 86.4898 41.5738 86.4898Z" fill="white"/>
<path d="M47.1948 77.625V86.8253H46.5742V77.625H47.1948Z" fill="white"/>
<path d="M57.8747 77.8779V78.4154H53.0087V82.0323H57.0582V82.5572H53.0087V86.2879H57.8747V86.8253H52.3359V77.8779H57.8747Z" fill="white"/>
<path d="M63.3139 81.3115C63.2833 81.3705 63.2355 81.4 63.1702 81.4C63.1223 81.4 63.0591 81.3747 62.9808 81.3242C62.9067 81.2694 62.8066 81.2104 62.6803 81.1472C62.5584 81.0797 62.406 81.0206 62.2231 80.97C62.0445 80.9153 61.8247 80.8879 61.5634 80.8879C61.3283 80.8879 61.1127 80.9216 60.9168 80.989C60.7252 81.0523 60.5597 81.1387 60.4204 81.2483C60.2855 81.3579 60.1787 81.4865 60.1003 81.634C60.0263 81.7774 59.9893 81.9291 59.9893 82.0892C59.9893 82.2874 60.0415 82.4518 60.1461 82.5825C60.2506 82.7132 60.3878 82.8249 60.5576 82.9177C60.7274 83.0104 60.919 83.0905 61.1323 83.1579C61.3501 83.2254 61.5721 83.2929 61.7985 83.3603C62.025 83.4277 62.2449 83.5036 62.4583 83.588C62.676 83.6681 62.8697 83.7692 63.0395 83.8914C63.2094 84.0137 63.3465 84.1633 63.4511 84.3404C63.5556 84.5174 63.6078 84.7325 63.6078 84.9853C63.6078 85.2594 63.5556 85.5144 63.4511 85.7504C63.3509 85.9865 63.2028 86.191 63.0069 86.3638C62.8153 86.5367 62.578 86.6737 62.2949 86.7748C62.0119 86.8761 61.6897 86.9266 61.3283 86.9266C60.871 86.9266 60.477 86.8571 60.1461 86.7179C59.8152 86.5747 59.5191 86.3891 59.2578 86.1615L59.408 85.9465C59.4297 85.9128 59.4537 85.8875 59.4798 85.8707C59.5059 85.8538 59.5431 85.8454 59.5909 85.8454C59.6475 85.8454 59.7172 85.8791 59.8 85.9465C59.8826 86.0139 59.9893 86.0877 60.12 86.1679C60.2549 86.2437 60.4204 86.3154 60.6164 86.3828C60.8166 86.4502 61.0626 86.484 61.3544 86.484C61.6287 86.484 61.8704 86.4481 62.0794 86.3765C62.2885 86.3006 62.4626 86.1995 62.6019 86.0729C62.7413 85.9465 62.8458 85.799 62.9155 85.6303C62.9894 85.4575 63.0264 85.2762 63.0264 85.0866C63.0264 84.8758 62.9742 84.7009 62.8697 84.5617C62.7652 84.4226 62.628 84.3045 62.4583 84.2076C62.2885 84.1106 62.0946 84.0285 61.8769 83.961C61.6636 83.8935 61.4415 83.8261 61.2107 83.7586C60.9843 83.6912 60.7622 83.6175 60.5445 83.5373C60.3311 83.4572 60.1395 83.3561 59.9697 83.2339C59.8 83.1115 59.6628 82.964 59.5583 82.7911C59.4537 82.6142 59.4015 82.3949 59.4015 82.1336C59.4015 81.9102 59.4515 81.6951 59.5517 81.4886C59.6519 81.282 59.7934 81.1008 59.9762 80.9448C60.1635 80.7888 60.3899 80.6644 60.6556 80.5717C60.9211 80.479 61.2194 80.4326 61.5504 80.4326C61.9466 80.4326 62.2971 80.4874 62.6019 80.597C62.9111 80.7067 63.1942 80.8752 63.4511 81.1029L63.3139 81.3115Z" fill="white"/>
<path d="M67.124 86.9268C66.6842 86.9268 66.3402 86.8087 66.092 86.5727C65.8482 86.3366 65.7262 85.972 65.7262 85.4788V81.179H64.7922C64.7443 81.179 64.7051 81.1663 64.6747 81.141C64.6441 81.1158 64.6289 81.0799 64.6289 81.0335V80.7996L65.7393 80.7237L65.896 78.4725C65.9004 78.4346 65.9156 78.4009 65.9418 78.3714C65.9722 78.3419 66.0114 78.3271 66.0593 78.3271H66.3532V80.73H68.3976V81.179H66.3532V85.4472C66.3532 85.62 66.375 85.7697 66.4185 85.8961C66.4664 86.0183 66.5296 86.1195 66.608 86.1997C66.6907 86.2797 66.7865 86.3387 66.8954 86.3767C67.0042 86.4146 67.1217 86.4336 67.248 86.4336C67.4049 86.4336 67.5398 86.4125 67.653 86.3703C67.7662 86.324 67.8641 86.2755 67.9469 86.225C68.0296 86.1702 68.0972 86.1217 68.1494 86.0794C68.2017 86.0331 68.243 86.0099 68.2734 86.0099C68.3083 86.0099 68.3432 86.031 68.378 86.0731L68.5478 86.3387C68.3823 86.5159 68.1712 86.6591 67.9142 86.7687C67.6617 86.8742 67.3983 86.9268 67.124 86.9268Z" fill="white"/>
<path d="M74.1513 86.8249C74.0207 86.8249 73.9401 86.7659 73.9096 86.6479L73.8182 85.8448C73.6396 86.0134 73.4611 86.1652 73.2826 86.3001C73.1085 86.4349 72.9255 86.5488 72.7339 86.6416C72.5423 86.7343 72.3355 86.8038 72.1135 86.8503C71.8914 86.9008 71.6475 86.9261 71.3819 86.9261C71.1599 86.9261 70.9443 86.8945 70.7353 86.8312C70.5263 86.768 70.3413 86.6711 70.1801 86.5404C70.0191 86.4097 69.8885 86.2432 69.7883 86.0408C69.6925 85.8343 69.6445 85.5877 69.6445 85.301C69.6445 85.0355 69.723 84.7888 69.8797 84.5612C70.0364 84.3336 70.2803 84.1354 70.6112 83.9669C70.9465 83.7982 71.3754 83.6633 71.8979 83.5621C72.4248 83.4609 73.0562 83.4019 73.792 83.3851V82.7274C73.792 82.1457 73.6614 81.6988 73.4001 81.3868C73.1432 81.0708 72.7602 80.9126 72.2507 80.9126C71.9371 80.9126 71.6693 80.9548 71.4473 81.0391C71.2296 81.1235 71.0445 81.2162 70.8921 81.3173C70.7397 81.4186 70.6155 81.5113 70.5198 81.5956C70.4239 81.6798 70.3434 81.722 70.2781 81.722C70.191 81.722 70.1257 81.6841 70.0822 81.6082L69.9711 81.4249C70.3108 81.0961 70.6679 80.8473 71.0423 80.6786C71.4168 80.5101 71.8413 80.4258 72.316 80.4258C72.6643 80.4258 72.9691 80.4806 73.2303 80.5901C73.4916 80.6956 73.7072 80.8494 73.877 81.0518C74.0512 81.2499 74.1818 81.4923 74.2689 81.779C74.3559 82.0613 74.3995 82.3775 74.3995 82.7274V86.8249H74.1513ZM71.5387 86.4898C71.7913 86.4898 72.0221 86.4644 72.231 86.4139C72.4444 86.3591 72.6403 86.2853 72.8189 86.1926C73.0017 86.0956 73.1716 85.9818 73.3283 85.8512C73.4851 85.7204 73.6396 85.5792 73.792 85.4275V83.7897C73.1738 83.8066 72.6403 83.8529 72.1919 83.9288C71.7477 84.0006 71.3797 84.0996 71.088 84.226C70.8006 84.3526 70.5873 84.5043 70.4479 84.6814C70.313 84.8542 70.2454 85.0524 70.2454 85.2757C70.2454 85.4865 70.2803 85.6698 70.35 85.8259C70.4241 85.9776 70.5198 86.104 70.6373 86.2053C70.7549 86.3022 70.8921 86.3738 71.0488 86.4202C71.2056 86.4665 71.3688 86.4898 71.5387 86.4898Z" fill="white"/>
<path d="M78.1318 86.9268C77.6919 86.9268 77.3479 86.8087 77.0998 86.5727C76.8559 86.3366 76.734 85.972 76.734 85.4788V81.179H75.8C75.752 81.179 75.7129 81.1663 75.6824 81.141C75.6519 81.1158 75.6367 81.0799 75.6367 81.0335V80.7996L76.747 80.7237L76.9038 78.4725C76.9082 78.4346 76.9234 78.4009 76.9495 78.3714C76.98 78.3419 77.0191 78.3271 77.0671 78.3271H77.361V80.73H79.4053V81.179H77.361V85.4472C77.361 85.62 77.3828 85.7697 77.4263 85.8961C77.4742 86.0183 77.5374 86.1195 77.6157 86.1997C77.6985 86.2797 77.7942 86.3387 77.9031 86.3767C78.012 86.4146 78.1295 86.4336 78.2558 86.4336C78.4126 86.4336 78.5475 86.4125 78.6608 86.3703C78.774 86.324 78.872 86.2755 78.9547 86.225C79.0375 86.1702 79.1049 86.1217 79.1572 86.0794C79.2094 86.0331 79.2508 86.0099 79.2813 86.0099C79.3161 86.0099 79.3509 86.031 79.3858 86.0731L79.5556 86.3387C79.3901 86.5159 79.179 86.6591 78.9221 86.7687C78.6695 86.8742 78.406 86.9268 78.1318 86.9268Z" fill="white"/>
<path d="M83.4677 80.4326C83.8335 80.4326 84.171 80.4937 84.4802 80.6159C84.7936 80.7383 85.0636 80.9174 85.2901 81.1535C85.5208 81.3853 85.6994 81.6719 85.8256 82.0134C85.9562 82.3549 86.0215 82.7469 86.0215 83.1895C86.0215 83.2823 86.0063 83.3455 85.9759 83.3793C85.9498 83.413 85.9062 83.4298 85.8452 83.4298H81.1491V83.5499C81.1491 84.0222 81.2057 84.4374 81.3189 84.7957C81.4321 85.154 81.5932 85.4554 81.8022 85.6999C82.0112 85.9402 82.2638 86.1214 82.5599 86.2437C82.8559 86.3659 83.1869 86.427 83.5527 86.427C83.8792 86.427 84.1623 86.3933 84.4017 86.3259C84.6412 86.2543 84.8416 86.1763 85.0026 86.0919C85.1681 86.0034 85.2988 85.9254 85.3945 85.858C85.4904 85.7864 85.56 85.7504 85.6035 85.7504C85.6602 85.7504 85.7037 85.7716 85.7342 85.8138L85.904 86.016C85.7995 86.1426 85.6602 86.2606 85.486 86.3701C85.3162 86.4797 85.1246 86.5746 84.9112 86.6547C84.7022 86.7306 84.4758 86.7917 84.2319 86.838C83.9924 86.8845 83.7508 86.9077 83.5069 86.9077C83.0629 86.9077 82.6579 86.8338 82.2921 86.6863C81.9264 86.5346 81.6128 86.3154 81.3515 86.0287C81.0903 85.742 80.8878 85.3921 80.7441 84.979C80.6048 84.5617 80.5352 84.0854 80.5352 83.5499C80.5352 83.0989 80.6005 82.6837 80.7311 82.3043C80.866 81.9207 81.0576 81.5919 81.3058 81.3178C81.5584 81.0396 81.8654 80.8226 82.2268 80.6665C82.5926 80.5106 83.0062 80.4326 83.4677 80.4326ZM83.4743 80.8815C83.1391 80.8815 82.8386 80.9321 82.5729 81.0333C82.3073 81.1345 82.0765 81.2799 81.8806 81.4697C81.689 81.6593 81.5323 81.887 81.4103 82.1526C81.2928 82.4181 81.2144 82.7153 81.1752 83.0441H85.4598C85.4598 82.7069 85.4119 82.4054 85.3162 82.1399C85.2203 81.8701 85.0854 81.6424 84.9112 81.457C84.7371 81.2715 84.528 81.1303 84.2842 81.0333C84.0403 80.9321 83.7704 80.8815 83.4743 80.8815Z" fill="white"/>
</g>
</svg>
