<svg width="50" height="50" viewBox="0 0 50 50" fill="none" xmlns="http://www.w3.org/2000/svg">
<path d="M38.0072 46.7319L37.7984 43.4267C37.718 42.1564 37.2619 40.9556 36.4793 39.9538C36.2558 39.6678 35.843 39.6169 35.5569 39.8406C35.2709 40.064 35.2201 40.4769 35.4436 40.7629C36.0624 41.555 36.423 42.5049 36.4868 43.5095L36.6512 46.1161H13.3471L13.5116 43.5098C13.596 42.1778 14.1952 40.96 15.1987 40.081C15.7937 39.56 16.5141 39.1846 17.2823 38.9951L20.8312 38.118C21.3031 38.0012 21.6327 37.5806 21.6327 37.0954V34.5631C22.771 35.0197 23.9376 35.2667 24.9992 35.2667C26.0465 35.2667 27.1991 35.0254 28.3254 34.5791V37.0849C28.3254 37.5708 28.6546 37.9917 29.1263 38.1085L32.717 38.9953C33.0219 39.0703 33.3223 39.1756 33.6103 39.3085C33.6994 39.3498 33.7931 39.3692 33.8854 39.3692C34.1337 39.3692 34.3714 39.2278 34.4824 38.9875C34.6345 38.658 34.4908 38.2675 34.1613 38.1154C33.7973 37.9473 33.4169 37.8139 33.0314 37.7192L29.6397 36.8814V33.9565C31.5849 32.8769 33.1923 31.2503 34.1922 29.3389C34.3604 29.0174 34.2361 28.6203 33.9145 28.4521C33.5927 28.2836 33.1958 28.4081 33.0276 28.7298C32.0923 30.5179 30.5496 32.0264 28.6841 32.9773C27.4508 33.6062 26.1422 33.9525 24.9993 33.9525C23.8424 33.9525 22.5206 33.5992 21.2763 32.9574C19.4701 32.0283 17.9625 30.5668 17.0309 28.8421C16.8585 28.5228 16.4599 28.4038 16.1405 28.5763C15.8211 28.7488 15.7021 29.1475 15.8746 29.4668C16.8687 31.3073 18.4378 32.881 20.3187 33.9341V36.891L16.9675 37.7192C15.9966 37.9585 15.0855 38.4332 14.333 39.0923C13.0644 40.2036 12.3069 41.7429 12.2001 43.4268L11.9916 46.732C11.9801 46.9131 12.0441 47.091 12.1683 47.2231C12.2924 47.3553 12.4658 47.4304 12.6474 47.4304H37.3514C37.5329 47.4304 37.7062 47.3554 37.8305 47.2231C37.9548 47.0907 38.0187 46.913 38.0072 46.7319Z" fill="#D79970"/>
<path d="M44.3427 12.864C43.9798 12.864 43.6856 13.1581 43.6856 13.5211V26.9991C43.6856 31.6086 38.8087 33.9471 35.9016 34.9308C34.3559 35.454 33.5667 35.1762 33.4134 34.8618C33.322 34.6747 33.4394 34.4249 33.6988 34.2543C34.8181 33.5183 39.3405 30.0756 39.3405 27.9088C39.3405 26.9301 39.2472 25.991 39.169 25.3755C39.1244 25.0247 38.9134 24.7122 38.6045 24.5399C38.2951 24.3672 37.918 24.3519 37.5955 24.4984L34.0866 26.0929C33.8346 26.2075 33.5422 26.1449 33.3592 25.9373C33.2449 25.8077 33.1903 25.6414 33.2055 25.4693C33.2206 25.2972 33.3034 25.143 33.4387 25.0352C34.0646 24.5365 34.5894 24.1422 35.0295 23.8287C35.0346 23.825 35.0401 23.8215 35.045 23.8177C36.0876 23.0768 36.6476 22.798 36.9212 22.6936C36.9341 22.6891 36.947 22.6847 36.9596 22.6793C37.0854 22.6343 37.1393 22.6309 37.1466 22.6307H39.2986C39.6615 22.6307 39.9557 22.3365 39.9557 21.9735V13.8948C39.9557 13.5318 39.6615 13.2377 39.2986 13.2377C38.9356 13.2377 38.6414 13.5318 38.6414 13.8948V21.3163H37.5941C37.7744 20.5455 37.9326 19.5573 37.8871 18.5704C37.8228 17.1731 37.3525 16.1127 36.5208 15.4764C36.4499 13.1551 35.8427 11.2708 34.7136 9.8713C33.9087 8.87365 32.8627 8.14474 31.6019 7.69876C31.1941 5.59155 29.5197 3.71723 27.3152 2.95163C25.4156 2.29204 21.5047 1.92019 16.6545 6.84238C16.3999 7.10086 16.4029 7.51686 16.6614 7.77157C16.9199 8.02638 17.3359 8.02326 17.5906 7.76473C21.9336 3.35739 25.2773 3.6354 26.8838 4.19317C27.3417 4.3522 27.7541 4.56275 28.1219 4.80869C27.7006 4.79528 27.2726 4.83147 26.852 4.91979C25.505 5.20314 24.2028 5.95114 22.8708 7.2067C22.6066 7.45562 22.5943 7.87154 22.8432 8.13568C22.9726 8.27279 23.1468 8.34201 23.3216 8.34201C23.4832 8.34201 23.6452 8.28271 23.7722 8.1631C24.9232 7.07825 26.0191 6.43803 27.1224 6.20593C28.0704 6.00686 29.0547 6.15415 29.79 6.59819C30.1123 7.16429 30.3025 7.74739 30.3601 8.27083C30.3815 8.46091 30.387 8.64732 30.3763 8.82544C30.3621 9.06911 30.3183 9.31623 30.245 9.56662C30.0146 10.3541 29.4925 11.174 28.6841 12.0204C28.032 12.7034 27.2678 13.3279 26.5059 13.8797L26.5052 13.8803C24.9501 15.0079 22.9559 16.1452 20.5777 17.2607C18.2856 18.3367 16.292 20.3174 15.2955 22.4535C14.3783 21.8314 13.8047 21.5498 13.4342 21.4222C13.0841 18.173 13.2883 13.6604 15.9602 9.74419C16.1647 9.44443 16.0875 9.0356 15.7877 8.83107C15.4879 8.62646 15.0791 8.70372 14.8746 9.00357C12.0472 13.1476 11.765 17.8613 12.102 21.3162H11.3583V13.8947C11.3583 13.5317 11.0641 13.2376 10.7012 13.2376C10.3383 13.2376 10.0441 13.5317 10.0441 13.8947V21.9734C10.0441 22.3365 10.3383 22.6306 10.7012 22.6306H12.8524C12.8765 22.6311 13.3698 22.6631 15.1951 23.9906C15.202 23.9958 15.209 24.0009 15.2161 24.0059C15.6029 24.2877 16.0476 24.6259 16.5613 25.0351C16.6964 25.1429 16.7793 25.2969 16.7945 25.4691C16.8096 25.6412 16.755 25.8074 16.6407 25.9372C16.4577 26.1447 16.1653 26.2073 15.9134 26.0928L12.4045 24.4983C12.0819 24.3517 11.7048 24.3672 11.3954 24.5397C11.0864 24.7121 10.8754 25.0244 10.8309 25.3754C10.7526 25.9908 10.6594 26.93 10.6594 27.9086C10.6594 30.0754 15.1816 33.5181 16.3011 34.2541C16.5605 34.4246 16.6777 34.6745 16.5865 34.8615C16.4331 35.1758 15.6438 35.4536 14.0982 34.9306C11.1912 33.9469 6.31427 31.6084 6.31427 26.999V13.5213C6.31427 13.1583 6.02005 12.8642 5.65713 12.8642C5.29422 12.8642 5 13.1583 5 13.5213V26.9992C5 29.3627 6.03923 31.4416 8.08907 33.1782C9.88696 34.7015 12.1202 35.649 13.677 36.1759C14.4255 36.4292 15.0674 36.5362 15.6087 36.5362C16.7747 36.5361 17.4743 36.0395 17.7677 35.4383C18.1513 34.652 17.8384 33.6922 17.0232 33.1562C16.2318 32.6359 14.9355 31.6188 13.8234 30.5202C12.4597 29.1726 11.9738 28.2877 11.9738 27.909C11.9738 27.1283 12.0381 26.3698 12.1028 25.8051L15.3697 27.2897C16.1516 27.6447 17.0588 27.4508 17.6267 26.8065C17.9814 26.4041 18.1508 25.8883 18.1038 25.3541C18.0568 24.8199 17.7999 24.3416 17.3804 24.0074C17.0202 23.7204 16.6906 23.4658 16.3857 23.2367C17.207 21.3079 19.0605 19.4254 21.1362 18.4508C23.4483 17.3665 25.4163 16.2562 26.9928 15.1474C31.446 16.79 33.0447 20.1461 33.8825 23.037C33.5063 23.314 33.0882 23.634 32.6195 24.0074C32.1999 24.3416 31.943 24.8199 31.896 25.3542C31.8489 25.8883 32.0184 26.4041 32.3731 26.8065C32.9409 27.4508 33.8481 27.6447 34.6301 27.2897L37.8969 25.8052C37.9615 26.3698 38.0259 27.1285 38.0259 27.9091C38.0259 28.2878 37.54 29.1727 36.1762 30.5203C35.0642 31.619 33.768 32.636 32.9764 33.1564C32.1613 33.6923 31.8484 34.6521 32.232 35.4384C32.5255 36.0397 33.2248 36.5364 34.391 36.5364C34.9323 36.5364 35.5744 36.4293 36.3227 36.1761C37.8796 35.6493 40.1128 34.7015 41.9107 33.1783C43.9606 31.4419 44.9998 29.3629 44.9998 26.9994V13.5214C44.9999 13.1582 44.7056 12.864 44.3427 12.864ZM28.2178 14.2229C29.8014 12.931 31.4374 11.1683 31.6682 9.13935C34.0279 10.2093 34.8902 12.4247 35.1331 14.5079L34.8782 14.3285C34.5815 14.1196 34.1715 14.1907 33.9626 14.4874C33.7536 14.7841 33.8246 15.194 34.1213 15.4031L35.4918 16.3685C35.4993 16.3738 35.5074 16.3773 35.5149 16.3822C35.5239 16.3879 35.5321 16.3947 35.5415 16.4C36.887 17.1768 36.7326 19.6145 36.1663 21.5872C35.8741 21.7247 35.4992 21.9332 35.0169 22.2463C34.1529 19.4828 32.4553 16.0854 28.2178 14.2229Z" fill="#D79970"/>
</svg>
