<svg width="412" height="412" viewBox="0 0 412 412" fill="none" xmlns="http://www.w3.org/2000/svg">
<g opacity="0.8" clip-path="url(#clip0_1417_56)">
<path d="M120.984 244.162V245.008C120.984 244.733 120.967 244.45 120.984 244.162Z" fill="white"/>
<path d="M240.552 275.254C237.195 266.987 233.872 258.687 230.481 250.387C227.024 241.954 223.633 233.521 220.075 225.155C218.9 222.366 216.483 220.806 213.429 220.573C210.441 220.341 207.923 221.437 206.245 223.927C204.231 226.881 203.324 230.301 201.982 233.554C196.98 245.672 192.113 257.89 187.178 270.041C185.869 273.261 184.526 276.449 183.184 279.735H195.704C197.416 275.386 199.061 271.203 200.706 267.02H224.54C226.218 271.27 227.93 275.552 229.608 279.802H242.364C241.727 278.076 241.156 276.648 240.552 275.254ZM205.104 256.031C207.588 249.59 209.971 243.349 212.589 236.576C215.241 243.282 217.725 249.524 220.276 256.031H205.104Z" fill="white"/>
<path d="M302.586 252.179C302.384 261.707 298.59 269.41 290.87 275.253C280.8 282.889 265.627 282.623 255.422 275.618C249.614 271.634 245.452 266.422 243.27 259.848C239.342 248.162 242.632 236.21 251.696 227.81C256.429 223.395 262.001 220.606 268.413 219.71C280.498 218.05 293.421 222.532 299.699 233.919L299.835 234.208C299.835 234.208 299.726 234.278 299.665 234.317C296.342 236.276 292.612 237.77 288.952 239.596C288.583 239.132 288.284 238.733 287.982 238.301C283.384 231.695 276.871 230.035 269.319 231.263C259.819 232.79 253.072 241.821 254.381 252.71C256.261 268.248 273.044 273.792 283.921 266.156C286.807 264.131 288.654 261.309 289.326 257.458H272.71V247.398C273.313 246.9 274.119 247.099 274.858 247.099H297.349C300.672 247.099 302.653 248.959 302.586 252.179Z" fill="white"/>
<path d="M240.552 275.254C237.195 266.987 233.872 258.687 230.481 250.387C227.024 241.954 223.633 233.521 220.075 225.155C218.9 222.366 216.483 220.806 213.429 220.573C210.441 220.341 207.923 221.437 206.245 223.927C204.231 226.881 203.324 230.301 201.982 233.554C196.98 245.672 192.113 257.89 187.178 270.041C185.869 273.261 184.526 276.449 183.184 279.735H195.704C197.416 275.386 199.061 271.203 200.706 267.02H224.54C226.218 271.27 227.93 275.552 229.608 279.802H242.364C241.727 278.076 241.156 276.648 240.552 275.254ZM205.104 256.031C207.588 249.59 209.971 243.349 212.589 236.576C215.241 243.282 217.725 249.524 220.276 256.031H205.104Z" fill="white"/>
<path d="M178.285 230.022V279.822H166.2V240.158L164.384 244.102L163.273 246.505C160.534 252.462 157.795 258.434 155.056 264.384C154.347 265.911 153.639 267.438 152.927 268.965C151.242 272.574 149.547 276.189 147.855 279.822H139.43C135.506 271.359 131.565 262.87 127.604 254.324L120.984 239.869V244.181C120.967 244.47 120.984 244.752 120.984 245.028V279.822H109V276.9C109 261.894 109 246.92 109.034 231.914C109.034 230.487 109 229.026 109.336 227.631C110.208 223.647 113.498 220.925 117.593 220.56C121.42 220.228 125.146 222.319 126.791 225.905C128.409 229.431 130.02 232.957 131.625 236.482C134.092 241.887 136.553 247.292 139.01 252.697C139.843 254.546 140.678 256.396 141.511 258.245C141.786 258.852 142.058 259.46 142.333 260.068C142.397 260.204 142.461 260.343 142.528 260.479L143.693 263.046L144.931 260.32C145.294 259.702 145.563 259.022 145.835 258.341C145.979 257.973 146.13 257.604 146.294 257.246C147.496 254.656 148.684 252.063 149.873 249.467L150.45 248.205C151.444 246.031 152.434 243.853 153.424 241.675L158.426 230.689C159.124 229.159 159.826 227.631 160.527 226.104C162.575 221.655 166.603 219.796 171.538 220.859C175.432 221.722 178.285 225.54 178.285 230.022Z" fill="white"/>
<path d="M132.55 209.119C129.096 209.076 126.34 206.221 126.403 202.738C126.471 199.365 129.334 196.66 132.792 196.703C136.293 196.769 139.025 199.581 138.958 203.064C138.891 206.46 136.028 209.163 132.55 209.119Z" fill="white"/>
<path d="M162.546 170.581V192.121H129.444C123.905 192.121 121.253 194.744 121.22 200.222V209.086H109.031V201.357C109.031 198.761 109.199 196.171 110.042 193.648C112.089 187.44 116.285 183.423 122.361 181.132C124.812 180.202 127.363 180.003 129.914 180.003H147.873C148.259 180.003 148.652 180.043 149.075 180.003H150.411V179.515C150.411 179.515 150.421 179.508 150.424 179.505C150.424 176.716 150.391 173.762 150.424 170.807C150.458 169.213 150.122 167.752 149.518 166.292C147.772 162.042 143.744 159.851 138.642 160.448C134.714 160.88 131.19 164.366 130.552 168.416C130.451 169.014 130.384 169.612 130.283 170.276H118.232C118.333 165.362 119.743 160.946 122.73 157.128C127.296 151.219 133.472 148.164 140.925 148.264C148.075 148.364 153.882 151.584 158.145 157.294C161.069 161.215 162.546 165.634 162.546 170.581Z" fill="white"/>
<path d="M298.56 156.929C293.256 149.891 283.487 146.571 275.129 148.961C269.524 150.575 265.102 153.978 262.289 158.34C262.158 158.539 262.034 158.738 261.91 158.941C261.853 159.037 261.796 159.134 261.739 159.23C258.711 164.462 257.922 170.923 260.057 177.29C260.077 177.354 260.101 177.417 260.124 177.48C260.416 178.286 260.752 179.073 261.134 179.837H180.231V131H168.281V192.021H281.104C284.538 192.021 287.738 191.171 290.718 189.677C290.798 189.637 290.879 189.598 290.959 189.555C291.624 189.213 292.275 188.841 292.92 188.436C293.024 188.369 293.128 188.303 293.229 188.233C296.995 185.783 299.725 182.363 301.323 178.522C301.39 178.36 301.457 178.197 301.52 178.034C301.567 177.915 301.615 177.795 301.654 177.676C301.712 177.536 301.762 177.393 301.809 177.247C301.87 177.075 301.926 176.902 301.984 176.729C301.984 176.723 301.991 176.716 301.991 176.706C302.055 176.497 302.117 176.288 302.178 176.079C302.36 175.435 302.51 174.784 302.635 174.127C302.676 173.907 302.712 173.688 302.746 173.466C302.806 173.084 302.853 172.702 302.89 172.317C303.421 167.045 302.038 161.54 298.56 156.929ZM271.268 169.877C271.37 164.698 275.766 160.548 281.07 160.614C286.441 160.714 290.637 165.03 290.537 170.375C290.437 175.587 286.039 179.737 280.701 179.671C275.397 179.604 271.168 175.222 271.268 169.877Z" fill="white"/>
</g>
<defs>
<clipPath id="clip0_1417_56">
<rect width="194" height="150" fill="white" transform="translate(109 131)"/>
</clipPath>
</defs>
</svg>
