<svg width="120" height="42" viewBox="0 0 120 42" fill="none" xmlns="http://www.w3.org/2000/svg">
<g clip-path="url(#clip0_1023_51)">
<path fill-rule="evenodd" clip-rule="evenodd" d="M81.7376 0.0164301C81.3086 0.0286917 79.5691 0.0886985 77.8724 0.149718C76.1755 0.210809 73.782 0.277167 72.5532 0.297291C71.3245 0.317414 70.0558 0.351892 69.7341 0.37389L69.1489 0.413991V20.9527V41.4915L70.9043 41.5421C71.8697 41.57 73.6808 41.6398 74.9291 41.6975C78.4906 41.8618 81.9816 41.9077 83.3688 41.8085C89.1485 41.3952 93.667 39.6029 97.2019 36.3215C100.607 33.1615 102.612 28.7842 103.15 23.3373C103.459 20.2213 103.317 16.8007 102.764 13.9608C101.676 8.3799 99.0186 4.69529 94.3907 2.35507C91.0554 0.668598 86.7514 -0.126886 81.7376 0.0164301ZM112.163 0.041818C110.421 0.220909 108.723 1.03363 107.51 2.26808C106.901 2.88751 106.531 3.43719 106.242 4.15073C105.53 5.9045 105.602 8.34744 106.416 10.0911C106.957 11.2527 107.84 12.1412 109.043 12.7367C109.913 13.1673 110.62 13.3575 111.761 13.4672C114.233 13.7048 116.585 12.9375 118.179 11.3729C119.42 10.1557 120 8.64676 120 6.63998C120 4.05185 118.943 2.01312 117.021 0.891686C115.927 0.253508 113.772 -0.123641 112.163 0.041818ZM0 20.9211V41.5855H12.8014H25.6028V37.366V33.1466H17.5178H9.43265V16.7017V0.256754H4.71632H0V20.9211ZM18.9141 14.6283C17.6734 22.5324 16.6601 29.0239 16.6624 29.054C16.6647 29.084 18.7006 29.1002 21.1864 29.09L25.7061 29.0714L25.8381 28.0393C25.9107 27.4716 26.2981 24.3234 26.6991 21.043C27.1 17.7627 27.4473 15.16 27.4711 15.2592C27.4947 15.3583 27.5801 15.8289 27.6607 16.305C27.9852 18.2193 28.7458 21.3974 29.6545 24.6356C29.8493 25.3299 31.0471 29.2247 32.3163 33.2909C33.5854 37.357 34.6859 40.887 34.7617 41.1352L34.8996 41.5865L39.4155 41.5679L43.9314 41.5494L44.1676 40.756C44.2975 40.3196 45.5847 35.9703 47.0279 31.091C49.5767 22.4744 49.8407 21.5104 51.0319 16.466C51.2171 15.6818 51.3767 15.0489 51.3867 15.0595C51.3966 15.0701 51.4568 15.5981 51.5205 16.2328C51.6904 17.9278 52.0233 20.6525 52.2657 22.333C52.4306 23.4767 54.9508 40.0805 55.1468 41.315L55.1898 41.5855H60.1127C64.1116 41.5855 65.0354 41.5678 65.0354 41.4913C65.0354 41.4397 63.5834 32.1736 61.8085 20.9001C60.0337 9.62651 58.5816 0.369924 58.5816 0.329749C58.5816 0.281135 56.8051 0.256754 53.2655 0.256754H47.9494L47.7647 0.851801C47.6633 1.17912 46.3552 5.27678 44.858 9.95786C41.5966 20.1545 40.8467 22.6611 40.1756 25.6093C39.9951 26.4027 39.8307 27.1006 39.8103 27.1601C39.79 27.2195 39.6047 26.4244 39.3984 25.3929C39.0255 23.5287 38.5958 21.6964 38.2567 20.5244C38.1591 20.1872 36.701 15.4891 35.0165 10.084L31.9537 0.256754L26.562 0.257046L21.1702 0.257402L18.9141 14.6283ZM113.856 4.47249C114.554 4.81957 114.977 5.5671 115.02 6.5318C115.094 8.20701 114.072 9.32967 112.613 9.1746C111.427 9.04859 110.836 8.37456 110.732 7.02968C110.639 5.82272 111.169 4.81582 112.098 4.43788C112.552 4.2528 113.449 4.27047 113.856 4.47249ZM85.3192 8.25657C89.1351 8.96225 91.293 10.8882 92.4388 14.6106C93.5135 18.1032 93.534 23.119 92.4855 26.3653C91.9273 28.0942 91.1847 29.3464 90.0014 30.5542C88.3142 32.2762 86.2848 33.2476 83.6898 33.5755C82.578 33.716 79.9506 33.6573 78.7766 33.4659L78.5106 33.4224V20.7288V8.03535L81.4716 8.06398C84.1703 8.09009 84.5112 8.10719 85.3192 8.25657Z" fill="white"/>
</g>
<defs>
<clipPath id="clip0_1023_51">
<rect width="120" height="41.8605" fill="white"/>
</clipPath>
</defs>
</svg>
