<svg width="1500" height="1500" viewBox="0 0 1500 1500" fill="none" xmlns="http://www.w3.org/2000/svg">
<rect x="1198.45" y="424.184" width="53.2496" height="264.604" fill="#BFBFBF" stroke="black" stroke-width="0.657402"/>
<rect x="576.54" y="448.176" width="53.2496" height="210.697" fill="#BFBFBF" stroke="black" stroke-width="0.657402"/>
<rect x="1243.47" y="477.102" width="6.24532" height="157.777" stroke="black" stroke-width="0.657402"/>
<rect x="621.579" y="474.473" width="6.24532" height="157.777" stroke="black" stroke-width="0.657402"/>
<rect x="702.751" y="454.754" width="72.9716" height="223.845" fill="#BFBFBF" stroke="black" stroke-width="0.657402"/>
<rect x="670.219" y="454.754" width="32.5414" height="223.845" fill="#BFBFBF" stroke="black" stroke-width="0.657402"/>
<rect x="775.734" y="678.598" width="19.3934" height="105.513" transform="rotate(90 775.734 678.598)" fill="#BFBFBF" stroke="black" stroke-width="0.657402"/>
<rect x="775.734" y="435.36" width="19.3934" height="105.513" transform="rotate(90 775.734 435.36)" fill="#BFBFBF" stroke="black" stroke-width="0.657402"/>
<path d="M758.962 397.556C758.962 413.713 745.865 426.81 729.708 426.81C713.551 426.81 700.454 413.713 700.454 397.556C700.454 381.399 713.551 368.301 729.708 368.301C745.865 368.301 758.962 381.399 758.962 397.556Z" fill="#BFBFBF" stroke="black" stroke-width="0.657402"/>
<path d="M744.174 372.086L729.547 397.725L744.174 423.199" stroke="black" stroke-width="0.657402"/>
<path d="M729.708 397.559H700.125" stroke="black" stroke-width="0.657402"/>
<path d="M302.895 1317.92C302.107 1321.66 301.695 1330.31 306.351 1335.01" stroke="black" stroke-width="0.657402"/>
<path d="M349.245 1317.92C350.033 1321.66 350.446 1330.31 345.79 1335.01" stroke="black" stroke-width="0.657402"/>
<path d="M306.346 1321.7C302.928 1321.7 302.292 1317.54 302.402 1315.46V1285.05C302.238 1277.88 306.675 1263.52 325.74 1263.52C344.804 1263.52 349.68 1277.88 349.735 1285.05V1316.44C349.735 1320.26 347.105 1321.54 345.791 1321.7H306.346Z" stroke="black" stroke-width="0.657402"/>
<rect x="430.594" y="1282.75" width="31.2266" height="22.3517" stroke="black" stroke-width="0.657402"/>
<rect x="412.516" y="1270.26" width="68.0411" height="44.3747" stroke="black" stroke-width="0.657402"/>
<rect x="387.204" y="1262.04" width="117.675" height="71.6569" stroke="black" stroke-width="0.657402"/>
<path d="M130.164 1276.83L241.758 1355.56M242.087 1276.67L130 1355.88" stroke="black" stroke-width="0.657402"/>
<rect x="159.422" y="1224.57" width="88.4206" height="9.53233" stroke="black" stroke-width="0.657402"/>
<rect x="255.391" y="1074.68" width="9.53233" height="166.651" stroke="black" stroke-width="0.657402"/>
<path d="M260 1077.48V1238.87" stroke="black" stroke-width="0.657402"/>
<rect x="139.688" y="942.547" width="78.8883" height="80.5318" stroke="black" stroke-width="0.657402"/>
<rect x="218.587" y="954.708" width="4.60182" height="56.5366" stroke="black" stroke-width="0.657402"/>
<path d="M567.005 1193.01C567.005 1198.64 562.443 1203.2 556.815 1203.2C551.188 1203.2 546.626 1198.64 546.626 1193.01C546.626 1187.39 551.188 1182.82 556.815 1182.82C562.443 1182.82 567.005 1187.39 567.005 1193.01Z" stroke="black" stroke-width="0.657402"/>
<path d="M570.29 1193.01C570.29 1200.46 564.256 1206.49 556.813 1206.49C549.37 1206.49 543.337 1200.46 543.337 1193.01C543.337 1185.57 549.37 1179.54 556.813 1179.54C564.256 1179.54 570.29 1185.57 570.29 1193.01Z" stroke="black" stroke-width="0.657402"/>
<path d="M552.708 1196.13L545.641 1204.19M560.597 1196.79L567.664 1204.19" stroke="black" stroke-width="0.657402"/>
<path d="M560.926 1189.23L567.993 1181.02M552.708 1189.23L545.312 1181.02" stroke="black" stroke-width="0.657402"/>
<path d="M594.619 1193.67C594.619 1196.39 592.412 1198.6 589.689 1198.6C586.966 1198.6 584.758 1196.39 584.758 1193.67C584.758 1190.94 586.966 1188.73 589.689 1188.73C592.412 1188.73 594.619 1190.94 594.619 1193.67Z" stroke="black" stroke-width="0.657402"/>
<path d="M597.567 1193.67C597.567 1198.03 594.035 1201.56 589.678 1201.56C585.322 1201.56 581.79 1198.03 581.79 1193.67C581.79 1189.31 585.322 1185.78 589.678 1185.78C594.035 1185.78 597.567 1189.31 597.567 1193.67Z" stroke="black" stroke-width="0.657402"/>
<path d="M577.19 1157.19C577.19 1162.82 581.752 1167.38 587.38 1167.38C593.008 1167.38 597.57 1162.82 597.57 1157.19C597.57 1151.57 593.008 1147 587.38 1147C581.752 1147 577.19 1151.57 577.19 1157.19Z" stroke="black" stroke-width="0.657402"/>
<path d="M573.905 1157.19C573.905 1164.64 579.939 1170.67 587.382 1170.67C594.825 1170.67 600.859 1164.64 600.859 1157.19C600.859 1149.75 594.825 1143.72 587.382 1143.72C579.939 1143.72 573.905 1149.75 573.905 1157.19Z" stroke="black" stroke-width="0.657402"/>
<path d="M591.488 1160.31L598.555 1168.37M583.599 1160.97L576.532 1168.37" stroke="black" stroke-width="0.657402"/>
<path d="M583.27 1153.41L576.202 1145.2M591.487 1153.41L598.883 1145.2" stroke="black" stroke-width="0.657402"/>
<path d="M549.576 1157.85C549.576 1160.57 551.783 1162.78 554.506 1162.78C557.229 1162.78 559.437 1160.57 559.437 1157.85C559.437 1155.12 557.229 1152.91 554.506 1152.91C551.783 1152.91 549.576 1155.12 549.576 1157.85Z" stroke="black" stroke-width="0.657402"/>
<path d="M546.628 1157.85C546.628 1162.21 550.16 1165.74 554.517 1165.74C558.874 1165.74 562.406 1162.21 562.406 1157.85C562.406 1153.49 558.874 1149.96 554.517 1149.96C550.16 1149.96 546.628 1153.49 546.628 1157.85Z" stroke="black" stroke-width="0.657402"/>
<rect x="539.063" y="1136.48" width="65.0828" height="78.5596" stroke="black" stroke-width="0.657402"/>
<rect x="826.68" y="1076.33" width="80.5318" height="89.078" stroke="black" stroke-width="0.657402"/>
<rect x="822.079" y="1076.33" width="4.60182" height="82.1753" stroke="black" stroke-width="0.657402"/>
<rect x="818.133" y="1081.91" width="3.94441" height="10.5184" stroke="black" stroke-width="0.657402"/>
<path d="M907.204 1078.3H826.508" stroke="black" stroke-width="0.657402"/>
<path d="M828.984 1078.46V1165.57" stroke="black" stroke-width="0.657402"/>
<path d="M828.984 1163.11H907.215" stroke="black" stroke-width="0.657402"/>
<path d="M826.848 1165.41H824.876V1259.41H610.562V1074.36" stroke="black" stroke-width="0.657402"/>
<rect x="271.837" y="421.551" width="166.98" height="263.947" fill="#BFBFBF" stroke="black" stroke-width="0.657402"/>
<rect x="176.844" y="424.516" width="94.9946" height="259.016" fill="#BFBFBF" stroke="black" stroke-width="0.657402"/>
<rect x="1391.06" y="92.8521" width="4.60182" height="200.836" stroke="black" stroke-width="0.657402"/>
<rect x="1382.52" y="103.704" width="8.54623" height="189.989" stroke="black" stroke-width="0.657402"/>
<rect x="1379.88" y="103.704" width="2.62961" height="189.989" stroke="black" stroke-width="0.657402"/>
<rect x="1385.8" y="92.8521" width="5.25922" height="5.25922" stroke="black" stroke-width="0.657402"/>
<rect x="1381.2" y="98.11" width="9.86103" height="5.58792" stroke="black" stroke-width="0.657402"/>
<rect x="1253.66" y="92.8521" width="132.138" height="2.62961" stroke="black" stroke-width="0.657402"/>
<rect x="1056.77" y="92.8521" width="196.892" height="2.62961" stroke="black" stroke-width="0.657402"/>
<rect x="858.891" y="92.8521" width="197.878" height="2.62961" stroke="black" stroke-width="0.657402"/>
<rect x="659.696" y="92.8521" width="199.193" height="2.62961" stroke="black" stroke-width="0.657402"/>
<rect x="1253.66" y="95.485" width="132.138" height="2.62961" stroke="black" stroke-width="0.657402"/>
<rect x="1056.77" y="95.485" width="196.892" height="2.62961" stroke="black" stroke-width="0.657402"/>
<rect x="858.891" y="95.485" width="197.878" height="2.62961" stroke="black" stroke-width="0.657402"/>
<rect x="659.696" y="95.485" width="199.193" height="2.62961" stroke="black" stroke-width="0.657402"/>
<rect x="1391.06" y="283.825" width="4.60182" height="9.86104" stroke="black" stroke-width="0.657402"/>
<rect x="659.696" y="98.11" width="4.93052" height="185.716" stroke="black" stroke-width="0.657402"/>
<rect x="656.751" y="98.11" width="2.95831" height="185.716" stroke="black" stroke-width="0.657402"/>
<rect x="656.751" y="92.8521" width="2.95831" height="5.25922" stroke="black" stroke-width="0.657402"/>
<rect x="651.477" y="95.485" width="5.25922" height="8.21753" stroke="black" stroke-width="0.657402"/>
<rect x="649.188" y="103.704" width="7.56013" height="190.318" stroke="black" stroke-width="0.657402"/>
<rect x="656.743" y="283.825" width="8.21753" height="10.1897" stroke="black" stroke-width="0.657402"/>
<rect x="658.063" y="294.344" width="6.90272" height="32.5414" stroke="black" stroke-width="0.657402"/>
<rect x="564.712" y="294.344" width="93.0224" height="32.5414" fill="black" stroke="black" stroke-width="0.657402"/>
<rect x="651.156" y="327.547" width="559.449" height="20.7081" transform="rotate(90 651.156 327.547)" fill="black" stroke="black" stroke-width="0.657402"/>
<rect x="624.204" y="887.321" width="26.9535" height="19.7221" fill="black" stroke="black" stroke-width="0.657402"/>
<rect x="558.797" y="294.344" width="5.25922" height="32.5414" stroke="black" stroke-width="0.657402"/>
<rect x="462.485" y="294.344" width="95.9807" height="3.61571" stroke="black" stroke-width="0.657402"/>
<rect x="664.962" y="294.344" width="190.647" height="3.61571" stroke="black" stroke-width="0.657402"/>
<rect x="367.485" y="294.344" width="94.6659" height="3.61571" stroke="black" stroke-width="0.657402"/>
<rect x="176.188" y="294.344" width="184.073" height="3.61571" stroke="black" stroke-width="0.657402"/>
<rect x="469.055" y="298.294" width="89.4067" height="28.597" stroke="black" stroke-width="0.657402"/>
<rect x="664.962" y="297.962" width="190.647" height="28.9257" stroke="black" stroke-width="0.657402"/>
<rect x="374.063" y="298.294" width="88.0919" height="28.597" stroke="black" stroke-width="0.657402"/>
<rect x="176.188" y="298.294" width="184.073" height="28.597" stroke="black" stroke-width="0.657402"/>
<rect x="462.485" y="298.294" width="6.24532" height="28.597" stroke="black" stroke-width="0.657402"/>
<rect x="367.485" y="298.294" width="6.24532" height="28.597" stroke="black" stroke-width="0.657402"/>
<rect x="169.61" y="294.344" width="6.24532" height="32.5414" stroke="black" stroke-width="0.657402"/>
<rect x="360.579" y="294.344" width="6.57402" height="32.5414" stroke="black" stroke-width="0.657402"/>
<rect x="855.61" y="294.344" width="6.24532" height="32.5414" stroke="black" stroke-width="0.657402"/>
<rect x="861.86" y="294.344" width="201.494" height="3.28701" stroke="black" stroke-width="0.657402"/>
<rect x="861.86" y="297.633" width="13.4767" height="8.54623" stroke="black" stroke-width="0.657402"/>
<rect x="861.86" y="306.176" width="188.017" height="20.7082" stroke="black" stroke-width="0.657402"/>
<rect x="875.329" y="297.633" width="174.54" height="3.94441" stroke="black" stroke-width="0.657402"/>
<rect x="875.329" y="301.583" width="174.54" height="4.60182" stroke="black" stroke-width="0.657402"/>
<rect x="1049.87" y="297.633" width="13.4767" height="8.54623" stroke="black" stroke-width="0.657402"/>
<rect x="1049.87" y="306.176" width="13.4767" height="8.87493" stroke="black" stroke-width="0.657402"/>
<rect x="1063.35" y="306.176" width="170.596" height="8.87493" stroke="black" stroke-width="0.657402"/>
<rect x="1063.35" y="294.344" width="182.758" height="11.8332" stroke="black" stroke-width="0.657402"/>
<rect x="1233.94" y="306.176" width="12.1619" height="8.87493" stroke="black" stroke-width="0.657402"/>
<rect x="1246.11" y="294.344" width="5.58792" height="32.5414" stroke="black" stroke-width="0.657402"/>
<rect x="1049.87" y="315.051" width="196.235" height="11.8332" stroke="black" stroke-width="0.657402"/>
<rect x="1252.35" y="294.02" width="143.314" height="32.8701" fill="black" stroke="black" stroke-width="0.657402"/>
<rect x="1307.24" y="327.547" width="572.597" height="54.8931" transform="rotate(90 1307.24 327.547)" fill="black" stroke="black" stroke-width="0.657402"/>
<rect x="1221.12" y="900.794" width="86.1197" height="217.6" fill="black" stroke="black" stroke-width="0.657402"/>
<rect x="1171.48" y="1092.43" width="48.9765" height="25.9674" fill="black" stroke="black" stroke-width="0.657402"/>
<rect x="1167.22" y="1092.43" width="3.94441" height="25.9674" stroke="black" stroke-width="0.657402"/>
<rect x="1032.45" y="1092.43" width="134.767" height="25.9674" stroke="black" stroke-width="0.657402"/>
<rect x="1026.53" y="1092.43" width="5.91662" height="25.9674" stroke="black" stroke-width="0.657402"/>
<path d="M1165.73 1092.43V957.5" stroke="black" stroke-width="0.657402"/>
<path d="M619.594 887.322V761.758" stroke="black" stroke-width="0.657402"/>
<path d="M490.75 1074.02V1177.89" stroke="black" stroke-width="0.657402"/>
<path d="M1160.64 1092.43V957.992" stroke="black" stroke-width="0.657402"/>
<path d="M615 886.996V762.09" stroke="black" stroke-width="0.657402"/>
<path d="M484.172 1074.03V1177.57" stroke="black" stroke-width="0.657402"/>
<path d="M1166.72 957.664C1159.81 957.938 1143.61 959.11 1134.01 961.608C1126.45 963.69 1109.19 969.3 1100.65 975.085C1093.63 979.577 1078.1 990.14 1072.05 996.451C1066.85 1001.93 1055.45 1014.79 1051.51 1022.42C1047.34 1029.98 1038.42 1048.09 1036.06 1060.05C1034.63 1065.92 1031.92 1080.6 1032.44 1092.43" stroke="black" stroke-width="0.657402"/>
<path d="M620.586 761.758C614.184 762.013 599.157 763.105 590.257 765.433C583.246 767.372 567.243 772.599 559.318 777.989C552.816 782.175 538.408 792.016 532.8 797.896C527.973 803 517.406 814.985 513.749 822.09C509.888 829.134 501.617 846.008 499.423 857.156C498.102 862.617 495.582 876.297 496.07 887.322" stroke="black" stroke-width="0.657402"/>
<path d="M491.405 1177.89C485.95 1177.68 473.143 1176.78 465.557 1174.85C459.582 1173.25 445.944 1168.93 439.19 1164.47C433.648 1161.01 421.37 1152.86 416.59 1148C412.477 1143.78 403.471 1133.86 400.354 1127.99C397.063 1122.16 390.015 1108.2 388.145 1098.98C387.019 1094.46 384.871 1083.15 385.287 1074.02" stroke="black" stroke-width="0.657402"/>
<rect x="619.922" y="887.321" width="3.61571" height="19.7221" stroke="black" stroke-width="0.657402"/>
<rect x="492.719" y="887.321" width="126.879" height="19.7221" stroke="black" stroke-width="0.657402"/>
<rect x="465.766" y="804.821" width="20.0508" height="84.1475" fill="black" stroke="black" stroke-width="0.657402"/>
<rect x="104.196" y="887.321" width="387.867" height="19.7221" fill="black" stroke="black" stroke-width="0.657402"/>
<rect x="104.196" y="294.344" width="65.0828" height="592.319" fill="black" stroke="black" stroke-width="0.657402"/>
<rect x="104.196" y="907.7" width="28.9257" height="347.437" fill="black" stroke="black" stroke-width="0.657402"/>
<rect x="133.774" y="1051.02" width="249.155" height="23.0091" fill="black" stroke="black" stroke-width="0.657402"/>
<rect x="495.016" y="1051.02" width="156.133" height="23.0091" fill="black" stroke="black" stroke-width="0.657402"/>
<rect x="327.055" y="1028.99" width="20.0508" height="21.3656" fill="black" stroke="black" stroke-width="0.657402"/>
<rect x="327.055" y="907.7" width="20.0508" height="21.3656" fill="black" stroke="black" stroke-width="0.657402"/>
<rect x="505.547" y="1074.68" width="22.023" height="332.317" fill="black" stroke="black" stroke-width="0.657402"/>
<rect x="528.219" y="1295.9" width="53.2496" height="19.3934" fill="black" stroke="black" stroke-width="0.657402"/>
<rect x="581.468" y="1315.95" width="53.2496" height="19.3934" transform="rotate(90 581.468 1315.95)" fill="black" stroke="black" stroke-width="0.657402"/>
<rect x="528.219" y="1355.73" width="406.275" height="51.2774" fill="black" stroke="black" stroke-width="0.657402"/>
<rect x="907.868" y="1092.43" width="26.6248" height="262.632" fill="black" stroke="black" stroke-width="0.657402"/>
<rect x="935.149" y="1092.43" width="90.7215" height="25.9674" fill="black" stroke="black" stroke-width="0.657402"/>
<rect x="907.868" y="1052.33" width="19.7221" height="39.4441" fill="black" stroke="black" stroke-width="0.657402"/>
<rect x="822.079" y="1052.33" width="85.1336" height="23.3378" fill="black" stroke="black" stroke-width="0.657402"/>
<rect x="241.922" y="1334.35" width="262.961" height="72.643" fill="black" stroke="black" stroke-width="0.657402"/>
<rect x="104.196" y="1355.73" width="137.068" height="51.2774" fill="black" stroke="black" stroke-width="0.657402"/>
<rect x="104.196" y="1255.8" width="25.6387" height="99.2677" fill="black" stroke="black" stroke-width="0.657402"/>
<rect x="128.852" y="1255.14" width="136.082" height="21.3656" fill="black" stroke="black" stroke-width="0.657402"/>
<rect x="241.922" y="1277.16" width="23.0091" height="56.5366" fill="black" stroke="black" stroke-width="0.657402"/>
<rect x="159.422" y="1241.99" width="105.513" height="12.4906" fill="black" stroke="black" stroke-width="0.657402"/>
<rect x="383.266" y="1051.02" width="6.24532" height="23.0091" stroke="black" stroke-width="0.657402"/>
<rect x="488.446" y="1051.02" width="5.91662" height="23.0091" stroke="black" stroke-width="0.657402"/>
<rect x="389.508" y="1051.02" width="98.939" height="23.0091" stroke="black" stroke-width="0.657402"/>
<rect x="327.055" y="929.731" width="20.0508" height="98.6104" stroke="black" stroke-width="0.657402"/>
<path d="M347.438 932.027L381.622 966.212C377.459 970.595 364.793 979.36 347.438 979.36" stroke="black" stroke-width="0.657402"/>
<path d="M347.438 1026.7L381.622 992.51C377.459 988.128 364.793 979.362 347.438 979.362" stroke="black" stroke-width="0.657402"/>
<path d="M347.266 1020.28L377.999 989.223" stroke="black" stroke-width="0.657402"/>
<path d="M347.266 939.254L377.506 969.823" stroke="black" stroke-width="0.657402"/>
<path d="M182.757 604.645C181.442 607.438 178.812 614.374 178.812 619.765C178.812 625.155 181.113 631.982 182.264 634.721" stroke="black" stroke-width="0.657402"/>
<path d="M235.188 586.39C238.694 584.528 247.842 581.92 256.389 586.39" stroke="black" stroke-width="0.657402"/>
<path d="M256.219 653.934C252.713 655.797 243.564 658.404 235.018 653.934" stroke="black" stroke-width="0.657402"/>
<path d="M238.634 652.292L235.183 653.935C233.539 653.88 229.299 654.297 225.486 656.4C226.144 651.47 227.327 639.308 226.801 630.104L224.5 620.736L226.144 610.218C226.691 606.164 227.458 595.229 226.144 583.922C227.897 584.689 232.192 586.256 235.347 586.387C235.347 586.65 237.538 587.702 238.634 588.195" stroke="black" stroke-width="0.657402"/>
<path d="M253.092 652.292L256.544 653.935C258.187 653.88 262.428 654.297 266.24 656.4C265.583 651.47 264.4 639.308 264.926 630.104L267.227 620.736L265.583 610.218C265.035 606.164 264.268 595.229 265.583 583.922C263.83 584.689 259.535 586.256 256.379 586.387C256.379 586.65 254.188 587.702 253.092 588.195" stroke="black" stroke-width="0.657402"/>
<path d="M195.57 572.256C196.721 571.708 199.876 570.612 203.295 570.612C206.713 570.612 210.745 569.517 212.334 568.969C214.416 569.517 219.204 570.612 221.702 570.612C224.2 570.612 228.769 571.708 230.741 572.256" stroke="black" stroke-width="0.657402"/>
<path d="M195.406 667.912C196.557 668.46 199.712 669.556 203.131 669.556C206.549 669.556 210.581 670.651 212.17 671.199C214.252 670.651 219.04 669.556 221.538 669.556C224.036 669.556 228.605 668.46 230.577 667.912" stroke="black" stroke-width="0.657402"/>
<path d="M225.156 574.881C226.69 573.95 231.139 571.89 236.661 571.101C242.183 570.312 245.426 569.458 246.357 569.129C246.577 571.868 246.719 578.628 245.536 583.756" stroke="black" stroke-width="0.657402"/>
<path d="M224.992 665.283C226.526 666.214 230.975 668.274 236.497 669.063C242.019 669.852 245.262 670.706 246.193 671.035C246.413 668.296 246.555 661.536 245.372 656.408" stroke="black" stroke-width="0.657402"/>
<path d="M200.504 574.716L195.409 572.251C191.903 571.758 183.971 570.509 180.289 569.457C180.344 578.442 180.782 597.824 182.097 603.478C183.74 610.545 183.905 613.832 183.74 615.804" stroke="black" stroke-width="0.657402"/>
<path d="M200.34 665.444L195.245 667.909C191.739 668.402 183.806 669.651 180.125 670.703C180.18 661.719 180.618 642.336 181.933 636.683C183.576 629.615 183.741 626.328 183.576 624.356" stroke="black" stroke-width="0.657402"/>
<path d="M235.188 454.089C238.694 452.227 247.842 449.619 256.389 454.089" stroke="black" stroke-width="0.657402"/>
<path d="M256.219 521.633C252.713 523.496 243.564 526.104 235.018 521.633" stroke="black" stroke-width="0.657402"/>
<path d="M238.634 519.991L235.183 521.634C233.539 521.58 229.299 521.996 225.486 524.1C226.144 519.169 227.327 507.007 226.801 497.804L224.5 488.436L226.144 477.917C226.691 473.863 227.458 462.928 226.144 451.621C227.897 452.388 232.192 453.955 235.347 454.086C235.347 454.349 237.538 455.401 238.634 455.894" stroke="black" stroke-width="0.657402"/>
<path d="M253.1 519.991L256.552 521.634C258.195 521.58 262.435 521.996 266.248 524.1C265.591 519.169 264.408 507.007 264.933 497.804L267.234 488.436L265.591 477.917C265.043 473.863 264.276 462.928 265.591 451.621C263.838 452.388 259.543 453.955 256.387 454.086C256.387 454.349 254.196 455.401 253.1 455.894" stroke="black" stroke-width="0.657402"/>
<path d="M195.57 439.955C196.721 439.407 199.876 438.311 203.295 438.311C206.713 438.311 210.745 437.216 212.334 436.668C214.416 437.216 219.204 438.311 221.702 438.311C224.2 438.311 228.769 439.407 230.741 439.955" stroke="black" stroke-width="0.657402"/>
<path d="M195.406 535.611C196.557 536.159 199.712 537.255 203.131 537.255C206.549 537.255 210.581 538.351 212.17 538.898C214.252 538.351 219.04 537.255 221.538 537.255C224.036 537.255 228.605 536.159 230.577 535.611" stroke="black" stroke-width="0.657402"/>
<path d="M225.156 442.58C226.69 441.649 231.139 439.589 236.661 438.8C242.183 438.011 245.426 437.157 246.357 436.828C246.577 439.567 246.719 446.328 245.536 451.455" stroke="black" stroke-width="0.657402"/>
<path d="M224.992 532.982C226.526 533.913 230.975 535.973 236.497 536.762C242.019 537.551 245.262 538.406 246.193 538.734C246.413 535.995 246.555 529.235 245.372 524.107" stroke="black" stroke-width="0.657402"/>
<path d="M200.504 442.415L195.409 439.95C191.903 439.457 183.971 438.208 180.289 437.156C180.344 446.141 180.782 465.523 182.097 471.177C183.74 478.244 183.905 481.531 183.74 483.503" stroke="black" stroke-width="0.657402"/>
<path d="M200.34 533.143L195.245 535.608C191.739 536.101 183.806 537.35 180.125 538.402C180.18 529.418 180.618 510.035 181.933 504.382C183.576 497.315 183.741 494.028 183.576 492.055" stroke="black" stroke-width="0.657402"/>
<path d="M211.025 391.313C211.025 395.126 207.934 398.216 204.122 398.216C200.31 398.216 197.219 395.126 197.219 391.313C197.219 387.501 200.31 384.411 204.122 384.411C207.934 384.411 211.025 387.501 211.025 391.313Z" stroke="black" stroke-width="0.657402"/>
<path d="M209.548 715.739C209.548 719.552 206.458 722.642 202.645 722.642C198.833 722.642 195.743 719.552 195.743 715.739C195.743 711.927 198.833 708.837 202.645 708.837C206.458 708.837 209.548 711.927 209.548 715.739Z" stroke="black" stroke-width="0.657402"/>
<path d="M214.302 391.48C214.302 397.203 209.735 401.834 204.112 401.834C198.489 401.834 193.922 397.203 193.922 391.48C193.922 385.756 198.489 381.126 204.112 381.126C209.735 381.126 214.302 385.756 214.302 391.48Z" stroke="black" stroke-width="0.657402"/>
<path d="M212.833 715.902C212.833 721.625 208.266 726.256 202.643 726.256C197.021 726.256 192.454 721.625 192.454 715.902C192.454 710.178 197.021 705.547 202.643 705.547C208.266 705.547 212.833 710.178 212.833 715.902Z" stroke="black" stroke-width="0.657402"/>
<path d="M220.558 391.479C220.558 400.65 213.197 408.078 204.123 408.078C195.049 408.078 187.688 400.65 187.688 391.479C187.688 382.308 195.049 374.879 204.123 374.879C213.197 374.879 220.558 382.308 220.558 391.479Z" stroke="black" stroke-width="0.657402"/>
<path d="M219.074 715.905C219.074 725.075 211.713 732.504 202.639 732.504C193.565 732.504 186.204 725.075 186.204 715.905C186.204 706.734 193.565 699.305 202.639 699.305C211.713 699.305 219.074 706.734 219.074 715.905Z" stroke="black" stroke-width="0.657402"/>
<rect x="178.157" y="365.348" width="52.2635" height="52.5922" stroke="black" stroke-width="0.657402"/>
<path d="M204.445 365.34V418.096M177.984 391.472H230.412" stroke="black" stroke-width="0.657402"/>
<path d="M202.976 689.773V742.53M176.516 715.905H228.943" stroke="black" stroke-width="0.657402"/>
<path d="M561.919 1315.29L527.734 1355.88M527.734 1315.29L561.919 1355.88" stroke="black" stroke-width="0.657402"/>
<rect x="665.946" y="1268.62" width="104.856" height="65.0828" rx="15.449" stroke="black" stroke-width="0.657402"/>
<rect x="671.204" y="1273.87" width="44.3746" height="54.5644" rx="11.1758" stroke="black" stroke-width="0.657402"/>
<rect x="721.172" y="1273.87" width="44.3746" height="54.5644" rx="11.1758" stroke="black" stroke-width="0.657402"/>
<path d="M733.983 1301.16C733.983 1302.07 733.247 1302.8 732.339 1302.8C731.432 1302.8 730.696 1302.07 730.696 1301.16C730.696 1300.25 731.432 1299.52 732.339 1299.52C733.247 1299.52 733.983 1300.25 733.983 1301.16Z" stroke="black" stroke-width="0.657402"/>
<path d="M672.182 1280.45H714.584M671.031 1285.38H715.735M671.031 1290.96H715.735M671.031 1296.06H715.735M671.031 1301.15H715.735M671.031 1306.74H715.735M671.031 1311.84H715.735M671.031 1316.77H715.735M672.675 1322.68H714.091" stroke="black" stroke-width="0.657402"/>
<path d="M1044.61 1171.98L1098.85 1118.57L1153.57 1171.98H1044.61Z" fill="black" stroke="black" stroke-width="0.657402"/>
<path d="M826.681 407.096C827.601 398.023 833.638 387.647 836.542 383.593C829.836 372.155 819.723 370.172 815.505 370.61C805.512 402.823 810.465 419.531 814.19 423.859C817.97 422.052 825.76 416.168 826.681 407.096Z" stroke="black" stroke-width="0.657402"/>
<path d="M896.366 407.15C895.446 398.078 889.409 387.702 886.505 383.648C893.211 372.209 903.324 370.226 907.542 370.664C917.534 402.877 912.582 419.586 908.857 423.914C905.077 422.106 897.286 416.222 896.366 407.15Z" stroke="black" stroke-width="0.657402"/>
<path d="M836.539 383.592C843.99 380.908 864.413 377.15 886.502 383.592" stroke="black" stroke-width="0.657402"/>
<path d="M815.5 370.937C817.805 360.638 830.351 340.039 862.094 340.039C893.838 340.039 905.615 360.638 907.536 370.937" stroke="black" stroke-width="0.657402"/>
<path d="M814.023 423.691C814.407 425.773 815.24 431.054 815.503 435.525C815.831 441.113 821.419 453.932 862.507 453.932C895.377 453.932 905.676 444.18 906.717 439.305C907.429 437.113 908.854 430.923 908.854 423.691" stroke="black" stroke-width="0.657402"/>
<path d="M820.108 444.395C819.286 445.217 817.939 447.091 819.122 448.011C820.305 448.931 821.916 447.299 822.573 446.368M900.476 446.532C901.462 447.518 903.73 449.194 904.913 448.011C906.096 446.828 904.639 444.779 903.763 443.902" stroke="black" stroke-width="0.657402"/>
<path d="M955.821 407.42C956.742 398.348 962.779 387.972 965.682 383.918C958.977 372.479 948.864 370.496 944.646 370.934C934.653 403.147 939.606 419.856 943.331 424.184C947.111 422.376 954.901 416.492 955.821 407.42Z" stroke="black" stroke-width="0.657402"/>
<path d="M1025.51 407.475C1024.59 398.402 1018.55 388.026 1015.65 383.972C1022.35 372.534 1032.46 370.55 1036.68 370.989C1046.68 403.201 1041.72 419.91 1038 424.238C1034.22 422.43 1026.43 416.547 1025.51 407.475Z" stroke="black" stroke-width="0.657402"/>
<path d="M965.68 383.917C973.13 381.232 993.554 377.474 1015.64 383.917" stroke="black" stroke-width="0.657402"/>
<path d="M944.641 371.261C946.946 360.962 959.492 340.363 991.235 340.363C1022.98 340.363 1034.76 360.962 1036.68 371.261" stroke="black" stroke-width="0.657402"/>
<path d="M943.164 424.016C943.548 426.097 944.38 431.379 944.643 435.849C944.972 441.437 950.56 454.256 991.647 454.256C1024.52 454.256 1034.82 444.505 1035.86 439.629C1036.57 437.438 1037.99 431.247 1037.99 424.016" stroke="black" stroke-width="0.657402"/>
<path d="M949.249 444.72C948.427 445.541 947.079 447.415 948.263 448.335C949.446 449.256 951.057 447.623 951.714 446.692M1029.62 446.856C1030.6 447.842 1032.87 449.519 1034.05 448.335C1035.24 447.152 1033.78 445.103 1032.9 444.227" stroke="black" stroke-width="0.657402"/>
<path d="M1035.57 717.553H1006.64V775.076H1039.35C1054.6 775.076 1058.08 765.324 1057.92 760.448V727.743C1057.92 719.196 1043.02 717.389 1035.57 717.553Z" stroke="black" stroke-width="0.657402"/>
<path d="M1019.78 717.389C1019.56 714.924 1021.49 709.994 1030.96 709.994C1040.42 709.994 1048.71 709.994 1051.67 709.994C1059.12 709.172 1074.02 715.483 1074.02 747.301C1074.02 779.119 1060.54 784.554 1053.8 783.294H1030.96C1027.23 783.458 1019.78 782.012 1019.78 774.912" stroke="black" stroke-width="0.657402"/>
<path d="M1053.8 769.812C1056.82 771.018 1063.5 774.48 1066.13 778.687" stroke="black" stroke-width="0.657402"/>
<path d="M1055.29 722.481C1057.64 721.768 1062.91 719.424 1065.15 715.742" stroke="black" stroke-width="0.657402"/>
<path d="M867.926 892.658H896.852V835.135H864.146C848.894 835.135 845.41 844.887 845.574 849.763V882.468C845.574 891.015 860.475 892.822 867.926 892.658Z" stroke="black" stroke-width="0.657402"/>
<path d="M883.71 892.822C883.93 895.287 882.001 900.217 872.535 900.217C863.068 900.217 854.785 900.217 851.826 900.217C844.376 901.039 829.475 894.728 829.475 862.91C829.475 831.091 842.952 825.657 849.69 826.917H872.535C876.26 826.753 883.71 828.199 883.71 835.299" stroke="black" stroke-width="0.657402"/>
<path d="M849.688 840.398C846.674 839.193 839.991 835.731 837.361 831.524" stroke="black" stroke-width="0.657402"/>
<path d="M848.203 887.73C845.847 888.443 840.577 890.787 838.342 894.469" stroke="black" stroke-width="0.657402"/>
<path d="M1035.74 834.467H1006.81V891.99H1039.52C1054.77 891.99 1058.25 882.238 1058.09 877.362V844.657C1058.09 836.11 1043.19 834.303 1035.74 834.467Z" stroke="black" stroke-width="0.657402"/>
<path d="M1019.95 834.303C1019.73 831.838 1021.66 826.908 1031.13 826.908C1040.6 826.908 1048.88 826.908 1051.84 826.908C1059.29 826.086 1074.19 832.397 1074.19 864.215C1074.19 896.034 1060.71 901.468 1053.97 900.208H1031.13C1027.4 900.372 1019.95 898.926 1019.95 891.826" stroke="black" stroke-width="0.657402"/>
<path d="M1053.98 886.727C1056.99 887.932 1063.67 891.394 1066.3 895.601" stroke="black" stroke-width="0.657402"/>
<path d="M1055.46 839.395C1057.82 838.682 1063.09 836.338 1065.32 832.656" stroke="black" stroke-width="0.657402"/>
<path d="M867.77 775.732H896.695V718.21H863.99C848.738 718.21 845.254 727.961 845.418 732.837V765.542C845.418 774.089 860.319 775.897 867.77 775.732Z" stroke="black" stroke-width="0.657402"/>
<path d="M883.554 775.896C883.773 778.361 881.845 783.292 872.378 783.292C862.912 783.292 854.629 783.292 851.67 783.292C844.22 784.113 829.319 777.802 829.319 745.984C829.319 714.166 842.795 708.731 849.534 709.991H872.378C876.104 709.827 883.554 711.273 883.554 718.373" stroke="black" stroke-width="0.657402"/>
<path d="M849.531 723.473C846.518 722.267 839.835 718.805 837.205 714.598" stroke="black" stroke-width="0.657402"/>
<path d="M848.047 770.805C845.691 771.517 840.421 773.862 838.186 777.543" stroke="black" stroke-width="0.657402"/>
<rect x="895.047" y="699.633" width="112.744" height="211.355" fill="#BFBFBF" stroke="black" stroke-width="0.657402"/>
<path d="M185.213 851.658C179.297 846.267 182.748 840.756 185.213 838.674C183.186 822.568 178.475 817.966 177.653 813.529C176.996 809.979 179.132 810.844 180.283 811.721C185.279 819.61 187.186 832.977 187.514 838.674C191.722 844.328 189.267 849.686 187.514 851.658C187.35 857.575 183.406 876.475 180.283 878.612C177.16 880.748 177.325 876.968 177.653 876.475C182.781 867.271 184.83 856.096 185.213 851.658Z" stroke="black" stroke-width="0.657402"/>
<path d="M195.417 851.779C189.5 846.388 192.951 840.877 195.417 838.795C193.389 822.689 188.678 818.087 187.856 813.65C187.199 810.1 189.336 810.965 190.486 811.842C195.482 819.731 197.389 833.098 197.717 838.795C201.925 844.449 199.471 849.807 197.717 851.779C197.553 857.696 193.609 876.596 190.486 878.733C187.363 880.869 187.528 877.089 187.856 876.596C192.984 867.392 195.033 856.217 195.417 851.779Z" stroke="black" stroke-width="0.657402"/>
<path d="M205.604 851.779C199.687 846.388 203.139 840.877 205.604 838.795C203.576 822.689 198.866 818.087 198.044 813.65C197.387 810.1 199.523 810.965 200.674 811.842C205.67 819.731 207.576 833.098 207.905 838.795C212.112 844.449 209.658 849.807 207.905 851.779C207.741 857.696 203.796 876.596 200.674 878.733C197.551 880.869 197.715 877.089 198.044 876.596C203.172 867.392 205.221 856.217 205.604 851.779Z" stroke="black" stroke-width="0.657402"/>
<path d="M216.12 851.779C210.203 846.388 213.654 840.877 216.12 838.795C214.092 822.689 209.381 818.087 208.56 813.65C207.902 810.1 210.039 810.965 211.189 811.842C216.185 819.731 218.092 833.098 218.421 838.795C222.628 844.449 220.174 849.807 218.421 851.779C218.256 857.696 214.312 876.596 211.189 878.733C208.067 880.869 208.231 877.089 208.56 876.596C213.687 867.392 215.736 856.217 216.12 851.779Z" stroke="black" stroke-width="0.657402"/>
<path d="M226.635 851.779C220.719 846.388 224.17 840.877 226.635 838.795C224.608 822.689 219.897 818.087 219.075 813.65C218.418 810.1 220.554 810.965 221.705 811.842C226.701 819.731 228.608 833.098 228.936 838.795C233.144 844.449 230.689 849.807 228.936 851.779C228.772 857.696 224.827 876.596 221.705 878.733C218.582 880.869 218.747 877.089 219.075 876.596C224.203 867.392 226.252 856.217 226.635 851.779Z" stroke="black" stroke-width="0.657402"/>
<path d="M236.503 851.779C230.586 846.388 234.037 840.877 236.503 838.795C234.475 822.689 229.764 818.087 228.942 813.65C228.285 810.1 230.422 810.965 231.572 811.842C236.568 819.731 238.475 833.098 238.803 838.795C243.011 844.449 240.557 849.807 238.803 851.779C238.639 857.696 234.695 876.596 231.572 878.733C228.449 880.869 228.614 877.089 228.942 876.596C234.07 867.392 236.119 856.217 236.503 851.779Z" stroke="black" stroke-width="0.657402"/>
<path d="M247.026 851.779C241.109 846.388 244.561 840.877 247.026 838.795C244.998 822.689 240.288 818.087 239.466 813.65C238.808 810.1 240.945 810.965 242.095 811.842C247.092 819.731 248.998 833.098 249.327 838.795C253.534 844.449 251.08 849.807 249.327 851.779C249.163 857.696 245.218 876.596 242.095 878.733C238.973 880.869 239.137 877.089 239.466 876.596C244.594 867.392 246.642 856.217 247.026 851.779Z" stroke="black" stroke-width="0.657402"/>
<path d="M257.206 851.779C251.289 846.388 254.74 840.877 257.206 838.795C255.178 822.689 250.467 818.087 249.646 813.65C248.988 810.1 251.125 810.965 252.275 811.842C257.271 819.731 259.178 833.098 259.507 838.795C263.714 844.449 261.26 849.807 259.507 851.779C259.342 857.696 255.398 876.596 252.275 878.733C249.152 880.869 249.317 877.089 249.646 876.596C254.773 867.392 256.822 856.217 257.206 851.779Z" stroke="black" stroke-width="0.657402"/>
<path d="M330.182 851.779C324.266 846.388 327.717 840.877 330.182 838.795C328.154 822.689 323.444 818.087 322.622 813.65C321.965 810.1 324.101 810.965 325.252 811.842C330.248 819.731 332.154 833.098 332.483 838.795C336.69 844.449 334.236 849.807 332.483 851.779C332.319 857.696 328.374 876.596 325.252 878.733C322.129 880.869 322.293 877.089 322.622 876.596C327.75 867.392 329.799 856.217 330.182 851.779Z" stroke="black" stroke-width="0.657402"/>
<path d="M267.401 851.779C261.484 846.388 264.936 840.877 267.401 838.795C265.373 822.689 260.663 818.087 259.841 813.65C259.183 810.1 261.32 810.965 262.47 811.842C267.467 819.731 269.373 833.098 269.702 838.795C273.909 844.449 271.455 849.807 269.702 851.779C269.538 857.696 265.593 876.596 262.47 878.733C259.348 880.869 259.512 877.089 259.841 876.596C264.969 867.392 267.017 856.217 267.401 851.779Z" stroke="black" stroke-width="0.657402"/>
<path d="M340.37 851.779C334.453 846.388 337.904 840.877 340.37 838.795C338.342 822.689 333.631 818.087 332.81 813.65C332.152 810.1 334.289 810.965 335.439 811.842C340.435 819.731 342.342 833.098 342.671 838.795C346.878 844.449 344.424 849.807 342.671 851.779C342.506 857.696 338.562 876.596 335.439 878.733C332.317 880.869 332.481 877.089 332.81 876.596C337.937 867.392 339.986 856.217 340.37 851.779Z" stroke="black" stroke-width="0.657402"/>
<path d="M277.917 851.779C272 846.388 275.451 840.877 277.917 838.795C275.889 822.689 271.178 818.087 270.356 813.65C269.699 810.1 271.836 810.965 272.986 811.842C277.982 819.731 279.889 833.098 280.217 838.795C284.425 844.449 281.971 849.807 280.217 851.779C280.053 857.696 276.109 876.596 272.986 878.733C269.863 880.869 270.028 877.089 270.356 876.596C275.484 867.392 277.533 856.217 277.917 851.779Z" stroke="black" stroke-width="0.657402"/>
<path d="M350.893 851.779C344.977 846.388 348.428 840.877 350.893 838.795C348.865 822.689 344.155 818.087 343.333 813.65C342.676 810.1 344.812 810.965 345.963 811.842C350.959 819.731 352.865 833.098 353.194 838.795C357.401 844.449 354.947 849.807 353.194 851.779C353.03 857.696 349.085 876.596 345.963 878.733C342.84 880.869 343.004 877.089 343.333 876.596C348.461 867.392 350.51 856.217 350.893 851.779Z" stroke="black" stroke-width="0.657402"/>
<path d="M288.104 851.779C282.187 846.388 285.639 840.877 288.104 838.795C286.076 822.689 281.366 818.087 280.544 813.65C279.887 810.1 282.023 810.965 283.174 811.842C288.17 819.731 290.076 833.098 290.405 838.795C294.612 844.449 292.158 849.807 290.405 851.779C290.241 857.696 286.296 876.596 283.174 878.733C280.051 880.869 280.215 877.089 280.544 876.596C285.672 867.392 287.721 856.217 288.104 851.779Z" stroke="black" stroke-width="0.657402"/>
<path d="M361.073 851.779C355.156 846.388 358.608 840.877 361.073 838.795C359.045 822.689 354.334 818.087 353.513 813.65C352.855 810.1 354.992 810.965 356.142 811.842C361.139 819.731 363.045 833.098 363.374 838.795C367.581 844.449 365.127 849.807 363.374 851.779C363.209 857.696 359.265 876.596 356.142 878.733C353.02 880.869 353.184 877.089 353.513 876.596C358.64 867.392 360.689 856.217 361.073 851.779Z" stroke="black" stroke-width="0.657402"/>
<path d="M298.299 851.779C292.383 846.388 295.834 840.877 298.299 838.795C296.272 822.689 291.561 818.087 290.739 813.65C290.082 810.1 292.218 810.965 293.369 811.842C298.365 819.731 300.272 833.098 300.6 838.795C304.808 844.449 302.353 849.807 300.6 851.779C300.436 857.696 296.492 876.596 293.369 878.733C290.246 880.869 290.411 877.089 290.739 876.596C295.867 867.392 297.916 856.217 298.299 851.779Z" stroke="black" stroke-width="0.657402"/>
<path d="M371.276 851.779C365.359 846.388 368.811 840.877 371.276 838.795C369.248 822.689 364.538 818.087 363.716 813.65C363.058 810.1 365.195 810.965 366.345 811.842C371.342 819.731 373.248 833.098 373.577 838.795C377.784 844.449 375.33 849.807 373.577 851.779C373.413 857.696 369.468 876.596 366.345 878.733C363.223 880.869 363.387 877.089 363.716 876.596C368.844 867.392 370.892 856.217 371.276 851.779Z" stroke="black" stroke-width="0.657402"/>
<path d="M308.815 851.779C302.898 846.388 306.35 840.877 308.815 838.795C306.787 822.689 302.077 818.087 301.255 813.65C300.597 810.1 302.734 810.965 303.884 811.842C308.881 819.731 310.787 833.098 311.116 838.795C315.323 844.449 312.869 849.807 311.116 851.779C310.952 857.696 307.007 876.596 303.884 878.733C300.762 880.869 300.926 877.089 301.255 876.596C306.383 867.392 308.432 856.217 308.815 851.779Z" stroke="black" stroke-width="0.657402"/>
<path d="M381.792 851.779C375.875 846.388 379.326 840.877 381.792 838.795C379.764 822.689 375.053 818.087 374.231 813.65C373.574 810.1 375.711 810.965 376.861 811.842C381.857 819.731 383.764 833.098 384.092 838.795C388.3 844.449 385.846 849.807 384.092 851.779C383.928 857.696 379.984 876.596 376.861 878.733C373.738 880.869 373.903 877.089 374.231 876.596C379.359 867.392 381.408 856.217 381.792 851.779Z" stroke="black" stroke-width="0.657402"/>
<rect x="169.938" y="804.825" width="147.587" height="81.8466" stroke="black" stroke-width="0.657402"/>
<rect x="317.516" y="804.825" width="71.6568" height="81.8466" stroke="black" stroke-width="0.657402"/>
<rect x="389.188" y="804.825" width="75.93" height="81.8466" stroke="black" stroke-width="0.657402"/>
<rect x="392.462" y="808.11" width="69.0272" height="75.2726" stroke="black" stroke-width="0.657402"/>
<path d="M397.406 820.926H456.737M397.406 871.381H456.737" stroke="black" stroke-width="0.657402"/>
<rect x="397.399" y="816.653" width="59.1662" height="59.8236" stroke="black" stroke-width="0.657402"/>
<path d="M392.297 846.564H461.653M461.653 843.606H392.297M401.501 820.926V871.381M450.148 820.926V871.381" stroke="black" stroke-width="0.657402"/>
</svg>
