<svg width="1500" height="1500" viewBox="0 0 1500 1500" fill="none" xmlns="http://www.w3.org/2000/svg">
<path d="M667.984 1357.24H817.674" stroke="black" stroke-width="0.704423"/>
<path d="M838.984 1360.74C862.23 1361.38 908.722 1349.9 908.722 1298.77" stroke="black" stroke-width="0.704423"/>
<path d="M843.562 1298.77H909.426V1286.8H844.091" stroke="black" stroke-width="0.704423"/>
<path d="M839.336 1367.98H899.388V1428.91" stroke="black" stroke-width="0.704423"/>
<path d="M908.547 1212.3H911.541M982.863 1212.3H911.541M946.586 1144.5V1247.35L911.541 1212.3" stroke="black" stroke-width="0.704423"/>
<path d="M941.656 1001.16L982.689 1084.28" stroke="black" stroke-width="0.704423"/>
<path d="M941.125 1085.34L983.566 998.34" stroke="black" stroke-width="0.704423"/>
<path d="M1166.37 738.23H1037.81V785.251" stroke="black" stroke-width="0.704423"/>
<path d="M952.047 783.141V772.223H1003.82V784.902" stroke="black" stroke-width="0.704423"/>
<path d="M1025.66 783.489V666.555H1019.32V783.489H1025.66Z" stroke="black" stroke-width="0.704423"/>
<path d="M1164.43 653.871H1102.8C1102.44 675.121 1114.28 717.621 1164.43 717.621" stroke="black" stroke-width="0.704423"/>
<path d="M1177.81 650.352V718.152M1164.78 719.385V650.352" stroke="black" stroke-width="0.704423"/>
<path d="M980.221 322.797H923.867V659.863" stroke="black" stroke-width="0.704423"/>
<path d="M463.172 420.535V484.109" stroke="black" stroke-width="0.704423"/>
<path d="M595.608 420.535V439.731M595.608 484.109V439.731M463 439.731H595.608" stroke="black" stroke-width="0.704423"/>
<path d="M1181.34 759.539H1261.29M1261.29 771.514H1181.34" stroke="black" stroke-width="0.704423"/>
<path d="M1257.77 759.714V686.63C1233.35 686.454 1184.51 700.825 1184.51 759.714" stroke="black" stroke-width="0.704423"/>
<path d="M1253.89 686.633V759.364" stroke="black" stroke-width="0.704423"/>
<path d="M1179.4 911.697V832.449C1153.34 834.328 1101.21 852.807 1101.21 911.697" stroke="black" stroke-width="0.704423"/>
<path d="M1108.95 958.542L1140.83 927.195L1172.53 958.542H1108.95Z" fill="black" stroke="black" stroke-width="0.704423"/>
<path d="M1097.15 926.837H1185.56M1185.56 911.34H1093.98" stroke="black" stroke-width="0.704423"/>
<path d="M665.695 1012.77L686.284 1033.91C689.283 1031.48 695.281 1023.85 695.281 1012.77" stroke="black" stroke-width="0.704423"/>
<path d="M724.516 1012.77L704.172 1033.55C701.209 1031.17 695.282 1023.67 695.282 1012.77" stroke="black" stroke-width="0.704423"/>
<path d="M664.641 1001.16H724.164M724.164 1013.13H665.345" stroke="black" stroke-width="0.704423"/>
<path d="M827.711 932.654V1000.45M839.686 999.745V931.418" stroke="black" stroke-width="0.704423"/>
<path d="M839.688 933.18H903.79C902.678 955.134 888.3 999.043 839.688 999.043" stroke="black" stroke-width="0.704423"/>
<path d="M839.688 1170.22C861.407 1169.27 904.847 1152.94 904.847 1095.2" stroke="black" stroke-width="0.704423"/>
<path d="M684.711 1206.67V1268.48C704.904 1266.96 745.291 1252.46 745.291 1206.67" stroke="black" stroke-width="0.704423"/>
<path d="M680.492 1206.49H746.356M680.492 1194.52H744.767" stroke="black" stroke-width="0.704423"/>
<path d="M572.451 1110.34C571.102 1136.99 584.13 1190.29 647.028 1190.29" stroke="black" stroke-width="0.704423"/>
<path d="M572.451 1098.02C571.102 1070.9 584.13 1016.65 647.028 1016.65" stroke="black" stroke-width="0.704423"/>
<path d="M646.672 1112.45V1191.35M658.647 1191.35V1111.39" stroke="black" stroke-width="0.704423"/>
<path d="M646.672 1094.49V1015.6M658.647 1015.6V1095.55" stroke="black" stroke-width="0.704423"/>
<path d="M679.079 307.301C568.602 308.064 347.648 381.723 347.648 669.55V1052.93" stroke="black" stroke-width="0.704423"/>
<path d="M679.083 288.281C562.383 289.045 328.984 362.74 328.984 650.707V1055.4" stroke="black" stroke-width="0.704423"/>
<path d="M1313.77 288.355V55.8203H659.502C491.684 56.4075 156.047 166.697 156.047 603.157L176.651 1419.23H181.23M1309.19 288.355V70.4418M1309.19 70.4418V62.6906H659.502C491.684 63.2779 160.974 166.697 160.974 603.157L181.23 1419.23M1309.19 70.4418H659.502C491.684 71.029 165.197 166.697 165.197 603.157L185.28 1419.23M330.92 1419.23H185.28M181.23 1419.23H185.28" stroke="black" stroke-width="0.704423"/>
<path d="M185.281 1413.59H329.512" stroke="black" stroke-width="0.704423"/>
<path d="M177.352 1089.04H328.979" stroke="black" stroke-width="0.704423"/>
<path d="M177.18 1083.75H330.392" stroke="black" stroke-width="0.704423"/>
<rect x="328.633" y="1049.06" width="19.3716" height="76.7821" fill="black"/>
<path d="M1270.44 288.281H1033.23M1031.47 307.301H1270.8" stroke="black" stroke-width="0.704423"/>
<path d="M961.03 288.281H723.816M722.055 307.301H961.382" stroke="black" stroke-width="0.704423"/>
<rect x="328.633" y="1360.06" width="19.3716" height="83.1219" fill="black"/>
<rect x="671.336" y="1418.88" width="24.3026" height="323.33" transform="rotate(90 671.336 1418.88)" fill="black"/>
<rect x="1012.98" y="1425.92" width="16.9062" height="341.645" transform="rotate(90 1012.98 1425.92)" fill="black"/>
<rect x="647.383" y="1098.02" width="12.3274" height="299.38" transform="rotate(90 647.383 1098.02)" fill="black"/>
<rect x="646.328" y="1094.14" width="12.6796" height="19.7238" fill="black"/>
<rect x="646.328" y="1189.94" width="12.6796" height="16.9061" fill="black"/>
<rect x="646.328" y="997.285" width="12.6796" height="19.7238" fill="black"/>
<rect x="666.047" y="1000.8" width="12.6796" height="68.6812" transform="rotate(90 666.047 1000.8)" fill="black"/>
<rect x="679.789" y="1194.16" width="12.6796" height="70.7945" transform="rotate(90 679.789 1194.16)" fill="black"/>
<rect x="681.547" y="1194.16" width="12.6796" height="70.7945" transform="rotate(90 681.547 1194.16)" fill="black"/>
<rect x="840.039" y="1194.16" width="12.6796" height="95.4493" transform="rotate(90 840.039 1194.16)" fill="black"/>
<rect x="844.266" y="1286.45" width="12.6796" height="28.8813" transform="rotate(90 844.266 1286.45)" fill="black"/>
<rect x="984.797" y="1286.45" width="12.6796" height="76.4299" transform="rotate(90 984.797 1286.45)" fill="black"/>
<rect x="981.633" y="1082.52" width="12.6796" height="152.508" transform="rotate(90 981.633 1082.52)" fill="black"/>
<rect x="968.953" y="910.988" width="12.6796" height="128.909" transform="rotate(90 968.953 910.988)" fill="black"/>
<rect x="1098.56" y="910.988" width="16.2017" height="129.614" transform="rotate(90 1098.56 910.988)" fill="black"/>
<rect x="1295.8" y="910.988" width="16.2017" height="112.708" transform="rotate(90 1295.8 910.988)" fill="black"/>
<rect x="840.039" y="1206.85" width="12.6796" height="36.9822" transform="rotate(-180 840.039 1206.85)" fill="black"/>
<rect x="840.039" y="1104.36" width="12.6796" height="106.016" transform="rotate(-180 840.039 1104.36)" fill="black"/>
<rect x="942.18" y="1095.2" width="12.6796" height="106.016" transform="rotate(-180 942.18 1095.2)" fill="black"/>
<rect x="840.039" y="933.531" width="12.6796" height="22.5415" transform="rotate(-180 840.039 933.531)" fill="black"/>
<rect x="1012.98" y="990.238" width="44.0264" height="63.3981" transform="rotate(-180 1012.98 990.238)" fill="black"/>
<rect x="1295.8" y="911.34" width="31.3468" height="146.872" transform="rotate(-180 1295.8 911.34)" fill="black"/>
<rect x="942.18" y="1001.86" width="12.6796" height="70.7945" transform="rotate(-90 942.18 1001.86)" fill="black"/>
<rect x="1259.52" y="771.867" width="12.6796" height="36.2778" transform="rotate(-90 1259.52 771.867)" fill="black"/>
<rect x="1280.3" y="715.164" width="15.4973" height="44.0264" fill="black"/>
<rect x="1343" y="715.164" width="16.5539" height="47.1963" transform="rotate(90 1343 715.164)" fill="black"/>
<rect x="1327.15" y="563.355" width="17.9628" height="47.1963" transform="rotate(90 1327.15 563.355)" fill="black"/>
<rect x="1314.12" y="287.93" width="19.7238" height="45.7875" transform="rotate(90 1314.12 287.93)" fill="black"/>
<rect x="1036.23" y="287.93" width="19.7238" height="77.8387" transform="rotate(90 1036.23 287.93)" fill="black"/>
<rect x="726.633" y="287.93" width="19.7238" height="48.6052" transform="rotate(90 726.633 287.93)" fill="black"/>
<rect x="1014.38" y="635.207" width="40.5043" height="327.557" transform="rotate(-180 1014.38 635.207)" fill="black"/>
<path d="M932.328 481.289H966.14" stroke="black" stroke-width="0.704423"/>
<path d="M974.761 555.258H930.383V623.763H974.761" stroke="black" stroke-width="0.704423"/>
<rect x="1295.8" y="563.355" width="15.8495" height="256.762" transform="rotate(-180 1295.8 563.355)" fill="black"/>
<rect x="1327.15" y="563.355" width="15.8495" height="151.803" fill="black"/>
<rect x="1173.94" y="771.867" width="12.6796" height="8.80529" transform="rotate(-90 1173.94 771.867)" fill="black"/>
<rect x="973.883" y="654.93" width="19.7238" height="17.6106" transform="rotate(-90 973.883 654.93)" fill="black"/>
<rect x="1008.4" y="654.93" width="19.7238" height="17.6106" transform="rotate(-90 1008.4 654.93)" fill="black"/>
<rect x="840.039" y="1443.18" width="24.6548" height="236.334" transform="rotate(-180 840.039 1443.18)" fill="black"/>
<rect x="1012.98" y="1436.84" width="39.7999" height="150.394" transform="rotate(-180 1012.98 1436.84)" fill="black"/>
<rect x="1012.98" y="1286.45" width="31.3468" height="284.587" transform="rotate(-180 1012.98 1286.45)" fill="black"/>
<rect x="743.539" y="1000.8" width="12.6796" height="19.7238" transform="rotate(90 743.539 1000.8)" fill="black"/>
<rect x="730.852" y="775.391" width="12.6796" height="225.415" fill="black"/>
<rect x="1164.43" y="717.273" width="13.7362" height="85.2352" fill="black"/>
<rect x="1026.01" y="654.93" width="13.384" height="102.141" transform="rotate(90 1026.01 654.93)" fill="black"/>
<rect x="1026.01" y="654.93" width="13.384" height="102.494" transform="rotate(90 1026.01 654.93)" fill="black"/>
<rect x="1164.43" y="789.477" width="13.0318" height="227.529" transform="rotate(90 1164.43 789.477)" fill="black"/>
<rect x="1178.16" y="782.078" width="13.0318" height="226.472" transform="rotate(90 1178.16 782.078)" fill="black"/>
<rect x="936.898" y="802.508" width="13.384" height="134.193" transform="rotate(-180 936.898 802.508)" fill="black"/>
<rect x="1164.43" y="570.402" width="13.7362" height="81.7131" fill="black"/>
<rect x="1164.43" y="619.008" width="24.6548" height="151.451" transform="rotate(90 1164.43 619.008)" fill="black"/>
<rect x="646.328" y="775.391" width="12.6796" height="221.893" fill="black"/>
<rect x="658.648" y="1194.16" width="12.6796" height="225.063" fill="black"/>
<rect x="659" y="775.391" width="71.8511" height="11.623" fill="black"/>
<rect x="347.648" y="775.391" width="298.675" height="33.1079" fill="black"/>
<path d="M328.984 1123.02V1371.68M347.652 1123.02V1371.68" stroke="black" stroke-width="0.704423"/>
<path d="M827.711 1102.59V1172.33M839.686 1102.59V1171.45" stroke="black" stroke-width="0.704423"/>
<path d="M436.216 630.288C430.857 629.745 424.729 626.179 422.334 624.464C415.578 628.425 414.406 634.398 414.665 636.89C433.692 642.792 443.561 639.866 446.117 637.666C445.05 635.433 441.574 630.832 436.216 630.288Z" stroke="black" stroke-width="0.704423"/>
<path d="M436.247 589.129C430.889 589.673 424.76 593.239 422.365 594.954C415.609 590.993 414.438 585.02 414.697 582.528C433.723 576.626 443.592 579.551 446.149 581.752C445.081 583.985 441.606 588.586 436.247 589.129Z" stroke="black" stroke-width="0.704423"/>
<path d="M422.335 624.465C420.75 620.064 418.53 608.001 422.335 594.954" stroke="black" stroke-width="0.704423"/>
<path d="M414.859 636.891C408.776 635.529 396.609 628.119 396.609 609.369C396.609 590.62 408.776 583.663 414.859 582.529" stroke="black" stroke-width="0.704423"/>
<path d="M446.016 637.762C447.245 637.535 450.365 637.043 453.005 636.888C456.306 636.694 463.877 633.393 463.877 609.125C463.877 589.71 458.118 583.627 455.238 583.012C453.943 582.591 450.287 581.75 446.016 581.75" stroke="black" stroke-width="0.704423"/>
<path d="M458.252 634.174C458.738 634.659 459.844 635.455 460.388 634.756C460.931 634.057 459.967 633.106 459.417 632.718M459.514 586.704C460.097 586.122 461.087 584.782 460.388 584.083C459.689 583.384 458.479 584.245 457.961 584.763" stroke="black" stroke-width="0.704423"/>
<path d="M436.216 554.363C430.857 553.819 424.729 550.253 422.334 548.538C415.578 552.499 414.406 558.472 414.665 560.964C433.692 566.866 443.561 563.941 446.117 561.74C445.05 559.508 441.574 554.906 436.216 554.363Z" stroke="black" stroke-width="0.704423"/>
<path d="M436.247 513.204C430.889 513.747 424.76 517.313 422.365 519.028C415.609 515.068 414.438 509.094 414.697 506.603C433.723 500.701 443.592 503.626 446.149 505.826C445.081 508.059 441.606 512.66 436.247 513.204Z" stroke="black" stroke-width="0.704423"/>
<path d="M422.335 548.539C420.75 544.138 418.53 532.075 422.335 519.028" stroke="black" stroke-width="0.704423"/>
<path d="M414.859 560.965C408.776 559.603 396.609 552.193 396.609 533.444C396.609 514.694 408.776 507.738 414.859 506.603" stroke="black" stroke-width="0.704423"/>
<path d="M446.016 561.836C447.245 561.609 450.365 561.118 453.005 560.962C456.306 560.768 463.877 557.468 463.877 533.199C463.877 513.784 458.118 507.701 455.238 507.086C453.943 506.665 450.287 505.824 446.016 505.824" stroke="black" stroke-width="0.704423"/>
<path d="M458.252 558.248C458.738 558.733 459.844 559.529 460.388 558.83C460.931 558.131 459.967 557.18 459.417 556.792M459.514 510.778C460.097 510.196 461.087 508.856 460.388 508.157C459.689 507.458 458.479 508.319 457.961 508.837" stroke="black" stroke-width="0.704423"/>
<circle cx="529.392" cy="572.162" r="34.5167" fill="#BFBFBF" stroke="black" stroke-width="0.704423"/>
<rect x="452.258" y="742.989" width="153.916" height="40.1521" stroke="black" stroke-width="0.704423"/>
<path d="M642.611 644.982H659.422V611.551H640.414C631.55 611.551 629.525 617.219 629.62 620.052V639.06C629.62 644.027 638.281 645.078 642.611 644.982Z" stroke="black" stroke-width="0.704423"/>
<path d="M651.788 645.08C651.915 646.513 650.794 649.379 645.292 649.379C639.79 649.379 634.976 649.379 633.257 649.379C628.927 649.856 620.267 646.188 620.267 627.696C620.267 609.204 628.099 606.045 632.015 606.778H645.292C647.457 606.682 651.788 607.523 651.788 611.649" stroke="black" stroke-width="0.704423"/>
<path d="M632.008 614.609C630.257 613.909 626.372 611.897 624.844 609.451" stroke="black" stroke-width="0.704423"/>
<path d="M631.148 642.119C629.779 642.533 626.716 643.896 625.417 646.035" stroke="black" stroke-width="0.704423"/>
<path d="M740.975 644.639H724.164V611.208H743.172C752.036 611.208 754.061 616.875 753.966 619.709V638.717C753.966 643.684 745.305 644.734 740.975 644.639Z" stroke="black" stroke-width="0.704423"/>
<path d="M731.798 644.736C731.671 646.169 732.792 649.035 738.294 649.035C743.795 649.035 748.61 649.035 750.329 649.035C754.659 649.512 763.319 645.845 763.319 627.352C763.319 608.86 755.487 605.702 751.571 606.434H738.294C736.129 606.338 731.798 607.179 731.798 611.305" stroke="black" stroke-width="0.704423"/>
<path d="M751.578 614.266C753.329 613.565 757.214 611.553 758.742 609.108" stroke="black" stroke-width="0.704423"/>
<path d="M752.438 641.775C753.807 642.189 756.87 643.552 758.169 645.691" stroke="black" stroke-width="0.704423"/>
<path d="M642.611 588.979H659.422V555.547H640.414C631.55 555.547 629.525 561.215 629.62 564.048V583.056C629.62 588.023 638.281 589.074 642.611 588.979Z" stroke="black" stroke-width="0.704423"/>
<path d="M651.788 589.076C651.915 590.509 650.794 593.375 645.292 593.375C639.79 593.375 634.976 593.375 633.257 593.375C628.927 593.852 620.267 590.184 620.267 571.692C620.267 553.2 628.099 550.041 632.015 550.774H645.292C647.457 550.678 651.788 551.519 651.788 555.645" stroke="black" stroke-width="0.704423"/>
<path d="M632.008 558.605C630.257 557.905 626.372 555.893 624.844 553.448" stroke="black" stroke-width="0.704423"/>
<path d="M631.148 586.115C629.779 586.529 626.716 587.892 625.417 590.031" stroke="black" stroke-width="0.704423"/>
<path d="M740.975 588.631H724.164V555.2H743.172C752.036 555.2 754.061 560.867 753.966 563.701V582.709C753.966 587.676 745.305 588.726 740.975 588.631Z" stroke="black" stroke-width="0.704423"/>
<path d="M731.798 588.729C731.671 590.161 732.792 593.027 738.294 593.027C743.795 593.027 748.61 593.027 750.329 593.027C754.659 593.505 763.319 589.837 763.319 571.344C763.319 552.852 755.487 549.694 751.571 550.426H738.294C736.129 550.331 731.798 551.171 731.798 555.297" stroke="black" stroke-width="0.704423"/>
<path d="M751.578 558.258C753.329 557.557 757.214 555.545 758.742 553.1" stroke="black" stroke-width="0.704423"/>
<path d="M752.438 585.767C753.807 586.181 756.87 587.544 758.169 589.684" stroke="black" stroke-width="0.704423"/>
<path d="M642.611 533.682H659.422V500.251H640.414C631.55 500.251 629.525 505.918 629.62 508.752V527.76C629.62 532.727 638.281 533.777 642.611 533.682Z" stroke="black" stroke-width="0.704423"/>
<path d="M651.788 533.779C651.915 535.212 650.794 538.078 645.292 538.078C639.79 538.078 634.976 538.078 633.257 538.078C628.927 538.555 620.267 534.887 620.267 516.395C620.267 497.903 628.099 494.745 632.015 495.477H645.292C647.457 495.381 651.788 496.222 651.788 500.348" stroke="black" stroke-width="0.704423"/>
<path d="M632.008 503.309C630.257 502.608 626.372 500.596 624.844 498.151" stroke="black" stroke-width="0.704423"/>
<path d="M631.148 530.818C629.779 531.232 626.716 532.595 625.417 534.734" stroke="black" stroke-width="0.704423"/>
<path d="M740.975 533.33H724.164V499.899H743.172C752.036 499.899 754.061 505.566 753.966 508.4V527.408C753.966 532.375 745.305 533.426 740.975 533.33Z" stroke="black" stroke-width="0.704423"/>
<path d="M731.798 533.428C731.671 534.861 732.792 537.726 738.294 537.726C743.795 537.726 748.61 537.726 750.329 537.726C754.659 538.204 763.319 534.536 763.319 516.044C763.319 497.551 755.487 494.393 751.571 495.125H738.294C736.129 495.03 731.798 495.87 731.798 499.997" stroke="black" stroke-width="0.704423"/>
<path d="M751.578 502.957C753.329 502.257 757.214 500.244 758.742 497.799" stroke="black" stroke-width="0.704423"/>
<path d="M752.438 530.467C753.807 530.88 756.87 532.243 758.169 534.383" stroke="black" stroke-width="0.704423"/>
<rect x="658.657" y="490.454" width="65.8635" height="163.074" fill="#BFBFBF" stroke="black" stroke-width="0.704423"/>
<rect x="801.298" y="399.227" width="42.2654" height="176.81" fill="#BFBFBF" stroke="black" stroke-width="0.704423"/>
<circle cx="710.78" cy="353.788" r="32.7557" fill="#BFBFBF" stroke="black" stroke-width="0.704423"/>
<circle cx="430.591" cy="456.462" r="17.4345" fill="#BFBFBF" stroke="black" stroke-width="0.704423"/>
<path d="M439.579 441.141L430.773 456.511L439.579 471.783" stroke="black" stroke-width="0.704423"/>
<path d="M430.767 456.641H412.805" stroke="black" stroke-width="0.704423"/>
<rect x="452.258" y="420.708" width="153.916" height="63.0458" stroke="black" stroke-width="0.704423"/>
<circle cx="950.108" cy="589.948" r="5.10707" stroke="black" stroke-width="0.704423"/>
<circle cx="950.107" cy="589.947" r="8.98139" stroke="black" stroke-width="0.704423"/>
<rect x="932.321" y="451.352" width="33.4601" height="60.2282" stroke="black" stroke-width="0.704423"/>
<circle cx="957.155" cy="465.62" r="1.23274" stroke="black" stroke-width="0.704423"/>
<circle cx="957.155" cy="496.968" r="1.23274" stroke="black" stroke-width="0.704423"/>
<path d="M1065.81 650.001H1093.98V675.712C1093.98 683.493 1087.67 689.801 1079.89 689.801C1072.11 689.801 1065.81 683.493 1065.81 675.712V650.001Z" stroke="black" stroke-width="0.704423"/>
<path d="M965.781 942.337L965.781 970.514L940.069 970.514C932.288 970.514 925.981 964.206 925.981 956.425C925.981 948.644 932.288 942.337 940.069 942.337L965.781 942.337Z" stroke="black" stroke-width="0.704423"/>
<rect x="1052.07" y="746.157" width="40.8565" height="27.8247" stroke="black" stroke-width="0.704423"/>
<rect x="864.344" y="1046.59" width="40.8565" height="27.8247" stroke="black" stroke-width="0.704423"/>
<rect x="1109.49" y="746.157" width="40.8565" height="27.8247" stroke="black" stroke-width="0.704423"/>
<rect x="1062.99" y="754.255" width="19.0194" height="11.9752" stroke="black" stroke-width="0.704423"/>
<rect x="875.258" y="1054.69" width="19.0194" height="11.9752" stroke="black" stroke-width="0.704423"/>
<rect x="1120.4" y="754.255" width="19.0194" height="11.9752" stroke="black" stroke-width="0.704423"/>
<path d="M1126.74 595.758L1017.56 595.758" stroke="black" stroke-width="0.704423"/>
<path d="M622.023 960.652L622.023 802.509" stroke="black" stroke-width="0.704423"/>
<path d="M634.703 1250.52L634.703 1418.88" stroke="black" stroke-width="0.704423"/>
<path d="M1021.08 575.684L1027.07 595.563L1021.08 614.427" stroke="black" stroke-width="0.704423"/>
<path d="M641.922 854.989L622.042 860.977L603.179 854.989" stroke="black" stroke-width="0.704423"/>
<path d="M614.625 1362.87L634.504 1356.54L653.368 1362.87" stroke="black" stroke-width="0.704423"/>
<path d="M641.75 849.001L621.871 854.988L603.007 849.001" stroke="black" stroke-width="0.704423"/>
<path d="M614.977 1369.21L634.856 1362.88L653.72 1369.21" stroke="black" stroke-width="0.704423"/>
<path d="M642.094 843.016L622.214 849.004L603.35 843.016" stroke="black" stroke-width="0.704423"/>
<path d="M614.625 1375.91L634.504 1369.22L653.368 1375.91" stroke="black" stroke-width="0.704423"/>
<path d="M642.094 837.024L622.214 843.012L603.35 837.024" stroke="black" stroke-width="0.704423"/>
<path d="M614.625 1382.25L634.504 1375.91L653.368 1382.25" stroke="black" stroke-width="0.704423"/>
<path d="M642.094 831.04L622.214 837.027L603.35 831.04" stroke="black" stroke-width="0.704423"/>
<path d="M614.625 1388.59L634.504 1382.25L653.368 1388.59" stroke="black" stroke-width="0.704423"/>
<path d="M642.094 825.048L622.214 831.035L603.35 825.048" stroke="black" stroke-width="0.704423"/>
<path d="M614.625 1394.93L634.504 1388.59L653.368 1394.93" stroke="black" stroke-width="0.704423"/>
<path d="M642.094 819.766L622.214 825.754L603.35 819.766" stroke="black" stroke-width="0.704423"/>
<path d="M614.625 1400.57L634.504 1394.23L653.368 1400.57" stroke="black" stroke-width="0.704423"/>
<path d="M642.094 813.778L622.214 819.766L603.35 813.778" stroke="black" stroke-width="0.704423"/>
<path d="M614.625 1406.9L634.504 1400.56L653.368 1406.9" stroke="black" stroke-width="0.704423"/>
<path d="M1284.18 711.636L1304.06 705.648L1322.92 711.636" stroke="black" stroke-width="0.704423"/>
<path d="M1030.59 575.684L1036.23 595.563L1030.59 614.427" stroke="black" stroke-width="0.704423"/>
<path d="M641.922 864.497L622.042 870.133L603.179 864.497" stroke="black" stroke-width="0.704423"/>
<path d="M614.625 1353.02L634.504 1347.03L653.368 1353.02" stroke="black" stroke-width="0.704423"/>
<path d="M1284.18 702.128L1304.06 696.492L1322.92 702.128" stroke="black" stroke-width="0.704423"/>
<path d="M1039.75 575.684L1045.73 595.563L1039.75 614.427" stroke="black" stroke-width="0.704423"/>
<path d="M641.922 873.657L622.042 879.645L603.179 873.657" stroke="black" stroke-width="0.704423"/>
<path d="M614.625 1343.15L634.504 1336.81L653.368 1343.15" stroke="black" stroke-width="0.704423"/>
<path d="M1284.18 692.968L1304.06 686.98L1322.92 692.968" stroke="black" stroke-width="0.704423"/>
<path d="M1049.26 575.684L1054.54 595.563L1049.26 614.427" stroke="black" stroke-width="0.704423"/>
<path d="M641.922 883.17L622.042 888.453L603.179 883.17" stroke="black" stroke-width="0.704423"/>
<path d="M614.625 1332.94L634.504 1327.3L653.368 1332.94" stroke="black" stroke-width="0.704423"/>
<path d="M1284.18 683.463L1304.06 678.18L1322.92 683.463" stroke="black" stroke-width="0.704423"/>
<path d="M1058.41 575.684L1064.05 595.563L1058.41 614.427" stroke="black" stroke-width="0.704423"/>
<path d="M641.922 892.322L622.042 897.957L603.179 892.322" stroke="black" stroke-width="0.704423"/>
<path d="M614.625 1323.43L634.504 1317.45L653.368 1323.43" stroke="black" stroke-width="0.704423"/>
<path d="M1284.18 674.303L1304.06 668.668L1322.92 674.303" stroke="black" stroke-width="0.704423"/>
<path d="M1067.92 575.684L1073.2 595.563L1067.92 614.427" stroke="black" stroke-width="0.704423"/>
<path d="M641.922 901.834L622.042 907.117L603.179 901.834" stroke="black" stroke-width="0.704423"/>
<path d="M614.625 1313.22L634.504 1307.58L653.368 1313.22" stroke="black" stroke-width="0.704423"/>
<path d="M1284.18 664.795L1304.06 659.512L1322.92 664.795" stroke="black" stroke-width="0.704423"/>
<path d="M1076.73 575.684L1082.72 595.563L1076.73 614.427" stroke="black" stroke-width="0.704423"/>
<path d="M641.922 910.637L622.042 916.625L603.179 910.637" stroke="black" stroke-width="0.704423"/>
<path d="M614.625 1303.7L634.504 1297.36L653.368 1303.7" stroke="black" stroke-width="0.704423"/>
<path d="M1284.18 655.988L1304.06 650L1322.92 655.988" stroke="black" stroke-width="0.704423"/>
<path d="M1086.24 575.684L1091.87 595.563L1086.24 614.427" stroke="black" stroke-width="0.704423"/>
<path d="M641.922 920.146L622.042 925.781L603.179 920.146" stroke="black" stroke-width="0.704423"/>
<path d="M614.625 1293.49L634.504 1287.5L653.368 1293.49" stroke="black" stroke-width="0.704423"/>
<path d="M1284.18 646.475L1304.06 640.84L1322.92 646.475" stroke="black" stroke-width="0.704423"/>
<path d="M1095.4 575.684L1101.38 595.563L1095.4 614.427" stroke="black" stroke-width="0.704423"/>
<path d="M641.922 929.305L622.042 935.293L603.179 929.305" stroke="black" stroke-width="0.704423"/>
<path d="M614.625 1283.98L634.504 1277.64L653.368 1283.98" stroke="black" stroke-width="0.704423"/>
<path d="M1284.18 637.32L1304.06 631.332L1322.92 637.32" stroke="black" stroke-width="0.704423"/>
<path d="M1104.55 575.684L1110.19 595.563L1104.55 614.427" stroke="black" stroke-width="0.704423"/>
<path d="M641.922 938.466L622.042 944.102L603.179 938.466" stroke="black" stroke-width="0.704423"/>
<path d="M614.625 1274.12L634.504 1268.13L653.368 1274.12" stroke="black" stroke-width="0.704423"/>
<path d="M1114.06 575.684L1119.34 595.563L1114.06 614.427" stroke="black" stroke-width="0.704423"/>
<path d="M641.922 947.975L622.042 953.258L603.179 947.975" stroke="black" stroke-width="0.704423"/>
<path d="M614.625 1263.9L634.504 1258.27L653.368 1263.9" stroke="black" stroke-width="0.704423"/>
<path d="M1011.57 570.75H1166.9" stroke="black" stroke-width="0.704423"/>
<path d="M1126.91 571.105V621.296" stroke="black" stroke-width="0.704423"/>
<path d="M646.328 961L597.723 961" stroke="black" stroke-width="0.704423"/>
<path d="M609.695 1250.17L659.005 1250.17" stroke="black" stroke-width="0.704423"/>
<rect x="1130.27" y="577.798" width="30.9946" height="34.1645" stroke="black" stroke-width="0.704423"/>
<rect x="639.804" y="964.173" width="30.9946" height="34.1645" transform="rotate(90 639.804 964.173)" stroke="black" stroke-width="0.704423"/>
<rect x="617.094" y="1243.83" width="30.9946" height="34.1645" transform="rotate(-90 617.094 1243.83)" stroke="black" stroke-width="0.704423"/>
<rect x="1286.47" y="619.886" width="30.9946" height="34.1645" transform="rotate(-90 1286.47 619.886)" stroke="black" stroke-width="0.704423"/>
<path d="M1280.3 627.637H1328.38" stroke="black" stroke-width="0.704423"/>
<rect x="1233.11" y="349.919" width="41.561" height="169.766" fill="#BFBFBF" stroke="black" stroke-width="0.704423"/>
<path d="M1258.11 493.449H1255.82V376.867H1258.11C1258.85 384.495 1260.16 401.525 1260.69 419.309C1262.3 421.363 1265.51 427.374 1265.51 434.982C1265.51 442.59 1262.28 448.131 1260.67 449.951C1260.12 467.834 1258.84 485.402 1258.11 493.449Z" fill="#BFBFBF"/>
<path d="M1255.65 376.867H1255.82M1255.82 376.867H1258.11C1258.85 384.495 1260.16 401.525 1260.69 419.309M1255.82 376.867V493.449H1258.11C1258.84 485.402 1260.12 467.834 1260.67 449.951M1260.69 419.309C1260.84 424.243 1260.93 429.236 1260.93 434.102C1260.93 439.25 1260.83 444.615 1260.67 449.951M1260.69 419.309C1262.3 421.363 1265.51 427.374 1265.51 434.982C1265.51 442.59 1262.28 448.131 1260.67 449.951" stroke="black" stroke-width="0.704423"/>
<rect x="561.437" y="1052.57" width="41.561" height="169.766" transform="rotate(90 561.437 1052.57)" fill="#BFBFBF" stroke="black" stroke-width="0.704423"/>
<path d="M417.91 1077.58L417.91 1075.29L534.492 1075.29L534.492 1077.58C526.864 1078.32 509.834 1079.63 492.051 1080.16C489.996 1081.77 483.985 1084.98 476.377 1084.98C468.77 1084.98 463.228 1081.75 461.408 1080.14C443.525 1079.59 425.958 1078.31 417.91 1077.58Z" fill="#BFBFBF"/>
<path d="M534.492 1075.12L534.492 1075.29M534.492 1075.29L534.492 1077.58C526.864 1078.32 509.834 1079.63 492.051 1080.16M534.492 1075.29L417.91 1075.29L417.91 1077.58C425.958 1078.31 443.525 1079.59 461.408 1080.14M492.051 1080.16C487.116 1080.31 482.124 1080.4 477.258 1080.4C472.11 1080.4 466.745 1080.3 461.408 1080.14M492.051 1080.16C489.996 1081.77 483.985 1084.98 476.377 1084.98C468.77 1084.98 463.228 1081.75 461.408 1080.14" stroke="black" stroke-width="0.704423"/>
<rect x="391.68" y="1155.78" width="41.561" height="169.766" transform="rotate(-90 391.68 1155.78)" fill="#BFBFBF" stroke="black" stroke-width="0.704423"/>
<path d="M535.207 1130.77L535.207 1133.06L418.625 1133.06L418.625 1130.77C426.253 1130.03 443.283 1128.72 461.066 1128.19C463.121 1126.58 469.132 1123.37 476.74 1123.37C484.348 1123.37 489.889 1126.6 491.709 1128.21C509.592 1128.77 527.159 1130.05 535.207 1130.77Z" fill="#BFBFBF"/>
<path d="M418.625 1133.23L418.625 1133.06M418.625 1133.06L418.625 1130.77C426.253 1130.03 443.283 1128.72 461.066 1128.19M418.625 1133.06L535.207 1133.06L535.207 1130.77C527.159 1130.05 509.592 1128.77 491.709 1128.21M461.066 1128.19C466.001 1128.04 470.994 1127.95 475.859 1127.95C481.008 1127.95 486.372 1128.05 491.709 1128.21M461.066 1128.19C463.121 1126.58 469.132 1123.37 476.74 1123.37C484.348 1123.37 489.889 1126.6 491.709 1128.21" stroke="black" stroke-width="0.704423"/>
<rect x="1021.78" y="358.016" width="166.596" height="155.677" fill="#BFBFBF" stroke="black" stroke-width="0.704423"/>
<rect x="554.398" y="815.192" width="166.596" height="155.677" transform="rotate(90 554.398 815.192)" fill="#BFBFBF" stroke="black" stroke-width="0.704423"/>
<rect x="398.704" y="1409.01" width="166.596" height="155.677" transform="rotate(-90 398.704 1409.01)" fill="#BFBFBF" stroke="black" stroke-width="0.704423"/>
<path d="M1077.26 357.664V513.87" stroke="black" stroke-width="0.704423"/>
<path d="M554.75 870.66L398.544 870.66" stroke="black" stroke-width="0.704423"/>
<path d="M398.352 1353.55L554.557 1353.55" stroke="black" stroke-width="0.704423"/>
<path d="M1061.23 375.452V371.754C1061.23 369.42 1059.34 367.527 1057.01 367.527H1028.12C1025.79 367.527 1023.9 369.42 1023.9 371.754V421.416C1023.9 423.75 1025.79 425.642 1028.12 425.642H1057.01C1059.34 425.642 1061.23 423.75 1061.23 421.416V417.717" stroke="black" stroke-width="0.704423"/>
<path d="M536.966 854.639L540.664 854.639C542.998 854.639 544.891 852.747 544.891 850.413L544.891 821.531C544.891 819.197 542.998 817.305 540.664 817.305L491.002 817.305C488.668 817.305 486.776 819.197 486.776 821.531L486.776 850.413C486.776 852.747 488.668 854.639 491.002 854.639L494.7 854.639" stroke="black" stroke-width="0.704423"/>
<path d="M416.144 1369.57L412.445 1369.57C410.111 1369.57 408.219 1371.46 408.219 1373.8L408.219 1402.68C408.219 1405.01 410.111 1406.91 412.445 1406.91L462.107 1406.91C464.441 1406.91 466.334 1405.01 466.334 1402.68L466.334 1373.8C466.334 1371.46 464.441 1369.57 462.107 1369.57L458.409 1369.57" stroke="black" stroke-width="0.704423"/>
<path d="M1061.23 452.94V449.242C1061.23 446.908 1059.34 445.016 1057.01 445.016H1028.12C1025.79 445.016 1023.9 446.908 1023.9 449.242V498.904C1023.9 501.238 1025.79 503.131 1028.12 503.131H1057.01C1059.34 503.131 1061.23 501.238 1061.23 498.904V495.206" stroke="black" stroke-width="0.704423"/>
<path d="M459.481 854.639L463.18 854.639C465.514 854.639 467.406 852.747 467.406 850.413L467.406 821.531C467.406 819.197 465.514 817.305 463.18 817.305L413.518 817.305C411.184 817.305 409.291 819.197 409.291 821.531L409.291 850.413C409.291 852.747 411.184 854.639 413.518 854.639L417.216 854.639" stroke="black" stroke-width="0.704423"/>
<path d="M493.628 1369.57L489.93 1369.57C487.595 1369.57 485.703 1371.46 485.703 1373.8L485.703 1402.68C485.703 1405.01 487.595 1406.91 489.93 1406.91L539.591 1406.91C541.926 1406.91 543.818 1405.01 543.818 1402.68L543.818 1373.8C543.818 1371.46 541.926 1369.57 539.591 1369.57L535.893 1369.57" stroke="black" stroke-width="0.704423"/>
<rect x="1050.66" y="375.626" width="23.246" height="41.561" rx="2.46548" stroke="black" stroke-width="0.704423"/>
<rect x="536.788" y="844.067" width="23.246" height="41.561" rx="2.46548" transform="rotate(90 536.788 844.067)" stroke="black" stroke-width="0.704423"/>
<rect x="416.313" y="1380.14" width="23.246" height="41.561" rx="2.46548" transform="rotate(-90 416.313 1380.14)" stroke="black" stroke-width="0.704423"/>
<rect x="1050.66" y="453.114" width="23.246" height="41.561" rx="2.46548" stroke="black" stroke-width="0.704423"/>
<rect x="459.296" y="844.067" width="23.246" height="41.561" rx="2.46548" transform="rotate(90 459.296 844.067)" stroke="black" stroke-width="0.704423"/>
<rect x="493.805" y="1380.14" width="23.246" height="41.561" rx="2.46548" transform="rotate(-90 493.805 1380.14)" stroke="black" stroke-width="0.704423"/>
<rect x="1021.78" y="324.2" width="29.2163" height="30.2204" stroke="black" stroke-width="0.704423"/>
<circle cx="1036.29" cy="339.308" r="11.8972" stroke="black" stroke-width="0.704423"/>
<circle cx="1036.39" cy="339.411" r="2.96116" stroke="black" stroke-width="0.704423"/>
<path d="M1036.59 324.051V354.674M1021.53 339.312H1051.15" stroke="black" stroke-width="0.704423"/>
<rect x="557.923" y="815.188" width="29.2163" height="30.2204" stroke="black" stroke-width="0.704423"/>
<circle cx="572.429" cy="830.296" r="11.8972" stroke="black" stroke-width="0.704423"/>
<circle cx="572.532" cy="830.399" r="2.96116" stroke="black" stroke-width="0.704423"/>
<path d="M572.733 815.039V845.663M557.672 830.301H587.291" stroke="black" stroke-width="0.704423"/>
<rect x="395.187" y="1409.02" width="29.2163" height="30.2204" transform="rotate(-180 395.187 1409.02)" stroke="black" stroke-width="0.704423"/>
<circle cx="380.68" cy="1393.91" r="11.8972" transform="rotate(-180 380.68 1393.91)" stroke="black" stroke-width="0.704423"/>
<circle cx="380.577" cy="1393.81" r="2.96116" transform="rotate(-180 380.577 1393.81)" stroke="black" stroke-width="0.704423"/>
<path d="M380.377 1409.17L380.377 1378.54M395.438 1393.91L365.818 1393.91" stroke="black" stroke-width="0.704423"/>
<rect x="365.969" y="815.188" width="29.2163" height="30.2204" stroke="black" stroke-width="0.704423"/>
<circle cx="380.476" cy="830.296" r="11.8972" stroke="black" stroke-width="0.704423"/>
<circle cx="380.579" cy="830.399" r="2.96116" stroke="black" stroke-width="0.704423"/>
<path d="M380.78 815.039V845.663M365.719 830.301H395.338" stroke="black" stroke-width="0.704423"/>
<rect x="587.14" y="1409.02" width="29.2163" height="30.2204" transform="rotate(-180 587.14 1409.02)" stroke="black" stroke-width="0.704423"/>
<circle cx="572.633" cy="1393.91" r="11.8972" transform="rotate(-180 572.633 1393.91)" stroke="black" stroke-width="0.704423"/>
<circle cx="572.53" cy="1393.81" r="2.96116" transform="rotate(-180 572.53 1393.81)" stroke="black" stroke-width="0.704423"/>
<path d="M572.33 1409.17L572.33 1378.54M587.391 1393.91L557.771 1393.91" stroke="black" stroke-width="0.704423"/>
<rect x="1021.78" y="517.923" width="29.2163" height="30.2204" stroke="black" stroke-width="0.704423"/>
<circle cx="1036.29" cy="533.031" r="11.8972" stroke="black" stroke-width="0.704423"/>
<circle cx="1036.39" cy="533.134" r="2.96116" stroke="black" stroke-width="0.704423"/>
<path d="M1036.59 517.773V548.397M1021.53 533.035H1051.15" stroke="black" stroke-width="0.704423"/>
<rect x="908.727" y="1144.86" width="83.8263" height="145.111" stroke="black" stroke-width="0.704423"/>
<path d="M946.586 1247.53H982.159" stroke="black" stroke-width="0.704423"/>
<rect x="923.516" y="1253.34" width="43.322" height="23.9504" stroke="black" stroke-width="0.704423"/>
<path d="M947.11 1317.8C947.11 1310.21 953.26 1304.06 960.846 1304.06H974.23V1339.28H960.846C953.26 1339.28 947.11 1333.13 947.11 1325.54V1317.8Z" stroke="black" stroke-width="0.704423"/>
<path d="M961.196 1380.13C961.196 1377.99 962.931 1376.26 965.07 1376.26H977.045V1405.14H965.07C962.931 1405.14 961.196 1403.41 961.196 1401.27V1380.13Z" stroke="black" stroke-width="0.704423"/>
<circle cx="967.544" cy="1390.7" r="2.11327" stroke="black" stroke-width="0.704423"/>
<path d="M954.859 1379.61C955.799 1380.2 958.381 1381.37 961.199 1381.37" stroke="black" stroke-width="0.704423"/>
<path d="M954.859 1401.27C955.799 1400.68 958.381 1399.51 961.199 1399.51" stroke="black" stroke-width="0.704423"/>
<path d="M920.704 1390.35C920.704 1382.57 927.011 1376.26 934.792 1376.26H951.346C953.486 1376.26 955.22 1377.99 955.22 1380.13V1400.56C955.22 1402.7 953.486 1404.44 951.346 1404.44H934.792C927.011 1404.44 920.704 1398.13 920.704 1390.35Z" stroke="black" stroke-width="0.704423"/>
<rect x="777.352" y="1216.71" width="30.6424" height="46.4919" stroke="black" stroke-width="0.704423"/>
<path d="M773.829 1321.31C773.829 1312.95 780.609 1306.17 788.974 1306.17H819.616V1336.46H788.974C780.609 1336.46 773.829 1329.68 773.829 1321.31Z" stroke="black" stroke-width="0.704423"/>
<circle cx="788.971" cy="1321.32" r="13.384" stroke="black" stroke-width="0.704423"/>
<path d="M676.266 1379.43C676.266 1371.85 682.416 1365.7 690.003 1365.7H804.119C807.815 1365.7 810.811 1368.69 810.811 1372.39V1410.43C810.811 1414.12 807.815 1417.12 804.119 1417.12H690.003C682.416 1417.12 676.266 1410.97 676.266 1403.38V1379.43Z" stroke="black" stroke-width="0.704423"/>
<rect x="697.04" y="1373.45" width="92.6316" height="35.5734" rx="3.87433" stroke="black" stroke-width="0.704423"/>
<circle cx="743.531" cy="1391.05" r="3.87433" stroke="black" stroke-width="0.704423"/>
<path d="M554.047 883.52L398.369 883.52" stroke="black" stroke-width="0.704423"/>
<path d="M399.055 1340.69L554.732 1340.69" stroke="black" stroke-width="0.704423"/>
<path d="M609.344 1206.15L609.344 1419.94" stroke="black" stroke-width="0.704423"/>
<path d="M1280.3 716.918V576.738" stroke="black" stroke-width="0.704423"/>
<path d="M1304.26 627.461L1304.26 715.162" stroke="black" stroke-width="0.704423"/>
<path d="M1088.52 358.547V514.224" stroke="black" stroke-width="0.704423"/>
<path d="M597.719 1006.26V806.91" stroke="black" stroke-width="0.704423"/>
</svg>
