<svg width="40" height="6" viewBox="0 0 40 6" fill="none" xmlns="http://www.w3.org/2000/svg">
<g clip-path="url(#clip0_1023_63)">
<path d="M3.97733 2.31672C3.97733 2.80754 4.04251 3.23451 4.17419 3.59632C4.30455 3.95811 4.4748 4.26138 4.6823 4.50479C4.88981 4.74822 5.12657 4.92912 5.39127 5.04883C5.65596 5.16855 5.92066 5.22706 6.18668 5.22706C6.41548 5.22706 6.63762 5.18317 6.85308 5.09405C7.06857 5.00493 7.25878 4.87192 7.42504 4.69369C7.59131 4.51544 7.72434 4.29597 7.82409 4.03394C7.92518 3.7719 7.9744 3.46596 7.9744 3.11479C7.97973 2.65192 7.91455 2.24356 7.78154 1.89107C7.64851 1.53859 7.47293 1.24462 7.25613 1.01052C7.03931 0.776415 6.79457 0.600836 6.52322 0.481123C6.25186 0.361411 5.98051 0.302885 5.70918 0.302885C5.48438 0.302885 5.26756 0.344119 5.05741 0.425258C4.84723 0.507727 4.66236 0.632759 4.50274 0.800357C4.34312 0.969285 4.21676 1.17945 4.12099 1.43217C4.02522 1.6849 3.97733 1.97887 3.97733 2.31538M8.53571 2.76365C8.53571 3.18929 8.46257 3.56173 8.31491 3.8823C8.16727 4.20285 7.97306 4.46889 7.73232 4.68171C7.49156 4.89453 7.21756 5.05415 6.91162 5.1619C6.60569 5.26963 6.2931 5.32283 5.9752 5.32283C5.65729 5.32283 5.33805 5.2683 5.03213 5.1619C4.72621 5.05415 4.45352 4.89453 4.21543 4.68171C3.97733 4.46889 3.78445 4.20285 3.63682 3.8823C3.48916 3.56173 3.41602 3.18929 3.41602 2.76365C3.41602 2.33799 3.48916 1.95891 3.63682 1.64101C3.78445 1.3231 3.97866 1.05708 4.21941 0.841592C4.46017 0.62611 4.73419 0.466493 5.04011 0.361411C5.34603 0.256331 5.65862 0.203125 5.97653 0.203125C6.29443 0.203125 6.61367 0.256331 6.9196 0.361411C7.22554 0.466493 7.49821 0.627439 7.7363 0.841592C7.9744 1.05708 8.16727 1.3231 8.31491 1.64101C8.46257 1.95891 8.53571 2.33268 8.53571 2.76365Z" fill="#D2A749"/>
<path d="M25.1393 3.77033C25.2789 3.906 25.4412 4.00842 25.6235 4.07892C25.8057 4.14941 25.9907 4.184 26.1781 4.184C26.3657 4.184 26.5558 4.14941 26.7355 4.07892C26.9151 4.00842 27.076 3.906 27.2156 3.77033C27.3566 3.63465 27.4697 3.46307 27.5562 3.25423C27.6427 3.04673 27.6838 2.80598 27.6785 2.53596V0.306641H27.616V2.53596C27.616 2.77406 27.5814 2.98421 27.5109 3.16777C27.4404 3.35 27.3486 3.50297 27.2343 3.62667C27.1198 3.75038 26.9895 3.84349 26.8446 3.90334C26.6996 3.96454 26.5518 3.99513 26.4029 3.99513C26.2539 3.99513 26.117 3.96585 25.9787 3.90734C25.8402 3.8488 25.7166 3.75968 25.6075 3.63732C25.4972 3.51627 25.4094 3.3633 25.3442 3.18107C25.2789 2.99884 25.2457 2.78335 25.2457 2.53596V0.306641H24.6777V2.53596C24.6777 2.8073 24.7204 3.04673 24.804 3.25423C24.8878 3.46174 25.001 3.63465 25.1406 3.77033" fill="#D2A749"/>
<path d="M21.3987 5.26361C21.1421 5.29686 20.8867 5.26892 20.6339 5.1798C20.3811 5.09069 20.155 4.94304 19.9543 4.73422C19.7533 4.52671 19.5897 4.25803 19.4634 3.93081C19.3369 3.60359 19.2745 3.21519 19.2745 2.76692C19.2745 2.3466 19.3289 1.97949 19.4394 1.66557C19.5499 1.35166 19.6948 1.09095 19.8745 0.88345C20.0539 0.675949 20.2602 0.51899 20.4916 0.41391C20.723 0.308829 20.9585 0.255623 21.1966 0.255623C21.4347 0.255623 21.6701 0.308829 21.9015 0.41391C22.1329 0.51899 22.3392 0.675949 22.5187 0.88345C22.6983 1.09095 22.8432 1.35299 22.9537 1.66557C23.064 1.97816 23.1187 2.34528 23.1187 2.76692C23.1187 3.04227 23.0853 3.32159 23.0202 3.60226C22.955 3.88292 22.8526 4.13831 22.7156 4.36974C22.5773 4.60119 22.4004 4.79805 22.1821 4.959C21.9653 5.11995 21.7047 5.22237 21.4 5.26361M26.952 5.20109C26.6927 5.2809 26.4227 5.32081 26.1421 5.32081C25.9451 5.32081 25.7417 5.30616 25.5287 5.27824C25.316 5.25029 25.0912 5.2197 24.8558 5.18646C24.619 5.15321 24.3703 5.12393 24.1082 5.09601C23.8463 5.06806 23.5642 5.05344 23.2596 5.05344C23.1093 5.05344 22.9537 5.05744 22.7901 5.06408C22.6265 5.07073 22.4575 5.08669 22.2846 5.1093C22.4948 5.02018 22.6889 4.90446 22.8672 4.76214C23.0455 4.61982 23.1998 4.45088 23.3341 4.25669C23.467 4.06248 23.5708 3.84035 23.6467 3.59029C23.7211 3.34022 23.7585 3.06488 23.7585 2.76561C23.7585 2.33597 23.6853 1.96086 23.5375 1.64296C23.3899 1.32506 23.1971 1.05903 22.959 0.843545C22.7209 0.628063 22.4482 0.468446 22.1423 0.363364C21.8364 0.258284 21.5211 0.205078 21.1992 0.205078C20.8773 0.205078 20.5687 0.258284 20.2628 0.363364C19.9569 0.468446 19.6828 0.629392 19.4421 0.843545C19.2013 1.05903 19.0071 1.32506 18.8595 1.64296C18.7118 1.96086 18.6387 2.33464 18.6387 2.76561C18.6387 3.19656 18.7185 3.60359 18.8768 3.93346C19.0364 4.26334 19.2451 4.53469 19.5046 4.74751C19.764 4.96033 20.0579 5.11464 20.3851 5.21041C20.7124 5.30616 21.0423 5.34208 21.3748 5.31947C21.4587 5.31414 21.5411 5.30616 21.6209 5.29553C21.7007 5.28355 21.7806 5.26892 21.859 5.25029C21.9573 5.241 22.0558 5.23433 22.1543 5.22902C22.2527 5.2237 22.3484 5.22237 22.4415 5.22237C22.7874 5.22237 23.1173 5.24765 23.4299 5.29951C23.7425 5.3514 24.043 5.40726 24.3316 5.46845C24.619 5.52963 24.8956 5.58549 25.159 5.63738C25.4238 5.68925 25.679 5.71452 25.9265 5.71452C26.259 5.71452 26.5769 5.64801 26.8802 5.515C27.1834 5.38199 27.4828 5.13325 27.7781 4.76746L27.7567 4.74618C27.4815 4.97098 27.2127 5.12262 26.9533 5.20243" fill="#D2A749"/>
<path d="M2.20006 4.49251C2.12291 4.68405 2.00585 4.84367 1.8489 4.97003C1.69194 5.0964 1.49508 5.15891 1.25565 5.15891H1.19314C1.04283 5.15891 0.927109 5.1536 0.841979 5.14162C0.758181 5.12965 0.694333 5.10304 0.653099 5.06047C0.610535 5.01792 0.585263 4.95939 0.57595 4.88224C0.56664 4.8051 0.56132 4.70135 0.56132 4.56965V2.58508H1.22107C1.46449 2.58508 1.66667 2.6476 1.82761 2.77398C1.98855 2.90034 2.11093 3.05862 2.19208 3.25148C2.27453 3.44302 2.31444 3.65053 2.31444 3.87266C2.31444 4.0948 2.27587 4.3023 2.19872 4.49384M0.562649 0.950345C0.562649 0.744174 0.581272 0.601848 0.618516 0.52204C0.65576 0.442233 0.751529 0.393017 0.905827 0.374395H1.13727C1.32881 0.374395 1.48843 0.4276 1.61479 0.532682C1.74115 0.637762 1.83293 0.769446 1.89146 0.929063C1.94998 1.08868 1.97792 1.2616 1.97526 1.44782C1.97259 1.63537 1.93935 1.80829 1.87417 1.96657C1.80899 2.12619 1.71322 2.25788 1.58952 2.36295C1.46582 2.46803 1.31285 2.52123 1.13062 2.52123H0.562649V0.950345ZM2.79596 3.318C2.70019 3.11981 2.54989 2.94689 2.34371 2.8019C2.13754 2.65691 1.87816 2.56781 1.56558 2.53588C1.80367 2.484 1.99787 2.39354 2.14817 2.26186C2.29716 2.13152 2.40356 1.98253 2.46741 1.81627C2.53126 1.65 2.54989 1.47841 2.52728 1.30017C2.50333 1.12193 2.43549 0.960987 2.32375 0.816002C2.21202 0.671015 2.0564 0.549974 1.85688 0.454202C1.65869 0.358433 1.4166 0.310547 1.13062 0.310547H0V0.942364C0 0.958326 0 0.974288 0 0.991579V4.5404C0 4.55769 0 4.57232 0 4.58962V5.22143H1.3195C1.66135 5.22143 1.94865 5.15891 2.18276 5.03522C2.41686 4.9115 2.59377 4.75588 2.71615 4.56832C2.83718 4.38078 2.90503 4.17594 2.91966 3.95114C2.93429 3.72636 2.89305 3.51485 2.7973 3.31666" fill="#D2A749"/>
<path d="M12.3204 0.306019C12.3204 0.336611 12.3244 0.365874 12.3244 0.397798V3.75641C12.3244 3.98519 12.2898 4.18736 12.2193 4.3603C12.1488 4.53321 12.057 4.6782 11.9426 4.79525C11.8282 4.9123 11.6979 5.00009 11.5529 5.05862C11.4079 5.11713 11.2603 5.14641 11.1113 5.14641C10.9623 5.14641 10.8253 5.11847 10.687 5.0626C10.5486 5.00673 10.4249 4.92161 10.3145 4.80721C10.2041 4.69283 10.1177 4.54784 10.0512 4.37226C9.98598 4.19668 9.95273 3.99184 9.95273 3.75906V0.306019H9.38477V3.75641C9.38477 4.01845 9.42732 4.24723 9.51113 4.44409C9.59492 4.64094 9.70798 4.80456 9.84764 4.93491C9.98732 5.06527 10.1496 5.16369 10.3318 5.2302C10.514 5.29538 10.6989 5.32864 10.8865 5.32864C11.074 5.32864 11.2643 5.29538 11.4438 5.2302C11.6234 5.16502 11.7843 5.0666 11.924 4.93491C12.0637 4.80456 12.1781 4.64094 12.2645 4.44409C12.351 4.24723 12.3922 4.01845 12.3869 3.75641V0.396468C12.3869 0.364545 12.3895 0.335282 12.3909 0.304688H12.3204V0.306019Z" fill="#D2A749"/>
<path d="M17.0144 5.12176C17.0144 5.15633 17.0144 5.18825 17.0117 5.21884H17.577C17.577 5.18825 17.5744 5.15633 17.5744 5.12176V0.338563C17.5744 0.327923 17.5744 0.317281 17.5744 0.306641H17.0117C17.0117 0.317281 17.0117 0.327923 17.0117 0.338563V5.12309L17.0144 5.12176Z" fill="#D2A749"/>
<path d="M30.5906 5.15227C30.5506 5.15491 30.5121 5.15758 30.4694 5.15758H30.2167C30.0664 5.15758 29.9494 5.15227 29.863 5.14028C29.7765 5.12832 29.7127 5.10171 29.67 5.05914C29.6275 5.01659 29.6009 4.95806 29.5889 4.88091C29.5769 4.80377 29.5715 4.70002 29.5715 4.56832V2.66756H30.8991C30.9243 2.66756 30.9483 2.66889 30.971 2.67154V2.60105C30.9483 2.60371 30.9243 2.60505 30.8991 2.60505H29.5715V0.374393H30.3856C30.419 0.374393 30.4494 0.377054 30.4814 0.378383H31.4763L31.4645 0.310547H29.0195V5.22009H31.5481V5.21345L31.5588 5.15227H30.5892H30.5906Z" fill="#D2A749"/>
<path d="M15.0885 0.367743H16.1766L16.1673 0.310547H13.4312L13.4219 0.367743H14.5272V2.2592H14.5192V5.21743H15.0872V0.374393H15.0885V0.367743Z" fill="#D2A749"/>
<path d="M32.4358 1.02953C32.2868 1.02953 32.1445 0.923118 32.1445 0.695663C32.1445 0.440276 32.3853 0.114392 32.5556 0L32.5702 0.0066507C32.3002 0.347168 32.7259 0.460229 32.7259 0.708966C32.7259 0.921789 32.5769 1.0282 32.4344 1.0282L32.4358 1.02953Z" fill="#D2A749"/>
<path d="M36.2163 5.15169L33.3152 5.15834C33.0878 3.94525 35.6283 3.02346 35.6283 1.15062C35.6283 0.490874 35.2386 0.199573 34.8049 0.199573C34.1811 0.199573 33.4575 0.795476 33.6344 1.73854L33.415 0.716998C33.6982 0.333916 34.2662 0.121094 34.8196 0.121094C35.5499 0.121094 36.2521 0.497523 36.2521 1.37675C36.2521 3.24959 33.7834 3.84548 33.4641 4.63293H35.5712C36.1459 4.63293 36.2735 4.28577 36.3866 3.92397L36.2163 5.15169Z" fill="#D2A749"/>
<path d="M38.2456 5.25122C37.558 5.25122 36.8901 4.88278 36.7559 4.05277L36.813 4.03149C36.9686 4.74844 37.53 5.10225 38.0833 5.10225C38.7151 5.10225 39.3389 4.63404 39.3389 3.70427C39.3389 3.03787 38.9559 2.5404 38.0048 2.49118V2.42734C38.8282 2.29964 39.1686 1.79552 39.1686 0.944232C39.1686 0.412175 38.7364 0.0716593 38.296 0.0716593C37.8279 0.0716593 37.345 0.448089 37.353 1.3486H37.3463L37.1696 0.490654C37.3757 0.186051 37.8572 0.0078125 38.3547 0.0078125C39.0423 0.0078125 39.7526 0.348329 39.738 1.15705C39.7233 1.84474 39.2698 2.31296 38.3187 2.44861C39.3616 2.46326 39.9641 2.89555 39.9641 3.72557C39.9641 4.69789 39.085 5.25122 38.2469 5.25122H38.2456Z" fill="#D2A749"/>
</g>
<defs>
<clipPath id="clip0_1023_63">
<rect width="40" height="5.71429" fill="white"/>
</clipPath>
</defs>
</svg>
