<svg width="245" height="82" viewBox="0 0 245 82" fill="none" xmlns="http://www.w3.org/2000/svg">
<g clip-path="url(#clip0_849_20)">
<path d="M95.1618 62.9924C100.568 62.9924 104.719 61.5972 107.576 58.7876C110.433 55.9781 112.422 52.2386 113.484 47.5494C114.565 42.8603 115.106 37.6869 115.106 32.029C115.106 26.371 114.565 21.1202 113.484 16.4699C112.403 11.8196 110.433 8.07989 107.576 5.2897C104.699 2.48014 100.568 1.08507 95.1618 1.08507C89.756 1.08507 85.5858 2.48014 82.6898 5.2897C79.7939 8.09926 77.8053 11.8196 76.7241 16.4699C75.6429 21.1202 75.1024 26.313 75.1024 32.029C75.1024 37.7451 75.6429 42.8603 76.7241 47.5494C77.8053 52.2386 79.7939 55.9781 82.6898 58.7876C85.5858 61.5972 89.756 62.9924 95.1618 62.9924ZM95.1618 63.9612C88.3081 63.9612 82.516 62.5274 77.7473 59.679C72.998 56.8113 69.3683 52.9747 66.897 48.1307C64.4066 43.306 63.1709 37.9194 63.1709 32.029C63.1709 26.1386 64.4066 20.7714 66.897 15.9273C69.3683 11.1026 72.998 7.22734 77.7473 4.34028C82.516 1.45321 88.3081 0 95.1618 0C102.016 0 107.788 1.45321 112.518 4.34028C117.248 7.22734 120.84 11.0832 123.33 15.9273C125.801 20.7714 127.037 26.1386 127.037 32.029C127.037 37.9194 125.801 43.2866 123.33 48.1307C120.859 52.9555 117.248 56.8113 112.518 59.679C107.788 62.5467 101.996 63.9612 95.1618 63.9612Z" fill="white"/>
<path d="M200.325 44.1188L200.403 43.8861L200.788 42.8011H200.808L211.06 13.5623L223.994 42.6461L224.554 43.8861L224.594 43.9637L232.973 62.9914H245L217.7 1.08398H215.171L189.146 62.9914H193.741L200.325 44.1188Z" fill="white"/>
<path d="M30.717 32.1248C33.9026 31.7759 36.8371 31.0591 39.5207 29.9546C42.185 28.8695 44.3667 27.2614 46.027 25.13C47.6874 22.9986 48.5175 20.2278 48.5175 16.8175C48.5175 12.5741 47.3013 9.31884 44.8494 7.05181C42.3974 4.78478 39.3084 3.21533 35.5628 2.36277C31.8173 1.51021 27.9561 1.08398 23.979 1.08398H0.0195312V62.9914H11.4683V2.14965H23.979C27.821 2.14965 30.8714 3.50595 33.1303 6.21864C35.3698 8.93132 36.5089 12.4579 36.5089 16.8369C36.5089 21.216 35.2347 24.7425 32.6863 27.4552C30.1378 30.1678 27.2418 31.5242 23.979 31.5242H17.5113L38.343 63.0108H51.8383L30.717 32.1442V32.1248Z" fill="white"/>
<path d="M166.538 62.9914H155.09V32.9192L134.837 1.08398H148.139L166.442 30.1871L182.177 1.08398H186.771L166.538 32.1248V62.9914Z" fill="white"/>
<path d="M0 73.125H1.96927V80.2942H5.50237V81.8445H0V73.125Z" fill="white"/>
<path d="M12.8392 73.125H10.8506V81.8445H12.8392V73.125Z" fill="white"/>
<path d="M18.7275 73.125H24.3071V74.6751H20.6968V76.981H23.5542V78.4729H20.6968V81.8445H18.7275V73.125Z" fill="white"/>
<path d="M29.6162 73.125H35.273V74.6558H31.5662V76.7096H34.5393V78.1434H31.5662V80.3137H35.4661V81.8445H29.6162V73.125Z" fill="white"/>
<path d="M40.293 79.1132H42.1658C42.2429 79.8883 42.5712 80.547 43.8646 80.547C44.7336 80.547 45.2934 80.0626 45.2934 79.3844C45.2934 78.7062 44.9265 78.4545 43.6524 78.2413C41.4321 77.9506 40.5247 77.2726 40.5247 75.5867C40.5247 74.0948 41.7602 72.9902 43.691 72.9902C45.6216 72.9902 46.78 73.8623 46.9538 75.6062H45.1389C45.0231 74.8117 44.5598 74.4435 43.691 74.4435C42.8221 74.4435 42.3974 74.8504 42.3974 75.4317C42.3974 76.0517 42.6676 76.3425 44.0191 76.5363C46.1235 76.8075 47.2047 77.3693 47.2047 79.1908C47.2047 80.7409 45.9499 81.9615 43.884 81.9615C41.5093 81.9615 40.4089 80.8376 40.293 79.0938" fill="white"/>
<path d="M54.0577 74.6558H51.7217V73.125H58.3823V74.6558H56.0463V81.8445H54.0577V74.6558Z" fill="white"/>
<path d="M65.8165 78.0852L62.959 73.125H65.1214L66.8782 76.4771L68.5966 73.125H70.5079L67.805 78.0852V81.8445H65.8165V78.0852Z" fill="white"/>
<path d="M75.6045 73.125H77.5544V80.2942H81.0876V81.8445H75.6045V73.125Z" fill="white"/>
<path d="M86.3965 73.125H92.0532V74.6558H88.3464V76.7096H91.3004V78.1434H88.3464V80.3137H92.2464V81.8445H86.3965V73.125Z" fill="white"/>
<path d="M107.017 80.3137C108.773 80.3137 109.584 79.3256 109.584 77.5235V77.4265C109.584 75.6246 108.812 74.6751 106.978 74.6751H106.206V80.3137H107.017ZM104.256 73.125H107.094C110.144 73.125 111.65 74.7913 111.65 77.3878V77.4848C111.65 80.1006 110.125 81.8445 107.075 81.8445H104.236V73.125H104.256Z" fill="white"/>
<path d="M117.075 73.125H122.732V74.6558H119.025V76.7096H121.979V78.1434H119.025V80.3137H122.925V81.8445H117.075V73.125Z" fill="white"/>
<path d="M127.578 73.125H129.663L131.729 79.8293L133.795 73.125H135.629L132.752 81.8445H130.493L127.578 73.125Z" fill="white"/>
<path d="M140.803 73.125H146.46V74.6558H142.753V76.7096H145.707V78.1434H142.753V80.3137H146.653V81.8445H140.803V73.125Z" fill="white"/>
<path d="M152.02 73.125H153.99V80.2942H157.522V81.8445H152.02V73.125Z" fill="white"/>
<path d="M168.952 77.5246V77.4277C168.952 75.7226 168.045 74.5795 166.54 74.5795C165.033 74.5795 164.126 75.6839 164.126 77.447V77.5441C164.126 79.3267 165.149 80.4116 166.558 80.4116C167.967 80.4116 168.952 79.2879 168.952 77.5246ZM162.06 77.5441V77.447C162.06 74.8507 163.951 73.0098 166.52 73.0098C169.087 73.0098 170.998 74.7731 170.998 77.4083V77.5052C170.998 80.1017 169.222 82.0005 166.52 82.0005C163.817 82.0005 162.06 80.1017 162.06 77.5635" fill="white"/>
<path d="M179.377 77.2911C180.343 77.2911 180.844 76.8259 180.844 75.954V75.8957C180.844 74.9657 180.303 74.5977 179.377 74.5977H178.372V77.2716H179.377V77.2911ZM176.423 73.125H179.416C181.539 73.125 182.737 74.0551 182.737 75.9151V75.954C182.737 77.7947 181.461 78.6861 179.474 78.6861H178.372V81.8638H176.423V73.1444V73.125Z" fill="white"/>
<path d="M188.006 73.125H190.613L192.64 78.5504L194.648 73.125H197.196V81.8445H195.246V75.7214L192.833 81.8445H192.195L189.783 75.7214V81.8445H188.006V73.125Z" fill="white"/>
<path d="M203.065 73.125H208.742V74.6558H205.035V76.7096H207.99V78.1434H205.035V80.3137H208.935V81.8445H203.065V73.125Z" fill="white"/>
<path d="M214.304 73.125H216.582L219.882 78.8797V73.125H221.64V81.8445H219.671L216.04 75.6439V81.8445H214.304V73.125Z" fill="white"/>
<path d="M229.187 74.6558H226.852V73.125H233.512V74.6558H231.176V81.8445H229.187V74.6558Z" fill="white"/>
<path d="M238.068 79.1132H239.942C240.019 79.8883 240.346 80.547 241.64 80.547C242.509 80.547 243.069 80.0626 243.069 79.3844C243.069 78.7062 242.702 78.4545 241.428 78.2413C239.208 77.9506 238.301 77.2726 238.301 75.5867C238.301 74.0948 239.537 72.9902 241.466 72.9902C243.397 72.9902 244.556 73.8623 244.729 75.6062H242.915C242.799 74.8117 242.335 74.4435 241.466 74.4435C240.597 74.4435 240.173 74.8504 240.173 75.4317C240.173 76.0517 240.444 76.3425 241.795 76.5363C243.9 76.8075 244.98 77.3693 244.98 79.1908C244.98 80.7409 243.726 81.9615 241.66 81.9615C239.286 81.9615 238.184 80.8376 238.068 79.0938" fill="white"/>
</g>
<defs>
<clipPath id="clip0_849_20">
<rect width="245" height="82" fill="white"/>
</clipPath>
</defs>
</svg>
