<svg width="26" height="26" viewBox="0 0 26 26" fill="none" xmlns="http://www.w3.org/2000/svg">
<path fill-rule="evenodd" clip-rule="evenodd" d="M1.72853 1.38264L0 2.75217V13.0014V23.2507L1.7529 24.6168C2.71701 25.3683 3.52116 25.983 3.54002 25.983C3.55877 25.983 3.57424 20.1359 3.57424 12.9894C3.57424 5.84288 3.54787 -0.000353037 3.51565 0.00437192C3.48342 0.00921499 2.67927 0.629365 1.72853 1.38264ZM7.35356 1.3661L5.62504 2.72795V7.5102C5.62504 11.5073 5.65117 12.2768 5.7843 12.1979C5.87184 12.146 6.66274 11.5453 7.54188 10.8631L9.14033 9.62284L9.14056 4.80929C9.14056 2.1619 9.12744 -0.00236054 9.11139 1.9323e-06C9.09533 0.00224628 8.30431 0.616962 7.35356 1.3661ZM13.8868 0.653345C13.4356 1.00464 12.6318 1.62503 12.1006 2.03185L11.1348 2.77166L11.135 12.9894L11.1351 23.2071L12.1007 23.9535C12.632 24.364 13.4488 24.9924 13.9161 25.35L14.7657 26V12.9979C14.7657 5.84666 14.7525 1.78086e-06 14.7364 0.00519923C14.7204 0.0102786 14.338 0.302044 13.8868 0.653345ZM18.6036 1.39256L16.8751 2.74957V12.9993V23.249L18.6036 24.602L20.3322 25.955L20.3624 19.4721C20.3792 15.9067 20.3792 10.0748 20.3624 6.51252L20.3322 0.0356747L18.6036 1.39256ZM24.258 1.33799L22.5587 2.66665L22.5001 12.948L22.4415 23.2293L24.1994 24.6044L25.9572 25.9796L25.9874 19.4844C26.0042 15.9121 26.0042 10.0689 25.9874 6.49929L25.9572 0.00933309L24.258 1.33799ZM5.65305 18.5019L5.68363 23.3188L7.08989 24.4216C7.86333 25.0281 8.64123 25.6312 8.81842 25.7617L9.14068 25.9991L9.13576 21.1775L9.13096 16.3559L7.53755 15.1156C6.66121 14.4334 5.87183 13.8324 5.78324 13.7801C5.64777 13.6999 5.62726 14.4447 5.65305 18.5019Z" fill="#D2A749"/>
</svg>
