<svg width="1500" height="1500" viewBox="0 0 1500 1500" fill="none" xmlns="http://www.w3.org/2000/svg">
<path d="M509.36 624.982H381.05V568.582H594.9V586.912H593.96H509.36V624.982Z" fill="#BFBFBF" stroke="black" stroke-width="0.94"/>
<path d="M893.82 942.936C879.172 941.135 849.875 943.641 849.875 968.081C849.875 992.521 878.232 996.595 892.41 995.576" stroke="black" stroke-width="0.94"/>
<path d="M893.82 1040.23C879.172 1038.42 849.875 1040.93 849.875 1065.37C849.875 1089.81 878.232 1093.88 892.41 1092.87" stroke="black" stroke-width="0.94"/>
<path d="M893.82 938.082C874.864 935.935 836.95 938.922 836.95 968.048C836.95 997.174 873.647 1002.03 891.995 1000.81" stroke="black" stroke-width="0.94"/>
<path d="M893.82 1035.37C874.864 1033.23 836.95 1036.21 836.95 1065.34C836.95 1094.46 873.647 1099.32 891.995 1098.11" stroke="black" stroke-width="0.94"/>
<path d="M711.46 597.723H819.56" stroke="black" stroke-width="0.94"/>
<path d="M712.4 595.137L792.3 529.807C799.35 538.032 813.45 562.613 813.45 595.137" stroke="black" stroke-width="0.94"/>
<path d="M729.32 781.021H854.575" stroke="black" stroke-width="0.94"/>
<path d="M730.495 779.143L836.95 702.768C842.433 717.573 853.4 753.951 853.4 781.023" stroke="black" stroke-width="0.94"/>
<path d="M48.7598 785.018C64.8964 787.211 102.34 794.888 123.02 808.048L48.7598 940.353" stroke="black" stroke-width="0.94"/>
<rect x="593.96" y="251.332" width="861.04" height="26.32" fill="black"/>
<rect x="427.58" y="1168.77" width="1027.42" height="79.9" fill="black"/>
<rect x="427.58" y="957.742" width="26.79" height="211.03" fill="black"/>
<rect x="534.27" y="938.002" width="26.79" height="489.27" transform="rotate(90 534.27 938.002)" fill="black"/>
<rect x="381.99" y="762.691" width="26.79" height="336.99" transform="rotate(90 381.99 762.691)" fill="black"/>
<rect x="381.99" y="762.691" width="26.79" height="219.96" transform="rotate(-180 381.99 762.691)" fill="black"/>
<rect x="381.99" y="569.521" width="26.79" height="236.41" transform="rotate(-90 381.99 569.521)" fill="black"/>
<rect x="812.98" y="603.832" width="18.8" height="202.1" transform="rotate(-90 812.98 603.832)" fill="black"/>
<rect x="852.46" y="762.223" width="21.62" height="599.25" transform="rotate(-90 852.46 762.223)" fill="black"/>
<rect x="618.4" y="641.432" width="55.93" height="97.29" transform="rotate(-90 618.4 641.432)" fill="black"/>
<rect x="693.13" y="789.482" width="148.05" height="22.56" transform="rotate(-90 693.13 789.482)" fill="black"/>
<rect x="715.69" y="789.482" width="25.85" height="15.51" transform="rotate(-90 715.69 789.482)" fill="black"/>
<rect x="852.46" y="789.482" width="27.26" height="15.51" transform="rotate(-90 852.46 789.482)" fill="black"/>
<rect x="593.96" y="789.482" width="148.05" height="19.74" transform="rotate(-90 593.96 789.482)" fill="black"/>
<rect x="499.96" y="774.441" width="94" height="15.04" fill="black"/>
<rect x="381.99" y="774.441" width="33.84" height="15.04" fill="black"/>
<rect x="593.96" y="277.652" width="26.79" height="363.78" fill="black"/>
<rect x="913.56" y="277.652" width="26.79" height="326.18" fill="black"/>
<rect x="1450.77" y="277.652" width="4.23" height="891.12" fill="black"/>
<rect x="45" y="789.482" width="4.23" height="148.52" fill="black"/>
<path d="M414.42 782.198L492.205 726.268C495.495 735.354 502.075 758.369 502.075 777.733" stroke="black" stroke-width="0.94"/>
<path d="M413.01 784.076H503.955" stroke="black" stroke-width="0.94"/>
<rect x="818.15" y="277.652" width="7.52" height="307.85" fill="black"/>
<rect x="842.12" y="276.241" width="58.75" height="12.69" stroke="black" stroke-width="0.94"/>
<path d="M976.775 277.416L976.814 592.316" stroke="black" stroke-width="0.94"/>
<path d="M998.865 503.338L977.04 494.494L956.33 503.338" stroke="black" stroke-width="0.94"/>
<path d="M998.865 517.735L977.04 508.891L956.33 517.735" stroke="black" stroke-width="0.94"/>
<path d="M998.865 532.305L977.04 523.461L956.33 532.305" stroke="black" stroke-width="0.94"/>
<path d="M998.865 546.875L977.04 538.031L956.33 546.875" stroke="black" stroke-width="0.94"/>
<path d="M998.865 561.446L977.04 552.602L956.33 561.446" stroke="black" stroke-width="0.94"/>
<path d="M998.865 488.864L977.04 480.02L956.33 488.864" stroke="black" stroke-width="0.94"/>
<path d="M998.865 474.393L977.04 465.549L956.33 474.393" stroke="black" stroke-width="0.94"/>
<path d="M998.865 459.922L977.04 451.078L956.33 459.922" stroke="black" stroke-width="0.94"/>
<path d="M998.865 445.448L977.04 436.604L956.33 445.448" stroke="black" stroke-width="0.94"/>
<path d="M998.865 430.977L977.04 422.133L956.33 430.977" stroke="black" stroke-width="0.94"/>
<path d="M998.865 416.502L977.04 407.658L956.33 416.502" stroke="black" stroke-width="0.94"/>
<path d="M998.865 402.032L977.04 393.188L956.33 402.032" stroke="black" stroke-width="0.94"/>
<path d="M998.865 387.561L977.04 378.717L956.33 387.561" stroke="black" stroke-width="0.94"/>
<path d="M998.865 373.086L977.04 364.242L956.33 373.086" stroke="black" stroke-width="0.94"/>
<path d="M998.865 358.616L977.04 349.771L956.33 358.616" stroke="black" stroke-width="0.94"/>
<path d="M998.865 345.094L977.04 336.25L956.33 345.094" stroke="black" stroke-width="0.94"/>
<path d="M998.865 330.526L977.04 321.682L956.33 330.526" stroke="black" stroke-width="0.94"/>
<path d="M998.865 316.895L977.04 308.051L956.33 316.895" stroke="black" stroke-width="0.94"/>
<path d="M998.865 302.325L977.04 293.48L956.33 302.325" stroke="black" stroke-width="0.94"/>
<path d="M1014.61 274.832L1014.61 589.262" stroke="black" stroke-width="0.94"/>
<rect x="620.282" y="277.181" width="198.34" height="82.72" fill="#BFBFBF" stroke="black" stroke-width="0.94"/>
<rect x="686.47" y="282.351" width="75.2" height="63.92" fill="#BFBFBF" stroke="black" stroke-width="0.94"/>
<path d="M723.558 315.502C721.377 315.502 719.574 313.643 719.574 311.306C719.574 308.968 721.377 307.11 723.558 307.11C725.739 307.11 727.542 308.968 727.542 311.306C727.542 313.643 725.739 315.502 723.558 315.502Z" stroke="black" stroke-width="0.915047"/>
<path d="M722 288.038L722 280L725.596 280L725.596 288.038M722 288.038L725.596 288.038M722 288.038L722 293.537M725.596 288.038L725.596 293.537M725.596 293.537L725.596 302.421L722 302.421L722 293.537M725.596 293.537L722 293.537" stroke="black" stroke-width="0.915047"/>
<path d="M533.801 1092.32V964.322H453.901L453.901 1169.24H760.811V939.412H680.717V1092.32H533.801Z" fill="#BFBFBF" stroke="black" stroke-width="0.94"/>
<path d="M454.137 1014.61H534.037" stroke="black" stroke-width="0.94"/>
<path d="M612.762 1163.37V1100.15H675.742V1163.37H612.762Z" fill="#BFBFBF" stroke="black" stroke-width="0.94"/>
<circle cx="628.506" cy="1118.72" r="6.345" transform="rotate(-180 628.506 1118.72)" stroke="black" stroke-width="0.94"/>
<circle cx="659.997" cy="1146.92" r="6.345" transform="rotate(-180 659.997 1146.92)" stroke="black" stroke-width="0.94"/>
<path d="M646.131 1118.25C646.131 1112.15 651.076 1107.2 657.176 1107.2C663.276 1107.2 668.221 1112.15 668.221 1118.25C668.221 1124.35 663.276 1129.29 657.176 1129.29C651.076 1129.29 646.131 1124.35 646.131 1118.25Z" stroke="black" stroke-width="0.94"/>
<path d="M620.282 1146.45C620.282 1140.35 625.227 1135.4 631.327 1135.4C637.427 1135.4 642.372 1140.35 642.372 1146.45C642.372 1152.55 637.427 1157.49 631.327 1157.49C625.227 1157.49 620.282 1152.55 620.282 1146.45Z" stroke="black" stroke-width="0.94"/>
<rect x="0.47" y="-0.47" width="72.2" height="63.92" transform="matrix(1 0 0 -1 534 1163.92)" fill="#BFBFBF" stroke="black" stroke-width="0.94"/>
<path d="M571.267 1129.46C569.2 1129.46 567.458 1131.3 567.458 1133.65C567.458 1136.01 569.2 1137.85 571.267 1137.85C573.335 1137.85 575.077 1136.01 575.077 1133.65C575.077 1131.3 573.335 1129.46 571.267 1129.46Z" stroke="black" stroke-width="0.915047"/>
<path d="M569 1158.75L569 1167L573 1167L573 1158.75M569 1158.75L573 1158.75M569 1158.75L569 1153.11M573 1158.75L573 1153.11M573 1153.11L573 1144L569 1144L569 1153.11M573 1153.11L569 1153.11" stroke="black" stroke-width="0.915047"/>
<rect x="891" y="919.202" width="99.64" height="196.46" fill="#BFBFBF" stroke="black" stroke-width="0.94"/>
<rect x="613.23" y="640.962" width="80.37" height="75.2" fill="#BFBFBF" stroke="black" stroke-width="0.94"/>
<circle cx="653.415" cy="678.327" r="23.265" fill="#BFBFBF" stroke="black" stroke-width="0.94"/>
<rect x="515.47" y="586.911" width="14.1" height="8.46" stroke="black" stroke-width="0.94"/>
<rect x="643.78" y="514.061" width="14.1" height="8.46" transform="rotate(-90 643.78 514.061)" stroke="black" stroke-width="0.94"/>
<rect x="538.5" y="586.911" width="31.96" height="7.99" stroke="black" stroke-width="0.94"/>
<rect x="643.78" y="491.503" width="31.96" height="7.99" transform="rotate(-90 643.78 491.503)" stroke="black" stroke-width="0.94"/>
<path d="M534.74 594.902H575.16V626.862C575.16 638.023 566.111 647.072 554.95 647.072C543.788 647.072 534.74 638.023 534.74 626.862V594.902Z" stroke="black" stroke-width="0.94"/>
<path d="M651.77 495.262L651.77 454.842L683.73 454.842C694.891 454.842 703.94 463.891 703.94 475.052C703.94 486.214 694.891 495.262 683.73 495.262L651.77 495.262Z" stroke="black" stroke-width="0.94"/>
<rect x="620.28" y="430.872" width="23.5" height="87.89" stroke="black" stroke-width="0.94"/>
<rect x="1051.27" y="851.523" width="363.78" height="289.52" stroke="black" stroke-width="0.94"/>
<rect x="1203.55" y="888.183" width="85.07" height="65.33" stroke="black" stroke-width="0.94"/>
<circle cx="1230.81" cy="964.792" r="49.82" fill="#BFBFBF" stroke="black" stroke-width="0.94"/>
<path d="M1295.84 845.443C1294.69 844.035 1294.9 841.963 1296.31 840.815L1334.76 809.464C1344.42 801.591 1358.63 803.037 1366.5 812.694L1381.71 831.339C1388.1 839.185 1386.93 850.731 1379.08 857.128L1337.35 891.151C1335.94 892.299 1333.87 892.089 1332.72 890.68L1295.84 845.443Z" fill="#BFBFBF" stroke="black" stroke-width="0.94"/>
<path d="M1299.57 850.023C1298.42 848.615 1298.63 846.543 1300.04 845.395L1334.8 817.056C1340.63 812.3 1349.22 813.173 1353.98 819.008L1370.33 839.062C1375.08 844.896 1374.21 853.482 1368.37 858.239L1333.62 886.577C1332.21 887.725 1330.14 887.514 1328.99 886.106L1299.57 850.023Z" fill="#BFBFBF" stroke="black" stroke-width="0.94"/>
<path d="M1326.59 934.567C1327.35 932.914 1329.3 932.185 1330.95 932.94L1376.09 953.538C1387.42 958.711 1392.42 972.093 1387.24 983.428L1377.26 1005.31C1373.05 1014.52 1362.18 1018.58 1352.97 1014.38L1303.99 992.024C1302.33 991.27 1301.61 989.318 1302.36 987.665L1326.59 934.567Z" fill="#BFBFBF" stroke="black" stroke-width="0.94"/>
<path d="M1324.14 939.94C1324.89 938.287 1326.84 937.558 1328.5 938.313L1369.3 956.932C1376.14 960.057 1379.16 968.143 1376.04 974.991L1365.29 998.53C1362.17 1005.38 1354.08 1008.4 1347.24 1005.27L1306.44 986.652C1304.78 985.897 1304.06 983.946 1304.81 982.293L1324.14 939.94Z" fill="#BFBFBF" stroke="black" stroke-width="0.94"/>
<path d="M1043.51 912.857V1029.42V1130.7C1043.51 1144.43 1054.79 1147.7 1060.43 1147.62H1328.1C1337.5 1147.62 1342.36 1137.28 1343.61 1132.11V1061.14C1343.61 1048.92 1333.27 1045.71 1328.1 1045.63H1177.23C1156.93 1045.63 1150.6 1032.31 1149.97 1025.66V912.857C1149.97 899.509 1139.94 894.292 1134.93 893.352H1057.85C1045.44 893.352 1043.12 906.355 1043.51 912.857Z" fill="#BFBFBF" stroke="black" stroke-width="0.94"/>
<rect x="1204.49" y="1112.37" width="128.31" height="28.67" stroke="black" stroke-width="0.94"/>
<rect x="1069.13" y="1112.37" width="128.31" height="28.67" stroke="black" stroke-width="0.94"/>
<rect x="1079.94" y="908.392" width="146.64" height="28.67" transform="rotate(90 1079.94 908.392)" stroke="black" stroke-width="0.94"/>
<path d="M1089.58 1117.26C1091.64 1098.09 1081.19 1078.1 1075.71 1070.5C1071.39 1065.23 1062.63 1065.49 1058.79 1066.27C1054.87 1066.66 1047.04 1071.91 1047.04 1089.77C1047.04 1107.63 1059.57 1126.35 1065.84 1133.48C1072.89 1136.06 1087.51 1136.44 1089.58 1117.26Z" fill="#BFBFBF" stroke="black" stroke-width="0.94"/>
<path d="M1100.86 1098.51C1102.92 1079.33 1092.47 1059.34 1086.99 1051.74C1082.67 1046.48 1073.91 1046.73 1070.07 1047.51C1066.15 1047.9 1058.32 1053.15 1058.32 1071.01C1058.32 1088.87 1070.85 1107.59 1077.12 1114.72C1084.17 1117.31 1098.79 1117.68 1100.86 1098.51Z" fill="#BFBFBF" stroke="black" stroke-width="0.94"/>
<rect x="1062.08" y="761.751" width="334.17" height="27.73" fill="#BFBFBF" stroke="black" stroke-width="0.94"/>
<rect x="1379.33" y="741.073" width="334.17" height="27.73" transform="rotate(-180 1379.33 741.073)" fill="#BFBFBF" stroke="black" stroke-width="0.94"/>
<rect x="1144.33" y="789.951" width="195.05" height="3.76" fill="black"/>
<rect x="1297.08" y="712.871" width="195.05" height="3.76" transform="rotate(-180 1297.08 712.871)" fill="black"/>
<rect x="1038.11" y="294.574" width="362.84" height="353.91" stroke="black" stroke-width="0.94"/>
<rect x="1336.09" y="283.292" width="248.63" height="227.48" transform="rotate(90 1336.09 283.292)" fill="#BFBFBF" stroke="black" stroke-width="0.94"/>
<path d="M1336.56 357.553L1108.61 357.553" stroke="black" stroke-width="0.94"/>
<path d="M1300.51 335.933L1305.44 335.933C1308.56 335.933 1311.08 333.408 1311.08 330.293L1311.08 291.753C1311.08 288.638 1308.56 286.113 1305.44 286.113L1239.17 286.113C1236.06 286.113 1233.53 288.638 1233.53 291.753L1233.53 330.293C1233.53 333.408 1236.06 335.933 1239.17 335.933L1244.11 335.933" stroke="black" stroke-width="0.94"/>
<path d="M1197.11 335.933L1202.04 335.933C1205.16 335.933 1207.68 333.408 1207.68 330.293L1207.68 291.753C1207.68 288.638 1205.16 286.113 1202.04 286.113L1135.77 286.113C1132.66 286.113 1130.13 288.638 1130.13 291.753L1130.13 330.293C1130.13 333.408 1132.66 335.933 1135.77 335.933L1140.71 335.933" stroke="black" stroke-width="0.94"/>
<rect x="1300.27" y="321.833" width="31.02" height="55.46" rx="3.29" transform="rotate(90 1300.27 321.833)" stroke="black" stroke-width="0.94"/>
<rect x="1196.87" y="321.833" width="31.02" height="55.46" rx="3.29" transform="rotate(90 1196.87 321.833)" stroke="black" stroke-width="0.94"/>
<path d="M1335.15 372.594L1108.14 372.594" stroke="black" stroke-width="0.94"/>
<rect x="1120.83" y="543.673" width="199.28" height="50.29" fill="#BFBFBF" stroke="black" stroke-width="0.94"/>
<rect x="1128.35" y="550.722" width="182.36" height="37.6" fill="#BFBFBF" stroke="black" stroke-width="0.94"/>
<rect x="1020.25" y="282.353" width="81.78" height="57.81" fill="#BFBFBF" stroke="black" stroke-width="0.94"/>
<rect x="1425.39" y="341.102" width="81.78" height="57.81" transform="rotate(-180 1425.39 341.102)" fill="#BFBFBF" stroke="black" stroke-width="0.94"/>
<circle cx="1078.53" cy="311.023" r="17.86" fill="#BFBFBF" stroke="black" stroke-width="0.94"/>
<circle cx="1367.11" cy="312.434" r="17.86" transform="rotate(-180 1367.11 312.434)" fill="#BFBFBF" stroke="black" stroke-width="0.94"/>
</svg>
