<svg width="1500" height="1500" viewBox="0 0 1500 1500" fill="none" xmlns="http://www.w3.org/2000/svg">
<path d="M637.657 914.666H558.144V929.226H735.334V881.16H637.657V914.666Z" fill="#BFBFBF" stroke="black" stroke-width="0.814669"/>
<path d="M754.476 927.189C754.815 915.648 757.775 888.207 766.899 870.773L838.386 928.411" stroke="black" stroke-width="0.814669"/>
<path d="M740.22 778.514C725.692 778.649 693.458 780.958 680.749 789.104L740.22 865.887" stroke="black" stroke-width="0.814669"/>
<path d="M365.881 843.078C365.949 855.502 365.229 884.137 361.808 899.29L300.911 843.078" stroke="black" stroke-width="0.814669"/>
<path d="M437.572 945.316C423.995 945.044 390.892 947.597 367.104 959.98L438.794 1037.78" stroke="black" stroke-width="0.814669"/>
<path d="M198.468 274.639L203.763 275.336M203.763 275.336L319.039 290.525L228 207.836C216.431 221.197 207.022 258.403 203.763 275.336Z" stroke="black" stroke-width="0.814669"/>
<rect x="177.692" y="110.893" width="25.6621" height="973.529" fill="black"/>
<rect x="138.996" y="277.9" width="38.6968" height="806.522" fill="black"/>
<rect x="203.357" y="1041.24" width="780.453" height="43.1775" fill="black"/>
<rect x="953.667" y="1084.42" width="30.1427" height="304.686" fill="black"/>
<rect x="983.808" y="1367.11" width="22.4034" height="21.9961" fill="black"/>
<rect x="1107.64" y="1367.11" width="253.362" height="21.9961" fill="black"/>
<rect x="1361" y="359.365" width="1009.37" height="21.996" transform="rotate(90 1361 359.365)" fill="black"/>
<rect x="910.487" y="256.719" width="65.1735" height="681.878" fill="black"/>
<rect x="842.465" y="921.486" width="68.0248" height="17.108" fill="black"/>
<rect x="842.465" y="685.641" width="68.0248" height="17.108" fill="black"/>
<rect x="751.627" y="869.35" width="68.0248" height="16.7007" transform="rotate(90 751.627 869.35)" fill="black"/>
<rect x="749.996" y="686.049" width="84.7256" height="16.7007" transform="rotate(90 749.996 686.049)" fill="black"/>
<rect x="733.297" y="702.748" width="174.746" height="16.7007" transform="rotate(-180 733.297 702.748)" fill="black"/>
<rect x="751.627" y="945.521" width="209.777" height="16.7007" transform="rotate(-180 751.627 945.521)" fill="black"/>
<rect x="541.851" y="928.822" width="588.598" height="16.7007" transform="rotate(-90 541.851 928.822)" fill="black"/>
<rect x="430.648" y="942.264" width="277.802" height="12.6274" transform="rotate(-90 430.648 942.264)" fill="black"/>
<rect x="371.177" y="930.043" width="89.6136" height="12.6274" transform="rotate(-90 371.177 930.043)" fill="black"/>
<rect x="644.908" y="1041.24" width="98.5749" height="8.14669" transform="rotate(-90 644.908 1041.24)" fill="black"/>
<rect x="739.406" y="871.389" width="100.612" height="4.48068" transform="rotate(-90 739.406 871.389)" fill="black"/>
<rect x="1129.23" y="1376.07" width="98.5749" height="4.88802" transform="rotate(-90 1129.23 1376.07)" fill="black"/>
<rect x="1006.21" y="1384.22" width="101.426" height="4.88801" fill="black"/>
<path d="M1008.25 1385.44L1092.77 1301.53C1096.5 1314.02 1104.01 1348.05 1104.18 1384.22" stroke="black" stroke-width="0.814669"/>
<rect x="435.131" y="1043.69" width="101.426" height="8.14669" transform="rotate(-90 435.131 1043.69)" fill="black"/>
<rect x="288.898" y="914.156" width="177.598" height="4.48069" transform="rotate(-90 288.898 914.156)" fill="black"/>
<rect x="292.967" y="840.426" width="79.4302" height="4.48068" fill="black"/>
<rect x="746.737" y="925.967" width="98.5749" height="8.14669" fill="black"/>
<rect x="371.177" y="917.414" width="72.0982" height="12.6274" fill="black"/>
<rect x="371.177" y="840.426" width="72.0982" height="12.6274" fill="black"/>
<rect x="1125.15" y="1178.52" width="213.851" height="25.6621" fill="black"/>
<rect x="203.357" y="914.156" width="90.0209" height="12.6274" fill="black"/>
<rect x="1125.15" y="1110.09" width="17.108" height="68.4322" fill="black"/>
<rect x="1198.06" y="1204.18" width="13.0347" height="73.3202" fill="black"/>
<rect x="1198.06" y="1264.46" width="13.0347" height="73.3202" transform="rotate(90 1198.06 1264.46)" fill="black"/>
<rect x="1306.01" y="1203.77" width="33.4014" height="163.748" fill="#BFBFBF" stroke="black" stroke-width="0.814669"/>
<rect x="1284.42" y="1291.35" width="45.6215" height="59.0635" fill="#BFBFBF" stroke="black" stroke-width="0.814669"/>
<rect x="1215.99" y="1203.77" width="17.5154" height="10.5907" stroke="black" stroke-width="0.814669"/>
<rect x="207.427" y="736.966" width="12.6274" height="10.5907" stroke="black" stroke-width="0.814669"/>
<rect x="1243.69" y="1203.77" width="38.6968" height="9.77603" stroke="black" stroke-width="0.814669"/>
<rect x="227.796" y="736.966" width="38.6968" height="9.77603" stroke="black" stroke-width="0.814669"/>
<rect x="609.873" y="914.563" width="28.1061" height="6.92468" transform="rotate(-180 609.873 914.563)" stroke="black" stroke-width="0.814669"/>
<path d="M1239.21 1213.55H1288.09V1256.32C1288.09 1267.34 1279.15 1276.28 1268.13 1276.28H1259.17C1248.15 1276.28 1239.21 1267.34 1239.21 1256.32V1213.55Z" stroke="black" stroke-width="0.814669"/>
<path d="M223.313 746.741H272.193V789.511C272.193 800.535 263.257 809.471 252.233 809.471H243.272C232.249 809.471 223.313 800.535 223.313 789.511V746.741Z" stroke="black" stroke-width="0.814669"/>
<path d="M613.132 907.64L577.286 907.64L577.286 879.533C577.286 869.635 585.311 861.611 595.209 861.611C605.107 861.611 613.132 869.635 613.132 879.533L613.132 907.64Z" stroke="black" stroke-width="0.814669"/>
<path d="M1281.35 1117.58H1141.97V1178.92H1339.41V875.867H1128.82V936.6H1281.35V1117.58Z" fill="#BFBFBF" stroke="black" stroke-width="0.814669"/>
<rect x="1145.11" y="1121.49" width="63.9515" height="54.5828" fill="#BFBFBF" stroke="black" stroke-width="0.814669"/>
<rect x="1289.72" y="960.591" width="49.6948" height="65.9882" fill="#BFBFBF" stroke="black" stroke-width="0.814669"/>
<rect x="1286.86" y="1058.76" width="48.0655" height="59.8782" fill="#BFBFBF" stroke="black" stroke-width="0.814669"/>
<circle cx="1299.29" cy="1074.44" r="9.16502" stroke="black" stroke-width="0.814669"/>
<circle cx="1322.91" cy="1102.96" r="9.16502" stroke="black" stroke-width="0.814669"/>
<circle cx="1322.91" cy="1074.44" r="5.49901" stroke="black" stroke-width="0.814669"/>
<circle cx="1299.29" cy="1102.96" r="5.49901" stroke="black" stroke-width="0.814669"/>
<path d="M1151.22 875.665V858.354H1208.25V875.081V876.276" stroke="black" stroke-width="0.814669"/>
<path d="M1233.5 875.484V858.756H1290.53V875.484" stroke="black" stroke-width="0.814669"/>
<path d="M1147.76 876.068V849.184H1211.51V876.068" stroke="black" stroke-width="0.814669"/>
<path d="M1230.25 876.275V849.391H1293.99V876.275" stroke="black" stroke-width="0.814669"/>
<path d="M1130.9 742.665C1129.14 756.922 1131.59 785.436 1155.52 785.436C1179.46 785.436 1183.45 757.837 1182.45 744.038" stroke="black" stroke-width="0.814669"/>
<path d="M1229.07 742.665C1227.3 756.922 1229.76 785.436 1253.69 785.436C1277.63 785.436 1281.61 757.837 1280.62 744.038" stroke="black" stroke-width="0.814669"/>
<path d="M1126.5 742.669C1124.42 761.135 1127.32 798.066 1155.55 798.066C1183.79 798.066 1188.49 762.32 1187.31 744.446" stroke="black" stroke-width="0.814669"/>
<path d="M1224.67 742.669C1222.59 761.135 1225.48 798.066 1253.72 798.066C1281.95 798.066 1286.66 762.32 1285.48 744.446" stroke="black" stroke-width="0.814669"/>
<rect x="1108.05" y="648.571" width="196.335" height="96.1309" fill="#BFBFBF" stroke="black" stroke-width="0.814669"/>
<rect x="1087.61" y="611.1" width="290.022" height="230.551" transform="rotate(-90 1087.61 611.1)" stroke="black" stroke-width="0.814669"/>
<rect x="1116.94" y="489.712" width="68.0248" height="51.7315" transform="rotate(-90 1116.94 489.712)" stroke="black" stroke-width="0.814669"/>
<path d="M1177.64 428.205C1199.46 428.205 1217.15 445.985 1217.15 467.921C1217.15 489.857 1199.46 507.636 1177.64 507.636C1155.82 507.636 1138.12 489.857 1138.12 467.921C1138.12 445.985 1155.82 428.205 1177.64 428.205Z" fill="#BFBFBF" stroke="black" stroke-width="0.814669"/>
<path d="M1082.81 415.871C1081.58 416.866 1079.79 416.684 1078.79 415.463L1054.98 386.26C1048.16 377.891 1049.41 365.575 1057.78 358.751L1070.39 348.475C1077.19 342.931 1087.19 343.949 1092.74 350.749L1118.86 382.794C1119.86 384.014 1119.68 385.81 1118.46 386.805L1082.81 415.871Z" fill="#BFBFBF" stroke="black" stroke-width="0.814669"/>
<path d="M1086.45 412.899C1085.23 413.894 1083.44 413.711 1082.44 412.49L1060.64 385.75C1056.52 380.694 1057.27 373.253 1062.33 369.13L1076.79 357.339C1081.85 353.216 1089.29 353.973 1093.41 359.03L1115.21 385.77C1116.21 386.991 1116.03 388.787 1114.81 389.782L1086.45 412.899Z" fill="#BFBFBF" stroke="black" stroke-width="0.814669"/>
<path d="M1153.91 391.629C1152.48 390.975 1151.85 389.284 1152.5 387.851L1168.14 353.573C1172.63 343.749 1184.22 339.42 1194.05 343.903L1208.84 350.655C1216.82 354.298 1220.34 363.721 1216.7 371.703L1199.53 409.316C1198.88 410.749 1197.19 411.38 1195.76 410.726L1153.91 391.629Z" fill="#BFBFBF" stroke="black" stroke-width="0.814669"/>
<path d="M1158.19 393.584C1156.76 392.93 1156.13 391.239 1156.78 389.806L1171.11 358.419C1173.82 352.484 1180.82 349.868 1186.76 352.577L1203.73 360.324C1209.67 363.033 1212.29 370.04 1209.58 375.975L1195.25 407.362C1194.6 408.795 1192.91 409.426 1191.47 408.773L1158.19 393.584Z" fill="#BFBFBF" stroke="black" stroke-width="0.814669"/>
<path d="M1136.55 617.175L1229.35 617.175L1309.99 617.175C1320.92 617.175 1323.52 608.189 1323.46 603.696L1323.46 390.458C1323.46 382.969 1315.23 379.1 1311.11 378.102L1254.61 378.102C1244.88 378.102 1242.32 386.339 1242.26 390.458L1242.26 510.65C1242.26 526.825 1231.66 531.868 1226.35 532.367L1136.55 532.367C1125.92 532.367 1121.77 540.355 1121.02 544.349L1121.02 605.755C1121.02 615.64 1131.37 617.487 1136.55 617.175Z" fill="#BFBFBF" stroke="black" stroke-width="0.814669"/>
<rect x="1295.36" y="488.901" width="102.241" height="22.8107" transform="rotate(-90 1295.36 488.901)" stroke="black" stroke-width="0.814669"/>
<rect x="1295.36" y="596.843" width="102.241" height="22.8107" transform="rotate(-90 1295.36 596.843)" stroke="black" stroke-width="0.814669"/>
<rect x="1132.83" y="588.288" width="116.498" height="22.8107" stroke="black" stroke-width="0.814669"/>
<path d="M1299.32 580.353C1284.02 578.7 1268.07 587.053 1262 591.437C1257.8 594.893 1258 601.894 1258.63 604.962C1258.94 608.093 1263.13 614.355 1277.38 614.355C1291.63 614.355 1306.57 604.336 1312.26 599.327C1314.33 593.691 1314.63 582.006 1299.32 580.353Z" fill="#BFBFBF" stroke="black" stroke-width="0.814669"/>
<path d="M1284.25 571.392C1268.95 569.739 1253 578.092 1246.93 582.476C1242.73 585.932 1242.93 592.933 1243.56 596.002C1243.87 599.133 1248.06 605.395 1262.31 605.395C1276.57 605.395 1291.51 595.375 1297.19 590.366C1299.26 584.73 1299.56 573.045 1284.25 571.392Z" fill="#BFBFBF" stroke="black" stroke-width="0.814669"/>
<rect x="975.253" y="603.358" width="312.018" height="24.0327" transform="rotate(-90 975.253 603.358)" fill="#BFBFBF" stroke="black" stroke-width="0.814669"/>
<rect x="910.894" y="291.343" width="312.018" height="24.0327" transform="rotate(90 910.894 291.343)" fill="#BFBFBF" stroke="black" stroke-width="0.814669"/>
<rect x="542.257" y="360.183" width="312.018" height="24.0327" transform="rotate(90 542.257 360.183)" fill="#BFBFBF" stroke="black" stroke-width="0.814669"/>
<rect x="999.693" y="526.375" width="182.078" height="3.25865" transform="rotate(-90 999.693 526.375)" fill="black"/>
<rect x="886.457" y="368.328" width="182.078" height="3.25865" transform="rotate(90 886.457 368.328)" fill="black"/>
<rect x="517.816" y="437.168" width="182.078" height="3.25865" transform="rotate(90 517.816 437.168)" fill="black"/>
<path d="M1340.02 359.977V274.233H975.254L910.488 278.51H785.844C711.573 223.519 490.974 111.299 201.93 111.299" stroke="black" stroke-width="0.814669"/>
<path d="M579.735 176.272L595.621 181.975L558.524 344.07L541.853 340.229L579.735 176.272Z" fill="black"/>
<rect x="314.149" y="297.064" width="16.7007" height="234.382" transform="rotate(-77.6548 314.149 297.064)" fill="black"/>
<path d="M648.57 947.76C633.43 948.031 596.96 949.593 578.712 960.998L646.94 1036.76" stroke="black" stroke-width="0.814669"/>
<path d="M882.177 922.297L882.142 698.263" stroke="black" stroke-width="0.814669"/>
<path d="M863.029 726.499L881.944 734.164L899.893 726.499" stroke="black" stroke-width="0.814669"/>
<path d="M863.029 714.025L881.944 721.689L899.893 714.025" stroke="black" stroke-width="0.814669"/>
<path d="M863.029 739.046L881.944 746.711L899.893 739.046" stroke="black" stroke-width="0.814669"/>
<path d="M863.029 751.587L881.944 759.252L899.893 751.587" stroke="black" stroke-width="0.814669"/>
<path d="M863.029 764.128L881.944 771.793L899.893 764.128" stroke="black" stroke-width="0.814669"/>
<path d="M863.029 776.671L881.944 784.336L899.893 776.671" stroke="black" stroke-width="0.814669"/>
<path d="M863.029 789.214L881.944 796.879L899.893 789.214" stroke="black" stroke-width="0.814669"/>
<path d="M863.029 801.759L881.944 809.424L899.893 801.759" stroke="black" stroke-width="0.814669"/>
<path d="M863.029 814.3L881.944 821.965L899.893 814.3" stroke="black" stroke-width="0.814669"/>
<path d="M863.029 826.843L881.944 834.508L899.893 826.843" stroke="black" stroke-width="0.814669"/>
<path d="M863.029 839.388L881.944 847.053L899.893 839.388" stroke="black" stroke-width="0.814669"/>
<path d="M863.029 851.927L881.944 859.592L899.893 851.927" stroke="black" stroke-width="0.814669"/>
<path d="M863.029 863.646L881.944 871.311L899.893 863.646" stroke="black" stroke-width="0.814669"/>
<path d="M863.029 876.275L881.944 883.939L899.893 876.275" stroke="black" stroke-width="0.814669"/>
<path d="M863.029 888.083L881.944 895.748L899.893 888.083" stroke="black" stroke-width="0.814669"/>
<path d="M863.029 900.712L881.944 908.377L899.893 900.712" stroke="black" stroke-width="0.814669"/>
<path d="M853.05 924.744L853.05 694.6" stroke="black" stroke-width="0.814669"/>
<path d="M202.948 693.785L431.87 693.55" stroke="black" stroke-width="0.814669"/>
<path d="M398.746 674.441L391.081 693.357L398.746 711.305" stroke="black" stroke-width="0.814669"/>
<path d="M411.221 674.441L403.556 693.357L411.221 711.305" stroke="black" stroke-width="0.814669"/>
<path d="M386.202 674.441L378.537 693.357L386.202 711.305" stroke="black" stroke-width="0.814669"/>
<path d="M373.658 674.441L365.993 693.357L373.658 711.305" stroke="black" stroke-width="0.814669"/>
<path d="M361.118 674.441L353.453 693.357L361.118 711.305" stroke="black" stroke-width="0.814669"/>
<path d="M348.574 674.441L340.909 693.357L348.574 711.305" stroke="black" stroke-width="0.814669"/>
<path d="M336.03 674.441L328.365 693.357L336.03 711.305" stroke="black" stroke-width="0.814669"/>
<path d="M323.49 674.441L315.825 693.357L323.49 711.305" stroke="black" stroke-width="0.814669"/>
<path d="M310.946 674.441L303.281 693.357L310.946 711.305" stroke="black" stroke-width="0.814669"/>
<path d="M298.402 674.441L290.737 693.357L298.402 711.305" stroke="black" stroke-width="0.814669"/>
<path d="M285.862 674.441L278.197 693.357L285.862 711.305" stroke="black" stroke-width="0.814669"/>
<path d="M273.318 674.441L265.653 693.357L273.318 711.305" stroke="black" stroke-width="0.814669"/>
<path d="M261.602 674.441L253.937 693.357L261.602 711.305" stroke="black" stroke-width="0.814669"/>
<path d="M248.972 674.441L241.307 693.357L248.972 711.305" stroke="black" stroke-width="0.814669"/>
<path d="M237.161 674.441L229.496 693.357L237.161 711.305" stroke="black" stroke-width="0.814669"/>
<path d="M224.534 674.441L216.869 693.357L224.534 711.305" stroke="black" stroke-width="0.814669"/>
<path d="M200.502 664.869H430.646" stroke="black" stroke-width="0.814669"/>
<rect x="202.947" y="723.117" width="227.7" height="13.442" fill="black"/>
<rect x="202.947" y="926.374" width="60.2855" height="115.276" fill="#BFBFBF" stroke="black" stroke-width="0.814669"/>
<rect x="0.47" y="0.47" width="66.1459" height="46.6798" transform="matrix(-4.37114e-08 1 1 4.37114e-08 210.381 950)" fill="#BFBFBF" stroke="black" stroke-width="0.94"/>
<circle cx="4" cy="4" r="3.54248" transform="matrix(1 -7.69615e-09 8.28105e-09 -1 231 987)" stroke="black" stroke-width="0.915047"/>
<path d="M215.811 982L209 982L209 985L215.811 985M215.811 982L215.811 985M215.811 982L220.472 982M215.811 985L220.472 985M220.472 985L228 985L228 982L220.472 982M220.472 985L220.472 982" stroke="black" stroke-width="0.915047"/>
<rect x="562.623" y="706.821" width="166.192" height="57.4342" stroke="black" stroke-width="0.814669"/>
<rect x="566.695" y="730.448" width="24.4401" height="9.77603" rx="1.222" stroke="black" stroke-width="0.814669"/>
<rect x="0.47" y="-0.47" width="66.1459" height="54.4537" transform="matrix(1 0 0 -1 653 919.455)" fill="#BFBFBF" stroke="black" stroke-width="0.94"/>
<path d="M686.092 891.747C684.19 891.747 682.636 893.315 682.636 895.264C682.636 897.213 684.19 898.781 686.092 898.781C687.994 898.781 689.548 897.213 689.548 895.264C689.548 893.315 687.994 891.747 686.092 891.747Z" stroke="black" stroke-width="0.915047"/>
<path d="M684.719 915.135L684.719 922L687.888 922L687.888 915.135M684.719 915.135L687.888 915.135M684.719 915.135L684.719 910.438M687.888 915.135L687.888 910.438M687.888 910.438L687.888 902.851L684.719 902.851L684.719 910.438M687.888 910.438L684.719 910.438" stroke="black" stroke-width="0.915047"/>
<rect x="557.736" y="339.816" width="268.841" height="298.576" stroke="black" stroke-width="0.814669"/>
<rect x="558.139" y="360.591" width="211.407" height="115.276" fill="#BFBFBF" stroke="black" stroke-width="0.814669"/>
<path d="M570.359 360.59V476.273" stroke="black" stroke-width="0.814669"/>
<path d="M621.992 360.184C621.859 363.02 622.192 369.584 624.589 373.15C627.587 377.607 627.786 384.09 627.786 388.75C627.786 393.41 630.384 395.233 632.582 403.742C634.78 412.251 637.977 411.238 634.18 418.937C630.384 426.635 630.983 431.7 630.184 439.602C629.385 447.503 630.384 446.693 626.188 455.607C621.992 464.521 621.592 463.103 620.593 468.168C619.794 472.22 617.729 474.989 616.797 475.867" stroke="black" stroke-width="0.814669"/>
<path d="M602.13 408.451C600.297 409.47 596.672 412.484 596.835 416.394C597.039 421.282 593.169 421.893 595.409 431.873C597.65 441.853 595.817 452.24 599.89 457.535C603.963 462.83 601.519 465.071 606.611 466.293C611.703 467.515 616.591 468.126 618.016 467.718C619.157 467.392 620.664 466.632 621.275 466.293" stroke="black" stroke-width="0.814669"/>
<path d="M627.387 390.954C623.511 390.274 615.011 389.567 612.015 392.177C608.271 395.44 606.891 395.032 607.285 403.189C607.68 411.345 611.621 415.628 610.044 424.192C608.468 432.756 601.767 433.572 605.906 440.505C610.044 447.438 610.636 451.516 617.73 453.148C623.406 454.453 626.533 453.692 627.387 453.148" stroke="black" stroke-width="0.814669"/>
<path d="M622.702 368.328C616.931 368.735 605.105 370.12 603.964 372.401C602.538 375.253 604.168 375.66 601.52 379.937C598.872 384.214 596.428 381.974 597.854 390.935C599.28 399.897 596.225 400.304 600.094 405.396C603.964 410.487 604.168 412.931 607.019 413.135C609.3 413.298 609.124 412.252 608.852 411.709" stroke="black" stroke-width="0.814669"/>
<rect x="558.135" y="503.567" width="211.407" height="115.276" fill="#BFBFBF" stroke="black" stroke-width="0.814669"/>
<path d="M570.355 503.566V619.249" stroke="black" stroke-width="0.814669"/>
<path d="M621.988 503.16C621.855 505.997 622.188 512.561 624.586 516.126C627.583 520.584 627.782 527.067 627.782 531.726C627.782 536.386 630.38 538.209 632.578 546.719C634.776 555.228 637.973 554.215 634.176 561.913C630.38 569.612 630.979 574.677 630.18 582.578C629.381 590.48 630.38 589.669 626.184 598.583C621.988 607.498 621.588 606.08 620.589 611.144C619.79 615.196 617.725 617.965 616.793 618.843" stroke="black" stroke-width="0.814669"/>
<path d="M602.126 551.428C600.293 552.446 596.668 555.46 596.831 559.371C597.035 564.259 593.165 564.87 595.405 574.849C597.646 584.829 595.813 595.216 599.886 600.512C603.959 605.807 601.515 608.047 606.607 609.269C611.699 610.491 616.587 611.102 618.012 610.695C619.153 610.369 620.66 609.609 621.271 609.269" stroke="black" stroke-width="0.814669"/>
<path d="M627.383 533.931C623.507 533.251 615.007 532.544 612.011 535.154C608.267 538.417 606.887 538.009 607.281 546.165C607.676 554.322 611.617 558.604 610.04 567.169C608.464 575.733 601.763 576.549 605.902 583.482C610.04 590.415 610.632 594.493 617.726 596.124C623.402 597.429 626.529 596.668 627.383 596.124" stroke="black" stroke-width="0.814669"/>
<path d="M622.698 511.305C616.927 511.712 605.101 513.097 603.96 515.378C602.535 518.229 604.164 518.637 601.516 522.914C598.869 527.191 596.425 524.95 597.85 533.912C599.276 542.873 596.221 543.28 600.09 548.372C603.96 553.464 604.164 555.908 607.015 556.111C609.296 556.274 609.12 555.229 608.848 554.686" stroke="black" stroke-width="0.814669"/>
<path d="M613.948 652.646C613.948 668.915 602.94 681.974 589.508 681.974C576.075 681.974 565.067 668.915 565.067 652.646C565.067 636.377 576.075 623.317 589.508 623.317C602.94 623.317 613.948 636.377 613.948 652.646Z" fill="#BFBFBF" stroke="black" stroke-width="0.814669"/>
<path d="M257.531 594.806C257.531 611.075 246.523 624.134 233.091 624.134C219.658 624.134 208.65 611.075 208.65 594.806C208.65 578.537 219.658 565.478 233.091 565.478C246.523 565.478 257.531 578.537 257.531 594.806Z" fill="#BFBFBF" stroke="black" stroke-width="0.814669"/>
<path d="M256.307 343.888C256.307 360.157 245.299 373.216 231.867 373.216C218.435 373.216 207.427 360.157 207.427 343.888C207.427 327.619 218.435 314.56 231.867 314.56C245.299 314.56 256.307 327.619 256.307 343.888Z" fill="#BFBFBF" stroke="black" stroke-width="0.814669"/>
<path d="M619.289 321.601C615.525 337.428 601.795 347.587 588.727 344.479C575.659 341.372 567.971 326.12 571.735 310.292C575.499 294.465 589.229 284.307 602.297 287.414C615.365 290.522 623.053 305.773 619.289 321.601Z" fill="#BFBFBF" stroke="black" stroke-width="0.814669"/>
<rect x="200.909" y="343.073" width="272.099" height="264.36" stroke="black" stroke-width="0.814669"/>
<rect x="202.948" y="382.177" width="209.777" height="178.412" fill="#BFBFBF" stroke="black" stroke-width="0.814669"/>
<path d="M266.707 414.579C262.831 413.899 254.331 413.192 251.335 415.802C247.591 419.065 246.212 418.657 246.606 426.814C247 434.97 250.941 439.253 249.365 447.817C247.788 456.381 241.088 457.197 245.226 464.13C249.365 471.063 249.956 475.141 257.051 476.773C262.726 478.078 271.95 476.815 272.804 476.271" stroke="black" stroke-width="0.814669"/>
<path d="M262.026 391.951C256.255 392.359 244.429 393.743 243.288 396.025C241.863 398.876 243.492 399.283 240.844 403.56C238.197 407.837 235.753 405.597 237.178 414.558C238.604 423.52 235.549 423.927 239.419 429.019C243.288 434.11 243.492 436.554 246.343 436.758C248.624 436.921 248.448 435.875 248.176 435.332" stroke="black" stroke-width="0.814669"/>
<path d="M261.505 381.77C261.371 386.164 261.704 396.334 264.102 401.858C267.099 408.763 267.299 418.808 267.299 426.027C267.299 433.246 269.897 436.071 272.094 449.254C274.292 462.437 277.489 460.868 273.693 472.796C269.897 484.723 270.496 492.57 269.697 504.812C268.898 517.053 269.896 515.798 265.701 529.608C261.505 543.419 261.105 541.222 260.106 549.069C259.307 555.347 257.242 559.637 256.31 560.997" stroke="black" stroke-width="0.814669"/>
<path d="M248.645 496.128C246.557 496.323 242.026 497.624 240.602 501.27C238.822 505.827 235.034 504.83 233.071 514.868C231.108 524.906 225.251 533.678 226.851 540.165C228.45 546.651 225.311 547.719 229.482 550.886C233.652 554.053 237.881 556.578 239.35 556.779C240.525 556.939 257.855 555.152 258.551 555.087" stroke="black" stroke-width="0.814669"/>
<path d="M271.089 483.712C267.447 482.221 259.294 479.715 255.81 481.625C251.456 484.013 250.195 483.32 248.839 491.373C247.482 499.426 250.418 504.451 247.049 512.481C243.681 520.511 236.961 519.877 239.523 527.534C242.086 535.191 241.793 539.302 248.376 542.41C253.642 544.897 259.841 545.255 260.791 544.906" stroke="black" stroke-width="0.814669"/>
<rect x="419.649" y="416.394" width="39.9188" height="127.088" fill="#BFBFBF" stroke="black" stroke-width="0.814669"/>
</svg>
